<?xml version="1.0" encoding="UTF-8"?>
<svg width="700pt" height="700pt" version="1.1" viewBox="0 0 700 700" xmlns="http://www.w3.org/2000/svg" xmlns:xlink="http://www.w3.org/1999/xlink">

 <g>
  <path d="m162.4 150.08h375.76v-62.156h-375.76zm348.88-122.08c2.2383 0 4.4805 1.1211 5.6016 3.3594l32.48 45.359c1.1211 1.1211 1.6797 2.8008 1.6797 4.4805v422.8c0 3.9219-2.8008 6.7188-6.7188 6.7188h-5.0391v14.559c0 3.9219-2.8008 6.7188-6.7188 6.7188h-45.922c-3.9219 0-6.7188-2.8008-6.7188-6.7188v-14.559h-259.85v14.559c0 3.9219-2.8008 6.7188-6.7188 6.7188h-45.922c-3.9219 0-6.7188-2.8008-6.7188-6.7188v-14.559h-5.0391c-3.9219 0-6.7188-2.8008-6.7188-6.7188v-422.8c0-1.6797 0.55859-3.3594 1.6797-4.4805l33.039-45.922c1.1211-1.6797 3.3594-2.8008 5.6016-2.8008zm-3.3594 13.441h-315.84l-23.52 32.48h362.32zm-98.562 122.64v9.5234c0 11.762-9.5195 20.719-20.719 20.719h-77.281c-11.199 0-20.719-9.5195-20.719-20.719v-10.078l-128.24-0.003907v295.68h375.76v-295.12zm-105.28 0v9.5234c0 3.9219 3.3594 7.2812 7.2812 7.2812h77.281c3.9219 0 7.2812-3.3594 7.2812-7.2812v-10.078l-91.844-0.003907zm233.52 308.56h-375.2v24.078h375.76v-24.078zm-363.44 45.918h31.922v-7.8398h-31.922zm319.2 0h31.922v-7.8398h-31.922z" fill-rule="evenodd"/>
  <path d="m179.76 105.84c0-8.9609 13.441-8.9609 13.441 0v26.32c0 8.9609-13.441 8.9609-13.441 0z" fill-rule="evenodd"/>
  <path d="m216.16 105.84c0-8.9609 13.441-8.9609 13.441 0v26.32c0 8.9609-13.441 8.9609-13.441 0z" fill-rule="evenodd"/>
  <path d="m252 105.84c0-8.9609 13.441-8.9609 13.441 0v26.32c0 8.9609-13.441 8.9609-13.441 0z" fill-rule="evenodd"/>
  <path d="m287.84 105.84c0-8.9609 13.441-8.9609 13.441 0v26.32c0 8.9609-13.441 8.9609-13.441 0z" fill-rule="evenodd"/>
  <path d="m324.24 105.84c0-8.9609 13.441-8.9609 13.441 0v26.32c0 8.9609-13.441 8.9609-13.441 0z" fill-rule="evenodd"/>
  <path d="m494.48 97.441c11.762 0 21.281 9.5195 21.281 21.281 0 11.762-9.5195 21.281-21.281 21.281s-21.281-9.5195-21.281-21.281c0-11.203 9.5195-21.281 21.281-21.281zm0 10.637c-6.1602 0-11.199 5.0391-11.199 11.199s5.0391 11.199 11.199 11.199c6.1602 0 11.199-5.0391 11.199-11.199 0-6.7188-5.0391-11.199-11.199-11.199z" fill-rule="evenodd"/>
 </g>
</svg>
