<?xml version="1.0" encoding="utf-8"?>
<svg viewBox="126.272 10.709 568.116 447.196" xmlns="http://www.w3.org/2000/svg">
  <g transform="matrix(1, 0, 0, 1, 60.348827, -45.693413)">
    <path d="m520.97 90.148c7.9805 1.5547 16.148 1.9453 24.242 1.1523 1.3633-0.28906 2.5781-1.0469 3.4336-2.1484 7.9141-8.6445 12.504-8.3438 19.91 1.4219 0.26953 0.22656 0.56641 0.41406 0.88281 0.56641 4.6992 0.76562 9.4297-1.168 12.25-5.0039 2.3867-3.2695 6.8281-4.2656 10.383-2.3242 3.4766 1.25 5.6953 4.6602 5.4375 8.3477 1.5195 6.4375-0.48047 13.195-5.2578 17.77-1.7383 2.2852-4.6211 3.3828-7.4414 2.8398-2.8203-0.54688-5.0859-2.6445-5.8438-5.4141-0.8125-1.7266-1.3359-3.582-2.0195-5.4414-4.7891-1.9922-10.312-0.13281-12.922 4.3516-4.1445 5.5625-6.1875 12.41-5.7734 19.332 0.27734 12.035 0.027344 24.078 0.48047 36.109 0.58594 15.418 1.6445 30.824 2.5156 46.234 0.16406 2.8945 0.66016 5.8008 0.54688 8.6719h0.003906c-0.1875 16.199 1.625 32.359 5.3906 48.113 2.8711 13.711 5.3672 27.555 9.2734 40.996 3.8359 13.199 9.1719 25.992 13.984 38.914 1.8672 5.0117 2.4883 11.008 8.9766 12.902 2.168 4.2539 3.9414 8.6992 5.2891 13.281-0.63281 2.4844-2.2656 4.5898-4.5078 5.8281-2.2812 1.3242-3.4062 4.0039-2.7578 6.5625 1.6758 15.336 2.5898 30.746 4.5508 46.047 1.3125 10.246 3.7422 20.387 6.0664 30.488v-0.003906c1.1367 2.3516 2.4883 4.5898 4.0391 6.6953 1.0508 1.8164 1.5078 3.918 1.3008 6.0039-0.64844 2.3945-3.375 1.4688-5.4297 1.8359v0.003906c-5.6523 0.62891-11.152 2.2383-16.254 4.7578-4.5898 2.6562-10.148 3.0664-15.082 1.1133-6.5352-2.5703-12.914-5.5117-19.109-8.8203-3.0312-1.2344-4.7852-4.4219-4.2109-7.6445 0.16016-1.9141 0.41406-3.8164 0.57031-5.7266 1.3633-16.355 4.4219-32.523 9.1211-48.246-3.8906-0.66016-7.8164-1.1211-11.754-1.3828-17.105-0.25391-34.215-0.44531-51.316-0.39453-22.324 0.066406-44.645 0.51172-66.969 0.55469-19.773 0.039062-39.555-0.26172-59.332-0.375-23.605-0.13672-47.215-0.13281-70.82-0.43359-3.9023-0.5-7.5312 2.0859-8.3359 5.9375-1.918 6.3867-4.7383 12.465-8.3711 18.055-3.0352 4.8516-7.9414 8.2383-13.555 9.3555-5.6133 1.1133-11.441-0.13672-16.102-3.457-4.3516-2.9102-6.0859-8.4531-4.1719-13.324 1.8398-4.3516 6.5234-6.7617 11.133-5.7305 8.4219 1.125 11.273-0.9375 11.98-9.5078v-0.003907c-2.7148-0.51172-5.457-0.87109-8.2148-1.0703-23.641-0.46094-47.277-0.85938-70.918-1.1914-20.262-0.30469-40.523-0.51172-60.785-0.83984-3.8242-0.0625-7.6484-0.66016-11.469-0.71094-2.1992 0.16016-4.3828 0.5-6.5273 1.0156 0.78125 4.2617 1.2969 7.8047 2.0898 11.285 2.2578 9.8789 4.6914 19.719 6.9141 29.602 0.42578 2.1328 0.57422 4.3086 0.44922 6.4805-0.77734 4.0664 0.84375 8.2148 4.1719 10.68-2.9375 3.2305-6.8203 5.4492-11.098 6.3359-4.2773 0.88672-8.7227 0.39844-12.703-1.3984-5.1953-2.5547-10.543-4.7891-16.012-6.6914-2.9922-0.58984-5.0508-3.3555-4.7539-6.3906 1.1758-9.0234 1.5352-18.137 1.0703-27.227-0.003906-8.793 2.8008-17.504 3.5859-26.336 0.73438-8.8633 0.94922-17.766 0.64453-26.652-0.75-2.7734-2.043-5.3672-3.8008-7.6406 4.1641-14.277 4.1641-14.277 14.242-15.027 8.4844-17.078 18.777-33.629 21.656-53.309 1.6992-11.625 2.3594-23.473 4.8438-34.902 2.9453-13.543 2.1328-27.324 3.668-40.922 0.94531-8.3438 1.957-16.684 2.7852-25.043 0.96875-9.8086 2.1602-19.613 2.5547-29.461 0.63672-15.883 0.73438-31.797 0.98047-47.699 0.082031-5.2539-0.078126-10.516-0.12891-15.828-1.1641-1.2695-2.3398-2.4766-3.4336-3.7578v0.003906c-2.8555-3.9492-7.9883-5.5156-12.562-3.832-1.5312 0.94141-2.6992 2.375-3.3086 4.0664-1.9609 4.3984-6.3828 7.1758-11.195 7.0273-4.8633-1.4102-8.0859-6.0195-7.7461-11.07-0.33984-5.5469 1.2344-11.039 4.4609-15.562 4.9336-5.8359 10.68-5.4805 13.836 1.5859 0.86328 2.5703 3.3945 4.2031 6.0938 3.9258 4.3086 0.53516 8.6445-0.74219 11.973-3.5312 3.3086-2.4062 6.8789-4.4297 10.645-6.0312 1.5391 2.0586 2.9531 4.2031 4.2344 6.4297 0.94141 2.2969 3.1602 3.8125 5.6406 3.8516 5.2891 0.26562 10.578 0.59766 15.469 0.88281 2.8398-3.2539 5.1016-6.2852 7.8086-8.8477l0.003906-0.003906c1.3711-1.957 3.7695-2.9219 6.1172-2.457 2.3477 0.46484 4.1953 2.2695 4.7188 4.6055 0.82422 1.7109 1.4023 3.5391 2.1836 5.5508l14.559 0.11719c8.6523-10.867 14.547-11.02 20.703-0.070312 7.8867 0.0625 16.039 0.13281 24.191 0.19531 6.4805 0.050781 12.957 0.16016 19.438 0.12891 8.9023-0.046876 17.805-0.25781 26.707-0.30078 17.098-0.085937 34.195-0.25781 51.297-0.12109 33.508 0.27344 67.016 0.71875 100.52 1.1367 3.3789 0.35938 6.7266-0.92188 9.0039-3.4453 1.3594-1.332 3-2.3398 4.8047-2.9492 1.5391-1.0508 3.4492-1.4062 5.2617-0.98047s3.3633 1.5898 4.2773 3.2148c1.1641 1.75 2.8125 3.125 4.7422 3.9609 7.1797 0.78906 14.422 1.0352 21.641 1.1914h-0.003906c1.2852-0.42969 2.4102-1.2227 3.2461-2.2852 2.2188-2.1523 4.5547-4.1758 6.9961-6.0703 4.7422-3.207 7.1758-2.2109 9.1016 3.3594 0.37891 1.3711 0.67969 2.7617 0.90625 4.1641zm45.793 239.04 0.003906-0.003906c-0.39062-1.6094-0.91406-3.1875-1.5664-4.7109-5.043-9.668-10.168-19.297-15.293-28.926-16.617-30.414-28.812-63.043-36.227-96.898-4.2344-20.059-6.4453-40.488-6.5977-60.988 0.26953-4.8125 0.24219-9.6367-0.082032-14.445-1.0352-7.9492-0.21094-16.441-6.2617-24.066-6.5508-0.054688-13.512-0.20313-20.461-0.089844-1.6211-0.085938-3.2109 0.48828-4.4023 1.5938-3.2891 5.1758-8.3125 9.6016-8.6367 16.227-0.57813 11.754-1.3984 23.551-0.90234 35.297 0.42188 10.031 2.9609 19.992 3.793 30.035l-0.003906 0.003906c1.1328 8.6289 3.6484 17.023 7.457 24.852 6.5547 15.484 16.594 29.027 24.898 43.539 5.2812 9.2266 10.633 18.434 16.457 27.32 3.832 5.8477 8.6328 11.062 12.883 16.648 11.301 14.859 22.418 29.863 33.895 44.59v-0.003906c3.125 3.4531 6.5117 6.6562 10.133 9.5781l1.0508-0.97656c-3.1406-5.8789-6.2852-11.762-9.4258-17.641-0.24219-0.30859-0.47656-0.62109-0.70703-0.9375zm-211.08-194.81c0.046875 4.9062 0.070312 8.4805 0.11328 12.051 0.11719 9.1367 0.28516 18.273 0.35547 27.41 0.44922 56.691 0.90625 113.38 1.3633 170.07 0.046875 5.2656 0.85547 10.531 1.0469 15.805 0.29688 8.1133 0.14453 16.238 0.59766 24.344 0.41016 7.3789 0.65234 7.3906 8.0898 7.4648 10.852 0.10938 21.703 0.17578 32.559 0.27734 11.09 0.10547 22.18 0.25 33.273 0.3125h0.003906c1.2695-0.14063 2.5195-0.40234 3.7383-0.78516-0.65234-2.9336-1.3008-5.4531-1.7539-8.0039-0.63672-6.6914-2.4453-13.219-5.3477-19.281-0.80078-1.0938-1.1328-2.4648-0.91797-3.8047 0.21484-1.3398 0.96094-2.5391 2.0664-3.3281 2.4688-1.5625 5.0469-2.9414 7.7148-4.1328-1.5977-6.7422-3.2812-14.258-5.1875-21.719-1.1367-4.4492-2.8164-8.7773-3.8398-13.246h0.003906c-0.46484-1.7227-0.12109-3.5664 0.92969-5.0078 1.7109-0.66406 3.6289-0.51953 5.2188 0.39062 4.2734 1.9922 7.2773 5.9766 8.0195 10.629 0.50391 2.6484 1.1406 5.2695 1.9141 7.8516 0.45703-5.3359 0.32812-10.707-0.39063-16.016-0.60156-6.7031-1.5156-13.426-1.4883-20.125l0.003907 0.003907c-0.32031-1.6992 0.074218-3.4531 1.0898-4.8477 1.0156-1.3984 2.5664-2.3125 4.2773-2.5273 2.9531-0.046875 4.207 2.1992 4.7969 7.6602 0.69531 6.4062 1.6641 12.789 2.5117 19.184l1.5039-0.015625c0.51562-2.5195 0.99609-5.043 1.5508-7.5508 1.1914-5.3867 3.7852-6.8828 10.117-5.7305 2.8125 7.3906-0.45312 14.957 1.332 23.207l0.007813-0.003906c1.6484-1.6445 3.2109-3.3711 4.6836-5.1797 1.2031-1.1641 3.0508-1.3594 4.4727-0.46875 1.4219 0.89453 2.0547 2.6406 1.5273 4.2344-1.0781 3.168-2.3125 6.2773-3.707 9.3203-2.6445 6.8594-5.2109 13.75-7.9375 20.965 3.5352 1.2109 6.1797 2.1172 10.164 3.4805-7.043 10.883-4.1211 22.844-5.4727 34.938 20.637 0.066407 40.73 0.55469 61-1.3477h-0.003906c0.51562-2.6172 0.84375-5.2656 0.98438-7.9297-0.22656-8.3906-0.71094-16.781-1.0508-25.172-0.097656-2.4102-0.0625-4.8242-0.023438-7.2344 0.15234-8.9023 0.48047-17.805 0.42578-26.707h0.003906c-0.17188-3.5703-0.62891-7.1172-1.3711-10.613-0.12891-2.0273-0.69141-4.0078-1.6484-5.7969-9.4727-13.195-19.703-25.891-28.594-39.453-10.238-15.621-19.68-31.785-28.812-48.074-5.7266-9.332-9.625-19.664-11.488-30.453-2.0273-15.297-3.7578-30.648-4.875-46.02-0.41406-5.6875-2.0273-7.3281-7.3086-7.457-16.629-0.39844-33.258-0.89062-49.883-1.168-15.078-0.25391-30.152-0.27344-46.355-0.40234zm-129.71 0.46484c-0.23437 2.6367-0.45312 4.5117-0.55859 6.3984-0.53125 9.3477-0.85156 18.719-1.6016 28.043-0.48047 5.9727-1.9648 11.852-2.3242 17.828v-0.003906c-1.168 18.453-4.8945 36.652-11.078 54.074-4.6641 13.293-10.699 26.094-16.312 39.027-5.3047 13.609-13.184 26.07-23.207 36.699-4.8086 5.0195-7.0898 11.945-6.2031 18.84 0.23828 10.059-0.52734 20.117-0.50391 30.184 0.019531 7.8516 0.58984 15.707 0.92578 23.91 3.6016 0.32031 6.2109 0.73828 8.8164 0.74609 8.4414 0.03125 16.879-0.14844 25.32-0.13672 17.609 0.019531 35.219 0.16016 52.824 0.12891 3.4805-0.007812 6.9492-0.56641 10.055-0.83984-0.23828-3.5508-0.33594-6.1836-0.62109-8.8008h0.007813c-0.03125-2.1445-0.40625-4.2695-1.1094-6.2969-4.1914-9.3711-3.7344-20.168 1.2422-29.148 3.2344-6.9375 6.7227-13.758 10.039-20.656h-0.003906c2.9414-5.3477 3.3984-11.715 1.2617-17.43-2.3086-5.3125-4.1797-10.809-5.5898-16.426-0.91797-4.2148-0.82031-8.5898 0.28906-12.758 2.3867-7.2734 5.1758-14.41 8.3516-21.379 0.90625-3.3555 4.3594-5.3477 7.7188-4.4531 0.59766 2.707 1.3945 5.4609 1.7891 8.2656h0.003906c-0.23828 2.0781 0.53516 4.1445 2.0781 5.5547 1.543 1.4102 3.668 2 5.7148 1.5781 5.0547 0.5 10.055-1.3945 13.512-5.1172 0.77734-1.2617 2.0391-2.1523 3.4883-2.4648 1.4492-0.31641 2.9648-0.023438 4.1953 0.80078 2.6602 2 0.62109 4.5 0.11328 6.6484v0.003906c-1.5898 4.9844-1.7578 10.316-0.48047 15.391 8.9648 1.9336 8.9648 1.9336 9.8789 6.3164l-10.223-0.73828-0.003906 0.003907c2.5703 1.7422 5.0469 3.6211 7.418 5.625 0.53125 0.98047 0.51172 2.1719-0.058594 3.1328-0.92188 0.61328-2.082 0.73828-3.1133 0.33594-2.4922-1.0742-4.8281-2.5156-7.2266-3.8125l-0.40625 0.79297 5.4141 6.0742-1.0352 1.5234c-1.5898-0.62109-3.2031-1.1953-4.7656-1.875-1.7617-1.0938-3.9688-1.1758-5.8047-0.21875-1.8398 0.96094-3.0352 2.8164-3.1484 4.8828-0.14453 2.1602-0.089844 4.3281 0.15625 6.4766 0.97266 8.2188 4.0469 16.047 8.9336 22.727 4.0586 6.3516 6.0781 13.797 5.7891 21.328-0.007813 6.4883-0.51562 12.969-1.5273 19.375-0.98828 5.2188-0.71484 10.594 0.79297 15.68l23.832 0.19141c0.35938-4.3789 0.95703-8.1641 0.92578-11.957-0.13281-15.684-0.50781-31.367-0.69141-47.051-0.23438-20.234-0.41406-40.465-0.53906-60.699-0.10156-14.715-0.066406-29.43-0.19141-44.148-0.19531-23.137-0.44141-46.277-0.73047-69.418-0.066407-6.0312-0.21875-12.059-0.33203-18.09v0.011719c0.17969-1.4766-0.33984-2.9531-1.4062-3.9883-1.0664-1.0391-2.5586-1.5117-4.0273-1.2852-7.457 0.003906-14.914-0.13281-22.371-0.17188-13.719-0.070313-27.438-0.0625-41.16-0.17578-8.918-0.074219-17.84-0.49609-26.75-0.39062-5.2109 0.058593-10.398 0.85156-15.777 1.3281zm-103.55 221.1c-0.33594-2.1172-0.31641-4.2734 0.050781-6.3828 1.5586-3.4844 3.3945-6.8398 5.4922-10.031 3.3398-5.2227 6.9648-10.262 10.375-15.441 2.7578-4.1875 5.4766-8.4023 8.0273-12.719 5.5781-9.4336 11.254-18.82 16.473-28.457 3.8594-7.1328 6.9609-14.688 10.629-21.93v-0.007813c0.89453-1.6328 2.2734-2.9414 3.9531-3.75 0.99609-0.53125 2.2188-0.41406 3.0977 0.30078 0.87891 0.71484 1.2422 1.8867 0.92578 2.9727-0.42187 1.6055-1.0742 3.1406-1.9414 4.5586-1.7461 3.3828-3.6641 6.6719-5.3516 10.082-2.4062 5.7227-5.1289 11.309-8.1562 16.73-9.6914 15.062-19.82 29.844-29.871 44.668-3.1484 3.9688-5.582 8.4531-7.1953 13.254 6.9336-5.4766 13.527-11.367 19.742-17.645 8.1211-8.418 15.809-17.246 23.031-26.449 8.8242-12.5 16.18-25.973 21.922-40.152 6.1328-13.785 11.152-28.035 15.004-42.625 5.9023-21.621 4.707-44.422 10.188-66.094v0.003906c0.14062-0.95703 0.14453-1.9297 0.011719-2.8867-0.54688-12.957-1.4688-25.918-1.5117-38.871 0.089844-6.0039-2.5508-11.727-7.1836-15.555-3.8281-3.4648-17.617-3.3711-21.004 0.37891l0.003906 0.003906c-0.95312 1.0508-1.6094 2.332-1.9141 3.7188-0.73047 3.5273-1.2383 7.0938-1.5195 10.688-0.83984 12.711-1.3242 25.453-2.293 38.152-2.4062 21.941-6.5781 43.656-12.477 64.93-4.207 17.449-8.8086 34.797-13.395 52.145v-0.003906c-1.8633 8.6406-4.3672 17.129-7.4883 25.398-9.7773 21.812-21.594 42.656-35.285 62.25-0.54297 1.082-0.94531 2.2305-1.1914 3.418l1.0703 0.83203zm428.91-70.262 1.6992-0.42969c-2.9766-12.402-5.9492-24.809-8.9258-37.211-0.95703-3.9961-1.957-7.9805-2.875-11.984-0.53125-2.3203-0.41016-4.543 2.4688-5.0195 1.0938-0.22266 2.2305 0.10156 3.0508 0.86328 0.81641 0.76562 1.2109 1.8789 1.0625 2.9883 0.53906 4.5508 1.0703 9.1055 1.7227 13.645 3.4961 18.039 9.0547 35.617 16.566 52.391 0.73047 1.6211 1.5508 3.1992 2.457 4.7305-0.12109-3.8945-0.67969-7.7578-1.6641-11.523-4.8047-17.457-8.1562-35.281-10.02-53.293-0.84766-9.3594-1.1758-18.754-1.7656-28.133-0.89062-14.188-2.1484-28.367-2.6211-42.559-0.5625-16.871-0.39453-33.754-0.71094-50.633 0.027344-2.8477-0.50781-5.6758-1.5703-8.3203-1.9258-3.6484-4.0898-7.168-6.4727-10.531-5.1211-0.30469-11.109-0.83203-17.098-0.96875h-0.003907c-2.8828 0.44922-5.5664 1.7461-7.7109 3.7266-2.1445 1.9766-3.6523 4.5508-4.3281 7.3867-0.39453 10.008-0.82812 20.043-0.48047 30.055 0.29688 10.109 1.168 20.195 2.6094 30.207 2.207 14.781 4.4609 29.633 8.1055 44.125h0.003906c3.5742 13.066 7.8867 25.922 12.918 38.496 4.082 10.824 9.0234 21.34 13.582 31.992zm-326.18-169.33c2.5938 0.20312 4.4766 0.47266 6.3516 0.47266 8.1953 0 16.391-0.13281 24.586-0.125 15.18 0.019531 30.359 0.15625 45.535 0.15625 19.027-0.003906 38.043-0.25391 57.066-0.097656 14.652 0.12109 29.312 0.92578 43.965 1.0195 11.789 0.074219 23.566-0.50781 35.352-0.69531 5.0586-0.082032 10.129 0.21094 15.188 0.12891 6.2969-0.10156 7.9531-1.6133 7.082-7.8281h-0.003906c-0.92969-3.6992-2.2617-7.2852-3.9766-10.695-77.309 0.089844-153.98-2.8555-229.96-0.61719-4.8477 6.1641-1.2031 11.863-1.1797 18.281zm-83.645 181.22c1.2734-2.4961 2.3906-5.0664 3.3359-7.7031 2.7656-9.668 5.5-19.352 7.9414-29.113 4.0625-16.258 8.0469-32.535 11.766-48.879 3.8828-17.047 8.5156-34.012 10.793-51.316 2.3438-17.824 2.3633-36.004 3.1172-54.043-0.023438-2.5156-1.0898-4.9102-2.9453-6.6094-1.8555-1.6953-4.3359-2.5469-6.8438-2.3438-2.6562 0.011719-5.3125-0.0625-7.9648-0.039062v-0.003906c-3.8867 0.13672-7.582 1.7266-10.352 4.4531-2.7734 2.7227-4.4219 6.3906-4.625 10.273-0.082031 8.4102 0.039062 16.824-0.14453 25.23-0.71875 5.957-0.96875 11.965-0.74219 17.961 0.88281 11.52 0.52344 23.105-1.0703 34.551-1.1719 16.277-4.9883 32.23-4.5859 48.762v-0.003906c0.28125 8.6484-0.80859 17.285-3.2344 25.594-1.3008 6.0703-2.0703 12.242-2.3008 18.449l1.3906 0.25391c1.6953-9.7695 3.5898-19.508 5.0117-29.32 0.89453-6.1758 1.0273-12.469 1.6094-18.699 0.22266-2.3789 0.42578-5.4961 3.7109-5.0469 3.3203 0.45312 2.5938 3.6016 2.4062 5.9102l0.003906-0.003906c-0.30469 6.7227-0.96484 13.426-1.9727 20.082-2.0508 10.828-4.7734 21.523-7.3281 32.242h-0.003906c-1.6758 3.4258-0.33594 7.5664 3.0273 9.3633zm118.96 129.08c-0.65625 1.1328-0.71094 2.5156-0.14453 3.6992 0.5625 1.1836 1.6719 2.0117 2.9648 2.2148 6.9844 3.043 15.125-0.019531 18.367-6.9102 1.8594-3.3398 3.4727-6.8086 4.8242-10.383 1.9609-4.8711 3.5117-9.918 5.5664-14.746 1.2305-3.5859 3.0508-6.9414 5.3906-9.9219 6.4453-6.5039 10.219-15.184 10.582-24.328 0.011719-3.3711 0.22266-6.7344 0.625-10.082 0.72266-4.8398-0.33203-9.7812-2.9727-13.906-6.8867-10.559-11.012-22.68-11.992-35.25-0.64062-3.7461 0.78516-7.5469 3.7344-9.9414 3.5469-2.2539 6.1875-5.6797 7.4688-9.6797s1.1211-8.3242-0.45703-12.215c-3.8203 2.0547-4.6562 7.418-9.8828 9.1836 0.085938-2.043 0.066407-3.4297 0.22656-4.7891 0.18359-1.5586 0.53125-3.0977 0.80469-4.6523-8.3516-1.4258-8.3281-1.4062-12.488 4.1562-2.0156 2.6914-4.1484 5.2969-6.8984 8.793-1.7773-7.375 2.9336-12.152 3.0898-18.883-6.6797 11.398-7.0508 19.922-0.56641 33.043v-0.003906c3.7812 8.1953 3.6445 17.664-0.375 25.746-2.293 5.7344-5.7852 10.961-8.3555 16.598-6.9727 15.305-8.1758 26.344 5.6719 39.117v0.003906c2.5 2.2969 4.2578 5.2852 5.0547 8.582 1.4141 6.8086 2.1406 13.738 2.1758 20.691 0.18359 3.6602-1.1602 7.2344-3.7148 9.8672-2.5508 2.6328-6.082 4.0898-9.75 4.0195-2.9805 0.14453-5.9688 0.13672-8.9492-0.023438zm86.422-292.07c-2.625 2.0938-3.7227 5.5664-2.7773 8.7891 0.015625 26.531 0.0625 53.066 0.30859 79.602 0.33203 36.188 0.77734 72.371 1.3359 108.56 0.26953 16.125 1.0391 32.25 1.7617 48.367h0.003906c0.42578 3.9492 1.0625 7.875 1.9141 11.758 0.72266-1.0273 1.3008-2.1445 1.7148-3.3281-0.015626-7.1992-0.011719-14.398-0.21094-21.594-0.39062-14.211-1.1445-28.422-1.3242-42.629-0.35547-28.449-0.49219-56.902-0.56641-85.348-0.023437-9.6172 0.55859-19.227 0.61328-28.844 0.054688-9.3516-0.20312-18.711-0.33594-28.066-0.20312-14.449-0.375-28.895-0.6875-43.344h0.003906c-0.35547-1.3984-0.94922-2.7266-1.7539-3.9219zm256.26 333.9c-0.67578-2.4062-1.0234-3.5352-1.3086-4.6797v-0.003907c-4.2461-13.574-6.6328-27.66-7.0898-41.879-0.22266-7.9375-0.96094-15.855-2.2109-23.695-0.31641-2.9297-0.875-5.8398-1.3242-8.7578h-0.003907c-3.0977 7.125-5.3477 14.594-6.707 22.246-1.9922 16.242-2.4805 32.633-1.4609 48.965-0.12891 4.3594 1.2148 8.6367 3.8164 12.141zm-21.688-89.285c-8.3008-6.5078-10.996-12.227-4.5-21.039-7.9023-7.0664-15.906-14.219-23.621-21.113 0.015624 1.8359-0.03125 4.6523 0.085937 7.4609 0.21484 5.0312 0.76562 10.062 0.74609 15.086-0.027344 6.7227-0.71875 13.434-0.62109 20.148 0.33984 3.9297 0.96094 7.8281 1.8594 11.668 5.5898-0.26562 10.352-0.39844 15.086-0.78906h-0.003907c1.1406-0.21094 2.1719-0.81641 2.9141-1.707 2.6602-3.0273 5.1641-6.1992 8.0547-9.7148zm-279.13 18.973-0.27734 1.7539v0.003907c1.4844 0.41016 3 0.69531 4.5312 0.85547 9.3945 0.25391 18.793 0.44531 28.191 0.57422 26.27 0.38672 52.543 1.0039 78.809 1.0352 34.207 0.039063 68.41-0.44141 102.61-0.61719 15.16-0.078125 30.324 0.082031 45.48 0.039062 1.875-0.003906 4.3633 1.0703 5.6211-2.0625-6.5508-1.8672-13.441-2.2227-20.152-1.043-6.957 0.22266-13.887 1.2695-20.84 1.2852-9.8281 0.023437-19.672-0.76562-29.508-0.85938-38.785-0.36328-77.566-0.47266-116.35-0.93359-14.098-0.16797-28.172 0.46875-42.297-0.21484-11.918-0.57812-23.879 0.078125-35.82 0.18359zm-158.21-8.7227c0.6875-15.352 1.3398-29.859 2.0312-45.242-7.1211 6.2539-13.297 11.695-19.496 17.109-1.6172 1.4102-3.4336 2.6133-4.9219 4.1367h-0.003906c-1.0703 0.85938-1.7617 2.0977-1.9297 3.4609 0.86719 2.2773 0.62109 4.8281-0.66016 6.9023-1.2812 2.0742-3.457 3.4336-5.8828 3.6758-0.082032 2.043-0.19531 3.7109-0.19922 5.3828-0.19531 1.3438 0.21094 2.707 1.1055 3.7266 0.89453 1.0234 2.1914 1.6016 3.5508 1.5859 8.793 1.0078 17.684 0.76172 26.406-0.73828zm313.12-261.88 0.019531-1.8281v0.003906c-1.5273-0.44141-3.0898-0.75391-4.6719-0.92969-14.398-0.43359-28.797-0.88281-43.195-1.1055-6.6953-0.10156-13.391 0.43359-20.086 0.41406-8.1484-0.019531-16.305-0.42578-24.453-0.48047-21.414-0.14453-42.824-0.13672-64.238-0.30078-7.4453-0.054687-14.898-0.61328-22.34-0.63281-9.375-0.023438-18.742 0.13281-28.109 0.47266-7.7891 0.28516-15.559 0.95312-23.336 1.4492l0.09375 1.5117c10.672 0.085937 21.344 0.09375 32.016 0.27734 15.137 0.26172 30.277 0.75781 45.414 0.96484 11.086 0.15234 22.172-0.11328 33.258 0.015625 24.086 0.28125 48.176 0.73047 72.266 1.0352 11.531 0.14453 23.062 0.20312 34.59 0.10156 4.2617-0.03125 8.5156-0.62891 12.773-0.96875zm125.34 262.46-1.8438-0.73047c-3.2539 6.8281-6.8555 13.508-9.6914 20.508-6.5234 16.117-7.9414 33.488-10.781 50.488-0.19922 1.8555 0.46875 3.6953 1.8125 4.9883 4.9648 3.2734 10.27 6.0234 16.484 9.5586-6.0703-29.695-2.0898-57.328 4.0195-84.812zm-308.86 10.078 0.12891-1.9805v0.003906c-1.9922-0.45703-4.0195-0.77344-6.0547-0.94531-19.492-0.37891-38.98-0.66406-58.473-0.98437-29.09-0.47656-58.18-0.94531-87.27-1.4062v0.003906c-2.9219-0.85938-6.0508 0.4375-7.5039 3.1172 1.6602 0.73828 3.3945 1.2969 5.1758 1.6602 5.5156 0.44141 11.047 0.81641 16.57 0.85937 10.812 0.085938 21.617-0.19531 32.43-0.10156 25.504 0.21875 51.012 0.62891 76.516 0.83594 8.1836 0.066406 16.363-0.23828 24.543-0.4375h0.003907c1.3242-0.11719 2.6367-0.32422 3.9336-0.625zm166.27-36.129c2.1367 10.031 2.375 19.562 7.7266 28.078 2.6211 0.13672 5.0273 0.32812 7.4336 0.37891h0.003907c2.6289 0.57422 5.3789-0.0625 7.4922-1.7266 2.1133-1.668 3.3711-4.1914 3.4258-6.8828 0.91406-4.6992 1.7266-9.4375 2.1914-14.203-0.054688-1.8438-0.37891-3.6719-0.96875-5.4219zm-335.78 14.449-0.73047 0.046875c0.62891 5.1172 1.5039 10.227 1.8398 15.359h0.003906c1.1055 10.27 1.5508 20.598 1.3398 30.922 0.042968 11.531 1.5391 23.012 4.457 34.168 0.20703 0.69531 0.46484 1.375 0.77344 2.0312 0.76172 2.1484 3.0234 3.375 5.2422 2.8438 1.1094 0.015625 2.1602-0.48828 2.8477-1.3594 0.68359-0.875 0.92188-2.0156 0.64062-3.0898-0.29297-5.7539-0.90625-11.488-1.8438-17.172-1.6484-8.2539-4.1211-16.352-5.9922-24.57-2.9688-13.035-5.7266-26.117-8.5781-39.18zm0.42188 81.949c-0.27344-2.4453-0.67578-4.875-1.2148-7.2773-2.9531-9.1875-4.1367-18.848-3.4883-28.477 1.1484-8.8086 0.88672-17.742-0.77734-26.469-0.86328 4.5469-1.6445 8.7734-2.4688 12.996-2.1641 9.4062-2.6836 19.113-1.5391 28.695 0.85156 5.6523 1.7891 11.289 2.8047 17.68zm53.191-126.67c-3.4336 1.6406-5.6836 5.0391-5.8477 8.8438-0.089844 12.176-0.29297 24.352-0.33594 36.531v-0.003906c0.035156 2.8828 0.28516 5.7539 0.75391 8.5977 0.24219 0.86328 0.90234 1.5508 1.7539 1.8281 1.1016-0.035157 2.1289-0.57812 2.7812-1.4648 0.39844-1.8672 0.53906-3.7773 0.42188-5.6797-0.085938-11-0.31641-22.004-0.30469-33.004 0.007812-4.8867 0.46875-9.7617 0.77734-15.648zm387.04-10.734-1.7539 0.3125c-0.26562 15.523-0.64062 31.047-0.74609 46.578-0.039062 5.7383 0.5625 11.492 0.84375 17.238 0.11328 2.3438 0.41016 4.4102 3.2305 3.6289 0.19922-10.953 0.53516-21.648 0.55078-32.352 0.011719-10.09-0.24609-20.188-0.56641-30.277v-0.003906c-0.29297-1.7695-0.81641-3.4922-1.5586-5.125zm31.668 4.9453-1.5391 0.63281 3.9727 9.0078 1.2148-0.49609zm-24.059-226.56c0.91016 3.8594 2.7539 3.9453 5.1289 2.2773 0.6875-0.8125 1.2461-1.7266 1.6523-2.7109zm-370.07-12.918 1.1992 1.4766c0.86719-0.82812 1.7578-1.6328 2.5547-2.5195v-0.003906c-0.19531-0.39063-0.44141-0.75391-0.73047-1.082zm-51.32 210.44 0.64453 0.039062-0.03125-3.4492-0.39453-0.011718z"/>
    <path d="m392.2 161.43c1.7383 2.7969 2.6719 6.0156 2.6992 9.3086 0.03125 3.293-0.84766 6.5273-2.5352 9.3555-1.7266 2.8359-2.6562 6.1641-4.332 9.0391h-0.003906c-1.2812 2.9844-4.5625 4.5703-7.6992 3.7188-1.5664-0.96094-2.6797-2.5117-3.0898-4.3008-0.41406-1.793-0.089844-3.6719 0.89844-5.2227 4.1992-7.1211 8.9023-13.938 14.062-21.898z"/>
    <path d="m393.55 228.72c0.25 1.582 0.33203 3.1836 0.25 4.7812-1.6992 6.2109-3.4648 12.398-5.2969 18.57v-0.003906c-0.37891 1.3828-0.94141 2.7109-1.6758 3.9414-1.6172 2.8398-5.168 3.9258-8.0977 2.4805-3.207-1.4961-4.7188-5.2148-3.4609-8.5234 0.47656-1.0977 1.0781-2.1367 1.7969-3.0898 3.043-4.2734 5.957-8.6562 9.2852-12.695 2.207-2.0625 4.6211-3.8906 7.1992-5.4609z"/>
    <path d="m411.93 185.47c1.2617 6.4766 1.1836 13.141-0.22266 19.586-1.9102 3.6562-5.375 6.2422-9.4219 7.0273-4.5859 0.91797-6.793-1.8281-5.2539-6.3711 0.39844-1.1211 0.93359-2.1875 1.5977-3.1719 3.0977-4.7734 6.1719-9.5664 9.4336-14.227 1.1484-1.1289 2.4492-2.0859 3.8672-2.8438zm-7.625 19.156 1.332 0.53516 1.3086-3.3125-0.74219-0.36719z"/>
    <path d="m441.77 226.27c0.30469 0.085937 0.59375 0.19922 0.87109 0.34375-0.89453 7.418 0.51172 15.289-3.4375 22.094-1.4531 2.4258-3.3789 4.5391-5.6602 6.2148-1.4922 1.0078-3.3828 1.2227-5.0586 0.57031-1.4688-1.4609-2.2969-3.4492-2.2969-5.5234 0.23047-2.1367 1.0312-4.1719 2.3125-5.8984 3.7734-5.7461 7.7539-11.355 11.719-16.977 0.44531-0.39062 0.97656-0.67188 1.5508-0.82422zm-9.6016 21.613 1.5117 1.0977c1.1406-2.0117 2.2852-4.0234 3.4258-6.0352l-1.2148-0.73438z"/>
    <path d="m455.6 159.77c0.27344 6.6289-0.85156 13.242-3.2969 19.41-1.4492 2.7031-3.6562 4.918-6.3516 6.3789-3.6367 2.0117-8.1602-1-6.6719-4.168h0.003906c2.9023-7.7695 7.3008-14.895 12.949-20.973 1.0781-0.39453 2.2148-0.61328 3.3672-0.64844zm-6.8359 16.113-1.0078-0.41016-1.7148 3.9492 1.1875 0.48047z"/>
    <path d="m436.96 203.6c-5.8867 11.863-11.629 23.434-17.512 35.289v-0.003906c-1.3047-0.70312-2.2656-1.9102-2.6602-3.3398-0.39453-1.4297-0.19141-2.957 0.57031-4.2344 4.1602-9.0703 8.6016-18.012 13.125-26.898 1.0664-2.0938 3.1133-2.8398 6.4766-0.8125z"/>
    <path d="m406.27 265.99c-4.1719 8.4141-8.0742 16.16-11.859 23.969-1.8594 3.8398-3.668 7.7227-5.1875 11.707-1.1641 3.3594-3.7695 6.0195-7.1055 7.2539-0.33203-1.4414-0.40234-2.9258-0.19922-4.3906 1.918-4.3398 4.0898-8.5625 6.2266-12.801 3.3203-6.5781 6.6953-13.129 10.027-19.703l0.003906 0.003906c1.3867-3.3477 4.4922-5.6641 8.0938-6.0391z"/>
    <path d="m472.5 233.72c-6.6758 11.793-12.844 22.695-19.012 33.598l-1.6133-0.32422c-0.48828-1.3242-0.64453-2.75-0.44922-4.1484 4.957-8.9062 10.121-17.699 15.32-26.465 0.70703-0.95703 1.6172-1.7422 2.668-2.2969 1.0039-0.27734 2.043-0.39844 3.0859-0.36328z"/>
    <path d="m418.93 292.2c0.64844 1.1328 1.1016 2.3672 1.3359 3.6523-7.4688 14.121-14.223 28.605-20.234 43.402 2.9648-16.824 9.3984-32.852 18.898-47.055z"/>
    <path d="m415.71 176.19c-0.29297-1.4023-0.35938-2.8477-0.19922-4.2695 3.7383-8.3125 9.0352-15.832 15.598-22.156 0.57812 2.5938 0.55859 2.707-5.4727 13.391-2.5469 4.5117-5.1914 8.9648-7.7891 13.445z"/>
    <path d="m482.52 259.95c-5.0469 8.707-9.5664 16.508-14.184 24.477h-0.003906c-1.1992-0.48047-2.0938-1.5117-2.4023-2.7695-0.30859-1.2539 0.007812-2.582 0.84766-3.5664 3.5898-5.875 7.5039-11.551 11.5-17.152 1.3203-0.64844 2.7695-0.98828 4.2422-0.98828z"/>
    <path d="m496.05 272.84c-0.046875 0.875-0.23828 1.7383-0.56641 2.5508-3.6797 5.8516-7.4453 11.648-11.512 17.973-1.8984-2.3828-1.8281-5.7812 0.17188-8.0781 2.4023-5.2305 5.9453-9.8555 10.367-13.543z"/>
    <path d="m247.96 270.06c0.019531 1.2812-0.23828 2.5508-0.75391 3.7227-13 15.848-20.508 35.719-35.617 50.434-1.793-2.7188-1.3555-6.332 1.0312-8.5469 9.7383-14.117 19.547-28.184 29.434-42.195v-0.003906c1.2656-1.5625 2.6445-3.0312 4.1211-4.3945z"/>
    <path d="m328.19 208.84c-1.1641 5.1914-3.875 9.9062-7.7695 13.523-6.0156 7.6719-12.105 15.285-18.164 22.926-0.46875 0.83203-1.0742 1.5703-1.8008 2.1875-1.2031 0.55078-2.4648 0.97656-3.7539 1.2734-0.63672-1.3594-0.9375-2.8516-0.88672-4.3516 0.94141-2.1875 2.207-4.2188 3.7539-6.0273 5.7148-7.3203 11.258-14.809 17.426-21.73 3.4375-3 7.1914-5.6172 11.195-7.8008z"/>
    <path d="m293.27 203.52c1.9609 8.0938 0.25781 16.637-4.6562 23.355-2.1406 2.75-5.8594 3.7227-9.0742 2.3789-1.2461-0.15625-2.3203-0.95703-2.8242-2.1094-0.50391-1.1523-0.36719-2.4805 0.35938-3.5078 4.5391-7.1367 9.4219-14.051 14.172-21.055z"/>
    <path d="m313.9 163.07c0.57422 2.668 0.86719 5.3867 0.87891 8.1133-0.50781 3.7812-1.2617 7.5234-2.2539 11.207-0.89063 4.3398-4.5547 7.5547-8.9727 7.8711-1.832 0.050781-3.6094-0.62109-4.9531-1.8711-0.44531-1.4961-0.44531-3.0938 0.003906-4.5938 0.10156-0.46875 0.3125-0.90625 0.61719-1.2734 4.2695-6.4805 8.5469-12.953 12.832-19.422zm-6.2695 17.305-1.0469-0.50391-1.7617 3.6797 1.0547 0.51562z"/>
    <path d="m283.45 160.84c2.7227 0.38672 4.1211 1.5781 3.5391 3.957h0.003907c-0.72656 4.7227-2.0625 9.3281-3.9727 13.707-2.1484 3.0547-5.1289 5.4297-8.5898 6.8398-2.6836 1.3047-6.0352-2.5508-5.2617-5.8281v0.003906c0.48047-1.8438 1.3125-3.5742 2.4531-5.1016 2.7969-3.8555 5.75-7.5977 8.7812-11.27 0.91406-0.89844 1.9375-1.6719 3.0469-2.3086zm-3.7305 14.621-0.50781-0.59375-2.0742 3.3633 0.87891 0.51563z"/>
    <path d="m264.11 214.03c-8.9414 11.426-17.449 22.285-25.934 33.156-0.36328 0.86719-0.89844 1.6484-1.5703 2.3047-1.2695 0.32031-2.582 0.46094-3.8906 0.41016-0.31641-1.2305-0.32031-2.5234-0.007812-3.7578 1.9375-2.7109 4.4141-5.0234 6.4609-7.6641 6.0039-7.7539 11.961-15.547 17.801-23.422 2.0391-2.75 4.0156-3.8633 7.1406-1.0273z"/>
    <path d="m240.94 181.5c1.2422 6.9844 0.28906 14.18-2.7227 20.598-1.5078 3.4062-5.082 5.4023-8.7734 4.9062-3.7695-0.16406-5.2695-2.5-3.4102-5.8086 2.0312-3.4727 4.293-6.8047 6.7695-9.9727 2.207-2.9258 4.6953-5.6367 8.1367-9.7227z"/>
    <path d="m221.66 270.47c-1.8398 2.6016-3.7656 5.1484-5.5039 7.8203-4.4023 6.7812-8.6992 13.633-13.082 20.43h0.003906c-1.3945 3.0977-4.3164 5.2344-7.6914 5.625-0.76562-2.7852 0.070313-5.7695 2.1719-7.7539 12.164-18.68 17.926-25.5 22.75-27.215z"/>
    <path d="m225.72 349.57c-2.1562-1.9258-2.3477-5.2305-0.42969-7.3906 3.5742-6.7148 7.4492-13.266 11.062-19.957 2.4844-4.6016 4.6719-9.3633 7.1055-13.996 0.92578-2.625 3.4844-4.3203 6.2656-4.1406-7.1094 14.262-14.043 28.227-21.066 42.145-0.84375 1.2266-1.832 2.3477-2.9375 3.3398z"/>
    <path d="m567.48 330.12-0.64844 2.4883c-3.0586-0.74609-5.6367-2.793-7.0508-5.6055-5.6094-7.3047-10.816-14.91-15.602-22.781-13.008-23.258-25.48-46.812-38.102-70.285h0.003906c-1.0664-1.8945-1.8047-3.957-2.1914-6.0977-0.035157-1.293 0.61328-2.5039 1.7031-3.1992 1.332 0.035156 2.5977 0.58594 3.5352 1.5352 0.49219 0.8125 0.83594 1.7031 1.0078 2.6367 6.875 16.27 14.875 32.039 23.949 47.195 5.7227 8.9688 10.055 18.797 15.605 27.883 5.2969 8.6719 11.359 16.883 17.082 25.297 0.23047 0.3125 0.46484 0.625 0.70703 0.93359z"/>
  </g>
</svg>