<?xml version="1.0" encoding="utf-8"?>
<svg viewBox="126.272 10.709 535.904 540.243" xmlns="http://www.w3.org/2000/svg">
  <g transform="matrix(1, 0, 0, 1, 44.230316, 0.844031)">
    <path d="m478.98 290.15c-3.0938 0-5.6016 2.5078-5.6016 5.6016v41.441-0.003906c0 3.0938 2.5078 5.6016 5.6016 5.6016 3.0898 0 5.5977-2.5078 5.5977-5.6016v-41.441 0.003906c0-1.4844-0.58984-2.9102-1.6406-3.9609-1.0469-1.0508-2.4727-1.6406-3.957-1.6406z"/>
    <path d="m523.36 279.88c-3.0898 0-5.5977 2.5078-5.5977 5.5977v68.668c0 3.0938 2.5078 5.6016 5.5977 5.6016 3.0938 0 5.6016-2.5078 5.6016-5.6016v-68.668c0-1.4844-0.58984-2.9062-1.6406-3.957-1.0508-1.0508-2.4727-1.6406-3.9609-1.6406z"/>
    <path d="m528.96 169.56c0-3.0938-2.5078-5.6016-5.6016-5.6016-3.0898 0-5.5977 2.5078-5.5977 5.6016v85.375c0 3.0938 2.5078 5.6016 5.5977 5.6016 3.0938 0 5.6016-2.5078 5.6016-5.6016z"/>
    <path d="m435.62 234.57c0-3.0938-2.5078-5.6016-5.6016-5.6016s-5.5977 2.5078-5.5977 5.6016v32.109c0 3.0938 2.5039 5.5977 5.5977 5.5977s5.6016-2.5039 5.6016-5.5977z"/>
    <path d="m430.02 290.15c-3.0938 0-5.5977 2.5078-5.5977 5.6016v28.113-0.003907c0 3.0938 2.5039 5.6016 5.5977 5.6016s5.6016-2.5078 5.6016-5.6016v-28.113 0.003906c0-1.4844-0.58984-2.9102-1.6406-3.9609s-2.4766-1.6406-3.9609-1.6406z"/>
    <path d="m576.63 397.6c-14.996-0.17969-29.562 5.0156-41.059 14.648-9.6797 8.1055-21.898 12.547-34.52 12.547-12.621 0-24.844-4.4414-34.52-12.547-6.6328-5.2539-14.133-9.3164-22.16-12v-23.371c-0.003906-5.0156-2-9.8203-5.5469-13.367s-8.3516-5.543-13.367-5.5469h-11.379v-19.871c-0.007812-3.2305-1-6.3828-2.8438-9.0352s-4.4531-4.6797-7.4766-5.8086c-0.90234-0.66797-1.9883-1.043-3.1094-1.0703-6.5469-0.007813-12.82-2.6094-17.449-7.2383-4.6289-4.625-7.2305-10.902-7.2344-17.445v-63.449c0.003906-6.5469 2.6055-12.82 7.2344-17.449s10.902-7.2305 17.449-7.2344h12.531c11.039-0.015625 21.621-4.4062 29.422-12.211 7.8047-7.8047 12.195-18.383 12.211-29.422v-43.336c0-1.4883-0.58984-2.9102-1.6406-3.9609-1.0508-1.0508-2.4766-1.6406-3.9609-1.6406h-18.156v-16.469c0.015625-9.8828 3.3984-19.461 9.5938-27.156 6.1953-7.6992 14.828-13.051 24.477-15.176 5.3555 7.3672 8.2383 16.242 8.2266 25.352v169.57c0 3.0938 2.5078 5.6016 5.6016 5.6016s5.6016-2.5078 5.6016-5.6016v-169.57c0.007812-9.1602-2.3047-18.176-6.7227-26.203 10.859 0.875 20.992 5.8008 28.387 13.801 7.3945 8 11.508 18.488 11.523 29.383v28.855c0 3.0938 2.5078 5.6016 5.6016 5.6016s5.6016-2.5078 5.6016-5.6016v-28.855c-0.015625-14.461-5.7695-28.328-15.992-38.555-10.223-10.227-24.086-15.98-38.547-16-1.5898 0-3.1523 0.10547-4.7031 0.24219-0.38672-0.41016-0.72656-0.83984-1.1211-1.2305v-0.003906c-9.3516-9.3516-21.777-14.984-34.973-15.855-13.195-0.875-26.254 3.0781-36.754 11.113-10.5 8.0391-17.723 19.613-20.328 32.578-0.53516 3.0039 1.4297 5.8828 4.418 6.4766 2.9922 0.59766 5.9102-1.3086 6.5664-4.2852 1.9883-9.8125 7.3008-18.633 15.047-24.977 7.7422-6.3398 17.441-9.8125 27.449-9.8281 9.5078-0.015625 18.754 3.125 26.289 8.9258-10.641 3.7539-19.859 10.707-26.383 19.914-6.5273 9.2031-10.039 20.203-10.059 31.484v16.469h-48.547c3.6328-5.2188 5.2227-11.586 4.4727-17.898s-3.7891-12.129-8.5391-16.348c-4.7539-4.2227-10.891-6.5547-17.246-6.5547s-12.492 2.332-17.246 6.5547c-4.75 4.2188-7.7891 10.035-8.5391 16.348s0.83984 12.68 4.4727 17.898h-48.547v-16.469c-0.019531-11.285-3.5352-22.285-10.062-31.492-6.5273-9.2031-15.746-16.16-26.387-19.91 11.875-9.1055 27.617-11.43 41.617-6.1406 14.004 5.2852 24.277 17.434 27.172 32.117 0.59375 3.0352 3.5352 5.0156 6.5703 4.4219 1.457-0.28516 2.7422-1.1367 3.5742-2.3711 0.82812-1.2305 1.1328-2.7422 0.84766-4.1992-2.5625-12.988-9.7656-24.602-20.262-32.672-10.492-8.0664-23.566-12.043-36.777-11.184-13.211 0.85938-25.656 6.4922-35.02 15.855-0.39062 0.39062-0.73437 0.82422-1.1211 1.2305-1.5508-0.13281-3.1094-0.24219-4.6914-0.24219-14.465 0.019531-28.332 5.7695-38.559 16-10.227 10.227-15.98 24.094-15.996 38.559v28.855c0 3.0938 2.5078 5.6016 5.5977 5.6016 3.0938 0 5.6016-2.5078 5.6016-5.6016v-28.828c0.015625-10.891 4.1289-21.379 11.52-29.379 7.3906-7.9961 17.52-12.922 28.375-13.797-4.418 8.0234-6.7266 17.035-6.7188 26.195v169.57c0 3.0938 2.5078 5.6016 5.5977 5.6016 3.0938 0 5.6016-2.5078 5.6016-5.6016v-169.57c-0.011719-9.1094 2.8711-17.984 8.2305-25.352 9.6523 2.125 18.289 7.4766 24.488 15.172 6.1953 7.6953 9.582 17.277 9.5938 27.16v16.469h-18.148c-3.0938 0-5.6016 2.5078-5.6016 5.6016v43.34-0.003906c0.015625 11.039 4.4062 21.617 12.211 29.422 7.8008 7.8047 18.383 12.195 29.422 12.211h12.531c6.5469 0.003907 12.82 2.6055 17.449 7.2344s7.2305 10.902 7.2344 17.449v63.449c-0.003906 6.543-2.6055 12.82-7.2344 17.445-4.6289 4.6289-10.902 7.2305-17.449 7.2383-1.1211 0.027343-2.207 0.40234-3.1094 1.0703-3.0234 1.1289-5.6328 3.1562-7.4766 5.8086s-2.8359 5.8047-2.8438 9.0352v19.859h-11.379c-5.0156 0.007813-9.8242 2.0039-13.371 5.5508-3.5469 3.5508-5.5391 8.3594-5.543 13.375v23.371c-8.0664 2.6797-15.598 6.7539-22.258 12.031-9.5547 8.293-21.84 12.758-34.488 12.539-12.652 0.21875-24.938-4.25-34.492-12.543-11.477-9.6406-26.031-14.848-41.02-14.676-3.0938 0-5.5977 2.5039-5.5977 5.5977v43.754c0.015625 13.91 5.5469 27.246 15.383 37.082 9.8359 9.8359 23.172 15.371 37.082 15.391h14.637v4.9688-0.003906c0.003906 6.5781 2.6133 12.883 7.2617 17.535 4.6484 4.6484 10.949 7.2656 17.527 7.2734h280.68c6.5742-0.007813 12.875-2.6211 17.523-7.2695 4.6445-4.6484 7.2578-10.949 7.2656-17.52v-4.9688h14.633c13.91-0.019531 27.246-5.5508 37.078-15.387 9.8359-9.8398 15.371-23.176 15.387-37.086v-43.77c0-3.0898-2.5039-5.5977-5.5938-5.5977zm-241.4-293.57c0-3.918 1.5547-7.6758 4.3242-10.445 2.7695-2.7695 6.5234-4.3242 10.441-4.3242s7.6719 1.5547 10.441 4.3242c2.7695 2.7695 4.3242 6.5273 4.3242 10.445 0 3.9141-1.5547 7.6719-4.3242 10.441-2.7695 2.7695-6.5234 4.3242-10.441 4.3242-3.9141-0.003907-7.668-1.5625-10.438-4.332-2.7695-2.7656-4.3242-6.5195-4.3281-10.434zm-78.848 63.703v-37.738h187.23v37.738c-0.007812 8.0664-3.2188 15.801-8.9219 21.508-5.707 5.7031-13.438 8.9141-21.508 8.9219h-126.37c-8.0703-0.007812-15.801-3.2188-21.508-8.9219-5.7031-5.707-8.9141-13.441-8.9219-21.508zm118.29 41.629-0.003906 0.003906c-6.3555 6.6445-9.9023 15.488-9.9062 24.684v63.449c0.003906 9.1953 3.5508 18.035 9.9062 24.684h-49.344c6.3555-6.6484 9.9023-15.488 9.9062-24.684v-63.449c-0.003906-9.1953-3.5508-18.039-9.9062-24.684zm-77.555 128.73c0-2.5977 2.1016-4.707 4.7031-4.7148h96.336c2.5977 0.007813 4.7031 2.1172 4.7031 4.7148v19.859h-105.74zm-30.297 38.785c0.066406-4.2344 3.4805-7.6484 7.7148-7.7148h150.92c4.2344 0.066407 7.6484 3.4805 7.7148 7.7148v21.152c-2.5547-0.27734-5.125-0.42188-7.6992-0.42969-14.988-0.17969-29.547 5.0156-41.035 14.648-9.6719 8.1016-21.883 12.543-34.5 12.543-12.617 0-24.828-4.4414-34.5-12.543-11.492-9.6289-26.051-14.828-41.043-14.648-2.5273 0-5.0586 0.12891-7.5742 0.38672zm237.11 127.54-0.003907 0.003906c-0.015625 7.4922-6.0898 13.566-13.586 13.578h-280.68c-7.5-0.011719-13.578-6.0898-13.586-13.59v-4.9688h307.85zm67.102-57.449c-0.011719 10.941-4.3633 21.434-12.098 29.168-7.7383 7.7383-18.227 12.09-29.168 12.105h-359.53c-10.941-0.015626-21.43-4.3672-29.164-12.105-7.7383-7.7344-12.09-18.227-12.102-29.168v-37.922c10.664 1.0391 20.75 5.3398 28.879 12.32 11.484 9.6367 26.043 14.836 41.031 14.656 14.992 0.17578 29.547-5.0234 41.031-14.656 9.6719-8.1016 21.883-12.543 34.496-12.543 12.617 0 24.828 4.4414 34.496 12.543 11.578 9.4766 26.078 14.652 41.039 14.652 14.961 0 29.465-5.1758 41.043-14.652 9.6719-8.0977 21.887-12.539 34.504-12.539 12.617 0 24.832 4.4414 34.508 12.539 11.586 9.4727 26.094 14.648 41.059 14.648 14.969 0 29.473-5.1758 41.062-14.648 8.1406-6.9844 18.238-11.285 28.918-12.32z"/>
    <path d="m226.62 337.18v-41.441 0.003907c0-3.0938-2.5078-5.6016-5.6016-5.6016-3.0898 0-5.5977 2.5078-5.5977 5.6016v41.441-0.003906c0 3.0938 2.5078 5.6016 5.5977 5.6016 3.0938 0 5.6016-2.5078 5.6016-5.6016z"/>
    <path d="m176.64 279.88c-3.0938 0-5.6016 2.5078-5.6016 5.5977v68.668c0 3.0938 2.5078 5.6016 5.6016 5.6016 3.0898 0 5.5977-2.5078 5.5977-5.6016v-68.668c0-1.4844-0.58984-2.9062-1.6406-3.957-1.0508-1.0508-2.4727-1.6406-3.957-1.6406z"/>
    <path d="m182.23 169.56c0-3.0938-2.5078-5.6016-5.5977-5.6016-3.0938 0-5.6016 2.5078-5.6016 5.6016v85.375c0 3.0938 2.5078 5.6016 5.6016 5.6016 3.0898 0 5.5977-2.5078 5.5977-5.6016z"/>
    <path d="m269.98 272.28c1.4844 0 2.9102-0.58984 3.9609-1.6367 1.0469-1.0508 1.6367-2.4766 1.6367-3.9609v-32.109c0-3.0938-2.5039-5.6016-5.5977-5.6016s-5.6016 2.5078-5.6016 5.6016v32.109c0 1.4844 0.58984 2.9102 1.6406 3.9609 1.0508 1.0469 2.4766 1.6367 3.9609 1.6367z"/>
    <path d="m264.38 323.86c0 3.0938 2.5078 5.6016 5.6016 5.6016s5.5977-2.5078 5.5977-5.6016v-28.113 0.003906c0-3.0938-2.5039-5.6016-5.5977-5.6016s-5.6016 2.5078-5.6016 5.6016z"/>
  </g>
</svg>