<?xml version="1.0" encoding="UTF-8"?>
<svg width="700pt" height="700pt" version="1.1" viewBox="0 0 700 700" xmlns="http://www.w3.org/2000/svg" xmlns:xlink="http://www.w3.org/1999/xlink">
 <defs>
  <symbol id="t" overflow="visible">
   <path d="m18.766-1.125c-0.96875 0.5-1.9805 0.875-3.0312 1.125-1.043 0.25781-2.1367 0.39062-3.2812 0.39062-3.3984 0-6.0898-0.94531-8.0781-2.8438-1.9922-1.9062-2.9844-4.4844-2.9844-7.7344 0-3.2578 0.99219-5.8359 2.9844-7.7344 1.9883-1.9062 4.6797-2.8594 8.0781-2.8594 1.1445 0 2.2383 0.13281 3.2812 0.39062 1.0508 0.25 2.0625 0.625 3.0312 1.125v4.2188c-0.98047-0.65625-1.9453-1.1406-2.8906-1.4531-0.94922-0.3125-1.9492-0.46875-3-0.46875-1.875 0-3.3516 0.60547-4.4219 1.8125-1.0742 1.1992-1.6094 2.8555-1.6094 4.9688 0 2.1055 0.53516 3.7617 1.6094 4.9688 1.0703 1.1992 2.5469 1.7969 4.4219 1.7969 1.0508 0 2.0508-0.14844 3-0.45312 0.94531-0.3125 1.9102-0.80078 2.8906-1.4688z"/>
  </symbol>
  <symbol id="c" overflow="visible">
   <path d="m13.734-11.141c-0.4375-0.19531-0.87109-0.34375-1.2969-0.4375-0.41797-0.10156-0.83984-0.15625-1.2656-0.15625-1.2617 0-2.2305 0.40625-2.9062 1.2188-0.67969 0.80469-1.0156 1.9531-1.0156 3.4531v7.0625h-4.8906v-15.312h4.8906v2.5156c0.625-1 1.3438-1.7266 2.1562-2.1875 0.82031-0.46875 1.8008-0.70312 2.9375-0.70312 0.16406 0 0.34375 0.011719 0.53125 0.03125 0.19531 0.011719 0.47656 0.039062 0.84375 0.078125z"/>
  </symbol>
  <symbol id="a" overflow="visible">
   <path d="m17.641-7.7031v1.4062h-11.453c0.125 1.1484 0.53906 2.0078 1.25 2.5781 0.70703 0.57422 1.7031 0.85938 2.9844 0.85938 1.0312 0 2.082-0.14844 3.1562-0.45312 1.082-0.3125 2.1914-0.77344 3.3281-1.3906v3.7656c-1.1562 0.4375-2.3125 0.76562-3.4688 0.98438-1.1562 0.22656-2.3125 0.34375-3.4688 0.34375-2.7734 0-4.9297-0.70312-6.4688-2.1094-1.5312-1.4062-2.2969-3.3789-2.2969-5.9219 0-2.5 0.75391-4.4609 2.2656-5.8906 1.5078-1.4375 3.582-2.1562 6.2188-2.1562 2.4062 0 4.332 0.73047 5.7812 2.1875 1.4453 1.4492 2.1719 3.3828 2.1719 5.7969zm-5.0312-1.625c0-0.92578-0.27344-1.6719-0.8125-2.2344-0.54297-0.57031-1.25-0.85938-2.125-0.85938-0.94922 0-1.7188 0.26562-2.3125 0.79688s-0.96484 1.2969-1.1094 2.2969z"/>
  </symbol>
  <symbol id="i" overflow="visible">
   <path d="m9.2188-6.8906c-1.0234 0-1.793 0.17188-2.3125 0.51562-0.51172 0.34375-0.76562 0.85547-0.76562 1.5312 0 0.625 0.20703 1.1172 0.625 1.4688 0.41406 0.34375 0.98828 0.51562 1.7188 0.51562 0.92578 0 1.7031-0.32812 2.3281-0.98438 0.63281-0.66406 0.95312-1.4922 0.95312-2.4844v-0.5625zm7.4688-1.8438v8.7344h-4.9219v-2.2656c-0.65625 0.92969-1.3984 1.6055-2.2188 2.0312-0.82422 0.41406-1.8242 0.625-3 0.625-1.5859 0-2.8711-0.45703-3.8594-1.375-0.99219-0.92578-1.4844-2.1289-1.4844-3.6094 0-1.7891 0.61328-3.1016 1.8438-3.9375 1.2383-0.84375 3.1797-1.2656 5.8281-1.2656h2.8906v-0.39062c0-0.76953-0.30859-1.332-0.92188-1.6875-0.61719-0.36328-1.5703-0.54688-2.8594-0.54688-1.0547 0-2.0312 0.10547-2.9375 0.3125-0.89844 0.21094-1.7305 0.52344-2.5 0.9375v-3.7344c1.0391-0.25 2.0859-0.44141 3.1406-0.57812 1.0625-0.13281 2.125-0.20312 3.1875-0.20312 2.7578 0 4.75 0.54688 5.9688 1.6406 1.2266 1.0859 1.8438 2.8555 1.8438 5.3125z"/>
  </symbol>
  <symbol id="b" overflow="visible">
   <path d="m7.7031-19.656v4.3438h5.0469v3.5h-5.0469v6.5c0 0.71094 0.14062 1.1875 0.42188 1.4375s0.83594 0.375 1.6719 0.375h2.5156v3.5h-4.1875c-1.9375 0-3.3125-0.39844-4.125-1.2031-0.80469-0.8125-1.2031-2.1797-1.2031-4.1094v-6.5h-2.4219v-3.5h2.4219v-4.3438z"/>
  </symbol>
  <symbol id="h" overflow="visible">
   <path d="m12.766-13.078v-8.2031h4.9219v21.281h-4.9219v-2.2188c-0.66797 0.90625-1.4062 1.5703-2.2188 1.9844s-1.7578 0.625-2.8281 0.625c-1.8867 0-3.4336-0.75-4.6406-2.25-1.2109-1.5-1.8125-3.4258-1.8125-5.7812 0-2.3633 0.60156-4.2969 1.8125-5.7969 1.207-1.5 2.7539-2.25 4.6406-2.25 1.0625 0 2 0.21484 2.8125 0.64062 0.82031 0.42969 1.5664 1.0859 2.2344 1.9688zm-3.2188 9.9219c1.0391 0 1.8359-0.37891 2.3906-1.1406 0.55078-0.76953 0.82812-1.8828 0.82812-3.3438 0-1.457-0.27734-2.5664-0.82812-3.3281-0.55469-0.76953-1.3516-1.1562-2.3906-1.1562-1.043 0-1.8398 0.38672-2.3906 1.1562-0.55469 0.76172-0.82812 1.8711-0.82812 3.3281 0 1.4609 0.27344 2.5742 0.82812 3.3438 0.55078 0.76172 1.3477 1.1406 2.3906 1.1406z"/>
  </symbol>
  <symbol id="g" overflow="visible">
   <path d="m10.5-3.1562c1.0508 0 1.8516-0.37891 2.4062-1.1406 0.55078-0.76953 0.82812-1.8828 0.82812-3.3438 0-1.457-0.27734-2.5664-0.82812-3.3281-0.55469-0.76953-1.3555-1.1562-2.4062-1.1562-1.0547 0-1.8594 0.38672-2.4219 1.1562-0.55469 0.77344-0.82812 1.8828-0.82812 3.3281 0 1.4492 0.27344 2.5586 0.82812 3.3281 0.5625 0.77344 1.3672 1.1562 2.4219 1.1562zm-3.25-9.9219c0.67578-0.88281 1.4219-1.5391 2.2344-1.9688 0.82031-0.42578 1.7656-0.64062 2.8281-0.64062 1.8945 0 3.4453 0.75 4.6562 2.25 1.207 1.5 1.8125 3.4336 1.8125 5.7969 0 2.3555-0.60547 4.2812-1.8125 5.7812-1.2109 1.5-2.7617 2.25-4.6562 2.25-1.0625 0-2.0078-0.21094-2.8281-0.625-0.8125-0.42578-1.5586-1.0859-2.2344-1.9844v2.2188h-4.8906v-21.281h4.8906z"/>
  </symbol>
  <symbol id="f" overflow="visible">
   <path d="m0.34375-15.312h4.8906l4.125 10.391 3.5-10.391h4.8906l-6.4375 16.766c-0.64844 1.6953-1.4023 2.8828-2.2656 3.5625-0.86719 0.6875-2 1.0312-3.4062 1.0312h-2.8438v-3.2188h1.5312c0.83203 0 1.4375-0.13672 1.8125-0.40625 0.38281-0.26172 0.67969-0.73047 0.89062-1.4062l0.14062-0.42188z"/>
  </symbol>
  <symbol id="e" overflow="visible">
   <path d="m2.3594-15.312h4.8906v15.312h-4.8906zm0-5.9688h4.8906v4h-4.8906z"/>
  </symbol>
  <symbol id="s" overflow="visible">
   <path d="m2.3594-21.281h4.8906v11.594l5.625-5.625h5.6875l-7.4688 7.0312 8.0625 8.2812h-5.9375l-5.9688-6.3906v6.3906h-4.8906z"/>
  </symbol>
  <symbol id="r" overflow="visible">
   <path d="m12.422-21.281v3.2188h-2.7031c-0.6875 0-1.1719 0.125-1.4531 0.375-0.27344 0.25-0.40625 0.6875-0.40625 1.3125v1.0625h4.1875v3.5h-4.1875v11.812h-4.8906v-11.812h-2.4375v-3.5h2.4375v-1.0625c0-1.6641 0.46094-2.8984 1.3906-3.7031 0.92578-0.80078 2.3672-1.2031 4.3281-1.2031z"/>
  </symbol>
  <symbol id="d" overflow="visible">
   <path d="m9.6406-12.188c-1.0859 0-1.9141 0.39062-2.4844 1.1719-0.57422 0.78125-0.85938 1.9062-0.85938 3.375s0.28516 2.5938 0.85938 3.375c0.57031 0.77344 1.3984 1.1562 2.4844 1.1562 1.0625 0 1.875-0.38281 2.4375-1.1562 0.57031-0.78125 0.85938-1.9062 0.85938-3.375s-0.28906-2.5938-0.85938-3.375c-0.5625-0.78125-1.375-1.1719-2.4375-1.1719zm0-3.5c2.6328 0 4.6914 0.71484 6.1719 2.1406 1.4766 1.418 2.2188 3.3867 2.2188 5.9062 0 2.5117-0.74219 4.4805-2.2188 5.9062-1.4805 1.418-3.5391 2.125-6.1719 2.125-2.6484 0-4.7148-0.70703-6.2031-2.125-1.4922-1.4258-2.2344-3.3945-2.2344-5.9062 0-2.5195 0.74219-4.4883 2.2344-5.9062 1.4883-1.4258 3.5547-2.1406 6.2031-2.1406z"/>
  </symbol>
  <symbol id="q" overflow="visible">
   <path d="m16.547-12.766c0.61328-0.94531 1.3477-1.6719 2.2031-2.1719 0.85156-0.5 1.7891-0.75 2.8125-0.75 1.7578 0 3.0977 0.54688 4.0156 1.6406 0.92578 1.0859 1.3906 2.6562 1.3906 4.7188v9.3281h-4.9219v-7.9844-0.35938c0.007813-0.13281 0.015625-0.32031 0.015625-0.5625 0-1.082-0.16406-1.8633-0.48438-2.3438-0.3125-0.48828-0.82422-0.73438-1.5312-0.73438-0.92969 0-1.6484 0.38672-2.1562 1.1562-0.51172 0.76172-0.77344 1.8672-0.78125 3.3125v7.5156h-4.9219v-7.9844c0-1.6953-0.14844-2.7852-0.4375-3.2656-0.29297-0.48828-0.8125-0.73438-1.5625-0.73438-0.9375 0-1.6641 0.38672-2.1719 1.1562-0.51172 0.76172-0.76562 1.8594-0.76562 3.2969v7.5312h-4.9219v-15.312h4.9219v2.2344c0.60156-0.86328 1.2891-1.5156 2.0625-1.9531 0.78125-0.4375 1.6406-0.65625 2.5781-0.65625 1.0625 0 2 0.25781 2.8125 0.76562 0.8125 0.51172 1.4258 1.2305 1.8438 2.1562z"/>
  </symbol>
  <symbol id="p" overflow="visible">
   <path d="m17.75-9.3281v9.3281h-4.9219v-7.1094c0-1.3438-0.03125-2.2656-0.09375-2.7656s-0.16797-0.86719-0.3125-1.1094c-0.1875-0.3125-0.44922-0.55469-0.78125-0.73438-0.32422-0.17578-0.69531-0.26562-1.1094-0.26562-1.0234 0-1.8242 0.39844-2.4062 1.1875-0.58594 0.78125-0.875 1.8711-0.875 3.2656v7.5312h-4.8906v-21.281h4.8906v8.2031c0.73828-0.88281 1.5195-1.5391 2.3438-1.9688 0.83203-0.42578 1.75-0.64062 2.75-0.64062 1.7695 0 3.1133 0.54688 4.0312 1.6406 0.91406 1.0859 1.375 2.6562 1.375 4.7188z"/>
  </symbol>
  <symbol id="o" overflow="visible">
   <path d="m2.5781-20.406h5.875l7.4219 14v-14h4.9844v20.406h-5.875l-7.4219-14v14h-4.9844z"/>
  </symbol>
  <symbol id="n" overflow="visible">
   <path d="m2.1875-5.9688v-9.3438h4.9219v1.5312c0 0.83594-0.007813 1.875-0.015625 3.125-0.011719 1.25-0.015625 2.0859-0.015625 2.5 0 1.2422 0.03125 2.1328 0.09375 2.6719 0.070313 0.54297 0.17969 0.93359 0.32812 1.1719 0.20703 0.32422 0.47266 0.57422 0.79688 0.75 0.32031 0.16797 0.69141 0.25 1.1094 0.25 1.0195 0 1.8203-0.39062 2.4062-1.1719 0.58203-0.78125 0.875-1.8672 0.875-3.2656v-7.5625h4.8906v15.312h-4.8906v-2.2188c-0.74219 0.89844-1.5234 1.5586-2.3438 1.9844-0.82422 0.41406-1.7344 0.625-2.7344 0.625-1.7617 0-3.1055-0.53906-4.0312-1.625-0.92969-1.082-1.3906-2.6602-1.3906-4.7344z"/>
  </symbol>
  <symbol id="m" overflow="visible">
   <path d="m17.75-9.3281v9.3281h-4.9219v-7.1406c0-1.3203-0.03125-2.2344-0.09375-2.7344s-0.16797-0.86719-0.3125-1.1094c-0.1875-0.3125-0.44922-0.55469-0.78125-0.73438-0.32422-0.17578-0.69531-0.26562-1.1094-0.26562-1.0234 0-1.8242 0.39844-2.4062 1.1875-0.58594 0.78125-0.875 1.8711-0.875 3.2656v7.5312h-4.8906v-15.312h4.8906v2.2344c0.73828-0.88281 1.5195-1.5391 2.3438-1.9688 0.83203-0.42578 1.75-0.64062 2.75-0.64062 1.7695 0 3.1133 0.54688 4.0312 1.6406 0.91406 1.0859 1.375 2.6562 1.375 4.7188z"/>
  </symbol>
  <symbol id="l" overflow="visible">
   <path d="m2.5781-20.406h8.7344c2.5938 0 4.582 0.57812 5.9688 1.7344 1.3945 1.1484 2.0938 2.7891 2.0938 4.9219 0 2.1367-0.69922 3.7812-2.0938 4.9375-1.3867 1.1562-3.375 1.7344-5.9688 1.7344h-3.4844v7.0781h-5.25zm5.25 3.8125v5.7031h2.9219c1.0195 0 1.8047-0.25 2.3594-0.75 0.5625-0.5 0.84375-1.2031 0.84375-2.1094 0-0.91406-0.28125-1.6172-0.84375-2.1094-0.55469-0.48828-1.3398-0.73438-2.3594-0.73438z"/>
  </symbol>
  <symbol id="k" overflow="visible">
   <path d="m2.3594-15.312h4.8906v15.031c0 2.0508-0.49609 3.6172-1.4844 4.7031-0.98047 1.082-2.4062 1.625-4.2812 1.625h-2.4219v-3.2188h0.85938c0.92578 0 1.5625-0.21094 1.9062-0.625 0.35156-0.41797 0.53125-1.2461 0.53125-2.4844zm0-5.9688h4.8906v4h-4.8906z"/>
  </symbol>
  <symbol id="j" overflow="visible">
   <path d="m14.719-14.828v3.9844c-0.65625-0.45703-1.3242-0.79688-2-1.0156-0.66797-0.21875-1.3594-0.32812-2.0781-0.32812-1.3672 0-2.4336 0.40234-3.2031 1.2031-0.76172 0.79297-1.1406 1.9062-1.1406 3.3438 0 1.4297 0.37891 2.543 1.1406 3.3438 0.76953 0.79297 1.8359 1.1875 3.2031 1.1875 0.75781 0 1.4844-0.10938 2.1719-0.32812 0.6875-0.22656 1.3203-0.56641 1.9062-1.0156v4c-0.76172 0.28125-1.5391 0.48828-2.3281 0.625-0.78125 0.14453-1.5742 0.21875-2.375 0.21875-2.7617 0-4.9219-0.70703-6.4844-2.125-1.5547-1.4141-2.3281-3.3828-2.3281-5.9062 0-2.5312 0.77344-4.5039 2.3281-5.9219 1.5625-1.4141 3.7227-2.125 6.4844-2.125 0.80078 0 1.5938 0.074219 2.375 0.21875 0.78125 0.13672 1.5547 0.35156 2.3281 0.64062z"/>
  </symbol>
 </defs>
 <g>
  <path d="m478.98 290.15c-3.0938 0-5.6016 2.5078-5.6016 5.6016v41.441-0.003906c0 3.0938 2.5078 5.6016 5.6016 5.6016 3.0898 0 5.5977-2.5078 5.5977-5.6016v-41.441 0.003906c0-1.4844-0.58984-2.9102-1.6406-3.9609-1.0469-1.0508-2.4727-1.6406-3.957-1.6406z"/>
  <path d="m523.36 279.88c-3.0898 0-5.5977 2.5078-5.5977 5.5977v68.668c0 3.0938 2.5078 5.6016 5.5977 5.6016 3.0938 0 5.6016-2.5078 5.6016-5.6016v-68.668c0-1.4844-0.58984-2.9062-1.6406-3.957-1.0508-1.0508-2.4727-1.6406-3.9609-1.6406z"/>
  <path d="m528.96 169.56c0-3.0938-2.5078-5.6016-5.6016-5.6016-3.0898 0-5.5977 2.5078-5.5977 5.6016v85.375c0 3.0938 2.5078 5.6016 5.5977 5.6016 3.0938 0 5.6016-2.5078 5.6016-5.6016z"/>
  <path d="m435.62 234.57c0-3.0938-2.5078-5.6016-5.6016-5.6016s-5.5977 2.5078-5.5977 5.6016v32.109c0 3.0938 2.5039 5.5977 5.5977 5.5977s5.6016-2.5039 5.6016-5.5977z"/>
  <path d="m430.02 290.15c-3.0938 0-5.5977 2.5078-5.5977 5.6016v28.113-0.003907c0 3.0938 2.5039 5.6016 5.5977 5.6016s5.6016-2.5078 5.6016-5.6016v-28.113 0.003906c0-1.4844-0.58984-2.9102-1.6406-3.9609s-2.4766-1.6406-3.9609-1.6406z"/>
  <path d="m576.63 397.6c-14.996-0.17969-29.562 5.0156-41.059 14.648-9.6797 8.1055-21.898 12.547-34.52 12.547-12.621 0-24.844-4.4414-34.52-12.547-6.6328-5.2539-14.133-9.3164-22.16-12v-23.371c-0.003906-5.0156-2-9.8203-5.5469-13.367s-8.3516-5.543-13.367-5.5469h-11.379v-19.871c-0.007812-3.2305-1-6.3828-2.8438-9.0352s-4.4531-4.6797-7.4766-5.8086c-0.90234-0.66797-1.9883-1.043-3.1094-1.0703-6.5469-0.007813-12.82-2.6094-17.449-7.2383-4.6289-4.625-7.2305-10.902-7.2344-17.445v-63.449c0.003906-6.5469 2.6055-12.82 7.2344-17.449s10.902-7.2305 17.449-7.2344h12.531c11.039-0.015625 21.621-4.4062 29.422-12.211 7.8047-7.8047 12.195-18.383 12.211-29.422v-43.336c0-1.4883-0.58984-2.9102-1.6406-3.9609-1.0508-1.0508-2.4766-1.6406-3.9609-1.6406h-18.156v-16.469c0.015625-9.8828 3.3984-19.461 9.5938-27.156 6.1953-7.6992 14.828-13.051 24.477-15.176 5.3555 7.3672 8.2383 16.242 8.2266 25.352v169.57c0 3.0938 2.5078 5.6016 5.6016 5.6016s5.6016-2.5078 5.6016-5.6016v-169.57c0.007812-9.1602-2.3047-18.176-6.7227-26.203 10.859 0.875 20.992 5.8008 28.387 13.801 7.3945 8 11.508 18.488 11.523 29.383v28.855c0 3.0938 2.5078 5.6016 5.6016 5.6016s5.6016-2.5078 5.6016-5.6016v-28.855c-0.015625-14.461-5.7695-28.328-15.992-38.555-10.223-10.227-24.086-15.98-38.547-16-1.5898 0-3.1523 0.10547-4.7031 0.24219-0.38672-0.41016-0.72656-0.83984-1.1211-1.2305v-0.003906c-9.3516-9.3516-21.777-14.984-34.973-15.855-13.195-0.875-26.254 3.0781-36.754 11.113-10.5 8.0391-17.723 19.613-20.328 32.578-0.53516 3.0039 1.4297 5.8828 4.418 6.4766 2.9922 0.59766 5.9102-1.3086 6.5664-4.2852 1.9883-9.8125 7.3008-18.633 15.047-24.977 7.7422-6.3398 17.441-9.8125 27.449-9.8281 9.5078-0.015625 18.754 3.125 26.289 8.9258-10.641 3.7539-19.859 10.707-26.383 19.914-6.5273 9.2031-10.039 20.203-10.059 31.484v16.469h-48.547c3.6328-5.2188 5.2227-11.586 4.4727-17.898s-3.7891-12.129-8.5391-16.348c-4.7539-4.2227-10.891-6.5547-17.246-6.5547s-12.492 2.332-17.246 6.5547c-4.75 4.2188-7.7891 10.035-8.5391 16.348s0.83984 12.68 4.4727 17.898h-48.547v-16.469c-0.019531-11.285-3.5352-22.285-10.062-31.492-6.5273-9.2031-15.746-16.16-26.387-19.91 11.875-9.1055 27.617-11.43 41.617-6.1406 14.004 5.2852 24.277 17.434 27.172 32.117 0.59375 3.0352 3.5352 5.0156 6.5703 4.4219 1.457-0.28516 2.7422-1.1367 3.5742-2.3711 0.82812-1.2305 1.1328-2.7422 0.84766-4.1992-2.5625-12.988-9.7656-24.602-20.262-32.672-10.492-8.0664-23.566-12.043-36.777-11.184-13.211 0.85938-25.656 6.4922-35.02 15.855-0.39062 0.39062-0.73437 0.82422-1.1211 1.2305-1.5508-0.13281-3.1094-0.24219-4.6914-0.24219-14.465 0.019531-28.332 5.7695-38.559 16-10.227 10.227-15.98 24.094-15.996 38.559v28.855c0 3.0938 2.5078 5.6016 5.5977 5.6016 3.0938 0 5.6016-2.5078 5.6016-5.6016v-28.828c0.015625-10.891 4.1289-21.379 11.52-29.379 7.3906-7.9961 17.52-12.922 28.375-13.797-4.418 8.0234-6.7266 17.035-6.7188 26.195v169.57c0 3.0938 2.5078 5.6016 5.5977 5.6016 3.0938 0 5.6016-2.5078 5.6016-5.6016v-169.57c-0.011719-9.1094 2.8711-17.984 8.2305-25.352 9.6523 2.125 18.289 7.4766 24.488 15.172 6.1953 7.6953 9.582 17.277 9.5938 27.16v16.469h-18.148c-3.0938 0-5.6016 2.5078-5.6016 5.6016v43.34-0.003906c0.015625 11.039 4.4062 21.617 12.211 29.422 7.8008 7.8047 18.383 12.195 29.422 12.211h12.531c6.5469 0.003907 12.82 2.6055 17.449 7.2344s7.2305 10.902 7.2344 17.449v63.449c-0.003906 6.543-2.6055 12.82-7.2344 17.445-4.6289 4.6289-10.902 7.2305-17.449 7.2383-1.1211 0.027343-2.207 0.40234-3.1094 1.0703-3.0234 1.1289-5.6328 3.1562-7.4766 5.8086s-2.8359 5.8047-2.8438 9.0352v19.859h-11.379c-5.0156 0.007813-9.8242 2.0039-13.371 5.5508-3.5469 3.5508-5.5391 8.3594-5.543 13.375v23.371c-8.0664 2.6797-15.598 6.7539-22.258 12.031-9.5547 8.293-21.84 12.758-34.488 12.539-12.652 0.21875-24.938-4.25-34.492-12.543-11.477-9.6406-26.031-14.848-41.02-14.676-3.0938 0-5.5977 2.5039-5.5977 5.5977v43.754c0.015625 13.91 5.5469 27.246 15.383 37.082 9.8359 9.8359 23.172 15.371 37.082 15.391h14.637v4.9688-0.003906c0.003906 6.5781 2.6133 12.883 7.2617 17.535 4.6484 4.6484 10.949 7.2656 17.527 7.2734h280.68c6.5742-0.007813 12.875-2.6211 17.523-7.2695 4.6445-4.6484 7.2578-10.949 7.2656-17.52v-4.9688h14.633c13.91-0.019531 27.246-5.5508 37.078-15.387 9.8359-9.8398 15.371-23.176 15.387-37.086v-43.77c0-3.0898-2.5039-5.5977-5.5938-5.5977zm-241.4-293.57c0-3.918 1.5547-7.6758 4.3242-10.445 2.7695-2.7695 6.5234-4.3242 10.441-4.3242s7.6719 1.5547 10.441 4.3242c2.7695 2.7695 4.3242 6.5273 4.3242 10.445 0 3.9141-1.5547 7.6719-4.3242 10.441-2.7695 2.7695-6.5234 4.3242-10.441 4.3242-3.9141-0.003907-7.668-1.5625-10.438-4.332-2.7695-2.7656-4.3242-6.5195-4.3281-10.434zm-78.848 63.703v-37.738h187.23v37.738c-0.007812 8.0664-3.2188 15.801-8.9219 21.508-5.707 5.7031-13.438 8.9141-21.508 8.9219h-126.37c-8.0703-0.007812-15.801-3.2188-21.508-8.9219-5.7031-5.707-8.9141-13.441-8.9219-21.508zm118.29 41.629-0.003906 0.003906c-6.3555 6.6445-9.9023 15.488-9.9062 24.684v63.449c0.003906 9.1953 3.5508 18.035 9.9062 24.684h-49.344c6.3555-6.6484 9.9023-15.488 9.9062-24.684v-63.449c-0.003906-9.1953-3.5508-18.039-9.9062-24.684zm-77.555 128.73c0-2.5977 2.1016-4.707 4.7031-4.7148h96.336c2.5977 0.007813 4.7031 2.1172 4.7031 4.7148v19.859h-105.74zm-30.297 38.785c0.066406-4.2344 3.4805-7.6484 7.7148-7.7148h150.92c4.2344 0.066407 7.6484 3.4805 7.7148 7.7148v21.152c-2.5547-0.27734-5.125-0.42188-7.6992-0.42969-14.988-0.17969-29.547 5.0156-41.035 14.648-9.6719 8.1016-21.883 12.543-34.5 12.543-12.617 0-24.828-4.4414-34.5-12.543-11.492-9.6289-26.051-14.828-41.043-14.648-2.5273 0-5.0586 0.12891-7.5742 0.38672zm237.11 127.54-0.003907 0.003906c-0.015625 7.4922-6.0898 13.566-13.586 13.578h-280.68c-7.5-0.011719-13.578-6.0898-13.586-13.59v-4.9688h307.85zm67.102-57.449c-0.011719 10.941-4.3633 21.434-12.098 29.168-7.7383 7.7383-18.227 12.09-29.168 12.105h-359.53c-10.941-0.015626-21.43-4.3672-29.164-12.105-7.7383-7.7344-12.09-18.227-12.102-29.168v-37.922c10.664 1.0391 20.75 5.3398 28.879 12.32 11.484 9.6367 26.043 14.836 41.031 14.656 14.992 0.17578 29.547-5.0234 41.031-14.656 9.6719-8.1016 21.883-12.543 34.496-12.543 12.617 0 24.828 4.4414 34.496 12.543 11.578 9.4766 26.078 14.652 41.039 14.652 14.961 0 29.465-5.1758 41.043-14.652 9.6719-8.0977 21.887-12.539 34.504-12.539 12.617 0 24.832 4.4414 34.508 12.539 11.586 9.4727 26.094 14.648 41.059 14.648 14.969 0 29.473-5.1758 41.062-14.648 8.1406-6.9844 18.238-11.285 28.918-12.32z"/>
  <path d="m226.62 337.18v-41.441 0.003907c0-3.0938-2.5078-5.6016-5.6016-5.6016-3.0898 0-5.5977 2.5078-5.5977 5.6016v41.441-0.003906c0 3.0938 2.5078 5.6016 5.5977 5.6016 3.0938 0 5.6016-2.5078 5.6016-5.6016z"/>
  <path d="m176.64 279.88c-3.0938 0-5.6016 2.5078-5.6016 5.5977v68.668c0 3.0938 2.5078 5.6016 5.6016 5.6016 3.0898 0 5.5977-2.5078 5.5977-5.6016v-68.668c0-1.4844-0.58984-2.9062-1.6406-3.957-1.0508-1.0508-2.4727-1.6406-3.957-1.6406z"/>
  <path d="m182.23 169.56c0-3.0938-2.5078-5.6016-5.5977-5.6016-3.0938 0-5.6016 2.5078-5.6016 5.6016v85.375c0 3.0938 2.5078 5.6016 5.6016 5.6016 3.0898 0 5.5977-2.5078 5.5977-5.6016z"/>
  <path d="m269.98 272.28c1.4844 0 2.9102-0.58984 3.9609-1.6367 1.0469-1.0508 1.6367-2.4766 1.6367-3.9609v-32.109c0-3.0938-2.5039-5.6016-5.5977-5.6016s-5.6016 2.5078-5.6016 5.6016v32.109c0 1.4844 0.58984 2.9102 1.6406 3.9609 1.0508 1.0469 2.4766 1.6367 3.9609 1.6367z"/>
  <path d="m264.38 323.86c0 3.0938 2.5078 5.6016 5.6016 5.6016s5.5977-2.5078 5.5977-5.6016v-28.113 0.003906c0-3.0938-2.5039-5.6016-5.5977-5.6016s-5.6016 2.5078-5.6016 5.6016z"/>
  <use x="70" y="644" xlink:href="#t"/>
  <use x="90.550781" y="644" xlink:href="#c"/>
  <use x="104.359375" y="644" xlink:href="#a"/>
  <use x="123.347656" y="644" xlink:href="#i"/>
  <use x="142.242188" y="644" xlink:href="#b"/>
  <use x="155.628906" y="644" xlink:href="#a"/>
  <use x="174.617188" y="644" xlink:href="#h"/>
  <use x="204.410156" y="644" xlink:href="#g"/>
  <use x="224.453125" y="644" xlink:href="#f"/>
  <use x="252.453125" y="644" xlink:href="#e"/>
  <use x="262.046875" y="644" xlink:href="#s"/>
  <use x="280.671875" y="644" xlink:href="#e"/>
  <use x="70" y="672" xlink:href="#r"/>
  <use x="82.183594" y="672" xlink:href="#c"/>
  <use x="95.992188" y="672" xlink:href="#d"/>
  <use x="115.226562" y="672" xlink:href="#q"/>
  <use x="154.152344" y="672" xlink:href="#b"/>
  <use x="167.535156" y="672" xlink:href="#p"/>
  <use x="187.46875" y="672" xlink:href="#a"/>
  <use x="216.207031" y="672" xlink:href="#o"/>
  <use x="239.640625" y="672" xlink:href="#d"/>
  <use x="258.878906" y="672" xlink:href="#n"/>
  <use x="278.8125" y="672" xlink:href="#m"/>
  <use x="308.492188" y="672" xlink:href="#l"/>
  <use x="329.015625" y="672" xlink:href="#c"/>
  <use x="342.820312" y="672" xlink:href="#d"/>
  <use x="362.058594" y="672" xlink:href="#k"/>
  <use x="371.65625" y="672" xlink:href="#a"/>
  <use x="390.648438" y="672" xlink:href="#j"/>
  <use x="407.242188" y="672" xlink:href="#b"/>
 </g>
</svg>
