<?xml version="1.0" encoding="UTF-8"?>
<svg version="1.1" viewBox="0 0 700 700" xmlns="http://www.w3.org/2000/svg" xmlns:xlink="http://www.w3.org/1999/xlink">

 <g>
  <path d="m360.91 162.16c4.457 0 8.7305-1.7695 11.883-4.9219s4.9219-7.4258 4.9219-11.883c0-4.457-1.7695-8.7344-4.9219-11.887-3.1523-3.1484-7.4258-4.9219-11.883-4.9219-4.457 0-8.7344 1.7734-11.887 4.9219-3.1523 3.1523-4.9219 7.4297-4.9219 11.887 0 4.457 1.7695 8.7305 4.9219 11.883s7.4297 4.9219 11.887 4.9219z"/>
  <path d="m485.21 328.86c-9.1211 12.891-13.832 28.387-13.43 44.172 0.91406 28.699 14.906 60.457 34.824 79.02v0.003906c3.5352 3.293 3.7305 8.832 0.43359 12.367-3.293 3.5352-8.832 3.7305-12.367 0.43359-23.465-21.871-39.316-57.695-40.383-91.266-0.09375-2.8945-0.074218-5.7266 0.054688-8.5039h0.003906c-12.523 12.477-26.184 23.754-40.809 33.684-0.1875 0.12891-0.37891 0.23828-0.57422 0.34766l-16.172 32.141 59.605 30.227v-0.003907c3.6133 1.832 5.4961 5.8984 4.5547 9.8398-0.94141 3.9375-4.4609 6.7148-8.5078 6.7148-0.066406 0-0.13281 0-0.20312-0.003906l-276.93 0.003906c-4.832-0.10938-8.6602-4.1172-8.5469-8.9492 0.10938-4.8281 4.1133-8.6562 8.9453-8.5469l238.4-0.88281-33.004-16.738c-4.3008-2.1797-6.0273-7.4297-3.8594-11.738l25.168-50.016c0.074219-0.14453 0.15234-0.28906 0.23438-0.43359 17.672-30.699 4.9922-59.379-11.23-74.609-16-15.02-45.012-25.711-74.105-6.418-51.254 33.98-89.617 98.652-90 99.301h-0.003907c-2.4609 4.1367-7.8008 5.5117-11.949 3.0742-4.1523-2.4375-5.5547-7.7695-3.1406-11.934 1.6367-2.793 40.738-68.77 95.422-105.03 15.918-10.555 33.777-14.969 51.66-12.766 16.543 2.1875 31.973 9.543 44.094 21.012 12.336 11.508 20.723 26.617 23.965 43.172 1.8789 9.9883 1.6875 20.254-0.5625 30.164 28.711-24.441 51.863-54.742 67.91-88.863 16.043-34.121 24.609-71.281 25.125-108.98-16.641 23.309-48.895 57.305-107.62 85.457-2.0938 1.0195-4.5117 1.1641-6.7109 0.39453-2.2031-0.76562-4.0039-2.3789-5.0117-4.4805-1.0078-2.1016-1.1367-4.5156-0.35547-6.7109 0.78125-2.1953 2.4062-3.9922 4.5117-4.9844 47.664-22.848 76.246-49.711 91.832-68.227h0.003906c7-8.2031 13.184-17.07 18.457-26.477-22.844-6.25-46.422-9.4141-70.105-9.3984-10.18 0.007813-20.352 0.59375-30.465 1.7539-4.0508 0.46484-7.8867-1.9297-9.2461-5.7773-5.4453-15.387-18.578-26.781-34.586-29.996-16.004-3.2148-32.52 2.2188-43.488 14.312-10.965 12.09-14.77 29.059-10.012 44.672 1.1875 3.8984-0.47266 8.1016-4.0039 10.133-40.395 23.188-73.953 56.621-97.285 96.934-23.328 40.309-35.605 86.062-35.586 132.64 0 8.5859 0.42969 17.332 1.2734 25.996v0.003906c0.22656 2.3086-0.47656 4.6133-1.9492 6.4062-1.4727 1.793-3.6016 2.9258-5.9102 3.1523-0.28906 0.027343-0.57422 0.042968-0.85938 0.042968v-0.003906c-4.5-0.003906-8.2617-3.4219-8.6992-7.9023-0.89844-9.2266-1.3555-18.543-1.3555-27.695-0.019532-48.531 12.484-96.25 36.305-138.54 23.82-42.289 58.148-77.711 99.664-102.85-2.8164-15.301 0.019531-31.105 7.9805-44.469 7.9609-13.367 20.508-23.387 35.301-28.199 14.672-4.6953 30.543-3.9375 44.699 2.1406 14.152 6.0781 25.633 17.062 32.332 30.934 8.6602-0.79297 17.344-1.1914 25.891-1.1914 28.871-0.019531 57.57 4.3906 85.102 13.078 3.3438 1.0547 5.7344 4.0039 6.0742 7.4922 0.89844 9.2148 1.3555 18.535 1.3555 27.695 0.015626 56.984-17.234 112.64-49.48 159.62z"/>
 </g>
</svg>
