<?xml version="1.0" encoding="UTF-8"?>
<svg width="700pt" height="700pt" version="1.1" viewBox="0 0 700 700" xmlns="http://www.w3.org/2000/svg" xmlns:xlink="http://www.w3.org/1999/xlink">
 <defs>
  <symbol id="v" overflow="visible">
   <path d="m18.766-1.125c-0.96875 0.5-1.9805 0.875-3.0312 1.125-1.043 0.25781-2.1367 0.39062-3.2812 0.39062-3.3984 0-6.0898-0.94531-8.0781-2.8438-1.9922-1.9062-2.9844-4.4844-2.9844-7.7344 0-3.2578 0.99219-5.8359 2.9844-7.7344 1.9883-1.9062 4.6797-2.8594 8.0781-2.8594 1.1445 0 2.2383 0.13281 3.2812 0.39062 1.0508 0.25 2.0625 0.625 3.0312 1.125v4.2188c-0.98047-0.65625-1.9453-1.1406-2.8906-1.4531-0.94922-0.3125-1.9492-0.46875-3-0.46875-1.875 0-3.3516 0.60547-4.4219 1.8125-1.0742 1.1992-1.6094 2.8555-1.6094 4.9688 0 2.1055 0.53516 3.7617 1.6094 4.9688 1.0703 1.1992 2.5469 1.7969 4.4219 1.7969 1.0508 0 2.0508-0.14844 3-0.45312 0.94531-0.3125 1.9102-0.80078 2.8906-1.4688z"/>
  </symbol>
  <symbol id="a" overflow="visible">
   <path d="m13.734-11.141c-0.4375-0.19531-0.87109-0.34375-1.2969-0.4375-0.41797-0.10156-0.83984-0.15625-1.2656-0.15625-1.2617 0-2.2305 0.40625-2.9062 1.2188-0.67969 0.80469-1.0156 1.9531-1.0156 3.4531v7.0625h-4.8906v-15.312h4.8906v2.5156c0.625-1 1.3438-1.7266 2.1562-2.1875 0.82031-0.46875 1.8008-0.70312 2.9375-0.70312 0.16406 0 0.34375 0.011719 0.53125 0.03125 0.19531 0.011719 0.47656 0.039062 0.84375 0.078125z"/>
  </symbol>
  <symbol id="c" overflow="visible">
   <path d="m17.641-7.7031v1.4062h-11.453c0.125 1.1484 0.53906 2.0078 1.25 2.5781 0.70703 0.57422 1.7031 0.85938 2.9844 0.85938 1.0312 0 2.082-0.14844 3.1562-0.45312 1.082-0.3125 2.1914-0.77344 3.3281-1.3906v3.7656c-1.1562 0.4375-2.3125 0.76562-3.4688 0.98438-1.1562 0.22656-2.3125 0.34375-3.4688 0.34375-2.7734 0-4.9297-0.70312-6.4688-2.1094-1.5312-1.4062-2.2969-3.3789-2.2969-5.9219 0-2.5 0.75391-4.4609 2.2656-5.8906 1.5078-1.4375 3.582-2.1562 6.2188-2.1562 2.4062 0 4.332 0.73047 5.7812 2.1875 1.4453 1.4492 2.1719 3.3828 2.1719 5.7969zm-5.0312-1.625c0-0.92578-0.27344-1.6719-0.8125-2.2344-0.54297-0.57031-1.25-0.85938-2.125-0.85938-0.94922 0-1.7188 0.26562-2.3125 0.79688s-0.96484 1.2969-1.1094 2.2969z"/>
  </symbol>
  <symbol id="m" overflow="visible">
   <path d="m9.2188-6.8906c-1.0234 0-1.793 0.17188-2.3125 0.51562-0.51172 0.34375-0.76562 0.85547-0.76562 1.5312 0 0.625 0.20703 1.1172 0.625 1.4688 0.41406 0.34375 0.98828 0.51562 1.7188 0.51562 0.92578 0 1.7031-0.32812 2.3281-0.98438 0.63281-0.66406 0.95312-1.4922 0.95312-2.4844v-0.5625zm7.4688-1.8438v8.7344h-4.9219v-2.2656c-0.65625 0.92969-1.3984 1.6055-2.2188 2.0312-0.82422 0.41406-1.8242 0.625-3 0.625-1.5859 0-2.8711-0.45703-3.8594-1.375-0.99219-0.92578-1.4844-2.1289-1.4844-3.6094 0-1.7891 0.61328-3.1016 1.8438-3.9375 1.2383-0.84375 3.1797-1.2656 5.8281-1.2656h2.8906v-0.39062c0-0.76953-0.30859-1.332-0.92188-1.6875-0.61719-0.36328-1.5703-0.54688-2.8594-0.54688-1.0547 0-2.0312 0.10547-2.9375 0.3125-0.89844 0.21094-1.7305 0.52344-2.5 0.9375v-3.7344c1.0391-0.25 2.0859-0.44141 3.1406-0.57812 1.0625-0.13281 2.125-0.20312 3.1875-0.20312 2.7578 0 4.75 0.54688 5.9688 1.6406 1.2266 1.0859 1.8438 2.8555 1.8438 5.3125z"/>
  </symbol>
  <symbol id="b" overflow="visible">
   <path d="m7.7031-19.656v4.3438h5.0469v3.5h-5.0469v6.5c0 0.71094 0.14062 1.1875 0.42188 1.4375s0.83594 0.375 1.6719 0.375h2.5156v3.5h-4.1875c-1.9375 0-3.3125-0.39844-4.125-1.2031-0.80469-0.8125-1.2031-2.1797-1.2031-4.1094v-6.5h-2.4219v-3.5h2.4219v-4.3438z"/>
  </symbol>
  <symbol id="l" overflow="visible">
   <path d="m12.766-13.078v-8.2031h4.9219v21.281h-4.9219v-2.2188c-0.66797 0.90625-1.4062 1.5703-2.2188 1.9844s-1.7578 0.625-2.8281 0.625c-1.8867 0-3.4336-0.75-4.6406-2.25-1.2109-1.5-1.8125-3.4258-1.8125-5.7812 0-2.3633 0.60156-4.2969 1.8125-5.7969 1.207-1.5 2.7539-2.25 4.6406-2.25 1.0625 0 2 0.21484 2.8125 0.64062 0.82031 0.42969 1.5664 1.0859 2.2344 1.9688zm-3.2188 9.9219c1.0391 0 1.8359-0.37891 2.3906-1.1406 0.55078-0.76953 0.82812-1.8828 0.82812-3.3438 0-1.457-0.27734-2.5664-0.82812-3.3281-0.55469-0.76953-1.3516-1.1562-2.3906-1.1562-1.043 0-1.8398 0.38672-2.3906 1.1562-0.55469 0.76172-0.82812 1.8711-0.82812 3.3281 0 1.4609 0.27344 2.5742 0.82812 3.3438 0.55078 0.76172 1.3477 1.1406 2.3906 1.1406z"/>
  </symbol>
  <symbol id="k" overflow="visible">
   <path d="m10.5-3.1562c1.0508 0 1.8516-0.37891 2.4062-1.1406 0.55078-0.76953 0.82812-1.8828 0.82812-3.3438 0-1.457-0.27734-2.5664-0.82812-3.3281-0.55469-0.76953-1.3555-1.1562-2.4062-1.1562-1.0547 0-1.8594 0.38672-2.4219 1.1562-0.55469 0.77344-0.82812 1.8828-0.82812 3.3281 0 1.4492 0.27344 2.5586 0.82812 3.3281 0.5625 0.77344 1.3672 1.1562 2.4219 1.1562zm-3.25-9.9219c0.67578-0.88281 1.4219-1.5391 2.2344-1.9688 0.82031-0.42578 1.7656-0.64062 2.8281-0.64062 1.8945 0 3.4453 0.75 4.6562 2.25 1.207 1.5 1.8125 3.4336 1.8125 5.7969 0 2.3555-0.60547 4.2812-1.8125 5.7812-1.2109 1.5-2.7617 2.25-4.6562 2.25-1.0625 0-2.0078-0.21094-2.8281-0.625-0.8125-0.42578-1.5586-1.0859-2.2344-1.9844v2.2188h-4.8906v-21.281h4.8906z"/>
  </symbol>
  <symbol id="e" overflow="visible">
   <path d="m0.34375-15.312h4.8906l4.125 10.391 3.5-10.391h4.8906l-6.4375 16.766c-0.64844 1.6953-1.4023 2.8828-2.2656 3.5625-0.86719 0.6875-2 1.0312-3.4062 1.0312h-2.8438v-3.2188h1.5312c0.83203 0 1.4375-0.13672 1.8125-0.40625 0.38281-0.26172 0.67969-0.73047 0.89062-1.4062l0.14062-0.42188z"/>
  </symbol>
  <symbol id="j" overflow="visible">
   <path d="m0.14062-20.406h5.2812l5.4219 15.062 5.4062-15.062h5.2812l-7.5625 20.406h-6.2656z"/>
  </symbol>
  <symbol id="u" overflow="visible">
   <path d="m2.3594-15.312h4.8906v15.312h-4.8906zm0-5.9688h4.8906v4h-4.8906z"/>
  </symbol>
  <symbol id="t" overflow="visible">
   <path d="m2.3594-21.281h4.8906v11.594l5.625-5.625h5.6875l-7.4688 7.0312 8.0625 8.2812h-5.9375l-5.9688-6.3906v6.3906h-4.8906z"/>
  </symbol>
  <symbol id="d" overflow="visible">
   <path d="m9.6406-12.188c-1.0859 0-1.9141 0.39062-2.4844 1.1719-0.57422 0.78125-0.85938 1.9062-0.85938 3.375s0.28516 2.5938 0.85938 3.375c0.57031 0.77344 1.3984 1.1562 2.4844 1.1562 1.0625 0 1.875-0.38281 2.4375-1.1562 0.57031-0.78125 0.85938-1.9062 0.85938-3.375s-0.28906-2.5938-0.85938-3.375c-0.5625-0.78125-1.375-1.1719-2.4375-1.1719zm0-3.5c2.6328 0 4.6914 0.71484 6.1719 2.1406 1.4766 1.418 2.2188 3.3867 2.2188 5.9062 0 2.5117-0.74219 4.4805-2.2188 5.9062-1.4805 1.418-3.5391 2.125-6.1719 2.125-2.6484 0-4.7148-0.70703-6.2031-2.125-1.4922-1.4258-2.2344-3.3945-2.2344-5.9062 0-2.5195 0.74219-4.4883 2.2344-5.9062 1.4883-1.4258 3.5547-2.1406 6.2031-2.1406z"/>
  </symbol>
  <symbol id="s" overflow="visible">
   <path d="m0.14062-20.406h18.812v3.9688h-6.7656v16.438h-5.2656v-16.438h-6.7812z"/>
  </symbol>
  <symbol id="i" overflow="visible">
   <path d="m2.1875-5.9688v-9.3438h4.9219v1.5312c0 0.83594-0.007813 1.875-0.015625 3.125-0.011719 1.25-0.015625 2.0859-0.015625 2.5 0 1.2422 0.03125 2.1328 0.09375 2.6719 0.070313 0.54297 0.17969 0.93359 0.32812 1.1719 0.20703 0.32422 0.47266 0.57422 0.79688 0.75 0.32031 0.16797 0.69141 0.25 1.1094 0.25 1.0195 0 1.8203-0.39062 2.4062-1.1719 0.58203-0.78125 0.875-1.8672 0.875-3.2656v-7.5625h4.8906v15.312h-4.8906v-2.2188c-0.74219 0.89844-1.5234 1.5586-2.3438 1.9844-0.82422 0.41406-1.7344 0.625-2.7344 0.625-1.7617 0-3.1055-0.53906-4.0312-1.625-0.92969-1.082-1.3906-2.6602-1.3906-4.7344z"/>
  </symbol>
  <symbol id="h" overflow="visible">
   <path d="m14.719-14.828v3.9844c-0.65625-0.45703-1.3242-0.79688-2-1.0156-0.66797-0.21875-1.3594-0.32812-2.0781-0.32812-1.3672 0-2.4336 0.40234-3.2031 1.2031-0.76172 0.79297-1.1406 1.9062-1.1406 3.3438 0 1.4297 0.37891 2.543 1.1406 3.3438 0.76953 0.79297 1.8359 1.1875 3.2031 1.1875 0.75781 0 1.4844-0.10938 2.1719-0.32812 0.6875-0.22656 1.3203-0.56641 1.9062-1.0156v4c-0.76172 0.28125-1.5391 0.48828-2.3281 0.625-0.78125 0.14453-1.5742 0.21875-2.375 0.21875-2.7617 0-4.9219-0.70703-6.4844-2.125-1.5547-1.4141-2.3281-3.3828-2.3281-5.9062 0-2.5312 0.77344-4.5039 2.3281-5.9219 1.5625-1.4141 3.7227-2.125 6.4844-2.125 0.80078 0 1.5938 0.074219 2.375 0.21875 0.78125 0.13672 1.5547 0.35156 2.3281 0.64062z"/>
  </symbol>
  <symbol id="g" overflow="visible">
   <path d="m17.75-9.3281v9.3281h-4.9219v-7.1094c0-1.3438-0.03125-2.2656-0.09375-2.7656s-0.16797-0.86719-0.3125-1.1094c-0.1875-0.3125-0.44922-0.55469-0.78125-0.73438-0.32422-0.17578-0.69531-0.26562-1.1094-0.26562-1.0234 0-1.8242 0.39844-2.4062 1.1875-0.58594 0.78125-0.875 1.8711-0.875 3.2656v7.5312h-4.8906v-21.281h4.8906v8.2031c0.73828-0.88281 1.5195-1.5391 2.3438-1.9688 0.83203-0.42578 1.75-0.64062 2.75-0.64062 1.7695 0 3.1133 0.54688 4.0312 1.6406 0.91406 1.0859 1.375 2.6562 1.375 4.7188z"/>
  </symbol>
  <symbol id="f" overflow="visible">
   <path d="m17.75-9.3281v9.3281h-4.9219v-7.1406c0-1.3203-0.03125-2.2344-0.09375-2.7344s-0.16797-0.86719-0.3125-1.1094c-0.1875-0.3125-0.44922-0.55469-0.78125-0.73438-0.32422-0.17578-0.69531-0.26562-1.1094-0.26562-1.0234 0-1.8242 0.39844-2.4062 1.1875-0.58594 0.78125-0.875 1.8711-0.875 3.2656v7.5312h-4.8906v-15.312h4.8906v2.2344c0.73828-0.88281 1.5195-1.5391 2.3438-1.9688 0.83203-0.42578 1.75-0.64062 2.75-0.64062 1.7695 0 3.1133 0.54688 4.0312 1.6406 0.91406 1.0859 1.375 2.6562 1.375 4.7188z"/>
  </symbol>
  <symbol id="r" overflow="visible">
   <path d="m12.422-21.281v3.2188h-2.7031c-0.6875 0-1.1719 0.125-1.4531 0.375-0.27344 0.25-0.40625 0.6875-0.40625 1.3125v1.0625h4.1875v3.5h-4.1875v11.812h-4.8906v-11.812h-2.4375v-3.5h2.4375v-1.0625c0-1.6641 0.46094-2.8984 1.3906-3.7031 0.92578-0.80078 2.3672-1.2031 4.3281-1.2031z"/>
  </symbol>
  <symbol id="q" overflow="visible">
   <path d="m16.547-12.766c0.61328-0.94531 1.3477-1.6719 2.2031-2.1719 0.85156-0.5 1.7891-0.75 2.8125-0.75 1.7578 0 3.0977 0.54688 4.0156 1.6406 0.92578 1.0859 1.3906 2.6562 1.3906 4.7188v9.3281h-4.9219v-7.9844-0.35938c0.007813-0.13281 0.015625-0.32031 0.015625-0.5625 0-1.082-0.16406-1.8633-0.48438-2.3438-0.3125-0.48828-0.82422-0.73438-1.5312-0.73438-0.92969 0-1.6484 0.38672-2.1562 1.1562-0.51172 0.76172-0.77344 1.8672-0.78125 3.3125v7.5156h-4.9219v-7.9844c0-1.6953-0.14844-2.7852-0.4375-3.2656-0.29297-0.48828-0.8125-0.73438-1.5625-0.73438-0.9375 0-1.6641 0.38672-2.1719 1.1562-0.51172 0.76172-0.76562 1.8594-0.76562 3.2969v7.5312h-4.9219v-15.312h4.9219v2.2344c0.60156-0.86328 1.2891-1.5156 2.0625-1.9531 0.78125-0.4375 1.6406-0.65625 2.5781-0.65625 1.0625 0 2 0.25781 2.8125 0.76562 0.8125 0.51172 1.4258 1.2305 1.8438 2.1562z"/>
  </symbol>
  <symbol id="p" overflow="visible">
   <path d="m2.5781-20.406h5.875l7.4219 14v-14h4.9844v20.406h-5.875l-7.4219-14v14h-4.9844z"/>
  </symbol>
  <symbol id="o" overflow="visible">
   <path d="m2.5781-20.406h8.7344c2.5938 0 4.582 0.57812 5.9688 1.7344 1.3945 1.1484 2.0938 2.7891 2.0938 4.9219 0 2.1367-0.69922 3.7812-2.0938 4.9375-1.3867 1.1562-3.375 1.7344-5.9688 1.7344h-3.4844v7.0781h-5.25zm5.25 3.8125v5.7031h2.9219c1.0195 0 1.8047-0.25 2.3594-0.75 0.5625-0.5 0.84375-1.2031 0.84375-2.1094 0-0.91406-0.28125-1.6172-0.84375-2.1094-0.55469-0.48828-1.3398-0.73438-2.3594-0.73438z"/>
  </symbol>
  <symbol id="n" overflow="visible">
   <path d="m2.3594-15.312h4.8906v15.031c0 2.0508-0.49609 3.6172-1.4844 4.7031-0.98047 1.082-2.4062 1.625-4.2812 1.625h-2.4219v-3.2188h0.85938c0.92578 0 1.5625-0.21094 1.9062-0.625 0.35156-0.41797 0.53125-1.2461 0.53125-2.4844zm0-5.9688h4.8906v4h-4.8906z"/>
  </symbol>
 </defs>
 <g>
  <path d="m577.05 273.48c-2.5078-9.375-5.2148-18.695-8.1172-27.957 11.664-7.4609 17.16-22.211 12.375-35.824-19.348-55.07-44.363-105.83-72.336-146.78-3.8711-5.6641-9.5352-9.8594-16.086-11.914-6.5469-2.0508-13.594-1.8398-20.008 0.60547-0.53906-0.57031-1.0625-1.1133-1.5625-1.6172l0.003906-0.003906c-1.1328-1.125-2.2188-2.2969-3.25-3.5156-2.7266-3.0977-7.4219-3.4688-10.602-0.83594-3.1797 2.6289-3.6953 7.3086-1.1641 10.57 1.4688 1.7695 2.8164 3.1602 4.0156 4.3789-8.5234 10.219-9.6641 25.25-1.7969 36.773 9.1406 13.473 17.582 27.406 25.289 41.75-14.055 1.918-26.199 10.785-32.301 23.59-9.3086-3.7383-19.246-5.6641-29.277-5.6641-43.164 0-78.281 35.113-78.281 78.27v0.46875c-12.848 7.4648-20.742 21.207-20.723 36.066 0 23.012 18.727 41.738 41.742 41.738v-0.003907c8.5312 0.007813 16.859-2.6016 23.859-7.4805 22.555 10.645 48.832 9.8945 70.742-2.0195 12.402 29.328 25.652 69.41 31.496 116.22-6.9727-1.6133-11.285-5.4883-11.285-10.629 0-4.2188-3.457-7.6328-7.6719-7.6328-4.2188 0-7.6328 3.4141-7.6328 7.6328 0 5.4023-9.7891 11.453-22.887 11.453s-22.883-6.0469-22.883-11.453c0-4.2188-3.457-7.6328-7.6719-7.6328-4.2188 0-7.6328 3.4141-7.6328 7.6328 0 5.4023-9.7891 11.453-22.883 11.453-13.098 0-22.887-6.0469-22.887-11.453 0-4.2188-3.457-7.6328-7.6719-7.6328-4.2188 0-7.6328 3.4141-7.6328 7.6328 0 5.4023-9.7891 11.453-22.883 11.453-0.09375 0-0.18359 0.023438-0.28125 0.027344 1.9766-40.863-2.1094-88.312-25.754-117.23-6.3789-7.8008-23.145-9.4375-36.094-9.4375-8.8438 0-15.449 0.60547-20.422 1.5352 16.723-36.031 31.32-56.426 31.668-56.902l0.003906-0.003907c2.1914-2.9922 1.9141-7.125-0.66016-9.7969-2.5703-2.6758-6.6914-3.1094-9.7656-1.0391-2.5703 1.7305-51.945 35.895-93.953 131.02 3.3828-14.125 7.3906-29.457 12.219-47.441 2.5039-9.3203 4.9453-17.723 7.8789-27.137 6.6445 0.41406 13.242-1.3477 18.793-5.0234 5.5469-3.6758 9.7461-9.0625 11.957-15.34 17.605-50.109 40.137-95.957 65.152-132.58 3.7383-5.4922 5.582-12.055 5.2578-18.691-0.32422-6.6328-2.8008-12.984-7.0547-18.086 1.1992-1.2227 2.5469-2.6055 4.0156-4.3789h-0.003906c2.6914-3.2461 2.2383-8.0586-1.0078-10.75-3.25-2.6875-8.0625-2.2344-10.75 1.0117-1.0312 1.2148-2.1133 2.3867-3.2422 3.5117-0.5 0.50781-1.0234 1.0547-1.5625 1.625-6.4141-2.4414-13.461-2.6523-20.012-0.60156-6.5469 2.0508-12.215 6.2461-16.086 11.914-27.977 40.965-52.992 91.719-72.336 146.78-4.7812 13.613 0.71094 28.363 12.375 35.824v-0.003907c-2.9023 9.2617-5.6094 18.582-8.1172 27.957-8.2539 30.727-14.152 53.828-18.598 76.273-6.0391-34.414-9.0742-69.285-9.0742-104.22 0-9.6992 0.17188-18.266 0.58203-28.258 13.109-2.6602 23.387-13.832 24.434-27.609 4.0391-52.961 13.926-103.07 28.609-144.92 4.6211-13.164-0.37109-27.391-11.258-35.055 0.83984-1.4883 1.7852-3.1758 2.7422-5.2695h0.003906c1.7578-3.8359 0.074219-8.3672-3.7578-10.125-3.8359-1.7539-8.3672-0.070312-10.125 3.7617-0.71094 1.5586-1.4453 2.8555-2.2227 4.2344-0.35156 0.62109-0.72266 1.2891-1.0977 1.9805-1.0312-0.10938-2.0703-0.17188-3.1055-0.17578-6.3281 0.003906-12.5 1.9727-17.664 5.6328-5.1602 3.6602-9.0625 8.832-11.16 14.801-16.418 46.805-27.445 102.3-31.875 160.5-1.0977 14.387 8.0234 27.211 21.223 31.398-0.40625 9.6992-0.60938 19.402-0.60547 29.109 0 18.355 0.81641 36.02 2.2734 52.93-15.258 46.332-22.992 110.66-22.992 191.23 0 4.2148 3.418 7.6328 7.6328 7.6328 4.2148 0 7.6328-3.418 7.6328-7.6328 0-67.895 5.7578-116.27 12.672-149.89 2.6992 17.527 6.1562 34.934 10.355 52.164-3.1758 25.676-5.3438 55.406-7.5586 97.461-0.22266 4.2109 3.0078 7.8047 7.2188 8.0273 4.2109 0.22266 7.8047-3.0078 8.0273-7.2188 1.1797-22.398 2.3477-41.242 3.6641-57.832 8.0742 25.289 16.488 45.77 23.289 60.613 1.2891 2.8008 4.0547 4.4531 6.9453 4.4531 0.10547 0 0.21875-0.027344 0.32422-0.035156 0.50781 0.10547 1.0352 0.16797 1.5742 0.16797h0.074218-0.003906c4.2188-0.039062 7.6055-3.4883 7.5664-7.7031-0.80078-85.566 19.629-157.06 40.188-207.08 9.9531 6.7422 18.406 15.617 25.582 25.832-43.551 63.973-48.652 176.04-48.848 180.86h-0.003907c-0.17188 4.2148 3.1016 7.7734 7.3125 7.9492l0.32031 0.003906c4.0703 0 7.4531-3.2148 7.6211-7.3203 0.015624-0.44141 0.80078-17.711 4.1992-42.191 6.293-1.7422 11.621-4.6523 15.566-8.3828 6.5859 6.2148 16.879 10.148 28.645 10.148 9.543 0 18.082-2.6133 24.496-6.9102 0.90625 11.945 0.96875 19.5 0.96875 19.812-0.007813 3.8789 2.8945 7.1484 6.75 7.5977 3.8516 0.44922 7.4297-2.0625 8.3164-5.8398 0.26172-1.1016 1.6758-7.125 3.3984-16.508 4.1289 1.1758 8.6172 1.8438 13.379 1.8438 11.77 0 22.062-3.9297 28.648-10.148 6.5859 6.2148 16.879 10.148 28.648 10.148 20.031 0 35.785-11.387 36.262-26.039v-0.003906c0.21094-2.0898-0.44922-4.1797-1.8242-5.7695s-3.3477-2.5469-5.4492-2.6406c-2.0977-0.089844-4.1484 0.68359-5.6562 2.1484-1.5117 1.4609-2.3555 3.4844-2.332 5.5859 0 5.4023-8.9766 11.453-21 11.453-12.023 0-21-6.0469-21-11.453 0-4.2188-3.457-7.6328-7.6719-7.6328-4.2188 0-7.6328 3.4141-7.6328 7.6328 0 5.4023-8.9766 11.453-21 11.453-4.0312 0-7.707-0.6875-10.824-1.7969 1.3672-9.0273 2.6953-19.5 3.6562-30.805 0.42188 0.074219 0.85156 0.12891 1.2891 0.12891 12.621 0 23.633-4.0898 30.535-10.512 6.9062 6.4297 17.914 10.512 30.543 10.512 12.621 0 23.633-4.0898 30.543-10.512 6.9062 6.4297 17.914 10.512 30.535 10.512 12.207 0 22.91-3.8203 29.848-9.8906 4.6328 4.8203 11.688 8.4219 21.293 9.5078 0.90234 10.613 1.3984 21.527 1.4062 32.699-10.434-0.92578-17.914-6.3711-17.914-11.301 0-4.2188-3.457-7.6328-7.6719-7.6328-2.1367-0.003906-4.1758 0.89453-5.6172 2.4727-1.4453 1.5742-2.1602 3.6836-1.9727 5.8125 0.42969 13.828 14.469 24.742 32.867 25.945-0.26953 6.7891-0.72656 13.566-1.3672 20.328-2.9805 6.3242-11.117 12.27-22.328 12.27-12.02 0-21-6.0469-21-11.453 0-4.2188-3.457-7.6328-7.6719-7.6328-4.2188 0-7.6328 3.4141-7.6328 7.6328 0 5.4023-8.9766 11.453-21 11.453s-21-6.0469-21-11.453c0-4.2188-3.457-7.6328-7.6719-7.6328-4.2188 0-7.6328 3.4141-7.6328 7.6328 0 5.4023-8.9766 11.453-21 11.453-12.023 0-21-6.0469-21-11.453 0-4.2188-3.457-7.6328-7.6719-7.6328-4.2188 0-7.6328 3.4141-7.6328 7.6328 0 5.4023-8.9766 11.453-21 11.453s-21-6.0469-21-11.453c0-4.2188-3.457-7.6328-7.6719-7.6328h0.003906c-2.1406 0-4.1797 0.89844-5.6211 2.4766-1.4453 1.5781-2.1602 3.6875-1.9688 5.8203 0.46484 14.668 16.223 26.059 36.262 26.059 11.77 0 22.062-3.9297 28.648-10.152 6.5859 6.2148 16.879 10.152 28.648 10.152 11.77 0 22.062-3.9297 28.648-10.148 6.5859 6.2148 16.879 10.148 28.648 10.148s22.062-3.9297 28.648-10.148c6.5859 6.2148 16.879 10.148 28.648 10.148l0.003906-0.003906c7.1367 0.011719 14.164-1.7266 20.469-5.0664 1.0703 3.0391 3.9414 5.0703 7.1641 5.0664 3.7227 0 6.9844-2.7344 7.543-6.5234 0.86328-5.8516 1.5625-11.648 2.1406-17.395h-0.003907c0.27734-0.77734 0.51953-1.5703 0.73047-2.3672 0.33594-1.3555 0.28906-2.7734-0.12891-4.1055 5.0391-60.484-4.8477-114.53-16.852-154.97 21.805 46.73 41.535 108.11 41.996 177.78 0.027344 4.1992 3.4375 7.582 7.6328 7.582h0.050781c0.58203-0.003906 1.1406-0.085937 1.6914-0.21094 0.53906 0.12891 1.0977 0.20703 1.6758 0.21094h0.074218c4.1836 0 7.5938-3.3711 7.6328-7.5664 0.83594-89.453-15.449-174-31.562-235.25 23.637 56.805 50.031 137.9 60.66 234.36 0.003906 0.4375 0.066406 0.85547 0.14453 1.2773l0.027344 0.22266 0.011719 0.054688 0.015625 0.089843-0.003906 0.003907c0.62109 4.0664 4.3477 6.9141 8.4336 6.4375 4.0859-0.47656 7.0586-4.1055 6.7227-8.207 11.777-70.727 4.9297-159.38-19.312-249.81zm-463.73-52.891c4.3359-56.887 15.074-111.04 31.059-156.61 1.3438-3.8203 4.1484-6.9492 7.7969-8.7031 3.6484-1.7578 7.8438-1.9922 11.668-0.65625 3.8164 1.3438 6.9453 4.1484 8.7031 7.7969 1.7539 3.6484 1.9883 7.8438 0.65234 11.664-15.113 43.094-25.297 94.551-29.43 148.81-0.63281 8.3047-8.0547 14.684-16.387 14.066l0.003906 0.003906c-4.0352-0.3125-7.7852-2.2109-10.422-5.2812-2.6367-3.0703-3.9492-7.0625-3.6445-11.098zm58.492 28.582c18.91-53.828 43.305-103.36 70.539-143.23l-0.003906-0.003906c2.2891-3.3398 5.8086-5.6406 9.7852-6.3906 3.9805-0.74609 8.0938 0.11328 11.441 2.3945 3.3398 2.2852 5.6367 5.8047 6.3867 9.7812s-0.10938 8.0898-2.3906 11.438c-25.754 37.711-48.906 84.785-66.949 136.13h0.003906c-1.2773 3.625-3.875 6.6367-7.2734 8.4297-3.3984 1.7969-7.3477 2.25-11.062 1.2656-4.1094-1.0977-7.5781-3.8594-9.5664-7.6172-1.9883-3.7617-2.3203-8.1836-0.91016-12.195zm1.0117 243.28v-0.003907c-7.4922-19.57-13.902-39.539-19.195-59.816 21.18-70.945 49.125-118.67 71.926-148.74-4.3047 8.9727-8.3477 18.066-12.137 27.273-16.992 41.262-36.707 104.38-40.594 181.29zm71.211-182c4.4102-0.49219 8.8398-0.73047 13.277-0.71875 15.316 0 23.004 2.625 24.27 3.832 23.34 28.547 24.754 80.293 21.254 121.28-7.2188-41.988-23.238-94.902-58.801-124.39zm37.336 97.926c-0.074219 0.41406-0.12891 0.83984-0.12891 1.2773 0 5.4023-9.7891 11.453-22.887 11.453-11.176 0-18.738-4.4258-19.035-11.047 5.7734-18.711 13.199-37.031 22.742-52.594 8.5508 15.812 14.777 33.539 19.309 50.914zm7.6367 49.023c0 5.4023-8.9766 11.453-21 11.453-12.023 0-21-6.0469-21-11.453 0-4.2188-3.457-7.6328-7.6719-7.6328-4.2188 0-7.6328 3.4141-7.6328 7.6328 0 2.5742-1.9727 5.1758-5.1641 7.2461 1.9219-11.199 4.3633-23.246 7.4375-35.477 5.6094 4.3281 13.652 7.2031 24.371 7.2031 10.949 0 20.652-3.0898 27.551-8.0977 1.7578 8.9023 3.1133 17.461 4.1484 25.328-0.63672 1.125-1.043 2.4062-1.043 3.7969zm297.64 0.34766h0.003906c-1.5508-8.1953-3.2148-16.367-4.9961-24.516 1.7031-0.68359 3.2578-1.4609 4.6797-2.3281 0.33203 9.1055 0.4375 18.059 0.3125 26.848zm-1.2422-44.734c-1.3984 1.9648-3.9375 3.8125-7.168 5.2422-9.3555-39.359-21.391-78.031-36.023-115.75 8.8281-6.2734 15.801-14.812 20.184-24.719 12.414 46.406 20.113 92.223 23.012 135.22zm-110.27-345.49c3.3477-2.2812 7.4609-3.1445 11.441-2.3945 3.9844 0.75 7.5039 3.0508 9.7891 6.3945 27.234 39.871 51.625 89.398 70.539 143.23 1.6328 4.6719 0.90625 9.8477-1.957 13.891-2.8594 4.0391-7.5039 6.4414-12.453 6.4492-3.1641-0.003906-6.2461-0.98828-8.8281-2.8164-2.5781-1.832-4.5312-4.4141-5.582-7.3984-18.043-51.348-41.188-98.422-66.949-136.13h0.003906c-2.2812-3.3477-3.1406-7.4609-2.3906-11.441 0.75-3.9766 3.0469-7.4961 6.3867-9.7852zm15.383 243.55c5.4805 1.6289 11.219 2.4922 17.035 2.4922 1.0859 0 2.1797-0.039062 3.2656-0.10156 6.5625 27.141 11.969 54.543 16.203 82.141-9.5117-29.25-21.73-57.551-36.504-84.531zm-1.3789-118.94h0.003906c-2.1562-3.2812-6.4492-4.3984-9.9258-2.582-3.4805 1.8164-5.0195 5.9766-3.5586 9.6211 0.3125 0.76172 15.992 39.34 31.375 99.109-12.484-0.15234-24.34-5.5078-32.711-14.773-16.207-25.676-28.758-40.258-29.496-41.109h0.003906c-2.6367-3.0859-7.2227-3.5742-10.445-1.1094-3.2227 2.4648-3.9531 7.0234-1.6641 10.371 0.26953 0.40234 9.4453 14.332 20.629 38.387h0.003907c-19.105 10.879-42.5 11.004-61.715 0.32422-2.8633-1.5938-6.4297-1.1797-8.8516 1.0273-4.8711 4.4414-11.227 6.8984-17.82 6.8945-7.0156-0.007813-13.746-2.8008-18.707-7.7617-4.9648-4.9609-7.7539-11.688-7.7656-18.707-0.007813-5.2188 1.5312-10.32 4.4219-14.668 2.8906-4.3438 7.0039-7.7344 11.82-9.7461 3.0195-1.2656 4.8945-4.3164 4.6641-7.582-0.125-1.7539-0.18359-3.1914-0.18359-4.543 0-34.742 28.27-63.004 63.012-63.004 10.504 0 20.898 2.6328 30.062 7.6172l-0.003907-0.003906c2.1133 1.1484 4.6445 1.2344 6.832 0.23437 2.1836-1 3.7734-2.9727 4.2852-5.3242 1.3086-5.8906 4.582-11.164 9.2812-14.949s10.551-5.8594 16.586-5.8828c1.1328 0 1.5 0.042969 2.4375 0.26953 11.805 23.527 22.59 48.984 31.965 75.68h-0.003906c2.0859 5.9062 5.9336 11.035 11.023 14.684 5.0938 3.6484 11.184 5.6484 17.449 5.7227 0.10547 0.95703 0.15234 1.9648 0.15234 3.2188h-0.003906c-0.03125 13.199-5.8672 25.711-15.957 34.215-24.527-59.926-46.754-94.953-47.191-95.633z"/>
  <path d="m135.03 155.8c4.1406 0.77734 8.1289-1.9453 8.9141-6.0859 5.2344-27.836 12.086-53.91 20.355-77.492 1.168-3.9102-0.94531-8.0469-4.793-9.3945-3.8477-1.3516-8.082 0.55859-9.6133 4.3359-8.5273 24.309-15.578 51.133-20.957 79.723-0.77734 4.1445 1.9492 8.1328 6.0938 8.9141zm75.957 35.402c1.8242 0.87891 3.9258 0.99609 5.8359 0.32812 1.9102-0.67188 3.4766-2.0742 4.3516-3.8984 12.266-25.543 25.625-48.949 39.723-69.586 2.375-3.4844 1.4805-8.2344-2-10.613-3.4844-2.3789-8.2344-1.4844-10.613 2-14.527 21.27-28.281 45.355-40.879 71.586-1.8242 3.8008-0.21875 8.3594 3.582 10.184zm280.84-116.14c-2.3789-3.4844-7.1289-4.3789-10.609-2-3.4844 2.3789-4.3789 7.1289-2 10.609 14.094 20.641 27.461 44.051 39.723 69.586h-0.003906c1.8281 3.8008 6.3906 5.4023 10.191 3.5781 3.8008-1.8281 5.4023-6.3906 3.5742-10.191-12.59-26.227-26.344-50.309-40.875-71.586zm-2.5508 86.562c-4.293 0.015625-8.4531 1.4883-11.797 4.1797-3.3438 2.6914-5.6758 6.4414-6.6055 10.633-0.89453 4.1211 1.7227 8.1836 5.8477 9.0781 4.1211 0.89062 8.1836-1.7266 9.0742-5.8477 0.38281-1.6172 1.8203-2.7617 3.4805-2.7812 2.0586 0.054688 4.0508-0.72266 5.5273-2.1602 1.4766-1.4375 2.3125-3.4102 2.3125-5.4727 0-2.0586-0.83594-4.0312-2.3125-5.4688-1.4766-1.4375-3.4688-2.2148-5.5273-2.1602zm-67.035 18.309c-30.535 0-55.379 24.836-55.379 55.367h0.003906c0 4.2148 3.4141 7.6328 7.6328 7.6328 4.2148 0 7.6328-3.418 7.6328-7.6328 0-22.113 17.992-40.102 40.105-40.102 4.2148 0 7.6328-3.418 7.6367-7.6328 0-4.2148-3.4141-7.6328-7.6328-7.6328z"/>
  <use x="70" y="644" xlink:href="#v"/>
  <use x="90.550781" y="644" xlink:href="#a"/>
  <use x="104.359375" y="644" xlink:href="#c"/>
  <use x="123.347656" y="644" xlink:href="#m"/>
  <use x="142.242188" y="644" xlink:href="#b"/>
  <use x="155.628906" y="644" xlink:href="#c"/>
  <use x="174.617188" y="644" xlink:href="#l"/>
  <use x="204.410156" y="644" xlink:href="#k"/>
  <use x="224.453125" y="644" xlink:href="#e"/>
  <use x="252.453125" y="644" xlink:href="#j"/>
  <use x="274.121094" y="644" xlink:href="#u"/>
  <use x="283.71875" y="644" xlink:href="#t"/>
  <use x="302.339844" y="644" xlink:href="#b"/>
  <use x="315.726562" y="644" xlink:href="#d"/>
  <use x="334.960938" y="644" xlink:href="#a"/>
  <use x="358.515625" y="644" xlink:href="#s"/>
  <use x="377.617188" y="644" xlink:href="#i"/>
  <use x="397.550781" y="644" xlink:href="#a"/>
  <use x="411.359375" y="644" xlink:href="#h"/>
  <use x="427.957031" y="644" xlink:href="#g"/>
  <use x="447.890625" y="644" xlink:href="#e"/>
  <use x="466.140625" y="644" xlink:href="#f"/>
  <use x="70" y="672" xlink:href="#r"/>
  <use x="82.183594" y="672" xlink:href="#a"/>
  <use x="95.992188" y="672" xlink:href="#d"/>
  <use x="115.226562" y="672" xlink:href="#q"/>
  <use x="154.152344" y="672" xlink:href="#b"/>
  <use x="167.535156" y="672" xlink:href="#g"/>
  <use x="187.46875" y="672" xlink:href="#c"/>
  <use x="216.207031" y="672" xlink:href="#p"/>
  <use x="239.640625" y="672" xlink:href="#d"/>
  <use x="258.878906" y="672" xlink:href="#i"/>
  <use x="278.8125" y="672" xlink:href="#f"/>
  <use x="308.492188" y="672" xlink:href="#o"/>
  <use x="329.015625" y="672" xlink:href="#a"/>
  <use x="342.820312" y="672" xlink:href="#d"/>
  <use x="362.058594" y="672" xlink:href="#n"/>
  <use x="371.65625" y="672" xlink:href="#c"/>
  <use x="390.648438" y="672" xlink:href="#h"/>
  <use x="407.242188" y="672" xlink:href="#b"/>
 </g>
</svg>
