<?xml version="1.0" encoding="UTF-8"?>
<svg version="1.1" viewBox="0 0 700 700" xmlns="http://www.w3.org/2000/svg" xmlns:xlink="http://www.w3.org/1999/xlink">
 
 <g>
  <path d="m577.05 273.48c-2.5078-9.375-5.2148-18.695-8.1172-27.957 11.664-7.4609 17.16-22.211 12.375-35.824-19.348-55.07-44.363-105.83-72.336-146.78-3.8711-5.6641-9.5352-9.8594-16.086-11.914-6.5469-2.0508-13.594-1.8398-20.008 0.60547-0.53906-0.57031-1.0625-1.1133-1.5625-1.6172l0.003906-0.003906c-1.1328-1.125-2.2188-2.2969-3.25-3.5156-2.7266-3.0977-7.4219-3.4688-10.602-0.83594-3.1797 2.6289-3.6953 7.3086-1.1641 10.57 1.4688 1.7695 2.8164 3.1602 4.0156 4.3789-8.5234 10.219-9.6641 25.25-1.7969 36.773 9.1406 13.473 17.582 27.406 25.289 41.75-14.055 1.918-26.199 10.785-32.301 23.59-9.3086-3.7383-19.246-5.6641-29.277-5.6641-43.164 0-78.281 35.113-78.281 78.27v0.46875c-12.848 7.4648-20.742 21.207-20.723 36.066 0 23.012 18.727 41.738 41.742 41.738v-0.003907c8.5312 0.007813 16.859-2.6016 23.859-7.4805 22.555 10.645 48.832 9.8945 70.742-2.0195 12.402 29.328 25.652 69.41 31.496 116.22-6.9727-1.6133-11.285-5.4883-11.285-10.629 0-4.2188-3.457-7.6328-7.6719-7.6328-4.2188 0-7.6328 3.4141-7.6328 7.6328 0 5.4023-9.7891 11.453-22.887 11.453s-22.883-6.0469-22.883-11.453c0-4.2188-3.457-7.6328-7.6719-7.6328-4.2188 0-7.6328 3.4141-7.6328 7.6328 0 5.4023-9.7891 11.453-22.883 11.453-13.098 0-22.887-6.0469-22.887-11.453 0-4.2188-3.457-7.6328-7.6719-7.6328-4.2188 0-7.6328 3.4141-7.6328 7.6328 0 5.4023-9.7891 11.453-22.883 11.453-0.09375 0-0.18359 0.023438-0.28125 0.027344 1.9766-40.863-2.1094-88.312-25.754-117.23-6.3789-7.8008-23.145-9.4375-36.094-9.4375-8.8438 0-15.449 0.60547-20.422 1.5352 16.723-36.031 31.32-56.426 31.668-56.902l0.003906-0.003907c2.1914-2.9922 1.9141-7.125-0.66016-9.7969-2.5703-2.6758-6.6914-3.1094-9.7656-1.0391-2.5703 1.7305-51.945 35.895-93.953 131.02 3.3828-14.125 7.3906-29.457 12.219-47.441 2.5039-9.3203 4.9453-17.723 7.8789-27.137 6.6445 0.41406 13.242-1.3477 18.793-5.0234 5.5469-3.6758 9.7461-9.0625 11.957-15.34 17.605-50.109 40.137-95.957 65.152-132.58 3.7383-5.4922 5.582-12.055 5.2578-18.691-0.32422-6.6328-2.8008-12.984-7.0547-18.086 1.1992-1.2227 2.5469-2.6055 4.0156-4.3789h-0.003906c2.6914-3.2461 2.2383-8.0586-1.0078-10.75-3.25-2.6875-8.0625-2.2344-10.75 1.0117-1.0312 1.2148-2.1133 2.3867-3.2422 3.5117-0.5 0.50781-1.0234 1.0547-1.5625 1.625-6.4141-2.4414-13.461-2.6523-20.012-0.60156-6.5469 2.0508-12.215 6.2461-16.086 11.914-27.977 40.965-52.992 91.719-72.336 146.78-4.7812 13.613 0.71094 28.363 12.375 35.824v-0.003907c-2.9023 9.2617-5.6094 18.582-8.1172 27.957-8.2539 30.727-14.152 53.828-18.598 76.273-6.0391-34.414-9.0742-69.285-9.0742-104.22 0-9.6992 0.17188-18.266 0.58203-28.258 13.109-2.6602 23.387-13.832 24.434-27.609 4.0391-52.961 13.926-103.07 28.609-144.92 4.6211-13.164-0.37109-27.391-11.258-35.055 0.83984-1.4883 1.7852-3.1758 2.7422-5.2695h0.003906c1.7578-3.8359 0.074219-8.3672-3.7578-10.125-3.8359-1.7539-8.3672-0.070312-10.125 3.7617-0.71094 1.5586-1.4453 2.8555-2.2227 4.2344-0.35156 0.62109-0.72266 1.2891-1.0977 1.9805-1.0312-0.10938-2.0703-0.17188-3.1055-0.17578-6.3281 0.003906-12.5 1.9727-17.664 5.6328-5.1602 3.6602-9.0625 8.832-11.16 14.801-16.418 46.805-27.445 102.3-31.875 160.5-1.0977 14.387 8.0234 27.211 21.223 31.398-0.40625 9.6992-0.60938 19.402-0.60547 29.109 0 18.355 0.81641 36.02 2.2734 52.93-15.258 46.332-22.992 110.66-22.992 191.23 0 4.2148 3.418 7.6328 7.6328 7.6328 4.2148 0 7.6328-3.418 7.6328-7.6328 0-67.895 5.7578-116.27 12.672-149.89 2.6992 17.527 6.1562 34.934 10.355 52.164-3.1758 25.676-5.3438 55.406-7.5586 97.461-0.22266 4.2109 3.0078 7.8047 7.2188 8.0273 4.2109 0.22266 7.8047-3.0078 8.0273-7.2188 1.1797-22.398 2.3477-41.242 3.6641-57.832 8.0742 25.289 16.488 45.77 23.289 60.613 1.2891 2.8008 4.0547 4.4531 6.9453 4.4531 0.10547 0 0.21875-0.027344 0.32422-0.035156 0.50781 0.10547 1.0352 0.16797 1.5742 0.16797h0.074218-0.003906c4.2188-0.039062 7.6055-3.4883 7.5664-7.7031-0.80078-85.566 19.629-157.06 40.188-207.08 9.9531 6.7422 18.406 15.617 25.582 25.832-43.551 63.973-48.652 176.04-48.848 180.86h-0.003907c-0.17188 4.2148 3.1016 7.7734 7.3125 7.9492l0.32031 0.003906c4.0703 0 7.4531-3.2148 7.6211-7.3203 0.015624-0.44141 0.80078-17.711 4.1992-42.191 6.293-1.7422 11.621-4.6523 15.566-8.3828 6.5859 6.2148 16.879 10.148 28.645 10.148 9.543 0 18.082-2.6133 24.496-6.9102 0.90625 11.945 0.96875 19.5 0.96875 19.812-0.007813 3.8789 2.8945 7.1484 6.75 7.5977 3.8516 0.44922 7.4297-2.0625 8.3164-5.8398 0.26172-1.1016 1.6758-7.125 3.3984-16.508 4.1289 1.1758 8.6172 1.8438 13.379 1.8438 11.77 0 22.062-3.9297 28.648-10.148 6.5859 6.2148 16.879 10.148 28.648 10.148 20.031 0 35.785-11.387 36.262-26.039v-0.003906c0.21094-2.0898-0.44922-4.1797-1.8242-5.7695s-3.3477-2.5469-5.4492-2.6406c-2.0977-0.089844-4.1484 0.68359-5.6562 2.1484-1.5117 1.4609-2.3555 3.4844-2.332 5.5859 0 5.4023-8.9766 11.453-21 11.453-12.023 0-21-6.0469-21-11.453 0-4.2188-3.457-7.6328-7.6719-7.6328-4.2188 0-7.6328 3.4141-7.6328 7.6328 0 5.4023-8.9766 11.453-21 11.453-4.0312 0-7.707-0.6875-10.824-1.7969 1.3672-9.0273 2.6953-19.5 3.6562-30.805 0.42188 0.074219 0.85156 0.12891 1.2891 0.12891 12.621 0 23.633-4.0898 30.535-10.512 6.9062 6.4297 17.914 10.512 30.543 10.512 12.621 0 23.633-4.0898 30.543-10.512 6.9062 6.4297 17.914 10.512 30.535 10.512 12.207 0 22.91-3.8203 29.848-9.8906 4.6328 4.8203 11.688 8.4219 21.293 9.5078 0.90234 10.613 1.3984 21.527 1.4062 32.699-10.434-0.92578-17.914-6.3711-17.914-11.301 0-4.2188-3.457-7.6328-7.6719-7.6328-2.1367-0.003906-4.1758 0.89453-5.6172 2.4727-1.4453 1.5742-2.1602 3.6836-1.9727 5.8125 0.42969 13.828 14.469 24.742 32.867 25.945-0.26953 6.7891-0.72656 13.566-1.3672 20.328-2.9805 6.3242-11.117 12.27-22.328 12.27-12.02 0-21-6.0469-21-11.453 0-4.2188-3.457-7.6328-7.6719-7.6328-4.2188 0-7.6328 3.4141-7.6328 7.6328 0 5.4023-8.9766 11.453-21 11.453s-21-6.0469-21-11.453c0-4.2188-3.457-7.6328-7.6719-7.6328-4.2188 0-7.6328 3.4141-7.6328 7.6328 0 5.4023-8.9766 11.453-21 11.453-12.023 0-21-6.0469-21-11.453 0-4.2188-3.457-7.6328-7.6719-7.6328-4.2188 0-7.6328 3.4141-7.6328 7.6328 0 5.4023-8.9766 11.453-21 11.453s-21-6.0469-21-11.453c0-4.2188-3.457-7.6328-7.6719-7.6328h0.003906c-2.1406 0-4.1797 0.89844-5.6211 2.4766-1.4453 1.5781-2.1602 3.6875-1.9688 5.8203 0.46484 14.668 16.223 26.059 36.262 26.059 11.77 0 22.062-3.9297 28.648-10.152 6.5859 6.2148 16.879 10.152 28.648 10.152 11.77 0 22.062-3.9297 28.648-10.148 6.5859 6.2148 16.879 10.148 28.648 10.148s22.062-3.9297 28.648-10.148c6.5859 6.2148 16.879 10.148 28.648 10.148l0.003906-0.003906c7.1367 0.011719 14.164-1.7266 20.469-5.0664 1.0703 3.0391 3.9414 5.0703 7.1641 5.0664 3.7227 0 6.9844-2.7344 7.543-6.5234 0.86328-5.8516 1.5625-11.648 2.1406-17.395h-0.003907c0.27734-0.77734 0.51953-1.5703 0.73047-2.3672 0.33594-1.3555 0.28906-2.7734-0.12891-4.1055 5.0391-60.484-4.8477-114.53-16.852-154.97 21.805 46.73 41.535 108.11 41.996 177.78 0.027344 4.1992 3.4375 7.582 7.6328 7.582h0.050781c0.58203-0.003906 1.1406-0.085937 1.6914-0.21094 0.53906 0.12891 1.0977 0.20703 1.6758 0.21094h0.074218c4.1836 0 7.5938-3.3711 7.6328-7.5664 0.83594-89.453-15.449-174-31.562-235.25 23.637 56.805 50.031 137.9 60.66 234.36 0.003906 0.4375 0.066406 0.85547 0.14453 1.2773l0.027344 0.22266 0.011719 0.054688 0.015625 0.089843-0.003906 0.003907c0.62109 4.0664 4.3477 6.9141 8.4336 6.4375 4.0859-0.47656 7.0586-4.1055 6.7227-8.207 11.777-70.727 4.9297-159.38-19.312-249.81zm-463.73-52.891c4.3359-56.887 15.074-111.04 31.059-156.61 1.3438-3.8203 4.1484-6.9492 7.7969-8.7031 3.6484-1.7578 7.8438-1.9922 11.668-0.65625 3.8164 1.3438 6.9453 4.1484 8.7031 7.7969 1.7539 3.6484 1.9883 7.8438 0.65234 11.664-15.113 43.094-25.297 94.551-29.43 148.81-0.63281 8.3047-8.0547 14.684-16.387 14.066l0.003906 0.003906c-4.0352-0.3125-7.7852-2.2109-10.422-5.2812-2.6367-3.0703-3.9492-7.0625-3.6445-11.098zm58.492 28.582c18.91-53.828 43.305-103.36 70.539-143.23l-0.003906-0.003906c2.2891-3.3398 5.8086-5.6406 9.7852-6.3906 3.9805-0.74609 8.0938 0.11328 11.441 2.3945 3.3398 2.2852 5.6367 5.8047 6.3867 9.7812s-0.10938 8.0898-2.3906 11.438c-25.754 37.711-48.906 84.785-66.949 136.13h0.003906c-1.2773 3.625-3.875 6.6367-7.2734 8.4297-3.3984 1.7969-7.3477 2.25-11.062 1.2656-4.1094-1.0977-7.5781-3.8594-9.5664-7.6172-1.9883-3.7617-2.3203-8.1836-0.91016-12.195zm1.0117 243.28v-0.003907c-7.4922-19.57-13.902-39.539-19.195-59.816 21.18-70.945 49.125-118.67 71.926-148.74-4.3047 8.9727-8.3477 18.066-12.137 27.273-16.992 41.262-36.707 104.38-40.594 181.29zm71.211-182c4.4102-0.49219 8.8398-0.73047 13.277-0.71875 15.316 0 23.004 2.625 24.27 3.832 23.34 28.547 24.754 80.293 21.254 121.28-7.2188-41.988-23.238-94.902-58.801-124.39zm37.336 97.926c-0.074219 0.41406-0.12891 0.83984-0.12891 1.2773 0 5.4023-9.7891 11.453-22.887 11.453-11.176 0-18.738-4.4258-19.035-11.047 5.7734-18.711 13.199-37.031 22.742-52.594 8.5508 15.812 14.777 33.539 19.309 50.914zm7.6367 49.023c0 5.4023-8.9766 11.453-21 11.453-12.023 0-21-6.0469-21-11.453 0-4.2188-3.457-7.6328-7.6719-7.6328-4.2188 0-7.6328 3.4141-7.6328 7.6328 0 2.5742-1.9727 5.1758-5.1641 7.2461 1.9219-11.199 4.3633-23.246 7.4375-35.477 5.6094 4.3281 13.652 7.2031 24.371 7.2031 10.949 0 20.652-3.0898 27.551-8.0977 1.7578 8.9023 3.1133 17.461 4.1484 25.328-0.63672 1.125-1.043 2.4062-1.043 3.7969zm297.64 0.34766h0.003906c-1.5508-8.1953-3.2148-16.367-4.9961-24.516 1.7031-0.68359 3.2578-1.4609 4.6797-2.3281 0.33203 9.1055 0.4375 18.059 0.3125 26.848zm-1.2422-44.734c-1.3984 1.9648-3.9375 3.8125-7.168 5.2422-9.3555-39.359-21.391-78.031-36.023-115.75 8.8281-6.2734 15.801-14.812 20.184-24.719 12.414 46.406 20.113 92.223 23.012 135.22zm-110.27-345.49c3.3477-2.2812 7.4609-3.1445 11.441-2.3945 3.9844 0.75 7.5039 3.0508 9.7891 6.3945 27.234 39.871 51.625 89.398 70.539 143.23 1.6328 4.6719 0.90625 9.8477-1.957 13.891-2.8594 4.0391-7.5039 6.4414-12.453 6.4492-3.1641-0.003906-6.2461-0.98828-8.8281-2.8164-2.5781-1.832-4.5312-4.4141-5.582-7.3984-18.043-51.348-41.188-98.422-66.949-136.13h0.003906c-2.2812-3.3477-3.1406-7.4609-2.3906-11.441 0.75-3.9766 3.0469-7.4961 6.3867-9.7852zm15.383 243.55c5.4805 1.6289 11.219 2.4922 17.035 2.4922 1.0859 0 2.1797-0.039062 3.2656-0.10156 6.5625 27.141 11.969 54.543 16.203 82.141-9.5117-29.25-21.73-57.551-36.504-84.531zm-1.3789-118.94h0.003906c-2.1562-3.2812-6.4492-4.3984-9.9258-2.582-3.4805 1.8164-5.0195 5.9766-3.5586 9.6211 0.3125 0.76172 15.992 39.34 31.375 99.109-12.484-0.15234-24.34-5.5078-32.711-14.773-16.207-25.676-28.758-40.258-29.496-41.109h0.003906c-2.6367-3.0859-7.2227-3.5742-10.445-1.1094-3.2227 2.4648-3.9531 7.0234-1.6641 10.371 0.26953 0.40234 9.4453 14.332 20.629 38.387h0.003907c-19.105 10.879-42.5 11.004-61.715 0.32422-2.8633-1.5938-6.4297-1.1797-8.8516 1.0273-4.8711 4.4414-11.227 6.8984-17.82 6.8945-7.0156-0.007813-13.746-2.8008-18.707-7.7617-4.9648-4.9609-7.7539-11.688-7.7656-18.707-0.007813-5.2188 1.5312-10.32 4.4219-14.668 2.8906-4.3438 7.0039-7.7344 11.82-9.7461 3.0195-1.2656 4.8945-4.3164 4.6641-7.582-0.125-1.7539-0.18359-3.1914-0.18359-4.543 0-34.742 28.27-63.004 63.012-63.004 10.504 0 20.898 2.6328 30.062 7.6172l-0.003907-0.003906c2.1133 1.1484 4.6445 1.2344 6.832 0.23437 2.1836-1 3.7734-2.9727 4.2852-5.3242 1.3086-5.8906 4.582-11.164 9.2812-14.949s10.551-5.8594 16.586-5.8828c1.1328 0 1.5 0.042969 2.4375 0.26953 11.805 23.527 22.59 48.984 31.965 75.68h-0.003906c2.0859 5.9062 5.9336 11.035 11.023 14.684 5.0938 3.6484 11.184 5.6484 17.449 5.7227 0.10547 0.95703 0.15234 1.9648 0.15234 3.2188h-0.003906c-0.03125 13.199-5.8672 25.711-15.957 34.215-24.527-59.926-46.754-94.953-47.191-95.633z"/>
  <path d="m135.03 155.8c4.1406 0.77734 8.1289-1.9453 8.9141-6.0859 5.2344-27.836 12.086-53.91 20.355-77.492 1.168-3.9102-0.94531-8.0469-4.793-9.3945-3.8477-1.3516-8.082 0.55859-9.6133 4.3359-8.5273 24.309-15.578 51.133-20.957 79.723-0.77734 4.1445 1.9492 8.1328 6.0938 8.9141zm75.957 35.402c1.8242 0.87891 3.9258 0.99609 5.8359 0.32812 1.9102-0.67188 3.4766-2.0742 4.3516-3.8984 12.266-25.543 25.625-48.949 39.723-69.586 2.375-3.4844 1.4805-8.2344-2-10.613-3.4844-2.3789-8.2344-1.4844-10.613 2-14.527 21.27-28.281 45.355-40.879 71.586-1.8242 3.8008-0.21875 8.3594 3.582 10.184zm280.84-116.14c-2.3789-3.4844-7.1289-4.3789-10.609-2-3.4844 2.3789-4.3789 7.1289-2 10.609 14.094 20.641 27.461 44.051 39.723 69.586h-0.003906c1.8281 3.8008 6.3906 5.4023 10.191 3.5781 3.8008-1.8281 5.4023-6.3906 3.5742-10.191-12.59-26.227-26.344-50.309-40.875-71.586zm-2.5508 86.562c-4.293 0.015625-8.4531 1.4883-11.797 4.1797-3.3438 2.6914-5.6758 6.4414-6.6055 10.633-0.89453 4.1211 1.7227 8.1836 5.8477 9.0781 4.1211 0.89062 8.1836-1.7266 9.0742-5.8477 0.38281-1.6172 1.8203-2.7617 3.4805-2.7812 2.0586 0.054688 4.0508-0.72266 5.5273-2.1602 1.4766-1.4375 2.3125-3.4102 2.3125-5.4727 0-2.0586-0.83594-4.0312-2.3125-5.4688-1.4766-1.4375-3.4688-2.2148-5.5273-2.1602zm-67.035 18.309c-30.535 0-55.379 24.836-55.379 55.367h0.003906c0 4.2148 3.4141 7.6328 7.6328 7.6328 4.2148 0 7.6328-3.418 7.6328-7.6328 0-22.113 17.992-40.102 40.105-40.102 4.2148 0 7.6328-3.418 7.6367-7.6328 0-4.2148-3.4141-7.6328-7.6328-7.6328z"/>

 </g>
</svg>
