<?xml version="1.0" encoding="UTF-8"?>
<svg version="1.1" viewBox="0 0 700 700" xmlns="http://www.w3.org/2000/svg" xmlns:xlink="http://www.w3.org/1999/xlink">

 <g>
  <path d="m487.2 120.27h-274.4c-4.6367 0-8.3984 3.7578-8.3984 8.3984v302.66c0 4.6367 3.7617 8.3984 8.3984 8.3984h274.4c4.6367 0 8.3984-3.7617 8.3984-8.3984l0.003906-302.66c0-4.6445-3.7656-8.4023-8.4023-8.4023zm-8.3984 302.66h-257.6v-285.86h257.6z"/>
  <path d="m350 372.4c50.949 0 92.398-41.453 92.398-92.398 0-50.949-41.453-92.398-92.398-92.398-50.949 0-92.398 41.449-92.398 92.398s41.449 92.398 92.398 92.398zm0-168c41.68 0 75.602 33.914 75.602 75.602 0 41.68-33.918 75.602-75.602 75.602-41.68 0-75.602-33.922-75.602-75.602 0-41.688 33.922-75.602 75.602-75.602z"/>
  <path d="m397.6 288.81c4.6367 0 8.3984-3.7617 8.3984-8.3984 0-4.6406-3.7617-8.3984-8.3984-8.3984h-95.199c-4.6367 0-8.3984 3.7578-8.3984 8.3984 0 4.6367 3.7617 8.3984 8.3984 8.3984z"/>
  <path d="m318.8 250.98h62.41c4.6367 0 8.3984-3.7578 8.3984-8.3984s-3.7617-8.3984-8.3984-8.3984l-62.41-0.003906c-4.6367 0-8.3984 3.7578-8.3984 8.3984 0 4.6445 3.7617 8.4023 8.3984 8.4023z"/>
  <path d="m381.2 309.02h-62.406c-4.6367 0-8.3984 3.7617-8.3984 8.3984s3.7617 8.3984 8.3984 8.3984h62.41c4.6367 0 8.3984-3.7617 8.3984-8.3984 0.003906-4.6367-3.7656-8.3984-8.4023-8.3984z"/>
  <path d="m454.53 167.48c0 4.125-3.3438 7.4648-7.4648 7.4648-4.125 0-7.4648-3.3398-7.4648-7.4648 0-4.1211 3.3398-7.4648 7.4648-7.4648 4.1211 0 7.4648 3.3438 7.4648 7.4648"/>

 </g>
</svg>
