<?xml version="1.0" encoding="UTF-8"?>
<svg version="1.1" viewBox="0 0 700 700" xmlns="http://www.w3.org/2000/svg" xmlns:xlink="http://www.w3.org/1999/xlink">

 <g>
  <path d="m547.5 468.2c-0.55469-0.30078-1.0234-0.80469-1.5586-1.1484 48.688-49.594 78.82-117.46 78.82-192.28 0.007812-151.51-123.25-274.77-274.76-274.77s-274.77 123.26-274.77 274.77c0 99.004 52.758 185.76 131.52 234.11-1.5 2.9336-1.7539 6.3711-0.48047 9.4805 1.5078 3.668 4.7891 6.2812 8.6875 6.9336l22.203 3.7031-6.1445 15.367c-1.4062 3.5117-0.97266 7.5 1.1484 10.629 2.1211 3.1289 5.6602 5.0117 9.4453 5.0117l355.59-0.003906c4.1758 0 8.0234-2.2852 10.02-5.9453 2.0039-3.668 1.8359-8.1328-0.4375-11.641-9.7852-15.172-42.965-65.336-59.289-74.215zm-449.45-193.43c0-138.93 113.02-251.96 251.96-251.96 138.93 0 251.95 113.02 251.95 251.96 0 68.738-27.719 131.08-72.508 176.58-7.7578-7.7773-18.598-17.148-37.219-26.945-17.914-9.4258-26.797-25.637-31.062-37.289 14.039-2.8516 29.566-12.191 39.844-19.297 3.1641-2.1836 5.0117-5.8086 4.9219-9.6484-0.089844-3.832-2.1055-7.375-5.3711-9.4141-10.215-6.3828-25.961-37.246-33.395-57.082-2.0156-5.3477-21.281-53.004-78.551-76.871-34.789-14.492-84.98-81.496-101.38-106.09-2.0039-3.0078-5.3242-4.8906-8.9375-5.0625-3.7852-0.28125-7.1016 1.3672-9.3867 4.168l-34.227 41.832c-1.0859 1.3281-1.8594 2.8789-2.2617 4.5547l-7.2109 29.883c-8.7656-8.6875-22.035-11.523-33.879-6.6484-15.086 6.2031-22.809 22.637-17.969 38.203l11.492 36.926c10.574 46.828 25.918 92.176 32.238 110.08-1.0703 0.25781-2.3984 0.4375-4.0312 0.4375-15.41 0-23.469 18.184-23.469 36.141 0 19.746 9.9219 27.164 18.945 27.641 0.54297 2.3516 0.078126 8.043-3.0312 12.711-2.4883 3.7344-9.0898 13.625-4.3398 23.555 4.0938 8.5586 13.895 11.43 23.852 12.699-0.99219 3.3984-3.2539 8.332-6.2227 13.77-72.324-44.324-120.75-123.97-120.75-214.83zm160.42 262.41 5.1523-12.879c1.2812-3.207 1.043-6.8203-0.64844-9.8281-1.6914-3.0078-4.6641-5.0898-8.0703-5.6602l-18.848-3.1406c8.3789-14.062 15.527-30.871 10.586-41.758-2.6875-5.9375-8.3047-9.7031-15.391-10.348-3.0977-0.28125-5.3633-0.62109-7.0039-0.94531 0.085937-0.125 0.16406-0.24609 0.25391-0.37891 6.5195-9.7734 9.9453-25.582 3.8906-36.902-3.2773-6.1133-8.8359-10.008-15.562-11.008-1.1406-4.793 0.089844-14.738 2.3906-18.484 17.914-0.85547 24.719-12.41 25.457-13.77 1.5781-2.8828 1.8203-6.3281 0.67188-9.4141-0.20703-0.56641-21.254-57.637-34.461-115.99l-11.727-37.801c-1.3086-4.2109 0.77734-8.6562 4.8555-10.332 3.832-1.5898 8.2109-0.16797 10.406 3.3359l10.121 16.191c2.4297 3.8906 6.9102 5.9414 11.504 5.2188 4.5352-0.73828 8.1797-4.1211 9.2617-8.5898l12.695-52.613 5.6719-6.9336c4.8477-0.64453 10.832-0.5 13.172 1.3398 0.27344 0.21094 1.1016 0.85547 1.1016 3.7852 0 6.3008 5.1055 11.406 11.406 11.406s11.406-5.1055 11.406-11.406c0-0.085938-0.023438-0.14062-0.027344-0.21875 22.625 28.461 54.977 64.086 83.105 75.809 39.316 16.387 59.965 47.836 65.957 63.824 0.67578 1.8047 13.715 36.266 30.273 56.746-10.02 5.5156-19.746 9.3359-23.297 8.7812-1.0195-0.72656-2.1445-1.2148-3.3047-1.5742-0.09375-0.027343-0.16406-0.10547-0.25781-0.13281-6.3906-1.793-11.473-4.0781-15.344-6.707l-8.25-11.906c-0.44922-4.2617 1.0625-7.7734 1.2227-8.125 2.7031-5.6172 0.39062-12.375-5.2031-15.164-5.6719-2.8164-12.488-0.50391-15.301 5.1367-0.77734 1.5859-7.4648 15.875-0.49219 31.578 4.8984 11.008 15.277 19.176 30.289 24.668 3.2148 13.996 13.688 44.891 45.461 61.609 20.422 10.754 29.293 20.176 37.109 28.5 5.3828 5.7188 10.449 11.121 17.891 15.152 6.1484 3.3555 23.219 25.504 39.297 48.934l-317.42-0.019531z"/>
  <path d="m342.56 234.57c-5.4102-3.2422-12.41-1.5-15.652 3.9102-3.2422 5.4023-1.4961 12.41 3.9102 15.652 10.09 6.0547 20.586 15.715 21.195 19.027-0.88672 6.2383 3.457 12.02 9.6953 12.906 0.54297 0.078125 1.082 0.11328 1.6133 0.11328 5.5938 0 10.473-4.1094 11.285-9.8008 2.6797-18.773-21.52-35.492-32.047-41.809z"/>
 
 </g>
</svg>
