<?xml version="1.0" encoding="utf-8"?>
<svg viewBox="126.272 48.221 515.957 502.731" xmlns="http://www.w3.org/2000/svg">
  <g transform="matrix(1, 0, 0, 1, 48.252621, 20.355936)">
    <path d="m552.72 299.04-65.52-33.039v-26.879c0-3.9219-3.3594-6.7188-6.7188-6.7188h-21.84c-3.9219 0-6.7188 3.3594-6.7188 6.7188v8.3984l-21.84-11.199v-26.32c0-3.9219-3.3594-6.7188-6.7188-6.7188h-22.965c-3.9219 0-6.7188 3.3594-6.7188 6.7188v7.8398l-26.32-13.441v-115.36c0-18.48-11.199-35.281-28.559-42-1.6797-0.55859-3.3594-0.55859-5.0391 0-17.359 6.7188-28.559 23.52-28.559 42v115.36l-26.32 13.441v-7.8398c0-3.9219-3.3594-6.7188-6.7188-6.7188h-22.965c-3.9219 0-6.7188 3.3594-6.7188 6.7188v26.32l-21.84 11.199v-8.3984c0-3.9219-3.3594-6.7188-6.7188-6.7188h-21.84c-3.9219 0-6.7188 3.3594-6.7188 6.7188v26.879l-66.645 33.039c-2.2383 1.1211-3.9219 3.3594-3.9219 6.1602v33.039c0 2.2383 1.1211 4.4805 2.8008 5.6016 1.1211 1.1211 2.8008 1.6797 4.4805 1.6797h1.6797l180.88-45.922v88.48c0 6.1602 0 12.32 0.55859 18.48l-65.516 64.961c-1.1211 1.1211-2.2383 3.3594-2.2383 5.0391v28c0 2.2383 1.1211 4.4805 3.3594 6.1602 1.1211 0.55859 2.2383 1.1211 3.9219 1.1211 1.1211 0 2.2383 0 3.3594-0.55859l71.121-35.84c1.6797 3.9219 3.3594 7.2812 5.0391 10.078 1.1211 2.2383 3.3594 3.3594 6.1602 3.3594h11.199c2.2383 0 5.0391-1.1211 6.1602-3.3594 1.6797-2.8008 3.3594-6.7188 5.0391-10.078l71.121 35.84c1.1211 0.55859 2.2383 0.55859 3.3594 0.55859s2.8008-0.55859 3.9219-1.1211c2.2383-1.1211 3.3594-3.3594 3.3594-6.1602v-28c0-1.6797-0.55859-3.3594-2.2383-5.0391l-65.523-64.961c0.55859-6.1602 0.55859-12.32 0.55859-18.48v-89.039l180.88 45.922h1.6797c1.6797 0 2.8008-0.55859 4.4805-1.6797 1.6797-1.1211 2.8008-3.3594 2.8008-5.6016v-33.039c-0.55859-2.2422-2.2383-4.4805-4.4805-5.6016zm-145.04-81.758h7.8398v12.32l-7.8398-3.9219zm-151.76 0h7.8398v7.8398l-7.8398 3.9219zm209.44 36.957v-8.3984h7.8398v12.879l-4.4805-2.2383zm-267.12 4.4805v-12.879h7.8398v8.3984l-6.7188 3.3633zm-68.879 70.562v-20.16l65.52-33.039 21.84-11.199 87.922-44.801v64.398zm122.08 164.08v-13.441l54.879-54.879c0.55859 3.3594 1.1211 6.7188 1.1211 9.5195v0.55859c1.6797 9.5195 3.3594 19.039 6.1602 26.879zm85.68-18.48h-2.8008c-2.2422-4.4805-4.4805-10.078-6.1602-15.68 0-0.55859-0.55859-1.1211-0.55859-1.6797-0.55859-2.8008-1.6797-5.6016-2.2383-8.3984 0-0.55859-0.55859-1.1211-0.55859-1.6797-1.6797-6.7188-2.8008-14-3.9219-21.281-0.55859-3.9219-1.1211-7.8398-1.1211-11.762v-1.1211c-0.55859-7.8398-1.1211-16.238-1.1211-24.641v-299.6c0-11.762 6.7188-22.398 17.359-28 10.641 5.0391 17.359 15.68 17.359 28v299.04c0 8.3984-0.55859 16.801-1.1211 24.641v1.6797c-0.55859 3.9219-0.55859 7.2812-1.1211 11.199v0.55859c-0.55859 3.9219-1.1211 7.2812-1.6797 11.199-0.55859 3.3594-1.1211 6.7188-2.2383 10.078 0 0.55859-0.55859 1.1211-0.55859 2.2383-0.55859 2.8008-1.6797 5.6016-2.2383 8.3984 0 0.55859-0.55859 1.1211-0.55859 1.6797-2.2422 5.0469-4.4844 10.645-6.7227 15.125zm82.879 4.4805v13.441l-62.719-31.359c2.2383-8.3984 4.4805-17.359 6.1602-26.879v-0.55859c0.55859-3.3594 1.1211-6.1602 1.1211-9.5195zm122.64-150.08-175.28-44.801v-64.402l98.559 50.398 11.762 6.1602 65.52 33.039v19.605z"/>
  </g>
</svg>