<?xml version="1.0" encoding="utf-8"?>
<svg viewBox="75.229 59.165 527.32 381.299" xmlns="http://www.w3.org/2000/svg">
  <defs>
    <symbol id="w" overflow="visible">
      <path d="m0.03125 0h-0.015625-0.015625v-0.015625-0.015625h0.015625 0.015625-0.015625v0.015625 0.015625h0.015625v-0.015625z"/>
    </symbol>
    <symbol id="e" overflow="visible">
      <path d="m0.015625-0.015625v0.015625h-0.015625v-0.03125h0.015625v0.015625-0.015625z"/>
    </symbol>
    <symbol id="b" overflow="visible">
      <path d="m0.03125-0.015625h-0.015625v0.015625c0.0078125 0 0.015625-0.0039062 0.015625-0.015625v0.015625h-0.015625-0.015625v-0.015625l0.015625-0.015625v0.015625h0.015625z"/>
    </symbol>
    <symbol id="a" overflow="visible">
      <path d="m0.015625-0.015625v0.015625-0.015625zm0.015625 0v0.015625h-0.015625-0.015625v-0.015625h0.015625-0.015625v-0.015625h0.015625v0.015625h0.015625z"/>
    </symbol>
    <symbol id="d" overflow="visible">
      <path d="m0.015625-0.03125v0.015625 0.015625h-0.015625v-0.015625-0.015625z"/>
    </symbol>
    <symbol id="l" overflow="visible">
      <path d="m0.015625-0.015625v-0.015625h0.015625v0.03125h-0.015625-0.015625v-0.015625l0.015625-0.015625v0.015625zm0 0.015625v-0.015625 0.015625z"/>
    </symbol>
    <symbol id="k" overflow="visible">
      <path d="m0.015625 0v-0.015625 0.015625zm0-0.015625v-0.015625c0.0078125 0 0.015625 0.0078125 0.015625 0.015625v0.015625h-0.015625-0.015625v-0.03125h0.015625z"/>
    </symbol>
    <symbol id="j" overflow="visible">
      <path d="m0-0.03125h0.015625v0.015625-0.015625h0.015625l-0.015625 0.03125v0.015625h-0.015625v-0.015625h0.015625z"/>
    </symbol>
    <symbol id="i" overflow="visible">
      <path d="m0.015625-0.03125v0.015625 0.015625h0.015625v-0.015625c0-0.0078125-0.0078125-0.015625-0.015625-0.015625zm0 0h0.015625v0.015625 0.015625h-0.015625-0.015625v-0.015625-0.015625h0.015625z"/>
    </symbol>
    <symbol id="v" overflow="visible">
      <path d="m0-0.03125h0.015625v0.03125h-0.015625z"/>
    </symbol>
    <symbol id="f" overflow="visible">
      <path d="m0.03125-0.015625v0.015625h-0.015625v-0.015625 0.015625h-0.015625v-0.03125h0.015625v0.015625-0.015625c0.0078125 0 0.015625 0.0078125 0.015625 0.015625z"/>
    </symbol>
    <symbol id="h" overflow="visible">
      <path d="m0-0.03125h0.015625 0.015625v0.015625h-0.015625v0.015625h-0.015625zm0.015625 0v0.015625-0.015625z"/>
    </symbol>
    <symbol id="g" overflow="visible">
      <path d="m0.03125-0.03125v0.015625h-0.015625c0.0078125 0 0.015625 0.0078125 0.015625 0.015625h-0.015625-0.015625 0.015625v-0.015625h-0.015625l0.015625-0.015625h0.015625z"/>
    </symbol>
    <symbol id="c" overflow="visible">
      <path d="m0.015625-0.015625v0.015625-0.015625zm0-0.015625v0.015625h0.015625c0 0.011719-0.0078125 0.015625-0.015625 0.015625h-0.015625v-0.015625l0.015625-0.015625z"/>
    </symbol>
    <symbol id="u" overflow="visible">
      <path d="m0-0.03125h0.015625v0.015625-0.015625h0.015625l-0.015625 0.03125z"/>
    </symbol>
    <symbol id="t" overflow="visible">
      <path d="m0-0.03125h0.015625v0.015625-0.015625h0.015625l-0.015625 0.015625 0.015625 0.015625h-0.015625v-0.015625 0.015625h-0.015625z"/>
    </symbol>
    <symbol id="s" overflow="visible">
      <path d="m0.015625-0.03125v0.03125h-0.015625v-0.03125h0.015625z"/>
    </symbol>
    <symbol id="r" overflow="visible">
      <path d="m0.03125-0.015625v-0.015625c0.0078125 0 0.015625 0.0078125 0.015625 0.015625v0.015625h-0.015625v-0.015625 0.015625h-0.015625v-0.015625 0.015625h-0.015625v-0.03125h0.015625v0.015625-0.015625 0.015625h0.015625z"/>
    </symbol>
    <symbol id="q" overflow="visible">
      <path d="m0.03125-0.015625v0.015625h-0.015625v-0.015625 0.015625h-0.015625v-0.03125h0.015625v0.015625-0.015625c0.0078125 0 0.015625 0.0078125 0.015625 0.015625z"/>
    </symbol>
    <symbol id="p" overflow="visible">
      <path d="m0-0.03125h0.015625l0.015625 0.015625v-0.015625 0.03125l-0.015625-0.015625v0.015625h-0.015625z"/>
    </symbol>
    <symbol id="o" overflow="visible">
      <path d="m0-0.015625v-0.015625h0.015625v0.015625 0.015625-0.015625-0.015625h0.015625v0.03125h-0.015625-0.015625v-0.015625z"/>
    </symbol>
    <symbol id="n" overflow="visible">
      <path d="m0-0.03125h0.015625v0.03125h-0.015625v0.015625zm0 0h0.015625z"/>
    </symbol>
    <symbol id="m" overflow="visible">
      <path d="m0.03125-0.03125v0.015625h-0.015625v0.015625h0.015625-0.015625-0.015625v-0.015625l0.015625-0.015625h0.015625z"/>
    </symbol>
  </defs>
  <g transform="matrix(1, 0, 0, 1, -11.113884, -30.186819)">
    <path d="m416.07 291.35c-23.98-16.297-56.961-17.434-92.855-3.2188-37.949 15.023-88.77-15.09-89.277-15.398-2.3945-1.4414-5.4023-1.3984-7.75 0.11328-2.3516 1.5078-3.6445 4.2227-3.332 7 9.8945 87.738 57.371 140.85 130.25 145.72 2.1641 0.14453 4.3281 0.21484 6.5 0.21484 24.934 0 50.168-9.3906 67.125-25.254 13.781-12.891 21.062-29.012 21.062-46.617 0.007812-26.059-11.555-48.859-31.719-62.559zm0.63281 98.453c-15.328 14.344-39.922 22.613-62.617 21.109-36.586-2.4414-98.555-21.418-114.71-118.84 19.414 9.043 57.043 22.457 89.25 9.7031 31.234-12.371 59.363-11.758 79.195 1.7148 16.078 10.926 25.297 29.301 25.297 50.418 0 16.977-8.9258 28.891-16.414 35.895z"/>
    <path d="m571.96 204.01c1.4531-2.0117 1.793-4.6211 0.90234-6.9375-0.89453-2.3164-2.8945-4.0234-5.3242-4.5391l-72.52-15.438c-8.5-42.562-46.363-74.074-90.273-74.074-50.809 0-92.141 41.336-92.141 92.145 0 18.164 5.3359 35.684 15.242 50.648l-59.879-0.007812c-0.46094-0.09375-55.613 0.058594-131.12-31.773-2.6445-1.1094-5.6953-0.58203-7.8086 1.3516-2.1172 1.9375-2.9102 4.9258-2.0312 7.6602l45.895 142.78c0.050781 0.15625 0.10547 0.30859 0.16406 0.46484 21.879 55.094 74.316 90.691 133.59 90.691h150.93c58.219 0 105.59-47.363 105.59-105.59 0-42.961-26.535-80.82-64.395-97.066 24.68-7.1133 52.371-21.535 73.18-50.316zm-106.47 56.883c46.547 4.0078 83.008 43.762 83.008 90.5 0 50.125-40.777 90.906-90.902 90.906h-150.93c-53.141 0-100.16-31.867-119.86-81.203l-41.027-127.64c70.535 27.082 120.09 27.043 122.25 27.035h74.965c2.9258 0 5.5742-1.7383 6.7344-4.4258 1.1641-2.6836 0.61719-5.8047-1.3867-7.9414-13.574-14.453-21.051-33.262-21.051-52.961 0-42.715 34.75-77.461 77.461-77.461 37.906 0 70.48 27.918 76.438 65.156-2.3516 7.918-15.152 46.773-44.406 63.969-2.7266 1.6055-4.1211 4.7773-3.457 7.8711 0.66406 3.0938 3.2383 5.4141 6.3867 5.7539 0.73828 0.078125 5.0156 0.50781 11.754 0.50781 3.4805 0 7.6328-0.12109 12.27-0.45703 0.55859 0.1875 1.1367 0.33594 1.7539 0.39062zm-3.7266-15.125c18.383-18.363 28.094-42.367 31.992-53.938l59.086 12.578c-28.227 31.707-67.445 39.648-91.078 41.359z"/>
    <path d="m426.23 186.97c9.0469 0 16.406-7.3594 16.406-16.402 0-9.0469-7.3594-16.406-16.406-16.406s-16.406 7.3594-16.406 16.406c0.003906 9.043 7.3633 16.402 16.406 16.402zm0-18.129c0.94922 0 1.7227 0.77344 1.7227 1.7227 0 0.94922-0.77344 1.7227-1.7227 1.7227s-1.7227-0.77344-1.7227-1.7227c0-0.94531 0.77344-1.7227 1.7227-1.7227z"/>
  </g>
</svg>