<?xml version="1.0" encoding="utf-8"?>
<svg viewBox="128.375 65.539 490.989 548.276" xmlns="http://www.w3.org/2000/svg">
  <g transform="matrix(1, 0, 0, 1, 23.760269, 59.649647)">
    <path d="m130.31 242.98c-3.3047 3.1914-3.3594 8.3984-0.22266 11.648 1.625 1.6797 3.8086 2.5195 5.9375 2.5195 2.0703 0 4.1445-0.78516 5.7109-2.2969 0.28125-0.28125 13.777-12.879 39.816-27.047l-0.003907 101.47-42.113 42.113c-3.2461 3.2461-3.2461 8.457 0 11.703l44.574 44.574c1.625 1.625 3.7539 2.4062 5.8242 2.4062 2.1289 0 4.2578-0.78516 5.8242-2.4062l44.574-44.574c3.2461-3.2461 3.2461-8.457 0-11.703l-42.113-42.113 0.007812-109.76c21.113-9.8555 48.047-19.543 80.863-25.648v245.73c-21.785 3.9219-38.359 22.902-38.359 45.809 0 25.703 20.945 46.648 46.648 46.648s46.648-20.945 46.648-46.648c0-22.902-16.574-41.887-38.359-45.809l-0.003906-248.3c16.855-2.3516 34.887-3.8633 54.434-3.8633h0.054688 0.054687c20.328 0 38.977 1.625 56.391 4.1445v182.84l-11.48 35.391h-38.527c-3.5859 0-6.7773 2.2969-7.8398 5.7109-1.1211 3.4141 0.11328 7.168 3.0234 9.2383l31.191 22.68-11.93 36.68c-1.1211 3.4141 0.11328 7.168 3.0234 9.2383 1.457 1.0625 3.1367 1.5664 4.8711 1.5664s3.4141-0.50391 4.8711-1.5664l31.191-22.68 31.191 22.68c2.9102 2.1289 6.832 2.1289 9.7422 0 2.9102-2.1289 4.0898-5.8242 3.0234-9.2383l-11.93-36.68 31.191-22.68c2.9102-2.1289 4.0898-5.8242 3.0234-9.2383-1.1211-3.4141-4.3125-5.7109-7.8398-5.7109h-38.527l-11.535-35.391 0.011719-180.15c31.359 5.9922 57.289 15.23 77.785 24.754v73.859c-10.977 5.9375-19.543 15.289-24.137 27.047-5.1523 13.16-4.8711 27.609 0.83984 40.602 8.7344 19.879 28.281 31.809 48.664 31.809 7.1133 0 14.281-1.457 21.168-4.4805 9.8008-4.3125 17.977-11.367 23.574-20.383 1.7344-2.8008 1.625-6.3828-0.22266-9.1289-1.9023-2.7422-5.2656-4.0312-8.457-3.3594-13.664 2.8555-27.609-4.3125-33.207-17.078-5.6016-12.77-1.3984-27.832 9.9688-35.895 2.6875-1.9023 3.9766-5.2656 3.3047-8.5117-0.72656-3.2461-3.2461-5.7109-6.4961-6.3828-6.1602-1.1758-12.32-1.1211-18.426-0.054688l0.003906-59.871c26.77 14.449 40.543 27.383 40.879 27.664 1.625 1.5117 3.6953 2.2969 5.7109 2.2969 2.1836 0 4.3125-0.83984 5.9375-2.5195 3.1367-3.3047 3.0781-8.5117-0.22266-11.648-3.1953-2.9141-73.754-69.215-211.62-71.848v-37.91c25.258-3.9766 44.688-25.871 44.688-52.246 0-29.238-23.801-52.98-52.977-52.98s-52.977 23.742-52.977 52.977c0 26.375 19.434 48.273 44.688 52.246v37.91c-137.87 2.6367-208.43 68.938-211.4 71.852zm92.398 134.23-32.871 32.871-32.871-32.871 32.871-32.871zm94.641 108.14c0 16.574-13.496 30.07-30.129 30.07-16.574 0-30.07-13.496-30.07-30.07 0-16.574 13.496-30.129 30.07-30.129 16.633 0.058594 30.129 13.555 30.129 30.129zm198.18-181.11c-6.4961 12.152-7.4492 27.047-1.625 40.266 5.8242 13.273 17.414 22.68 30.742 26.152-1.2305 0.72656-2.5742 1.3984-3.9219 2.0156-18.426 8.0625-39.984-0.39063-48.105-18.816-8.0625-18.426 0.33594-39.984 18.762-48.047 1.4062-0.61719 2.75-1.1211 4.1484-1.5703zm-106.68 116.37 5.8789-18.145 5.8789 18.145c1.1211 3.4141 4.3125 5.7109 7.8398 5.7109h19.098l-15.457 11.258c-2.9102 2.1289-4.0898 5.8242-3.0234 9.2383l5.8789 18.145-15.457-11.258c-1.457-1.0625-3.1367-1.5664-4.8711-1.5664s-3.4141 0.50391-4.8711 1.5664l-15.457 11.199 5.8789-18.145c1.1211-3.4141-0.11328-7.168-3.0234-9.2383l-15.457-11.258h19.098c3.7539 0.058594 6.9453-2.2383 8.0664-5.6523zm-95.254-339.64c0-20.105 16.352-36.398 36.398-36.398 20.105 0 36.398 16.352 36.398 36.398 0 20.047-16.352 36.398-36.398 36.398-20.105 0-36.398-16.352-36.398-36.398z"/>
  </g>
</svg>