<?xml version="1.0" encoding="UTF-8"?>
<svg version="1.1" viewBox="0 0 700 700" xmlns="http://www.w3.org/2000/svg" xmlns:xlink="http://www.w3.org/1999/xlink">

 <g>
  <path d="m308.5 220.41c4.6016 2.0469 9.9766 0 11.992-4.5391l28.805-64.805c2.0234-4.5508 0.003906-9.8672-4.668-11.945l-16.355-7.2656c-4.5977-2.0469-9.9766 0-11.992 4.5391l-28.805 64.805c-2.0234 4.5508-0.003906 9.8672 4.668 11.945zm126.45 0c4.6016 2.0469 9.9805 0 11.996-4.5391l28.801-64.805c2.0234-4.5508 0.003906-9.8672-4.668-11.945l-16.352-7.2656c-4.6016-2.0469-9.9766 0-11.992 4.5391l-28.805 64.805c-2.0234 4.5508-0.003907 9.8672 4.668 11.945zm126.45 0c4.6016 2.0469 9.9766 0 11.992-4.5391l28.805-64.805c2.0234-4.5508 0.003906-9.8672-4.668-11.945l-16.352-7.2656c-4.6016-2.0469-9.9805 0-11.996 4.5391l-28.801 64.805c-2.0234 4.5508-0.003906 9.8672 4.668 11.945zm-415.48-126.45c4.6016 2.043 9.9766 0 11.996-4.5391l28.801-64.809c2.0234-4.5508 0.003906-9.8672-4.668-11.941l-16.352-7.2695c-4.6016-2.0469-9.9766 0-11.996 4.5391l-28.801 64.805c-2.0234 4.5547-0.003907 9.8711 4.668 11.945zm126.45 0c4.6016 2.043 9.9766 0 11.992-4.5391l28.805-64.809c2.0234-4.5508 0.003906-9.8672-4.668-11.941l-16.355-7.2695c-4.5977-2.0469-9.9766 0-11.992 4.5391l-28.805 64.805c-2.0234 4.5547-0.003906 9.8711 4.668 11.945zm126.45 0c4.6016 2.043 9.9805 0 11.996-4.5391l28.801-64.809c2.0234-4.5508 0.003906-9.8672-4.668-11.941l-16.352-7.2695c-4.6016-2.0469-9.9766 0-11.992 4.5391l-28.805 64.805c-2.0234 4.5547-0.003906 9.8711 4.668 11.945zm126.45 0c4.6016 2.043 9.9766 0 11.992-4.5391l28.805-64.809c2.0234-4.5508 0.003907-9.8672-4.668-11.941l-16.352-7.2695c-4.6016-2.0469-9.9805 0-11.996 4.5391l-28.801 64.805c-2.0234 4.5547-0.003906 9.8711 4.668 11.945zm-402.84 362.86c-22.219 14.543-41.945 32.508-57.91 53.23-3.4883 4.5273-4.7734 6.5547-4.7734 6.5547-2.8359 4.0938-1.7852 9.5977 2.5 12.387l14.992 9.7695c4.2188 2.75 9.9609 1.6172 12.789-2.3906 0 0 0.69141-1.1797 3.8867-5.2695 37.992-48.613 101.32-79.484 165.76-79.484 64.367 0 127.43 30.629 165.6 79.078 3.2305 4.1016 3.9297 5.2852 3.9297 5.2852 2.8789 4.082 8.5547 5.1914 12.828 2.3828l14.949-9.832c4.207-2.7656 5.3633-8.2852 2.4414-12.449 0 0-0.50781-0.88281-3.5625-4.8945-7.8047-10.246-16.516-19.824-25.984-28.66 11.957-2.5508 24.445-3.8125 37.543-3.8125 55.734 0 101.44 22.781 142.39 72.918 2.8359 3.4648 2.8633 3.5938 2.8633 3.5938 3.0781 3.9766 8.7773 4.8047 12.875 1.7422l14.332-10.715c4.0312-3.0156 4.8438-8.6641 1.7695-12.633 0 0-0.11328-0.22656-2.9805-3.7617-47.855-59.027-103.86-87.273-171.25-87.273-25.809 0-50.016 4.168-72.781 12.68-30.387-19.391-65.262-32.426-101.52-37.457 0.089844-0.55859 0.15234-1.125 0.1875-1.6992 1.8477-28.379 0.007813-59.344-5.5273-90.746-18.863-106.97-74.434-188.65-132.35-178.44-57.922 10.211-82.203 105.98-63.34 212.94 6.2539 35.473 16.746 68.773 30.348 96.953zm98.586-38.219-27.656-156.84c-0.85938-4.8828-5.5-8.1484-10.535-7.2578l-17.625 3.1055c-4.957 0.875-8.2695 5.5898-7.418 10.426l28.016 158.88c-10.859 3.3984-21.469 7.5195-31.734 12.309-11.684-24.719-20.852-54.148-26.402-85.629-15.785-89.535 3.5273-165.71 34.035-171.09 30.508-5.3789 74.707 59.594 90.496 149.13 5.0469 28.609 6.7148 56.688 5.0586 82.125-0.023438 0.33984-0.035156 0.96094-0.042969 1.7383-12.152 0.125-24.254 1.1797-36.191 3.1016z" fill-rule="evenodd"/>

 </g>
</svg>
