<?xml version="1.0" encoding="UTF-8"?>
<svg version="1.1" viewBox="0 0 700 700" xmlns="http://www.w3.org/2000/svg" xmlns:xlink="http://www.w3.org/1999/xlink">

 <g>
  <path d="m568.75 105c0.60156 7.3789-2.2148 14.629-7.6406 19.672-9.957 8.4883-28.402 7.7266-34.676 6.7031v-0.003906c-2.5352-0.42188-5.1289 0.29297-7.0898 1.957-1.9609 1.6602-3.0938 4.1016-3.0938 6.6719 0.53906 7.0078-2.0195 13.902-7 18.863-5.4844 4.3984-12.227 6.9336-19.25 7.2383v-17.352h-17.5v17.5h-103.34l28.875-52.5h39.461v-17.5h-148.75v17.5h26.652l-29.559 52.5h-67.094c-1.4258 0-35-0.29688-35-26.25 0-2.5703-1.1328-5.0117-3.0938-6.6719-1.9609-1.6641-4.5547-2.3789-7.0898-1.957-0.22656 0.042968-22.75 3.4297-34.641-6.668h-0.003906c-5.4453-5.0391-8.2734-12.305-7.6719-19.703 0-2.3203-0.92188-4.5469-2.5625-6.1875s-3.8672-2.5625-6.1875-2.5625h-35v17.5h26.898c1.2578 9.4531 5.9609 18.109 13.211 24.309 11.41 8.3906 25.445 12.426 39.566 11.375 2.1953 10.465 8.6641 19.535 17.844 25.016-10.297 9.1523-16.773 21.844-18.148 35.551h-26.871c-12.504 0-24.059 6.6719-30.312 17.5-6.25 10.828-6.25 24.172 0 35 6.2539 10.828 17.809 17.5 30.312 17.5h85.086l-57.828 109.66c-1.4336 2.7148-1.3398 5.9766 0.24219 8.6055 1.5859 2.6289 4.4297 4.2344 7.5 4.2305h52.5v78.75c-0.003906 3.9688 2.668 7.4414 6.5 8.4609 0.73438 0.19141 1.4922 0.28906 2.25 0.28906 3.1328 0.007812 6.0273-1.6641 7.5938-4.375l70-122.5c1.5664-2.7109 1.5625-6.0508-0.003906-8.7578-1.5664-2.707-4.4609-4.375-7.5898-4.3672h-37.711l38.5-70h25.461v17.5c-0.003906 4.0625 2.793 7.5938 6.7461 8.5234 0.65625 0.14844 1.3281 0.22266 2.0039 0.22656 3.3164 0 6.3477-1.8711 7.832-4.8398l32.574-65.16h12.094c-0.11328 6.5352 1.6055 12.973 4.9531 18.586l-47.707 91.105c-1.418 2.7109-1.3203 5.9688 0.26562 8.5898 1.5859 2.6172 4.4258 4.2188 7.4883 4.2188h52.5v79.266c0.003906 3.9688 2.6758 7.4375 6.5117 8.4531 0.73047 0.19922 1.4805 0.29688 2.2383 0.29688 3.1445 0 6.0508-1.6914 7.6055-4.4258l70-123.12c1.5352-2.7109 1.5195-6.0312-0.046875-8.7227s-4.4453-4.3516-7.5586-4.3516h-37.852l19.074-34.895h88.777c9.3633 0.27344 18.426-3.3242 25.051-9.9492s10.223-15.688 9.9492-25.051c0.33594-7.9297-2.1797-15.719-7.0859-21.961-4.9062-6.2383-11.887-10.516-19.672-12.059-2.1602-17.5-11.797-41.449-37.738-44.414 1.1055-2.707 1.9297-5.5195 2.4492-8.3945 14.07 0.96484 28.031-3.0625 39.43-11.375 7.25-6.1914 11.957-14.844 13.219-24.297h26.898v-17.5h-35c-4.832 0-8.75 3.918-8.75 8.75zm-305.05 109.42c0.33203 0.54688 0.72656 1.0547 1.1719 1.5156-3.5703-2.2891-7.4961-3.9648-11.621-4.9531-1.0859-9.7031-4.4062-19.023-9.6953-27.23h32.438l-12.363 21.961c-1.5234 2.7109-1.5 6.0234 0.070313 8.707zm-141.2 30.582c-0.30469-4.7266 1.4414-9.3594 4.793-12.707 3.3477-3.3516 7.9805-5.0977 12.707-4.793h35c2.3203 0 4.5469-0.92188 6.1875-2.5625s2.5625-3.8672 2.5625-6.1875c0-1.4258 0.29688-35 26.25-35 25.75 0 26.25 33.59 26.25 35 0 2.3203 0.92188 4.5469 2.5625 6.1875s3.8672 2.5625 6.1875 2.5625c6.2539 0 12.031 3.3359 15.156 8.75s3.125 12.086 0 17.5-8.9023 8.75-15.156 8.75h-61.25v-17.5h-17.5v17.5h-26.25c-4.7266 0.30469-9.3594-1.4414-12.707-4.793-3.3516-3.3477-5.0977-7.9805-4.793-12.707zm123.58 109.53c-1.4922 2.7148-1.4414 6.0117 0.13281 8.6758 1.5781 2.6641 4.4453 4.2969 7.5391 4.293h37.422l-46.172 80.797v-54.547c0-2.3203-0.92188-4.5469-2.5625-6.1875s-3.8672-2.5625-6.1875-2.5625h-46.742l55.359-105h42.211zm55.797-92.031h-26.137c2.8945-5.375 4.3594-11.398 4.2617-17.5 0.45703-10.43-4.0586-20.457-12.172-27.027 1.0742 0.48828 2.2383 0.75391 3.4219 0.77734h61.25v43.75zm39.375-61.25h-55.027l49.262-87.5h42.586l-31.367 57.031c-1.4922 2.7148-1.4414 6.0117 0.13281 8.6758 1.5781 2.6641 4.4453 4.2969 7.5391 4.293h33.977l-38.352 76.695v-50.445c0-2.3203-0.92188-4.5469-2.5625-6.1875s-3.8672-2.5625-6.1875-2.5625zm49.168 17.5 17.5-35h72.457c0.26172 0 1.9414 0.18359 4.5859 0.18359h1.6797c-2.3438 5.5391-3.9453 11.359-4.7695 17.316h-53.121c-12.629-0.046875-24.332 6.6133-30.738 17.5zm39.453 100.62c1.5742 2.6562 4.4336 4.2852 7.5234 4.2891h37.574l-46.219 81.25v-54.914c0-2.3203-0.92188-4.5469-2.5625-6.1875s-3.8672-2.5625-6.1875-2.5625h-46.797l38.797-74.094h0.003906c5.1953 2.6211 10.926 4.0234 16.746 4.0938h22.539l-21.578 39.453c-1.4844 2.7148-1.4297 6.0117 0.14844 8.6719zm121.38-109.38c0 2.3203 0.92188 4.5469 2.5625 6.1875s3.8672 2.5625 6.1875 2.5625c6.2539 0 12.031 3.3359 15.156 8.75s3.125 12.086 0 17.5-8.9023 8.75-15.156 8.75h-17.5v-17.5h-17.5v17.5h-96.25c-6.2539 0-12.031-3.3359-15.156-8.75s-3.125-12.086 0-17.5 8.9023-8.75 15.156-8.75h61.25c2.3203 0 4.5469-0.92188 6.1875-2.5625s2.5625-3.8672 2.5625-6.1875c0-1.4258 0.29688-35 26.25-35 25.75 0 26.25 33.59 26.25 35z"/>
  <path d="m192.5 105h17.5v17.5h-17.5z"/>
  <path d="m542.5 96.25h17.5v17.5h-17.5z"/>
  <path d="m533.75 323.75h17.5v35h-17.5z"/>
  <path d="m481.25 394.41h17.5v34.344h-17.5z"/>
  <path d="m341.25 428.75h17.5v34.344h-17.5z"/>
  <path d="m367.5 490h17.5v35h-17.5z"/>
  <path d="m183.75 437.5h17.5v34.719h-17.5z"/>
  <path d="m122.5 358.75h17.5v35h-17.5z"/>
  <path d="m175 297.5h17.5v35h-17.5z"/>

 </g>
</svg>
