<?xml version="1.0" encoding="UTF-8"?>
<svg width="700pt" height="700pt" version="1.1" viewBox="0 0 700 700" xmlns="http://www.w3.org/2000/svg" xmlns:xlink="http://www.w3.org/1999/xlink">

 <g>
  <path d="m455 432.86v-310.36c0-37.512-20.012-72.176-52.5-90.934-32.488-18.754-72.512-18.754-105 0-32.488 18.758-52.5 53.422-52.5 90.934v310.36c-18.461 9.6055-33.934 24.09-44.734 41.879-10.797 17.789-16.512 38.199-16.516 59.008 0 2.3203 0.92188 4.5469 2.5625 6.1875s3.8672 2.5625 6.1875 2.5625h105c2.3203 0 4.5469-0.92188 6.1875-2.5625s2.5625-3.8672 2.5625-6.1875v-26.25h87.5v26.25c0 2.3203 0.92188 4.5469 2.5625 6.1875s3.8672 2.5625 6.1875 2.5625h105c2.3203 0 4.5469-0.92188 6.1875-2.5625s2.5625-3.8672 2.5625-6.1875c-0.003906-20.809-5.7188-41.219-16.516-59.008-10.801-17.789-26.273-32.273-44.734-41.879zm-105-397.86c21.766-0.10938 42.793 7.8984 58.973 22.461 16.18 14.562 26.352 34.629 28.527 56.289h-35c-4.832 0-8.75 3.918-8.75 8.75s3.918 8.75 8.75 8.75h35v17.5h-35c-4.832 0-8.75 3.918-8.75 8.75s3.918 8.75 8.75 8.75h35v192.5h-35c-4.832 0-8.75 3.918-8.75 8.75s3.918 8.75 8.75 8.75h35v17.5h-35c-4.832 0-8.75 3.918-8.75 8.75s3.918 8.75 8.75 8.75h35v43.75h-175v-43.75h35c4.832 0 8.75-3.918 8.75-8.75s-3.918-8.75-8.75-8.75h-35v-17.5h35c4.832 0 8.75-3.918 8.75-8.75s-3.918-8.75-8.75-8.75h-35v-192.5h35c4.832 0 8.75-3.918 8.75-8.75s-3.918-8.75-8.75-8.75h-35v-17.5h35c4.832 0 8.75-3.918 8.75-8.75s-3.918-8.75-8.75-8.75h-34.562c2.168-21.582 12.277-41.59 28.363-56.141 16.09-14.551 37.008-22.609 58.699-22.609zm61.25 490v-26.25c0-2.3203-0.92188-4.5469-2.5625-6.1875s-3.8672-2.5625-6.1875-2.5625h-105c-4.832 0-8.75 3.918-8.75 8.75v26.25h-87.062c2.6953-29.309 18.652-55.773 43.312-71.836v10.586c0 2.3203 0.92188 4.5469 2.5625 6.1875s3.8672 2.5625 6.1875 2.5625h192.5c2.3203 0 4.5469-0.92188 6.1875-2.5625s2.5625-3.8672 2.5625-6.1875v-10.586c24.828 15.969 40.953 42.449 43.75 71.836z"/>
  <path d="m288.75 271.25c0.007812 11.582 3.3008 22.93 9.4961 32.715 6.1953 9.7891 15.039 17.621 25.504 22.586 1.1992 8.4141 6.3984 15.727 13.949 19.625 7.5508 3.8945 16.523 3.8945 24.078 0 7.5508-3.8984 12.75-11.211 13.949-19.625 10.562-4.8906 19.516-12.688 25.809-22.48 6.2891-9.7969 9.6602-21.18 9.7148-32.82v-35c0-21.883-11.676-42.102-30.625-53.043-18.949-10.941-42.301-10.941-61.25 0-18.949 10.941-30.625 31.16-30.625 53.043zm61.25 61.25c-3.5391 0-6.7305-2.1328-8.082-5.4023-1.3555-3.2695-0.60938-7.0312 1.8945-9.5352s6.2656-3.25 9.5352-1.8945c3.2695 1.3516 5.4023 4.543 5.4023 8.082 0 2.3203-0.92188 4.5469-2.5625 6.1875s-3.8672 2.5625-6.1875 2.5625zm-43.75-96.25c0-15.629 8.3398-30.074 21.875-37.887 13.535-7.8164 30.215-7.8164 43.75 0 13.535 7.8125 21.875 22.258 21.875 37.887v35c-0.007812 7.6875-2.043 15.238-5.8984 21.891-3.8555 6.6484-9.3984 12.168-16.062 15.996-4.8633-7.332-13.078-11.738-21.875-11.738-8.8008 0-17.012 4.4062-21.875 11.738-13.504-7.8359-21.809-22.273-21.789-37.887z"/>
  <path d="m96.25 125.12c3.7109-0.027344 7.2617 1.4961 9.8008 4.1992 5.6836 5.1719 13.094 8.0352 20.781 8.0352 7.6836 0 15.094-2.8633 20.781-8.0352 2.5742-2.6797 6.1289-4.1914 9.8438-4.1914 3.7148 0 7.2695 1.5117 9.8438 4.1914 5.6836 5.1719 13.094 8.0352 20.781 8.0352 7.6836 0 15.094-2.8633 20.781-8.0352 2.582-2.6914 6.1562-4.2109 9.8867-4.1992 4.832 0 8.75-3.918 8.75-8.75s-3.918-8.75-8.75-8.75c-7.7109-0.050781-15.152 2.8281-20.824 8.0508-2.5391 2.7031-6.0898 4.2266-9.8008 4.1992-3.7344 0.03125-7.3164-1.4883-9.8867-4.1992-5.6875-5.1719-13.098-8.0352-20.781-8.0352-7.6875 0-15.098 2.8633-20.781 8.0352-2.5742 2.6797-6.1289 4.1914-9.8438 4.1914-3.7148 0-7.2695-1.5117-9.8438-4.1914-5.625-5.2422-13.051-8.1211-20.738-8.0508-4.832 0-8.75 3.918-8.75 8.75s3.918 8.75 8.75 8.75z"/>
  <path d="m481.25 125.12c3.7109-0.027344 7.2617 1.4961 9.8008 4.1992 5.6836 5.1719 13.094 8.0352 20.781 8.0352 7.6836 0 15.094-2.8633 20.781-8.0352 2.5742-2.6797 6.1289-4.1914 9.8438-4.1914 3.7148 0 7.2695 1.5117 9.8438 4.1914 5.6836 5.1719 13.094 8.0352 20.781 8.0352 7.6836 0 15.094-2.8633 20.781-8.0352 2.582-2.6914 6.1562-4.2109 9.8867-4.1992 4.832 0 8.75-3.918 8.75-8.75s-3.918-8.75-8.75-8.75c-7.7109-0.050781-15.152 2.8281-20.824 8.0508-2.5391 2.7031-6.0898 4.2266-9.8008 4.1992-3.7344 0.03125-7.3164-1.4883-9.8867-4.1992-5.6875-5.1719-13.098-8.0352-20.781-8.0352-7.6875 0-15.098 2.8633-20.781 8.0352-2.5742 2.6797-6.1289 4.1914-9.8438 4.1914-3.7148 0-7.2695-1.5117-9.8438-4.1914-5.625-5.2422-13.051-8.1211-20.738-8.0508-4.832 0-8.75 3.918-8.75 8.75s3.918 8.75 8.75 8.75z"/>
  <path d="m603.75 151.38c-7.7109-0.050781-15.152 2.8281-20.824 8.0508-2.5391 2.7031-6.0898 4.2266-9.8008 4.1992-3.7344 0.03125-7.3164-1.4883-9.8867-4.1992-5.6875-5.1719-13.098-8.0352-20.781-8.0352-7.6875 0-15.098 2.8633-20.781 8.0352-2.5742 2.6797-6.1289 4.1914-9.8438 4.1914-3.7148 0-7.2695-1.5117-9.8438-4.1914-5.625-5.2422-13.051-8.1211-20.738-8.0508-4.832 0-8.75 3.918-8.75 8.75s3.918 8.75 8.75 8.75c3.7109-0.027344 7.2617 1.4961 9.8008 4.1992 5.6836 5.1719 13.094 8.0352 20.781 8.0352 7.6836 0 15.094-2.8633 20.781-8.0352 2.5742-2.6797 6.1289-4.1914 9.8438-4.1914 3.7148 0 7.2695 1.5117 9.8438 4.1914 5.6836 5.1719 13.094 8.0352 20.781 8.0352 7.6836 0 15.094-2.8633 20.781-8.0352 2.582-2.6914 6.1562-4.2109 9.8867-4.1992 4.832 0 8.75-3.918 8.75-8.75s-3.918-8.75-8.75-8.75z"/>
  <path d="m603.75 352.62c-7.7109-0.050781-15.152 2.8281-20.824 8.0508-2.5391 2.7031-6.0898 4.2266-9.8008 4.1992-3.7344 0.03125-7.3164-1.4883-9.8867-4.1992-5.6875-5.1719-13.098-8.0352-20.781-8.0352-7.6875 0-15.098 2.8633-20.781 8.0352-2.5742 2.6797-6.1289 4.1914-9.8438 4.1914-3.7148 0-7.2695-1.5117-9.8438-4.1914-5.625-5.2422-13.051-8.1211-20.738-8.0508-4.832 0-8.75 3.918-8.75 8.75s3.918 8.75 8.75 8.75c3.7109-0.027344 7.2617 1.4961 9.8008 4.1992 5.6836 5.1719 13.094 8.0352 20.781 8.0352 7.6836 0 15.094-2.8633 20.781-8.0352 2.5742-2.6797 6.1289-4.1914 9.8438-4.1914 3.7148 0 7.2695 1.5117 9.8438 4.1914 5.6836 5.1719 13.094 8.0352 20.781 8.0352 7.6836 0 15.094-2.8633 20.781-8.0352 2.582-2.6914 6.1562-4.2109 9.8867-4.1992 4.832 0 8.75-3.918 8.75-8.75s-3.918-8.75-8.75-8.75z"/>
  <path d="m603.75 396.38c-7.7109-0.050781-15.152 2.8281-20.824 8.0508-2.5391 2.7031-6.0898 4.2266-9.8008 4.1992-3.7344 0.03125-7.3164-1.4883-9.8867-4.1992-5.6875-5.1719-13.098-8.0352-20.781-8.0352-7.6875 0-15.098 2.8633-20.781 8.0352-2.5742 2.6797-6.1289 4.1914-9.8438 4.1914-3.7148 0-7.2695-1.5117-9.8438-4.1914-5.625-5.2422-13.051-8.1211-20.738-8.0508-4.832 0-8.75 3.918-8.75 8.75s3.918 8.75 8.75 8.75c3.7109-0.027344 7.2617 1.4961 9.8008 4.1992 5.6836 5.1719 13.094 8.0352 20.781 8.0352 7.6836 0 15.094-2.8633 20.781-8.0352 2.5742-2.6797 6.1289-4.1914 9.8438-4.1914 3.7148 0 7.2695 1.5117 9.8438 4.1914 5.6836 5.1719 13.094 8.0352 20.781 8.0352 7.6836 0 15.094-2.8633 20.781-8.0352 2.582-2.6914 6.1562-4.2109 9.8867-4.1992 4.832 0 8.75-3.918 8.75-8.75s-3.918-8.75-8.75-8.75z"/>
  <path d="m96.25 168.88c3.7109-0.027344 7.2617 1.4961 9.8008 4.1992 5.6836 5.1719 13.094 8.0352 20.781 8.0352 7.6836 0 15.094-2.8633 20.781-8.0352 2.5742-2.6797 6.1289-4.1914 9.8438-4.1914 3.7148 0 7.2695 1.5117 9.8438 4.1914 5.6836 5.1719 13.094 8.0352 20.781 8.0352 7.6836 0 15.094-2.8633 20.781-8.0352 2.582-2.6914 6.1562-4.2109 9.8867-4.1992 4.832 0 8.75-3.918 8.75-8.75s-3.918-8.75-8.75-8.75c-7.7109-0.050781-15.152 2.8281-20.824 8.0508-2.5391 2.7031-6.0898 4.2266-9.8008 4.1992-3.7344 0.03125-7.3164-1.4883-9.8867-4.1992-5.6875-5.1719-13.098-8.0352-20.781-8.0352-7.6875 0-15.098 2.8633-20.781 8.0352-2.5742 2.6797-6.1289 4.1914-9.8438 4.1914-3.7148 0-7.2695-1.5117-9.8438-4.1914-5.625-5.2422-13.051-8.1211-20.738-8.0508-4.832 0-8.75 3.918-8.75 8.75s3.918 8.75 8.75 8.75z"/>
  <path d="m208.86 418.07c2.582-2.6914 6.1562-4.2109 9.8867-4.1992 4.832 0 8.75-3.918 8.75-8.75s-3.918-8.75-8.75-8.75c-7.7109-0.050781-15.152 2.8281-20.824 8.0508-2.5391 2.7031-6.0898 4.2266-9.8008 4.1992-3.7344 0.03125-7.3164-1.4883-9.8867-4.1992-5.6875-5.1719-13.098-8.0352-20.781-8.0352-7.6875 0-15.098 2.8633-20.781 8.0352-2.5742 2.6797-6.1289 4.1914-9.8438 4.1914-3.7148 0-7.2695-1.5117-9.8438-4.1914-5.625-5.2422-13.051-8.1211-20.738-8.0508-4.832 0-8.75 3.918-8.75 8.75s3.918 8.75 8.75 8.75c3.7109-0.027344 7.2617 1.4961 9.8008 4.1992 5.6836 5.1719 13.094 8.0352 20.781 8.0352 7.6836 0 15.094-2.8633 20.781-8.0352 2.5742-2.6797 6.1289-4.1914 9.8438-4.1914 3.7148 0 7.2695 1.5117 9.8438 4.1914 5.6836 5.1719 13.094 8.0352 20.781 8.0352 7.6836 0 15.094-2.8633 20.781-8.0352z"/>
  <path d="m96.25 370.12c3.7109-0.027344 7.2617 1.4961 9.8008 4.1992 5.6836 5.1719 13.094 8.0352 20.781 8.0352 7.6836 0 15.094-2.8633 20.781-8.0352 2.5742-2.6797 6.1289-4.1914 9.8438-4.1914 3.7148 0 7.2695 1.5117 9.8438 4.1914 5.6836 5.1719 13.094 8.0352 20.781 8.0352 7.6836 0 15.094-2.8633 20.781-8.0352 2.582-2.6914 6.1562-4.2109 9.8867-4.1992 4.832 0 8.75-3.918 8.75-8.75s-3.918-8.75-8.75-8.75c-7.7109-0.050781-15.152 2.8281-20.824 8.0508-2.5391 2.7031-6.0898 4.2266-9.8008 4.1992-3.7344 0.03125-7.3164-1.4883-9.8867-4.1992-5.6875-5.1719-13.098-8.0352-20.781-8.0352-7.6875 0-15.098 2.8633-20.781 8.0352-2.5742 2.6797-6.1289 4.1914-9.8438 4.1914-3.7148 0-7.2695-1.5117-9.8438-4.1914-5.625-5.2422-13.051-8.1211-20.738-8.0508-4.832 0-8.75 3.918-8.75 8.75s3.918 8.75 8.75 8.75z"/>

 </g>
</svg>
