<?xml version="1.0" encoding="UTF-8"?>
<svg version="1.1" viewBox="0 0 700 700" xmlns="http://www.w3.org/2000/svg" xmlns:xlink="http://www.w3.org/1999/xlink">
 <g>
  <path d="m484.64 43.844c0-8.2109-6.7148-14.926-14.926-14.926h-5.7109c-8.2109 0-14.926 6.7148-14.926 14.926v66.629h35.559z"/>
  <path d="m439.21 62.609c0-8.2109-6.7148-14.926-14.926-14.926h-5.7109c-8.2109 0-14.926 6.7148-14.926 14.926v47.859h35.559z"/>
  <path d="m393.8 86.598c0-8.2109-6.7148-14.926-14.926-14.926h-5.7109c-8.2109 0-14.926 6.7148-14.926 14.926v23.871h35.559z"/>
  <path d="m469.6 232.61c0-26.602-21.566-48.164-48.164-48.164-26.602 0-48.164 21.566-48.164 48.164 0 26.602 21.566 48.164 48.164 48.164 26.602 0.003907 48.164-21.562 48.164-48.164zm-48.164 34.672c-19.117 0-34.668-15.551-34.668-34.668s15.551-34.668 34.668-34.668c19.117 0 34.668 15.551 34.668 34.668-0.003906 19.117-15.555 34.668-34.668 34.668z"/>
  <path d="m432.18 232.61c0 5.9336-4.8086 10.742-10.742 10.742s-10.742-4.8086-10.742-10.742c0-5.9297 4.8086-10.738 10.742-10.738s10.742 4.8086 10.742 10.738"/>
  <path d="m361.06 184.96c0-12.02 9.7734-21.789 21.789-21.789h77.168c12.02 0 21.789 9.7773 21.789 21.789v346.13h28l0.003906-274.09c2.0898 0.92578 4.3906 1.4609 6.8203 1.4609h42.258c9.3477 0 16.953-7.6055 16.953-16.953s-7.6055-16.953-16.953-16.953h-42.258c-2.4297 0-4.7305 0.53125-6.8203 1.457v-41.055c0-27.453-22.332-49.789-49.789-49.789h-77.168c-27.453 0-49.789 22.34-49.789 49.789v346.13h28z"/>
  <path d="m520.08 290.62v37.152c0 20.484 16.664 37.152 37.152 37.152 20.484 0 37.152-16.664 37.152-37.152 0-20.484-16.664-37.152-37.152-37.152z"/>
  <path d="m173.38 460.59c44.129 0 81.316 29.902 92.605 70.488h31.594l0.003906-2.6094v-167.12c0-68.594-55.609-124.2-124.2-124.2h-26.305c-10.781 0-21.363 1.5234-31.527 4.4688-5.9258 1.7188-9.9297 7.2695-9.9297 13.434 0 9.3633 8.9727 15.988 17.969 13.402 7.5781-2.1797 15.457-3.3047 23.488-3.3047h26.305c47.996 0 87.785 35.375 94.941 81.395-22.805-27.031-56.891-44.25-94.941-44.25h-26.305c-10.781 0-21.363 1.5234-31.527 4.4688-5.9258 1.7188-9.9297 7.2695-9.9297 13.434 0 9.3633 8.9727 15.988 17.969 13.402 7.5781-2.1797 15.457-3.3047 23.488-3.3047h26.305c47.996 0 87.785 35.375 94.941 81.395-22.805-27.031-56.891-44.25-94.941-44.25h-26.305c-10.781 0-21.363 1.5234-31.527 4.4688-5.9219 1.7266-9.9258 7.2734-9.9258 13.445 0 9.3633 8.9727 15.988 17.969 13.402 7.5703-2.1797 15.457-3.3047 23.488-3.3047h26.305c47.996 0 87.785 35.375 94.941 81.395-22.805-27.031-56.891-44.25-94.941-44.25h-26.305c-10.781 0-21.363 1.5234-31.527 4.4688-5.9258 1.7188-9.9297 7.2695-9.9297 13.434 0 9.3633 8.9727 15.988 17.969 13.402 7.5703-2.1797 15.457-3.3047 23.488-3.3047z"/>
 </g>
</svg>
