<?xml version="1.0" encoding="UTF-8"?>
<svg version="1.1" viewBox="0 0 700 700" xmlns="http://www.w3.org/2000/svg" xmlns:xlink="http://www.w3.org/1999/xlink">
 <g>
  <path d="m426.57 531.56h-207.81c-3.3477 0-6.4648-1.5-8.5547-4.1133-2.0547-2.582-2.8438-6.0391-2.1211-9.2539l54.688-240.62c1.1367-5.0078 5.5234-8.5078 10.664-8.5078h92.301c6.0391 0 10.938 4.9102 10.938 10.938s-4.8984 10.938-10.938 10.938h-83.562l-49.723 218.75h180.41l-28.777-126.59c-0.1875-0.82031-0.27344-1.6523-0.27344-2.4727 0.011719-2.4297 0.85156-4.8242 2.3633-6.75 1.543-1.9453 3.7305-3.3242 6.1562-3.8711 3.1953-0.72266 6.6289 0.054688 9.1992 2.0781 1.957 1.543 3.3359 3.7305 3.8828 6.1562l31.816 139.96c0.72266 3.2148-0.066406 6.6719-2.1211 9.2539-2.0547 2.5703-5.2461 4.1133-8.5391 4.1133zm-43.949-193.28c-2.4375 0-4.8359-0.84375-6.7695-2.3633-1.9453-1.5312-3.3242-3.7188-3.8828-6.1562-0.64453-2.8438-0.14062-5.7734 1.4102-8.2461 1.5547-2.4727 3.9805-4.1875 6.8359-4.8438 3.1953-0.72266 6.6289 0.054688 9.1992 2.0898 1.957 1.5312 3.3359 3.7305 3.8828 6.1562 1.3359 5.875-2.3633 11.746-8.2344 13.094-0.8125 0.17188-1.6211 0.26953-2.4414 0.26953z"/>
  <path d="m371.88 290.94h-98.438c-2.875 0-5.6992-1.1719-7.7344-3.207-2.0352-2.0352-3.1953-4.8555-3.1953-7.7305v-87.5c0-2.875 1.1602-5.6992 3.1953-7.7344 2.0469-2.0352 4.8555-3.2031 7.7344-3.2031h21.875c1.9258 0 3.8164 0.50391 5.4805 1.4648l76.562 44.219c3.3672 1.9453 5.457 5.5781 5.457 9.4727v43.281c0 2.875-1.1602 5.6992-3.207 7.7305-2.0312 2.0352-4.8438 3.207-7.7305 3.207zm-87.5-21.875h76.562v-26.031l-68.555-39.594h-8.0078z"/>
  <path d="m477.82 307.67c-1.9023 0-3.7969-0.50391-5.4453-1.4531l-118.55-68.523-89.645-50.488c-0.011719 0-0.011719 0-0.011719-0.011719-3.457-1.9375-5.5898-5.6094-5.5781-9.5703 0.011718-1.8594 0.49219-3.6953 1.4102-5.3281 0.097656-0.16406 0.19531-0.32812 0.29688-0.49219 2.0117-3.1719 5.4688-5.0742 9.2422-5.0742 1.8711 0 3.7188 0.48047 5.3594 1.4102l89.809 50.574 109.25 63.141 21.098-35.516-351.01-190.54-8.1172 34.082 43.664 24.586c5.25 2.9531 7.1211 9.6367 4.1562 14.898-1.9375 3.4336-5.5898 5.5664-9.5391 5.5664-1.8711 0-3.7188-0.48047-5.3594-1.4102l-50.824-28.625c-2.1016-1.1797-3.707-2.9648-4.6602-5.1523-0.96094-2.1875-1.1719-4.582-0.625-6.9141l13.332-56c0.78906-3.2812 3.0938-6.0703 6.1797-7.4492 3.0742-1.3672 6.7266-1.2266 9.6797 0.37109l373.54 202.78c2.6016 1.4102 4.5508 3.8594 5.3281 6.7031 0.78906 2.8555 0.37109 5.9492-1.1367 8.5l-32.418 54.59c-1.9609 3.293-5.5703 5.3398-9.4297 5.3398zm-255.95-145.89c-1.8711 0-3.7188-0.49219-5.3594-1.4102-2.5469-1.4336-4.3867-3.7734-5.1641-6.5859-0.78906-2.8203-0.4375-5.7656 0.99609-8.3125 1.9375-3.4336 5.5898-5.5781 9.5469-5.5781 1.8594 0 3.7188 0.49219 5.3477 1.4102 5.2617 2.9648 7.1328 9.6484 4.168 14.898-1.9336 3.4453-5.5859 5.5781-9.5352 5.5781z"/>
  <path d="m539.96 374.45h-0.011719c-1.9688 0-3.8945-0.53516-5.5781-1.5312l-75.238-44.68c-2.5039-1.5-4.2891-3.8711-5.0078-6.7031-0.72266-2.832-0.29688-5.7734 1.1914-8.2891l55.855-94.031c1.957-3.3047 5.5664-5.3594 9.4062-5.3594 1.957 0 3.8945 0.52344 5.5781 1.5312l75.227 44.691c3.293 1.9453 5.3359 5.5234 5.3594 9.3516l0.28516 63.777c0.023437 4.0469-2.1875 7.7539-5.7539 9.668l-56.133 30.266c-1.5781 0.85938-3.375 1.3086-5.1797 1.3086zm-60.254-59.434 60.508 35.93 44.91-24.203-0.23047-51.023-60.496-35.941z"/>
  <path d="m596.09 531.56h-492.19c-6.0273 0-10.938-4.9102-10.938-10.938s4.9102-10.938 10.938-10.938h492.19c6.0273 0 10.938 4.9102 10.938 10.938s-4.9102 10.938-10.938 10.938z"/>
  <path d="m196.88 531.56h-76.551c-3.1836 0-6.1914-1.3789-8.2695-3.7734-2.0781-2.3945-3.0195-5.5664-2.5586-8.707l10.938-76.562c0.37109-2.6133 1.6641-5 3.6523-6.7266 1.9922-1.7148 4.5391-2.668 7.1758-2.668h54.676c2.6367 0 5.1836 0.95312 7.1758 2.668 1.9922 1.7266 3.2812 4.1133 3.6523 6.7266l10.938 76.562h0.011719c0.4375 3.1406-0.49219 6.3125-2.5703 8.707-2.0781 2.3945-5.0859 3.7734-8.2695 3.7734zm-63.941-21.875h51.34l-7.8203-54.688h-35.711z"/>
  <path d="m153.14 455c-6.0391 0-10.949-4.9102-10.949-10.938v-328.12c0-6.0273 4.9102-10.938 10.949-10.938 6.0273 0 10.926 4.9102 10.926 10.938v328.12c0 6.0273-4.8984 10.938-10.926 10.938z"/>
  <path d="m541.41 531.56c-6.0273 0-10.938-4.9102-10.938-10.938v-153.12c0-6.0273 4.9102-10.938 10.938-10.938s10.938 4.9102 10.938 10.938v153.12c0 6.0273-4.9102 10.938-10.938 10.938z"/>
  <path d="m426.56 531.56c-2.1641 0-4.2539-0.63281-6.0586-1.8398l-180.48-120.31c-2.7773-1.8477-4.582-4.9531-4.8359-8.2773-0.25-3.3359 1.0703-6.6719 3.543-8.9141l120.31-109.38s0.011719 0 0.011719-0.011719c2.0234-1.8281 4.625-2.832 7.3516-2.832 3.0742 0 6.0273 1.3008 8.0938 3.5781 4.0586 4.4609 3.7305 11.398-0.73438 15.453l-109.95 99.945 168.82 112.55c2.4297 1.6172 4.0898 4.0898 4.6602 6.957 0.57031 2.8672 0 5.7734-1.6289 8.2148-2.0234 3.0508-5.4375 4.8672-9.1016 4.8672z"/>
  <path d="m218.75 531.56c-3.6641 0-7.0781-1.8164-9.1094-4.8672-1.6172-2.4375-2.1875-5.3477-1.6172-8.2148 0.57031-2.8672 2.2305-5.3359 4.6602-6.957l168.82-112.55-109.95-99.938s0-0.011718-0.011719-0.011718c-2.1562-1.9688-3.4219-4.6484-3.5664-7.5703-0.14062-2.9219 0.86328-5.7188 2.832-7.8867 2.0664-2.2734 5.0195-3.5781 8.0938-3.5781 2.7227 0 5.3359 1.0078 7.3594 2.8438l120.31 109.38c2.4727 2.2422 3.7969 5.5781 3.543 8.9141-0.25 3.3242-2.0547 6.4297-4.8359 8.2773l-180.48 120.31c-1.7969 1.2148-3.8867 1.8477-6.0508 1.8477z"/>
  <path d="m585.16 531.56h-87.5c-2.875 0-5.6992-1.1719-7.7344-3.207-2.0352-2.0352-3.2031-4.8555-3.2031-7.7305v-32.812c0-6.0273 4.9102-10.938 10.938-10.938s10.938 4.9102 10.938 10.938v21.875h65.625v-21.875c0-6.0273 4.9102-10.938 10.938-10.938s10.938 4.9102 10.938 10.938v32.812c0 2.875-1.1719 5.6992-3.207 7.7305-2.0312 2.0352-4.8555 3.207-7.7305 3.207z"/>

 </g>
</svg>
