<?xml version="1.0" encoding="UTF-8"?>
<svg version="1.1" viewBox="0 0 700 700" xmlns="http://www.w3.org/2000/svg" xmlns:xlink="http://www.w3.org/1999/xlink">

 <g>
  <path d="m271.25 385h-8.75c-4.8281 0-8.75 3.9219-8.75 8.75v26.25c-4.8281 0-8.75 3.9219-8.75 8.75s3.9219 8.75 8.75 8.75h8.75c4.8281 0 8.75-3.9219 8.75-8.75v-26.25c4.8281 0 8.75-3.9219 8.75-8.75s-3.9219-8.75-8.75-8.75z"/>
  <path d="m358.75 420v-26.25c0-4.8281-3.9219-8.75-8.75-8.75h-8.75c-4.8281 0-8.75 3.9219-8.75 8.75s3.9219 8.75 8.75 8.75v26.25c0 4.8281 3.9219 8.75 8.75 8.75h8.75c4.8281 0 8.75-3.9219 8.75-8.75s-3.9219-8.75-8.75-8.75z"/>
  <path d="m392.01 373.44c-15.445 0-28-11.828-28-26.371 0-14.184 11.84-25.707 26.957-26.25 4.8047-0.17578 8.5742-4.1914 8.4336-8.9961l-0.48047-16.555c-1.1797-40.371-30.598-74.34-70.988-83.316l-3.8516-106.98c4.7617-0.078125 8.6016-3.9375 8.6016-8.7227 0-0.85938-0.12109-1.6719-0.35156-2.457l-0.52734-6.2891h9.4492c4.8281 0 8.75-3.9219 8.75-8.75s-3.9219-8.75-8.75-8.75h-10.91l-1.4609-17.5h12.371c4.8281 0 8.75-3.9219 8.75-8.75s-3.9219-8.75-8.75-8.75h-13.824l-0.78906-9.4766c-0.375-4.5391-4.1641-8.0234-8.7227-8.0234h-23.336c-4.5508 0-8.3477 3.4844-8.7227 8.0234l-0.78125 9.4766h-13.824c-4.8281 0-8.75 3.9219-8.75 8.75s3.9219 8.75 8.75 8.75h12.363l-1.4609 17.5h-10.902c-4.8281 0-8.75 3.9219-8.75 8.75s3.9219 8.75 8.75 8.75h9.4492l-0.66406 8.0234c-0.20312 2.4414 0.62109 4.8477 2.2852 6.6484 1.582 1.7148 3.7891 2.668 6.1172 2.7578l-3.8516 107.03c-40.398 8.9688-69.816 42.938-70.988 83.316l-0.48047 16.555c-0.14063 4.8047 3.6328 8.8281 8.4336 8.9961 15.121 0.53516 26.957 12.066 26.957 26.25 0 14.543-12.566 26.371-27.16 26.426-0.33984-0.042968-1.0156-0.10547-1.3633-0.11328-4.7344-0.007813-8.7656 3.7031-8.9062 8.4961l-1.0312 35.48c-0.68359 23.32 8.0664 45.543 24.621 62.59 15.191 15.637 35.902 25.418 57.898 27.598l5.0312 27.766c0.75391 4.1641 4.375 7.1914 8.6016 7.1914 4.2266 0 7.8477-3.0195 8.6094-7.1836l5.0664-27.773c22.016-2.1602 42.762-11.945 57.961-27.598 16.562-17.055 25.305-39.277 24.621-62.59l-1.0312-35.488c-0.13281-4.7969-4.6484-8.3164-9.418-8.4375zm-81.332-153.94c0 0.027344-0.015625 0.042969-0.015625 0.070313l3.9453 110.95h-16.73l3.9453-110.95c0-0.027344-0.015624-0.042969-0.015624-0.070313l4.1406-114.5h0.61328zm-8.0469-184.5h7.2344l4.375 52.5h-15.977zm3.5938 449.84-6.9883-38.586h14.035zm59.062-17.078c-11.164 11.496-26.066 19.016-42.098 21.648l9.1797-50.328c0.46484-2.5547-0.22656-5.1797-1.8906-7.1758-1.668-1.9961-4.1367-3.1523-6.7266-3.1523h-35c-2.5898 0-5.0586 1.1445-6.7188 3.1406-1.6641 1.9961-2.3555 4.6211-1.8906 7.168l9.125 50.328c-16.012-2.6406-30.895-10.148-42.051-21.641-13.238-13.625-20.23-31.344-19.688-49.891l0.79688-27.57c21.367-3.5977 37.668-21.605 37.668-43.215 0-20.789-14.875-38.148-35.168-42.641l0.24609-8.6523c0.90234-30.809 22.539-57.008 52.852-65.652l-3.9219 108.83c0 0.12109 0.0625 0.22656 0.0625 0.35156l-0.0625 1.625c-0.078125 2.3711 0.79688 4.6797 2.4492 6.3867 1.6562 1.707 3.9297 2.6797 6.3008 2.6797h35c2.3711 0 4.6445-0.96094 6.3008-2.6758 1.6523-1.7148 2.5273-4.0078 2.4492-6.3867l-0.0625-1.6289c0-0.12109 0.0625-0.22656 0.0625-0.35156l-3.9219-108.82c30.309 8.6445 51.949 34.832 52.852 65.652l0.24609 8.6523c-20.293 4.4883-35.168 21.848-35.168 42.641 0 21.41 15.996 39.297 37.66 43.066l0.80469 27.73c0.53516 18.539-6.457 36.258-19.688 49.883z"/>
  <path d="m481.25 70h-26.25v-8.75c0-4.8281-3.9219-8.75-8.75-8.75s-8.75 3.9219-8.75 8.75v358.75c0 4.8281 3.9219 8.75 8.75 8.75h26.25v70h17.5v-323.75h-17.5v236.25h-17.5v-323.75h17.5v35h17.5v-43.75c0-4.8281-3.9219-8.75-8.75-8.75z"/>
  <path d="m472.5 140h17.5v17.5h-17.5z"/>

 </g>
</svg>
