<?xml version="1.0" encoding="UTF-8"?>
<svg version="1.1" viewBox="0 0 700 700" xmlns="http://www.w3.org/2000/svg" xmlns:xlink="http://www.w3.org/1999/xlink">

 <g>
  <path d="m503.84 237.27c-5.3555 0-10.711 0.5-16.016 1.4844-7.3242-70.152-66.32-123.95-137.82-123.95-46.277 0-87.91 22.938-113.21 58.801h-84.188v14h75.422c-5.6406 10.461-10.02 21.746-12.848 33.711-4.0273-0.51562-8.0078-0.77734-11.906-0.77734-53.414 0-96.867 43.457-96.867 96.863 0 53.418 43.457 96.875 96.867 96.875l99.129-0.003907v-14h-99.129c-45.695 0.007813-82.871-37.172-82.871-82.867 0-45.691 37.172-82.863 82.867-82.863 5.1797 0 10.566 0.54688 16.012 1.6289l6.957 1.3789 1.2891-6.9727c2.9023-15.641 8.7188-30.102 16.734-42.969h74.93l-0.003906-14.004h-64.836c23.039-27.586 57.613-44.801 95.652-44.801 66.812 0 121.48 52.246 124.45 118.95l0.39844 8.8633 8.5234-2.4453c6.7148-1.9258 13.602-2.9062 20.457-2.9062 41.082 0 74.508 33.426 74.508 74.508 0 4.9375-0.50781 9.7539-1.4297 14.426h-87.609v14h83.379c-11.199 27.016-37.828 46.078-68.84 46.078l-65.641-0.003907v14h65.637c48.805 0 88.508-39.703 88.508-88.504-0.003906-48.797-39.703-88.5-88.508-88.5z"/>
  <path d="m324.94 412.83-30.867 55.266c-0.46875 0.70703-4.6016 7.1836-4.6016 17.434 0 19.555 15.91 35.469 35.469 35.469 19.562 0 35.465-15.914 35.465-35.469 0-10.246-4.1289-16.727-4.3125-16.961zm0 94.168c-11.84 0-21.469-9.6328-21.469-21.469 0-5.9883 2.207-9.5938 2.5352-10.129l18.938-33.887 19.164 34.266c0.09375 0.15234 2.3008 3.7578 2.3008 9.7422 0 11.848-9.6328 21.477-21.469 21.477z"/>
  <path d="m387.64 350.13-30.867 55.266c-0.46875 0.70703-4.6016 7.1836-4.6016 17.434 0 19.555 15.914 35.469 35.469 35.469 19.555 0 35.469-15.914 35.469-35.469 0-10.246-4.1328-16.727-4.3164-16.961zm0 94.176c-11.84 0-21.469-9.6328-21.469-21.469 0-5.9883 2.2109-9.5938 2.5312-10.129l18.938-33.887 19.168 34.266c0.09375 0.15234 2.3008 3.7578 2.3008 9.7422 0.003906 11.844-9.6289 21.477-21.469 21.477z"/>
  <path d="m291.2 327.85c-0.46875 0.70703-4.6016 7.1836-4.6016 17.434 0 19.555 15.91 35.469 35.469 35.469 19.562 0 35.465-15.914 35.465-35.469 0-10.246-4.1289-16.727-4.3125-16.961l-31.16-55.742zm50.035 7.6875c0.09375 0.15234 2.3008 3.7578 2.3008 9.7422 0 11.84-9.6328 21.469-21.469 21.469-11.84 0-21.469-9.6328-21.469-21.469 0-5.9883 2.207-9.5938 2.5352-10.129l18.938-33.887z"/>
  <path d="m384.76 318.05c19.555 0 35.469-15.914 35.469-35.469 0-10.246-4.1328-16.727-4.3164-16.961l-31.152-55.742-30.867 55.273c-0.46875 0.70703-4.6016 7.1836-4.6016 17.434 0 19.551 15.914 35.465 35.469 35.465zm-18.938-45.598 18.938-33.879 19.168 34.266c0.09375 0.15234 2.3008 3.7578 2.3008 9.7422 0 11.84-9.6328 21.469-21.469 21.469-11.84 0-21.469-9.6328-21.469-21.469 0-5.9883 2.2109-9.5938 2.5312-10.129z"/>
  <path d="m152.6 304.05h74.898v14h-74.898z"/>
 </g>
</svg>
