<?xml version="1.0" encoding="utf-8"?>
<svg viewBox="126.272 48.221 548.169 300.958" xmlns="http://www.w3.org/2000/svg">
  <path d="M 304.107 286.197 L 304.107 251.197 C 304.107 246.369 300.185 242.447 295.357 242.447 L 216.607 242.447 L 216.607 232.701 C 219.407 231.248 221.298 228.326 221.298 224.947 L 221.298 198.697 C 221.298 193.869 217.396 189.947 212.548 189.947 L 199.107 189.947 L 199.107 172.447 C 199.107 167.619 195.185 163.697 190.357 163.697 C 185.529 163.697 181.607 167.619 181.607 172.447 L 181.607 189.947 L 168.166 189.947 C 163.318 189.947 159.416 193.869 159.416 198.697 L 159.416 224.947 C 159.416 228.326 161.307 231.248 164.107 232.701 L 164.107 286.197 L 155.357 286.197 C 150.529 286.197 146.607 290.119 146.607 294.947 C 146.607 299.775 150.529 303.697 155.357 303.697 L 645.357 303.697 C 650.186 303.697 654.107 299.775 654.107 294.947 C 654.107 290.119 650.186 286.197 645.357 286.197 L 304.107 286.197 Z M 191.547 233.697 L 199.105 233.697 L 199.105 286.197 L 181.605 286.197 L 181.605 233.697 L 191.547 233.697 Z M 216.606 259.947 L 216.606 286.197 L 286.606 286.197 L 286.606 259.947 L 216.606 259.947 Z M 451.856 236.392 L 452.328 236.408 C 469.375 236.408 484.949 226.783 492.562 211.541 C 492.562 211.541 520.949 154.771 520.949 154.771 L 574.57 141.962 C 579.488 140.79 583.602 137.446 585.769 132.88 C 587.941 128.313 587.906 123.009 585.699 118.478 L 585.699 118.462 C 576.355 99.177 554.445 89.466 533.883 95.466 C 533.883 95.466 416.633 129.677 416.633 129.677 C 409.039 131.9 400.848 130.919 394.004 126.966 L 390.242 124.794 C 382.016 120.052 372.254 118.755 363.101 121.224 C 351.796 123.954 359.445 136.798 357.851 134.173 C 357.851 134.173 369.226 153.142 377.468 166.88 C 384.382 178.431 397.995 184.153 411.105 181.021 L 452.914 171.029 L 443.711 226.205 C 443.289 228.744 444.008 231.349 445.672 233.31 C 447.231 235.146 449.469 236.252 451.867 236.388 L 451.856 236.392 Z M 569.476 125.182 L 512.917 138.694 C 510.397 139.307 508.28 140.987 507.124 143.296 C 507.124 143.296 488.819 179.89 476.921 203.722 C 473.928 209.671 468.96 214.238 463.026 216.742 L 472.334 160.898 C 472.807 157.991 471.811 155.054 469.674 153.058 C 467.522 151.062 464.51 150.257 461.658 150.941 L 407.021 163.996 C 401.35 165.359 395.47 162.874 392.462 157.871 L 381.841 140.144 L 385.236 142.12 C 396.244 148.472 409.349 150.046 421.548 146.48 L 538.778 112.269 C 550.817 108.753 563.63 114.194 569.473 125.183 L 569.476 125.182 Z M 190.336 207.448 L 203.793 207.448 L 203.793 216.198 L 176.914 216.198 L 176.914 207.448 L 190.336 207.448 Z" fill-rule="evenodd"/>
</svg>