<?xml version="1.0" encoding="UTF-8"?>
<svg version="1.1" viewBox="0 0 700 700" xmlns="http://www.w3.org/2000/svg" xmlns:xlink="http://www.w3.org/1999/xlink">

 <g>
  <path d="m337.68 193.76c-0.55859-0.55859-1.6797-1.6797-2.2383-2.8008l-0.5625-0.5625c-15.121-25.199-11.762-56.559 8.3984-77.281 20.16-20.16 52.078-24.078 77.281-8.9609l0.55859 0.55859c5.0391 3.3594 7.8398 8.3984 8.3984 14.559 0.55859 5.6016-1.6797 11.199-5.6016 15.121l-59.355 59.367c-3.9219 3.9219-9.5195 6.1602-15.121 5.6016-4.4766-0.5625-8.3984-2.2422-11.758-5.6016zm11.199-12.32c0.55859 0.55859 1.1211 1.1211 1.6797 1.1211s1.1211 0 1.6797-0.55859l59.363-59.363c0.55859-0.55859 0.55859-1.1211 0.55859-1.6797 0-0.55859-0.55859-1.1211-1.1211-1.6797-18.48-10.641-42-7.8398-56.559 6.1602-14 15.117-16.801 37.52-5.6016 56z"/>
  <path d="m276.08 313.6c-3.3594-3.3594-5.6016-7.2812-5.6016-12.32-0.55859-5.6016 1.6797-11.199 5.6016-15.121l59.359-59.359c3.9219-3.9219 9.5195-6.1602 15.121-5.6016 5.6016 0.55859 10.641 3.3594 14.559 8.3984l0.55859 0.55859c15.121 25.199 11.762 56.559-8.3984 77.281-20.16 20.16-52.078 24.078-77.281 8.9609l-0.55859-0.55859c-1.6758-0.55859-2.7969-1.6797-3.3594-2.2383zm74.48-74.48c-0.55859-0.55859-1.1211-0.55859-1.6797-0.55859s-1.1211 0-1.6797 0.55859l-59.359 59.359c-0.55859 0.55859-0.55859 1.1211-0.55859 1.6797s0.55859 1.1211 1.1211 1.6797c18.48 10.641 42 7.8398 56.559-6.1602 14.559-15.121 17.359-38.078 5.5977-56.559z"/>
  <path d="m426.16 284.48-59.359-59.359c-3.9219-3.9219-6.1602-9.5195-5.6016-15.121 0.55859-5.6016 3.3594-10.641 8.3984-14.559l0.55859-0.55859c25.199-15.121 56.559-11.762 77.281 8.3984 20.16 20.16 24.078 52.078 8.9609 77.281l-0.55859 0.55859c-3.3594 5.0391-8.3984 7.8398-14.559 8.3984-5.6016 1.1211-11.203-1.1211-15.121-5.0391zm-47.039-75.039c-0.55859 0.55859-1.1211 1.1211-1.1211 1.6797s0 1.1211 0.55859 1.6797l59.359 59.359c0.55859 0.55859 1.1211 0.55859 1.6797 0.55859s1.1211-0.55859 1.6797-1.1211c10.641-18.48 7.8398-42-6.1602-56.559-15.117-14.559-37.516-16.801-55.996-5.5977z"/>
  <path d="m253.12 216.72c-20.16-20.16-24.078-52.078-8.9609-77.281l0.55859-0.55859c3.3594-5.0391 8.3984-7.8398 14.559-8.3984 5.6016-0.55859 11.199 1.6797 15.121 5.6016l58.801 59.918c3.9219 3.9219 6.1602 9.5195 5.6016 15.121-0.55859 5.6016-3.3594 10.641-8.3984 14.559l-0.55859 0.55859c-24.645 14.562-56.562 11.203-76.723-9.5195zm5.5977-68.32c-10.641 18.48-7.8398 42 6.1602 56.559 15.121 15.121 37.52 17.922 56.559 6.1602 0.55859-0.55859 1.1211-1.1211 1.1211-1.6797s0-1.1211-0.55859-1.6797l-59.922-59.359c-0.55859-0.55859-1.1211-0.55859-1.6797-0.55859-0.55859-0.55859-1.1172 0-1.6797 0.55859z"/>
  <path d="m350 377.44c-92.398 0-166.88-75.039-166.88-166.88 0-92.402 74.48-167.44 166.88-167.44s166.88 75.039 166.88 166.88c0 92.398-74.48 167.44-166.88 167.44zm0-317.52c-82.879 0-150.08 67.199-150.08 150.08s67.199 150.08 150.08 150.08 150.08-67.199 150.08-150.08c0-82.32-67.199-150.08-150.08-150.08z"/>
  <path d="m440.72 516.88h-181.44c-28.559 0-51.52-22.961-51.52-51.52s22.961-51.52 51.52-51.52h182c28.559 0 51.52 22.961 51.52 51.52 0 28.562-23.52 51.52-52.082 51.52zm-181.44-85.68c-19.039 0-34.719 15.68-34.719 34.719 0 19.039 15.68 34.719 34.719 34.719h182c19.039 0 34.719-15.68 34.719-34.719 0-19.039-16.238-34.719-35.281-34.719z"/>
  <path d="m397.57 424.43-15.852-53.129 16.098-4.8047 15.852 53.129z"/>
  <path d="m302.4 425.26-16.098-4.8008 15.844-53.129 16.098 4.8008z"/>
  <path d="m407.12 465.36c0 7.1133-5.7695 12.879-12.883 12.879s-12.879-5.7656-12.879-12.879 5.7656-12.879 12.879-12.879 12.883 5.7656 12.883 12.879"/>
  <path d="m451.92 465.36c0 7.1133-5.7695 12.879-12.883 12.879-7.1133 0-12.879-5.7656-12.879-12.879s5.7656-12.879 12.879-12.879c7.1133 0 12.883 5.7656 12.883 12.879"/>

 </g>
</svg>
