<?xml version="1.0" encoding="utf-8"?>
<svg viewBox="202.682 131.993 458.717 416.712" xmlns="http://www.w3.org/2000/svg">
  <g transform="matrix(0.938492, 0, 0, 0.912886, 103.617851, 84.744102)" style="">
    <path d="m191.52 289.3c0 25.703-20.891 46.594-46.594 46.594v18.594c35.984 0 65.297-29.312 65.297-65.297v-83.891h-18.594v84z"/>
    <path d="m450.08 180.58c-11.703-60.047-64.641-105.66-128.08-105.66-71.969 0-130.48 58.516-130.48 130.48h18.594c0-61.688 50.203-111.89 111.89-111.89s111.89 50.203 111.89 111.89c0 7.875-0.875 15.859-2.7344 23.953-37.734 10.938-62.562 42.438-70.328 89.25l-0.10938 166.47h18.594v-164.17c3.5-20.672 14-53.812 45.172-69.016v0.10938h130.48v-9.2969c0.10938-30.516-73.938-53.812-104.89-62.125zm-0.76562 52.828c2.0781-9.4062 3.1719-18.703 3.1719-28 0-1.6406-0.21875-3.2812-0.21875-4.9219 33.688 9.7344 63.656 22.75 76.891 32.812h-79.844z"/>
    <path d="m336 140.22c-17.938 0-32.594 14.656-32.594 32.594s14.656 32.594 32.594 32.594 32.594-14.656 32.594-32.594-14.547-32.594-32.594-32.594zm0 46.594c-7.6562 0-14-6.2344-14-14s6.2344-14 14-14 14 6.2344 14 14-6.2344 14-14 14z"/>
  </g>
</svg>