<?xml version="1.0" encoding="utf-8"?>
<svg viewBox="202.682 81.872 458.717 466.833" xmlns="http://www.w3.org/2000/svg">
  <g transform="matrix(0.843134, 0, 0, 0.843134, 136.947311, 79.210762)" style="">
    <path d="m341.46 24.73c-0.79688 0.074219-1.5859 0.32812-2.3086 0.76562l-0.019531 0.011718-0.027344 0.007813-0.042969 0.035156-0.023437 0.011719c-0.027344 0.019531-0.054688 0.03125-0.082031 0.054688l-0.019532 0.007812-0.039062 0.035156-0.042969 0.019532-0.039063 0.035156c-0.74219 0.52344-1.3125 1.2031-1.6992 1.957l-0.015625 0.03125c-0.13672 0.27344-0.25391 0.57031-0.34766 0.86719l-23.758 77.73-92.082-41.332c-2.1641-0.96094-4.7031-0.42578-6.293 1.3242l-45.863 50.629c-2.0273 2.2422-1.8555 5.6992 0.38281 7.7344 2.2344 2.0234 5.6953 1.8477 7.7227-0.38281l43.195-47.688 94.047 42.207c0.042969 0.011719 0.085937 0.03125 0.12891 0.054687l4.4922 2.0117-76.879 59.742-94.391-23.867 14.547-16.055c2.0234-2.2422 1.8516-5.6992-0.38281-7.7344-2.2383-2.0234-5.6992-1.8477-7.7266 0.38281l-20.617 22.773c-0.44922 0.48047-0.8125 1.0469-1.0664 1.6836l-0.023438 0.066406-0.007812 0.019532c-0.10547 0.27344-0.1875 0.57031-0.24609 0.85547l-0.007812 0.042969c-0.14844 0.75391-0.12891 1.5078 0.03125 2.2188l0.007812 0.035157c0.14844 0.65625 0.41797 1.2891 0.81641 1.8672l46.172 67.531-39.121-4.1133c-2.3555-0.25391-4.6055 1.0508-5.5664 3.2148l-49.281 110.69c-0.27734 0.60156-0.44531 1.2578-0.48438 1.9453l-0.003906 0.054688-0.003906 0.035156c-0.011719 0.29297 0 0.58984 0.035156 0.88672l0.003906 0.042969c0.097656 0.76562 0.35156 1.4766 0.72656 2.0977l0.015625 0.035156c0.34375 0.57812 0.80078 1.0938 1.3594 1.5195l260.87 199.95c0.98047 0.77734 2.1914 1.1914 3.4102 1.1914h0.003906c1.1211 0 2.2539-0.33984 3.2305-1.0625 1.957-1.4297 2.6797-3.9141 1.9688-6.1016l-16.957-55.477 115.04-5.5547c3.0117-0.15234 5.3438-2.7109 5.1953-5.7305-0.14453-3.0078-2.7109-5.3398-5.7266-5.1953l-117.8 5.6875-3.1953-10.457 168.6-58.273 71.551 57.289-92.496 4.4609c-3.0156 0.15625-5.3438 2.7148-5.1992 5.7344 0.14453 3.0078 2.7109 5.3359 5.7266 5.1953l106.93-5.1641c0.70313-0.03125 1.3711-0.20703 1.9805-0.48047l0.03125-0.011719c0.66797-0.30469 1.2773-0.74219 1.793-1.3242l0.027344-0.019531c0.19531-0.23047 0.375-0.46094 0.53516-0.72266l0.015625-0.023438 0.03125-0.042969c0.35547-0.58984 0.58984-1.2266 0.70703-1.8711l22.504-119.07c0.4375-2.3281-0.67187-4.668-2.75-5.8047l-106.28-58.199c-0.69922-0.39453-1.4883-0.63672-2.3359-0.69141h-0.12891-0.097656-0.17578c-0.90625 0.011719-1.7617 0.24219-2.5117 0.64844l-0.03125 0.007812c-0.26953 0.15625-0.53125 0.32031-0.78125 0.51562l-76.793 60.66 69.898-88.691c0.19531-0.24219 0.36719-0.50391 0.51562-0.77734l0.015626-0.035156c0.40234-0.75391 0.63281-1.6055 0.64453-2.5156v-0.16406c0-0.03125-0.003907-0.0625-0.003907-0.097657v-0.03125l-0.003906-0.042969-0.003906-0.054687c-0.050781-0.85547-0.29688-1.6406-0.6875-2.3438l-39.93-72.742 61.191-46.812c0.55859-0.42969 1.0156-0.95313 1.3594-1.5234l0.019531-0.03125c0.375-0.625 0.625-1.3359 0.72266-2.1016l0.003907-0.042969c0.035156-0.29297 0.046874-0.58984 0.035156-0.88672l-0.003906-0.03125v-0.054688c-0.042969-0.6875-0.21094-1.3438-0.48438-1.9453l-28.898-64.906c-1.2266-2.7539-4.4609-4-7.2188-2.7656-2.7578 1.2266-4 4.4609-2.7734 7.2188l25.219 56.633-97.129-6.7578-54.414-80.73 107.55-11.309 10.008 22.477c1.2266 2.7578 4.4609 4.0039 7.2188 2.7656 2.7578-1.2227 4-4.4609 2.7695-7.2188l-11.621-26.094c-0.96094-2.168-3.2109-3.4688-5.5664-3.2188zm-44.953 358.45-38.57-126.2-52.43 77.797 21.234 28.984c1.7852 2.4297 1.2578 5.8516-1.1758 7.6445-2.4375 1.7852-5.8594 1.25-7.6445-1.1797l-21.727-29.664-91.438 6.3672 219.18 168-92.398-126.11c-1.7812-2.4375-1.2539-5.8633 1.1797-7.6445 2.4375-1.7852 5.8594-1.2578 7.6445 1.1797l95.887 130.87-9.5742-31.324c-0.023438-0.066406-0.042969-0.13281-0.0625-0.19531l-13.602-44.516-16.449-53.812c-0.019531-0.066406-0.042968-0.13281-0.058593-0.19922zm212.56-83.484-1.2305 97.344 76.004 60.855 20.082-106.27zm-187.39-124.83 60.93 75.941 12.602-0.17578c3.0195-0.042968 5.5039 2.375 5.543 5.3906 0.042969 3.0195-2.375 5.5039-5.3945 5.5469l-11.426 0.15234-59.938 173.97 4.3594 14.273 57.812-73.348c0.042969-0.054688 0.082031-0.10938 0.12891-0.16406l91.438-116.01-58.926 0.80859c-3.0156 0.03125-5.5-2.3867-5.543-5.4023-0.039062-3.0195 2.375-5.5039 5.3945-5.5352l61.301-0.84375-37.805-68.871c-0.023437-0.046874-0.050781-0.10156-0.078125-0.14453l-14.152-25.789zm72.746 208.95-51.293 65.066 153.78-53.145 1.1836-93.812zm-87.152-2.8242 11.281 36.914 55.305-160.53-57.355-71.5zm3.4766-215.18 12.145-2.3086 0.66797-32.551-74.188 57.652 15.68 54.25 32.738 107.11 8.4648-179.04c0.035156-0.69922 0.19922-1.3672 0.47656-1.9766l0.011719-0.035156c0.30469-0.66797 0.74219-1.2773 1.3164-1.793l0.03125-0.03125c0.22266-0.1875 0.46094-0.375 0.71094-0.52734l0.023437-0.019531 0.050781-0.035156c0.58984-0.34766 1.2227-0.58984 1.8711-0.69922zm-212.1 170.59 97.129-6.7617 54.414-80.738-107.55-11.301zm94.574-104.49 59.078 6.2148-13.594-47.043-88.742-22.445zm255.42-62.223 48.371-37-91.656-6.3789-21.648 25.629 46.074-8.7617c2.3242-0.4375 4.6719 0.66797 5.8125 2.7461zm-114.77-8.2812 32.785-6.2344 29.469-34.891-52.27-77.547-20.805 68.078 8.4023 3.7734c0.73437 0.31641 1.4062 0.79688 1.957 1.4414l0.011719 0.011719 0.023437 0.03125 0.03125 0.035156 0.015625 0.019531c0.023438 0.023438 0.042969 0.054688 0.0625 0.078126l0.015625 0.023437 0.027344 0.03125 0.0625 0.085937c0.53906 0.72266 0.87109 1.5547 1.0039 2.3984l0.003906 0.03125c0.046875 0.29688 0.066407 0.61328 0.058594 0.92969z" fill-rule="evenodd"/>
  </g>
</svg>