<?xml version="1.0" encoding="UTF-8"?>
<svg width="700pt" height="700pt" version="1.1" viewBox="0 0 700 700" xmlns="http://www.w3.org/2000/svg">
 <path d="m194.25 26.25c-4.8242 0.066406-8.6797 4.043-8.6133 8.8672v80.527c-0.066407 4.8789 3.8633 8.8711 8.7461 8.8711 4.8789 0 8.8125-3.9922 8.7422-8.8711v-80.527c0.066406-4.9297-3.9453-8.9414-8.875-8.8672zm155.61 0c-4.8242 0.066406-8.6797 4.043-8.6133 8.8672v38.543c-0.066406 4.8789 3.8672 8.8672 8.7461 8.8672s8.8125-3.9922 8.7422-8.8672v-38.543c0.066407-4.9297-3.9453-8.9414-8.875-8.8672zm155.61 0c-4.8242 0.066406-8.6797 4.043-8.6133 8.8672v80.527c-0.066406 4.8789 3.8672 8.8672 8.7461 8.8672s8.8125-3.9922 8.7422-8.8672v-80.527c0.066407-4.9297-3.9453-8.9414-8.875-8.8672zm-155.48 91.078c-0.066407 0-0.16406 0-0.23047 0.003906-117.92 0.13281-213.18 94.41-215.15 211.89-0.066406 3.3906 1.8516 6.5078 4.8945 8 3.043 1.4922 6.6758 1.0898 9.3203-1.0312 16.863-13.535 38.211-21.633 61.66-21.633 24.59 0 46.848 8.9375 64.066 23.699 3.2734 2.8047 8.1055 2.8047 11.379 0 16.129-13.816 36.676-22.535 59.41-23.59-2.5742 1.625-4.1211 4.4688-4.082 7.5117v172.84c0 21.309 17.426 38.738 38.734 38.738 21.309 0 38.734-17.43 38.734-38.738v-15.102c0.066407-4.875-3.8672-8.8672-8.7422-8.8672-4.8789 0-8.8125 3.9883-8.7461 8.8672v15.098c0 11.922-9.3242 21.246-21.246 21.246-11.922 0-21.246-9.3242-21.246-21.246v-172.84c0.03125-3.043-1.5039-5.8867-4.0781-7.5117 22.73 1.0547 43.277 9.7734 59.402 23.59 3.2734 2.8047 8.1055 2.8047 11.379 0 17.223-14.762 39.477-23.699 64.066-23.699 23.449 0 44.797 8.0977 61.66 21.633 2.6445 2.1211 6.2773 2.5234 9.3203 1.0312 3.043-1.4922 4.9531-4.6094 4.8945-7.9961-1.9727-117.55-97.34-211.87-215.36-211.89h-0.03125zm0 17.488c102.87 0 186.54 77.336 196.82 177.36-16.895-9.6016-36.461-15.105-57.309-15.105-26.223 0-50.375 8.7461-69.758 23.367-19.383-14.617-43.539-23.367-69.758-23.367-26.215 0-50.371 8.75-69.758 23.367-19.387-14.621-43.539-23.367-69.758-23.367-20.848 0-40.414 5.5039-57.309 15.105 9.9961-97.199 89.305-172.98 188.18-177.17 1.3906 0.43359 2.8672 0.50781 4.2969 0.23047 1.4375-0.26562 2.8594-0.40625 4.2773-0.41016h0.066407z"/>
</svg>
