<?xml version="1.0" encoding="utf-8"?>
<svg viewBox="-1.935 246.256 355.426 365.457" xmlns="http://www.w3.org/2000/svg">
  <g transform="matrix(0.665147, 0, 0, 0.665147, -57.114094, 242.595993)" style="">
    <path d="m586.6 300.27c-10.211-11.414-22.391-20.895-35.953-28-15.625-9.5195-30.406-18.48-37.969-33.602-3.6367-8.3047-6.0508-17.098-7.168-26.098-1.2305-11.41-4.7539-22.461-10.359-32.477-11.391-15.742-29.992-24.621-49.391-23.578-7.1328 0.17969-14.219 1.1914-21.113 3.0234-1.2695-7.9609-6.4727-14.742-13.832-18.031-8.4805-3.1953-17.637-4.1758-26.602-2.8555-7.5039 1.043-15.145 0.44922-22.398-1.7344-13.945-5.6016-19.543-19.434-25.426-34.047-5.6016-13.441-11.199-27.383-23.574-35.672v-0.003906c-14.098-8.4141-31.562-8.8828-46.09-1.2305-13.68 7.2305-25.254 17.879-33.598 30.91-31.695 44.801-38.305 97.273-38.305 133.28 0 45.586 10.246 90.16 20.328 125.83l-5.1523-5.6016c-25.199-27.441-70.785-73.809-93.688-76.047-4.1406-0.73438-8.3672 0.70312-11.199 3.8086-8.0625 9.0156-5.6016 23.352 1.5664 32.031 6.168 6.668 13.59 12.055 21.84 15.848l3.3047 1.793c54.375 29.848 92.121 82.375 128.8 133.22 6.3281 8.793 12.879 17.922 19.434 26.711l-0.003906 0.003907c2.7148 4.3047 6.4219 7.8945 10.809 10.469 2.2266 1.1133 4.6797 1.6914 7.168 1.6797 3.8203 0.11719 7.4766-1.5352 9.9141-4.4766 3.9219-4.9844 3.3047-11.93-1.8477-20.664-14.473-23.355-30.371-45.801-47.602-67.203 3.3047 1.6797 6.6641 3.2461 10.023 4.7031v0.003907c52.227 22.648 108.55 34.297 165.48 34.215 10.473 0 20.887-0.39062 31.359-1.2305 47.488-3.6406 82.098-16.238 105.84-38.527v-0.003907c14.43-13.715 24.082-31.691 27.555-51.293 3.9961-19.281-0.42578-39.348-12.152-55.16zm-347.2-199.02-0.003906-0.003906c7.543-11.941 18.035-21.738 30.465-28.445 12.051-6.3398 26.508-6.0664 38.305 0.72656 10.473 6.8867 15.398 19.098 20.551 31.977 6.2734 15.512 12.77 31.641 29.848 38.473 8.5117 2.7305 17.527 3.4961 26.379 2.2383 7.5312-1.1094 15.223-0.35938 22.398 2.1836 2.6406 1.0742 4.918 2.8867 6.5586 5.2227 1.6367 2.332 2.5703 5.0898 2.6836 7.9375-7.9648 2.7266-15.73 6.0039-23.242 9.8008-77.613 38.625-138.18 104.61-170.02 185.25-10.191-35.672-20.832-80.809-20.832-126.67 0-34.832 6.3828-85.457 36.848-128.69zm62.047 388.97c-2.0391 1.7617-4.9766 2.0117-7.2812 0.61719-3.2539-2.0352-5.9961-4.7969-8.0078-8.0625-6.4961-8.793-13.047-17.863-19.32-26.656-37.07-51.52-75.32-104.83-131.32-135.58l-3.3594-1.793v0.003906c-7.3359-3.3242-13.953-8.0391-19.488-13.891-4.8711-5.9375-6.9453-15.961-1.7344-21.727 0.84375-0.91016 2.0664-1.3672 3.3008-1.2344h1.0078c19.938 1.9609 71.344 51.574 117.15 106.01h0.28125c24.363 28.504 46.527 58.812 66.305 90.664 2.2969 3.8672 4.5352 9.0195 2.4648 11.648zm264.32-89.262c-22.398 21-55.441 32.93-100.8 36.398-66.172 5.0273-132.56-6.2383-193.37-32.816-11.898-4.3789-22.711-11.273-31.699-20.215-5.3633-5.8398-9.0586-13.016-10.695-20.777l0.61719-1.2891v0.003906c30.836-80.004 90.539-145.54 167.33-183.68 15.082-8.2227 31.754-13.109 48.887-14.34 16.664-0.98828 32.699 6.5117 42.617 19.938 5.0352 9.1367 8.1797 19.191 9.2383 29.57 1.2305 9.6641 3.8711 19.098 7.8398 28 8.5664 17.137 25.031 27.105 40.938 36.793v-0.003906c12.668 6.7422 24.043 15.672 33.602 26.379 22.23 28.613 10.527 72.688-14.504 96.039z"/>
  </g>
</svg>