<?xml version="1.0" encoding="UTF-8"?>
<svg version="1.1" viewBox="0 0 700 700" xmlns="http://www.w3.org/2000/svg">
 <g>
  <path d="m617.75 547.75h-533.75v-533.75h533.75zm-507.5-26.25h481.25v-481.25h-481.25z"/>
  <path d="m350 330.75c-28 0-50.75-22.75-50.75-50.75s22.75-50.75 50.75-50.75 50.75 22.75 50.75 50.75-22.75 50.75-50.75 50.75zm0-75.25c-14 0-24.5 10.5-24.5 24.5s10.5 24.5 24.5 24.5 24.5-10.5 24.5-24.5-10.5-24.5-24.5-24.5z"/>
  <path d="m350 330.75c-28 0-50.75-22.75-50.75-50.75s22.75-50.75 50.75-50.75 50.75 22.75 50.75 50.75-22.75 50.75-50.75 50.75zm0-75.25c-14 0-24.5 10.5-24.5 24.5s10.5 24.5 24.5 24.5 24.5-10.5 24.5-24.5-10.5-24.5-24.5-24.5z"/>
 </g>
</svg>
