<?xml version="1.0" encoding="utf-8"?>
<svg viewBox="144.032 347.968 342.832 316.036" xmlns="http://www.w3.org/2000/svg">
  <defs>
    <symbol id="w" overflow="visible">
      <path d="m0.03125 0h-0.015625-0.015625v-0.015625-0.015625h0.015625 0.015625-0.015625v0.015625 0.015625h0.015625v-0.015625z"/>
    </symbol>
    <symbol id="e" overflow="visible">
      <path d="m0.015625-0.015625v0.015625h-0.015625v-0.03125h0.015625v0.015625-0.015625z"/>
    </symbol>
    <symbol id="b" overflow="visible">
      <path d="m0.03125-0.015625h-0.015625v0.015625c0.0078125 0 0.015625-0.0039062 0.015625-0.015625v0.015625h-0.015625-0.015625v-0.015625l0.015625-0.015625v0.015625h0.015625z"/>
    </symbol>
    <symbol id="a" overflow="visible">
      <path d="m0.015625-0.015625v0.015625-0.015625zm0.015625 0v0.015625h-0.015625-0.015625v-0.015625h0.015625-0.015625v-0.015625h0.015625v0.015625h0.015625z"/>
    </symbol>
    <symbol id="d" overflow="visible">
      <path d="m0.015625-0.03125v0.015625 0.015625h-0.015625v-0.015625-0.015625z"/>
    </symbol>
    <symbol id="l" overflow="visible">
      <path d="m0.015625-0.015625v-0.015625h0.015625v0.03125h-0.015625-0.015625v-0.015625l0.015625-0.015625v0.015625zm0 0.015625v-0.015625 0.015625z"/>
    </symbol>
    <symbol id="k" overflow="visible">
      <path d="m0.015625 0v-0.015625 0.015625zm0-0.015625v-0.015625c0.0078125 0 0.015625 0.0078125 0.015625 0.015625v0.015625h-0.015625-0.015625v-0.03125h0.015625z"/>
    </symbol>
    <symbol id="j" overflow="visible">
      <path d="m0-0.03125h0.015625v0.015625-0.015625h0.015625l-0.015625 0.03125v0.015625h-0.015625v-0.015625h0.015625z"/>
    </symbol>
    <symbol id="i" overflow="visible">
      <path d="m0.015625-0.03125v0.015625 0.015625h0.015625v-0.015625c0-0.0078125-0.0078125-0.015625-0.015625-0.015625zm0 0h0.015625v0.015625 0.015625h-0.015625-0.015625v-0.015625-0.015625h0.015625z"/>
    </symbol>
    <symbol id="v" overflow="visible">
      <path d="m0-0.03125h0.015625v0.03125h-0.015625z"/>
    </symbol>
    <symbol id="f" overflow="visible">
      <path d="m0.03125-0.015625v0.015625h-0.015625v-0.015625 0.015625h-0.015625v-0.03125h0.015625v0.015625-0.015625c0.0078125 0 0.015625 0.0078125 0.015625 0.015625z"/>
    </symbol>
    <symbol id="h" overflow="visible">
      <path d="m0-0.03125h0.015625 0.015625v0.015625h-0.015625v0.015625h-0.015625zm0.015625 0v0.015625-0.015625z"/>
    </symbol>
    <symbol id="g" overflow="visible">
      <path d="m0.03125-0.03125v0.015625h-0.015625c0.0078125 0 0.015625 0.0078125 0.015625 0.015625h-0.015625-0.015625 0.015625v-0.015625h-0.015625l0.015625-0.015625h0.015625z"/>
    </symbol>
    <symbol id="c" overflow="visible">
      <path d="m0.015625-0.015625v0.015625-0.015625zm0-0.015625v0.015625h0.015625c0 0.011719-0.0078125 0.015625-0.015625 0.015625h-0.015625v-0.015625l0.015625-0.015625z"/>
    </symbol>
    <symbol id="u" overflow="visible">
      <path d="m0-0.03125h0.015625v0.015625-0.015625h0.015625l-0.015625 0.03125z"/>
    </symbol>
    <symbol id="t" overflow="visible">
      <path d="m0-0.03125h0.015625v0.015625-0.015625h0.015625l-0.015625 0.015625 0.015625 0.015625h-0.015625v-0.015625 0.015625h-0.015625z"/>
    </symbol>
    <symbol id="s" overflow="visible">
      <path d="m0.015625-0.03125v0.03125h-0.015625v-0.03125h0.015625z"/>
    </symbol>
    <symbol id="r" overflow="visible">
      <path d="m0.03125-0.015625v-0.015625c0.0078125 0 0.015625 0.0078125 0.015625 0.015625v0.015625h-0.015625v-0.015625 0.015625h-0.015625v-0.015625 0.015625h-0.015625v-0.03125h0.015625v0.015625-0.015625 0.015625h0.015625z"/>
    </symbol>
    <symbol id="q" overflow="visible">
      <path d="m0.03125-0.015625v0.015625h-0.015625v-0.015625 0.015625h-0.015625v-0.03125h0.015625v0.015625-0.015625c0.0078125 0 0.015625 0.0078125 0.015625 0.015625z"/>
    </symbol>
    <symbol id="p" overflow="visible">
      <path d="m0-0.03125h0.015625l0.015625 0.015625v-0.015625 0.03125l-0.015625-0.015625v0.015625h-0.015625z"/>
    </symbol>
    <symbol id="o" overflow="visible">
      <path d="m0-0.015625v-0.015625h0.015625v0.015625 0.015625-0.015625-0.015625h0.015625v0.03125h-0.015625-0.015625v-0.015625z"/>
    </symbol>
    <symbol id="n" overflow="visible">
      <path d="m0-0.03125h0.015625v0.03125h-0.015625v0.015625zm0 0h0.015625z"/>
    </symbol>
    <symbol id="m" overflow="visible">
      <path d="m0.03125-0.03125v0.015625h-0.015625v0.015625h0.015625-0.015625-0.015625v-0.015625l0.015625-0.015625h0.015625z"/>
    </symbol>
    <symbol id="symbol-1" overflow="visible">
      <path d="m0.03125 0h-0.015625-0.015625v-0.015625-0.015625h0.015625 0.015625-0.015625v0.015625 0.015625h0.015625v-0.015625z"/>
    </symbol>
    <symbol id="symbol-2" overflow="visible">
      <path d="m0.015625-0.015625v0.015625h-0.015625v-0.03125h0.015625v0.015625-0.015625z"/>
    </symbol>
    <symbol id="symbol-3" overflow="visible">
      <path d="m0.03125-0.015625h-0.015625v0.015625c0.0078125 0 0.015625-0.0039062 0.015625-0.015625v0.015625h-0.015625-0.015625v-0.015625l0.015625-0.015625v0.015625h0.015625z"/>
    </symbol>
    <symbol id="symbol-4" overflow="visible">
      <path d="m0.015625-0.015625v0.015625-0.015625zm0.015625 0v0.015625h-0.015625-0.015625v-0.015625h0.015625-0.015625v-0.015625h0.015625v0.015625h0.015625z"/>
    </symbol>
    <symbol id="symbol-5" overflow="visible">
      <path d="m0.015625-0.03125v0.015625 0.015625h-0.015625v-0.015625-0.015625z"/>
    </symbol>
    <symbol id="symbol-6" overflow="visible">
      <path d="m0.015625-0.015625v-0.015625h0.015625v0.03125h-0.015625-0.015625v-0.015625l0.015625-0.015625v0.015625zm0 0.015625v-0.015625 0.015625z"/>
    </symbol>
    <symbol id="symbol-7" overflow="visible">
      <path d="m0.015625 0v-0.015625 0.015625zm0-0.015625v-0.015625c0.0078125 0 0.015625 0.0078125 0.015625 0.015625v0.015625h-0.015625-0.015625v-0.03125h0.015625z"/>
    </symbol>
    <symbol id="symbol-8" overflow="visible">
      <path d="m0-0.03125h0.015625v0.015625-0.015625h0.015625l-0.015625 0.03125v0.015625h-0.015625v-0.015625h0.015625z"/>
    </symbol>
    <symbol id="symbol-9" overflow="visible">
      <path d="m0.015625-0.03125v0.015625 0.015625h0.015625v-0.015625c0-0.0078125-0.0078125-0.015625-0.015625-0.015625zm0 0h0.015625v0.015625 0.015625h-0.015625-0.015625v-0.015625-0.015625h0.015625z"/>
    </symbol>
    <symbol id="symbol-10" overflow="visible">
      <path d="m0-0.03125h0.015625v0.03125h-0.015625z"/>
    </symbol>
    <symbol id="symbol-11" overflow="visible">
      <path d="m0.03125-0.015625v0.015625h-0.015625v-0.015625 0.015625h-0.015625v-0.03125h0.015625v0.015625-0.015625c0.0078125 0 0.015625 0.0078125 0.015625 0.015625z"/>
    </symbol>
    <symbol id="symbol-12" overflow="visible">
      <path d="m0-0.03125h0.015625 0.015625v0.015625h-0.015625v0.015625h-0.015625zm0.015625 0v0.015625-0.015625z"/>
    </symbol>
    <symbol id="symbol-13" overflow="visible">
      <path d="m0.03125-0.03125v0.015625h-0.015625c0.0078125 0 0.015625 0.0078125 0.015625 0.015625h-0.015625-0.015625 0.015625v-0.015625h-0.015625l0.015625-0.015625h0.015625z"/>
    </symbol>
    <symbol id="symbol-14" overflow="visible">
      <path d="m0.015625-0.015625v0.015625-0.015625zm0-0.015625v0.015625h0.015625c0 0.011719-0.0078125 0.015625-0.015625 0.015625h-0.015625v-0.015625l0.015625-0.015625z"/>
    </symbol>
    <symbol id="symbol-15" overflow="visible">
      <path d="m0-0.03125h0.015625v0.015625-0.015625h0.015625l-0.015625 0.03125z"/>
    </symbol>
    <symbol id="symbol-16" overflow="visible">
      <path d="m0-0.03125h0.015625v0.015625-0.015625h0.015625l-0.015625 0.015625 0.015625 0.015625h-0.015625v-0.015625 0.015625h-0.015625z"/>
    </symbol>
    <symbol id="symbol-17" overflow="visible">
      <path d="m0.015625-0.03125v0.03125h-0.015625v-0.03125h0.015625z"/>
    </symbol>
    <symbol id="symbol-18" overflow="visible">
      <path d="m0.03125-0.015625v-0.015625c0.0078125 0 0.015625 0.0078125 0.015625 0.015625v0.015625h-0.015625v-0.015625 0.015625h-0.015625v-0.015625 0.015625h-0.015625v-0.03125h0.015625v0.015625-0.015625 0.015625h0.015625z"/>
    </symbol>
    <symbol id="symbol-19" overflow="visible">
      <path d="m0.03125-0.015625v0.015625h-0.015625v-0.015625 0.015625h-0.015625v-0.03125h0.015625v0.015625-0.015625c0.0078125 0 0.015625 0.0078125 0.015625 0.015625z"/>
    </symbol>
    <symbol id="symbol-20" overflow="visible">
      <path d="m0-0.03125h0.015625l0.015625 0.015625v-0.015625 0.03125l-0.015625-0.015625v0.015625h-0.015625z"/>
    </symbol>
    <symbol id="symbol-21" overflow="visible">
      <path d="m0-0.015625v-0.015625h0.015625v0.015625 0.015625-0.015625-0.015625h0.015625v0.03125h-0.015625-0.015625v-0.015625z"/>
    </symbol>
    <symbol id="symbol-22" overflow="visible">
      <path d="m0-0.03125h0.015625v0.03125h-0.015625v0.015625zm0 0h0.015625z"/>
    </symbol>
    <symbol id="symbol-23" overflow="visible">
      <path d="m0.03125-0.03125v0.015625h-0.015625v0.015625h0.015625-0.015625-0.015625v-0.015625l0.015625-0.015625h0.015625z"/>
    </symbol>
  </defs>
  <g transform="matrix(1, 0, 0, 1, -39.598421, 111.192104)">
    <g transform="matrix(1, 0, 0, 1, 83.268472, -77.037224)">
      <g transform="matrix(0.643598, 0, 0, 0.647945, 46.518616, 290.405182)" style="">
        <path d="m487.41 142.61c-3.1953-3.1953-7.375-4.7969-11.551-4.7969s-8.3516 1.5977-11.551 4.7852c-3.1836 3.1836-4.7852 7.3633-4.7852 11.551 0 4.1758 1.5977 8.3516 4.7852 11.551 3.1836 3.1836 7.3633 4.7852 11.551 4.7852 4.1758 0 8.3516-1.5977 11.551-4.7852 3.1836-3.1836 4.7852-7.3633 4.7852-11.551-0.011718-4.1758-1.6133-8.3555-4.7852-11.539zm-137.41 363.91c-62.547 0-119.18-25.352-160.17-66.348s-66.348-97.625-66.348-160.17c0-62.559 25.352-119.19 66.348-160.17s97.613-66.348 160.17-66.348c62.547 0 119.18 25.352 160.17 66.348s66.348 97.625 66.348 160.17c0 62.559-25.352 119.19-66.348 160.17s-97.613 66.348-160.17 66.348zm0-441.84c59.465 0 113.3 24.102 152.25 63.07 38.965 38.965 63.07 92.797 63.07 152.25s-24.102 113.3-63.07 152.25c-38.965 38.965-92.797 63.07-152.25 63.07-59.465 0-113.3-24.102-152.25-63.07-38.965-38.965-63.07-92.797-63.07-152.25s24.102-113.3 63.07-152.25c38.953-38.965 92.785-63.07 152.25-63.07zm0 64.867c7.5938 0 14.477-3.0781 19.461-8.0625 4.9805-4.9805 8.0625-11.863 8.0625-19.461 0-7.5938-3.0781-14.477-8.0625-19.461-4.9805-4.9805-11.863-8.0625-19.461-8.0625-7.5938 0-14.477 3.0781-19.461 8.0625-4.9805 4.9805-8.0625 11.863-8.0625 19.461 0 7.5938 3.0781 14.477 8.0625 19.461 4.9844 4.9805 11.855 8.0625 19.461 8.0625zm0-43.855c-4.5039 0-8.5859 1.832-11.551 4.7852-2.9531 2.9531-4.7852 7.0352-4.7852 11.551 0 4.5039 1.832 8.5859 4.7852 11.551 2.9531 2.9531 7.0352 4.7852 11.551 4.7852 4.5039 0 8.5859-1.832 11.551-4.7852 2.9531-2.9531 4.7852-7.0352 4.7852-11.551 0-4.5039-1.832-8.5859-4.7852-11.551-2.9648-2.9531-7.0469-4.7852-11.551-4.7852zm0 399.82c7.5938 0 14.477-3.0781 19.461-8.0625 4.9805-4.9805 8.0625-11.863 8.0625-19.461 0-7.5938-3.0781-14.477-8.0625-19.461-4.9805-4.9805-11.863-8.0625-19.461-8.0625-7.5938 0-14.477 3.0781-19.461 8.0625-4.9805 4.9805-8.0625 11.863-8.0625 19.461 0 7.5938 3.0781 14.477 8.0625 19.461 4.9844 4.9844 11.855 8.0625 19.461 8.0625zm0-43.855c-4.5039 0-8.5859 1.832-11.551 4.7852-2.9531 2.9531-4.7852 7.0352-4.7852 11.551 0 4.5039 1.832 8.5859 4.7852 11.551 2.9531 2.9531 7.0352 4.7852 11.551 4.7852 4.5039 0 8.5859-1.832 11.551-4.7852 2.9531-2.9531 4.7852-7.0352 4.7852-11.551 0-4.5039-1.832-8.5859-4.7852-11.551-2.9648-2.9531-7.0469-4.7852-11.551-4.7852zm-99.691-131.02c-3.9336 3.5-8.4102 5.4844-12.832 5.832-4.5039 0.35156-9.0195-1.0156-12.879-4.2227-2.6367-10.301-4.0469-21.105-4.0469-32.234 0-35.746 14.488-68.109 37.918-91.523 23.426-23.426 55.789-37.918 91.523-37.918 35.746 0 68.109 14.488 91.523 37.918 23.426 23.426 37.918 55.789 37.918 91.523 0 11.551-1.5156 22.738-4.3516 33.391-4.1992 3.0664-8.8672 4.5391-13.371 4.2578-4.3984-0.28125-8.7266-2.2734-12.332-6.125-0.17578-0.25781-0.36328-0.5-0.58203-0.72266-0.19922-0.21094-0.39844-0.42188-0.59375-0.61719-0.21094-0.24609-0.44141-0.47656-0.6875-0.67578-0.82812-0.80469-1.6914-1.5742-2.5781-2.2969-6.1367-5.0039-13.242-7.6172-20.324-7.6289-7.1875-0.011719-14.246 2.625-20.113 8.1328-0.83984 0.78125-1.6562 1.6445-2.4609 2.5664-0.24609 0.22266-0.5 0.43359-0.74609 0.62891-4.1289 3.3711-8.7734 5.1211-13.289 5.1328-4.3984 0.011718-8.7617-1.6562-12.461-5.1211-0.75781-0.71094-1.4805-1.4805-2.1484-2.3086-0.44141-0.54688-0.96875-0.99219-1.5508-1.3164-0.53516-0.48828-1.0742-0.95703-1.6328-1.4102-6.1367-5.0039-13.254-7.6172-20.324-7.6289-7.1875-0.011719-14.246 2.625-20.113 8.1328-1.0273 0.95703-2.0195 2.0195-2.9883 3.1953-0.58203 0.57031-1.1797 1.1094-1.7852 1.5859-4.1289 3.3711-8.7734 5.1211-13.289 5.1328-4.3984 0.011719-8.7617-1.6562-12.461-5.1211-0.16406-0.15234-0.32812-0.31641-0.48828-0.46484-0.19922-0.31641-0.42188-0.60547-0.6875-0.88672-1.2148-1.2969-2.4961-2.4961-3.8516-3.5938-6.1367-5.0039-13.242-7.6172-20.324-7.6289-7.1875-0.011719-14.246 2.625-20.113 8.1328-1.0859 1.0156-2.1367 2.1484-3.1602 3.3945-0.09375 0.16016-0.21094 0.32422-0.31641 0.48828zm38.371 5.5781c-0.48828-0.45312-0.98047-0.88672-1.4688-1.2969-4.1289-3.3711-8.7734-5.1211-13.289-5.1328-4.3984-0.011718-8.7617 1.6562-12.461 5.1211l-0.24609 0.23438c-0.23438 0.46484-0.53516 0.91016-0.91016 1.3086-0.09375 0.11719-0.19922 0.23438-0.30469 0.33984-6.2539 6.5352-13.93 10.23-21.664 10.852-3.0469 0.24609-6.0898 0-9.043-0.72266 3.5938 9.2383 8.2148 17.953 13.719 26.027 1.2148-0.070312 2.4023-0.30469 3.5586-0.73437 1.5156-0.57031 3.0234-1.5156 4.457-2.9414 0.89844-1.0625 1.8203-2.043 2.7656-2.918 5.8789-5.5078 12.926-8.1562 20.113-8.1328 7.082 0.011719 14.199 2.625 20.324 7.6289 0.35156 0.28125 0.6875 0.57031 1.0273 0.86328 0.62891 0.33984 1.2031 0.80469 1.6797 1.3867 0.67578 0.81641 1.3867 1.5859 2.1484 2.3086 3.6992 3.4648 8.0625 5.1328 12.461 5.1211 4.5039-0.011719 9.1602-1.7734 13.289-5.1328 0.62891-0.51172 1.2617-1.0859 1.8789-1.6914 0.94531-1.1328 1.9141-2.1602 2.8945-3.0781 5.8789-5.5078 12.926-8.1562 20.113-8.1328 7.082 0.011718 14.199 2.625 20.324 7.6289 1.3516 1.1094 2.6484 2.3086 3.8516 3.5938 0.24609 0.26953 0.46484 0.54688 0.65234 0.85156 0.31641 0.33984 0.64062 0.65234 0.98047 0.96875 3.6992 3.4648 8.0625 5.1328 12.461 5.1211 4.5039-0.011719 9.1602-1.7734 13.289-5.1328 0.39844-0.32813 0.80469-0.67578 1.2031-1.0391 0.51172-0.54688 1.0391-1.0742 1.5625-1.5742l0.26953-0.24609 0.082032-0.082031c5.7969-5.2852 12.715-7.8281 19.762-7.8164 7.082 0.011719 14.199 2.625 20.324 7.6289 1.3516 1.1094 2.6484 2.3086 3.8516 3.5938 0.17578 0.17578 0.32812 0.375 0.46484 0.57031 1.0273 0.93359 2.1484 1.5977 3.3125 2.0547 1.2148 0.46484 2.5078 0.71094 3.8281 0.78125 5.7383-8.1797 10.57-17.047 14.316-26.461-3.0469 0.79297-6.1484 1.0977-9.2266 0.91016-7.7109-0.47656-15.156-4.0469-21-10.941-0.058594-0.058594-0.10547-0.11719-0.15234-0.17578l-0.070312-0.082031c-0.62891-0.62891-1.2734-1.2031-1.9258-1.7266-4.1289-3.3711-8.7734-5.1211-13.289-5.1328-4.1875-0.011718-8.3398 1.4922-11.922 4.6328-0.15234 0.21094-0.31641 0.42188-0.5 0.61719-0.6875 0.73438-1.3867 1.4336-2.125 2.1016l-0.058594 0.070312c-0.44141 0.53516-0.95703 0.98047-1.5273 1.3086l-0.15234 0.11719c-6.1367 5.0039-13.242 7.6172-20.324 7.6289-7.1875 0.011719-14.234-2.625-20.113-8.1328-0.47656-0.44141-0.94531-0.91016-1.3984-1.3984-0.19922-0.16406-0.38672-0.32812-0.55859-0.51172-0.91016-0.96875-1.832-1.832-2.7656-2.5898-4.1289-3.3711-8.7734-5.1211-13.289-5.1328-4.3984-0.011719-8.7617 1.6562-12.461 5.1211-0.29297 0.28125-0.58203 0.55859-0.86328 0.85156-0.1875 0.30469-0.41016 0.59375-0.66406 0.86328-1.2148 1.2969-2.4961 2.4961-3.8516 3.5938-6.1367 5.0039-13.242 7.6172-20.324 7.6289-7.1875 0.011718-14.246-2.625-20.113-8.1328-0.96484-1.0156-1.9453-2.0664-2.9023-3.207zm196.83 1.5391c-0.046874 0.23438-0.11719 0.46484-0.19922 0.69922-4.4688 15.727-11.598 30.332-20.883 43.297-0.36328 1.0039-1.0156 1.8906-1.8555 2.5312-3.9766 5.3086-8.3164 10.324-12.996 15.004-25.375 25.445-60.434 41.219-99.203 41.324-0.12891 0-0.24609 0-0.375-0.011719-0.12891 0.011719-0.24609 0.011719-0.375 0.011719-38.77-0.10547-73.84-15.891-99.203-41.324-25.375-25.445-41.066-60.551-41.066-99.297 0-38.84 15.738-74 41.195-99.445 25.457-25.457 60.609-41.195 99.445-41.195 38.84 0 74 15.738 99.445 41.195 25.457 25.457 41.195 60.609 41.195 99.445 0.007813 13.09-1.7773 25.75-5.125 37.766zm-226.25 39.094c-0.23437 0.26953-0.47656 0.51172-0.74609 0.73438-2.4961 2.3672-5.1914 4.0117-7.9805 5.0625l-0.12891 0.046875c2.5195 3.0234 5.168 5.9375 7.9453 8.7266 23.355 23.414 55.625 37.941 91.293 38.047 0.12891 0 0.24609 0 0.375 0.011718 0.12891-0.011718 0.24609-0.011718 0.375-0.011718 35.664-0.09375 67.934-14.629 91.293-38.047 2.332-2.3438 4.5859-4.7852 6.7422-7.293l-0.23438-0.09375c-3.2773-1.2617-6.3477-3.3359-9.0078-6.5-0.55859-0.53516-1.1211-1.0391-1.6914-1.5039-4.1289-3.3711-8.7734-5.1211-13.289-5.1328-4.2695-0.011719-8.5156 1.5625-12.133 4.8164-0.52344 0.55859-1.0742 1.0977-1.6211 1.6211-0.29297 0.31641-0.57031 0.64062-0.85156 0.98047-0.62891 0.78125-1.4336 1.3398-2.2969 1.6797-5.8789 4.457-12.59 6.7656-19.25 6.7891-7.1875 0.011719-14.234-2.625-20.113-8.1328-1.0273-0.95703-2.0312-2.0312-3-3.207-0.61719-0.60547-1.25-1.168-1.8789-1.6797-4.1289-3.3711-8.7734-5.1211-13.289-5.1328-4.3984-0.011718-8.7617 1.6562-12.461 5.1211-0.31641 0.29297-0.61719 0.59375-0.91016 0.91016-0.1875 0.28125-0.38672 0.54688-0.62891 0.79297-0.29297 0.31641-0.59375 0.61719-0.89844 0.92188-0.082032 0.082031-0.15234 0.16406-0.23438 0.23438-0.875 0.86328-1.7852 1.668-2.7305 2.4375-6.1367 5.0039-13.242 7.6172-20.324 7.6289-7.1875 0.011719-14.246-2.625-20.113-8.1328-0.35156-0.32812-0.69922-0.67578-1.0508-1.0273-0.15234-0.12891-0.29297-0.26953-0.43359-0.42188-0.91016-0.96875-1.832-1.832-2.7656-2.5898-4.1289-3.3711-8.7734-5.1211-13.289-5.1328-4.3984-0.011719-8.7617 1.6562-12.461 5.1211-0.44141 0.41016-0.86328 0.83984-1.2734 1.2852-0.16406 0.23438-0.33984 0.46484-0.54687 0.67578-0.125 0.125-0.26172 0.26562-0.39063 0.39453zm-15.645-183.23c5.3789-5.3789 8.0625-12.426 8.0625-19.461 0-7.0469-2.6836-14.094-8.0625-19.461-5.3789-5.3789-12.426-8.0625-19.461-8.0625s-14.07 2.6836-19.438 8.0391l-0.023438 0.023437c-5.3789 5.3789-8.0625 12.426-8.0625 19.461 0 7.0469 2.6836 14.094 8.0625 19.461 5.3789 5.3789 12.426 8.0625 19.461 8.0625 7.0352-0.003906 14.082-2.6875 19.461-8.0625zm-31.023-31c-3.1836 3.1836-4.7734 7.3633-4.7734 11.539 0 4.1758 1.5977 8.3516 4.7852 11.551 3.1836 3.1836 7.3633 4.7852 11.551 4.7852 4.1758 0 8.3516-1.5977 11.551-4.7852 3.1836-3.1836 4.7852-7.3633 4.7852-11.551 0-4.1758-1.5977-8.3516-4.7852-11.551-3.1836-3.1836-7.3633-4.7852-11.551-4.7852-4.1758 0-8.3672 1.6016-11.562 4.7969zm282.73 282.71 0.023438-0.023437c5.3555-5.3672 8.0391-12.402 8.0391-19.438 0-7.0469-2.6836-14.094-8.0625-19.461-5.3789-5.3789-12.426-8.0625-19.461-8.0625-7.0469 0-14.094 2.6836-19.461 8.0625-5.3789 5.3789-8.0625 12.426-8.0625 19.461 0 7.0469 2.6836 14.094 8.0625 19.461 5.3789 5.3789 12.426 8.0625 19.461 8.0625s14.082-2.6953 19.461-8.0625zm-31.012-31.012c-3.1836 3.1836-4.7852 7.3633-4.7852 11.551 0 4.1758 1.5977 8.3516 4.7852 11.551 3.1836 3.1836 7.3633 4.7852 11.551 4.7852 4.1758 0 8.3516-1.5859 11.539-4.7734l0.011718-0.011719c3.1836-3.1836 4.7852-7.3633 4.7852-11.551 0-4.1758-1.5977-8.3516-4.7852-11.551-3.1836-3.1836-7.3633-4.7852-11.551-4.7852-4.1875 0.003906-8.3633 1.5898-11.551 4.7852zm-264.76-114.31c0-7.5938-3.0781-14.477-8.0625-19.461-4.9805-4.9805-11.863-8.0625-19.461-8.0625-7.5938 0-14.477 3.0781-19.461 8.0625-4.9805 4.9805-8.0625 11.863-8.0625 19.461 0 7.5938 3.0781 14.477 8.0625 19.461 4.9805 4.9805 11.863 8.0625 19.461 8.0625 7.5938 0 14.477-3.0781 19.461-8.0625 4.9805-4.9844 8.0625-11.855 8.0625-19.461zm-43.855 0c0 4.5039 1.832 8.5859 4.7852 11.551 2.9531 2.9531 7.0352 4.7852 11.551 4.7852 4.5039 0 8.5859-1.832 11.551-4.7852 2.9531-2.9531 4.7852-7.0352 4.7852-11.551 0-4.5039-1.832-8.5859-4.7852-11.551-2.9531-2.9531-7.0352-4.7852-11.551-4.7852-4.5039 0-8.5859 1.832-11.551 4.7852-2.9531 2.9648-4.7852 7.0469-4.7852 11.551zm399.82 0c0-7.5938-3.0781-14.477-8.0625-19.461-4.9805-4.9805-11.863-8.0625-19.461-8.0625-7.5938 0-14.477 3.0781-19.461 8.0625-4.9805 4.9805-8.0625 11.863-8.0625 19.461 0 7.5938 3.0781 14.477 8.0625 19.461 4.9805 4.9805 11.863 8.0625 19.461 8.0625 7.5938 0 14.477-3.0781 19.461-8.0625 4.9844-4.9844 8.0625-11.855 8.0625-19.461zm-43.855 0c0 4.5039 1.832 8.5859 4.7852 11.551 2.9531 2.9531 7.0352 4.7852 11.551 4.7852 4.5039 0 8.5859-1.832 11.551-4.7852 2.9531-2.9531 4.7852-7.0352 4.7852-11.551 0-4.5039-1.832-8.5859-4.7852-11.551-2.9531-2.9531-7.0352-4.7852-11.551-4.7852-4.5039 0-8.5859 1.832-11.551 4.7852-2.9531 2.9648-4.7852 7.0469-4.7852 11.551zm-268.04 106.39c-5.3789-5.3789-12.426-8.0625-19.461-8.0625-7.0469 0-14.094 2.6836-19.461 8.0625-5.3789 5.3789-8.0625 12.426-8.0625 19.461s2.6836 14.07 8.0391 19.438l0.023437 0.023438c5.3789 5.3789 12.426 8.0625 19.461 8.0625 7.0469 0 14.094-2.6836 19.461-8.0625 5.3789-5.3789 8.0625-12.426 8.0625-19.461-0.003906-7.0352-2.6875-14.082-8.0625-19.461zm-31 31.023c3.1836 3.1836 7.3633 4.7734 11.539 4.7734 4.1758 0 8.3516-1.5977 11.551-4.7852 3.1836-3.1836 4.7852-7.3633 4.7852-11.551 0-4.1758-1.5977-8.3516-4.7852-11.551-3.1836-3.1836-7.3633-4.7852-11.551-4.7852-4.1758 0-8.3516 1.5977-11.551 4.7852-3.1836 3.1836-4.7852 7.3633-4.7852 11.551 0 4.1758 1.6016 8.3672 4.7969 11.562zm243.77-243.8c-5.3789-5.3789-8.0625-12.426-8.0625-19.461 0-7.0469 2.6836-14.094 8.0625-19.461 5.3789-5.3789 12.426-8.0625 19.461-8.0625s14.07 2.6836 19.438 8.0391l0.023438 0.023437c5.3789 5.3789 8.0625 12.426 8.0625 19.461 0 7.0469-2.6836 14.094-8.0625 19.461-5.3789 5.3789-12.426 8.0625-19.461 8.0625-7.0352-0.003906-14.082-2.6875-19.461-8.0625z" fill-rule="evenodd"/>
      </g>
    </g>
  </g>
</svg>