<?xml version="1.0" encoding="UTF-8"?>
<svg width="700pt" height="700pt" version="1.1" viewBox="0 0 700 700" xmlns="http://www.w3.org/2000/svg" xmlns:xlink="http://www.w3.org/1999/xlink">

 <g>
  <path d="m386.68 204.23h-75.375c-18.957 0.03125-37.129 7.5742-50.535 20.98-13.402 13.402-20.949 31.574-20.977 50.531v67.203c-0.046875 19.004 7.4648 37.25 20.879 50.715 13.41 13.465 31.625 21.047 50.633 21.074h75.375c18.957-0.027344 37.129-7.5703 50.535-20.977 13.402-13.406 20.949-31.578 20.977-50.535v-67.199c0.046875-19.004-7.4648-37.25-20.879-50.715s-31.625-21.047-50.633-21.078zm60.312 138.99c-0.015626 15.992-6.375 31.324-17.68 42.633-11.309 11.309-26.641 17.664-42.633 17.68h-75.375c-15.992-0.015625-31.324-6.3711-42.633-17.68-11.305-11.309-17.664-26.641-17.68-42.633v-67.199c-0.058594-16.039 6.2656-31.441 17.582-42.812 11.316-11.367 26.691-17.766 42.73-17.777h75.375c15.992 0.011718 31.324 6.3711 42.633 17.68 11.305 11.309 17.664 26.641 17.68 42.629z"/>
  <path d="m219.13 226.46c-9.3594-9.3594-13.141-22.934-9.9688-35.785l7.9531-31.863c0.22266-0.94922 0.92188-1.7109 1.8477-2.0156 0.85547-0.45703 1.8867-0.45703 2.7422 0l1.5664 0.67188c22.848 5.8789 59.695 20.832 61.602 36.062 0.37109 3.0938 3.1797 5.3008 6.2734 4.9297s5.2969-3.1797 4.9258-6.2734c-3.1914-26.879-59.527-42.895-69.105-45.414h0.003906c-3.8828-2.0391-8.4805-2.1914-12.484-0.41016-4.0078 1.7773-6.9805 5.293-8.0703 9.5352l-7.9531 31.922h0.003906c-4.1016 16.656 0.80469 34.242 12.934 46.367l14.84 14.84c1.0586 1.0508 2.4883 1.6328 3.9766 1.625 2.2656-0.007812 4.3008-1.3828 5.1602-3.4805 0.85938-2.0938 0.36719-4.5-1.2383-6.0977z"/>
  <path d="m501.7 187.99-7.9531-31.863h0.003906c-1.0586-4.2695-4.0234-7.8125-8.0391-9.6055-4.0117-1.7969-8.6289-1.6406-12.516 0.42187-9.5742 2.5195-65.91 18.535-69.105 45.414h0.003906c-0.36328 3.0586 1.8125 5.8359 4.8711 6.2148 3.0586 0.36328 5.8359-1.8125 6.2148-4.8711 1.8477-15.23 38.695-30.184 61.602-36.062l1.5664-0.67188c0.85938-0.45703 1.8867-0.45703 2.7461 0 0.9375 0.3125 1.6406 1.1016 1.8477 2.0703l7.9531 31.863h-0.003907c3.1719 12.852-0.60938 26.426-9.9648 35.785l-14.84 14.785c-1.6094 1.5938-2.0977 4-1.2422 6.0977 0.85938 2.0938 2.8945 3.4688 5.1602 3.4766 1.4883 0.007813 2.918-0.57422 3.9766-1.6211l14.84-14.84c12.188-12.188 17.078-29.879 12.879-46.594z"/>
  <path d="m348.99 285.94c-34.551 0-61.602 17.191-61.602 39.199 0 22.008 27.047 39.199 61.602 39.199 34.551 0 61.602-17.246 61.602-39.199s-26.992-39.199-61.602-39.199zm0 67.199c-27.328 0-50.398-12.824-50.398-28s23.07-28 50.398-28c27.328 0 50.398 12.824 50.398 28s-23.07 28-50.398 28z"/>
  <path d="m320.99 308.34c-4.457 0-8.7305 1.7695-11.879 4.9219-3.1523 3.1484-4.9219 7.4219-4.9219 11.879 0 4.4531 1.7695 8.7266 4.9219 11.879 3.1484 3.1484 7.4219 4.9219 11.879 4.9219 4.457 0 8.7305-1.7734 11.879-4.9219 3.1523-3.1523 4.9219-7.4258 4.9219-11.879 0-4.457-1.7695-8.7305-4.9219-11.879-3.1484-3.1523-7.4219-4.9219-11.879-4.9219zm0 22.398c-2.2656 0-4.3086-1.3633-5.1758-3.457-0.86328-2.0898-0.38672-4.5 1.2148-6.1016 1.6016-1.6016 4.0117-2.082 6.1055-1.2148 2.0898 0.86719 3.457 2.9102 3.457 5.1758 0 1.4844-0.58984 2.9102-1.6406 3.9609-1.0508 1.0469-2.4766 1.6367-3.9609 1.6367z"/>
  <path d="m376.99 308.34c-4.457 0-8.7305 1.7695-11.879 4.9219-3.1523 3.1484-4.9219 7.4219-4.9219 11.879 0 4.4531 1.7695 8.7266 4.9219 11.879 3.1484 3.1484 7.4219 4.9219 11.879 4.9219 4.457 0 8.7305-1.7734 11.879-4.9219 3.1523-3.1523 4.9219-7.4258 4.9219-11.879 0-4.457-1.7695-8.7305-4.9219-11.879-3.1484-3.1523-7.4219-4.9219-11.879-4.9219zm0 22.398c-2.2656 0-4.3086-1.3633-5.1758-3.457-0.86328-2.0898-0.38672-4.5 1.2148-6.1016 1.6016-1.6016 4.0117-2.082 6.1055-1.2148 2.0898 0.86719 3.457 2.9102 3.457 5.1758 0 1.4844-0.58984 2.9102-1.6406 3.9609-1.0508 1.0469-2.4766 1.6367-3.9609 1.6367z"/>
  <path d="m220.3 173.21c-0.375 1.4414-0.16016 2.9727 0.59766 4.2539 0.75391 1.2812 1.9922 2.2109 3.4336 2.5781 14.449 3.6953 36.176 12.938 37.184 20.945 0.34375 2.8281 2.7539 4.9492 5.6016 4.9258h0.67188c3.0547-0.37891 5.2344-3.1562 4.8711-6.2148-2.1836-18.426-38.246-28.617-45.473-30.465-1.4414-0.39062-2.9766-0.19141-4.2734 0.55469-1.293 0.74609-2.2344 1.9805-2.6133 3.4219z"/>
  <path d="m432.94 205.91c2.8477 0.023438 5.2578-2.0977 5.5977-4.9258 1.0078-8.0078 22.734-17.246 37.184-20.945 1.4414-0.36719 2.6797-1.2969 3.4375-2.5781 0.75391-1.2812 0.96875-2.8125 0.59766-4.2539-0.37109-1.4414-1.3008-2.6758-2.582-3.4336-1.2812-0.75781-2.8125-0.97266-4.25-0.59766-7.2227 1.8477-43.289 12.039-45.473 30.465-0.36328 3.0586 1.8125 5.8359 4.8711 6.2148z"/>

 </g>
</svg>
