<?xml version="1.0" encoding="UTF-8"?>
<svg width="700pt" height="700pt" version="1.1" viewBox="0 0 700 700" xmlns="http://www.w3.org/2000/svg">
 <g>
  <path d="m264.71 117.88c-5.2656-2.4648-11.48-0.16797-14 5.0977l-111.27 237.61v-54.547c13.105-4.4258 22.512-16.855 22.512-31.414 0-18.258-14.785-33.152-33.039-33.152-18.258 0-33.043 14.953-33.043 33.207 0 14.559 9.4648 26.938 22.566 31.414v84.617c0 3.0781 1.2891 5.7109 3.3594 7.6719l-24.973 53.203c-2.4102 5.375-0.22266 11.59 5.0977 14 1.3984 0.67187 2.9102 1.0078 4.3672 1.0078 3.9766 0 7.7852-2.2969 9.5195-5.9922l153.89-328.78c2.4648-5.2656 0.16797-11.48-4.9844-13.945zm-135.74 144.65c6.6641 0 12.152 5.4883 12.152 12.152 0 5.7109-4.0312 10.527-9.4062 11.762-0.89844-0.16797-1.8516-0.44922-2.7461-0.44922-1.0078 0-1.8477 0.28125-2.6875 0.44922-5.375-1.1758-9.4062-6.0469-9.4062-11.762-0.003906-6.6641 5.4297-12.152 12.094-12.152z"/>
  <path d="m312.14 124.66c-5.4883-1.5664-11.367 1.5664-12.992 7.1133l-96.879 328.83c-1.6797 5.4297 1.5117 11.367 7.0547 12.992 1.0078 0.22266 1.9609 0.44922 2.9688 0.44922 4.4805 0 8.7344-2.9688 10.078-7.5586l96.824-328.78c1.6797-5.543-1.457-11.367-7.0547-13.047z"/>
  <path d="m603.18 451.59-100.8-215.32c1.2891-1.793 2.2969-3.9766 2.2969-6.4414v-83.664h0.78516c3.6953 0 7.2227-1.9609 9.0703-5.2656l11.367-19.602c1.793-3.3047 1.793-7.2227 0-10.527l-11.367-19.602c-1.9023-3.1875-5.375-5.1484-9.1289-5.1484h-22.621c-3.6953 0-7.2227 1.9609-9.0703 5.2656l-11.258 19.602c-1.9023 3.3047-1.9023 7.2227 0 10.527l11.258 19.602c1.8438 3.1875 5.3711 5.1484 9.0703 5.1484h0.89453v50.176l-34.328-73.359c-2.5195-5.2656-8.7344-7.5586-14-5.0977-5.2656 2.4648-7.5039 8.6797-5.0391 13.945l153.89 328.78c1.793 3.6953 5.6016 5.9922 9.5195 5.9922 1.5117 0 2.9688-0.33594 4.4258-1.0078 5.1523-2.4102 7.4492-8.625 5.0391-14zm-114.3-344.57h10.414l5.375 9.0703-5.3711 9.0742h-10.418l-5.207-9.0703z"/>
  <path d="m400.9 131.77c-1.6797-5.543-7.5039-8.6797-13.047-7.1133-5.6016 1.6797-8.7344 7.5039-7.1133 13.047l96.879 328.78c1.3984 4.5938 5.4883 7.5586 10.078 7.5586 1.0078 0 1.9609-0.22266 2.9688-0.44922 5.6016-1.625 8.7344-7.5586 7.1133-12.992z"/>
  <path d="m339.53 131.04h21v31.527h-21z"/>
  <path d="m339.53 322h21v53.145h-21z"/>
  <path d="m339.53 215.71h21v53.145h-21z"/>
  <path d="m339.53 428.29h21v31.527h-21z"/>
 </g>
</svg>
