<?xml version="1.0" encoding="utf-8"?>
<svg viewBox="10.611 212.648 405.337 565.871" xmlns="http://www.w3.org/2000/svg">
  <defs>
    <symbol id="w" overflow="visible">
      <path d="m0.03125 0h-0.015625-0.015625v-0.015625-0.015625h0.015625 0.015625-0.015625v0.015625 0.015625h0.015625v-0.015625z"/>
    </symbol>
    <symbol id="e" overflow="visible">
      <path d="m0.015625-0.015625v0.015625h-0.015625v-0.03125h0.015625v0.015625-0.015625z"/>
    </symbol>
    <symbol id="b" overflow="visible">
      <path d="m0.03125-0.015625h-0.015625v0.015625c0.0078125 0 0.015625-0.0039062 0.015625-0.015625v0.015625h-0.015625-0.015625v-0.015625l0.015625-0.015625v0.015625h0.015625z"/>
    </symbol>
    <symbol id="a" overflow="visible">
      <path d="m0.015625-0.015625v0.015625-0.015625zm0.015625 0v0.015625h-0.015625-0.015625v-0.015625h0.015625-0.015625v-0.015625h0.015625v0.015625h0.015625z"/>
    </symbol>
    <symbol id="d" overflow="visible">
      <path d="m0.015625-0.03125v0.015625 0.015625h-0.015625v-0.015625-0.015625z"/>
    </symbol>
    <symbol id="l" overflow="visible">
      <path d="m0.015625-0.015625v-0.015625h0.015625v0.03125h-0.015625-0.015625v-0.015625l0.015625-0.015625v0.015625zm0 0.015625v-0.015625 0.015625z"/>
    </symbol>
    <symbol id="k" overflow="visible">
      <path d="m0.015625 0v-0.015625 0.015625zm0-0.015625v-0.015625c0.0078125 0 0.015625 0.0078125 0.015625 0.015625v0.015625h-0.015625-0.015625v-0.03125h0.015625z"/>
    </symbol>
    <symbol id="j" overflow="visible">
      <path d="m0-0.03125h0.015625v0.015625-0.015625h0.015625l-0.015625 0.03125v0.015625h-0.015625v-0.015625h0.015625z"/>
    </symbol>
    <symbol id="i" overflow="visible">
      <path d="m0.015625-0.03125v0.015625 0.015625h0.015625v-0.015625c0-0.0078125-0.0078125-0.015625-0.015625-0.015625zm0 0h0.015625v0.015625 0.015625h-0.015625-0.015625v-0.015625-0.015625h0.015625z"/>
    </symbol>
    <symbol id="v" overflow="visible">
      <path d="m0-0.03125h0.015625v0.03125h-0.015625z"/>
    </symbol>
    <symbol id="f" overflow="visible">
      <path d="m0.03125-0.015625v0.015625h-0.015625v-0.015625 0.015625h-0.015625v-0.03125h0.015625v0.015625-0.015625c0.0078125 0 0.015625 0.0078125 0.015625 0.015625z"/>
    </symbol>
    <symbol id="h" overflow="visible">
      <path d="m0-0.03125h0.015625 0.015625v0.015625h-0.015625v0.015625h-0.015625zm0.015625 0v0.015625-0.015625z"/>
    </symbol>
    <symbol id="g" overflow="visible">
      <path d="m0.03125-0.03125v0.015625h-0.015625c0.0078125 0 0.015625 0.0078125 0.015625 0.015625h-0.015625-0.015625 0.015625v-0.015625h-0.015625l0.015625-0.015625h0.015625z"/>
    </symbol>
    <symbol id="c" overflow="visible">
      <path d="m0.015625-0.015625v0.015625-0.015625zm0-0.015625v0.015625h0.015625c0 0.011719-0.0078125 0.015625-0.015625 0.015625h-0.015625v-0.015625l0.015625-0.015625z"/>
    </symbol>
    <symbol id="u" overflow="visible">
      <path d="m0-0.03125h0.015625v0.015625-0.015625h0.015625l-0.015625 0.03125z"/>
    </symbol>
    <symbol id="t" overflow="visible">
      <path d="m0-0.03125h0.015625v0.015625-0.015625h0.015625l-0.015625 0.015625 0.015625 0.015625h-0.015625v-0.015625 0.015625h-0.015625z"/>
    </symbol>
    <symbol id="s" overflow="visible">
      <path d="m0.015625-0.03125v0.03125h-0.015625v-0.03125h0.015625z"/>
    </symbol>
    <symbol id="r" overflow="visible">
      <path d="m0.03125-0.015625v-0.015625c0.0078125 0 0.015625 0.0078125 0.015625 0.015625v0.015625h-0.015625v-0.015625 0.015625h-0.015625v-0.015625 0.015625h-0.015625v-0.03125h0.015625v0.015625-0.015625 0.015625h0.015625z"/>
    </symbol>
    <symbol id="q" overflow="visible">
      <path d="m0.03125-0.015625v0.015625h-0.015625v-0.015625 0.015625h-0.015625v-0.03125h0.015625v0.015625-0.015625c0.0078125 0 0.015625 0.0078125 0.015625 0.015625z"/>
    </symbol>
    <symbol id="p" overflow="visible">
      <path d="m0-0.03125h0.015625l0.015625 0.015625v-0.015625 0.03125l-0.015625-0.015625v0.015625h-0.015625z"/>
    </symbol>
    <symbol id="o" overflow="visible">
      <path d="m0-0.015625v-0.015625h0.015625v0.015625 0.015625-0.015625-0.015625h0.015625v0.03125h-0.015625-0.015625v-0.015625z"/>
    </symbol>
    <symbol id="n" overflow="visible">
      <path d="m0-0.03125h0.015625v0.03125h-0.015625v0.015625zm0 0h0.015625z"/>
    </symbol>
    <symbol id="m" overflow="visible">
      <path d="m0.03125-0.03125v0.015625h-0.015625v0.015625h0.015625-0.015625-0.015625v-0.015625l0.015625-0.015625h0.015625z"/>
    </symbol>
  </defs>
  <g transform="matrix(1, 0, 0, 1, -39.598421, 111.192104)">
    <path d="M 394.649 201.186 L 394.649 126.231 L 386.385 126.231 C 376.272 126.231 311.302 154.715 311.302 201.314 L 311.31 201.314 C 311.233 202.793 311.233 204.272 311.31 205.752 C 274.038 188.733 231.211 188.733 193.942 205.752 C 194.019 204.272 194.019 202.793 193.942 201.314 C 193.942 154.713 128.969 126.231 118.858 126.231 L 111.101 126.231 L 111.101 201.314 C 111.093 211.11 114.54 220.587 120.827 228.094 C 127.114 235.602 135.851 240.658 145.491 242.37 C 123.278 268.049 111.065 300.873 111.101 334.835 L 111.101 468.226 C 111.101 470.445 111.986 472.578 113.56 474.143 L 125.023 485.606 L 111.711 633.548 L 111.711 633.556 C 111.358 638.097 114.696 642.096 119.236 642.552 L 119.976 642.552 C 124.24 642.517 127.793 639.276 128.231 635.035 L 140.563 501.395 L 177.553 538.383 L 177.553 553.425 L 177.553 553.415 C 177.577 568.388 183.537 582.723 194.124 593.309 C 204.71 603.888 219.046 609.847 234.017 609.881 L 271.006 609.881 L 270.998 609.881 C 285.969 609.847 300.305 603.888 310.892 593.309 C 321.477 582.724 327.428 568.388 327.463 553.415 L 327.463 538.374 L 364.452 501.386 L 376.784 635.026 L 376.784 635.035 C 377.222 639.276 380.774 642.517 385.039 642.552 L 385.779 642.552 C 390.319 642.096 393.656 638.097 393.304 633.556 L 379.991 485.614 L 391.454 474.152 L 391.454 474.143 C 393.029 472.578 393.913 470.445 393.913 468.226 L 393.913 334.835 C 393.948 300.873 381.737 268.049 359.523 242.37 C 369.319 240.813 378.246 235.808 384.687 228.258 C 391.128 220.707 394.664 211.11 394.654 201.185 L 394.649 201.186 Z M 127.734 201.186 L 127.734 146.08 C 144.624 153.725 177.784 174.193 177.784 201.186 C 177.784 215.015 166.578 226.22 152.759 226.22 C 138.939 226.22 127.734 215.015 127.734 201.186 Z M 378.005 464.645 L 313.655 528.996 L 313.655 529.006 C 312.08 530.57 311.196 532.704 311.186 534.922 L 311.186 553.411 C 311.281 564.049 307.137 574.292 299.663 581.851 C 292.19 589.418 281.998 593.693 271.362 593.727 L 234.373 593.727 L 234.382 593.727 C 223.83 593.693 213.717 589.488 206.253 582.032 C 198.798 574.566 194.592 564.462 194.556 553.911 L 194.556 535.413 C 194.548 533.195 193.663 531.061 192.089 529.497 L 127.738 465.146 L 127.738 334.833 C 127.738 290.122 151.585 248.81 190.302 226.458 C 229.026 204.108 276.722 204.108 315.446 226.458 C 354.162 248.809 378.01 290.122 378.01 334.833 L 378.005 464.645 Z M 378.005 201.186 C 378.005 215.015 366.8 226.22 352.982 226.22 C 339.161 226.22 327.956 215.015 327.956 201.186 C 327.956 174.182 361.116 153.724 378.005 146.08 L 378.005 201.186 Z" style=""/>
    <path d="M 319.577 259.638 C 305.766 259.664 292.238 263.499 280.473 270.723 C 268.7 277.947 259.154 288.266 252.877 300.565 C 246.581 288.293 237.027 277.99 225.262 270.793 C 213.489 263.596 199.971 259.777 186.176 259.76 C 181.584 259.76 177.86 263.483 177.86 268.084 C 177.86 272.676 181.584 276.401 186.176 276.401 C 201.673 276.401 216.543 282.557 227.499 293.522 C 238.464 304.478 244.613 319.339 244.613 334.846 L 244.613 480.569 C 244.613 485.161 248.345 488.883 252.937 488.883 C 257.538 488.883 261.262 485.161 261.262 480.569 L 261.262 334.846 C 261.262 319.339 267.419 304.479 278.375 293.522 C 289.332 282.557 304.199 276.401 319.698 276.401 C 324.299 276.401 328.022 272.676 328.022 268.084 C 328.022 263.483 324.299 259.76 319.698 259.76 L 319.577 259.638 Z" style=""/>
  </g>
</svg>