<?xml version="1.0" encoding="utf-8"?>
<svg viewBox="-60.556 58.001 584.289 549.224" xmlns="http://www.w3.org/2000/svg">
  <defs>
    <symbol id="w" overflow="visible">
      <path d="m0.03125 0h-0.015625-0.015625v-0.015625-0.015625h0.015625 0.015625-0.015625v0.015625 0.015625h0.015625v-0.015625z"/>
    </symbol>
    <symbol id="e" overflow="visible">
      <path d="m0.015625-0.015625v0.015625h-0.015625v-0.03125h0.015625v0.015625-0.015625z"/>
    </symbol>
    <symbol id="b" overflow="visible">
      <path d="m0.03125-0.015625h-0.015625v0.015625c0.0078125 0 0.015625-0.0039062 0.015625-0.015625v0.015625h-0.015625-0.015625v-0.015625l0.015625-0.015625v0.015625h0.015625z"/>
    </symbol>
    <symbol id="a" overflow="visible">
      <path d="m0.015625-0.015625v0.015625-0.015625zm0.015625 0v0.015625h-0.015625-0.015625v-0.015625h0.015625-0.015625v-0.015625h0.015625v0.015625h0.015625z"/>
    </symbol>
    <symbol id="d" overflow="visible">
      <path d="m0.015625-0.03125v0.015625 0.015625h-0.015625v-0.015625-0.015625z"/>
    </symbol>
    <symbol id="l" overflow="visible">
      <path d="m0.015625-0.015625v-0.015625h0.015625v0.03125h-0.015625-0.015625v-0.015625l0.015625-0.015625v0.015625zm0 0.015625v-0.015625 0.015625z"/>
    </symbol>
    <symbol id="k" overflow="visible">
      <path d="m0.015625 0v-0.015625 0.015625zm0-0.015625v-0.015625c0.0078125 0 0.015625 0.0078125 0.015625 0.015625v0.015625h-0.015625-0.015625v-0.03125h0.015625z"/>
    </symbol>
    <symbol id="j" overflow="visible">
      <path d="m0-0.03125h0.015625v0.015625-0.015625h0.015625l-0.015625 0.03125v0.015625h-0.015625v-0.015625h0.015625z"/>
    </symbol>
    <symbol id="i" overflow="visible">
      <path d="m0.015625-0.03125v0.015625 0.015625h0.015625v-0.015625c0-0.0078125-0.0078125-0.015625-0.015625-0.015625zm0 0h0.015625v0.015625 0.015625h-0.015625-0.015625v-0.015625-0.015625h0.015625z"/>
    </symbol>
    <symbol id="v" overflow="visible">
      <path d="m0-0.03125h0.015625v0.03125h-0.015625z"/>
    </symbol>
    <symbol id="f" overflow="visible">
      <path d="m0.03125-0.015625v0.015625h-0.015625v-0.015625 0.015625h-0.015625v-0.03125h0.015625v0.015625-0.015625c0.0078125 0 0.015625 0.0078125 0.015625 0.015625z"/>
    </symbol>
    <symbol id="h" overflow="visible">
      <path d="m0-0.03125h0.015625 0.015625v0.015625h-0.015625v0.015625h-0.015625zm0.015625 0v0.015625-0.015625z"/>
    </symbol>
    <symbol id="g" overflow="visible">
      <path d="m0.03125-0.03125v0.015625h-0.015625c0.0078125 0 0.015625 0.0078125 0.015625 0.015625h-0.015625-0.015625 0.015625v-0.015625h-0.015625l0.015625-0.015625h0.015625z"/>
    </symbol>
    <symbol id="c" overflow="visible">
      <path d="m0.015625-0.015625v0.015625-0.015625zm0-0.015625v0.015625h0.015625c0 0.011719-0.0078125 0.015625-0.015625 0.015625h-0.015625v-0.015625l0.015625-0.015625z"/>
    </symbol>
    <symbol id="u" overflow="visible">
      <path d="m0-0.03125h0.015625v0.015625-0.015625h0.015625l-0.015625 0.03125z"/>
    </symbol>
    <symbol id="t" overflow="visible">
      <path d="m0-0.03125h0.015625v0.015625-0.015625h0.015625l-0.015625 0.015625 0.015625 0.015625h-0.015625v-0.015625 0.015625h-0.015625z"/>
    </symbol>
    <symbol id="s" overflow="visible">
      <path d="m0.015625-0.03125v0.03125h-0.015625v-0.03125h0.015625z"/>
    </symbol>
    <symbol id="r" overflow="visible">
      <path d="m0.03125-0.015625v-0.015625c0.0078125 0 0.015625 0.0078125 0.015625 0.015625v0.015625h-0.015625v-0.015625 0.015625h-0.015625v-0.015625 0.015625h-0.015625v-0.03125h0.015625v0.015625-0.015625 0.015625h0.015625z"/>
    </symbol>
    <symbol id="q" overflow="visible">
      <path d="m0.03125-0.015625v0.015625h-0.015625v-0.015625 0.015625h-0.015625v-0.03125h0.015625v0.015625-0.015625c0.0078125 0 0.015625 0.0078125 0.015625 0.015625z"/>
    </symbol>
    <symbol id="p" overflow="visible">
      <path d="m0-0.03125h0.015625l0.015625 0.015625v-0.015625 0.03125l-0.015625-0.015625v0.015625h-0.015625z"/>
    </symbol>
    <symbol id="o" overflow="visible">
      <path d="m0-0.015625v-0.015625h0.015625v0.015625 0.015625-0.015625-0.015625h0.015625v0.03125h-0.015625-0.015625v-0.015625z"/>
    </symbol>
    <symbol id="n" overflow="visible">
      <path d="m0-0.03125h0.015625v0.03125h-0.015625v0.015625zm0 0h0.015625z"/>
    </symbol>
    <symbol id="m" overflow="visible">
      <path d="m0.03125-0.03125v0.015625h-0.015625v0.015625h0.015625-0.015625-0.015625v-0.015625l0.015625-0.015625h0.015625z"/>
    </symbol>
  </defs>
  <g transform="matrix(1, 0, 0, 1, -118.409836, 52.624306)">
    <path d="m321.99 398.18c20.074 10.062 43.328 11.734 64.641 4.6562 21.312-7.082 38.938-22.34 49-42.418l0.050782-0.10938c5.5781-11.695 8.4922-24.484 8.5391-37.445 0-45.371-77.199-100.78-80.488-103.11-2.2656-1.6133-5.3008-1.6211-7.5781-0.019531-3.2891 2.3125-80.512 57.141-80.512 103.13 0 14.328 2.8203 26.633 8.6211 37.617 8.2188 16.281 21.441 29.492 37.727 37.699zm37.918-164.97c22.938 17.113 71.184 59.391 71.184 89.645-0.039062 10.984-2.5078 21.824-7.2266 31.742-8.5117 16.945-23.406 29.82-41.406 35.793s-37.633 4.5547-54.59-3.9414c-13.777-6.9453-24.961-18.129-31.902-31.906-0.023438-0.042969-0.042969-0.085938-0.066406-0.12891-4.7969-9.0625-7.1289-19.379-7.1289-31.543-0.007813-30.715 48.203-72.715 71.137-89.66z"/>
    <path d="m569.61 359.5c-0.35938 0-0.70703 0.03125-1.0625 0.042969v-0.042969h-72.898c12.898-23.426 19.641-49.738 19.598-76.48 0-85.484-144.47-234.72-150.62-241.04-1.2344-1.2656-2.9297-1.9805-4.6992-1.9805-1.7695 0-3.4648 0.71484-4.6992 1.9805-26.484 27.797-51.484 56.969-74.891 87.398-50.246 65.719-75.727 117.41-75.727 153.62-0.039062 26.746 6.7031 53.062 19.605 76.492h-93.832c-27.727 0-49.449 35.246-49.449 80.242s21.723 80.242 49.449 80.242l434.74 0.003907v-0.32813c1.4844 0.21484 2.9844 0.32422 4.4844 0.32813 27.73 0 49.453-35.242 49.453-80.246 0-45-21.723-80.242-49.449-80.242zm-209.68-303.41c25.125 26.699 142.2 154.98 142.2 226.95 0.050781 34.66-12.316 68.191-34.859 94.52-26.488 31.887-65.812 50.309-107.27 50.254h-0.066406c-40.84 0-79.984-18.344-107.39-50.32v-0.003906c-22.516-26.32-34.859-59.832-34.801-94.473 0-71.926 117.07-200.23 142.19-226.93zm-265.87 383.66c0-36.383 16.637-67.121 36.324-67.121h101.91v0.003906c3.1836 4.6484 6.6133 9.1211 10.273 13.406 29.91 34.895 72.688 54.906 117.36 54.906h0.074218c45.32 0.0625 88.312-20.062 117.29-54.906 3.6602-4.2812 7.0898-8.7578 10.273-13.406h54.602c-13.352 14.219-22.008 38.723-22.008 67.121 0 28.395 8.6562 52.898 22.008 67.117h-411.79c-19.688 0-36.324-30.738-36.324-67.121zm475.55 67.117c-19.688 0-36.328-30.734-36.328-67.117 0-36.383 16.637-67.121 36.328-67.121 19.688 0.003906 36.324 30.738 36.324 67.121 0 36.383-16.637 67.121-36.324 67.121z"/>
    <path d="m289.62 468.93h-22.816c-3.625 0-6.5625 2.9375-6.5625 6.5625s2.9375 6.5625 6.5625 6.5625h22.816c3.625 0 6.5625-2.9375 6.5625-6.5625s-2.9375-6.5625-6.5625-6.5625z"/>
    <path d="m359.93 468.93h-22.816c-3.625 0-6.5625 2.9375-6.5625 6.5625s2.9375 6.5625 6.5625 6.5625h22.816c3.625 0 6.5625-2.9375 6.5625-6.5625s-2.9375-6.5625-6.5625-6.5625z"/>
    <path d="m340.83 449.83c0-3.625-2.9375-6.5625-6.5625-6.5625h-22.816c-3.625 0-6.5625 2.9375-6.5625 6.5625s2.9375 6.5625 6.5625 6.5625h22.816c3.625 0 6.5625-2.9375 6.5625-6.5625z"/>
    <path d="m442.38 468.93h-22.816c-3.625 0-6.5625 2.9375-6.5625 6.5625s2.9375 6.5625 6.5625 6.5625h22.816c3.625 0 6.5625-2.9375 6.5625-6.5625s-2.9375-6.5625-6.5625-6.5625z"/>
    <path d="m423.28 449.83c0-3.625-2.9375-6.5625-6.5625-6.5625h-22.82c-3.6211 0-6.5625 2.9375-6.5625 6.5625s2.9414 6.5625 6.5625 6.5625h22.82c3.625 0 6.5625-2.9375 6.5625-6.5625z"/>
    <path d="m513.67 468.93h-22.816 0.003907c-3.625 0-6.5625 2.9375-6.5625 6.5625s2.9375 6.5625 6.5625 6.5625h22.816-0.003906c3.625 0 6.5625-2.9375 6.5625-6.5625s-2.9375-6.5625-6.5625-6.5625z"/>
    <path d="m494.57 449.83c0-3.625-2.9375-6.5625-6.5625-6.5625h-22.816c-3.625 0-6.5625 2.9375-6.5625 6.5625s2.9375 6.5625 6.5625 6.5625h22.816c3.625 0 6.5625-2.9375 6.5625-6.5625z"/>
    <path d="m265.6 444.89c0-3.6211-2.9375-6.5625-6.5625-6.5625h-22.816c-3.625 0-6.5625 2.9414-6.5625 6.5625 0 3.625 2.9375 6.5625 6.5625 6.5625h22.816c3.625 0 6.5625-2.9375 6.5625-6.5625z"/>
    <path d="m159.43 468.93h-22.82c-3.625 0-6.5625 2.9375-6.5625 6.5625s2.9375 6.5625 6.5625 6.5625h22.816c3.625 0 6.5625-2.9375 6.5625-6.5625s-2.9375-6.5625-6.5625-6.5625z"/>
    <path d="m141.37 450.87c0-3.6211-2.9414-6.5625-6.5625-6.5625h-22.82c-3.6211 0-6.5625 2.9414-6.5625 6.5625 0 3.625 2.9414 6.5625 6.5625 6.5625h22.82c3.6211 0 6.5625-2.9375 6.5625-6.5625z"/>
    <path d="m212.67 468.93h-22.816c-3.625 0-6.5625 2.9375-6.5625 6.5625s2.9375 6.5625 6.5625 6.5625h22.816c3.625 0 6.5625-2.9375 6.5625-6.5625s-2.9375-6.5625-6.5625-6.5625z"/>
    <path d="m158.67 439.46c0 3.625 2.9375 6.5625 6.5625 6.5625h22.816c3.625 0 6.5625-2.9375 6.5625-6.5625s-2.9375-6.5625-6.5625-6.5625h-22.816c-3.625 0-6.5625 2.9375-6.5625 6.5625z"/>
    <path d="m134.81 412.7h22.816-0.003906c3.625 0 6.5625-2.9414 6.5625-6.5625 0-3.625-2.9375-6.5625-6.5625-6.5625h-22.812c-3.625 0-6.5625 2.9375-6.5625 6.5625 0 3.6211 2.9375 6.5625 6.5625 6.5625z"/>
    <path d="m210.87 412.7h22.816c3.6211 0 6.5625-2.9414 6.5625-6.5625 0-3.625-2.9414-6.5625-6.5625-6.5625h-22.816c-3.625 0-6.5625 2.9375-6.5625 6.5625 0 3.6211 2.9375 6.5625 6.5625 6.5625z"/>
    <path d="m468.04 425.02h22.816c3.625 0 6.5625-2.9414 6.5625-6.5625 0-3.625-2.9375-6.5625-6.5625-6.5625h-22.816c-3.625 0-6.5625 2.9375-6.5625 6.5625 0 3.6211 2.9375 6.5625 6.5625 6.5625z"/>
    <path d="m569.61 402.38c-13.734 0-24.492 16.406-24.492 37.363 0 20.957 10.758 37.363 24.492 37.363s24.492-16.406 24.492-37.363c-0.003907-20.957-10.762-37.363-24.492-37.363zm0 61.602c-5.2578 0-11.367-10.586-11.367-24.238s6.1094-24.238 11.367-24.238c5.2578 0 11.367 10.586 11.367 24.238-0.003907 13.652-6.1133 24.238-11.367 24.238z"/>
    <path d="m176.64 393.3h22.816c3.625 0 6.5625-2.9375 6.5625-6.5625s-2.9375-6.5625-6.5625-6.5625h-22.816c-3.625 0-6.5625 2.9375-6.5625 6.5625s2.9375 6.5625 6.5625 6.5625z"/>
    <path d="m490.86 395.35h22.816-0.003906c3.625 0 6.5625-2.9375 6.5625-6.5625s-2.9375-6.5625-6.5625-6.5625h-22.816 0.003907c-3.625 0-6.5625 2.9375-6.5625 6.5625s2.9375 6.5625 6.5625 6.5625z"/>
  </g>
</svg>