<?xml version="1.0" encoding="utf-8"?>
<svg viewBox="119.419 323.695 360.386 340.572" xmlns="http://www.w3.org/2000/svg">
  <defs>
    <symbol id="w" overflow="visible">
      <path d="m0.03125 0h-0.015625-0.015625v-0.015625-0.015625h0.015625 0.015625-0.015625v0.015625 0.015625h0.015625v-0.015625z"/>
    </symbol>
    <symbol id="e" overflow="visible">
      <path d="m0.015625-0.015625v0.015625h-0.015625v-0.03125h0.015625v0.015625-0.015625z"/>
    </symbol>
    <symbol id="b" overflow="visible">
      <path d="m0.03125-0.015625h-0.015625v0.015625c0.0078125 0 0.015625-0.0039062 0.015625-0.015625v0.015625h-0.015625-0.015625v-0.015625l0.015625-0.015625v0.015625h0.015625z"/>
    </symbol>
    <symbol id="a" overflow="visible">
      <path d="m0.015625-0.015625v0.015625-0.015625zm0.015625 0v0.015625h-0.015625-0.015625v-0.015625h0.015625-0.015625v-0.015625h0.015625v0.015625h0.015625z"/>
    </symbol>
    <symbol id="d" overflow="visible">
      <path d="m0.015625-0.03125v0.015625 0.015625h-0.015625v-0.015625-0.015625z"/>
    </symbol>
    <symbol id="l" overflow="visible">
      <path d="m0.015625-0.015625v-0.015625h0.015625v0.03125h-0.015625-0.015625v-0.015625l0.015625-0.015625v0.015625zm0 0.015625v-0.015625 0.015625z"/>
    </symbol>
    <symbol id="k" overflow="visible">
      <path d="m0.015625 0v-0.015625 0.015625zm0-0.015625v-0.015625c0.0078125 0 0.015625 0.0078125 0.015625 0.015625v0.015625h-0.015625-0.015625v-0.03125h0.015625z"/>
    </symbol>
    <symbol id="j" overflow="visible">
      <path d="m0-0.03125h0.015625v0.015625-0.015625h0.015625l-0.015625 0.03125v0.015625h-0.015625v-0.015625h0.015625z"/>
    </symbol>
    <symbol id="i" overflow="visible">
      <path d="m0.015625-0.03125v0.015625 0.015625h0.015625v-0.015625c0-0.0078125-0.0078125-0.015625-0.015625-0.015625zm0 0h0.015625v0.015625 0.015625h-0.015625-0.015625v-0.015625-0.015625h0.015625z"/>
    </symbol>
    <symbol id="v" overflow="visible">
      <path d="m0-0.03125h0.015625v0.03125h-0.015625z"/>
    </symbol>
    <symbol id="f" overflow="visible">
      <path d="m0.03125-0.015625v0.015625h-0.015625v-0.015625 0.015625h-0.015625v-0.03125h0.015625v0.015625-0.015625c0.0078125 0 0.015625 0.0078125 0.015625 0.015625z"/>
    </symbol>
    <symbol id="h" overflow="visible">
      <path d="m0-0.03125h0.015625 0.015625v0.015625h-0.015625v0.015625h-0.015625zm0.015625 0v0.015625-0.015625z"/>
    </symbol>
    <symbol id="g" overflow="visible">
      <path d="m0.03125-0.03125v0.015625h-0.015625c0.0078125 0 0.015625 0.0078125 0.015625 0.015625h-0.015625-0.015625 0.015625v-0.015625h-0.015625l0.015625-0.015625h0.015625z"/>
    </symbol>
    <symbol id="c" overflow="visible">
      <path d="m0.015625-0.015625v0.015625-0.015625zm0-0.015625v0.015625h0.015625c0 0.011719-0.0078125 0.015625-0.015625 0.015625h-0.015625v-0.015625l0.015625-0.015625z"/>
    </symbol>
    <symbol id="u" overflow="visible">
      <path d="m0-0.03125h0.015625v0.015625-0.015625h0.015625l-0.015625 0.03125z"/>
    </symbol>
    <symbol id="t" overflow="visible">
      <path d="m0-0.03125h0.015625v0.015625-0.015625h0.015625l-0.015625 0.015625 0.015625 0.015625h-0.015625v-0.015625 0.015625h-0.015625z"/>
    </symbol>
    <symbol id="s" overflow="visible">
      <path d="m0.015625-0.03125v0.03125h-0.015625v-0.03125h0.015625z"/>
    </symbol>
    <symbol id="r" overflow="visible">
      <path d="m0.03125-0.015625v-0.015625c0.0078125 0 0.015625 0.0078125 0.015625 0.015625v0.015625h-0.015625v-0.015625 0.015625h-0.015625v-0.015625 0.015625h-0.015625v-0.03125h0.015625v0.015625-0.015625 0.015625h0.015625z"/>
    </symbol>
    <symbol id="q" overflow="visible">
      <path d="m0.03125-0.015625v0.015625h-0.015625v-0.015625 0.015625h-0.015625v-0.03125h0.015625v0.015625-0.015625c0.0078125 0 0.015625 0.0078125 0.015625 0.015625z"/>
    </symbol>
    <symbol id="p" overflow="visible">
      <path d="m0-0.03125h0.015625l0.015625 0.015625v-0.015625 0.03125l-0.015625-0.015625v0.015625h-0.015625z"/>
    </symbol>
    <symbol id="o" overflow="visible">
      <path d="m0-0.015625v-0.015625h0.015625v0.015625 0.015625-0.015625-0.015625h0.015625v0.03125h-0.015625-0.015625v-0.015625z"/>
    </symbol>
    <symbol id="n" overflow="visible">
      <path d="m0-0.03125h0.015625v0.03125h-0.015625v0.015625zm0 0h0.015625z"/>
    </symbol>
    <symbol id="m" overflow="visible">
      <path d="m0.03125-0.03125v0.015625h-0.015625v0.015625h0.015625-0.015625-0.015625v-0.015625l0.015625-0.015625h0.015625z"/>
    </symbol>
    <symbol id="symbol-1" overflow="visible">
      <path d="m0.03125 0h-0.015625-0.015625v-0.015625-0.015625h0.015625 0.015625-0.015625v0.015625 0.015625h0.015625v-0.015625z"/>
    </symbol>
    <symbol id="symbol-2" overflow="visible">
      <path d="m0.015625-0.015625v0.015625h-0.015625v-0.03125h0.015625v0.015625-0.015625z"/>
    </symbol>
    <symbol id="symbol-3" overflow="visible">
      <path d="m0.03125-0.015625h-0.015625v0.015625c0.0078125 0 0.015625-0.0039062 0.015625-0.015625v0.015625h-0.015625-0.015625v-0.015625l0.015625-0.015625v0.015625h0.015625z"/>
    </symbol>
    <symbol id="symbol-4" overflow="visible">
      <path d="m0.015625-0.015625v0.015625-0.015625zm0.015625 0v0.015625h-0.015625-0.015625v-0.015625h0.015625-0.015625v-0.015625h0.015625v0.015625h0.015625z"/>
    </symbol>
    <symbol id="symbol-5" overflow="visible">
      <path d="m0.015625-0.03125v0.015625 0.015625h-0.015625v-0.015625-0.015625z"/>
    </symbol>
    <symbol id="symbol-6" overflow="visible">
      <path d="m0.015625-0.015625v-0.015625h0.015625v0.03125h-0.015625-0.015625v-0.015625l0.015625-0.015625v0.015625zm0 0.015625v-0.015625 0.015625z"/>
    </symbol>
    <symbol id="symbol-7" overflow="visible">
      <path d="m0.015625 0v-0.015625 0.015625zm0-0.015625v-0.015625c0.0078125 0 0.015625 0.0078125 0.015625 0.015625v0.015625h-0.015625-0.015625v-0.03125h0.015625z"/>
    </symbol>
    <symbol id="symbol-8" overflow="visible">
      <path d="m0-0.03125h0.015625v0.015625-0.015625h0.015625l-0.015625 0.03125v0.015625h-0.015625v-0.015625h0.015625z"/>
    </symbol>
    <symbol id="symbol-9" overflow="visible">
      <path d="m0.015625-0.03125v0.015625 0.015625h0.015625v-0.015625c0-0.0078125-0.0078125-0.015625-0.015625-0.015625zm0 0h0.015625v0.015625 0.015625h-0.015625-0.015625v-0.015625-0.015625h0.015625z"/>
    </symbol>
    <symbol id="symbol-10" overflow="visible">
      <path d="m0-0.03125h0.015625v0.03125h-0.015625z"/>
    </symbol>
    <symbol id="symbol-11" overflow="visible">
      <path d="m0.03125-0.015625v0.015625h-0.015625v-0.015625 0.015625h-0.015625v-0.03125h0.015625v0.015625-0.015625c0.0078125 0 0.015625 0.0078125 0.015625 0.015625z"/>
    </symbol>
    <symbol id="symbol-12" overflow="visible">
      <path d="m0-0.03125h0.015625 0.015625v0.015625h-0.015625v0.015625h-0.015625zm0.015625 0v0.015625-0.015625z"/>
    </symbol>
    <symbol id="symbol-13" overflow="visible">
      <path d="m0.03125-0.03125v0.015625h-0.015625c0.0078125 0 0.015625 0.0078125 0.015625 0.015625h-0.015625-0.015625 0.015625v-0.015625h-0.015625l0.015625-0.015625h0.015625z"/>
    </symbol>
    <symbol id="symbol-14" overflow="visible">
      <path d="m0.015625-0.015625v0.015625-0.015625zm0-0.015625v0.015625h0.015625c0 0.011719-0.0078125 0.015625-0.015625 0.015625h-0.015625v-0.015625l0.015625-0.015625z"/>
    </symbol>
    <symbol id="symbol-15" overflow="visible">
      <path d="m0-0.03125h0.015625v0.015625-0.015625h0.015625l-0.015625 0.03125z"/>
    </symbol>
    <symbol id="symbol-16" overflow="visible">
      <path d="m0-0.03125h0.015625v0.015625-0.015625h0.015625l-0.015625 0.015625 0.015625 0.015625h-0.015625v-0.015625 0.015625h-0.015625z"/>
    </symbol>
    <symbol id="symbol-17" overflow="visible">
      <path d="m0.015625-0.03125v0.03125h-0.015625v-0.03125h0.015625z"/>
    </symbol>
    <symbol id="symbol-18" overflow="visible">
      <path d="m0.03125-0.015625v-0.015625c0.0078125 0 0.015625 0.0078125 0.015625 0.015625v0.015625h-0.015625v-0.015625 0.015625h-0.015625v-0.015625 0.015625h-0.015625v-0.03125h0.015625v0.015625-0.015625 0.015625h0.015625z"/>
    </symbol>
    <symbol id="symbol-19" overflow="visible">
      <path d="m0.03125-0.015625v0.015625h-0.015625v-0.015625 0.015625h-0.015625v-0.03125h0.015625v0.015625-0.015625c0.0078125 0 0.015625 0.0078125 0.015625 0.015625z"/>
    </symbol>
    <symbol id="symbol-20" overflow="visible">
      <path d="m0-0.03125h0.015625l0.015625 0.015625v-0.015625 0.03125l-0.015625-0.015625v0.015625h-0.015625z"/>
    </symbol>
    <symbol id="symbol-21" overflow="visible">
      <path d="m0-0.015625v-0.015625h0.015625v0.015625 0.015625-0.015625-0.015625h0.015625v0.03125h-0.015625-0.015625v-0.015625z"/>
    </symbol>
    <symbol id="symbol-22" overflow="visible">
      <path d="m0-0.03125h0.015625v0.03125h-0.015625v0.015625zm0 0h0.015625z"/>
    </symbol>
    <symbol id="symbol-23" overflow="visible">
      <path d="m0.03125-0.03125v0.015625h-0.015625v0.015625h0.015625-0.015625-0.015625v-0.015625l0.015625-0.015625h0.015625z"/>
    </symbol>
  </defs>
  <g transform="matrix(1, 0, 0, 1, -39.598421, 111.192104)">
    <g transform="matrix(1, 0, 0, 1, 83.268472, -77.037224)">
      <g transform="matrix(0.568312, 0, 0, 0.568312, 55.785889, 300.963257)" style="">
        <path d="m473.08 213.36h-40.141c-35.039 0-53.832-29.324-53.832-61.805 0-195.46-296.21-195.77-296.21 0v381.01 0.60938c0 11.73 9.6172 21.051 21.355 21.051h496.04c11.883 0 21.199-9.3242 21.199-21.051v-171.56c0-81.352-66.758-148.25-148.4-148.25zm106.01 298.75h-453.8v-88.559h26.469v39.102c0 7.0664 5.7109 12.781 12.48 12.781 7.2188 0 12.934-5.7188 12.934-12.781v-39.102h21.508v39.102c0 7.0664 5.7188 12.781 12.48 12.781 7.207 0 12.922-5.7188 12.922-12.781v-39.102h68.418v39.102c0 7.0664 5.7188 12.781 12.633 12.781 7.0664 0 12.781-5.7188 12.781-12.781v-39.102h21.496v39.102c0 7.0664 5.7188 12.781 12.629 12.781 7.0664 0 12.781-5.7188 12.781-12.781v-39.102h21.5v39.102c0 7.0664 5.7188 12.781 12.941 12.781 6.7617 0 12.473-5.7188 12.473-12.781v-39.102h68.559v39.102c0 7.0664 5.5742 12.781 12.781 12.781 6.7695 0 12.492-5.7188 12.492-12.781v-39.102h21.648v39.102c0 7.0664 5.8516 12.781 12.781 12.781 6.7695 0 12.48-5.7188 12.48-12.781v-39.102h26.609zm0-113.97h-453.8v-246.59c0-139.83 211.56-139.68 211.56 0 0 55.785 37.434 104.35 96.094 104.35h40.141c58.184 0 106.01 47.656 106.01 105.71z"/>
        <path d="m278.47 258.88c-5.0508-5.0586-13.254-5.0586-18.309 0l-57.562 57.562c-5.0586 5.0586-5.0586 13.25 0 18.312 2.5234 2.5273 5.8398 3.7891 9.1523 3.7891 3.3164 0 6.6289-1.2617 9.1562-3.7891l57.562-57.562c5.0586-5.0547 5.0586-13.258 0-18.312z"/>
        <path d="m357.27 258.18-97.109 97.109c-5.0586 5.0508-5.0586 13.25 0 18.309 2.5273 2.5273 5.8398 3.7969 9.1523 3.7969 3.3164 0 6.6289-1.2695 9.1562-3.7969l97.109-97.102c5.0508-5.0508 5.0508-13.254 0-18.309-5.0586-5.0703-13.258-5.0703-18.309-0.007812z"/>
        <path d="m433.86 287.68-28.762 28.77c-5.0586 5.0586-5.0586 13.25 0 18.312 2.5234 2.5273 5.8398 3.7891 9.1523 3.7891s6.6211-1.2617 9.1523-3.7891l28.77-28.77c5.0508-5.0508 5.0508-13.254 0-18.312-5.0625-5.0547-13.254-5.0547-18.312 0z"/>
      </g>
    </g>
  </g>
</svg>