<?xml version="1.0" encoding="UTF-8"?>
<svg version="1.1" viewBox="0 0 700 700" xmlns="http://www.w3.org/2000/svg">
 <path d="m253.75 367.5v-35c0-4.8281-3.9219-8.75-8.75-8.75h-78.75v-9.7461c2.8008-1.4531 4.6914-4.375 4.6914-7.7539v-26.25c0-4.8281-3.9023-8.75-8.75-8.75h-13.441v-17.5c0-4.8281-3.9219-8.75-8.75-8.75s-8.75 3.9219-8.75 8.75v17.5h-13.441c-4.8477 0-8.75 3.9219-8.75 8.75v26.25c0 3.3789 1.8906 6.3008 4.6914 7.7539v53.496h-8.75c-4.8281 0-8.75 3.9219-8.75 8.75s3.9219 8.75 8.75 8.75h490c4.8281 0 8.75-3.9219 8.75-8.75s-3.9219-8.75-8.75-8.75zm-112.56-52.5h7.5586v52.5h-17.5v-52.5zm25.059 26.25v26.25h70v-26.25zm235.25-23.555 0.47266 0.015626c17.047 0 32.621-9.625 40.234-24.867 0 0 28.387-56.77 28.387-56.77l53.621-12.809c4.918-1.1719 9.0312-4.5156 11.199-9.082 2.1719-4.5664 2.1367-9.8711-0.070313-14.402v-0.015625c-9.3438-19.285-31.254-28.996-51.816-22.996 0 0-117.25 34.211-117.25 34.211-7.5938 2.2227-15.785 1.2422-22.629-2.7109l-3.7617-2.1719c-8.2266-4.7422-17.988-6.0391-27.141-3.5703-11.305 2.7305-3.6562 15.574-5.25 12.949 0 0 11.375 18.969 19.617 32.707 6.9141 11.551 20.527 17.273 33.637 14.141l41.809-9.9922-9.2031 55.176c-0.42188 2.5391 0.29688 5.1445 1.9609 7.1055 1.5586 1.8359 3.7969 2.9414 6.1953 3.0781zm117.62-111.21-56.559 13.512c-2.5195 0.61328-4.6367 2.293-5.793 4.6016 0 0-18.305 36.594-30.203 60.426-2.9922 5.9492-7.9609 10.516-13.895 13.02l9.3086-55.844c0.47266-2.9062-0.52344-5.8438-2.6602-7.8398-2.1523-1.9961-5.1641-2.8008-8.0156-2.1172l-54.637 13.055c-5.6719 1.3633-11.551-1.1211-14.559-6.125l-10.621-17.727 3.3945 1.9766c11.008 6.3516 24.113 7.9258 36.312 4.3594l117.23-34.211c12.039-3.5156 24.852 1.9258 30.695 12.914zm-379.14 82.266h13.457v8.75h-26.879v-8.75z" fill-rule="evenodd"/>
</svg>
