<?xml version="1.0" encoding="UTF-8"?>
<svg version="1.1" viewBox="0 0 700 700" xmlns="http://www.w3.org/2000/svg" xmlns:xlink="http://www.w3.org/1999/xlink">

 <g>
  <path d="m474.62 140.26c-2.6133-0.65234-5.3828-0.066407-7.5078 1.5898-2.1211 1.6602-3.3633 4.2031-3.3633 6.8984 0 44.754-9.668 99.793-14.547 124.72-73.34-64.918-12.836-242.48-12.191-244.34 1.1406-3.2812 0.23047-6.9297-2.3164-9.2891-2.5469-2.3633-6.25-2.9961-9.4375-1.6094-47.168 20.508-86.48 49.383-116.85 85.82-24.297 29.16-42.914 63.152-55.324 101.04-12.703 38.785-16.27 73.359-17.059 95.211-16.98-28.676-17.277-72.27-17.277-72.801 0-3.3945-1.9648-6.4844-5.0391-7.9258-3.0742-1.4414-6.7031-0.97266-9.3125 1.2031-55.016 45.848-55.648 117.45-55.648 120.47 0 60.75 20.449 112.12 59.133 148.55 36.074 33.98 86.547 52.695 142.12 52.695 57.473 0 106.58-17.051 142.01-49.312 38.758-35.285 59.242-87.828 59.242-151.94 0-179.77-73.5-200.21-76.629-200.99zm-68.062 260.87c2.375 1.5195 5.3477 1.7812 7.9609 0.73438 2.625-1.0625 4.5703-3.3125 5.2383-6.0586 0.29688-1.2578 6.2344-26.098 8.2891-54.109 8.1836 11.395 18.203 35.82 18.203 87.051 0 60.781-35 96.25-96.25 96.25-58.938-0.14844-96.25-37.895-96.25-96.227 0-0.24219 0.26172-18.605 10.664-37.602 2.4062 12.656 7.668 27.266 19.086 35.832 2.5469 1.9141 5.9297 2.2852 8.8281 0.98438 2.9102-1.3008 4.8789-4.0781 5.1406-7.25 0.023438-0.25 2.2969-25.781 13.859-56.055 12.566-32.922 30.625-58.328 53.801-75.785-2.3867 29.668-0.59375 85.504 41.43 112.23zm30.652 107.35c17.395-19.559 26.539-46.91 26.539-79.73 0-100.54-37.43-112.47-41.695-113.51-2.6133-0.625-5.3594-0.023438-7.4688 1.6289-2.1094 1.6641-3.3359 4.1992-3.3359 6.8789 0 19.918-3.2031 40.961-5.6758 54.262-34.453-34.684-20.902-104.26-20.75-105.01 0.67969-3.3477-0.64453-6.793-3.4023-8.8047-2.7578-2.0234-6.4297-2.2539-9.4297-0.58984-34.027 18.898-60.727 51.867-77.207 95.32-5.3828 14.188-8.8594 27.266-11.07 37.602-3.4336-10.73-3.9805-22.883-3.7305-28.613 0.17578-3.6094-1.8906-6.957-5.1953-8.4219-3.3047-1.4531-7.1758-0.73438-9.7344 1.8164-28.477 28.492-28.805 65.867-28.805 67.441 0 31.48 9.6992 58.445 28.141 78.52-60.914-28.156-98.141-87.992-98.141-166.02 0-0.59375 0.46094-54.016 36.25-94.324 2.6719 24.062 11.039 64.164 37.25 83.824 2.7578 2.0664 6.4688 2.3242 9.4844 0.65625s4.7695-4.9492 4.4844-8.3828c-0.042969-0.50781-3.9961-51.441 16-112.49 24.773-75.625 73.457-132.06 144.85-167.99-5.7148 20.121-13.984 53.918-17.496 91.16-3.2695 34.656-1.6719 65.051 4.7422 90.336 8.2773 32.625 24.594 56.879 48.492 72.086 2.4062 1.5312 5.4102 1.793 8.0469 0.70312 2.6367-1.0938 4.5742-3.4023 5.1914-6.1875 0.66797-3.0039 15.188-68.938 17.422-127.43 5.7305 4.2695 13.109 11.359 20.48 22.887 14.734 23.059 32.305 68.691 32.305 155.15 0 81.973-34.875 140.4-96.539 167.23zm-279.71-280.98c15.305 0 36.562-8.6055 50.914-49.609 7.9102-22.598 10.199-44.832 10.293-45.77 0.29688-2.9531-0.92578-5.8516-3.2422-7.707-2.3164-1.8516-5.4141-2.4062-8.2305-1.4648-24.184 8.0625-41.98 27.371-51.473 55.848-6.9336 20.793-7.0117 39.18-7.0117 39.953 0 4.832 3.918 8.75 8.75 8.75zm41.168-80.949c-4.0039 20.051-13.191 52.633-31.562 61.281 2.0195-16.004 8.8047-45.625 31.562-61.281zm284.17-56.16c14.352 41.004 35.609 49.609 50.914 49.609 4.832 0 8.75-3.918 8.75-8.75 0-0.77344-0.078125-19.16-7.0117-39.953-9.4922-28.477-27.289-47.785-51.473-55.848-2.8125-0.9375-5.9141-0.38672-8.2305 1.4648-2.3164 1.8516-3.5391 4.7539-3.2422 7.707 0.09375 0.93359 2.3828 23.172 10.293 45.77zm41.273 29.879c-17.523-8.4336-27.312-39.023-31.695-61.316 22.75 15.594 29.621 45.25 31.695 61.316z"/>

 </g>
</svg>
