<?xml version="1.0" encoding="utf-8"?>
<svg viewBox="144.032 347.968 342.832 316.036" xmlns="http://www.w3.org/2000/svg">
  <defs>
    <symbol id="w" overflow="visible">
      <path d="m0.03125 0h-0.015625-0.015625v-0.015625-0.015625h0.015625 0.015625-0.015625v0.015625 0.015625h0.015625v-0.015625z"/>
    </symbol>
    <symbol id="e" overflow="visible">
      <path d="m0.015625-0.015625v0.015625h-0.015625v-0.03125h0.015625v0.015625-0.015625z"/>
    </symbol>
    <symbol id="b" overflow="visible">
      <path d="m0.03125-0.015625h-0.015625v0.015625c0.0078125 0 0.015625-0.0039062 0.015625-0.015625v0.015625h-0.015625-0.015625v-0.015625l0.015625-0.015625v0.015625h0.015625z"/>
    </symbol>
    <symbol id="a" overflow="visible">
      <path d="m0.015625-0.015625v0.015625-0.015625zm0.015625 0v0.015625h-0.015625-0.015625v-0.015625h0.015625-0.015625v-0.015625h0.015625v0.015625h0.015625z"/>
    </symbol>
    <symbol id="d" overflow="visible">
      <path d="m0.015625-0.03125v0.015625 0.015625h-0.015625v-0.015625-0.015625z"/>
    </symbol>
    <symbol id="l" overflow="visible">
      <path d="m0.015625-0.015625v-0.015625h0.015625v0.03125h-0.015625-0.015625v-0.015625l0.015625-0.015625v0.015625zm0 0.015625v-0.015625 0.015625z"/>
    </symbol>
    <symbol id="k" overflow="visible">
      <path d="m0.015625 0v-0.015625 0.015625zm0-0.015625v-0.015625c0.0078125 0 0.015625 0.0078125 0.015625 0.015625v0.015625h-0.015625-0.015625v-0.03125h0.015625z"/>
    </symbol>
    <symbol id="j" overflow="visible">
      <path d="m0-0.03125h0.015625v0.015625-0.015625h0.015625l-0.015625 0.03125v0.015625h-0.015625v-0.015625h0.015625z"/>
    </symbol>
    <symbol id="i" overflow="visible">
      <path d="m0.015625-0.03125v0.015625 0.015625h0.015625v-0.015625c0-0.0078125-0.0078125-0.015625-0.015625-0.015625zm0 0h0.015625v0.015625 0.015625h-0.015625-0.015625v-0.015625-0.015625h0.015625z"/>
    </symbol>
    <symbol id="v" overflow="visible">
      <path d="m0-0.03125h0.015625v0.03125h-0.015625z"/>
    </symbol>
    <symbol id="f" overflow="visible">
      <path d="m0.03125-0.015625v0.015625h-0.015625v-0.015625 0.015625h-0.015625v-0.03125h0.015625v0.015625-0.015625c0.0078125 0 0.015625 0.0078125 0.015625 0.015625z"/>
    </symbol>
    <symbol id="h" overflow="visible">
      <path d="m0-0.03125h0.015625 0.015625v0.015625h-0.015625v0.015625h-0.015625zm0.015625 0v0.015625-0.015625z"/>
    </symbol>
    <symbol id="g" overflow="visible">
      <path d="m0.03125-0.03125v0.015625h-0.015625c0.0078125 0 0.015625 0.0078125 0.015625 0.015625h-0.015625-0.015625 0.015625v-0.015625h-0.015625l0.015625-0.015625h0.015625z"/>
    </symbol>
    <symbol id="c" overflow="visible">
      <path d="m0.015625-0.015625v0.015625-0.015625zm0-0.015625v0.015625h0.015625c0 0.011719-0.0078125 0.015625-0.015625 0.015625h-0.015625v-0.015625l0.015625-0.015625z"/>
    </symbol>
    <symbol id="u" overflow="visible">
      <path d="m0-0.03125h0.015625v0.015625-0.015625h0.015625l-0.015625 0.03125z"/>
    </symbol>
    <symbol id="t" overflow="visible">
      <path d="m0-0.03125h0.015625v0.015625-0.015625h0.015625l-0.015625 0.015625 0.015625 0.015625h-0.015625v-0.015625 0.015625h-0.015625z"/>
    </symbol>
    <symbol id="s" overflow="visible">
      <path d="m0.015625-0.03125v0.03125h-0.015625v-0.03125h0.015625z"/>
    </symbol>
    <symbol id="r" overflow="visible">
      <path d="m0.03125-0.015625v-0.015625c0.0078125 0 0.015625 0.0078125 0.015625 0.015625v0.015625h-0.015625v-0.015625 0.015625h-0.015625v-0.015625 0.015625h-0.015625v-0.03125h0.015625v0.015625-0.015625 0.015625h0.015625z"/>
    </symbol>
    <symbol id="q" overflow="visible">
      <path d="m0.03125-0.015625v0.015625h-0.015625v-0.015625 0.015625h-0.015625v-0.03125h0.015625v0.015625-0.015625c0.0078125 0 0.015625 0.0078125 0.015625 0.015625z"/>
    </symbol>
    <symbol id="p" overflow="visible">
      <path d="m0-0.03125h0.015625l0.015625 0.015625v-0.015625 0.03125l-0.015625-0.015625v0.015625h-0.015625z"/>
    </symbol>
    <symbol id="o" overflow="visible">
      <path d="m0-0.015625v-0.015625h0.015625v0.015625 0.015625-0.015625-0.015625h0.015625v0.03125h-0.015625-0.015625v-0.015625z"/>
    </symbol>
    <symbol id="n" overflow="visible">
      <path d="m0-0.03125h0.015625v0.03125h-0.015625v0.015625zm0 0h0.015625z"/>
    </symbol>
    <symbol id="m" overflow="visible">
      <path d="m0.03125-0.03125v0.015625h-0.015625v0.015625h0.015625-0.015625-0.015625v-0.015625l0.015625-0.015625h0.015625z"/>
    </symbol>
    <symbol id="symbol-1" overflow="visible">
      <path d="m0.03125 0h-0.015625-0.015625v-0.015625-0.015625h0.015625 0.015625-0.015625v0.015625 0.015625h0.015625v-0.015625z"/>
    </symbol>
    <symbol id="symbol-2" overflow="visible">
      <path d="m0.015625-0.015625v0.015625h-0.015625v-0.03125h0.015625v0.015625-0.015625z"/>
    </symbol>
    <symbol id="symbol-3" overflow="visible">
      <path d="m0.03125-0.015625h-0.015625v0.015625c0.0078125 0 0.015625-0.0039062 0.015625-0.015625v0.015625h-0.015625-0.015625v-0.015625l0.015625-0.015625v0.015625h0.015625z"/>
    </symbol>
    <symbol id="symbol-4" overflow="visible">
      <path d="m0.015625-0.015625v0.015625-0.015625zm0.015625 0v0.015625h-0.015625-0.015625v-0.015625h0.015625-0.015625v-0.015625h0.015625v0.015625h0.015625z"/>
    </symbol>
    <symbol id="symbol-5" overflow="visible">
      <path d="m0.015625-0.03125v0.015625 0.015625h-0.015625v-0.015625-0.015625z"/>
    </symbol>
    <symbol id="symbol-6" overflow="visible">
      <path d="m0.015625-0.015625v-0.015625h0.015625v0.03125h-0.015625-0.015625v-0.015625l0.015625-0.015625v0.015625zm0 0.015625v-0.015625 0.015625z"/>
    </symbol>
    <symbol id="symbol-7" overflow="visible">
      <path d="m0.015625 0v-0.015625 0.015625zm0-0.015625v-0.015625c0.0078125 0 0.015625 0.0078125 0.015625 0.015625v0.015625h-0.015625-0.015625v-0.03125h0.015625z"/>
    </symbol>
    <symbol id="symbol-8" overflow="visible">
      <path d="m0-0.03125h0.015625v0.015625-0.015625h0.015625l-0.015625 0.03125v0.015625h-0.015625v-0.015625h0.015625z"/>
    </symbol>
    <symbol id="symbol-9" overflow="visible">
      <path d="m0.015625-0.03125v0.015625 0.015625h0.015625v-0.015625c0-0.0078125-0.0078125-0.015625-0.015625-0.015625zm0 0h0.015625v0.015625 0.015625h-0.015625-0.015625v-0.015625-0.015625h0.015625z"/>
    </symbol>
    <symbol id="symbol-10" overflow="visible">
      <path d="m0-0.03125h0.015625v0.03125h-0.015625z"/>
    </symbol>
    <symbol id="symbol-11" overflow="visible">
      <path d="m0.03125-0.015625v0.015625h-0.015625v-0.015625 0.015625h-0.015625v-0.03125h0.015625v0.015625-0.015625c0.0078125 0 0.015625 0.0078125 0.015625 0.015625z"/>
    </symbol>
    <symbol id="symbol-12" overflow="visible">
      <path d="m0-0.03125h0.015625 0.015625v0.015625h-0.015625v0.015625h-0.015625zm0.015625 0v0.015625-0.015625z"/>
    </symbol>
    <symbol id="symbol-13" overflow="visible">
      <path d="m0.03125-0.03125v0.015625h-0.015625c0.0078125 0 0.015625 0.0078125 0.015625 0.015625h-0.015625-0.015625 0.015625v-0.015625h-0.015625l0.015625-0.015625h0.015625z"/>
    </symbol>
    <symbol id="symbol-14" overflow="visible">
      <path d="m0.015625-0.015625v0.015625-0.015625zm0-0.015625v0.015625h0.015625c0 0.011719-0.0078125 0.015625-0.015625 0.015625h-0.015625v-0.015625l0.015625-0.015625z"/>
    </symbol>
    <symbol id="symbol-15" overflow="visible">
      <path d="m0-0.03125h0.015625v0.015625-0.015625h0.015625l-0.015625 0.03125z"/>
    </symbol>
    <symbol id="symbol-16" overflow="visible">
      <path d="m0-0.03125h0.015625v0.015625-0.015625h0.015625l-0.015625 0.015625 0.015625 0.015625h-0.015625v-0.015625 0.015625h-0.015625z"/>
    </symbol>
    <symbol id="symbol-17" overflow="visible">
      <path d="m0.015625-0.03125v0.03125h-0.015625v-0.03125h0.015625z"/>
    </symbol>
    <symbol id="symbol-18" overflow="visible">
      <path d="m0.03125-0.015625v-0.015625c0.0078125 0 0.015625 0.0078125 0.015625 0.015625v0.015625h-0.015625v-0.015625 0.015625h-0.015625v-0.015625 0.015625h-0.015625v-0.03125h0.015625v0.015625-0.015625 0.015625h0.015625z"/>
    </symbol>
    <symbol id="symbol-19" overflow="visible">
      <path d="m0.03125-0.015625v0.015625h-0.015625v-0.015625 0.015625h-0.015625v-0.03125h0.015625v0.015625-0.015625c0.0078125 0 0.015625 0.0078125 0.015625 0.015625z"/>
    </symbol>
    <symbol id="symbol-20" overflow="visible">
      <path d="m0-0.03125h0.015625l0.015625 0.015625v-0.015625 0.03125l-0.015625-0.015625v0.015625h-0.015625z"/>
    </symbol>
    <symbol id="symbol-21" overflow="visible">
      <path d="m0-0.015625v-0.015625h0.015625v0.015625 0.015625-0.015625-0.015625h0.015625v0.03125h-0.015625-0.015625v-0.015625z"/>
    </symbol>
    <symbol id="symbol-22" overflow="visible">
      <path d="m0-0.03125h0.015625v0.03125h-0.015625v0.015625zm0 0h0.015625z"/>
    </symbol>
    <symbol id="symbol-23" overflow="visible">
      <path d="m0.03125-0.03125v0.015625h-0.015625v0.015625h0.015625-0.015625-0.015625v-0.015625l0.015625-0.015625h0.015625z"/>
    </symbol>
  </defs>
  <g transform="matrix(1, 0, 0, 1, -39.598421, 111.192104)">
    <g transform="matrix(1, 0, 0, 1, 83.268472, -77.037224)">
      <g transform="matrix(0.654805, 0, 0, 0.654805, 42.595943, 288.48349)" style="">
        <path d="m477.08 253.62c0-41.121-20.879-86.734-62.059-135.57-30.383-36.039-60.289-59.844-61.551-60.84-2.0547-1.6289-4.9883-1.6094-7.0312 0.066406-1.2539 1.0352-31.129 25.742-61.484 62.23-41.164 49.465-62.039 94.594-62.039 134.12 0 69.578 54 126.51 121.48 129.51l-0.003906 53.66h-50.492c-3.0938 0-5.6016 2.5039-5.6016 5.6016 0 3.0938 2.5039 5.6016 5.6016 5.6016h112.19c3.0938 0 5.6016-2.5039 5.6016-5.6016 0-3.0938-2.5039-5.6016-5.6016-5.6016h-50.492v-53.664c67.48-3.0039 121.48-59.938 121.48-129.51zm-242.96 0c0-79.703 96.227-167.55 115.95-184.71 19.812 16.668 115.82 101.76 115.82 184.71 0 63.387-48.996 115.15-110.28 118.17v-65.953l73.898-73.898c2.1875-2.1875 2.1875-5.7305 0-7.918s-5.7305-2.1875-7.918 0l-65.98 65.98v-59.703l39.715-39.715c2.1875-2.1875 2.1875-5.7305 0-7.918s-5.7305-2.1875-7.918 0l-31.797 31.793v-61.512c0-3.0938-2.5039-5.6016-5.6016-5.6016-3.0938 0-5.6016 2.5039-5.6016 5.6016v61.512l-31.797-31.797c-2.1875-2.1875-5.7305-2.1875-7.918 0s-2.1875 5.7305 0 7.918l39.715 39.719v59.703l-65.98-65.98c-2.1875-2.1875-5.7305-2.1875-7.918 0s-2.1875 5.7305 0 7.918l73.898 73.898v65.953c-61.285-3.0156-110.28-54.781-110.28-118.17z"/>
        <path d="m252.49 385.97c2.9922-0.75391 4.8125-3.7852 4.0703-6.7812-0.75-3.0078-3.8008-4.8086-6.7852-4.0859-1.5586 0.39062-32.359 8.5195-52.812 40.328l-0.003906-60.031c0-3.0938-2.5039-5.6016-5.6016-5.6016-3.0938 0-5.6016 2.5039-5.6016 5.6016v60.031c-20.453-31.809-51.254-39.938-52.812-40.328-2.9922-0.73438-6.0195 1.0781-6.7773 4.0703-0.75391 2.9961 1.0664 6.0391 4.0586 6.7969 1.5859 0.40234 37.484 10.082 53.984 50.828h-12.398c-3.0938 0-5.6016 2.5039-5.6016 5.6016 0 3.0938 2.5039 5.6016 5.6016 5.6016h39.098c3.0938 0 5.6016-2.5039 5.6016-5.6016 0-3.0938-2.5039-5.6016-5.6016-5.6016h-12.391c16.492-40.746 52.391-50.426 53.973-50.828z"/>
        <path d="m569.77 385.97c2.9922-0.75391 4.8125-3.7852 4.0703-6.7812-0.75-3.0078-3.8008-4.8086-6.7852-4.0859-1.5586 0.39062-32.359 8.5195-52.812 40.328v-60.031c0-3.0938-2.5039-5.6016-5.6016-5.6016-3.0938 0-5.6016 2.5039-5.6016 5.6016v60.031c-20.453-31.809-51.254-39.938-52.812-40.328-2.9844-0.73438-6.0195 1.0781-6.7773 4.0703-0.75391 2.9961 1.0664 6.0391 4.0586 6.7969 1.5859 0.40234 37.484 10.082 53.98 50.828h-12.398c-3.0938 0-5.6016 2.5039-5.6016 5.6016 0 3.0938 2.5039 5.6016 5.6016 5.6016h39.102c3.0938 0 5.6016-2.5039 5.6016-5.6016 0-3.0938-2.5039-5.6016-5.6016-5.6016h-12.398c16.5-40.746 52.398-50.426 53.977-50.828z"/>
        <path d="m127.55 486.64c10.68 11.195 25.047 17.363 40.453 17.363 13.535 0 26.266-4.7578 36.398-13.508 10.137 8.75 22.867 13.508 36.402 13.508 13.535 0 26.266-4.7578 36.398-13.508 10.133 8.75 22.867 13.508 36.402 13.508 13.535 0 26.266-4.7578 36.398-13.508 10.133 8.75 22.863 13.508 36.398 13.508 13.535 0 26.266-4.7578 36.398-13.508 10.137 8.75 22.867 13.508 36.402 13.508 13.535 0 26.266-4.7578 36.398-13.508 10.137 8.75 22.867 13.508 36.402 13.508 15.406 0 29.773-6.168 40.453-17.363 2.1328-2.2383 2.0508-5.7852-0.1875-7.918-2.2305-2.1289-5.7852-2.0508-7.918 0.1875-8.5469 8.9609-20.039 13.895-32.348 13.895s-23.801-4.9336-32.348-13.895c-2.1094-2.2109-5.9922-2.2109-8.1055 0-8.5469 8.9609-20.035 13.895-32.348 13.895-12.309 0-23.801-4.9336-32.348-13.895-2.1094-2.2109-5.9922-2.2109-8.1055 0-8.5469 8.9609-20.035 13.895-32.348 13.895-12.309 0-23.801-4.9336-32.348-13.895-2.1094-2.2109-5.9922-2.2109-8.1055 0-8.5469 8.9609-20.035 13.895-32.344 13.895-12.309 0-23.801-4.9336-32.348-13.895-2.1094-2.2109-5.9922-2.2109-8.1055 0-8.5469 8.9609-20.039 13.895-32.348 13.895-12.309 0-23.801-4.9336-32.348-13.895-2.1094-2.2109-5.9922-2.2109-8.1055 0-8.5469 8.9609-20.039 13.895-32.348 13.895s-23.801-4.9336-32.348-13.895c-2.1328-2.2383-5.6875-2.3203-7.918-0.1875-2.2383 2.1328-2.3203 5.6797-0.1875 7.918z"/>
      </g>
    </g>
  </g>
</svg>