<?xml version="1.0" encoding="UTF-8"?>
<svg version="1.1" viewBox="0 0 700 700" xmlns="http://www.w3.org/2000/svg" xmlns:xlink="http://www.w3.org/1999/xlink">

 <g>
  <path d="m596.4 212.8h-22.398c-17.824 0-34.914 7.0781-47.516 19.684-12.605 12.602-19.684 29.691-19.684 47.516v89.602c0 8-4.2695 15.395-11.199 19.398-6.9336 4-15.473 4-22.402 0-6.9297-4.0039-11.199-11.398-11.199-19.398v-268.8c0-24.008-12.809-46.195-33.602-58.199-20.789-12.004-46.406-12.004-67.199 0-20.789 12.004-33.598 34.191-33.598 58.199v358.4c0 8.0039-4.2695 15.398-11.203 19.398-6.9297 4.0039-15.469 4.0039-22.398 0-6.9297-4-11.199-11.395-11.199-19.398v-268.8c0-24.008-12.809-46.191-33.602-58.195-20.789-12.004-46.406-12.004-67.199 0s-33.602 34.188-33.602 58.195v89.602c0 5.9414-2.3594 11.637-6.5586 15.84-4.2031 4.1992-9.8984 6.5586-15.84 6.5586h-22.398c-8.0039 0-15.398 4.2695-19.402 11.203-4 6.9297-4 15.469 0 22.398 4.0039 6.9297 11.398 11.199 19.402 11.199h22.398c17.824 0 34.914-7.0781 47.516-19.684 12.605-12.602 19.684-29.691 19.684-47.516v-89.602c0-8 4.2695-15.395 11.199-19.398 6.9336-4 15.473-4 22.402 0 6.9297 4.0039 11.199 11.398 11.199 19.398v268.8c0 24.008 12.809 46.195 33.602 58.199 20.789 12.004 46.406 12.004 67.199 0 20.789-12.004 33.598-34.191 33.598-58.199v-358.4c0-8.0039 4.2695-15.398 11.203-19.398 6.9297-4.0039 15.469-4.0039 22.398 0 6.9297 4 11.199 11.395 11.199 19.398v268.8c0 24.008 12.809 46.191 33.602 58.195 20.789 12.004 46.406 12.004 67.199 0s33.602-34.188 33.602-58.195v-89.602c0-5.9414 2.3594-11.637 6.5586-15.84 4.2031-4.1992 9.8984-6.5586 15.84-6.5586h22.398c8.0039 0 15.398-4.2695 19.402-11.203 4-6.9297 4-15.469 0-22.398-4.0039-6.9297-11.398-11.199-19.402-11.199z"/>

 </g>
</svg>
