<?xml version="1.0" encoding="UTF-8"?>
<svg width="700pt" height="700pt" version="1.1" viewBox="0 0 700 700" xmlns="http://www.w3.org/2000/svg" xmlns:xlink="http://www.w3.org/1999/xlink">

 <g>
  <path d="m437.73 346.45v125.81h14.934v-118.34h77.652v-14.934h-85.121c-4.1055 0-7.4648 3.3594-7.4648 7.4648z"/>
  <path d="m462.38 371.09v101.17h14.934v-93.707h53.012v-14.934h-60.48c-4.1055 0-7.4648 3.3633-7.4648 7.4688z"/>
  <path d="m249.95 106.03h14.934v26.133h-14.934z"/>
  <path d="m249.95 225.49h14.934v26.133h-14.934z"/>
  <path d="m249.95 165.76h14.934v26.133h-14.934z"/>
  <path d="m285.79 136.27h14.934v26.133h-14.934z"/>
  <path d="m285.79 196h14.934v26.133h-14.934z"/>
  <path d="m321.62 162.4h14.934v26.133h-14.934z"/>
  <path d="m321.62 102.67h14.934v26.133h-14.934z"/>
  <path d="m357.46 132.54h14.934v26.133h-14.934z"/>
  <path d="m392.93 102.67h14.934v26.133h-14.934z"/>
  <path d="m264.88 285.23h-14.934v26.133h4.4805l10.453-9.707z"/>
  <path d="m300.72 255.73h-14.934v26.133h1.8672l13.066-11.574z"/>
  <path d="m336.56 222.13h-14.934v26.133h4.1094l10.824-9.707z"/>
  <path d="m372.4 192.27h-14.934v26.133h1.8672l13.066-11.57z"/>
  <path d="m407.87 162.4h-14.934v26.137l14.934-13.07z"/>
  <path d="m530.32 142.99v-14.934h-33.227c3.3594-14.559 16.426-25.387 31.734-25.387v-14.934c-25.012 0-45.547 19.414-47.414 44.055l-309.49 273.65c-2.2383 2.2383-2.9883 5.2266-1.8672 8.2148 1.1211 2.9883 3.7344 4.8516 7.0938 4.8516h41.441c1.8672 0 3.7344-0.74609 4.8516-1.8672l26.508-23.52v78.773h14.934v-91.84l238.18-210.56h27.254v-14.934h-30.238c-1.8672 0-3.7344 0.74609-4.8516 1.8672l-279.63 247.52h-18.668l294.93-260.96z"/>
 
 </g>
</svg>
