<?xml version="1.0" encoding="utf-8"?>
<svg viewBox="202.682 81.872 458.717 466.833" xmlns="http://www.w3.org/2000/svg">
  <path d="M 307.215 100.689 C 306.507 100.628 305.792 100.628 305.083 100.689 C 300.375 101.312 296.414 104.523 294.832 108.998 C 294.832 108.998 273.872 163.629 289.835 213.67 L 284.448 213.67 C 273.27 213.67 262.1 216.7 252.07 222.504 C 252.067 222.508 252.063 222.508 252.059 222.511 C 230.684 234.866 217.935 258.165 219.059 282.832 C 219.245 286.931 221.412 290.68 224.865 292.889 C 242.266 304.021 263.698 306.265 282.763 299.474 C 282.718 300.99 282.763 302.506 282.763 304.077 L 282.763 376.608 C 272.368 390.683 266.51 406.494 266.51 423.12 C 266.51 453.538 286.078 481.263 317.296 500.507 C 348.511 519.744 389.422 529.988 432.035 529.988 C 474.648 529.988 515.558 519.745 546.783 500.507 C 577.998 481.263 597.562 453.542 597.562 423.12 C 597.562 406.494 591.709 390.679 581.317 376.608 L 581.317 304.077 C 581.317 302.561 581.281 301.047 581.317 299.474 C 600.381 306.265 621.813 304.02 639.214 292.889 C 642.668 290.679 644.835 286.93 645.022 282.832 C 646.146 258.165 633.403 234.866 612.021 222.511 C 612.017 222.508 612.014 222.508 612.01 222.504 C 601.981 216.718 590.81 213.782 579.632 213.67 C 577.835 213.652 576.038 213.708 574.245 213.67 C 590.219 163.627 569.247 109.007 569.247 109.007 C 567.666 104.528 563.705 101.318 558.997 100.698 C 553.028 99.909 547.333 103.443 545.391 109.141 C 536.928 134.041 531.194 149.186 525.284 158.056 C 520.231 165.66 515.365 169.663 505.473 173.874 C 483.812 161.633 458.774 154.638 432.103 154.638 C 405.427 154.638 380.398 161.633 358.729 173.874 C 348.845 169.663 343.989 165.66 338.918 158.056 C 333.009 149.186 327.282 134.041 318.811 109.141 C 317.13 104.201 312.581 100.807 307.365 100.595 L 307.215 100.689 Z M 553.138 159.707 C 554.428 175.778 553.867 194.11 548.198 210.326 C 542.232 202.923 535.568 196.107 528.316 189.973 C 535.389 185.202 541.312 179.409 546.151 172.149 C 548.678 168.332 550.979 164.217 553.146 159.703 L 553.138 159.707 Z M 310.76 159.707 C 312.949 164.195 315.193 168.332 317.755 172.146 C 322.583 179.409 328.521 185.208 335.59 189.973 C 328.338 196.108 321.674 202.923 315.708 210.326 C 310.049 194.109 309.468 175.775 310.768 159.707 L 310.76 159.707 Z M 431.949 179.976 C 456.26 179.976 478.848 186.836 497.905 198.737 L 497.909 198.741 C 498.096 198.744 498.282 198.744 498.469 198.741 C 515.027 209.161 528.897 223.393 538.884 240.252 C 539.057 240.598 539.243 240.932 539.444 241.26 C 545.354 251.553 549.822 262.797 552.595 274.726 L 552.599 274.73 C 552.666 276.076 552.951 277.401 553.441 278.658 C 555.013 286.622 555.855 294.868 555.855 303.329 L 555.855 351.218 C 552.88 349.087 549.793 346.951 546.569 344.981 C 515.348 325.745 474.436 315.504 431.821 315.504 C 389.207 315.504 348.299 325.745 317.082 344.981 C 313.827 346.948 310.76 349.079 307.797 351.218 L 307.797 303.329 C 307.797 294.432 308.695 285.77 310.492 277.422 C 310.503 277.105 310.503 276.787 310.492 276.467 C 313.245 263.912 317.822 252.089 324.01 241.309 L 324.01 241.313 C 324.2 241.129 324.39 240.942 324.571 240.749 L 324.616 240.749 C 324.619 240.562 324.619 240.376 324.616 240.189 C 324.619 240.001 324.619 239.815 324.616 239.628 C 334.585 222.918 348.385 208.797 364.837 198.448 L 364.834 198.448 C 365.02 198.452 365.211 198.452 365.397 198.448 C 384.462 186.549 407.049 179.687 431.36 179.687 L 431.949 179.976 Z M 284.708 238.828 C 288.806 238.789 292.858 239.388 296.805 240.512 C 292.65 249.335 289.352 258.624 286.98 268.294 C 285.126 269.865 283.107 271.268 280.985 272.505 C 269.73 278.988 256.259 279.68 244.556 274.694 C 246.127 262.075 253.436 250.76 264.681 244.258 C 270.901 240.667 277.804 238.87 284.71 238.757 L 284.708 238.828 Z M 579.2 238.828 C 586.11 238.828 593.011 240.737 599.23 244.328 C 610.478 250.829 617.804 262.144 619.355 274.763 C 607.652 279.761 594.181 279.031 582.929 272.575 C 582.929 272.575 582.922 272.575 582.922 272.568 C 580.79 271.335 578.766 269.929 576.931 268.357 C 574.573 258.691 571.254 249.402 567.106 240.575 C 571.035 239.394 575.123 238.834 579.196 238.891 L 579.2 238.828 Z M 373.601 251.958 L 373.601 251.961 C 370.253 251.961 367.039 253.289 364.675 255.657 C 362.307 258.025 360.975 261.236 360.975 264.584 L 360.975 288.627 C 360.975 291.974 362.307 295.184 364.675 297.552 C 367.039 299.92 370.253 301.249 373.601 301.249 C 376.949 301.249 380.159 299.92 382.527 297.552 C 384.895 295.184 386.223 291.974 386.223 288.627 L 386.223 264.584 C 386.223 261.236 384.895 258.025 382.527 255.657 C 380.159 253.289 376.949 251.961 373.601 251.961 L 373.601 251.958 Z M 490.316 251.958 L 490.316 251.961 C 486.968 251.961 483.754 253.289 481.386 255.657 C 479.021 258.025 477.69 261.236 477.69 264.584 L 477.69 288.627 C 477.69 291.974 479.021 295.184 481.386 297.552 C 483.754 299.92 486.968 301.249 490.316 301.249 C 493.663 301.249 496.873 299.92 499.241 297.552 C 501.609 295.184 502.938 291.974 502.938 288.627 L 502.938 264.584 C 502.938 261.236 501.609 258.025 499.241 255.657 C 496.873 253.289 493.663 251.961 490.316 251.961 L 490.316 251.958 Z M 431.96 341.411 C 470.451 341.411 507.321 351.031 533.456 367.139 C 544 373.64 552.341 380.807 558.549 388.327 L 558.546 388.331 C 558.725 388.542 558.912 388.751 559.106 388.947 C 567.957 399.9 572.31 411.592 572.31 423.058 C 572.31 442.625 559.663 462.839 533.534 478.949 C 507.397 495.054 470.531 504.678 432.038 504.678 C 393.547 504.678 356.677 495.058 330.551 478.949 C 304.421 462.839 291.767 442.625 291.767 423.058 C 291.767 411.633 296.091 399.994 304.869 389.073 L 304.869 389.077 C 305.105 388.824 305.327 388.563 305.542 388.291 C 311.744 380.797 320.064 373.656 330.572 367.18 C 356.701 351.076 393.571 341.452 432.059 341.452 L 431.96 341.411 Z M 374.867 409.023 L 374.863 409.026 C 371.153 409.04 367.597 410.524 364.982 413.16 C 362.367 415.796 360.905 419.358 360.919 423.072 C 360.934 426.765 362.406 430.302 365.018 432.914 C 367.632 435.525 371.17 436.998 374.863 437.009 C 378.574 437.022 382.136 435.56 384.772 432.949 C 387.404 430.334 388.891 426.782 388.902 423.072 C 388.92 419.344 387.443 415.763 384.807 413.125 C 382.171 410.489 378.591 409.012 374.863 409.026 L 374.867 409.023 Z M 488.947 409.023 L 488.947 409.026 C 485.233 409.04 481.681 410.527 479.066 413.163 C 476.451 415.796 474.993 419.362 475.007 423.072 C 475.021 426.764 476.494 430.302 479.105 432.914 C 481.716 435.521 485.254 436.994 488.947 437.009 C 492.658 437.022 496.22 435.564 498.856 432.949 C 501.488 430.334 502.975 426.782 502.989 423.072 C 503.007 419.34 501.531 415.76 498.895 413.125 C 496.255 410.485 492.675 409.012 488.947 409.026 L 488.947 409.023 Z" fill-rule="evenodd" style=""/>
</svg>