<?xml version="1.0" encoding="UTF-8"?>
<svg width="700pt" height="700pt" version="1.1" viewBox="0 0 700 700" xmlns="http://www.w3.org/2000/svg">
 <g fill-rule="evenodd">
  <path d="m330.55 144.43c-7.1328 1.3984-13.965 4.1719-19.961 8-10.473 6.6797-16.285 17.484-19.926 27.309-1.4961 4.0391-1.4961 7.2539-1.6055 10.152-0.10938 2.8945 0 5.2656 0 5.2656v-0.003906c0.082031 2.3242 1.0898 4.5234 2.7969 6.1055 1.7031 1.582 3.9688 2.418 6.293 2.3281 2.3281-0.089843 4.5195-1.1016 6.0977-2.8125 1.5781-1.7109 2.4102-3.9766 2.3125-6.3008 0 0-0.082032-1.7539 0-3.9297 0.082031-2.1758 0.60938-4.9805 0.51172-4.7148 2.8984-7.8242 7.5273-15.188 12.918-18.629 8.0234-5.1211 19.578-7.4922 28.301-5.4336 10.328 2.4375 21.293 10.523 25.941 19.551 4.2227 8.1914 4.5859 20.695 0.85547 29.086-4.0859 9.1836-14.008 18.371-22.148 19.48l0.003906-0.003906h-0.035156c-34.176 4.6875-114.98 2.1211-114.98 2.1211-4.8359-0.17188-8.8906 3.6094-9.0586 8.4414-0.17188 4.832 3.6094 8.8867 8.4414 9.0586 0 0 79.508 3.0195 117.99-2.2539 16.977-2.3164 29.566-15.758 35.785-29.734 6.1992-13.934 5.6719-30.664-1.3008-44.195-7.5039-14.566-21.992-24.914-37.496-28.574-7.1914-1.6992-14.605-1.6992-21.738-0.31641z"/>
  <path d="m476.33 228c-7.9141 2.1562-11.195 7.5156-14.254 11.723-3.0586 4.207-5.0938 8.1016-5.0938 8.1016-6 10.457 10.145 19.031 15.449 8.2031 0 0 1.5625-2.9453 3.793-6.0156 2.1445-3.2383 3.0156-4.4297 5.3984-4.9531 6.7266-1.4883 15.742 1.5742 19.688 6.2891 3.8242 4.5742 5.1562 15.281 2.5977 20.953-2.2695 5.0312-10.512 10.469-16.918 11.141-94.805 9.9805-193.02-0.28125-288.27-0.82422h-0.070312c-10.867 0-25.199 1.3633-34.52 12.375-8.9062 10.512-11.582 25.609-5.9805 38.52 5.5195 12.719 18.164 20.562 31.375 21.5 84.324 5.9844 161.73-2.5898 241.38 2.3242 1.5195 0.17578 3.9727 1.4688 6.3906 4.8203 2.418 3.3438 4.2891 8.1992 4.8203 11.727 1.1289 7.5273-3.1562 18.93-8.375 22.215-6.3086 3.9727-20.176 2.7305-27.48-2.2539 0.40234 0.28125-2.6875-3.9414-4.1719-8.1367-1.4844-4.1914-2.2891-7.9609-2.2891-7.9609-2.1484-11.781-19.887-8.0664-17.125 3.5859 0 0 0.97656 4.7695 2.9062 10.219 1.9258 5.4531 3.8555 12.008 10.801 16.75 13.156 8.9844 32.031 11.828 46.688 2.5977 13.578-8.5547 18.535-25.176 16.371-39.613-0.99609-6.6289-3.6602-13.43-7.9648-19.379-4.3047-5.9492-10.758-11.492-19.48-12.031-81.562-5.0312-158.87 3.5195-241.24-2.3242-6.0469-0.42188-14.375-6.0117-16.543-11.004-2.293-5.2891-0.63281-15.613 3.2812-20.234 3.3203-3.918 12.434-6.1797 21.125-6.1875 94.043 0.54297 192.94 10.961 290.22 0.71875 12.789-1.3477 25.363-8.7656 31.035-21.328 5.7812-12.812 4.0508-28.395-5.1289-39.375-9.2344-11.043-24.484-15.93-38.418-12.133z"/>
  <path d="m315.27 387.04c-4.6094 0.33984-8.1602 4.207-8.1055 8.8281 0.054687 4.6211 3.6953 8.4023 8.3125 8.6367l30.18 1.1562c2.3867 0.21094 4.7578-0.56641 6.5586-2.1523 1.8008-1.5898 2.8672-3.8438 2.957-6.2422 0.089844-2.3945-0.80859-4.7227-2.4844-6.4375-1.6758-1.7188-3.9844-2.668-6.3828-2.6367l-30.145-1.1562v0.003906c-0.29687-0.015625-0.59375-0.015625-0.89062 0z"/>
  <path d="m470.55 184.18c-0.20312-0.007812-0.41016-0.007812-0.61328 0l-26.695 2.3242c-2.3398 0.16797-4.5117 1.2695-6.0352 3.0547-1.5195 1.7852-2.2578 4.1055-2.0547 6.4453 0.20703 2.3359 1.3438 4.4922 3.1523 5.9805 1.8086 1.4922 4.1445 2.1953 6.4766 1.9531l26.66-2.3242c4.6836-0.41797 8.2031-4.4648 7.9648-9.1602-0.23828-4.6992-4.1484-8.3711-8.8555-8.3086z"/>
  <path d="m515.26 322.06c-4.8594-0.40234-8.3945 0.85938-11.246 1.8789-2.8516 1.0312-5.0234 2.1875-5.0234 2.1875-2.1562 1.0039-3.8125 2.8438-4.582 5.0977-0.77344 2.25-0.59375 4.7188 0.49609 6.8359 1.0859 2.1172 2.9922 3.6992 5.2734 4.3828 2.2773 0.68359 4.7383 0.40625 6.8125-0.76562 0 0 1.2266-0.62891 2.9727-1.2617 1.7461-0.62891 4.0039-0.91016 3.8633-0.92578 5.8008 0.48828 10.047 2.6094 11.449 5.5352 2.4102 5.0312 2.3594 13.219-0.066407 18.457-1.4609 3.1523-4.9492 5.7695-8.7148 6.4609 1.168-0.21094-1.7266-0.24609-3.8945-0.99609-2.1719-0.73437-3.8984-1.5742-3.8984-1.5742h-0.003907c-4.3594-2.0859-9.5859-0.24219-11.672 4.1211-2.0859 4.3594-0.24219 9.5859 4.1211 11.672 0 0 2.5508 1.207 5.8086 2.3242 3.2617 1.1016 6.9766 2.6953 12.715 1.6445 9.1758-1.6992 17.355-7.5156 21.43-16.305 4.8359-10.434 4.9844-22.809-0.066406-33.359-5.1719-10.797-16.402-14.637-25.773-15.414z"/>
 </g>
</svg>
