<?xml version="1.0" encoding="UTF-8"?>
<svg version="1.1" viewBox="0 0 700 700" xmlns="http://www.w3.org/2000/svg" xmlns:xlink="http://www.w3.org/1999/xlink">
 <defs>
  <symbol id="v" overflow="visible">
   <path d="m1.875-0.10938c-0.09375 0.054688-0.19531 0.089844-0.29688 0.10938-0.10547 0.03125-0.21484 0.046875-0.32812 0.046875-0.34375 0-0.61719-0.09375-0.8125-0.28125-0.19922-0.19531-0.29688-0.45703-0.29688-0.78125 0-0.32031 0.097656-0.57812 0.29688-0.76562 0.19531-0.19531 0.46875-0.29688 0.8125-0.29688 0.11328 0 0.22266 0.015625 0.32812 0.046875 0.10156 0.023438 0.20312 0.058594 0.29688 0.10938v0.42188c-0.09375-0.070312-0.19531-0.11719-0.29688-0.14062-0.09375-0.03125-0.19531-0.046875-0.29688-0.046875-0.1875 0-0.33594 0.0625-0.4375 0.1875-0.10547 0.11719-0.15625 0.27734-0.15625 0.48438 0 0.21094 0.050781 0.375 0.15625 0.5 0.10156 0.11719 0.25 0.17188 0.4375 0.17188 0.10156 0 0.20312-0.015625 0.29688-0.046875 0.10156-0.03125 0.20312-0.078125 0.29688-0.14062z"/>
  </symbol>
  <symbol id="c" overflow="visible">
   <path d="m1.375-1.1094c-0.042969-0.019531-0.085938-0.035156-0.125-0.046875-0.042969-0.007812-0.089844-0.015625-0.14062-0.015625-0.125 0-0.22656 0.042969-0.29688 0.125-0.0625 0.074219-0.09375 0.1875-0.09375 0.34375v0.70312h-0.48438v-1.5312h0.48438v0.25c0.0625-0.09375 0.13281-0.16016 0.21875-0.20312 0.082031-0.050781 0.17969-0.078125 0.29688-0.078125h0.046875 0.09375z"/>
  </symbol>
  <symbol id="a" overflow="visible">
   <path d="m1.7656-0.76562v0.14062h-1.1406c0.007812 0.11719 0.046875 0.20312 0.10938 0.26562 0.070313 0.054687 0.17578 0.078125 0.3125 0.078125 0.09375 0 0.19141-0.015625 0.29688-0.046875 0.11328-0.03125 0.22656-0.078125 0.34375-0.14062v0.375c-0.11719 0.042969-0.23047 0.074219-0.34375 0.09375-0.11719 0.03125-0.23047 0.046875-0.34375 0.046875-0.28125 0-0.5-0.066406-0.65625-0.20312-0.14844-0.14453-0.21875-0.34766-0.21875-0.60938 0-0.25 0.070312-0.44141 0.21875-0.57812 0.15625-0.14453 0.36328-0.21875 0.625-0.21875 0.23828 0 0.42969 0.074219 0.57812 0.21875 0.14453 0.14844 0.21875 0.33984 0.21875 0.57812zm-0.5-0.17188c0-0.09375-0.03125-0.16406-0.09375-0.21875-0.054687-0.050781-0.12109-0.078125-0.20312-0.078125-0.09375 0-0.17188 0.027344-0.23438 0.078125-0.0625 0.054688-0.10156 0.125-0.10938 0.21875z"/>
  </symbol>
  <symbol id="j" overflow="visible">
   <path d="m0.92188-0.6875c-0.10547 0-0.18359 0.023438-0.23438 0.0625-0.054688 0.03125-0.078125 0.078125-0.078125 0.14062s0.019531 0.11719 0.0625 0.15625c0.039063 0.03125 0.097656 0.046875 0.17188 0.046875 0.09375 0 0.17188-0.03125 0.23438-0.09375 0.0625-0.070312 0.09375-0.15625 0.09375-0.25v-0.0625zm0.75-0.1875v0.875h-0.5v-0.23438c-0.0625 0.09375-0.13672 0.16797-0.21875 0.21875-0.085937 0.039062-0.18359 0.0625-0.29688 0.0625-0.15625 0-0.28906-0.046875-0.39062-0.14062-0.09375-0.09375-0.14062-0.21094-0.14062-0.35938 0-0.1875 0.054688-0.32031 0.17188-0.40625 0.125-0.082031 0.32031-0.125 0.59375-0.125h0.28125v-0.03125c0-0.082031-0.03125-0.14062-0.09375-0.17188s-0.15625-0.046875-0.28125-0.046875c-0.10547 0-0.20312 0.011719-0.29688 0.03125-0.085938 0.023437-0.16797 0.054687-0.25 0.09375v-0.375c0.10156-0.03125 0.20703-0.050781 0.3125-0.0625 0.11328-0.007813 0.22266-0.015625 0.32812-0.015625 0.26953 0 0.46875 0.058594 0.59375 0.17188 0.125 0.10547 0.1875 0.27734 0.1875 0.51562z"/>
  </symbol>
  <symbol id="b" overflow="visible">
   <path d="m0.76562-1.9688v0.4375h0.5v0.34375h-0.5v0.65625c0 0.074219 0.015625 0.125 0.046875 0.15625 0.03125 0.023438 0.085938 0.03125 0.17188 0.03125h0.25v0.34375h-0.42188c-0.19922 0-0.33984-0.035156-0.42188-0.10938-0.074219-0.082031-0.10938-0.22266-0.10938-0.42188v-0.65625h-0.25v-0.34375h0.25v-0.4375z"/>
  </symbol>
  <symbol id="i" overflow="visible">
   <path d="m1.2812-1.3125v-0.8125h0.48438v2.125h-0.48438v-0.21875c-0.074219 0.085938-0.15234 0.15234-0.23438 0.20312-0.074219 0.039062-0.16797 0.0625-0.28125 0.0625-0.1875 0-0.34375-0.070312-0.46875-0.21875-0.11719-0.15625-0.17188-0.35156-0.17188-0.59375 0-0.22656 0.054688-0.41406 0.17188-0.5625 0.125-0.15625 0.28125-0.23438 0.46875-0.23438 0.11328 0 0.20703 0.023438 0.28125 0.0625 0.082031 0.042969 0.16016 0.10547 0.23438 0.1875zm-0.32812 1c0.10156 0 0.17969-0.035156 0.23438-0.10938 0.0625-0.082031 0.09375-0.19531 0.09375-0.34375 0-0.14453-0.03125-0.25391-0.09375-0.32812-0.054688-0.082031-0.13281-0.125-0.23438-0.125-0.10547 0-0.1875 0.042969-0.25 0.125-0.054687 0.074219-0.078125 0.18359-0.078125 0.32812 0 0.14844 0.023438 0.26172 0.078125 0.34375 0.0625 0.074219 0.14453 0.10938 0.25 0.10938z"/>
  </symbol>
  <symbol id="h" overflow="visible">
   <path d="m1.0469-0.3125c0.10156 0 0.17969-0.035156 0.23438-0.10938 0.0625-0.082031 0.09375-0.19531 0.09375-0.34375 0-0.14453-0.03125-0.25391-0.09375-0.32812-0.054688-0.082031-0.13281-0.125-0.23438-0.125-0.10547 0-0.1875 0.042969-0.25 0.125-0.054687 0.074219-0.078125 0.18359-0.078125 0.32812 0 0.14844 0.023438 0.26172 0.078125 0.34375 0.0625 0.074219 0.14453 0.10938 0.25 0.10938zm-0.32812-1c0.070312-0.082031 0.14844-0.14453 0.23438-0.1875 0.082031-0.039062 0.17578-0.0625 0.28125-0.0625 0.1875 0 0.33594 0.078125 0.45312 0.23438 0.125 0.14844 0.1875 0.33594 0.1875 0.5625 0 0.24219-0.0625 0.4375-0.1875 0.59375-0.11719 0.14844-0.26562 0.21875-0.45312 0.21875-0.10547 0-0.19922-0.023438-0.28125-0.0625-0.085937-0.050781-0.16406-0.11719-0.23438-0.20312v0.21875h-0.48438v-2.125h0.48438z"/>
  </symbol>
  <symbol id="g" overflow="visible">
   <path d="m0.03125-1.5312h0.48438l0.42188 1.0469 0.34375-1.0469h0.48438l-0.64062 1.6719c-0.0625 0.17578-0.13672 0.29688-0.21875 0.35938-0.085938 0.070312-0.19922 0.10938-0.34375 0.10938h-0.28125v-0.32812h0.15625c0.082031 0 0.14062-0.015625 0.17188-0.046875 0.039063-0.023437 0.070313-0.070313 0.09375-0.14062l0.015625-0.03125z"/>
  </symbol>
  <symbol id="e" overflow="visible">
   <path d="m0.25-2.0312h0.53125v2.0312h-0.53125z"/>
  </symbol>
  <symbol id="u" overflow="visible">
   <path d="m-0.03125-2.0312h0.57812l0.46875 0.71875 0.45312-0.71875h0.57812l-0.76562 1.1719v0.85938h-0.53125v-0.85938z"/>
  </symbol>
  <symbol id="t" overflow="visible">
   <path d="m0.25-2.0312h0.53125v0.73438l0.76562-0.73438h0.60938l-0.98438 0.95312 1.0781 1.0781h-0.65625l-0.8125-0.79688v0.79688h-0.53125z"/>
  </symbol>
  <symbol id="s" overflow="visible">
   <path d="m1.1875-1.6875c-0.15625 0-0.28125 0.058594-0.375 0.17188-0.085938 0.11719-0.125 0.28125-0.125 0.5 0 0.21094 0.039062 0.375 0.125 0.5 0.09375 0.11719 0.21875 0.17188 0.375 0.17188 0.16406 0 0.28906-0.054688 0.375-0.17188 0.082031-0.125 0.125-0.28906 0.125-0.5 0-0.21875-0.042969-0.38281-0.125-0.5-0.085938-0.11328-0.21094-0.17188-0.375-0.17188zm0-0.39062c0.33203 0 0.58594 0.09375 0.76562 0.28125 0.1875 0.1875 0.28125 0.44922 0.28125 0.78125 0 0.33594-0.09375 0.59375-0.28125 0.78125-0.17969 0.1875-0.43359 0.28125-0.76562 0.28125-0.32422 0-0.57812-0.09375-0.76562-0.28125s-0.28125-0.44531-0.28125-0.78125c0-0.33203 0.09375-0.59375 0.28125-0.78125s0.44141-0.28125 0.76562-0.28125z"/>
  </symbol>
  <symbol id="f" overflow="visible">
   <path d="m0.25-2.0312h0.59375l0.73438 1.3906v-1.3906h0.5v2.0312h-0.57812l-0.75-1.4062v1.4062h-0.5z"/>
  </symbol>
  <symbol id="r" overflow="visible">
   <path d="m1.2344-2.125v0.32812h-0.26562c-0.0625 0-0.10938 0.011719-0.14062 0.03125-0.03125 0.023437-0.046875 0.0625-0.046875 0.125v0.10938h0.42188v0.34375h-0.42188v1.1875h-0.48438v-1.1875h-0.25v-0.34375h0.25v-0.10938c0-0.16406 0.046875-0.28516 0.14062-0.35938 0.09375-0.082031 0.23828-0.125 0.4375-0.125z"/>
  </symbol>
  <symbol id="d" overflow="visible">
   <path d="m0.96875-1.2188c-0.11719 0-0.20312 0.042969-0.26562 0.125-0.054687 0.074219-0.078125 0.18359-0.078125 0.32812 0 0.14844 0.023438 0.26172 0.078125 0.34375 0.0625 0.074219 0.14844 0.10938 0.26562 0.10938 0.10156 0 0.17969-0.035156 0.23438-0.10938 0.0625-0.082031 0.09375-0.19531 0.09375-0.34375 0-0.14453-0.03125-0.25391-0.09375-0.32812-0.054687-0.082031-0.13281-0.125-0.23438-0.125zm0-0.34375c0.25781 0 0.46094 0.074219 0.60938 0.21875 0.14453 0.13672 0.21875 0.32812 0.21875 0.57812s-0.074219 0.44922-0.21875 0.59375c-0.14844 0.14844-0.35156 0.21875-0.60938 0.21875-0.27344 0-0.48047-0.070312-0.625-0.21875-0.14844-0.14453-0.21875-0.34375-0.21875-0.59375s0.070312-0.44141 0.21875-0.57812c0.14453-0.14453 0.35156-0.21875 0.625-0.21875z"/>
  </symbol>
  <symbol id="q" overflow="visible">
   <path d="m1.6562-1.2812c0.0625-0.09375 0.13281-0.16016 0.21875-0.20312 0.082031-0.050781 0.17578-0.078125 0.28125-0.078125 0.17578 0 0.30469 0.058594 0.39062 0.17188 0.09375 0.10547 0.14062 0.25781 0.14062 0.45312v0.9375h-0.48438v-0.79688-0.03125-0.0625c0-0.10156-0.015625-0.17969-0.046875-0.23438-0.03125-0.050781-0.085938-0.078125-0.15625-0.078125-0.09375 0-0.16797 0.042969-0.21875 0.125-0.042969 0.074219-0.070312 0.18359-0.078125 0.32812v0.75h-0.48438v-0.79688c0-0.16406-0.015625-0.27344-0.046875-0.32812-0.03125-0.050781-0.085937-0.078125-0.15625-0.078125-0.09375 0-0.16797 0.042969-0.21875 0.125-0.054687 0.074219-0.078125 0.18359-0.078125 0.32812v0.75h-0.48438v-1.5312h0.48438v0.21875c0.0625-0.082031 0.12891-0.14453 0.20312-0.1875 0.082031-0.039062 0.17188-0.0625 0.26562-0.0625 0.10156 0 0.19531 0.027344 0.28125 0.078125 0.082031 0.054687 0.14453 0.12109 0.1875 0.20312z"/>
  </symbol>
  <symbol id="p" overflow="visible">
   <path d="m1.7656-0.9375v0.9375h-0.48438v-0.70312c0-0.13281-0.007812-0.22656-0.015625-0.28125 0-0.050781-0.011719-0.085937-0.03125-0.10938-0.011719-0.03125-0.039063-0.054688-0.078125-0.078125-0.03125-0.019531-0.070312-0.03125-0.10938-0.03125-0.09375 0-0.17188 0.042969-0.23438 0.125-0.0625 0.074219-0.09375 0.18359-0.09375 0.32812v0.75h-0.48438v-2.125h0.48438v0.8125c0.070312-0.082031 0.14844-0.14453 0.23438-0.1875 0.082031-0.039062 0.17578-0.0625 0.28125-0.0625 0.17578 0 0.30469 0.058594 0.39062 0.17188 0.09375 0.10547 0.14062 0.25781 0.14062 0.45312z"/>
  </symbol>
  <symbol id="o" overflow="visible">
   <path d="m0.21875-0.59375v-0.9375h0.48438v0.15625 0.3125 0.25 0.26562c0.007813 0.054687 0.023437 0.089844 0.046875 0.10938 0.019531 0.042969 0.046875 0.074219 0.078125 0.09375 0.03125 0.011719 0.066406 0.015625 0.10938 0.015625 0.10156 0 0.17969-0.035156 0.23438-0.10938 0.0625-0.082031 0.09375-0.19531 0.09375-0.34375v-0.75h0.48438v1.5312h-0.48438v-0.21875c-0.074219 0.085938-0.15234 0.15234-0.23438 0.20312-0.085938 0.039062-0.17188 0.0625-0.26562 0.0625-0.17969 0-0.3125-0.050781-0.40625-0.15625-0.09375-0.11328-0.14062-0.27344-0.14062-0.48438z"/>
  </symbol>
  <symbol id="n" overflow="visible">
   <path d="m1.7656-0.9375v0.9375h-0.48438v-0.71875c0-0.125-0.007812-0.21094-0.015625-0.26562 0-0.050781-0.011719-0.085937-0.03125-0.10938-0.011719-0.03125-0.039063-0.054688-0.078125-0.078125-0.03125-0.019531-0.070312-0.03125-0.10938-0.03125-0.09375 0-0.17188 0.042969-0.23438 0.125-0.0625 0.074219-0.09375 0.18359-0.09375 0.32812v0.75h-0.48438v-1.5312h0.48438v0.21875c0.070312-0.082031 0.14844-0.14453 0.23438-0.1875 0.082031-0.039062 0.17578-0.0625 0.28125-0.0625 0.17578 0 0.30469 0.058594 0.39062 0.17188 0.09375 0.10547 0.14062 0.25781 0.14062 0.45312z"/>
  </symbol>
  <symbol id="m" overflow="visible">
   <path d="m0.25-2.0312h0.875c0.25781 0 0.45703 0.058594 0.59375 0.17188 0.14453 0.11719 0.21875 0.27734 0.21875 0.48438 0 0.21875-0.074219 0.38672-0.21875 0.5-0.13672 0.11719-0.33594 0.17188-0.59375 0.17188h-0.34375v0.70312h-0.53125zm0.53125 0.375v0.5625h0.29688c0.09375 0 0.16406-0.019531 0.21875-0.0625 0.0625-0.050781 0.09375-0.125 0.09375-0.21875s-0.03125-0.16016-0.09375-0.20312c-0.054687-0.050781-0.125-0.078125-0.21875-0.078125z"/>
  </symbol>
  <symbol id="l" overflow="visible">
   <path d="m0.23438-1.5312h0.48438v1.5c0 0.20703-0.054688 0.36328-0.15625 0.46875-0.09375 0.11328-0.23047 0.17188-0.40625 0.17188h-0.25v-0.32812h0.078125c0.09375 0 0.15625-0.023438 0.1875-0.0625 0.039063-0.042969 0.0625-0.125 0.0625-0.25zm0-0.59375h0.48438v0.40625h-0.48438z"/>
  </symbol>
  <symbol id="k" overflow="visible">
   <path d="m1.4688-1.4844v0.40625c-0.0625-0.050781-0.13281-0.085937-0.20312-0.10938-0.0625-0.019531-0.13281-0.03125-0.20312-0.03125-0.13672 0-0.24609 0.042969-0.32812 0.125-0.074219 0.074219-0.10938 0.18359-0.10938 0.32812 0 0.14844 0.035156 0.26172 0.10938 0.34375 0.082031 0.074219 0.19141 0.10938 0.32812 0.10938 0.070312 0 0.14453-0.007812 0.21875-0.03125 0.070312-0.019531 0.13281-0.050781 0.1875-0.09375v0.39062c-0.074219 0.03125-0.15234 0.050781-0.23438 0.0625-0.074219 0.019531-0.15234 0.03125-0.23438 0.03125-0.27344 0-0.48438-0.070312-0.64062-0.21875-0.15625-0.14453-0.23438-0.34375-0.23438-0.59375s0.078125-0.44141 0.23438-0.57812c0.15625-0.14453 0.36719-0.21875 0.64062-0.21875 0.082031 0 0.16016 0.007812 0.23438 0.015625 0.082031 0.011719 0.16016 0.03125 0.23438 0.0625z"/>
  </symbol>
 </defs>
 <g>
  <path d="m548.74 173.97h-397.48c-4.9492 0-8.9609-4.0117-8.9609-8.9609v-109.01c0-4.9492 4.0117-8.9609 8.9609-8.9609h397.48c2.375 0 4.6562 0.94531 6.3359 2.625 1.6797 1.6797 2.625 3.9609 2.625 6.3359v109.01c0 2.3789-0.94531 4.6562-2.625 6.3359-1.6797 1.6836-3.9609 2.625-6.3359 2.625zm-388.52-17.922 379.55 0.003906v-91.09h-379.55z"/>
  <path d="m548.74 512.96h-397.48c-4.9492 0-8.9609-4.0117-8.9609-8.9609v-448c0-4.9492 4.0117-8.9609 8.9609-8.9609h397.48c2.375 0 4.6562 0.94531 6.3359 2.625 1.6797 1.6797 2.625 3.9609 2.625 6.3359v448c0 2.375-0.94531 4.6562-2.625 6.3359-1.6797 1.6797-3.9609 2.625-6.3359 2.625zm-388.52-17.922h379.55v-430.08h-379.55z"/>
  <path d="m350 443.07c-62.043 0-112.52-50.473-112.52-112.52 0-62.051 50.477-112.52 112.52-112.52s112.52 50.473 112.52 112.52-50.477 112.52-112.52 112.52zm0-207.12c-52.164 0-94.602 42.438-94.602 94.594 0 52.16 42.438 94.602 94.602 94.602s94.602-42.438 94.602-94.602c0-52.16-42.438-94.594-94.602-94.594z"/>
  <path d="m370.72 368.79c-17.82 0-28.504-5.0117-34.887-8.0117-3.625-1.6797-3.625-1.6797-6.5352-1.6797s-2.918 0-6.5312 1.6797c-6.3672 3-17.078 8.0117-34.926 8.0117s-28.5-5.0117-34.887-8.0117c-3.2578-1.5234-3.4492-1.5859-5.0977-1.6797-4.9492-0.23437-8.7695-4.4336-8.5391-9.3828 0.23047-4.9453 4.4297-8.7695 9.3789-8.5391 5.2578 0.24609 8.0234 1.5469 11.855 3.3594 5.6953 2.6719 13.469 6.3242 27.289 6.3242 13.82 0 21.598-3.6523 27.277-6.3125 4.9062-2.2969 7.543-3.3945 14.152-3.3945s9.2461 1.1211 14.125 3.3594c5.6992 2.6719 13.48 6.3242 27.301 6.3242 13.82 0 21.594-3.6523 27.277-6.3164 4.8945-2.2891 7.5312-3.3594 14.145-3.3594 6.6133 0 9.2383 1.1211 14.125 3.3594 5.0859 2.3906 12.02 5.6445 23.582 6.2266h-0.003907c4.9492 0.25 8.7578 4.4609 8.5078 9.4102-0.24609 4.9492-4.4609 8.7578-9.4102 8.5117-15.086-0.76172-24.594-5.2266-30.273-7.8945-3.6172-1.6797-3.6172-1.6797-6.5312-1.6797-2.9102 0-2.918 0-6.5312 1.6797-6.3711 3.0039-17.059 8.0156-34.863 8.0156z"/>
  <path d="m453.55 344.36c-12.32 0-18.809-3.0312-24.512-5.6992-4.7773-2.2383-8.5508-4.0078-16.906-4.0078s-12.137 1.7695-16.91 4.0078c-5.7031 2.6719-12.188 5.6992-24.508 5.6992s-18.816-3.0312-24.516-5.6992c-4.7773-2.2383-8.5469-4.0078-16.906-4.0078s-12.137 1.7695-16.91 4.0078c-5.6992 2.6719-12.164 5.6992-24.512 5.6992s-18.816-3.0312-24.516-5.6992c-4.7773-2.2383-8.5508-4.0078-16.91-4.0078h-0.003907c-4.9492 0-8.9609-4.0117-8.9609-8.9609 0-4.9492 4.0117-8.9609 8.9609-8.9609 12.355 0 18.816 3.0312 24.516 5.707 4.7773 2.2383 8.5508 4.0039 16.91 4.0039s12.129-1.7695 16.906-4.0039c5.6992-2.6758 12.184-5.707 24.504-5.707s18.809 3.0312 24.512 5.707c4.7773 2.2383 8.5508 4.0039 16.91 4.0039s12.129-1.7695 16.906-4.0039c5.7109-2.6758 12.176-5.707 24.551-5.707s18.809 3.0312 24.512 5.707c4.7773 2.2383 8.5508 4.0039 16.906 4.0039 4.9492 0 8.9609 4.0117 8.9609 8.9609 0 4.9453-4.0117 8.957-8.9609 8.957z"/>
  <path d="m350 474.88c-44.867 0.003906-87.184-20.863-114.5-56.457-27.316-35.598-36.523-81.871-24.914-125.21 11.609-43.34 42.719-78.816 84.168-95.988 41.453-17.172 88.535-14.09 127.39 8.3398 38.859 22.434 65.078 61.66 70.938 106.14s-9.3047 89.164-41.027 120.89c-27.004 27.16-63.754 42.383-102.05 42.277zm0-270.73c-69.699 0-126.4 56.707-126.4 126.4 0 69.699 56.703 126.41 126.4 126.41s126.4-56.711 126.4-126.41-56.703-126.41-126.4-126.41z"/>
  <path d="m270.73 145.36h-92.5c-4.9492 0-8.9609-4.0117-8.9609-8.9609v-51.785c0-4.9492 4.0117-8.957 8.9609-8.957h92.5c2.375 0 4.6562 0.94141 6.3359 2.6211 1.6797 1.6797 2.625 3.9609 2.625 6.3359v51.785c0 2.375-0.94531 4.6562-2.625 6.3359-1.6797 1.6797-3.9609 2.625-6.3359 2.625zm-83.539-17.922h74.578v-33.863h-74.578z"/>
  <path d="m326.74 148.1c-9.9688 0-19.531-3.9609-26.582-11.012-7.0508-7.0508-11.008-16.609-11.008-26.582 0-9.9688 3.957-19.531 11.008-26.582 7.0508-7.0508 16.613-11.012 26.582-11.012 9.9727 0 19.531 3.9609 26.582 11.012s11.012 16.613 11.012 26.582c-0.011719 9.9688-3.9727 19.523-11.023 26.57-7.0469 7.0508-16.602 11.012-26.57 11.023zm0-57.266c-5.2148 0-10.219 2.0742-13.91 5.7617-3.6875 3.6914-5.7617 8.6953-5.7617 13.91 0 5.2188 2.0742 10.223 5.7617 13.91 3.6914 3.6914 8.6953 5.7617 13.91 5.7617 5.2188 0 10.223-2.0703 13.91-5.7617 3.6914-3.6875 5.7617-8.6914 5.7617-13.91-0.003906-5.2148-2.0781-10.215-5.7656-13.902s-8.6914-5.7617-13.906-5.7695z"/>
  <path d="m326.74 147.04c-4.9492 0-8.9609-4.0078-8.9609-8.957v-56.219c0-4.9492 4.0117-8.9609 8.9609-8.9609 4.9492 0 8.9609 4.0117 8.9609 8.9609v56.219c0 4.9492-4.0117 8.957-8.9609 8.957z"/>
  <path d="m409.92 148.1c-9.9727 0-19.535-3.9609-26.586-11.012-7.0469-7.0508-11.008-16.609-11.008-26.582 0-9.9688 3.9609-19.531 11.008-26.582 7.0508-7.0508 16.613-11.012 26.586-11.012 9.9688 0 19.531 3.9609 26.582 11.012 7.0469 7.0508 11.008 16.613 11.008 26.582-0.011719 9.9688-3.9766 19.52-11.023 26.566-7.0469 7.0508-16.602 11.016-26.566 11.027zm0-57.266c-5.2188 0-10.223 2.0742-13.914 5.7617-3.6875 3.6914-5.7617 8.6953-5.7617 13.91 0 5.2188 2.0742 10.223 5.7617 13.91 3.6914 3.6914 8.6953 5.7617 13.914 5.7617 5.2148 0 10.219-2.0703 13.91-5.7617 3.6875-3.6875 5.7617-8.6914 5.7617-13.91-0.007812-5.2148-2.082-10.215-5.7695-13.902s-8.6875-5.7617-13.902-5.7695z"/>
  <path d="m438.57 119.46h-56.219c-4.9453 0-8.957-4.0117-8.957-8.9609 0-4.9492 4.0117-8.9609 8.957-8.9609h56.219c4.9492 0 8.9609 4.0117 8.9609 8.9609 0 4.9492-4.0117 8.9609-8.9609 8.9609z"/>
  <path d="m493.14 148.1c-9.9688 0-19.531-3.9609-26.582-11.012-7.0508-7.0508-11.012-16.609-11.012-26.582 0-9.9688 3.9609-19.531 11.012-26.582 7.0508-7.0508 16.613-11.012 26.582-11.012 9.9727 0 19.531 3.9609 26.582 11.012 7.0508 7.0508 11.012 16.613 11.012 26.582-0.011719 9.9688-3.9727 19.523-11.023 26.57-7.0469 7.0508-16.602 11.012-26.57 11.023zm0-57.266c-5.2148 0-10.219 2.0742-13.91 5.7617-3.6875 3.6914-5.7617 8.6953-5.7617 13.91 0 5.2188 2.0742 10.223 5.7617 13.91 3.6914 3.6914 8.6953 5.7617 13.91 5.7617 5.2188 0 10.223-2.0703 13.91-5.7617 3.6914-3.6875 5.7617-8.6914 5.7617-13.91-0.003906-5.2148-2.0781-10.215-5.7656-13.906-3.6875-3.6875-8.6875-5.7617-13.906-5.7656z"/>
  <path d="m493.14 147.04c-4.9492 0-8.9609-4.0078-8.9609-8.957v-56.219c0-4.9492 4.0117-8.9609 8.9609-8.9609s8.9609 4.0117 8.9609 8.9609v56.219c0 4.9492-4.0117 8.957-8.9609 8.957z"/>
 </g>
</svg>
