<?xml version="1.0" encoding="UTF-8"?>
<svg version="1.1" viewBox="0 0 700 700" xmlns="http://www.w3.org/2000/svg">
 <path d="m211.63 42.113c-0.78516-0.066406-1.5781-0.066406-2.3633 0-5.2188 0.69141-9.6094 4.25-11.363 9.2109 0 0-23.234 60.559-5.5391 116.03h-5.9727c-12.391 0-24.773 3.3594-35.891 9.793-0.003906 0.003906-0.007812 0.003906-0.011718 0.007812-23.695 13.695-37.828 39.523-36.582 66.867 0.20703 4.543 2.6094 8.6992 6.4375 11.148 19.289 12.34 43.047 14.828 64.18 7.3008-0.050782 1.6797 0 3.3594 0 5.1016v80.402c-11.523 15.602-18.016 33.129-18.016 51.559 0 33.719 21.691 64.453 56.297 85.785 34.602 21.324 79.953 32.68 127.19 32.68s92.586-11.355 127.2-32.68c34.602-21.332 56.289-52.062 56.289-85.785 0-18.43-6.4883-35.961-18.008-51.559v-80.402c0-1.6797-0.039062-3.3594 0-5.1016 21.133 7.5273 44.891 5.0391 64.18-7.3008 3.8281-2.4492 6.2305-6.6055 6.4375-11.148 1.2461-27.344-12.879-53.172-36.582-66.867-0.003906-0.003906-0.007812-0.003906-0.011718-0.007812-11.117-6.4141-23.5-9.668-35.891-9.793-1.9922-0.019531-3.9844 0.042969-5.9727 0 17.707-55.473-5.5391-116.02-5.5391-116.02-1.7539-4.9648-6.1445-8.5234-11.363-9.2109-6.6172-0.875-12.93 3.043-15.082 9.3594-9.3828 27.602-15.738 44.391-22.289 54.223-5.6016 8.4297-10.996 12.867-21.961 17.535-24.012-13.57-51.766-21.324-81.332-21.324-29.57 0-57.316 7.7539-81.336 21.324-10.957-4.668-16.34-9.1055-21.961-17.535-6.5508-9.832-12.898-26.621-22.289-54.223-1.8633-5.4766-6.9062-9.2383-12.688-9.4727zm272.61 65.422c1.4297 17.816 0.80859 38.137-5.4766 56.113-6.6133-8.207-14-15.762-22.039-22.562 7.8398-5.2891 14.406-11.711 19.77-19.758 2.8008-4.2305 5.3516-8.793 7.7539-13.797zm-268.68 0c2.4258 4.9766 4.9141 9.5625 7.7539 13.789 5.3516 8.0508 11.934 14.48 19.77 19.762-8.0391 6.8008-15.426 14.355-22.039 22.562-6.2734-17.977-6.918-38.301-5.4766-56.113zm134.34 22.469c26.949 0 51.988 7.6055 73.113 20.797l0.003906 0.003907c0.20703 0.003906 0.41406 0.003906 0.62109 0 18.355 11.551 33.73 27.328 44.801 46.016 0.19141 0.38281 0.39844 0.75391 0.62109 1.1172 6.5508 11.41 11.504 23.875 14.578 37.098l0.003906 0.003906c0.074219 1.4922 0.39062 2.9609 0.93359 4.3555 1.7422 8.8281 2.6758 17.969 2.6758 27.348v53.086c-3.2969-2.3633-6.7188-4.7305-10.293-6.9141-34.609-21.324-79.961-32.676-127.2-32.676s-92.586 11.352-127.19 32.676c-3.6094 2.1797-7.0078 4.543-10.293 6.9141v-53.086c0-9.8633 0.99609-19.465 2.9883-28.719 0.011718-0.35156 0.011718-0.70313 0-1.0586 3.0508-13.918 8.125-27.023 14.984-38.973v0.003906c0.21094-0.20312 0.42188-0.41016 0.62109-0.625h0.050782c0.003906-0.20703 0.003906-0.41406 0-0.62109 0.003906-0.20703 0.003906-0.41406 0-0.62109 11.051-18.523 26.348-34.176 44.586-45.648h-0.003906c0.20703 0.003906 0.41797 0.003906 0.625 0 21.133-13.191 46.172-20.797 73.121-20.797zm-163.22 65.238c4.543-0.042969 9.0352 0.62109 13.41 1.8672-4.6055 9.7812-8.2617 20.078-10.891 30.797-2.0547 1.7422-4.293 3.2969-6.6445 4.668-12.477 7.1875-27.41 7.9531-40.383 2.4258 1.7422-13.988 9.8438-26.531 22.309-33.738 6.8945-3.9805 14.547-5.9727 22.203-6.0977zm326.45 0c7.6602 0 15.309 2.1172 22.203 6.0977 12.469 7.207 20.59 19.75 22.309 33.738-12.973 5.5391-27.906 4.7305-40.379-2.4258 0 0-0.007812 0-0.007812-0.007813-2.3633-1.3672-4.6055-2.9258-6.6406-4.668-2.6133-10.715-6.293-21.012-10.891-30.797 4.3555-1.3086 8.8867-1.9297 13.402-1.8672zm-227.91 14.555v0.003906c-3.7109 0-7.2734 1.4727-9.8945 4.0977-2.625 2.625-4.1016 6.1836-4.1016 9.8945v26.652c0 3.7109 1.4766 7.2695 4.1016 9.8945 2.6211 2.625 6.1836 4.0977 9.8945 4.0977 3.7109 0 7.2695-1.4727 9.8945-4.0977s4.0977-6.1836 4.0977-9.8945v-26.652c0-3.7109-1.4727-7.2695-4.0977-9.8945s-6.1836-4.0977-9.8945-4.0977zm129.38 0v0.003906c-3.7109 0-7.2734 1.4727-9.8984 4.0977-2.6211 2.625-4.0977 6.1836-4.0977 9.8945v26.652c0 3.7109 1.4766 7.2695 4.0977 9.8945 2.625 2.625 6.1875 4.0977 9.8984 4.0977s7.2695-1.4727 9.8945-4.0977 4.0977-6.1836 4.0977-9.8945v-26.652c0-3.7109-1.4727-7.2695-4.0977-9.8945s-6.1836-4.0977-9.8945-4.0977zm-64.688 99.16c42.668 0 83.539 10.664 112.51 28.52 11.688 7.207 20.934 15.152 27.816 23.488l-0.003907 0.003906c0.19922 0.23438 0.40625 0.46484 0.62109 0.68359 9.8125 12.141 14.637 25.102 14.637 37.812 0 21.691-14.02 44.098-42.984 61.957-28.973 17.852-69.84 28.52-112.51 28.52-42.668 0-83.539-10.664-112.5-28.52-28.965-17.859-42.992-40.266-42.992-61.957 0-12.664 4.793-25.566 14.523-37.672v0.003906c0.26172-0.28125 0.50781-0.57031 0.74609-0.87109 6.875-8.3086 16.098-16.223 27.746-23.402 28.965-17.852 69.836-28.52 112.5-28.52zm-63.289 74.949-0.003907 0.003906c-4.1133 0.015625-8.0547 1.6602-10.953 4.582-2.8984 2.9219-4.5195 6.8711-4.5039 10.988 0.015625 4.0938 1.6484 8.0156 4.543 10.91 2.8984 2.8945 6.8203 4.5273 10.914 4.5391 4.1133 0.015624 8.0625-1.6055 10.984-4.5 2.918-2.8984 4.5664-6.8359 4.5781-10.949 0.019531-4.1328-1.6172-8.1016-4.5391-11.027-2.9219-2.9219-6.8906-4.5586-11.023-4.543zm126.46 0v0.003906c-4.1172 0.015625-8.0547 1.6641-10.953 4.5859-2.8984 2.918-4.5156 6.8711-4.5 10.984 0.015625 4.0938 1.6484 8.0156 4.543 10.91 2.8945 2.8906 6.8164 4.5234 10.91 4.5391 4.1133 0.015624 8.0625-1.6016 10.984-4.5 2.918-2.8984 4.5664-6.8359 4.582-10.949 0.019531-4.1367-1.6172-8.1055-4.5391-11.027-2.9258-2.9258-6.8945-4.5586-11.027-4.543z" fill-rule="evenodd"/>
</svg>
