<?xml version="1.0" encoding="utf-8"?>
<svg viewBox="112.957 315.964 354.822 348.303" xmlns="http://www.w3.org/2000/svg">
  <defs>
    <symbol id="w" overflow="visible">
      <path d="m0.03125 0h-0.015625-0.015625v-0.015625-0.015625h0.015625 0.015625-0.015625v0.015625 0.015625h0.015625v-0.015625z"/>
    </symbol>
    <symbol id="e" overflow="visible">
      <path d="m0.015625-0.015625v0.015625h-0.015625v-0.03125h0.015625v0.015625-0.015625z"/>
    </symbol>
    <symbol id="b" overflow="visible">
      <path d="m0.03125-0.015625h-0.015625v0.015625c0.0078125 0 0.015625-0.0039062 0.015625-0.015625v0.015625h-0.015625-0.015625v-0.015625l0.015625-0.015625v0.015625h0.015625z"/>
    </symbol>
    <symbol id="a" overflow="visible">
      <path d="m0.015625-0.015625v0.015625-0.015625zm0.015625 0v0.015625h-0.015625-0.015625v-0.015625h0.015625-0.015625v-0.015625h0.015625v0.015625h0.015625z"/>
    </symbol>
    <symbol id="d" overflow="visible">
      <path d="m0.015625-0.03125v0.015625 0.015625h-0.015625v-0.015625-0.015625z"/>
    </symbol>
    <symbol id="l" overflow="visible">
      <path d="m0.015625-0.015625v-0.015625h0.015625v0.03125h-0.015625-0.015625v-0.015625l0.015625-0.015625v0.015625zm0 0.015625v-0.015625 0.015625z"/>
    </symbol>
    <symbol id="k" overflow="visible">
      <path d="m0.015625 0v-0.015625 0.015625zm0-0.015625v-0.015625c0.0078125 0 0.015625 0.0078125 0.015625 0.015625v0.015625h-0.015625-0.015625v-0.03125h0.015625z"/>
    </symbol>
    <symbol id="j" overflow="visible">
      <path d="m0-0.03125h0.015625v0.015625-0.015625h0.015625l-0.015625 0.03125v0.015625h-0.015625v-0.015625h0.015625z"/>
    </symbol>
    <symbol id="i" overflow="visible">
      <path d="m0.015625-0.03125v0.015625 0.015625h0.015625v-0.015625c0-0.0078125-0.0078125-0.015625-0.015625-0.015625zm0 0h0.015625v0.015625 0.015625h-0.015625-0.015625v-0.015625-0.015625h0.015625z"/>
    </symbol>
    <symbol id="v" overflow="visible">
      <path d="m0-0.03125h0.015625v0.03125h-0.015625z"/>
    </symbol>
    <symbol id="f" overflow="visible">
      <path d="m0.03125-0.015625v0.015625h-0.015625v-0.015625 0.015625h-0.015625v-0.03125h0.015625v0.015625-0.015625c0.0078125 0 0.015625 0.0078125 0.015625 0.015625z"/>
    </symbol>
    <symbol id="h" overflow="visible">
      <path d="m0-0.03125h0.015625 0.015625v0.015625h-0.015625v0.015625h-0.015625zm0.015625 0v0.015625-0.015625z"/>
    </symbol>
    <symbol id="g" overflow="visible">
      <path d="m0.03125-0.03125v0.015625h-0.015625c0.0078125 0 0.015625 0.0078125 0.015625 0.015625h-0.015625-0.015625 0.015625v-0.015625h-0.015625l0.015625-0.015625h0.015625z"/>
    </symbol>
    <symbol id="c" overflow="visible">
      <path d="m0.015625-0.015625v0.015625-0.015625zm0-0.015625v0.015625h0.015625c0 0.011719-0.0078125 0.015625-0.015625 0.015625h-0.015625v-0.015625l0.015625-0.015625z"/>
    </symbol>
    <symbol id="u" overflow="visible">
      <path d="m0-0.03125h0.015625v0.015625-0.015625h0.015625l-0.015625 0.03125z"/>
    </symbol>
    <symbol id="t" overflow="visible">
      <path d="m0-0.03125h0.015625v0.015625-0.015625h0.015625l-0.015625 0.015625 0.015625 0.015625h-0.015625v-0.015625 0.015625h-0.015625z"/>
    </symbol>
    <symbol id="s" overflow="visible">
      <path d="m0.015625-0.03125v0.03125h-0.015625v-0.03125h0.015625z"/>
    </symbol>
    <symbol id="r" overflow="visible">
      <path d="m0.03125-0.015625v-0.015625c0.0078125 0 0.015625 0.0078125 0.015625 0.015625v0.015625h-0.015625v-0.015625 0.015625h-0.015625v-0.015625 0.015625h-0.015625v-0.03125h0.015625v0.015625-0.015625 0.015625h0.015625z"/>
    </symbol>
    <symbol id="q" overflow="visible">
      <path d="m0.03125-0.015625v0.015625h-0.015625v-0.015625 0.015625h-0.015625v-0.03125h0.015625v0.015625-0.015625c0.0078125 0 0.015625 0.0078125 0.015625 0.015625z"/>
    </symbol>
    <symbol id="p" overflow="visible">
      <path d="m0-0.03125h0.015625l0.015625 0.015625v-0.015625 0.03125l-0.015625-0.015625v0.015625h-0.015625z"/>
    </symbol>
    <symbol id="o" overflow="visible">
      <path d="m0-0.015625v-0.015625h0.015625v0.015625 0.015625-0.015625-0.015625h0.015625v0.03125h-0.015625-0.015625v-0.015625z"/>
    </symbol>
    <symbol id="n" overflow="visible">
      <path d="m0-0.03125h0.015625v0.03125h-0.015625v0.015625zm0 0h0.015625z"/>
    </symbol>
    <symbol id="m" overflow="visible">
      <path d="m0.03125-0.03125v0.015625h-0.015625v0.015625h0.015625-0.015625-0.015625v-0.015625l0.015625-0.015625h0.015625z"/>
    </symbol>
    <symbol id="symbol-1" overflow="visible">
      <path d="m0.03125 0h-0.015625-0.015625v-0.015625-0.015625h0.015625 0.015625-0.015625v0.015625 0.015625h0.015625v-0.015625z"/>
    </symbol>
    <symbol id="symbol-2" overflow="visible">
      <path d="m0.015625-0.015625v0.015625h-0.015625v-0.03125h0.015625v0.015625-0.015625z"/>
    </symbol>
    <symbol id="symbol-3" overflow="visible">
      <path d="m0.03125-0.015625h-0.015625v0.015625c0.0078125 0 0.015625-0.0039062 0.015625-0.015625v0.015625h-0.015625-0.015625v-0.015625l0.015625-0.015625v0.015625h0.015625z"/>
    </symbol>
    <symbol id="symbol-4" overflow="visible">
      <path d="m0.015625-0.015625v0.015625-0.015625zm0.015625 0v0.015625h-0.015625-0.015625v-0.015625h0.015625-0.015625v-0.015625h0.015625v0.015625h0.015625z"/>
    </symbol>
    <symbol id="symbol-5" overflow="visible">
      <path d="m0.015625-0.03125v0.015625 0.015625h-0.015625v-0.015625-0.015625z"/>
    </symbol>
    <symbol id="symbol-6" overflow="visible">
      <path d="m0.015625-0.015625v-0.015625h0.015625v0.03125h-0.015625-0.015625v-0.015625l0.015625-0.015625v0.015625zm0 0.015625v-0.015625 0.015625z"/>
    </symbol>
    <symbol id="symbol-7" overflow="visible">
      <path d="m0.015625 0v-0.015625 0.015625zm0-0.015625v-0.015625c0.0078125 0 0.015625 0.0078125 0.015625 0.015625v0.015625h-0.015625-0.015625v-0.03125h0.015625z"/>
    </symbol>
    <symbol id="symbol-8" overflow="visible">
      <path d="m0-0.03125h0.015625v0.015625-0.015625h0.015625l-0.015625 0.03125v0.015625h-0.015625v-0.015625h0.015625z"/>
    </symbol>
    <symbol id="symbol-9" overflow="visible">
      <path d="m0.015625-0.03125v0.015625 0.015625h0.015625v-0.015625c0-0.0078125-0.0078125-0.015625-0.015625-0.015625zm0 0h0.015625v0.015625 0.015625h-0.015625-0.015625v-0.015625-0.015625h0.015625z"/>
    </symbol>
    <symbol id="symbol-10" overflow="visible">
      <path d="m0-0.03125h0.015625v0.03125h-0.015625z"/>
    </symbol>
    <symbol id="symbol-11" overflow="visible">
      <path d="m0.03125-0.015625v0.015625h-0.015625v-0.015625 0.015625h-0.015625v-0.03125h0.015625v0.015625-0.015625c0.0078125 0 0.015625 0.0078125 0.015625 0.015625z"/>
    </symbol>
    <symbol id="symbol-12" overflow="visible">
      <path d="m0-0.03125h0.015625 0.015625v0.015625h-0.015625v0.015625h-0.015625zm0.015625 0v0.015625-0.015625z"/>
    </symbol>
    <symbol id="symbol-13" overflow="visible">
      <path d="m0.03125-0.03125v0.015625h-0.015625c0.0078125 0 0.015625 0.0078125 0.015625 0.015625h-0.015625-0.015625 0.015625v-0.015625h-0.015625l0.015625-0.015625h0.015625z"/>
    </symbol>
    <symbol id="symbol-14" overflow="visible">
      <path d="m0.015625-0.015625v0.015625-0.015625zm0-0.015625v0.015625h0.015625c0 0.011719-0.0078125 0.015625-0.015625 0.015625h-0.015625v-0.015625l0.015625-0.015625z"/>
    </symbol>
    <symbol id="symbol-15" overflow="visible">
      <path d="m0-0.03125h0.015625v0.015625-0.015625h0.015625l-0.015625 0.03125z"/>
    </symbol>
    <symbol id="symbol-16" overflow="visible">
      <path d="m0-0.03125h0.015625v0.015625-0.015625h0.015625l-0.015625 0.015625 0.015625 0.015625h-0.015625v-0.015625 0.015625h-0.015625z"/>
    </symbol>
    <symbol id="symbol-17" overflow="visible">
      <path d="m0.015625-0.03125v0.03125h-0.015625v-0.03125h0.015625z"/>
    </symbol>
    <symbol id="symbol-18" overflow="visible">
      <path d="m0.03125-0.015625v-0.015625c0.0078125 0 0.015625 0.0078125 0.015625 0.015625v0.015625h-0.015625v-0.015625 0.015625h-0.015625v-0.015625 0.015625h-0.015625v-0.03125h0.015625v0.015625-0.015625 0.015625h0.015625z"/>
    </symbol>
    <symbol id="symbol-19" overflow="visible">
      <path d="m0.03125-0.015625v0.015625h-0.015625v-0.015625 0.015625h-0.015625v-0.03125h0.015625v0.015625-0.015625c0.0078125 0 0.015625 0.0078125 0.015625 0.015625z"/>
    </symbol>
    <symbol id="symbol-20" overflow="visible">
      <path d="m0-0.03125h0.015625l0.015625 0.015625v-0.015625 0.03125l-0.015625-0.015625v0.015625h-0.015625z"/>
    </symbol>
    <symbol id="symbol-21" overflow="visible">
      <path d="m0-0.015625v-0.015625h0.015625v0.015625 0.015625-0.015625-0.015625h0.015625v0.03125h-0.015625-0.015625v-0.015625z"/>
    </symbol>
    <symbol id="symbol-22" overflow="visible">
      <path d="m0-0.03125h0.015625v0.03125h-0.015625v0.015625zm0 0h0.015625z"/>
    </symbol>
    <symbol id="symbol-23" overflow="visible">
      <path d="m0.03125-0.03125v0.015625h-0.015625v0.015625h0.015625-0.015625-0.015625v-0.015625l0.015625-0.015625h0.015625z"/>
    </symbol>
  </defs>
  <g transform="matrix(1, 0, 0, 1, -39.598421, 111.192104)">
    <g transform="matrix(1, 0, 0, 1, 83.268472, -77.037224)">
      <g transform="matrix(0.739865, 0, 0, 0.739865, -12.465046, 249.947845)" style="">
        <path d="m563.36 489.44c0-3.3594-2.2383-5.6016-5.6016-5.6016h-59.918c15.121-7.2812 28-20.16 34.719-36.398l1.1211 2.2383c1.1211 1.6797 2.8008 2.8008 5.0391 2.8008 1.1211 0 1.6797 0 2.8008-0.55859 2.8008-1.6797 3.9219-5.0391 2.2383-7.8398l-7.2812-13.441c-0.55859-1.1211-1.6797-2.2383-3.3594-2.8008-1.6797-0.55859-2.8008 0-4.4805 0.55859l-13.441 7.2812c-2.8008 1.6797-3.9219 5.0391-2.2383 7.8398 1.6797 2.8008 5.0391 3.9219 7.8398 2.2383l0.55859-0.55859c-11.762 24.641-39.199 38.641-66.078 33.602l31.922-106.4 21.281 6.1602h1.6797c2.2383 0 4.4805-1.6797 5.6016-3.9219 1.1211-2.8008-0.55859-6.1602-3.9219-6.7188l-21.84-6.7227 3.3594-11.199h0.55859c8.9609 0 17.922-6.1602 20.719-15.121 3.3594-11.199-2.8008-22.961-14.559-26.32-5.6016-1.6797-11.199-1.1211-16.238 1.6797-5.0391 2.8008-8.9609 7.2812-10.078 12.879-1.6797 5.6016-1.1211 11.199 1.6797 16.238 1.6797 3.3594 4.4805 6.1602 7.2812 7.8398l-3.3594 11.762-21.281-6.1602c-2.8008-1.1211-6.1602 0.55859-6.7188 3.9219-1.1211 2.8008 0.55859 6.1602 3.9219 6.7188l21.281 6.1602-31.922 106.4c-25.762-10.078-40.879-36.961-36.961-64.398l0.55859 0.55859c1.1211 1.6797 2.8008 2.8008 5.0391 2.8008 1.1211 0 1.6797 0 2.8008-0.55859 2.8008-1.6797 3.9219-5.0391 2.2383-7.8398l-7.2812-13.441c-0.55859-1.1211-1.6797-2.2383-3.3594-2.8008-1.6797-0.55859-2.8008 0-4.4805 0.55859l-14 6.7266c-2.8008 1.6797-3.9219 5.0391-2.2383 7.8398 1.6797 2.8008 5.0391 3.9219 7.8398 2.2383l2.2383-1.1211c-2.8008 16.238-0.55859 32.48 7.2812 47.039 7.2812 13.441 18.48 23.52 31.922 30.238l-193.2 0.003906v-33.602c9.5195 0 27.441-2.2383 40.32-13.441l1.6797-1.6797c6.1602-6.1602 10.078-14.559 11.199-24.078 3.9219 1.1211 8.9609 2.2383 15.121 2.2383 9.5195 0 21.281-2.8008 31.922-12.32 2.2383-2.2383 2.2383-5.6016 0.55859-7.8398-2.2383-2.2383-5.6016-2.8008-7.8398-0.55859-15.121 13.441-31.922 9.5195-39.199 7.2812 2.8008-38.078 48.719-48.16 50.398-48.719 2.8008-0.55859 5.0391-3.3594 4.4805-6.7188-0.55859-2.8008-3.3594-5.0391-6.7188-4.4805-0.55859 0-15.121 3.3594-29.68 12.32-19.602 12.32-30.238 29.68-30.238 50.398v0.55859c0 8.3984-2.2383 15.121-5.6016 20.719-7.8398-6.1602-26.32-22.398-26.32-50.961 0-2.8008 0-5.6016-0.55859-7.8398 11.762-3.3594 28.559-12.879 29.68-34.719 0-3.3594-2.2383-5.6016-5.0391-6.1602-3.3594 0-5.6016 2.2383-6.1602 5.0391-1.1211 15.68-12.879 21.84-20.16 24.078-1.6797-9.5195-5.0391-16.801-8.3984-22.398 1.1211-3.3594 9.5195-29.121 34.719-33.039 9.5195-1.6797 16.801-5.6016 21.281-12.879 8.9609-14.559 2.8008-34.719 2.2383-35.84-1.1211-2.8008-3.9219-4.4805-7.2812-3.3594-2.8008 1.1211-4.4805 3.9219-3.3594 7.2812 0 0 5.0391 16.801-1.1211 26.32-2.8008 4.4805-6.7188 6.7188-13.441 7.8398-24.641 3.9219-36.398 22.961-41.441 34.16-3.3594-2.8008-5.6016-3.9219-5.6016-4.4805-2.8008-1.1211-6.1602-0.55859-7.2812 2.2383-1.6797 2.8008-0.55859 6.1602 2.2383 7.2812 0.55859 0.55859 14 7.8398 17.359 34.16 0.55859 3.3594 0.55859 7.8398 0.55859 11.762 0 31.922 19.039 50.961 29.121 58.801-11.762 7.2812-28 7.2812-31.922 7.2812-7.2812-4.4805-48.16-32.48-32.48-82.879 6.7188-21.281 6.1602-39.762-1.6797-54.879-10.078-19.602-29.121-25.199-30.238-25.762-2.8008-1.1211-6.1602 0.55859-6.7188 3.9219-0.55859 3.3594 0.55859 6.1602 3.9219 6.7188 0 0 15.121 4.4805 23.52 20.16 5.0391 9.5195 6.1602 21.281 3.9219 34.719-1.1211-2.8008-3.3594-5.0391-5.0391-7.2812-6.7188-6.7188-15.68-10.078-27.441-10.078-3.3594 0-5.6016 2.8008-5.6016 5.6016 0 3.3594 2.2383 5.6016 5.6016 5.6016 7.8398-0.55859 14.559 2.2383 19.039 6.7188 8.3984 8.3984 7.8398 22.398 7.2812 23.52-3.3594 18.48 0.55859 34.719 7.2812 47.039-7.2812 2.2383-28 7.8398-39.762-7.8398-1.6797-2.2383-5.6016-2.8008-7.8398-1.1211-2.2383 1.6797-2.8008 5.6016-1.1211 7.8398 8.9609 11.762 21.281 15.121 32.48 15.121 8.3984 0 16.801-2.2383 22.398-4.4805 9.5195 13.441 20.719 21.84 25.762 25.199v36.398l-89.035-0.003906c-3.3594 0-5.6016 2.2383-5.6016 5.6016 0 3.3594 2.2383 5.6016 5.6016 5.6016h414.96c2.7969 1.1172 5.5977-1.6836 5.5977-4.4805zm-78.961-164.08c0.55859-2.8008 2.2383-4.4805 5.0391-6.1602 1.6797-0.55859 3.3594-1.1211 5.0391-1.1211 1.1211 0 1.6797 0 2.8008 0.55859 2.8008 0.55859 4.4805 2.8008 6.1602 5.0391 1.1211 2.2383 1.6797 5.0391 0.55859 7.8398-1.6797 5.6016-7.2812 8.3984-12.879 6.7188-2.8008-0.55859-4.4805-2.8008-6.1602-5.0391-1.1172-2.2344-1.1172-5.0352-0.55859-7.8359z"/>
        <path d="m176.96 103.04c12.32 0 22.961-6.1602 29.121-15.68 6.1602 9.5195 16.801 15.68 29.121 15.68s22.961-6.1602 29.121-15.68c6.1602 9.5195 16.801 15.68 29.121 15.68 12.32 0 22.961-6.1602 29.121-15.68 6.1602 9.5195 16.801 15.68 29.121 15.68s22.961-6.1602 29.121-15.68c6.1602 9.5195 16.801 15.68 29.121 15.68 12.32 0 22.961-6.1602 29.121-15.68 6.1602 9.5195 16.801 15.68 29.121 15.68s22.961-6.1602 29.121-15.68c6.1602 9.5195 16.801 15.68 29.121 15.68 19.039 0 34.719-15.68 34.719-34.719 0-3.3594-2.2383-5.6016-5.6016-5.6016-3.3594 0-5.6016 2.2383-5.6016 5.6016 0 12.879-10.641 23.52-23.52 23.52s-23.52-10.641-23.52-23.52c0-3.3594-2.2383-5.6016-5.6016-5.6016-3.3594 0-5.6016 2.2383-5.6016 5.6016 0 12.879-10.641 23.52-23.52 23.52-12.879 0-23.52-10.641-23.52-23.52 0-3.3594-2.2383-5.6016-5.6016-5.6016-3.3594 0-5.6016 2.2383-5.6016 5.6016 0 12.879-10.641 23.52-23.52 23.52-12.879 0-23.52-10.641-23.52-23.52 0-3.3594-2.2383-5.6016-5.6016-5.6016-3.3594 0-5.6016 2.2383-5.6016 5.6016 0 12.879-10.641 23.52-23.52 23.52s-23.52-10.641-23.52-23.52c0-3.3594-2.2383-5.6016-5.6016-5.6016-3.3594 0-5.6016 2.2383-5.6016 5.6016 0 12.879-10.641 23.52-23.52 23.52s-23.52-10.641-23.52-23.52c0-3.3594-2.2383-5.6016-5.6016-5.6016-3.3594 0-5.6016 2.2383-5.6016 5.6016 0 12.879-10.641 23.52-23.52 23.52-12.879 0-23.52-10.641-23.52-23.52 0-3.3594-2.2383-5.6016-5.6016-5.6016-3.3594 0-5.6016 2.2383-5.6016 5.6016 0 12.879-10.641 23.52-23.52 23.52-12.879 0-23.52-10.641-23.52-23.52 0-3.3594-2.2383-5.6016-5.6016-5.6016-3.3594 0-5.6016 2.2383-5.6016 5.6016 0.003906 19.602 15.688 34.719 34.727 34.719z"/>
        <path d="m354.48 244.16c0 2.8008 2.2383 5.0391 5.0391 5.6016h2.8008c19.039 0 30.238-19.039 35.84-31.922 23.52 30.238 59.359 31.922 61.602 31.922h0.55859c46.48 0 58.238-42 58.238-42.559v-3.3594c-15.121-45.359-54.879-42.559-58.801-42.559-3.3594 0-38.641 2.8008-61.039 31.922-5.6016-13.441-17.922-34.16-38.641-31.922-2.8008 0.55859-5.0391 2.8008-5.0391 5.6016s0 25.762 10.641 38.641c-11.199 12.871-11.199 35.832-11.199 38.633zm105.28-71.68h0.55859c1.1211 0 33.039-4.4805 46.48 33.039-2.2383 6.7188-13.441 33.039-47.039 33.039-0.55859 0-36.961-1.6797-56.559-33.039 19.598-30.801 56.559-33.039 56.559-33.039zm-83.441 28.559c-7.2812-5.6016-10.078-19.039-10.641-28 14.559 3.3594 22.961 26.32 25.199 32.48-1.6797 6.1602-10.078 29.121-25.199 32.48 0.55859-8.9609 3.3594-22.961 10.641-28 1.6797-1.1211 2.2383-2.8008 2.2383-4.4805 0-1.6797-0.55859-3.3594-2.2383-4.4805z"/>
        <path d="m488.88 205.52c0 3.7109-3.0078 6.7188-6.7188 6.7188-3.7109 0-6.7188-3.0078-6.7188-6.7188 0-3.7109 3.0078-6.7188 6.7188-6.7188 3.7109 0 6.7188 3.0078 6.7188 6.7188"/>
      </g>
    </g>
  </g>
</svg>