<?xml version="1.0" encoding="UTF-8"?>
<svg version="1.1" viewBox="0 0 700 700" xmlns="http://www.w3.org/2000/svg" xmlns:xlink="http://www.w3.org/1999/xlink">

 <g>
  <path d="m439.6 313.6c0 6.1836-5.0156 11.199-11.203 11.199-6.1836 0-11.199-5.0156-11.199-11.199 0-6.1875 5.0156-11.203 11.199-11.203 6.1875 0 11.203 5.0156 11.203 11.203"/>
  <path d="m249.2 347.2h11.199c0 17.824 7.082 34.914 19.684 47.52 12.602 12.602 29.695 19.68 47.52 19.68h89.598c17.824 0 34.914-7.0781 47.52-19.68 12.602-12.605 19.68-29.695 19.68-47.52v-44.801c0-20.793-8.2578-40.734-22.961-55.438-14.703-14.699-34.645-22.961-55.438-22.961 0-14.852 5.8984-29.098 16.402-39.598 10.5-10.504 24.746-16.402 39.598-16.402 6.1875 0 11.199-5.0156 11.199-11.199 0-6.1875-5.0117-11.199-11.199-11.199-27.566 0.046876-53.082 14.57-67.199 38.246-14.117-23.676-39.633-38.199-67.199-38.246-6.1875 0-11.203 5.0117-11.203 11.199 0 6.1836 5.0156 11.199 11.203 11.199 14.852 0 29.094 5.8984 39.598 16.402 10.5 10.5 16.402 24.746 16.402 39.598-20.793 0-40.734 8.2617-55.438 22.961-14.703 14.703-22.965 34.645-22.965 55.438v44.801c0 6.1875 5.0156 11.199 11.199 11.199 6.1875 0 11.203-5.0117 11.203-11.199v-44.801c0-14.852 5.8984-29.094 16.402-39.598 10.5-10.5 24.742-16.402 39.598-16.402h22.398c14.852 0 29.098 5.9023 39.598 16.402 10.504 10.504 16.402 24.746 16.402 39.598v44.801c0 11.883-4.7188 23.277-13.121 31.68s-19.797 13.121-31.68 13.121h-89.598c-11.883 0-23.277-4.7188-31.68-13.121s-13.121-19.797-13.121-31.68v-33.598c0-8.9141-3.5391-17.461-9.8438-23.762-6.3008-6.3008-14.848-9.8398-23.758-9.8398h-22.398c-6.1875 0-11.199 5.0156-11.199 11.199v22.402c0 8.9102 3.5391 17.457 9.8398 23.758 6.3008 6.3008 14.848 9.8398 23.758 9.8398zm-11.199-44.801h11.199c2.9727 0 5.8203 1.1797 7.9219 3.2812 2.0977 2.1016 3.2773 4.9492 3.2773 7.9219v11.199h-11.199c-6.1836 0-11.199-5.0156-11.199-11.199z"/>

 </g>
</svg>
