<?xml version="1.0" encoding="utf-8"?>
<svg viewBox="93.406 270.361 631.242 613.93" xmlns="http://www.w3.org/2000/svg">
  <defs>
    <symbol id="w" overflow="visible">
      <path d="m0.03125 0h-0.015625-0.015625v-0.015625-0.015625h0.015625 0.015625-0.015625v0.015625 0.015625h0.015625v-0.015625z"/>
    </symbol>
    <symbol id="e" overflow="visible">
      <path d="m0.015625-0.015625v0.015625h-0.015625v-0.03125h0.015625v0.015625-0.015625z"/>
    </symbol>
    <symbol id="b" overflow="visible">
      <path d="m0.03125-0.015625h-0.015625v0.015625c0.0078125 0 0.015625-0.0039062 0.015625-0.015625v0.015625h-0.015625-0.015625v-0.015625l0.015625-0.015625v0.015625h0.015625z"/>
    </symbol>
    <symbol id="a" overflow="visible">
      <path d="m0.015625-0.015625v0.015625-0.015625zm0.015625 0v0.015625h-0.015625-0.015625v-0.015625h0.015625-0.015625v-0.015625h0.015625v0.015625h0.015625z"/>
    </symbol>
    <symbol id="d" overflow="visible">
      <path d="m0.015625-0.03125v0.015625 0.015625h-0.015625v-0.015625-0.015625z"/>
    </symbol>
    <symbol id="l" overflow="visible">
      <path d="m0.015625-0.015625v-0.015625h0.015625v0.03125h-0.015625-0.015625v-0.015625l0.015625-0.015625v0.015625zm0 0.015625v-0.015625 0.015625z"/>
    </symbol>
    <symbol id="k" overflow="visible">
      <path d="m0.015625 0v-0.015625 0.015625zm0-0.015625v-0.015625c0.0078125 0 0.015625 0.0078125 0.015625 0.015625v0.015625h-0.015625-0.015625v-0.03125h0.015625z"/>
    </symbol>
    <symbol id="j" overflow="visible">
      <path d="m0-0.03125h0.015625v0.015625-0.015625h0.015625l-0.015625 0.03125v0.015625h-0.015625v-0.015625h0.015625z"/>
    </symbol>
    <symbol id="i" overflow="visible">
      <path d="m0.015625-0.03125v0.015625 0.015625h0.015625v-0.015625c0-0.0078125-0.0078125-0.015625-0.015625-0.015625zm0 0h0.015625v0.015625 0.015625h-0.015625-0.015625v-0.015625-0.015625h0.015625z"/>
    </symbol>
    <symbol id="v" overflow="visible">
      <path d="m0-0.03125h0.015625v0.03125h-0.015625z"/>
    </symbol>
    <symbol id="f" overflow="visible">
      <path d="m0.03125-0.015625v0.015625h-0.015625v-0.015625 0.015625h-0.015625v-0.03125h0.015625v0.015625-0.015625c0.0078125 0 0.015625 0.0078125 0.015625 0.015625z"/>
    </symbol>
    <symbol id="h" overflow="visible">
      <path d="m0-0.03125h0.015625 0.015625v0.015625h-0.015625v0.015625h-0.015625zm0.015625 0v0.015625-0.015625z"/>
    </symbol>
    <symbol id="g" overflow="visible">
      <path d="m0.03125-0.03125v0.015625h-0.015625c0.0078125 0 0.015625 0.0078125 0.015625 0.015625h-0.015625-0.015625 0.015625v-0.015625h-0.015625l0.015625-0.015625h0.015625z"/>
    </symbol>
    <symbol id="c" overflow="visible">
      <path d="m0.015625-0.015625v0.015625-0.015625zm0-0.015625v0.015625h0.015625c0 0.011719-0.0078125 0.015625-0.015625 0.015625h-0.015625v-0.015625l0.015625-0.015625z"/>
    </symbol>
    <symbol id="u" overflow="visible">
      <path d="m0-0.03125h0.015625v0.015625-0.015625h0.015625l-0.015625 0.03125z"/>
    </symbol>
    <symbol id="t" overflow="visible">
      <path d="m0-0.03125h0.015625v0.015625-0.015625h0.015625l-0.015625 0.015625 0.015625 0.015625h-0.015625v-0.015625 0.015625h-0.015625z"/>
    </symbol>
    <symbol id="s" overflow="visible">
      <path d="m0.015625-0.03125v0.03125h-0.015625v-0.03125h0.015625z"/>
    </symbol>
    <symbol id="r" overflow="visible">
      <path d="m0.03125-0.015625v-0.015625c0.0078125 0 0.015625 0.0078125 0.015625 0.015625v0.015625h-0.015625v-0.015625 0.015625h-0.015625v-0.015625 0.015625h-0.015625v-0.03125h0.015625v0.015625-0.015625 0.015625h0.015625z"/>
    </symbol>
    <symbol id="q" overflow="visible">
      <path d="m0.03125-0.015625v0.015625h-0.015625v-0.015625 0.015625h-0.015625v-0.03125h0.015625v0.015625-0.015625c0.0078125 0 0.015625 0.0078125 0.015625 0.015625z"/>
    </symbol>
    <symbol id="p" overflow="visible">
      <path d="m0-0.03125h0.015625l0.015625 0.015625v-0.015625 0.03125l-0.015625-0.015625v0.015625h-0.015625z"/>
    </symbol>
    <symbol id="o" overflow="visible">
      <path d="m0-0.015625v-0.015625h0.015625v0.015625 0.015625-0.015625-0.015625h0.015625v0.03125h-0.015625-0.015625v-0.015625z"/>
    </symbol>
    <symbol id="n" overflow="visible">
      <path d="m0-0.03125h0.015625v0.03125h-0.015625v0.015625zm0 0h0.015625z"/>
    </symbol>
    <symbol id="m" overflow="visible">
      <path d="m0.03125-0.03125v0.015625h-0.015625v0.015625h0.015625-0.015625-0.015625v-0.015625l0.015625-0.015625h0.015625z"/>
    </symbol>
    <symbol id="symbol-1" overflow="visible">
      <path d="m0.03125 0h-0.015625-0.015625v-0.015625-0.015625h0.015625 0.015625-0.015625v0.015625 0.015625h0.015625v-0.015625z"/>
    </symbol>
    <symbol id="symbol-2" overflow="visible">
      <path d="m0.015625-0.015625v0.015625h-0.015625v-0.03125h0.015625v0.015625-0.015625z"/>
    </symbol>
    <symbol id="symbol-3" overflow="visible">
      <path d="m0.03125-0.015625h-0.015625v0.015625c0.0078125 0 0.015625-0.0039062 0.015625-0.015625v0.015625h-0.015625-0.015625v-0.015625l0.015625-0.015625v0.015625h0.015625z"/>
    </symbol>
    <symbol id="symbol-4" overflow="visible">
      <path d="m0.015625-0.015625v0.015625-0.015625zm0.015625 0v0.015625h-0.015625-0.015625v-0.015625h0.015625-0.015625v-0.015625h0.015625v0.015625h0.015625z"/>
    </symbol>
    <symbol id="symbol-5" overflow="visible">
      <path d="m0.015625-0.03125v0.015625 0.015625h-0.015625v-0.015625-0.015625z"/>
    </symbol>
    <symbol id="symbol-6" overflow="visible">
      <path d="m0.015625-0.015625v-0.015625h0.015625v0.03125h-0.015625-0.015625v-0.015625l0.015625-0.015625v0.015625zm0 0.015625v-0.015625 0.015625z"/>
    </symbol>
    <symbol id="symbol-7" overflow="visible">
      <path d="m0.015625 0v-0.015625 0.015625zm0-0.015625v-0.015625c0.0078125 0 0.015625 0.0078125 0.015625 0.015625v0.015625h-0.015625-0.015625v-0.03125h0.015625z"/>
    </symbol>
    <symbol id="symbol-8" overflow="visible">
      <path d="m0-0.03125h0.015625v0.015625-0.015625h0.015625l-0.015625 0.03125v0.015625h-0.015625v-0.015625h0.015625z"/>
    </symbol>
    <symbol id="symbol-9" overflow="visible">
      <path d="m0.015625-0.03125v0.015625 0.015625h0.015625v-0.015625c0-0.0078125-0.0078125-0.015625-0.015625-0.015625zm0 0h0.015625v0.015625 0.015625h-0.015625-0.015625v-0.015625-0.015625h0.015625z"/>
    </symbol>
    <symbol id="symbol-10" overflow="visible">
      <path d="m0-0.03125h0.015625v0.03125h-0.015625z"/>
    </symbol>
    <symbol id="symbol-11" overflow="visible">
      <path d="m0.03125-0.015625v0.015625h-0.015625v-0.015625 0.015625h-0.015625v-0.03125h0.015625v0.015625-0.015625c0.0078125 0 0.015625 0.0078125 0.015625 0.015625z"/>
    </symbol>
    <symbol id="symbol-12" overflow="visible">
      <path d="m0-0.03125h0.015625 0.015625v0.015625h-0.015625v0.015625h-0.015625zm0.015625 0v0.015625-0.015625z"/>
    </symbol>
    <symbol id="symbol-13" overflow="visible">
      <path d="m0.03125-0.03125v0.015625h-0.015625c0.0078125 0 0.015625 0.0078125 0.015625 0.015625h-0.015625-0.015625 0.015625v-0.015625h-0.015625l0.015625-0.015625h0.015625z"/>
    </symbol>
    <symbol id="symbol-14" overflow="visible">
      <path d="m0.015625-0.015625v0.015625-0.015625zm0-0.015625v0.015625h0.015625c0 0.011719-0.0078125 0.015625-0.015625 0.015625h-0.015625v-0.015625l0.015625-0.015625z"/>
    </symbol>
    <symbol id="symbol-15" overflow="visible">
      <path d="m0-0.03125h0.015625v0.015625-0.015625h0.015625l-0.015625 0.03125z"/>
    </symbol>
    <symbol id="symbol-16" overflow="visible">
      <path d="m0-0.03125h0.015625v0.015625-0.015625h0.015625l-0.015625 0.015625 0.015625 0.015625h-0.015625v-0.015625 0.015625h-0.015625z"/>
    </symbol>
    <symbol id="symbol-17" overflow="visible">
      <path d="m0.015625-0.03125v0.03125h-0.015625v-0.03125h0.015625z"/>
    </symbol>
    <symbol id="symbol-18" overflow="visible">
      <path d="m0.03125-0.015625v-0.015625c0.0078125 0 0.015625 0.0078125 0.015625 0.015625v0.015625h-0.015625v-0.015625 0.015625h-0.015625v-0.015625 0.015625h-0.015625v-0.03125h0.015625v0.015625-0.015625 0.015625h0.015625z"/>
    </symbol>
    <symbol id="symbol-19" overflow="visible">
      <path d="m0.03125-0.015625v0.015625h-0.015625v-0.015625 0.015625h-0.015625v-0.03125h0.015625v0.015625-0.015625c0.0078125 0 0.015625 0.0078125 0.015625 0.015625z"/>
    </symbol>
    <symbol id="symbol-20" overflow="visible">
      <path d="m0-0.03125h0.015625l0.015625 0.015625v-0.015625 0.03125l-0.015625-0.015625v0.015625h-0.015625z"/>
    </symbol>
    <symbol id="symbol-21" overflow="visible">
      <path d="m0-0.015625v-0.015625h0.015625v0.015625 0.015625-0.015625-0.015625h0.015625v0.03125h-0.015625-0.015625v-0.015625z"/>
    </symbol>
    <symbol id="symbol-22" overflow="visible">
      <path d="m0-0.03125h0.015625v0.03125h-0.015625v0.015625zm0 0h0.015625z"/>
    </symbol>
    <symbol id="symbol-23" overflow="visible">
      <path d="m0.03125-0.03125v0.015625h-0.015625v0.015625h0.015625-0.015625-0.015625v-0.015625l0.015625-0.015625h0.015625z"/>
    </symbol>
    <symbol id="symbol-24" overflow="visible">
      <path d="m0.375-0.03125c-0.023438 0.011719-0.042969 0.023438-0.0625 0.03125-0.023438 0.0078125-0.042969 0.015625-0.0625 0.015625-0.0625 0-0.11719-0.019531-0.15625-0.0625-0.042969-0.039062-0.0625-0.09375-0.0625-0.15625s0.019531-0.11328 0.0625-0.15625c0.039062-0.039063 0.09375-0.0625 0.15625-0.0625 0.019531 0 0.039062 0.007813 0.0625 0.015625 0.019531 0 0.039062 0.007812 0.0625 0.015625v0.09375c-0.023438-0.019531-0.042969-0.03125-0.0625-0.03125-0.023438-0.007813-0.042969-0.015625-0.0625-0.015625-0.03125 0-0.058594 0.015625-0.078125 0.046875-0.023437 0.023437-0.03125 0.054687-0.03125 0.09375 0 0.042969 0.007813 0.078125 0.03125 0.10938 0.019531 0.023438 0.046875 0.03125 0.078125 0.03125 0.019531 0 0.039062-0.0039062 0.0625-0.015625 0.019531-0.0078125 0.039062-0.019531 0.0625-0.03125z"/>
    </symbol>
    <symbol id="symbol-25" overflow="visible">
      <path d="m0.26562-0.21875c0-0.007812-0.007813-0.015625-0.015625-0.015625h-0.015625c-0.03125 0-0.054687 0.011719-0.0625 0.03125-0.011719 0.011719-0.015625 0.03125-0.015625 0.0625v0.14062h-0.10938v-0.3125h0.10938v0.0625c0.007812-0.019531 0.019531-0.035156 0.03125-0.046875 0.007812-0.007813 0.03125-0.015625 0.0625-0.015625h0.015625z"/>
    </symbol>
    <symbol id="symbol-26" overflow="visible">
      <path d="m0.34375-0.15625v0.03125h-0.21875c0 0.023438 0.003906 0.039062 0.015625 0.046875 0.019531 0.011719 0.039063 0.015625 0.0625 0.015625h0.0625c0.03125-0.0078125 0.054687-0.019531 0.078125-0.03125v0.078125c-0.023438 0-0.046875 0.0078125-0.078125 0.015625-0.023437 0.0078125-0.042969 0.015625-0.0625 0.015625-0.0625 0-0.10938-0.015625-0.14062-0.046875-0.023438-0.03125-0.03125-0.070312-0.03125-0.125 0-0.050781 0.0078125-0.085938 0.03125-0.10938 0.03125-0.03125 0.070312-0.046875 0.125-0.046875 0.050781 0 0.085938 0.015625 0.10938 0.046875 0.03125 0.023437 0.046875 0.058594 0.046875 0.10938zm-0.09375-0.03125c0-0.019531-0.007812-0.035156-0.015625-0.046875-0.011719-0.007813-0.027344-0.015625-0.046875-0.015625-0.011719 0-0.027344 0.007812-0.046875 0.015625-0.011719 0.011719-0.015625 0.027344-0.015625 0.046875z"/>
    </symbol>
    <symbol id="symbol-27" overflow="visible">
      <path d="m0.1875-0.14062c-0.023438 0-0.039062 0.007813-0.046875 0.015625-0.011719 0.011719-0.015625 0.023438-0.015625 0.03125 0 0.011719 0.003906 0.023438 0.015625 0.03125h0.03125c0.019531 0 0.035156-0.0039062 0.046875-0.015625 0.007812-0.0078125 0.015625-0.023437 0.015625-0.046875v-0.015625zm0.14062-0.03125v0.17188h-0.09375v-0.046875c-0.011719 0.023438-0.027344 0.039062-0.046875 0.046875-0.011719 0.0078125-0.03125 0.015625-0.0625 0.015625-0.023438 0-0.042969-0.011719-0.0625-0.03125-0.023438-0.019531-0.03125-0.046875-0.03125-0.078125 0-0.039062 0.0078125-0.066406 0.03125-0.078125 0.019531-0.007813 0.054688-0.015625 0.10938-0.015625h0.0625v-0.015625c0-0.019531-0.007813-0.03125-0.015625-0.03125-0.011719-0.007813-0.03125-0.015625-0.0625-0.015625-0.023438 0-0.042969 0.007812-0.0625 0.015625h-0.046875v-0.0625c0.019531-0.007813 0.039062-0.015625 0.0625-0.015625h0.0625c0.0625 0 0.10156 0.011719 0.125 0.03125 0.019531 0.023438 0.03125 0.058594 0.03125 0.10938z"/>
    </symbol>
    <symbol id="symbol-28" overflow="visible">
      <path d="m0.15625-0.39062v0.078125h0.09375v0.078125h-0.09375v0.125 0.03125c0.007812 0.011719 0.019531 0.015625 0.03125 0.015625h0.0625v0.0625h-0.078125c-0.042969 0-0.074219-0.0039062-0.09375-0.015625-0.023438-0.019531-0.03125-0.050781-0.03125-0.09375v-0.125h-0.03125v-0.078125h0.03125v-0.078125z"/>
    </symbol>
    <symbol id="symbol-29" overflow="visible">
      <path d="m0.25-0.26562v-0.15625h0.09375v0.42188h-0.09375v-0.046875c-0.011719 0.023438-0.027344 0.039062-0.046875 0.046875-0.011719 0.0078125-0.027344 0.015625-0.046875 0.015625-0.042969 0-0.074219-0.015625-0.09375-0.046875-0.023438-0.03125-0.03125-0.070312-0.03125-0.125 0-0.050781 0.0078125-0.085938 0.03125-0.10938 0.019531-0.03125 0.050781-0.046875 0.09375-0.046875 0.019531 0 0.035156 0.007812 0.046875 0.015625 0.019531 0.011719 0.035156 0.023437 0.046875 0.03125zm-0.0625 0.20312c0.019531 0 0.035156-0.0039062 0.046875-0.015625 0.007813-0.019531 0.015625-0.046875 0.015625-0.078125 0-0.019531-0.007812-0.039062-0.015625-0.0625-0.011719-0.019531-0.027344-0.03125-0.046875-0.03125-0.023438 0-0.039062 0.011719-0.046875 0.03125-0.011719 0.023438-0.015625 0.042969-0.015625 0.0625 0 0.03125 0.003906 0.058594 0.015625 0.078125 0.007813 0.011719 0.023437 0.015625 0.046875 0.015625z"/>
    </symbol>
    <symbol id="symbol-30" overflow="visible">
      <path d="m0.20312-0.0625c0.03125 0 0.046875-0.0039062 0.046875-0.015625 0.007812-0.019531 0.015625-0.046875 0.015625-0.078125 0-0.019531-0.007813-0.039062-0.015625-0.0625 0-0.019531-0.015625-0.03125-0.046875-0.03125-0.023437 0-0.039063 0.011719-0.046875 0.03125v0.0625 0.078125c0.007812 0.011719 0.023438 0.015625 0.046875 0.015625zm-0.046875-0.20312c0.007812-0.007813 0.019531-0.019531 0.03125-0.03125 0.019531-0.007813 0.039062-0.015625 0.0625-0.015625 0.039062 0 0.070312 0.015625 0.09375 0.046875 0.019531 0.023437 0.03125 0.058594 0.03125 0.10938 0 0.054688-0.011719 0.09375-0.03125 0.125-0.023438 0.03125-0.054688 0.046875-0.09375 0.046875-0.023438 0-0.042969-0.0078125-0.0625-0.015625-0.011719-0.0078125-0.023438-0.023438-0.03125-0.046875v0.046875h-0.10938v-0.42188h0.10938z"/>
    </symbol>
    <symbol id="symbol-31" overflow="visible">
      <path d="m0.015625-0.3125h0.09375l0.078125 0.21875 0.0625-0.21875h0.10938l-0.125 0.34375c-0.023437 0.03125-0.042969 0.050781-0.0625 0.0625-0.011719 0.019531-0.03125 0.03125-0.0625 0.03125h-0.0625v-0.078125h0.046875 0.015625c0.007813 0 0.019531-0.011719 0.03125-0.03125z"/>
    </symbol>
    <symbol id="symbol-32" overflow="visible">
      <path d="m0.046875-0.40625h0.125l0.14062 0.28125v-0.28125h0.10938v0.40625h-0.125l-0.14062-0.28125v0.28125h-0.10938z"/>
    </symbol>
    <symbol id="symbol-33" overflow="visible">
      <path d="m0.28125-0.29688v0.078125c-0.023438-0.007812-0.042969-0.015625-0.0625-0.015625-0.023438-0.007813-0.039062-0.015625-0.046875-0.015625-0.023437 0-0.039063 0.007812-0.046875 0.015625-0.011719 0-0.015625 0.007813-0.015625 0.015625 0 0.011719 0.003906 0.023438 0.015625 0.03125h0.046875 0.015625c0.039062 0 0.070312 0.011719 0.09375 0.03125 0.019531 0.011719 0.03125 0.03125 0.03125 0.0625s-0.015625 0.058594-0.046875 0.078125c-0.023437 0.019531-0.054687 0.03125-0.09375 0.03125-0.03125 0-0.058594-0.0078125-0.078125-0.015625-0.023438 0-0.042969-0.0039062-0.0625-0.015625v-0.078125c0.019531 0.023438 0.039062 0.03125 0.0625 0.03125h0.0625 0.03125c0.007812 0 0.015625-0.0078125 0.015625-0.03125 0-0.007812-0.007813-0.015625-0.015625-0.015625 0 0-0.007812-0.003906-0.015625-0.015625h-0.015625c-0.054688 0-0.089844-0.003906-0.10938-0.015625-0.011719-0.019531-0.015625-0.046875-0.015625-0.078125s0.0078125-0.050781 0.03125-0.0625c0.019531-0.019531 0.054688-0.03125 0.10938-0.03125h0.046875c0.019531 0 0.039062 0.007812 0.0625 0.015625z"/>
    </symbol>
    <symbol id="symbol-34" overflow="visible">
      <path d="m0.35938-0.1875v0.1875h-0.10938v-0.14062-0.046875-0.03125c0-0.007812-0.007812-0.015625-0.015625-0.015625h-0.03125c-0.011719 0-0.023437 0.011719-0.03125 0.03125-0.011719 0.011719-0.015625 0.027344-0.015625 0.046875v0.15625h-0.10938v-0.3125h0.10938v0.046875c0.007812-0.007813 0.019531-0.019531 0.03125-0.03125 0.019531-0.007813 0.039062-0.015625 0.0625-0.015625 0.03125 0 0.054688 0.011719 0.078125 0.03125 0.019531 0.023438 0.03125 0.054688 0.03125 0.09375z"/>
    </symbol>
    <symbol id="symbol-35" overflow="visible">
      <path d="m0.046875-0.42188h0.10938v0.23438l0.09375-0.125h0.125l-0.15625 0.14062 0.17188 0.17188h-0.125l-0.10938-0.125v0.125h-0.10938z"/>
    </symbol>
    <symbol id="symbol-36" overflow="visible">
      <path d="m0.1875-0.25c-0.023438 0-0.039062 0.011719-0.046875 0.03125-0.011719 0.011719-0.015625 0.03125-0.015625 0.0625s0.003906 0.058594 0.015625 0.078125c0.007813 0.011719 0.023437 0.015625 0.046875 0.015625 0.03125 0 0.050781-0.0039062 0.0625-0.015625 0.007812-0.019531 0.015625-0.046875 0.015625-0.078125s-0.007813-0.050781-0.015625-0.0625c-0.011719-0.019531-0.03125-0.03125-0.0625-0.03125zm0-0.0625c0.050781 0 0.09375 0.015625 0.125 0.046875 0.03125 0.023437 0.046875 0.058594 0.046875 0.10938 0 0.054688-0.015625 0.09375-0.046875 0.125s-0.074219 0.046875-0.125 0.046875c-0.054688 0-0.09375-0.015625-0.125-0.046875-0.023438-0.03125-0.03125-0.070312-0.03125-0.125 0-0.050781 0.0078125-0.085938 0.03125-0.10938 0.03125-0.03125 0.070312-0.046875 0.125-0.046875z"/>
    </symbol>
    <symbol id="symbol-37" overflow="visible">
      <path d="m0.20312-0.23438h0.046875c0.007812-0.007813 0.015625-0.023437 0.015625-0.046875 0-0.019531-0.007813-0.03125-0.015625-0.03125-0.011719-0.007812-0.027344-0.015625-0.046875-0.015625h-0.046875v0.09375zm-0.046875 0.078125v0.15625h-0.10938v-0.40625h0.15625c0.050781 0 0.09375 0.011719 0.125 0.03125 0.03125 0.023438 0.046875 0.046875 0.046875 0.078125s-0.011719 0.058594-0.03125 0.078125c-0.011719 0.011719-0.03125 0.023438-0.0625 0.03125 0.019531 0 0.035156 0.007812 0.046875 0.015625 0.007813 0.011719 0.019531 0.03125 0.03125 0.0625l0.0625 0.10938h-0.10938l-0.046875-0.10938c-0.011719-0.007813-0.027344-0.019531-0.046875-0.03125-0.011719-0.007813-0.023438-0.015625-0.03125-0.015625z"/>
    </symbol>
    <symbol id="symbol-38" overflow="visible">
      <path d="m0.046875-0.125v-0.1875h0.09375v0.03125 0.078125 0.03125 0.0625c0.007813 0.011719 0.015625 0.015625 0.015625 0.015625v0.03125h0.03125c0.019531 0 0.035156-0.0039062 0.046875-0.015625 0.007813-0.019531 0.015625-0.046875 0.015625-0.078125v-0.15625h0.09375v0.3125h-0.09375v-0.046875c-0.011719 0.023438-0.027344 0.039062-0.046875 0.046875-0.011719 0.0078125-0.027344 0.015625-0.046875 0.015625-0.042969 0-0.074219-0.011719-0.09375-0.03125-0.011719-0.03125-0.015625-0.066406-0.015625-0.10938z"/>
    </symbol>
    <symbol id="symbol-39" overflow="visible">
      <path d="m0.046875-0.42188h0.10938v0.42188h-0.10938z"/>
    </symbol>
    <symbol id="symbol-40" overflow="visible">
      <path d="m0.25-0.42188v0.0625h-0.0625c-0.011719 0-0.023438 0.007813-0.03125 0.015625v0.015625 0.015625h0.09375v0.078125h-0.09375v0.23438h-0.09375v-0.23438h-0.046875v-0.078125h0.046875v-0.015625c0-0.03125 0.0039062-0.050781 0.015625-0.0625 0.019531-0.019531 0.050781-0.03125 0.09375-0.03125z"/>
    </symbol>
    <symbol id="symbol-41" overflow="visible">
      <path d="m0.32812-0.25c0.007813-0.019531 0.023437-0.035156 0.046875-0.046875 0.019531-0.007813 0.035156-0.015625 0.046875-0.015625 0.039063 0 0.070313 0.011719 0.09375 0.03125 0.019531 0.023438 0.03125 0.054688 0.03125 0.09375v0.1875h-0.10938v-0.15625-0.015625c0-0.019531-0.007812-0.035156-0.015625-0.046875 0-0.007812-0.007813-0.015625-0.015625-0.015625-0.023438 0-0.039062 0.011719-0.046875 0.03125-0.011719 0.011719-0.015625 0.027344-0.015625 0.046875v0.15625h-0.09375v-0.15625c0-0.03125-0.007812-0.050781-0.015625-0.0625 0-0.007812-0.011719-0.015625-0.03125-0.015625-0.023437 0-0.039063 0.011719-0.046875 0.03125v0.046875 0.15625h-0.10938v-0.3125h0.10938v0.046875c0.007812-0.007813 0.019531-0.019531 0.03125-0.03125 0.007812-0.007813 0.023438-0.015625 0.046875-0.015625 0.019531 0 0.035156 0.007812 0.046875 0.015625 0.019531 0.011719 0.035156 0.027344 0.046875 0.046875z"/>
    </symbol>
    <symbol id="symbol-42" overflow="visible">
      <path d="m0.35938-0.1875v0.1875h-0.10938v-0.14062-0.046875-0.03125c0-0.007812-0.007812-0.015625-0.015625-0.015625h-0.03125c-0.011719 0-0.023437 0.011719-0.03125 0.03125-0.011719 0.011719-0.015625 0.027344-0.015625 0.046875v0.15625h-0.10938v-0.42188h0.10938v0.15625c0.007812-0.007813 0.019531-0.019531 0.03125-0.03125 0.019531-0.007813 0.039062-0.015625 0.0625-0.015625 0.03125 0 0.054688 0.011719 0.078125 0.03125 0.019531 0.023438 0.03125 0.054688 0.03125 0.09375z"/>
    </symbol>
    <symbol id="symbol-43" overflow="visible">
      <path d="m0.046875-0.40625h0.1875c0.050781 0 0.085937 0.011719 0.10938 0.03125 0.03125 0.023438 0.046875 0.058594 0.046875 0.10938 0 0.042969-0.015625 0.074219-0.046875 0.09375-0.023438 0.023437-0.058594 0.03125-0.10938 0.03125h-0.078125v0.14062h-0.10938zm0.10938 0.078125v0.10938h0.0625c0.019531 0 0.035156-0.003906 0.046875-0.015625 0.007813-0.007813 0.015625-0.019531 0.015625-0.03125 0-0.03125-0.007812-0.046875-0.015625-0.046875-0.011719-0.007812-0.027344-0.015625-0.046875-0.015625z"/>
    </symbol>
    <symbol id="symbol-44" overflow="visible">
      <path d="m0.046875-0.3125h0.10938v0.29688c0 0.039062-0.011719 0.070312-0.03125 0.09375-0.023438 0.03125-0.054688 0.046875-0.09375 0.046875h-0.046875v-0.078125h0.015625c0.019531 0 0.03125-0.0078125 0.03125-0.015625 0.0078125 0 0.015625-0.015625 0.015625-0.046875zm0-0.10938h0.10938v0.078125h-0.10938z"/>
    </symbol>
    <symbol id="symbol-45" overflow="visible">
      <path d="m0.29688-0.29688v0.078125c-0.023437-0.007812-0.039063-0.015625-0.046875-0.015625-0.011719-0.007813-0.027344-0.015625-0.046875-0.015625-0.023437 0-0.042969 0.011719-0.0625 0.03125-0.011719 0.023438-0.015625 0.042969-0.015625 0.0625 0 0.03125 0.003906 0.058594 0.015625 0.078125 0.019531 0.011719 0.039063 0.015625 0.0625 0.015625h0.046875c0.019531-0.0078125 0.035156-0.019531 0.046875-0.03125v0.078125c-0.023437 0.011719-0.039063 0.015625-0.046875 0.015625-0.011719 0.0078125-0.027344 0.015625-0.046875 0.015625-0.0625 0-0.10938-0.015625-0.14062-0.046875-0.023438-0.03125-0.03125-0.070312-0.03125-0.125 0-0.050781 0.0078125-0.085938 0.03125-0.10938 0.03125-0.03125 0.078125-0.046875 0.14062-0.046875h0.046875c0.007812 0 0.023438 0.007812 0.046875 0.015625z"/>
    </symbol>
    <symbol id="symbol-46" overflow="visible">
      <path d="m1.875-0.10938c-0.09375 0.054688-0.19531 0.089844-0.29688 0.10938-0.10547 0.03125-0.21484 0.046875-0.32812 0.046875-0.34375 0-0.61719-0.09375-0.8125-0.28125-0.19922-0.19531-0.29688-0.45703-0.29688-0.78125 0-0.32031 0.097656-0.57812 0.29688-0.76562 0.19531-0.19531 0.46875-0.29688 0.8125-0.29688 0.11328 0 0.22266 0.015625 0.32812 0.046875 0.10156 0.023438 0.20312 0.058594 0.29688 0.10938v0.42188c-0.09375-0.070312-0.19531-0.11719-0.29688-0.14062-0.09375-0.03125-0.19531-0.046875-0.29688-0.046875-0.1875 0-0.33594 0.0625-0.4375 0.1875-0.10547 0.11719-0.15625 0.27734-0.15625 0.48438 0 0.21094 0.050781 0.375 0.15625 0.5 0.10156 0.11719 0.25 0.17188 0.4375 0.17188 0.10156 0 0.20312-0.015625 0.29688-0.046875 0.10156-0.03125 0.20312-0.078125 0.29688-0.14062z"/>
    </symbol>
    <symbol id="symbol-47" overflow="visible">
      <path d="m1.375-1.1094c-0.042969-0.019531-0.085938-0.035156-0.125-0.046875-0.042969-0.007812-0.089844-0.015625-0.14062-0.015625-0.125 0-0.22656 0.042969-0.29688 0.125-0.0625 0.074219-0.09375 0.1875-0.09375 0.34375v0.70312h-0.48438v-1.5312h0.48438v0.25c0.0625-0.09375 0.13281-0.16016 0.21875-0.20312 0.082031-0.050781 0.17969-0.078125 0.29688-0.078125h0.046875 0.09375z"/>
    </symbol>
    <symbol id="symbol-48" overflow="visible">
      <path d="m1.7656-0.76562v0.14062h-1.1406c0.007812 0.11719 0.046875 0.20312 0.10938 0.26562 0.070313 0.054687 0.17578 0.078125 0.3125 0.078125 0.09375 0 0.19141-0.015625 0.29688-0.046875 0.11328-0.03125 0.22656-0.078125 0.34375-0.14062v0.375c-0.11719 0.042969-0.23047 0.074219-0.34375 0.09375-0.11719 0.03125-0.23047 0.046875-0.34375 0.046875-0.28125 0-0.5-0.066406-0.65625-0.20312-0.14844-0.14453-0.21875-0.34766-0.21875-0.60938 0-0.25 0.070312-0.44141 0.21875-0.57812 0.15625-0.14453 0.36328-0.21875 0.625-0.21875 0.23828 0 0.42969 0.074219 0.57812 0.21875 0.14453 0.14844 0.21875 0.33984 0.21875 0.57812zm-0.5-0.17188c0-0.09375-0.03125-0.16406-0.09375-0.21875-0.054687-0.050781-0.12109-0.078125-0.20312-0.078125-0.09375 0-0.17188 0.027344-0.23438 0.078125-0.0625 0.054688-0.10156 0.125-0.10938 0.21875z"/>
    </symbol>
    <symbol id="symbol-49" overflow="visible">
      <path d="m0.92188-0.6875c-0.10547 0-0.18359 0.023438-0.23438 0.0625-0.054688 0.03125-0.078125 0.078125-0.078125 0.14062s0.019531 0.11719 0.0625 0.15625c0.039063 0.03125 0.097656 0.046875 0.17188 0.046875 0.09375 0 0.17188-0.03125 0.23438-0.09375 0.0625-0.070312 0.09375-0.15625 0.09375-0.25v-0.0625zm0.75-0.1875v0.875h-0.5v-0.23438c-0.0625 0.09375-0.13672 0.16797-0.21875 0.21875-0.085937 0.039062-0.18359 0.0625-0.29688 0.0625-0.15625 0-0.28906-0.046875-0.39062-0.14062-0.09375-0.09375-0.14062-0.21094-0.14062-0.35938 0-0.1875 0.054688-0.32031 0.17188-0.40625 0.125-0.082031 0.32031-0.125 0.59375-0.125h0.28125v-0.03125c0-0.082031-0.03125-0.14062-0.09375-0.17188s-0.15625-0.046875-0.28125-0.046875c-0.10547 0-0.20312 0.011719-0.29688 0.03125-0.085938 0.023437-0.16797 0.054687-0.25 0.09375v-0.375c0.10156-0.03125 0.20703-0.050781 0.3125-0.0625 0.11328-0.007813 0.22266-0.015625 0.32812-0.015625 0.26953 0 0.46875 0.058594 0.59375 0.17188 0.125 0.10547 0.1875 0.27734 0.1875 0.51562z"/>
    </symbol>
    <symbol id="symbol-50" overflow="visible">
      <path d="m0.76562-1.9688v0.4375h0.5v0.34375h-0.5v0.65625c0 0.074219 0.015625 0.125 0.046875 0.15625 0.03125 0.023438 0.085938 0.03125 0.17188 0.03125h0.25v0.34375h-0.42188c-0.19922 0-0.33984-0.035156-0.42188-0.10938-0.074219-0.082031-0.10938-0.22266-0.10938-0.42188v-0.65625h-0.25v-0.34375h0.25v-0.4375z"/>
    </symbol>
    <symbol id="symbol-51" overflow="visible">
      <path d="m1.2812-1.3125v-0.8125h0.48438v2.125h-0.48438v-0.21875c-0.074219 0.085938-0.15234 0.15234-0.23438 0.20312-0.074219 0.039062-0.16797 0.0625-0.28125 0.0625-0.1875 0-0.34375-0.070312-0.46875-0.21875-0.11719-0.15625-0.17188-0.35156-0.17188-0.59375 0-0.22656 0.054688-0.41406 0.17188-0.5625 0.125-0.15625 0.28125-0.23438 0.46875-0.23438 0.11328 0 0.20703 0.023438 0.28125 0.0625 0.082031 0.042969 0.16016 0.10547 0.23438 0.1875zm-0.32812 1c0.10156 0 0.17969-0.035156 0.23438-0.10938 0.0625-0.082031 0.09375-0.19531 0.09375-0.34375 0-0.14453-0.03125-0.25391-0.09375-0.32812-0.054688-0.082031-0.13281-0.125-0.23438-0.125-0.10547 0-0.1875 0.042969-0.25 0.125-0.054687 0.074219-0.078125 0.18359-0.078125 0.32812 0 0.14844 0.023438 0.26172 0.078125 0.34375 0.0625 0.074219 0.14453 0.10938 0.25 0.10938z"/>
    </symbol>
    <symbol id="symbol-52" overflow="visible">
      <path d="m1.0469-0.3125c0.10156 0 0.17969-0.035156 0.23438-0.10938 0.0625-0.082031 0.09375-0.19531 0.09375-0.34375 0-0.14453-0.03125-0.25391-0.09375-0.32812-0.054688-0.082031-0.13281-0.125-0.23438-0.125-0.10547 0-0.1875 0.042969-0.25 0.125-0.054687 0.074219-0.078125 0.18359-0.078125 0.32812 0 0.14844 0.023438 0.26172 0.078125 0.34375 0.0625 0.074219 0.14453 0.10938 0.25 0.10938zm-0.32812-1c0.070312-0.082031 0.14844-0.14453 0.23438-0.1875 0.082031-0.039062 0.17578-0.0625 0.28125-0.0625 0.1875 0 0.33594 0.078125 0.45312 0.23438 0.125 0.14844 0.1875 0.33594 0.1875 0.5625 0 0.24219-0.0625 0.4375-0.1875 0.59375-0.11719 0.14844-0.26562 0.21875-0.45312 0.21875-0.10547 0-0.19922-0.023438-0.28125-0.0625-0.085937-0.050781-0.16406-0.11719-0.23438-0.20312v0.21875h-0.48438v-2.125h0.48438z"/>
    </symbol>
    <symbol id="symbol-53" overflow="visible">
      <path d="m0.03125-1.5312h0.48438l0.42188 1.0469 0.34375-1.0469h0.48438l-0.64062 1.6719c-0.0625 0.17578-0.13672 0.29688-0.21875 0.35938-0.085938 0.070312-0.19922 0.10938-0.34375 0.10938h-0.28125v-0.32812h0.15625c0.082031 0 0.14062-0.015625 0.17188-0.046875 0.039063-0.023437 0.070313-0.070313 0.09375-0.14062l0.015625-0.03125z"/>
    </symbol>
    <symbol id="symbol-54" overflow="visible">
      <path d="m0.25-2.0312h0.53125v2.0312h-0.53125z"/>
    </symbol>
    <symbol id="symbol-55" overflow="visible">
      <path d="m-0.03125-2.0312h0.57812l0.46875 0.71875 0.45312-0.71875h0.57812l-0.76562 1.1719v0.85938h-0.53125v-0.85938z"/>
    </symbol>
    <symbol id="symbol-56" overflow="visible">
      <path d="m0.25-2.0312h0.53125v0.73438l0.76562-0.73438h0.60938l-0.98438 0.95312 1.0781 1.0781h-0.65625l-0.8125-0.79688v0.79688h-0.53125z"/>
    </symbol>
    <symbol id="symbol-57" overflow="visible">
      <path d="m1.1875-1.6875c-0.15625 0-0.28125 0.058594-0.375 0.17188-0.085938 0.11719-0.125 0.28125-0.125 0.5 0 0.21094 0.039062 0.375 0.125 0.5 0.09375 0.11719 0.21875 0.17188 0.375 0.17188 0.16406 0 0.28906-0.054688 0.375-0.17188 0.082031-0.125 0.125-0.28906 0.125-0.5 0-0.21875-0.042969-0.38281-0.125-0.5-0.085938-0.11328-0.21094-0.17188-0.375-0.17188zm0-0.39062c0.33203 0 0.58594 0.09375 0.76562 0.28125 0.1875 0.1875 0.28125 0.44922 0.28125 0.78125 0 0.33594-0.09375 0.59375-0.28125 0.78125-0.17969 0.1875-0.43359 0.28125-0.76562 0.28125-0.32422 0-0.57812-0.09375-0.76562-0.28125s-0.28125-0.44531-0.28125-0.78125c0-0.33203 0.09375-0.59375 0.28125-0.78125s0.44141-0.28125 0.76562-0.28125z"/>
    </symbol>
    <symbol id="symbol-58" overflow="visible">
      <path d="m0.25-2.0312h0.59375l0.73438 1.3906v-1.3906h0.5v2.0312h-0.57812l-0.75-1.4062v1.4062h-0.5z"/>
    </symbol>
    <symbol id="symbol-59" overflow="visible">
      <path d="m1.2344-2.125v0.32812h-0.26562c-0.0625 0-0.10938 0.011719-0.14062 0.03125-0.03125 0.023437-0.046875 0.0625-0.046875 0.125v0.10938h0.42188v0.34375h-0.42188v1.1875h-0.48438v-1.1875h-0.25v-0.34375h0.25v-0.10938c0-0.16406 0.046875-0.28516 0.14062-0.35938 0.09375-0.082031 0.23828-0.125 0.4375-0.125z"/>
    </symbol>
    <symbol id="symbol-60" overflow="visible">
      <path d="m0.96875-1.2188c-0.11719 0-0.20312 0.042969-0.26562 0.125-0.054687 0.074219-0.078125 0.18359-0.078125 0.32812 0 0.14844 0.023438 0.26172 0.078125 0.34375 0.0625 0.074219 0.14844 0.10938 0.26562 0.10938 0.10156 0 0.17969-0.035156 0.23438-0.10938 0.0625-0.082031 0.09375-0.19531 0.09375-0.34375 0-0.14453-0.03125-0.25391-0.09375-0.32812-0.054687-0.082031-0.13281-0.125-0.23438-0.125zm0-0.34375c0.25781 0 0.46094 0.074219 0.60938 0.21875 0.14453 0.13672 0.21875 0.32812 0.21875 0.57812s-0.074219 0.44922-0.21875 0.59375c-0.14844 0.14844-0.35156 0.21875-0.60938 0.21875-0.27344 0-0.48047-0.070312-0.625-0.21875-0.14844-0.14453-0.21875-0.34375-0.21875-0.59375s0.070312-0.44141 0.21875-0.57812c0.14453-0.14453 0.35156-0.21875 0.625-0.21875z"/>
    </symbol>
    <symbol id="symbol-61" overflow="visible">
      <path d="m1.6562-1.2812c0.0625-0.09375 0.13281-0.16016 0.21875-0.20312 0.082031-0.050781 0.17578-0.078125 0.28125-0.078125 0.17578 0 0.30469 0.058594 0.39062 0.17188 0.09375 0.10547 0.14062 0.25781 0.14062 0.45312v0.9375h-0.48438v-0.79688-0.03125-0.0625c0-0.10156-0.015625-0.17969-0.046875-0.23438-0.03125-0.050781-0.085938-0.078125-0.15625-0.078125-0.09375 0-0.16797 0.042969-0.21875 0.125-0.042969 0.074219-0.070312 0.18359-0.078125 0.32812v0.75h-0.48438v-0.79688c0-0.16406-0.015625-0.27344-0.046875-0.32812-0.03125-0.050781-0.085937-0.078125-0.15625-0.078125-0.09375 0-0.16797 0.042969-0.21875 0.125-0.054687 0.074219-0.078125 0.18359-0.078125 0.32812v0.75h-0.48438v-1.5312h0.48438v0.21875c0.0625-0.082031 0.12891-0.14453 0.20312-0.1875 0.082031-0.039062 0.17188-0.0625 0.26562-0.0625 0.10156 0 0.19531 0.027344 0.28125 0.078125 0.082031 0.054687 0.14453 0.12109 0.1875 0.20312z"/>
    </symbol>
    <symbol id="symbol-62" overflow="visible">
      <path d="m1.7656-0.9375v0.9375h-0.48438v-0.70312c0-0.13281-0.007812-0.22656-0.015625-0.28125 0-0.050781-0.011719-0.085937-0.03125-0.10938-0.011719-0.03125-0.039063-0.054688-0.078125-0.078125-0.03125-0.019531-0.070312-0.03125-0.10938-0.03125-0.09375 0-0.17188 0.042969-0.23438 0.125-0.0625 0.074219-0.09375 0.18359-0.09375 0.32812v0.75h-0.48438v-2.125h0.48438v0.8125c0.070312-0.082031 0.14844-0.14453 0.23438-0.1875 0.082031-0.039062 0.17578-0.0625 0.28125-0.0625 0.17578 0 0.30469 0.058594 0.39062 0.17188 0.09375 0.10547 0.14062 0.25781 0.14062 0.45312z"/>
    </symbol>
    <symbol id="symbol-63" overflow="visible">
      <path d="m0.21875-0.59375v-0.9375h0.48438v0.15625 0.3125 0.25 0.26562c0.007813 0.054687 0.023437 0.089844 0.046875 0.10938 0.019531 0.042969 0.046875 0.074219 0.078125 0.09375 0.03125 0.011719 0.066406 0.015625 0.10938 0.015625 0.10156 0 0.17969-0.035156 0.23438-0.10938 0.0625-0.082031 0.09375-0.19531 0.09375-0.34375v-0.75h0.48438v1.5312h-0.48438v-0.21875c-0.074219 0.085938-0.15234 0.15234-0.23438 0.20312-0.085938 0.039062-0.17188 0.0625-0.26562 0.0625-0.17969 0-0.3125-0.050781-0.40625-0.15625-0.09375-0.11328-0.14062-0.27344-0.14062-0.48438z"/>
    </symbol>
    <symbol id="symbol-64" overflow="visible">
      <path d="m1.7656-0.9375v0.9375h-0.48438v-0.71875c0-0.125-0.007812-0.21094-0.015625-0.26562 0-0.050781-0.011719-0.085937-0.03125-0.10938-0.011719-0.03125-0.039063-0.054688-0.078125-0.078125-0.03125-0.019531-0.070312-0.03125-0.10938-0.03125-0.09375 0-0.17188 0.042969-0.23438 0.125-0.0625 0.074219-0.09375 0.18359-0.09375 0.32812v0.75h-0.48438v-1.5312h0.48438v0.21875c0.070312-0.082031 0.14844-0.14453 0.23438-0.1875 0.082031-0.039062 0.17578-0.0625 0.28125-0.0625 0.17578 0 0.30469 0.058594 0.39062 0.17188 0.09375 0.10547 0.14062 0.25781 0.14062 0.45312z"/>
    </symbol>
    <symbol id="symbol-65" overflow="visible">
      <path d="m0.25-2.0312h0.875c0.25781 0 0.45703 0.058594 0.59375 0.17188 0.14453 0.11719 0.21875 0.27734 0.21875 0.48438 0 0.21875-0.074219 0.38672-0.21875 0.5-0.13672 0.11719-0.33594 0.17188-0.59375 0.17188h-0.34375v0.70312h-0.53125zm0.53125 0.375v0.5625h0.29688c0.09375 0 0.16406-0.019531 0.21875-0.0625 0.0625-0.050781 0.09375-0.125 0.09375-0.21875s-0.03125-0.16016-0.09375-0.20312c-0.054687-0.050781-0.125-0.078125-0.21875-0.078125z"/>
    </symbol>
    <symbol id="symbol-66" overflow="visible">
      <path d="m0.23438-1.5312h0.48438v1.5c0 0.20703-0.054688 0.36328-0.15625 0.46875-0.09375 0.11328-0.23047 0.17188-0.40625 0.17188h-0.25v-0.32812h0.078125c0.09375 0 0.15625-0.023438 0.1875-0.0625 0.039063-0.042969 0.0625-0.125 0.0625-0.25zm0-0.59375h0.48438v0.40625h-0.48438z"/>
    </symbol>
    <symbol id="symbol-67" overflow="visible">
      <path d="m1.4688-1.4844v0.40625c-0.0625-0.050781-0.13281-0.085937-0.20312-0.10938-0.0625-0.019531-0.13281-0.03125-0.20312-0.03125-0.13672 0-0.24609 0.042969-0.32812 0.125-0.074219 0.074219-0.10938 0.18359-0.10938 0.32812 0 0.14844 0.035156 0.26172 0.10938 0.34375 0.082031 0.074219 0.19141 0.10938 0.32812 0.10938 0.070312 0 0.14453-0.007812 0.21875-0.03125 0.070312-0.019531 0.13281-0.050781 0.1875-0.09375v0.39062c-0.074219 0.03125-0.15234 0.050781-0.23438 0.0625-0.074219 0.019531-0.15234 0.03125-0.23438 0.03125-0.27344 0-0.48438-0.070312-0.64062-0.21875-0.15625-0.14453-0.23438-0.34375-0.23438-0.59375s0.078125-0.44141 0.23438-0.57812c0.15625-0.14453 0.36719-0.21875 0.64062-0.21875 0.082031 0 0.16016 0.007812 0.23438 0.015625 0.082031 0.011719 0.16016 0.03125 0.23438 0.0625z"/>
    </symbol>
  </defs>
  <g transform="matrix(1, 0, 0, 1, -39.598421, 111.192104)">
    <g transform="matrix(1, 0, 0, 1, 83.268472, -77.037224)">
      <g transform="matrix(1, 0, 0, 1, 15.356948, 263.171143)">
        <path d="m573.48 427.48c-7.7383-7.7344-18.02-11.996-28.965-11.996-8.0195 0-15.465 2.4023-21.785 6.4023l-22.184-22.184c1.8516-3.7578 2.9961-7.9375 2.9961-12.41 0-7.4258-3.0078-14.688-8.2539-19.934l-142.33-142.33c-5.3164-5.3203-12.398-8.2578-19.934-8.2578-4.4727 0-8.6523 1.1484-12.41 3.0078l-21.07-21.07h82.844l33.844 33.844c-1.8633 3.7578-3.0078 7.9375-3.0078 12.41 0 7.5312 2.9336 14.613 8.2539 19.934l70.07 70.07c5.3242 5.332 12.402 8.2578 19.938 8.2578 15.543 0 28.188-12.645 28.188-28.191 0-7.4258-3.0078-14.688-8.2539-19.934l-70.07-70.07c-5.3203-5.3203-12.402-8.2578-19.938-8.2578-4.4727 0-8.6523 1.1484-12.41 3.0078l-21.07-21.07h5.293v-9.0312c0-25.688-12.012-48.594-30.684-63.504l-54.059-108.11h12.484v-18.066h-54.195v18.066h12.484l-54.059 108.11c-18.672 14.91-30.684 37.816-30.684 63.504v9.0312h18.066v19.727c-10.488 3.7383-18.066 13.676-18.066 25.434v108.39c0 14.938 12.156 27.098 27.098 27.098 14.938 0 27.098-12.156 27.098-27.098v-108.38c0-11.762-7.5781-21.695-18.066-25.434v-19.727h23.355l33.844 33.844c-1.8594 3.7578-3.0039 7.9375-3.0039 12.41 0 7.5312 2.9336 14.613 8.2539 19.934l142.33 142.33c5.3203 5.3281 12.398 8.2539 19.934 8.2539 4.4727 0 8.6523-1.1484 12.41-3.0078l22.184 22.184c-4.0039 6.332-6.4062 13.766-6.4062 21.785 0 10.938 4.2617 21.234 12.004 28.965l26.457 26.465c7.7305 7.7344 18.012 11.996 28.957 11.996 22.59 0 40.969-18.371 40.969-40.961 0-10.938-4.2617-21.234-12.004-28.965zm-132.07-192.64c2.7109 0 5.2461 1.0586 7.1641 2.9609l70.07 70.07c1.8789 1.8906 2.9648 4.5 2.9648 7.1641 0 5.582-4.543 10.125-10.125 10.125-2.7109 0-5.2461-1.0469-7.1641-2.9609l-70.07-70.07c-1.9062-1.918-2.9648-4.457-2.9648-7.1641 0-5.582 4.543-10.125 10.125-10.125zm-190.77 117.42c0 4.9844-4.0547 9.0312-9.0312 9.0312-4.9766 0-9.0312-4.0469-9.0312-9.0312v-108.39c0-4.9766 4.0547-9.0312 9.0312-9.0312 4.9766 0 9.0312 4.0547 9.0312 9.0312zm143.88-171.61h-71.617v-54.195h9.0312c31.805 0.003906 58.188 23.594 62.586 54.195zm-62.586-72.258h-9.0312v-61.094l32.262 64.516c-7.3672-2.2031-15.152-3.4219-23.23-3.4219zm-27.094-61.094v61.094h-9.0312c-8.0742 0-15.859 1.2188-23.23 3.4219zm-9.0352 79.16h9.0312v54.195h-71.617c4.4023-30.605 30.785-54.195 62.586-54.195zm179.55 270.96c-2.7109 0-5.2461-1.0469-7.1641-2.9609l-142.33-142.33c-1.9062-1.9141-2.9648-4.4531-2.9648-7.1602 0-5.582 4.543-10.125 10.125-10.125 2.7109 0 5.2461 1.0586 7.1641 2.9609l142.33 142.33c1.875 1.8867 2.9609 4.4961 2.9609 7.1602 0 5.582-4.543 10.125-10.125 10.125zm95.605 108.39c-6.125 0-11.867-2.3828-16.195-6.7031l-26.457-26.465c-4.3164-4.3242-6.6992-10.078-6.6992-16.191 0-12.617 10.277-22.898 22.906-22.898 6.125 0 11.867 2.3828 16.195 6.7031l26.457 26.465c4.3164 4.3281 6.6992 10.078 6.6992 16.195 0 12.617-10.277 22.895-22.906 22.895z"/>
        <path d="m575.8 478.71c0 4.9883-4.043 9.0312-9.0312 9.0312-4.9883 0-9.0312-4.043-9.0312-9.0312 0-4.9883 4.043-9.0352 9.0312-9.0352 4.9883 0 9.0312 4.0469 9.0312 9.0352"/>
        <path d="m214.52 27.098c0-14.938-12.156-27.098-27.098-27.098-14.938 0-27.098 12.156-27.098 27.098v9.0312h18.066v-9.0312c0-4.9766 4.0547-9.0312 9.0312-9.0312 4.9766 0 9.0312 4.0547 9.0312 9.0312 0 14.938-12.156 27.098-27.098 27.098h-99.352v18.066h99.355c24.902-0.003907 45.16-20.262 45.16-45.164z"/>
        <path d="m151.29 126.45h-9.0312v18.066h9.0312c14.938 0 27.098-12.156 27.098-27.098 0-14.938-12.156-27.098-27.098-27.098h-27.094v18.066h27.098c4.9766 0 9.0312 4.0547 9.0312 9.0312 0 4.9727-4.0586 9.0312-9.0352 9.0312z"/>
        <path d="m70 90.324h36.129v18.066h-36.129z"/>
        <path d="m277.74 487.74h-27.098v18.066h27.098c14.938 0 27.098 12.156 27.098 27.098 0 4.9844-4.0547 9.0312-9.0312 9.0312-4.9766 0-9.0312-4.0469-9.0312-9.0312v-9.0312h-18.066v9.0312c0 14.938 12.156 27.098 27.098 27.098 14.938 0 27.098-12.156 27.098-27.098-0.003906-24.906-20.262-45.164-45.164-45.164z"/>
        <path d="m106.13 487.74h126.45v18.066h-126.45z"/>
        <path d="m259.68 451.61h-153.55v18.066h153.55c14.938 0 27.098-12.156 27.098-27.098 0-14.938-12.156-27.098-27.098-27.098h-9.0312v18.066h9.0312c4.9766 0 9.0312 4.0469 9.0312 9.0312 0.003907 4.9844-4.0547 9.0312-9.0312 9.0312z"/>
        <path d="m593.87 171.61c0-14.938-12.156-27.098-27.098-27.098-14.938 0-27.098 12.156-27.098 27.098v9.0312h18.066v-9.0312c0-4.9766 4.0547-9.0312 9.0312-9.0312 4.9766 0 9.0312 4.0547 9.0312 9.0312 0 14.938-12.156 27.098-27.098 27.098h-9.0312v18.066h9.0312c24.906-0.003906 45.164-20.262 45.164-45.164z"/>
        <path d="m584.84 234.84h-81.289v18.066h81.289c14.938 0 27.098 12.156 27.098 27.098 0 14.938-12.156 27.098-27.098 27.098-4.9766 0-9.0312-4.0469-9.0312-9.0312 0-4.9844 4.0547-9.0312 9.0312-9.0312h9.0312v-18.066h-9.0312c-14.938 0-27.098 12.156-27.098 27.098 0 14.938 12.156 27.098 27.098 27.098 24.902 0 45.16-20.258 45.16-45.16 0-24.91-20.258-45.168-45.16-45.168z"/>
        <path d="m467.42 198.71h54.195v18.066h-54.195z"/>
      </g>
    </g>
  </g>
</svg>