<?xml version="1.0" encoding="utf-8"?>
<svg viewBox="128.375 7.705 490.989 606.11" xmlns="http://www.w3.org/2000/svg">
  <g transform="matrix(1, 0, 0, 1, 22.092808, 27.128193)">
    <path d="m413.05 431.91c63.516-6.582 93.512-29.016 93.512-67.098 0-25.641-7.6133-39.277-31.797-66.484-26.727-30.066-36.082-46.832-36.082-77.758 0-50.031 31.91-78.75 92.488-84.809 4.6641-0.46484 8.8203 2.9375 9.2852 7.5977 0.46875 4.6641-2.9336 8.8203-7.5977 9.2891-52.551 5.2539-77.207 27.445-77.207 67.922 0 25.637 7.6133 39.273 31.797 66.484 26.723 30.062 36.082 46.828 36.082 77.758 0 48.965-38.027 76.941-110.44 84.145-2.7109 76.426-45.852 111-118.65 111-75.23 0-118.79-36.922-118.79-118.79 0-65.336 27.051-143.98 64.23-184.11-33.945-19.324-55.746-55.602-55.746-95.891 0-12.027 1.9258-23.605 5.4844-34.441l-25.523-86.781c-3.9688-13.484 3.75-27.637 17.234-31.602 7.3828-2.1719 15.348-0.88672 21.672 3.4922l62.082 42.977c9.3438-2.5742 19.188-3.9492 29.355-3.9492 10.164 0 20.008 1.375 29.352 3.9492l62.082-42.977c6.3242-4.3789 14.289-5.6641 21.668-3.4922 13.488 3.9648 21.207 18.117 17.238 31.602l-25.523 86.781c3.5586 10.836 5.4844 22.414 5.4844 34.441 0 40.289-21.801 76.566-55.746 95.891 35.438 38.25 61.676 111.49 64.055 174.84zm-155.36-184.91c5.7383 2.4609 6.9414 10.07 2.2422 14.184-37.586 32.875-67.309 114.09-67.309 180 0 71.812 35.398 101.82 101.82 101.82s101.82-30.004 101.82-101.82c0-65.906-29.723-147.12-67.305-180-4.7031-4.1133-3.5-11.723 2.2383-14.184 34.043-14.602 56.582-48.137 56.582-85.82 0-51.547-41.785-93.336-93.332-93.336s-93.336 41.789-93.336 93.336c0 37.684 22.539 71.219 56.582 85.82zm130.74-143.58 20.074-68.25c1.3203-4.4961-1.25-9.2109-5.7461-10.531-2.4609-0.72656-5.1172-0.29687-7.2266 1.1641l-52.484 36.336c18.742 9.2148 34.488 23.594 45.383 41.281zm-187.98 0.003907c10.895-17.691 26.641-32.07 45.383-41.285l-52.488-36.336c-2.1055-1.4609-4.7617-1.8906-7.2227-1.1641-4.4961 1.3203-7.0664 6.0352-5.7461 10.531z"/>
  </g>
</svg>