<?xml version="1.0" encoding="UTF-8"?>
<svg version="1.1" viewBox="0 0 700 700" xmlns="http://www.w3.org/2000/svg" xmlns:xlink="http://www.w3.org/1999/xlink">

 <g>
  <path d="m118 481.26h464c16.172 0 29.328-13.156 29.328-29.336s-13.156-29.336-29.328-29.336h-31.32c2.8359-17.105 13.227-56.68 50.938-98.133 5.0234-5.5078 5.8125-13.484 1.9688-19.859-3.7969-6.2969-11.164-9.2812-18.281-7.4297-21.371 5.5234-49.863 15.852-77.184 34.949 14.121-28.41 31.922-53.555 53.168-74.996 5.625-5.6328 6.5-14.203 2.1328-20.844-4.3438-6.5938-12.516-9.1484-19.867-6.2422-24.27 9.6367-46.523 21.09-66.602 34 5.5117-51.695 14.281-102.27 19.336-129.34 0-0.015624 0-0.03125 0.007812-0.046874 1.2812-7.1016-1.9922-13.945-8.3438-17.438-6.3203-3.4766-13.82-2.5703-19.109 2.2969-28.859 26.578-52.504 56.523-70.723 89.184-7.5781-53.305-23.301-96.836-32.879-119.76-2.6016-6.1875-8.5859-10.188-15.258-10.188s-12.656 4-15.258 10.195c-9.3438 22.289-24.777 64.773-32.496 117.17-18.285-31.773-41.531-60.852-69.504-86.598-5.3281-4.9141-12.875-5.8047-19.219-2.3047-6.3438 3.5312-9.5703 10.406-8.2188 17.5 5.0977 27.203 13.938 78.117 19.426 130.5-25.547-16.59-50.734-28.117-68.523-35.16-7.375-2.9375-15.523-0.35937-19.875 6.2344-4.375 6.6406-3.5 15.219 2.1094 20.836 21.246 21.379 39.066 46.477 53.242 74.848-27.242-18.996-55.664-29.281-76.992-34.793-7.0938-1.8594-14.445 1.125-18.227 7.3984-3.8438 6.375-3.0469 14.367 1.9766 19.891 37.469 41.246 47.938 80.977 50.832 98.133h-31.258c-16.18 0-29.336 13.156-29.336 29.336s13.156 29.336 29.336 29.336zm471.88-168.4c0.26562 0.42969 0.078125 0.63281-0.09375 0.82031v0.007812c-42.324 46.52-52.758 90.883-55.316 108.9h-56.145c3.0703-18.758 9.3672-40.844 15.961-58.434 31.301-30.328 68.863-44.734 95.594-51.293zm-316.74 39.07 0.89062-0.59375c6.9375 1.2656 14.523 4.0859 22.531 8.3828 39.227 21.605 47.047 46.895 57.336 36.391 17.031-17.375 44.344-40.602 68.305-44.758 0.80469 0.69922 1.6484 1.4336 0.84375 0.73438-16.418 20.613-27.973 46.203-32.414 70.5h-85.051c-4.1602-22.902-15.184-48.965-32.441-70.656zm276.32-107.02 0.72656 0.46875c0.023438 0.10938 0.039063 0.17969-0.21875 0.4375-0.007812 0.007812-0.015625 0.015625-0.023437 0.023438-48.773 49.227-78.82 117.87-87.828 176.75h-55.129c12.293-57.965 46.598-64.688 26.664-82.918-3.043-2.7812-8.2969-4.7852-13.031-4.2383 31.879-41.523 80.395-71.285 128.84-90.523zm-69.211-113.68c0.35156 0.19531 0.33594 0.36719 0.30469 0.55469-5.5391 29.648-15.492 87.227-20.883 143.98-23.109 17.035-44.277 37.875-59.977 61.359 2.4297-27.344 3.9414-69.41 1.5938-99.727 18.352-39.414 44.727-75.109 78.961-106.17zm-130.77-36.102-7.375-3.0938 8.3828 3.0859c44.344 106.14 36.961 183.49 31.711 256.42-9.1641 5.9414-21.965 15.996-34.016 27.688-11-10.652-22.227-19.648-30.09-25.031-11.234-87.129-2.9492-177.13 31.387-259.07zm-127.59 36.156c32.484 29.898 58.414 64.391 77.086 102.55-2.8594 32.117-0.625 76.859-0.70312 72.508 0.23438 6.0977 1.0273 19.777 2.082 31.242-14.68-22.031-34.277-42.262-58.375-60.344-5.3359-57.617-15.375-115.67-20.973-145.49 0-0.007812 0.88281-0.46875 0.88281-0.46875zm-71.609 113.62c48.691 19.262 97.441 49.305 129.45 91.273-10.34-2.3125-16.699 1.3516-20.258 7.3516-11.168 18.746 18.203 23.977 29.762 79.055h-51.633c-9.1875-60.508-39.305-127.78-88.066-177.2zm-40.016 68.781s0.39844-1.0312 0.39844-1.0391c26.156 6.7656 63.703 21.164 94.949 51.418 6.7656 18.219 12.656 39.305 15.797 58.52h-55.91c-2.5625-18.016-12.973-62.379-55.234-108.9zm7.7344 124.9c66.547 0.14062 425.13 1.3633 464 0 7.3516 0 13.328 5.9844 13.328 13.336s-5.9766 13.336-13.328 13.336h-464c-7.3516 0-13.336-5.9844-13.336-13.336s5.9844-13.336 13.336-13.336z"/>

 </g>
</svg>
