<?xml version="1.0" encoding="UTF-8"?>
<svg version="1.1" viewBox="0 0 700 700" xmlns="http://www.w3.org/2000/svg" xmlns:xlink="http://www.w3.org/1999/xlink">

 <g>
  <path d="m414.4 196.89v-34.047h-3.7539c-4.5938 0-34.105 12.938-34.105 34.105h0.003907c-0.035157 0.67188-0.035157 1.3438 0 2.0156-16.93-7.7305-36.383-7.7305-53.312 0 0.035156-0.67188 0.035156-1.3438 0-2.0156 0-21.168-29.512-34.105-34.105-34.105h-3.5234v34.105c-0.003906 4.4492 1.5625 8.7539 4.418 12.164 2.8555 3.4102 6.8242 5.707 11.203 6.4844-10.09 11.664-15.637 26.574-15.621 42v60.59c0 1.0078 0.40234 1.9766 1.1172 2.6875l5.207 5.207-6.0469 67.199v0.003906c-0.16016 2.0625 1.3555 3.8789 3.418 4.0859h0.33594c1.9375-0.015625 3.5508-1.4883 3.75-3.4141l5.6016-60.703 16.801 16.801v6.832-0.003906c0.011719 6.8008 2.7188 13.312 7.5273 18.121 4.8086 4.8047 11.32 7.5117 18.121 7.5273h16.801-0.003906c6.8008-0.015625 13.312-2.7227 18.121-7.5273 4.8086-4.8086 7.5117-11.32 7.5273-18.121v-6.832l16.801-16.801 5.6016 60.703v0.003907c0.19922 1.9258 1.8125 3.3984 3.75 3.4141h0.33594c2.0625-0.20703 3.5781-2.0234 3.418-4.0859l-6.0469-67.199 5.207-5.207v-0.003906c0.71484-0.71094 1.1172-1.6797 1.1172-2.6875v-60.59c0.015625-15.426-5.5312-30.336-15.621-42 4.4492-0.70703 8.5039-2.9805 11.43-6.4102 2.9258-3.4297 4.5312-7.7891 4.5273-12.297zm-121.24 0v-25.031c7.6719 3.4727 22.734 12.77 22.734 25.031 0 6.2812-5.0898 11.371-11.367 11.371s-11.367-5.0898-11.367-11.371zm113.68 119.67-29.23 29.23v0.003906c-0.71484 0.71094-1.1172 1.6797-1.1211 2.6875v8.3984c0.042969 4.832-1.8398 9.4844-5.2344 12.918-3.3945 3.4375-8.0234 5.3789-12.855 5.3945h-16.801 0.003906c-4.793-0.015625-9.3867-1.9258-12.777-5.3125-3.3867-3.3906-5.2969-7.9805-5.3125-12.773v-8.4023c-0.003907-1.0078-0.40625-1.9766-1.1211-2.6875l-29.23-29.23v-59.191c0-20.309 10.832-39.074 28.418-49.227 17.59-10.152 39.254-10.152 56.844 0 17.586 10.152 28.418 28.918 28.418 49.227zm0-119.67c0 6.2812-5.0898 11.371-11.367 11.371s-11.367-5.0898-11.367-11.371c0-12.266 15.062-21.559 22.734-25.031z"/>
  <path d="m380.3 223.44c-6.2734 0.011719-12.418 1.7539-17.762 5.0352-5.3477 3.2812-9.6836 7.9688-12.535 13.555-2.8594-5.5742-7.1992-10.254-12.543-13.523-5.3477-3.2695-11.488-5.0039-17.754-5.0117-2.0859 0-3.7773 1.6914-3.7773 3.7812 0 2.0859 1.6914 3.7773 3.7773 3.7773 7.0391 0 13.793 2.7969 18.77 7.7773 4.9805 4.9766 7.7734 11.727 7.7734 18.77v66.191c0 2.0859 1.6953 3.7773 3.7812 3.7773 2.0898 0 3.7812-1.6914 3.7812-3.7773v-66.191c0-7.043 2.7969-13.793 7.7734-18.77 4.9766-4.9805 11.73-7.7773 18.77-7.7773 2.0898 0 3.7812-1.6914 3.7812-3.7773 0-2.0898-1.6914-3.7812-3.7812-3.7812z"/>

 </g>
</svg>
