<?xml version="1.0" encoding="UTF-8"?>
<svg width="700pt" height="700pt" version="1.1" viewBox="0 0 700 700" xmlns="http://www.w3.org/2000/svg">
 <path d="m536.67 140h46.668l-0.003907-46.668h-163.33c-63.121 0.56641-123.77 24.605-170.14 67.438-46.367 42.832-75.133 101.39-80.695 164.27-1.1641 13.141-7.1914 25.379-16.902 34.312-9.707 8.9336-22.402 13.922-35.598 13.984v46.668c24.934-0.082031 48.938-9.4883 67.289-26.371 18.352-16.883 29.723-40.02 31.875-64.863 4.1016-47.254 24.469-91.621 57.633-125.53-17.156 38.031-21.078 80.715-11.141 121.23 9.9414 40.523 33.168 76.547 65.977 102.32 32.812 25.773 73.309 39.812 115.03 39.879h140v-46.668h-140c-40.953-0.054688-79.832-18.043-106.39-49.223-26.559-31.176-38.129-72.422-31.668-112.86 6.4609-40.441 30.309-76.027 65.258-97.379-17.305 28.418-23.918 62.074-18.656 94.93 5.2578 32.855 22.051 62.766 47.359 84.363 25.312 21.598 57.488 33.477 90.762 33.504h93.332v-46.664h-93.332c-28.586-0.13281-55.535-13.355-73.129-35.887-17.598-22.527-23.898-51.879-17.098-79.645 6.7969-27.766 25.945-50.887 51.961-62.738-5.4766 12.02-8.3398 25.062-8.4023 38.27 0 24.754 9.8359 48.492 27.34 65.996 17.5 17.504 41.242 27.336 65.996 27.336h46.668l-0.003907-46.668h-46.664c-16.672 0-32.078-8.8945-40.414-23.332-8.3398-14.438-8.3398-32.227 0-46.668 8.3359-14.438 23.742-23.332 40.414-23.332z"/>
</svg>
