<?xml version="1.0" encoding="UTF-8"?>
<svg width="700pt" height="700pt" version="1.1" viewBox="0 0 700 700" xmlns="http://www.w3.org/2000/svg" xmlns:xlink="http://www.w3.org/1999/xlink">
 <g>
  <path d="m346.98 205.91c4 0.003906 7.25-3.2227 7.2812-7.2227v-52.191c0.011719-1.9297-0.73828-3.7891-2.0938-5.1641-1.3555-1.375-3.2031-2.1562-5.1328-2.1719-4 0-7.25 3.2266-7.2773 7.2227v52.191c-0.015625 1.9336 0.73438 3.7891 2.0898 5.1641 1.3555 1.3789 3.2031 2.1602 5.1328 2.1719z" fill="#030000"/>
  <path d="m439.6 215.94c-1.9688 0.15234-3.7852 1.0977-5.043 2.6172-1.2539 1.5195-1.8398 3.4844-1.6211 5.4453 1.2305 12.098 0 20.047-4.1992 23.016-7.6172 5.6016-28-2.5195-44.801-9.1289-11.016-5.2305-22.762-8.7617-34.832-10.473-8.5117-4.3672-22.398-2.6328-39.199-0.44922s-40.879 5.3203-46.312-2.6328c-2.2383-3.2461-3.9219-12.375 9.4648-37.129l-0.003906 0.003906c1.125-1.6836 1.4961-3.7656 1.0273-5.7383-0.47266-1.9688-1.7461-3.6562-3.5156-4.6484-1.7656-0.99219-3.8672-1.2031-5.7969-0.58203-1.9297 0.62109-3.5156 2.0195-4.3711 3.8594-13.383 24.809-16.129 41.383-8.625 52.305 6.1055 8.9023 17.586 11.199 30.688 11.199h0.003906c9.8828-0.26172 19.738-1.1406 29.512-2.6328 10.359-1.3438 25.703-3.3594 30.184-1.3438 4.0312 6.1602 27.441 48.215-2.1836 154.84-1.0781 3.8633 1.1758 7.8711 5.0391 8.9609 0.65234 0.085938 1.3086 0.085938 1.9609 0 3.3398-0.039062 6.2266-2.3477 7-5.6016 23.801-85.734 14.84-132.72 6.5508-154.17 5.6016 1.8477 11.871 4.3672 18.031 6.832 14.953 6.7773 30.184 12.711 42.898 12.711 5.7422 0.21875 11.395-1.4766 16.07-4.8164 8.5117-6.3828 11.762-18.199 9.9102-36.121l0.003906 0.003906c-0.49609-3.8711-3.9531-6.6602-7.8398-6.3281z" fill="#030000"/>
  <path d="m421.73 422.63h-135.8c-4.0234 0-7.2812 3.2578-7.2812 7.2773v41.945c0 4.0195 3.2578 7.2812 7.2812 7.2812h135.8c4.0234 0 7.2812-3.2617 7.2812-7.2812v-41.945c0-4.0195-3.2578-7.2773-7.2812-7.2773zm-7.2773 42.168h-121.24v-27.609h121.24z" fill="#030000"/>
  <path d="m451.47 186.93-41.832-80.531c-1.8555-3.5703-6.2578-4.9609-9.8281-3.1055-3.5742 1.8555-4.9648 6.2539-3.1094 9.8281l41.832 80.527c1.8555 3.5703 6.2578 4.9648 9.8281 3.1094 3.5742-1.8594 4.9648-6.2578 3.1094-9.8281z" fill="#030000"/>
  <g>
  </g>
 </g>
</svg>
