<?xml version="1.0" encoding="UTF-8"?>
<svg version="1.1" viewBox="0 0 700 700" xmlns="http://www.w3.org/2000/svg" xmlns:xlink="http://www.w3.org/1999/xlink">
 <g>
  <path d="m548.01 360.06c-10.699-7.1016-28.227-15.73-50.961-16.508-5.8945-0.20312-10.637 0.15234-13.543 0.47266 2.0508-2.3438 4.0625-4.9336 5.8984-7.9492 6.6875-10.988 8.0898-21.805 8.0781-28.945 0-1.3945-0.66406-2.7148-1.7773-3.5508-1.1211-0.83984-2.5742-1.1016-3.9102-0.71094-5.3984 1.5781-15.652 5.7188-23.645 15.711-9.6055 12.02-10.453 25.578-9.9922 33.129-4.9062 2.4492-9.1211 5.1523-12.605 7.7344-0.027344 0.019532-0.066407 0.019532-0.09375 0.035156-0.039063 0.027344-0.054688 0.070313-0.089844 0.097657-2.9297 2.1875-5.3633 4.2695-7.207 6.0078-4.4062 4.1406-7.9375 8.3594-10.863 12.367 3.2852-34.973 7.7734-69.805 13.594-104.32 1.0742-6.3867 2.293-12.637 3.5039-18.895 1.6719-1.25 3.4883-2.5039 5.3945-3.6875-0.30859 5.6992 0.19141 13.078 3.168 21.109 4.0859 11.02 11.055 18.148 16.18 22.188 0.79297 0.625 1.7656 0.95703 2.75 0.95703 0.37891 0 0.76172-0.050781 1.1367-0.14844 1.3516-0.35938 2.457-1.3281 2.9805-2.625 1.9336-4.7656 4.7773-14.453 2.1367-25.844-2.4492-10.562-8.5781-17.93-13.68-22.488 1.457-0.48437 2.9336-0.96484 4.5352-1.3672 7.2305 5.8984 15.25 10.805 23.852 14.609 13.445 5.9414 28.297 9.0312 43.285 9.0312 1.9375 0 3.8789-0.054688 5.8125-0.15625 1.7461-0.09375 3.2695-1.1992 3.9062-2.8281 0.63281-1.625 0.25391-3.4766-0.96875-4.7227-8.168-8.3438-22.129-19.336-42.215-24.332-4.5547-1.1328-8.4258-1.7227-11.102-2.0312 2-1.5586 4.0078-3.2773 5.957-5.332 8.0742-8.5469 11.387-17.941 12.738-24.32 0.28906-1.3672-0.078125-2.793-1-3.8477-0.92578-1.0547-2.2891-1.6367-3.6797-1.5078-5.1328 0.38672-15.094 2.1406-24.141 9.5547-10.805 8.8477-14.164 20.988-15.207 27.441-4.7227 1.2383-8.9023 2.8203-12.43 4.4297-0.027344 0.007813-0.058594 0.003906-0.085938 0.011719-0.035156 0.011719-0.058594 0.054687-0.09375 0.066406-2.668 1.2266-4.9453 2.4453-6.8047 3.5391 12.238-59.051 29.48-112.5 45-160.45l3.5742-11.043c0.37891-1.1719 0.25391-2.4492-0.34766-3.5234-0.59375-1.0742-1.6133-1.8516-2.8086-2.1523l-19.875-4.9609c-2.0781-0.52344-4.2266 0.51172-5.1172 2.4609-2.2852 4.9883-4.4648 10.02-6.668 15.039-0.066406 0.15625-0.1875 0.26953-0.23828 0.4375-0.011719 0.042968 0 0.09375-0.011719 0.13672-4.4727 10.207-8.832 20.461-12.961 30.816-0.003906 0.019531-0.023438 0.027343-0.027344 0.042969-0.003906 0.011718 0 0.03125-0.003906 0.042968-2.4219 6.0781-4.7461 12.195-7.0547 18.32-0.042968 0.10547-0.13281 0.18359-0.17188 0.29297-0.027343 0.074218-0.007812 0.15625-0.03125 0.23047-5.1328 13.664-9.9414 27.441-14.477 41.301-0.066407 0.16406-0.19141 0.28906-0.23828 0.46094-0.035157 0.11719-0.003907 0.23438-0.027344 0.35156-1.8008 5.5156-3.5586 11.043-5.2617 16.586-0.054687 0.13281-0.15234 0.23047-0.19141 0.375-0.035157 0.12109-0.003907 0.23438-0.027344 0.35547-3.6406 11.879-7.0742 23.812-10.262 35.805-0.027344 0.085938-0.089844 0.14062-0.10938 0.22656-0.019531 0.074218 0.003907 0.14844-0.011719 0.22266-1.6758 6.3125-3.2578 12.641-4.8047 18.973-0.039063 0.11719-0.125 0.20312-0.15625 0.32422-0.03125 0.12891 0 0.25391-0.019531 0.38281-0.69141 2.8477-1.4492 5.6875-2.1172 8.543-1.8828 8.0508-3.6406 16.129-5.3242 24.223-0.26172-8.1641-0.52734-15.867-0.80859-23.375-2.2305-59.43-3.7734-119.65-4.6719-179.35 2.2188 5.1875 5.8203 11.422 11.816 17.199 8.457 8.1562 17.828 11.574 24.195 13.004 0.32422 0.074219 0.64844 0.10547 0.97266 0.10547 1.043 0 2.0703-0.36719 2.8828-1.0625 1.0664-0.90625 1.6406-2.2617 1.5508-3.6641-0.32422-5.1289-1.957-15.094-9.2812-24.223-6.8281-8.5117-15.633-12.512-22.219-14.406 1.1523-1.0977 2.3242-2.1641 3.5352-3.1641 2.9375 0.71094 5.9219 1.2969 8.8906 1.75 0.38281 0.058594 9.5039 1.4258 19.035 1.1289 16.582-0.51172 33.219-5.0781 48.105-13.219 1.5352-0.83594 2.4297-2.4961 2.3008-4.2344-0.13281-1.7422-1.2695-3.2461-2.9141-3.8398-10.98-3.9922-28.336-7.875-48.605-3.6914-4.5742 0.94141-8.3438 2.0938-10.906 2.9766 1.1289-2.2773 2.1953-4.6875 3.0586-7.3945 3.5703-11.188 2.4805-21.09 0.93359-27.422-0.33203-1.3594-1.2852-2.4844-2.5703-3.0352-1.2891-0.55078-2.7617-0.46094-3.9648 0.23438-4.457 2.5625-12.68 8.4531-17.621 19.051-5.8672 12.586-3.6836 24.922-1.832 31.219-2.6797 2.25-5.2148 4.7227-7.6133 7.3789-0.019531-1.1953-0.039063-2.3984-0.058594-3.5938-0.027344-2.0977-1.5156-3.8906-3.5742-4.3008l-24.844-4.9609c-1.293-0.26172-2.6445 0.074218-3.6719 0.90625-1.0273 0.83594-1.6328 2.0781-1.6445 3.4062l-0.42188 41.504c-3.3281-1.957-6.7812-3.6719-10.355-5.0664-1.4883-0.58203-6.9648-2.5898-14.738-4.0195-21.059-3.8711-38.902 0.53516-50.164 4.9062-1.625 0.63281-2.7344 2.1562-2.832 3.9023-0.09375 1.7422 0.83984 3.3828 2.3906 4.1875 15.57 8.0781 32.875 12.43 50.043 12.59 0.375 0 0.74219 0.003906 1.1094 0.003906 9.875 0 18.152-1.2031 24.398-2.5859l-0.10938 10.836-2.25 220.1v0.003907 0.003906l-0.26172 25.52c-0.375-1.9023-0.71875-3.8125-1.0977-5.7109-0.007813-0.10938 0.03125-0.21875 0.011718-0.32812-0.027344-0.16016-0.12109-0.28906-0.16406-0.44531-0.57812-2.8945-1.0859-5.8164-1.6719-8.707-2.6836-13.191-5.5273-26.387-8.4844-39.574-0.003906-0.035156 0.007812-0.070312 0-0.10547-0.007813-0.050781-0.042969-0.085937-0.054688-0.13281-2.6133-11.652-5.332-23.289-8.1523-34.914-0.007812-0.054688 0.007813-0.10156 0-0.15234-0.011718-0.070313-0.0625-0.12109-0.078124-0.1875-1.3789-5.6758-2.7617-11.348-4.1875-17.008-0.003907-0.023437 0.003906-0.042969 0-0.066406-0.007813-0.035156-0.03125-0.0625-0.039063-0.097656-1.8516-7.3555-3.7422-14.703-5.6719-22.031-0.003906-0.027344 0.003906-0.058594-0.003906-0.085938-0.007813-0.03125-0.03125-0.054687-0.039063-0.089843-1.8086-6.8672-3.6445-13.719-5.5195-20.559-0.003906-0.011719 0-0.027344-0.003906-0.035156-0.003906-0.007813-0.011719-0.019532-0.011719-0.027344-2.4766-9.0117-5.0273-17.992-7.6172-26.945-0.003907-0.019531-0.003907-0.035156-0.007813-0.054687-0.003906-0.007813-0.007813-0.011719-0.011719-0.019532-1.625-5.6172-3.2539-11.234-4.9258-16.828-0.375-1.2578-1.2891-2.2852-2.4922-2.8047-1.2031-0.51953-2.5781-0.48828-3.75 0.10156l-16.941 8.4531c-5.9648-5.9688-15.297-13.328-28.562-18.559-5.6211-2.2188-14.93-5.1055-26.316-5.7031-0.29297-0.042969-0.57812-0.054688-0.87891-0.039063-6.2617-0.26172-13.109 0.1875-20.309 1.8125-1.6641 0.375-7.6719 1.8594-15.367 5.2305-20.832 9.125-33.91 23.613-41.219 34.168-0.99609 1.4375-1.0547 3.3203-0.15625 4.8164 0.82812 1.3633 2.2773 2.1719 3.8281 2.1719 0.17188 0 0.34375-0.007813 0.51563-0.03125 18.539-2.1562 36.379-8.6211 51.582-18.703 8.6875-5.7539 16.516-12.621 23.297-20.422 2.5703 0.19531 4.9922 0.52344 7.2812 0.92969-7.1523 5.8281-13.387 12.812-18.27 20.613-6.6133 10.551-10.859 22.664-12.281 35.023-0.17969 1.5391 0.45703 3.0547 1.6719 4.0039 0.79687 0.62109 1.7656 0.94531 2.7422 0.94531 0.51953 0 1.043-0.09375 1.5469-0.28125 4.4883-1.668 13.539-5.8672 21.934-14.109-1.2773 4.5625-1.8906 8.75-2.1055 12.141-0.089844 1.3945 0.48047 2.7539 1.5469 3.6641 0.8125 0.69922 1.8398 1.0703 2.8906 1.0703 0.32031 0 0.64453-0.035156 0.96484-0.10547 5.8008-1.293 16.895-4.9453 26.004-14.93 8.6484-9.4766 11.656-20.289 12.633-28.125 0.71875 0.69922 1.3828 1.375 2.0039 2.0273 6.3594 29.867 12.395 60.02 18.133 90.168-8.5469-3.1992-17.559-4.9883-26.555-5.2695-0.0625-0.007812-0.125 0-0.1875-0.007812-0.62109-0.019532-1.2383-0.0625-1.8633-0.066407-6.0859-0.03125-15.785 0.63281-26.617 4.1953-0.27734 0.0625-0.54297 0.15234-0.79688 0.26562-5.9297 2.0234-12.164 4.9102-18.293 9.0352-1.4102 0.94531-6.4805 4.5078-12.426 10.426-16.109 16.031-23.051 34.27-26.031 46.75-0.40625 1.6992 0.21875 3.4766 1.5938 4.543 0.79688 0.61719 1.7617 0.93359 2.7227 0.93359 0.71094 0 1.4219-0.16797 2.0742-0.51562 16.496-8.707 30.781-21.188 41.309-36.078 6.0078-8.5117 10.816-17.734 14.309-27.457 2.457-0.74219 4.832-1.3086 7.1055-1.75-4.5508 8.0195-7.8125 16.785-9.5391 25.809-2.332 12.227-1.9023 25.055 1.2578 37.09 0.39062 1.4922 1.5352 2.6758 3.0078 3.125 0.42188 0.12891 0.85938 0.19141 1.2891 0.19141 1.0703 0 2.125-0.38672 2.9453-1.1172 4.3633-3.8711 13.707-13.648 18.137-28.652 4.3867 8.2344 10.004 14.031 14.441 17.707 0.80469 0.66797 1.8086 1.0195 2.8359 1.0195 0.34766 0 0.69141-0.039062 1.0352-0.12109 1.3594-0.32422 2.4883-1.2695 3.043-2.5547 2.3594-5.4492 5.9141-16.559 3.1719-29.781-1.9922-9.6055-6.5781-17.008-11.203-22.352 5.2227 1.1602 10.32 2.9062 15.219 5.1641 3.2344 17.246 6.3984 34.477 9.3984 51.641 5.3477 30.605 10.383 61.477 15.074 92.395-4.9141 1.1367-11.301 2.1211-18.73 2.0664 4.3633-7.6758 6.8633-16.02 7.2539-24.52 0.59375-12.844-3.3789-23.008-6.8164-29.27-0.67188-1.2266-1.8789-2.0625-3.2617-2.2617-1.3984-0.21484-2.7812 0.26563-3.7734 1.2539-3.9805 3.9727-10.992 12.516-13.199 25.105-2.0117 11.461 0.64453 21.227 3.5195 27.816-2.9609-0.67578-6.1484-1.582-9.4531-2.8125-2.8789-9.9141-7.1055-19.422-12.578-28.285-9.5781-15.516-23.059-28.848-38.988-38.559-1.4922-0.91016-3.375-0.86328-4.8125 0.12109-1.4414 0.98047-2.1797 2.7148-1.875 4.4375 2.1992 12.637 7.9922 31.262 23.078 48.266 3.9062 4.3984 7.418 7.582 9.6523 9.4648-3.1094 0.12891-6.3828 0.45703-9.8438 1.2031-12.59 2.7148-21.41 9.1523-26.594 14.066-1.0195 0.96484-1.5156 2.3516-1.3555 3.7422s0.97266 2.625 2.1836 3.3281c4.3633 2.5352 12.906 6.4727 23.816 6.4727 1.2578 0 2.5469-0.054687 3.8672-0.16406 15.355-1.3164 25.781-10.039 30.945-15.574 9.6172 3.4844 18.293 4.6172 23.867 4.9297 1.6836 0.09375 3.332 0.13672 4.9375 0.13672 7.5938 0 14.227-0.97266 19.449-2.1328 3.5781 23.898 6.9414 47.793 10.094 71.621l-4.4102-3.5195c-1.457-1.168-3.4922-1.293-5.0898-0.32422-1.5938 0.97266-2.4102 2.8398-2.043 4.668l3.1836 15.891-11.746-5.8633c-1.5508-0.77734-3.4141-0.57812-4.7695 0.51172s-1.9492 2.8633-1.5273 4.543l3.168 12.652-12.684-3.1641c-1.6797-0.41797-3.457 0.18359-4.543 1.5352-1.0859 1.3555-1.2852 3.2188-0.50781 4.7695l9.9375 19.836c0.75 1.5039 2.293 2.4531 3.9727 2.4531h168.93c1.1797 0 2.3086-0.46484 3.1406-1.2969l14.906-14.875c1.2695-1.2695 1.6523-3.1836 0.96875-4.8438-0.6875-1.6641-2.3125-2.7461-4.1055-2.7461l-9.4727-0.011719 3.9023-19.48c0.36719-1.832-0.44922-3.6992-2.043-4.668-1.5898-0.96875-3.6211-0.83984-5.0898 0.32422l-17.625 14.074v-10.602c0-0.44531-0.074219-0.875-0.19922-1.2891 1.3828-9.6562 3.0078-19.48 4.8906-29.258 1.0664-5.5547 2.0508-10.258 2.875-14.215 3.1094-14.891 4.2773-20.457-0.78125-23.512-5.4102-3.2695-10.43 0.94922-24.496 13.398-0.003906 0.003906-0.007813 0.007812-0.011719 0.011718-0.42188 0.375-0.76953 0.67969-1.2031 1.0664-2.8633 2.5391-6.0977 5.4062-9.7539 8.5938-3.8203 3.332-7.4141 6.4102-10.777 9.2578 0.61719-26.891 1.9258-53.781 4.0391-80.613 1.9453-4.9805 7.2773-16.312 18.672-27.098 0.89844 6.2969 3.1094 14.484 8.3789 22.781 6.8945 10.863 15.98 16.914 22.395 20.078 0.62109 0.30859 1.293 0.45703 1.9648 0.45703 0.6875 0 1.3789-0.16016 2.0078-0.48047 1.25-0.63281 2.125-1.8125 2.3672-3.1914 0.97656-5.5352 1.8125-16.547-3.6133-28.129-5.2148-11.125-13.895-17.711-20.492-21.352 1.7305-1.0352 3.5586-2.0625 5.5391-3.0273 9.1914 4.7383 19.008 8.2227 29.219 10.359 17.863 3.7422 36.84 3.1602 54.859-1.6836 1.6836-0.45312 2.9492-1.8516 3.2305-3.5781 0.28125-1.6992-0.47656-3.4258-1.9297-4.3906zm-78.52-91.375c1.2305 5.3242 0.94531 10.191 0.1875 14.066-3.0898-3.3633-6.2227-7.8711-8.3828-13.684-2.582-6.957-2.9141-13.43-2.6055-18.16 4.0586 3.6445 8.8828 9.5039 10.801 17.777zm60.508-11.305c-11.645-0.71484-23.066-3.4492-33.547-8.0781-5.3789-2.3789-10.379-5.1367-15.102-8.3477 2.0273-0.10156 4.1211-0.10547 6.2656 0.007813 0.96094 0.054687 6.1016 0.39062 12.922 2.0898 12.359 3.0703 22.148 8.6836 29.461 14.328zm-42.914-43.566c4.2305-3.4648 8.7344-5.375 12.551-6.4141-1.6484 4.25-4.3008 9.0391-8.5586 13.547-5.1211 5.418-10.797 8.6211-15.105 10.461 1.4688-5.2891 4.5742-12.238 11.113-17.594zm-155.54-115.01c-12.055-0.10547-24.188-2.4766-35.641-6.9023 9.4219-2.2852 21.27-3.4844 34.512-1.0547 7.1836 1.3203 12.184 3.1953 13.109 3.5586 2.2266 0.87109 4.4141 1.8672 6.5391 2.9922-5.168 0.85937-11.449 1.5117-18.52 1.4062zm-129.91 72.164c-10.988 7.2852-23.473 12.523-36.594 15.418 7-7.8594 16.965-16.328 30.543-22.277 7.1523-3.1328 12.715-4.4648 13.762-4.7031 2.8008-0.63672 5.5469-1.0664 8.2148-1.3281-4.8438 4.7734-10.105 9.0312-15.926 12.891zm15.16 36.457c1.875-8.1953 5.1289-16.102 9.5859-23.215 4.4922-7.168 10.238-13.59 16.863-18.883-0.33203 6.0625-1.793 13.77-6.0117 21.59-5.6758 10.52-13.973 16.879-20.438 20.508zm40.402-6.4961c-4.8828 5.3516-10.48 8.4883-15.102 10.316 1.1172-5.6094 3.4297-12.289 8.0664-18.883 5.5469-7.8984 12.426-12.809 17.512-15.633-0.68359 6.4375-3.0352 16.047-10.477 24.199zm-7.3125-21.879c1.6523-5.9102 2.2539-11.391 2.3125-15.859 4.2305 1.7109 7.9805 3.6523 11.32 5.6875-4.0547 2.2227-8.8828 5.4883-13.633 10.172zm-25.68 121.03c-7.6016 10.766-17.344 20.164-28.535 27.605 3.6758-9.8594 9.8906-21.355 20.391-31.809 5.5273-5.5039 10.23-8.7539 11.117-9.3516 2.3867-1.6055 4.7969-3 7.1875-4.2148-2.7734 6.1992-6.1328 12.074-10.16 17.77zm38.969 2.0195c-1.4805 11.859-6.9062 20.781-11.613 26.504-1.2266-8.3242-1.0586-16.871 0.51562-25.121 1.582-8.2969 4.6133-16.359 8.8672-23.688 1.8867 5.7695 3.3281 13.488 2.2305 22.305zm22.121 16.668c-3.8945-4.1953-7.957-9.9961-10.582-17.625-3.0977-8.9961-3.0312-17.324-2.2773-23.191 4.875 4.3438 11.133 11.77 13.375 22.57 1.4688 7.082 0.71875 13.441-0.51562 18.246zm7.9375 80.707c1.1289-6.4375 3.8203-11.578 6.4727-15.301 1.8594 4.9297 3.2852 11.215 2.9453 18.527-0.32422 7.0703-2.3984 14.051-6.0547 20.492-2.4727-5.332-5.1016-13.824-3.3633-23.719zm-61.594-29.469c10.711 8.1211 19.844 18.102 26.766 29.316 3.668 5.9375 6.6562 12.008 9.043 18.363-2.3164-1.3594-4.6328-2.9023-6.9141-4.6523-0.84766-0.64844-5.3359-4.1836-10.516-10.02-9.8359-11.082-15.328-22.941-18.379-33.008zm12.699 68.168c-6.5156 0.55469-12.18-0.71875-16.465-2.3164 4.2969-3.0508 10.012-6.0312 17.184-7.5781 8.6172-1.8594 16.238-1.043 21.398 0.089844-4.6836 4.0859-12.215 8.957-22.117 9.8047zm167.93 51.668c-0.15625 9.7852-0.19922 19.562-0.15625 29.344l-1.0977-4.3828c-0.39062-1.5508-1.582-2.7773-3.125-3.2031-1.543-0.42578-3.1953 0.003906-4.3281 1.1367l-7.3203 7.3086v-19.039c0-1.8828-1.1914-3.5703-2.9688-4.1914-1.7773-0.62109-3.7656-0.058594-4.9414 1.4141l-3.25 4.0547c-0.17969-8.6016-0.24609-17.199-0.20312-25.793h27.676c-0.10547 4.1914-0.19922 8.3828-0.26563 12.574-0.039062 0.26172-0.027343 0.51562-0.019531 0.77734zm-102.83-280.14-14.996 4.5977c-1.168-5.7422-2.375-11.457-3.5625-17.184l13.504-5.2383c1.6914 5.9375 3.4062 11.863 5.0547 17.824zm11.164 42.094-17.938 3.7852c-0.82031-4.25-1.6875-8.4844-2.5234-12.73l17.008-4.3086c1.1484 4.4219 2.3281 8.832 3.4531 13.254zm-5.6953-21.848-16.496 4.1719c-0.73437-3.6875-1.4492-7.3828-2.1953-11.066l15.645-4.8008c1.0586 3.8828 2.0117 7.8047 3.0469 11.695zm7.9375 30.461c0.71875 2.8789 1.3672 5.7734 2.0742 8.6641l-18.941 4.043c-0.55469-2.9336-1.0977-5.8633-1.6641-8.7969zm4.1289 17.309c2.1055 8.7695 4.2617 17.535 6.2539 26.316l-20.801 3.9492c-1.5742-8.707-3.1719-17.414-4.8047-26.137zm-12.973 39.02 21.109-4.0078c0.625 2.8281 1.207 5.6523 1.8203 8.4844l-21.477 3.6523c-0.46875-2.707-0.96875-5.4219-1.4531-8.1289zm24.801 13.172c1.2969 6.0859 2.6836 12.168 3.9219 18.254 0.29688 1.457 0.55078 2.9297 0.84375 4.3867l-22.762 3.5273c-1.2617-7.4883-2.4961-15-3.7969-22.461zm-16.516 34.934 22.957-3.5586c0.83594 4.2461 1.6406 8.4961 2.4492 12.754l-23.254 3.5508c-0.69531-4.2617-1.4453-8.4883-2.1523-12.746zm124.71-229.88 16.945 5.8164c-3.2344 10.715-6.418 21.652-9.5156 32.836l-19.055-5.4727c3.6914-11.117 7.543-22.188 11.625-33.18zm7.0859-18.551 15.586 5.6641c-1.0508 3.3516-2.0859 6.8008-3.1289 10.199l-16.367-5.6211c1.3008-3.418 2.5703-6.8438 3.9102-10.242zm13.039-31.387 13.059 4.0977c-2.5859 8.0078-5.1953 16.164-7.8203 24.473l-14.938-5.4258c3.1289-7.7578 6.3711-15.473 9.6992-23.145zm-15.008 97.172c-0.79297 2.9414-1.6016 5.8477-2.375 8.8203l-19.961-5.6367c0.91406-2.9375 1.8828-5.8594 2.8281-8.7852zm-24.891 11.703 20.328 5.7383c-2.2812 9.0391-4.4492 18.238-6.5273 27.574l-21.719-5.6523c2.5-9.2539 5.1406-18.473 7.918-27.66zm-53.508 283.74c-1.043-7.6172-2.25-15.23-3.3789-22.844 0-0.18359 0.066406-0.34766 0.042969-0.53516-0.03125-0.26562-0.16016-0.48438-0.23047-0.73047-1.3086-8.7812-2.6133-17.555-4.0352-26.324l11.281 0.20703c-0.42578 8.0195-0.76562 16.043-1.0039 24.078 0 0.042968-0.027344 0.085937-0.027344 0.12891 0 0.035156 0.023437 0.066406 0.023437 0.10156-0.19531 6.6367-0.3125 13.27-0.375 19.914-0.011719 0.13672-0.078125 0.25391-0.078125 0.39062 0 0.12891 0.0625 0.23438 0.070313 0.36328-0.070313 7.9453-0.066407 15.898 0.050781 23.852-0.79297-6.1992-1.4922-12.391-2.3438-18.59v-0.007812c0.011719 0.003906 0.011719 0 0.003906-0.003907zm4.2969-60.824c0 0.03125-0.023437 0.054688-0.023437 0.085938s0.011718 0.054688 0.011718 0.085938c-0.03125 0.51562-0.058593 1.0352-0.089843 1.5508l-13.309-0.25c-0.60938-3.6641-1.2344-7.3164-1.8633-10.973 0-0.042968 0.027344-0.085937 0.027344-0.12891l0.0625-5.9414 16.277 0.33594c-0.40234 5.0781-0.76953 10.156-1.0938 15.234zm8.6172 4.9883 28.234 1.4609c-0.49219 7.9727-0.91016 15.941-1.2695 23.922h-28.168c0.28125-8.4727 0.69922-16.934 1.2031-25.383zm-21.199-274.47 18.668-0.71875c0.09375 3.8594 0.17188 7.7148 0.26953 11.574h-19.051zm19.184 19.742c0.24609 9.1055 0.49609 18.203 0.77344 27.301h-20.441l0.28125-27.301zm1.0234 36.191c0.089844 2.875 0.19531 5.7383 0.28906 8.6094h-21.16l0.089843-8.6094zm0.59375 17.5c0.13281 4.0117 0.27734 8.0117 0.41406 12.023h-22.094l0.125-12.023zm0.72266 20.906c0.10547 3.0117 0.19922 6.0391 0.3125 9.0508h-22.895l0.09375-9.0508zm0.62891 17.938c0.16406 4.6172 0.32812 9.3438 0.48828 14.219l-23.934-0.625 0.13672-13.59zm0.77344 23.121c0.10938 3.6211 0.22656 7.3945 0.33594 11.25h-24.77l0.12109-11.891zm0.59375 20.137c0.10156 3.6875 0.20703 7.5039 0.3125 11.449h-25.543l0.11719-11.449zm-0.51562 20.336c-0.46094 2.8984-0.92969 5.793-1.3633 8.6875l-23.523-0.20703 0.085937-8.4805zm5.4883 23.668 27.477 1.9883c-0.39453 3.4922-0.79688 6.9922-1.1641 10.488l-27.637-2.2617c0.42578-3.4102 0.85938-6.8125 1.3242-10.215zm1.2383-8.8203c1.1953-8.2461 2.4961-16.465 3.8984-24.676l26.262 4.0781c-1.0234 7.5156-2.0352 15.027-2.9375 22.562zm-11.266-200.32-18.379 0.70703 0.1875-18.051h17.805c0.12109 5.7812 0.25391 11.559 0.38672 17.344zm1.9062 203.04c-0.035156 0.26562-0.074219 0.53516-0.10938 0.80078-0.007813 0.085937-0.058594 0.15625-0.066407 0.24609-0.003906 0.039062 0.019532 0.074219 0.011719 0.12109-0.86719 6.2031-1.6797 12.418-2.4258 18.637-0.007812 0.070313-0.050781 0.12891-0.058594 0.19922-0.003906 0.050781 0.019532 0.089844 0.019532 0.13281-0.4375 3.6172-0.84766 7.2383-1.2461 10.863h-18.797l0.32031-31.191zm-4.8203 39.879c-0.39844 4.0117-0.76172 8.0312-1.1172 12.051l-16.941-0.35156 0.12109-11.699zm-28.098 21.695-24.031 3.2656c-1.0039-6.418-2-12.84-3.0352-19.25l23.547-3.5938c1.2109 6.5195 2.3711 13.039 3.5195 19.578zm32.297 53.727h28.023c-0.15234 3.8398-0.34766 7.6797-0.46484 11.52h-27.797c0.050781-3.8438 0.14062-7.6836 0.23828-11.52zm2.0039-43.141c0.28125-4.0586 0.57031-8.1172 0.89844-12.168l28.152 1.8086c-0.30078 3.9375-0.51563 7.8789-0.78125 11.816zm1.6758-21.027c0.77734-8.6797 1.6445-17.348 2.6484-25.996l27.742 2.2695c-0.85156 8.5039-1.5703 17.02-2.2695 25.535zm50.281-156c-0.77344 3.6328-1.582 7.2188-2.3164 10.895l-22.57-5.7773c0.90234-3.6328 1.7617-7.2656 2.7031-10.891zm-28.117 18.16c0.34766-1.4766 0.74219-2.9414 1.0938-4.418l23.086 5.9062c-1.043 5.5117-2.1289 10.98-3.0703 16.594-0.83594 4.9609-1.5547 9.9414-2.3438 14.914l-24.961-4.5625c1.9297-9.5078 3.9805-18.988 6.1953-28.434zm17.383 41.781c-0.64453 4.2617-1.2969 8.5195-1.9023 12.785l-25.922-4.0273c0.80469-4.4727 1.6484-8.9336 2.5156-13.391zm-45.391-200.89h-17.055l0.22656-21.973 16.508 1.9648c0.097656 6.6641 0.19922 13.332 0.32031 20.008zm0.14062 8.8867c0.050782 2.5508 0.10156 5.0977 0.15234 7.6484h-17.516l0.078125-7.6484zm-28.785 307.27c0.55859 3.2773 1.125 6.5508 1.6719 9.832l-24.316 2.8906c-0.48047-3.1523-1-6.2891-1.4844-9.4375zm3.1602 18.602c1.1367 7.0508 2.1836 14.102 3.2461 21.16l-24.684 2.7969c-1.0117-7.0117-2.0312-14.027-3.0781-21.043zm-20.148 32.758 24.691-2.7969c0.70703 4.8203 1.4648 9.6367 2.1367 14.457l-24.84 2.4766c-0.64844-4.7109-1.3164-9.4219-1.9883-14.137zm136.41-392.66 11.672 2.9102-2.1055 6.5117c-0.15234 0.46484-0.30859 0.94922-0.45703 1.418l-12.191-3.8281c1.043-2.3281 2.0273-4.6836 3.082-7.0117zm-57.023 10.652c3.418 4.2578 5.2695 8.7695 6.2656 12.586-4.2461-1.6992-9.0234-4.4062-13.488-8.7148-5.3359-5.1523-8.4492-10.836-10.223-15.23 5.2461 1.5352 12.137 4.7344 17.445 11.359zm16.855-36.531c12.484-2.5742 23.742-1.7422 32.777 0.1875-10.809 4.3867-22.289 6.8516-33.734 7.207-8.0391 0.26172-16.023-0.83203-17.258-1.0078 1.8398-0.99219 3.7227-1.8828 5.6484-2.6797 1.2773-0.52734 5.9375-2.3398 12.566-3.707zm-24.805-20.543c2.3125-4.957 5.5469-8.6172 8.5352-11.203 0.35937 4.543 0.050781 10.02-1.8359 15.922-2.2656 7.1016-5.9922 12.441-9.0781 15.961-0.97266-5.4102-1.1914-13.023 2.3789-20.68zm-26.402 34.953c0.035156 2.5391 0.089843 5.0938 0.125 7.6367l-16.27-1.9336 0.089844-8.9023zm-82.816 116.74c0.80469 2.7188 1.5352 5.4766 2.3281 8.1992l-12.898 5.0039c-0.50391-2.3906-0.98828-4.8008-1.4922-7.1875zm40.961 310.34 24.863-2.4805c1.332 9.8828 2.5469 19.762 3.7305 29.637l-8.3359-13.871c-0.94531-1.5742-2.7656-2.3984-4.5703-2.0898-1.8086 0.31641-3.2383 1.707-3.6016 3.5078l-3.5391 17.645-4.6797-3.7383c-1.2383-9.5156-2.5586-19.066-3.8672-28.609zm133.91 41.535-2.5742 12.844c-0.26172 1.3008 0.074219 2.6562 0.92188 3.6875 0.84375 1.0312 2.1055 1.625 3.4375 1.625h4.1641l-6.0039 5.9883h-164.35l-4.3789-8.7383 10.492 2.6172c1.5156 0.37891 3.1211-0.066406 4.2227-1.168 1.1016-1.1016 1.5469-2.707 1.168-4.2227l-2.6211-10.465 11.23 5.6055c1.5195 0.76172 3.3359 0.58594 4.6836-0.44531s1.9922-2.7383 1.6562-4.4062l-2.5742-12.844 3.6055 2.875 11.711 9.3516c1.2148 0.97266 2.8398 1.2305 4.293 0.70312 1.457-0.53516 2.5352-1.7812 2.8359-3.3008l2.7148-13.543 8.9922 14.961c0.74609 1.2461 2.0586 2.043 3.5117 2.1406 1.4492 0.097656 2.8594-0.51953 3.7695-1.6523l2.9375-3.6641 0.007812-0.007812 9.0234-11.254v17.105c0 1.7969 1.0859 3.418 2.7422 4.1055 1.6641 0.68359 3.5703 0.3125 4.8438-0.96094l9.3555-9.3438 3.0625 12.234c0.39062 1.5508 1.582 2.7773 3.125 3.2031 1.543 0.42578 3.1953-0.003906 4.3281-1.1367l17.258-17.227v9.1211c0 1.6797 0.94922 3.2227 2.4531 3.9727 1.4961 0.75391 3.3008 0.59375 4.6523-0.41797l12.77-9.5547v10.957c0 1.707 0.97656 3.2617 2.5156 4.0039 1.5391 0.74219 3.3633 0.53516 4.7031-0.53516zm-14.695-58.055-6.8125 0.96875-1.5898-4.3008c4.4102-3.8828 8.2461-7.1914 10.688-8.8711-0.33203 2.8281-1.2852 7.4023-2.2852 12.203zm-15.547 2.9844 1.6406 4.4297c0.64844 1.7656 2.3281 2.9023 4.168 2.9023 0.20703 0 0.41797-0.011718 0.63281-0.042968l7.2031-1.0273c-0.35156 1.7422-0.71094 3.5469-1.0859 5.4922-0.42969 2.2383-0.80078 4.4805-1.2031 6.7227l-14.781 3.0742-4.582-14.543c0.58984-0.51562 1.1602-1 1.7656-1.5234 2.2539-1.9609 4.2969-3.7617 6.2422-5.4844zm-15.34 13.324 4.6445 14.746c0.58984 1.8789 2.3281 3.1094 4.2344 3.1094 0.29688 0 0.60547-0.03125 0.90625-0.09375l15.227-3.168c-0.77734 4.6875-1.4844 9.3516-2.1406 13.988l-10.805 8.0898v-10.957c0-1.7969-1.0859-3.418-2.7422-4.1055-1.6562-0.68359-3.5703-0.3125-4.8438 0.96094l-12.375 12.352c-0.050781-9.4531-0.023437-18.906 0.11719-28.363 2.4258-2.0352 5.0117-4.207 7.7773-6.5586zm46.203-161.09c4.0859-5.1094 8.9141-8.332 13.031-10.336-0.74219 5.207-2.5078 11.406-6.3164 17.664-4.5859 7.5273-10.43 12.488-14.809 15.441 0.25-6.207 1.8906-15.012 8.0938-22.77zm-5.5586 63.402c2.7734 5.9141 3.5195 11.664 3.4922 16.227-4.3516-2.9766-9.1367-7.3125-13.066-13.504-4.6992-7.3984-6.5195-14.797-7.1953-20.109 5.4062 2.9688 12.535 8.3477 16.77 17.387zm24.133-26.488c-6.8398-1.4375-13.309-3.4453-19.562-6.0898 2.5781-0.74219 5.2812-1.3516 8.1172-1.8008 1.0547-0.16797 6.7109-0.98828 14.523-0.71484 14.816 0.50781 27.215 4.6914 36.637 9.4062-13.273 2.1602-26.809 1.9062-39.715-0.80078z"/>
 </g>
</svg>
