<?xml version="1.0" encoding="UTF-8"?>
<svg version="1.1" viewBox="0 0 700 700" xmlns="http://www.w3.org/2000/svg" xmlns:xlink="http://www.w3.org/1999/xlink">

 <g>
  <path d="m94.5 278.6v14h219.8l9.0977-14z"/>
  <path d="m94.5 329.7v14h187.6l8.75-14z"/>
  <path d="m94.5 395.85v14h145.6l8.75-14z"/>
  <path d="m94.5 477.4v14h93.801l8.75-14z"/>
  <path d="m529.2 278.6h76.301v14h-76.301z"/>
  <path d="m529.2 329.7h76.301v14h-76.301z"/>
  <path d="m529.2 395.85h76.301v14h-76.301z"/>
  <path d="m529.2 477.4h76.301v14h-76.301z"/>
  <path d="m430.85 194.25h14v28h-14z"/>
  <path d="m284.9 185.85h19.602v14h-19.602z"/>
  <path d="m352.45 185.85h19.602v14h-19.602z"/>
  <path d="m605.5 236.6h-511v14h263.2l-152.95 240.8h16.449l152.95-240.8h19.953l-102.9 240.8h15.051l103.25-240.8h20.648l-65.449 240.8h14.352l65.449-240.8h21l-32.199 240.8h14l32.551-240.8h21.348v240.8h14v-240.8h90.301z"/>
  <path d="m262.15 166.6h131.95v55.648h14l0.003906-55.648h58.449v55.648h14v-65.102l-29.051-37.098h-27.301v-20.301h-14v20.301h-133l-29.051 37.102v65.102h14zm182.7-32.551 14.699 18.551h-54.949l-14.699-18.551zm-160.65 0h88.551l14.699 18.551h-117.95z"/>
  <path d="m586.6 186.2c18.898-6.3008 18.898-38.148 18.898-49.352 0-25.551-5.6016-68.25-25.898-68.25-20.301 0-25.898 43.051-25.898 68.25 0 11.199 0 43.051 18.898 49.352v36.051h14zm-18.551-49.348c0-33.949 8.0508-52.148 11.898-54.25 3.5 2.1016 11.898 20.301 11.898 54.25 0 13.648-1.3984 36.398-11.898 36.398s-11.898-22.75-11.898-36.398z"/>
  <path d="m122.5 205.1c9.4492-3.8516 14-16.801 14-38.5 0-24.5-5.6016-53.199-21-53.199s-21 28.699-21 53.199c0 21.699 4.8984 34.301 14 38.5v17.148h14zm-14-38.152c0-21.352 4.5508-34.301 7-38.148 2.8008 3.8516 7 17.148 7 38.148 0 15.75-2.8008 25.898-7 25.898-4.1992 0.003906-7-10.148-7-25.898z"/>
  <path d="m185.15 203.7c18.898-6.3008 18.898-38.148 18.898-49.352 0-25.551-5.6016-68.25-25.898-68.25-20.301 0-25.898 43.051-25.898 68.25 0 11.199 0 43.051 18.898 49.352v18.551h14zm-18.898-49.348c0-33.949 8.0508-52.148 11.898-54.25 3.5 2.1016 11.898 20.301 11.898 54.25 0 13.648-1.3984 36.398-11.898 36.398-10.148 0-11.898-22.75-11.898-36.398z"/>

 </g>
</svg>
