<?xml version="1.0" encoding="UTF-8"?>
<svg version="1.1" viewBox="0 0 700 700" xmlns="http://www.w3.org/2000/svg">
 <g>
  <path d="m6.7539 28.484v442.11c0 6.4453 5.2227 11.668 11.668 11.668 6.4414 0 11.664-5.2227 11.664-11.668v-442.11c0-6.4414-5.2227-11.664-11.664-11.664-6.4453 0-11.668 5.2227-11.668 11.664z"/>
  <path d="m190.96 28.484v442.11c0 6.4453 5.2227 11.668 11.668 11.668 6.4414 0 11.664-5.2227 11.664-11.668v-442.11c0-6.4414-5.2227-11.664-11.664-11.664-6.4453 0-11.668 5.2227-11.668 11.664z"/>
  <path d="m375.18 28.484v442.11c0 6.4453 5.2227 11.668 11.668 11.668 6.4414 0 11.664-5.2227 11.664-11.668v-442.11c0-6.4414-5.2227-11.664-11.664-11.664-6.4453 0-11.668 5.2227-11.668 11.664z"/>
  <path d="m577.81 28.484v442.11c0 6.4453 5.2227 11.668 11.664 11.668 6.4453 0 11.668-5.2227 11.668-11.668v-442.11c0-6.4414-5.2227-11.664-11.668-11.664-6.4414 0-11.664 5.2227-11.664 11.664z"/>
  <path d="m98.859 102.17v442.1c0 6.4453 5.2227 11.668 11.668 11.668 6.4414 0 11.664-5.2227 11.664-11.668v-442.1c0-6.4453-5.2227-11.668-11.664-11.668-6.4453 0-11.668 5.2227-11.668 11.668z"/>
  <path d="m283.07 102.17v442.1c0 6.4453 5.2227 11.668 11.668 11.668 6.4414 0 11.664-5.2227 11.664-11.668v-442.1c0-6.4453-5.2227-11.668-11.664-11.668-6.4453 0-11.668 5.2227-11.668 11.668z"/>
  <path d="m467.28 102.17v442.1c0 6.4453 5.2227 11.668 11.668 11.668 6.4414 0 11.664-5.2227 11.664-11.668v-442.1c0-6.4453-5.2227-11.668-11.664-11.668-6.4453 0-11.668 5.2227-11.668 11.668z"/>
  <path d="m669.91 102.17v442.1c0 6.4453 5.2227 11.668 11.664 11.668 6.4453 0 11.668-5.2227 11.668-11.668v-442.1c0-6.4453-5.2227-11.668-11.668-11.668-6.4414 0-11.664 5.2227-11.664 11.668z"/>
 </g>
</svg>
