<?xml version="1.0" encoding="utf-8"?>
<svg viewBox="38.687 256.407 489.527 461.746" xmlns="http://www.w3.org/2000/svg">
  <defs>
    <symbol id="w" overflow="visible">
      <path d="m0.03125 0h-0.015625-0.015625v-0.015625-0.015625h0.015625 0.015625-0.015625v0.015625 0.015625h0.015625v-0.015625z"/>
    </symbol>
    <symbol id="e" overflow="visible">
      <path d="m0.015625-0.015625v0.015625h-0.015625v-0.03125h0.015625v0.015625-0.015625z"/>
    </symbol>
    <symbol id="b" overflow="visible">
      <path d="m0.03125-0.015625h-0.015625v0.015625c0.0078125 0 0.015625-0.0039062 0.015625-0.015625v0.015625h-0.015625-0.015625v-0.015625l0.015625-0.015625v0.015625h0.015625z"/>
    </symbol>
    <symbol id="a" overflow="visible">
      <path d="m0.015625-0.015625v0.015625-0.015625zm0.015625 0v0.015625h-0.015625-0.015625v-0.015625h0.015625-0.015625v-0.015625h0.015625v0.015625h0.015625z"/>
    </symbol>
    <symbol id="d" overflow="visible">
      <path d="m0.015625-0.03125v0.015625 0.015625h-0.015625v-0.015625-0.015625z"/>
    </symbol>
    <symbol id="l" overflow="visible">
      <path d="m0.015625-0.015625v-0.015625h0.015625v0.03125h-0.015625-0.015625v-0.015625l0.015625-0.015625v0.015625zm0 0.015625v-0.015625 0.015625z"/>
    </symbol>
    <symbol id="k" overflow="visible">
      <path d="m0.015625 0v-0.015625 0.015625zm0-0.015625v-0.015625c0.0078125 0 0.015625 0.0078125 0.015625 0.015625v0.015625h-0.015625-0.015625v-0.03125h0.015625z"/>
    </symbol>
    <symbol id="j" overflow="visible">
      <path d="m0-0.03125h0.015625v0.015625-0.015625h0.015625l-0.015625 0.03125v0.015625h-0.015625v-0.015625h0.015625z"/>
    </symbol>
    <symbol id="i" overflow="visible">
      <path d="m0.015625-0.03125v0.015625 0.015625h0.015625v-0.015625c0-0.0078125-0.0078125-0.015625-0.015625-0.015625zm0 0h0.015625v0.015625 0.015625h-0.015625-0.015625v-0.015625-0.015625h0.015625z"/>
    </symbol>
    <symbol id="v" overflow="visible">
      <path d="m0-0.03125h0.015625v0.03125h-0.015625z"/>
    </symbol>
    <symbol id="f" overflow="visible">
      <path d="m0.03125-0.015625v0.015625h-0.015625v-0.015625 0.015625h-0.015625v-0.03125h0.015625v0.015625-0.015625c0.0078125 0 0.015625 0.0078125 0.015625 0.015625z"/>
    </symbol>
    <symbol id="h" overflow="visible">
      <path d="m0-0.03125h0.015625 0.015625v0.015625h-0.015625v0.015625h-0.015625zm0.015625 0v0.015625-0.015625z"/>
    </symbol>
    <symbol id="g" overflow="visible">
      <path d="m0.03125-0.03125v0.015625h-0.015625c0.0078125 0 0.015625 0.0078125 0.015625 0.015625h-0.015625-0.015625 0.015625v-0.015625h-0.015625l0.015625-0.015625h0.015625z"/>
    </symbol>
    <symbol id="c" overflow="visible">
      <path d="m0.015625-0.015625v0.015625-0.015625zm0-0.015625v0.015625h0.015625c0 0.011719-0.0078125 0.015625-0.015625 0.015625h-0.015625v-0.015625l0.015625-0.015625z"/>
    </symbol>
    <symbol id="u" overflow="visible">
      <path d="m0-0.03125h0.015625v0.015625-0.015625h0.015625l-0.015625 0.03125z"/>
    </symbol>
    <symbol id="t" overflow="visible">
      <path d="m0-0.03125h0.015625v0.015625-0.015625h0.015625l-0.015625 0.015625 0.015625 0.015625h-0.015625v-0.015625 0.015625h-0.015625z"/>
    </symbol>
    <symbol id="s" overflow="visible">
      <path d="m0.015625-0.03125v0.03125h-0.015625v-0.03125h0.015625z"/>
    </symbol>
    <symbol id="r" overflow="visible">
      <path d="m0.03125-0.015625v-0.015625c0.0078125 0 0.015625 0.0078125 0.015625 0.015625v0.015625h-0.015625v-0.015625 0.015625h-0.015625v-0.015625 0.015625h-0.015625v-0.03125h0.015625v0.015625-0.015625 0.015625h0.015625z"/>
    </symbol>
    <symbol id="q" overflow="visible">
      <path d="m0.03125-0.015625v0.015625h-0.015625v-0.015625 0.015625h-0.015625v-0.03125h0.015625v0.015625-0.015625c0.0078125 0 0.015625 0.0078125 0.015625 0.015625z"/>
    </symbol>
    <symbol id="p" overflow="visible">
      <path d="m0-0.03125h0.015625l0.015625 0.015625v-0.015625 0.03125l-0.015625-0.015625v0.015625h-0.015625z"/>
    </symbol>
    <symbol id="o" overflow="visible">
      <path d="m0-0.015625v-0.015625h0.015625v0.015625 0.015625-0.015625-0.015625h0.015625v0.03125h-0.015625-0.015625v-0.015625z"/>
    </symbol>
    <symbol id="n" overflow="visible">
      <path d="m0-0.03125h0.015625v0.03125h-0.015625v0.015625zm0 0h0.015625z"/>
    </symbol>
    <symbol id="m" overflow="visible">
      <path d="m0.03125-0.03125v0.015625h-0.015625v0.015625h0.015625-0.015625-0.015625v-0.015625l0.015625-0.015625h0.015625z"/>
    </symbol>
    <symbol id="symbol-1" overflow="visible">
      <path d="m0.03125 0h-0.015625-0.015625v-0.015625-0.015625h0.015625 0.015625-0.015625v0.015625 0.015625h0.015625v-0.015625z"/>
    </symbol>
    <symbol id="symbol-2" overflow="visible">
      <path d="m0.015625-0.015625v0.015625h-0.015625v-0.03125h0.015625v0.015625-0.015625z"/>
    </symbol>
    <symbol id="symbol-3" overflow="visible">
      <path d="m0.03125-0.015625h-0.015625v0.015625c0.0078125 0 0.015625-0.0039062 0.015625-0.015625v0.015625h-0.015625-0.015625v-0.015625l0.015625-0.015625v0.015625h0.015625z"/>
    </symbol>
    <symbol id="symbol-4" overflow="visible">
      <path d="m0.015625-0.015625v0.015625-0.015625zm0.015625 0v0.015625h-0.015625-0.015625v-0.015625h0.015625-0.015625v-0.015625h0.015625v0.015625h0.015625z"/>
    </symbol>
    <symbol id="symbol-5" overflow="visible">
      <path d="m0.015625-0.03125v0.015625 0.015625h-0.015625v-0.015625-0.015625z"/>
    </symbol>
    <symbol id="symbol-6" overflow="visible">
      <path d="m0.015625-0.015625v-0.015625h0.015625v0.03125h-0.015625-0.015625v-0.015625l0.015625-0.015625v0.015625zm0 0.015625v-0.015625 0.015625z"/>
    </symbol>
    <symbol id="symbol-7" overflow="visible">
      <path d="m0.015625 0v-0.015625 0.015625zm0-0.015625v-0.015625c0.0078125 0 0.015625 0.0078125 0.015625 0.015625v0.015625h-0.015625-0.015625v-0.03125h0.015625z"/>
    </symbol>
    <symbol id="symbol-8" overflow="visible">
      <path d="m0-0.03125h0.015625v0.015625-0.015625h0.015625l-0.015625 0.03125v0.015625h-0.015625v-0.015625h0.015625z"/>
    </symbol>
    <symbol id="symbol-9" overflow="visible">
      <path d="m0.015625-0.03125v0.015625 0.015625h0.015625v-0.015625c0-0.0078125-0.0078125-0.015625-0.015625-0.015625zm0 0h0.015625v0.015625 0.015625h-0.015625-0.015625v-0.015625-0.015625h0.015625z"/>
    </symbol>
    <symbol id="symbol-10" overflow="visible">
      <path d="m0-0.03125h0.015625v0.03125h-0.015625z"/>
    </symbol>
    <symbol id="symbol-11" overflow="visible">
      <path d="m0.03125-0.015625v0.015625h-0.015625v-0.015625 0.015625h-0.015625v-0.03125h0.015625v0.015625-0.015625c0.0078125 0 0.015625 0.0078125 0.015625 0.015625z"/>
    </symbol>
    <symbol id="symbol-12" overflow="visible">
      <path d="m0-0.03125h0.015625 0.015625v0.015625h-0.015625v0.015625h-0.015625zm0.015625 0v0.015625-0.015625z"/>
    </symbol>
    <symbol id="symbol-13" overflow="visible">
      <path d="m0.03125-0.03125v0.015625h-0.015625c0.0078125 0 0.015625 0.0078125 0.015625 0.015625h-0.015625-0.015625 0.015625v-0.015625h-0.015625l0.015625-0.015625h0.015625z"/>
    </symbol>
    <symbol id="symbol-14" overflow="visible">
      <path d="m0.015625-0.015625v0.015625-0.015625zm0-0.015625v0.015625h0.015625c0 0.011719-0.0078125 0.015625-0.015625 0.015625h-0.015625v-0.015625l0.015625-0.015625z"/>
    </symbol>
    <symbol id="symbol-15" overflow="visible">
      <path d="m0-0.03125h0.015625v0.015625-0.015625h0.015625l-0.015625 0.03125z"/>
    </symbol>
    <symbol id="symbol-16" overflow="visible">
      <path d="m0-0.03125h0.015625v0.015625-0.015625h0.015625l-0.015625 0.015625 0.015625 0.015625h-0.015625v-0.015625 0.015625h-0.015625z"/>
    </symbol>
    <symbol id="symbol-17" overflow="visible">
      <path d="m0.015625-0.03125v0.03125h-0.015625v-0.03125h0.015625z"/>
    </symbol>
    <symbol id="symbol-18" overflow="visible">
      <path d="m0.03125-0.015625v-0.015625c0.0078125 0 0.015625 0.0078125 0.015625 0.015625v0.015625h-0.015625v-0.015625 0.015625h-0.015625v-0.015625 0.015625h-0.015625v-0.03125h0.015625v0.015625-0.015625 0.015625h0.015625z"/>
    </symbol>
    <symbol id="symbol-19" overflow="visible">
      <path d="m0.03125-0.015625v0.015625h-0.015625v-0.015625 0.015625h-0.015625v-0.03125h0.015625v0.015625-0.015625c0.0078125 0 0.015625 0.0078125 0.015625 0.015625z"/>
    </symbol>
    <symbol id="symbol-20" overflow="visible">
      <path d="m0-0.03125h0.015625l0.015625 0.015625v-0.015625 0.03125l-0.015625-0.015625v0.015625h-0.015625z"/>
    </symbol>
    <symbol id="symbol-21" overflow="visible">
      <path d="m0-0.015625v-0.015625h0.015625v0.015625 0.015625-0.015625-0.015625h0.015625v0.03125h-0.015625-0.015625v-0.015625z"/>
    </symbol>
    <symbol id="symbol-22" overflow="visible">
      <path d="m0-0.03125h0.015625v0.03125h-0.015625v0.015625zm0 0h0.015625z"/>
    </symbol>
    <symbol id="symbol-23" overflow="visible">
      <path d="m0.03125-0.03125v0.015625h-0.015625v0.015625h0.015625-0.015625-0.015625v-0.015625l0.015625-0.015625h0.015625z"/>
    </symbol>
  </defs>
  <g transform="matrix(1, 0, 0, 1, -39.598421, 111.192104)">
    <g transform="matrix(1, 0, 0, 1, 83.268472, -77.037224)">
      <g transform="matrix(0.794478, 0, 0, 0.794478, -38.28532, 230.668686)" style="">
        <path d="m359.03 280c0 4.9883-4.043 9.0312-9.0312 9.0312s-9.0312-4.043-9.0312-9.0312 4.043-9.0312 9.0312-9.0312 9.0312 4.043 9.0312 9.0312"/>
        <path d="m630 352.26c0-13.988-10.652-25.531-24.27-26.949l-55.207-34.504c4.7461-13.938 7.2148-28.617 7.2148-43.496 0-8.8711-0.88281-17.777-2.6211-26.477l-15.48-77.41c-0.70312-13.816-14.793-25.379-41.949-34.469l23.926-23.922v-3.7422c0-44.824-36.465-81.289-81.289-81.289h-3.7422l-90.332 90.332c-47.57 0.23828-92.25 5.0039-126.18 13.484-38.793 9.6992-58.863 23.02-59.711 39.598l-15.484 77.418c-1.7383 8.7031-2.6211 17.609-2.6211 26.48 0 14.879 2.4688 29.555 7.2148 43.496l-55.207 34.504c-13.613 1.4141-24.266 12.961-24.266 26.945 0 6.9336 2.6211 13.266 6.9219 18.066-4.3008 4.7969-6.9219 11.129-6.9219 18.062v27.098c0 9.9609 8.1055 18.066 18.066 18.066h18.066c9.9609 0 18.066-8.1055 18.066-18.066v-12.98l205.24 94.727c-4.0664 4.7422-6.5273 10.891-6.5273 17.609v27.098c0 9.9609 8.1055 18.066 18.066 18.066h18.066c9.9609 0 18.066-8.1055 18.066-18.066v-27.098c0-6.7188-2.4648-12.871-6.5273-17.609l205.22-94.727v12.98c0 9.9609 8.1055 18.066 18.066 18.066h18.066c9.9609 0 18.066-8.1055 18.066-18.066v-27.098c0-6.9336-2.6211-13.266-6.9219-18.066 4.2969-4.7969 6.918-11.129 6.918-18.062zm-18.066 0c0 4.9805-4.0508 9.0312-9.0312 9.0312-4.9805 0-9.0312-4.0508-9.0312-9.0312 0-4.9805 4.0508-9.0312 9.0312-9.0312 4.9805 0 9.0312 4.0508 9.0312 9.0312zm-494.66 18.066c1.4648-1.6367 2.7344-3.4492 3.7695-5.4023l208.39 96.18c-3.1914 3.7227-5.3984 8.3164-6.1953 13.375l-199.74-92.191c-1.0469-4.5234-3.2227-8.6172-6.2227-11.961zm223.7 108.39c0-4.9805 4.0508-9.0312 9.0312-9.0312s9.0312 4.0508 9.0312 9.0312c0 4.9805-4.0508 9.0312-9.0312 9.0312s-9.0312-4.0508-9.0312-9.0312zm29.602-17.609 208.39-96.18c1.0391 1.9531 2.3047 3.7695 3.7695 5.4023-3 3.3438-5.1758 7.4375-6.2188 11.961l-199.75 92.191c-0.80078-5.0586-3.0039-9.6523-6.1953-13.375zm122.57-373.14-20.32 20.32c-31.977-1.8203-57.664-27.508-59.484-59.484l20.32-20.32c7.2031 29.23 30.254 52.281 59.484 59.484zm-36.129 36.129-11.285 11.285c-31.977-1.8203-57.664-27.508-59.484-59.484l11.285-11.285c7.2031 29.23 30.254 52.281 59.484 59.484zm-3.2227 28.77c15.082 2.7188 28.406 6.0352 39.238 9.7344-4.9766 1.7031-10.754 3.418-17.484 5.0977-13.312 3.3281-28.395 6.0586-44.73 8.1406zm-23.875-1.6719-11.285 11.285c-31.977-1.8203-57.664-27.508-59.484-59.484l11.285-11.285c7.2031 29.23 30.254 52.281 59.484 59.484zm-27.094 27.094-0.42187 0.42188c-16.746 1.2812-34.359 1.9453-52.398 1.9453-22.793 0-44.902-1.0586-65.434-3.082l58.77-58.766c7.1992 29.23 30.25 52.281 59.484 59.48zm-141.06-3.4531c-13.492-1.9336-26.035-4.3203-37.301-7.1367-6.7305-1.6836-12.508-3.3984-17.484-5.0977 20.418-6.957 49.453-12.406 82.438-15.418zm-41.684 10.387c34.816 8.7031 80.957 13.5 129.93 13.5s95.109-4.793 129.93-13.496c20.645-5.1602 35.977-11.352 45.945-18.508l2.2227 11.109c-14.465 19.176-84.184 38.957-178.09 38.957s-163.63-19.781-178.09-38.957l2.2227-11.109c9.9648 7.1562 25.301 13.344 45.945 18.504zm318.04 81.285c-2.9961 4.7461-9.5703 9.5586-19.242 14.133 1.8086-6.3633 2.75-12.98 2.75-19.699 0-17.789-6.418-34.586-18.141-47.773 11.449-4.2344 21.238-9.1172 28.754-14.664l5.1797 25.887c1.5078 7.5312 2.2695 15.25 2.2695 22.934-0.003907 6.5078-0.54688 12.914-1.5703 19.184zm-333.54 22.898c-5.3164-8.5547-8.125-18.359-8.125-28.465 0-14.41 5.6133-27.961 15.805-38.152l3.5-3.5c9.1641 2.5117 18.984 4.7109 29.25 6.6016 3.6836 8.2578 5.6406 17.301 5.6406 26.344 0 16.461-6.3672 32.34-17.578 44.262-10.492-2.1445-20.027-4.5312-28.492-7.0898zm60.836-60.23c11.355 1.582 23.043 2.8242 34.812 3.7422l-6.6289 13.262c-4.4609 8.9219-6.8203 18.91-6.8203 28.887 0 10.559 2.5273 20.727 7.2773 29.824-14.488-1.1836-28.082-2.8008-40.648-4.7578 9.8555-13.887 15.309-30.648 15.309-47.902 0-7.7852-1.1289-15.574-3.3008-23.055zm51.52 77.176c-7.8125-8.5781-12.094-19.605-12.094-31.285 0-7.1836 1.6992-14.379 4.9141-20.809l10.059-20.121c10.168 0.47656 20.285 0.71484 30.191 0.71484s20.023-0.23828 30.188-0.71484l10.059 20.121c3.2148 6.4258 4.9141 13.621 4.9141 20.809 0 11.684-4.2773 22.707-12.094 31.285-10.645 0.49219-21.684 0.75781-33.066 0.75781s-22.422-0.26562-33.07-0.75781zm89.477-60.176-6.6289-13.262c11.77-0.91406 23.457-2.1602 34.812-3.7422-2.1719 7.4844-3.2969 15.273-3.2969 23.059 0 17.25 5.4531 34.016 15.305 47.898-12.566 1.957-26.16 3.5742-40.648 4.7578 4.75-9.1016 7.2773-19.266 7.2773-29.824 0-9.9727-2.3594-19.961-6.8203-28.887zm60.527 50.316c-11.211-11.918-17.578-27.801-17.578-44.262 0-9.043 1.9531-18.082 5.6406-26.344 10.266-1.8906 20.086-4.0898 29.25-6.6016l3.5 3.5c10.191 10.191 15.805 23.738 15.805 38.152 0 10.105-2.8047 19.91-8.125 28.465-8.4648 2.5625-18 4.9492-28.492 7.0898zm-304.34-72.102 5.1797-25.887c7.5156 5.5469 17.305 10.43 28.754 14.664-11.723 13.188-18.141 29.984-18.141 47.773 0 6.7188 0.9375 13.336 2.75 19.699-9.6719-4.5742-16.246-9.3828-19.242-14.129-1.0273-6.2695-1.5703-12.676-1.5703-19.188 0-7.6836 0.76172-15.398 2.2695-22.934zm187.41 100.78c65.547 0 139.81-9.3984 179.36-29.602-10.824 24.008-29.684 44.02-54.316 56.34-35.926 17.961-76.145 27.457-116.31 27.457h-17.461c-40.164 0-80.383-9.4922-116.31-27.457-24.637-12.316-43.496-32.332-54.316-56.34 39.543 20.203 113.81 29.602 179.36 29.602zm171.61-180.64c0 1.4062-1.5664 4.1797-6.4219 7.6406-11.5-5.6641-27.117-10.645-46.016-14.684l14.07-14.07c31.301 8.8945 38.367 18.164 38.367 21.113zm-18.828-73.02c-27.035-4.2227-48.445-25.633-52.668-52.668 27.035 4.2227 48.445 25.633 52.668 52.668zm-278.33 49.848c28.176-7.043 64.281-11.422 103.4-12.621l-18.887 18.887c-53.27 3.0547-98.812 12.086-124.17 24.539-4.8516-3.457-6.4141-6.2266-6.4141-7.6328 0-3.2422 8.2773-13.723 46.066-23.172zm-62.035 196.94c13.188 21.344 32.023 38.555 54.461 49.773 38.422 19.211 81.438 29.363 124.39 29.363h17.461c42.953 0 85.965-10.152 124.39-29.363 22.441-11.219 41.273-28.43 54.461-49.773 2.1289-3.4453 4.082-6.9844 5.8828-10.586l40.434 25.273c-3.6016 3.5508-6.2148 8.0977-7.3906 13.188l-226.5 104.54-226.51-104.54c-1.1758-5.0938-3.7891-9.6367-7.3906-13.188l40.434-25.273c1.8047 3.6016 3.7539 7.1406 5.8828 10.586zm-65.32 24.945c4.9805 0 9.0312 4.0508 9.0312 9.0312 0 4.9805-4.0508 9.0312-9.0312 9.0312-4.9805 0-9.0312-4.0508-9.0312-9.0312 0-4.9805 4.0508-9.0312 9.0312-9.0312zm9.0312 72.258h-18.062v-27.098c0-4.9805 4.0508-9.0312 9.0312-9.0312 4.9805 0 9.0312 4.0508 9.0312 9.0312l0.011719 27.098h-0.011719zm252.9 126.45h-18.066v-27.098c0-4.9805 4.0508-9.0312 9.0312-9.0312 4.9805 0 9.0312 4.0508 9.0312 9.0312l0.011718 27.098h-0.007812zm252.9-126.45h-18.066v-27.098c0-4.9805 4.0508-9.0312 9.0312-9.0312 4.9805 0 9.0312 4.0508 9.0312 9.0312z"/>
      </g>
    </g>
  </g>
</svg>