<?xml version="1.0" encoding="UTF-8"?>
<svg version="1.1" viewBox="0 0 700 700" xmlns="http://www.w3.org/2000/svg" xmlns:xlink="http://www.w3.org/1999/xlink">

 <g>
  <path d="m168.18 12.164c3.5117-6.1328 11.355-8.25 17.488-4.7227 6.1328 3.5273 8.25 11.355 4.7227 17.488l-70.141 121.48c-3.5273 6.1328-11.355 8.25-17.488 4.7227-6.1328-3.5273-8.25-11.355-4.7227-17.488zm411.55 401.36c3.543-6.1328 11.406-8.2148 17.523-4.6719 6.1328 3.543 8.2148 11.391 4.6719 17.523l-23.824 41.262c-3.543 6.1328-11.406 8.2148-17.539 4.6719-6.1328-3.543-8.2148-11.406-4.6719-17.539l23.824-41.262zm-60.043 104.04c3.5273-6.1328 11.355-8.25 17.488-4.7227 6.1328 3.5117 8.25 11.34 4.7227 17.473l-10.113 17.504c-3.5117 6.1328-11.355 8.25-17.488 4.7227-6.1328-3.5117-8.25-11.34-4.7227-17.473l10.098-17.504zm-77.145-104.04c3.543-6.1328 11.391-8.2148 17.523-4.6719 6.1328 3.543 8.2148 11.391 4.6719 17.523l-23.824 41.262c-3.543 6.1328-11.406 8.2148-17.523 4.6719-6.1328-3.543-8.2148-11.406-4.6719-17.539l23.84-41.262zm-60.043 103.99c3.543-6.1328 11.391-8.2148 17.523-4.6719 6.1328 3.543 8.2148 11.391 4.6719 17.523l-10.113 17.504c-3.543 6.1328-11.391 8.2148-17.523 4.6719-6.1328-3.543-8.2148-11.391-4.6719-17.523zm-77.145-103.94c3.5117-6.1328 11.34-8.25 17.473-4.7227 6.1328 3.5273 8.25 11.355 4.7227 17.488l-23.824 41.262c-3.5117 6.1328-11.355 8.25-17.473 4.7227-6.1328-3.5273-8.25-11.355-4.7227-17.488zm-60.043 103.94c3.543-6.1328 11.391-8.2148 17.523-4.6719 6.1328 3.543 8.2148 11.391 4.6719 17.523l-10.113 17.504c-3.543 6.1328-11.391 8.2148-17.523 4.6719-6.1328-3.543-8.2148-11.391-4.6719-17.523zm-77.145-103.99c3.543-6.1328 11.391-8.2148 17.523-4.6719 6.1328 3.543 8.2148 11.391 4.6719 17.523l-23.824 41.262c-3.543 6.1328-11.391 8.2148-17.523 4.6719-6.1328-3.543-8.2148-11.406-4.6719-17.539l23.824-41.262zm-60.043 104.04c3.5117-6.1328 11.355-8.25 17.488-4.7227 6.1328 3.5117 8.25 11.34 4.7227 17.473l-10.098 17.504c-3.5273 6.1328-11.355 8.25-17.488 4.7227-6.1328-3.5117-8.25-11.34-4.7227-17.473l10.113-17.504zm471.58-304.69c3.5273-6.1328 11.355-8.25 17.488-4.7227 6.1328 3.5117 8.25 11.355 4.7227 17.473l-70.141 121.48c-3.5117 6.1328-11.355 8.25-17.488 4.7227-6.1328-3.5117-8.25-11.355-4.7227-17.473zm-137.17-0.050781c3.543-6.1328 11.391-8.2148 17.523-4.6719 6.1328 3.543 8.2148 11.391 4.6719 17.523l-70.141 121.48c-3.543 6.1328-11.391 8.2148-17.523 4.6719-6.1328-3.543-8.2148-11.391-4.6719-17.523zm-137.19 0.050781c3.5117-6.1328 11.34-8.25 17.473-4.7227 6.1328 3.5117 8.25 11.355 4.7227 17.473l-70.141 121.48c-3.5117 6.1328-11.34 8.25-17.473 4.7227-6.1328-3.5117-8.25-11.355-4.7227-17.473zm-137.19 0c3.5117-6.1328 11.355-8.25 17.488-4.7227 6.1328 3.5117 8.25 11.355 4.7227 17.473l-70.141 121.48c-3.5273 6.1328-11.355 8.25-17.488 4.7227-6.1328-3.5117-8.25-11.355-4.7227-17.473zm411.55-200.71c3.5273-6.1328 11.355-8.25 17.488-4.7227 6.1328 3.5273 8.25 11.355 4.7227 17.488l-70.141 121.48c-3.5117 6.1328-11.355 8.25-17.488 4.7227-6.1328-3.5273-8.25-11.355-4.7227-17.488zm-137.17-0.050781c3.543-6.1328 11.391-8.2148 17.523-4.6719 6.1328 3.543 8.2148 11.406 4.6719 17.539l-70.141 121.48c-3.543 6.1328-11.391 8.2148-17.523 4.6719-6.1328-3.543-8.2148-11.406-4.6719-17.539zm-137.19 0.050781c3.5117-6.1328 11.34-8.25 17.473-4.7227 6.1328 3.5273 8.25 11.355 4.7227 17.488l-70.141 121.48c-3.5117 6.1328-11.34 8.25-17.473 4.7227-6.1328-3.5273-8.25-11.355-4.7227-17.488z"/>

 </g>
</svg>
