<?xml version="1.0" encoding="utf-8"?>
<svg viewBox="128.375 65.539 490.989 548.276" xmlns="http://www.w3.org/2000/svg">
  <g transform="matrix(1, 0, 0, 1, 23.869347, 59.670273)">
    <path d="m579.18 388.14c5.3711 22.734-29.117 30.758-34.426 8.2148-9.9336-41.391-22.098-76.727-35.691-106.13-38.91 50.328-26.781 113.2-26.781 113.33 1.668 8.5703-3.1367 16.973-11.012 20.047l-53.074 27.801 22.695 48.629c9.8477 21.184-22.305 36.066-32.094 15.035l-45.082-96.543c-45.309-8.6914-80.574-37.199-101.12-72.816l-130.29-43.918c-16.289-5.4102-16.059-28.93 0.65625-33.832l109.62-32.223c-20.617-14.988-33.023-39.023-33.023-64.805 0-39.25 28.746-72.891 67.32-79.039 10.125-33.734 41.207-57.105 76.664-57.105 25.711 0 49.078 12.172 64.344 32.516 28.363-7.1836 56.961-0.46875 78.016 20.57 6.8477 6.8672 23.453 33.879 23.453 56.598 0 21.555-8.7031 41.867-23.598 56.684 3.7109 4.5117 7.3672 9.3008 11.008 14.332 28.602 39.566 54.223 96.859 72.414 172.66zm-87.789-131.59c-4.3672-7.2969-8.8164-14.102-13.359-20.371-34.617-47.906-68.074-66.289-122.1-51.824-135.82 36.199-74.746 200.25 31.121 200.25l16.172 34.691 42.57-22.289c-2.1641-27.328-1.1328-90.879 45.598-140.45zm-245.58 46.109c-2.1875-9.8945-3.3086-19.934-3.3086-29.918l-45.633 13.422 48.938 16.496zm43.164 113.95c6.0195-22.574 40.359-13.434 34.34 9.1406-16.094 60.469-88.504 81.422-112.36 21.602-11.648-29.062-3.6836-65.547 17.262-88.457 15.73-17.164 41.816 6.7578 26.133 23.898-11.754 12.91-16.934 35.168-10.445 51.398 12.73 31.727 39.75 2.2969 45.062-17.582zm-26.875-210.52c16.582-24.91 44.195-45.27 84.688-56.074 50.312-13.445 89.75-4.2344 124.42 25.664 8.0352-8.2539 12.605-19.352 12.605-31.219 0-16.145-9.5195-25.379-13.023-31.496-22.996-22.996-45.633-11.418-68.812 0.75391-10.551-23.328-19.777-43.395-48.43-43.395-35.969 0-43.203 28.234-46.008 56.512-30.93-0.80078-62.426 6.6133-62.426 44.09 0 13.75 6.3086 26.77 16.984 35.168zm89.457 18.453c16.676 0 30.18 17.641 30.18 39.422 0 21.773-13.508 39.434-30.18 39.434-16.668 0-30.176-17.66-30.176-39.434 0-21.781 13.508-39.422 30.176-39.422z"/>
  </g>
</svg>