<?xml version="1.0" encoding="utf-8"?>
<svg viewBox="204.784 -7.776 456.615 556.481" xmlns="http://www.w3.org/2000/svg">
  <defs>
    <symbol id="w" overflow="visible">
      <path d="m0.03125 0h-0.015625-0.015625v-0.015625-0.015625h0.015625 0.015625-0.015625v0.015625 0.015625h0.015625v-0.015625z"/>
    </symbol>
    <symbol id="e" overflow="visible">
      <path d="m0.015625-0.015625v0.015625h-0.015625v-0.03125h0.015625v0.015625-0.015625z"/>
    </symbol>
    <symbol id="b" overflow="visible">
      <path d="m0.03125-0.015625h-0.015625v0.015625c0.0078125 0 0.015625-0.0039062 0.015625-0.015625v0.015625h-0.015625-0.015625v-0.015625l0.015625-0.015625v0.015625h0.015625z"/>
    </symbol>
    <symbol id="a" overflow="visible">
      <path d="m0.015625-0.015625v0.015625-0.015625zm0.015625 0v0.015625h-0.015625-0.015625v-0.015625h0.015625-0.015625v-0.015625h0.015625v0.015625h0.015625z"/>
    </symbol>
    <symbol id="d" overflow="visible">
      <path d="m0.015625-0.03125v0.015625 0.015625h-0.015625v-0.015625-0.015625z"/>
    </symbol>
    <symbol id="l" overflow="visible">
      <path d="m0.015625-0.015625v-0.015625h0.015625v0.03125h-0.015625-0.015625v-0.015625l0.015625-0.015625v0.015625zm0 0.015625v-0.015625 0.015625z"/>
    </symbol>
    <symbol id="k" overflow="visible">
      <path d="m0.015625 0v-0.015625 0.015625zm0-0.015625v-0.015625c0.0078125 0 0.015625 0.0078125 0.015625 0.015625v0.015625h-0.015625-0.015625v-0.03125h0.015625z"/>
    </symbol>
    <symbol id="j" overflow="visible">
      <path d="m0-0.03125h0.015625v0.015625-0.015625h0.015625l-0.015625 0.03125v0.015625h-0.015625v-0.015625h0.015625z"/>
    </symbol>
    <symbol id="i" overflow="visible">
      <path d="m0.015625-0.03125v0.015625 0.015625h0.015625v-0.015625c0-0.0078125-0.0078125-0.015625-0.015625-0.015625zm0 0h0.015625v0.015625 0.015625h-0.015625-0.015625v-0.015625-0.015625h0.015625z"/>
    </symbol>
    <symbol id="v" overflow="visible">
      <path d="m0-0.03125h0.015625v0.03125h-0.015625z"/>
    </symbol>
    <symbol id="f" overflow="visible">
      <path d="m0.03125-0.015625v0.015625h-0.015625v-0.015625 0.015625h-0.015625v-0.03125h0.015625v0.015625-0.015625c0.0078125 0 0.015625 0.0078125 0.015625 0.015625z"/>
    </symbol>
    <symbol id="h" overflow="visible">
      <path d="m0-0.03125h0.015625 0.015625v0.015625h-0.015625v0.015625h-0.015625zm0.015625 0v0.015625-0.015625z"/>
    </symbol>
    <symbol id="g" overflow="visible">
      <path d="m0.03125-0.03125v0.015625h-0.015625c0.0078125 0 0.015625 0.0078125 0.015625 0.015625h-0.015625-0.015625 0.015625v-0.015625h-0.015625l0.015625-0.015625h0.015625z"/>
    </symbol>
    <symbol id="c" overflow="visible">
      <path d="m0.015625-0.015625v0.015625-0.015625zm0-0.015625v0.015625h0.015625c0 0.011719-0.0078125 0.015625-0.015625 0.015625h-0.015625v-0.015625l0.015625-0.015625z"/>
    </symbol>
    <symbol id="u" overflow="visible">
      <path d="m0-0.03125h0.015625v0.015625-0.015625h0.015625l-0.015625 0.03125z"/>
    </symbol>
    <symbol id="t" overflow="visible">
      <path d="m0-0.03125h0.015625v0.015625-0.015625h0.015625l-0.015625 0.015625 0.015625 0.015625h-0.015625v-0.015625 0.015625h-0.015625z"/>
    </symbol>
    <symbol id="s" overflow="visible">
      <path d="m0.015625-0.03125v0.03125h-0.015625v-0.03125h0.015625z"/>
    </symbol>
    <symbol id="r" overflow="visible">
      <path d="m0.03125-0.015625v-0.015625c0.0078125 0 0.015625 0.0078125 0.015625 0.015625v0.015625h-0.015625v-0.015625 0.015625h-0.015625v-0.015625 0.015625h-0.015625v-0.03125h0.015625v0.015625-0.015625 0.015625h0.015625z"/>
    </symbol>
    <symbol id="q" overflow="visible">
      <path d="m0.03125-0.015625v0.015625h-0.015625v-0.015625 0.015625h-0.015625v-0.03125h0.015625v0.015625-0.015625c0.0078125 0 0.015625 0.0078125 0.015625 0.015625z"/>
    </symbol>
    <symbol id="p" overflow="visible">
      <path d="m0-0.03125h0.015625l0.015625 0.015625v-0.015625 0.03125l-0.015625-0.015625v0.015625h-0.015625z"/>
    </symbol>
    <symbol id="o" overflow="visible">
      <path d="m0-0.015625v-0.015625h0.015625v0.015625 0.015625-0.015625-0.015625h0.015625v0.03125h-0.015625-0.015625v-0.015625z"/>
    </symbol>
    <symbol id="n" overflow="visible">
      <path d="m0-0.03125h0.015625v0.03125h-0.015625v0.015625zm0 0h0.015625z"/>
    </symbol>
    <symbol id="m" overflow="visible">
      <path d="m0.03125-0.03125v0.015625h-0.015625v0.015625h0.015625-0.015625-0.015625v-0.015625l0.015625-0.015625h0.015625z"/>
    </symbol>
  </defs>
  <g transform="matrix(1, 0, 0, 1, 83.437492, -9.181264)">
    <path d="m166.03 139.8c0.007812-25.625 13.504-49.527 36.984-68.738 33.098-27.082 86.43-44.949 146.64-44.949 60.211 0 113.54 17.867 146.64 44.949 23.477 19.211 36.977 43.113 36.984 68.738v0.019531c0 4.168-0.35547 8.293-1.0586 12.359l-25.164 285.18c-0.17969 17.418-11.578 37.016-31.879 53.828-28.328 23.453-73.992 41.992-125.52 41.992-51.527 0-97.195-18.539-125.52-41.992-20.305-16.809-31.703-36.41-31.879-53.828l-25.164-285.18c-0.69922-4.0664-1.0547-8.1914-1.0547-12.359v-0.019531zm349.56-0.35547c-0.13672-20.523-11.676-39.297-30.496-54.699-30.535-24.988-79.895-40.953-135.44-40.953s-104.91 15.965-135.44 40.953c-18.82 15.402-30.359 34.176-30.496 54.699l0.92188 10.438c3.0859 16.742 13.758 32.07 29.578 45.016 30.535 24.984 79.895 40.953 135.44 40.953 55.551 0 104.91-15.965 135.44-40.953 15.82-12.945 26.488-28.27 29.578-45.016l0.92188-10.438zm-26.18 296.73 15.84-179.54c-10.027 7.8594-22.105 14.629-35.789 20.23-4.3711 1.793-8.9141 3.4648-13.609 5.0195l-11.059 208.89c7.0547-4.0938 13.457-8.5391 19.102-13.211 15.598-12.914 25.477-27.27 25.477-40.621 0-0.25781 0.011718-0.51953 0.035156-0.77734zm18.215-206.45 3.082-34.926c-4.2617 4.8125-9.082 9.4219-14.414 13.785-10.652 8.7148-23.395 16.477-37.785 22.992 0 0.15625-0.003906 0.31641-0.011718 0.47656l-1.6289 30.754c2-0.74219 3.9648-1.5078 5.8984-2.2969 19.074-7.8086 34.711-17.973 44.863-30.785zm-297.7 207.24c0.007813 13.348 9.8867 27.699 25.477 40.605 5.3555 4.4336 11.391 8.6562 18.02 12.574l-11.055-208.82c-18.859-6.3906-35.336-14.668-48.32-24.766l15.848 179.62c0.023438 0.25781 0.035157 0.51953 0.035157 0.77734v0.015625zm61.695 62.469c14.137 6.1836 30.047 10.965 47.109 13.648l-2.875-217.25c-19.527-1.6367-38.258-4.707-55.5-9.1641zm64.82 15.629c4.3516 0.28906 8.7539 0.44141 13.207 0.44141 4.1797 0 8.3203-0.13281 12.406-0.38672l2.8867-218.16c-5.0664 0.18359-26.062 0.17188-31.391-0.035156l2.8867 218.14zm43.324-1.8555c16.949-2.5938 32.777-7.2617 46.875-13.324 0.074219-0.03125 11.223-212.77 11.223-212.77-17.16 4.3203-35.801 7.2656-55.223 8.8203zm-191.18-318.41 3.0898 34.996c0.17969 0.18359 0.35156 0.37891 0.51562 0.58203 11.113 13.656 28.227 24.375 49.176 32.266l-1.668-31.562c-13.949-6.4141-26.316-14-36.695-22.496-5.332-4.3633-10.152-8.9727-14.418-13.785zm251.83 44c-26.707 9.3477-57.707 14.738-90.777 14.738-33.516 0-64.898-5.5352-91.848-15.117l1.5938 30.07c26.785 7.4375 58.023 11.059 90.258 11.059 31.805 0 62.594-3.6328 89.199-10.965l1.5781-29.785z" fill-rule="evenodd"/>
  </g>
</svg>