<?xml version="1.0" encoding="UTF-8"?>
<svg version="1.1" viewBox="0 0 700 700" xmlns="http://www.w3.org/2000/svg" xmlns:xlink="http://www.w3.org/1999/xlink">

 <g>
  <path d="m533.69 560h-367.5c-7.3633-0.03125-14.418-2.9727-19.621-8.1875-5.2031-5.2148-8.1289-12.273-8.1445-19.637v-504.35c0.015625-7.375 2.9492-14.441 8.1641-19.656 5.2188-5.2148 12.285-8.1523 19.66-8.168h367.5c7.3867 0 14.469 2.9297 19.695 8.1445 5.2266 5.2188 8.1719 12.297 8.1875 19.68v504.35c-0.015624 7.3945-2.9688 14.48-8.207 19.699-5.2422 5.2188-12.34 8.1406-19.734 8.125zm-367.44-548.33c-4.2852 0-8.3945 1.6992-11.426 4.7305s-4.7344 7.1406-4.7344 11.426v504.35c0 4.2852 1.7031 8.3945 4.7344 11.426s7.1406 4.7305 11.426 4.7305h367.5c4.2891 0 8.4062-1.6992 11.445-4.7266 3.0391-3.0312 4.7578-7.1406 4.7695-11.43v-504.35c-0.011719-4.3008-1.7383-8.418-4.7891-11.449s-7.1836-4.7227-11.484-4.707z"/>
  <path d="m488.43 348.54c-6.1875 0-12.125-2.4609-16.5-6.8359s-6.8359-10.309-6.8359-16.5v-173.25h11.668v173.37c0 3.0938 1.2305 6.0625 3.418 8.25s5.1562 3.418 8.25 3.418c3.0898-0.011719 6.0469-1.25 8.2227-3.4414 2.2305-2.1523 3.4766-5.1289 3.4414-8.2266v-173.37h11.668v173.37c-0.011718 6.1406-2.4414 12.031-6.7656 16.391-4.3945 4.3906-10.355 6.8477-16.566 6.8281z"/>
  <path d="m511.76 112.12h-11.668v-37.801c0-3.0938-1.2266-6.0625-3.4141-8.25s-5.1562-3.418-8.25-3.418c-3.1094 0-6.0938 1.2383-8.2852 3.4414-2.168 2.1875-3.3828 5.1445-3.3828 8.2266v37.801h-11.668v-37.801c0-6.1875 2.4609-12.125 6.8359-16.5s10.312-6.832 16.5-6.832 12.121 2.457 16.5 6.832c4.375 4.375 6.832 10.312 6.832 16.5z"/>
  <path d="m453.43 371.46c-6.1875 0-12.125-2.457-16.5-6.832s-6.8359-10.312-6.8359-16.5v-196.18h11.668v196.29c0 3.0938 1.2305 6.0625 3.418 8.25s5.1562 3.418 8.25 3.418c3.043 0.042969 5.9727-1.1562 8.1094-3.3281 2.2617-2.1836 3.543-5.1914 3.5547-8.3398v-196.29h11.668v196.29c0 6.1875-2.457 12.125-6.832 16.5-4.3789 4.375-10.312 6.832-16.5 6.832z"/>
  <path d="m476.76 112.12h-11.668v-37.801c0-3.0938-1.2266-6.0625-3.4141-8.25s-5.1562-3.418-8.25-3.418c-3.0703-0.03125-6.0195 1.1914-8.168 3.3867-2.1562 2.1719-3.3711 5.1055-3.3828 8.1641v37.801h-11.785v-37.684c0.027344-6.125 2.4336-12.004 6.7109-16.391 4.3594-4.4258 10.301-6.9297 16.512-6.9609s12.18 2.418 16.578 6.8008c4.4023 4.3828 6.8711 10.34 6.8672 16.551z"/>
  <path d="m418.71 391.71c-6.1875 0-12.121-2.457-16.496-6.832-4.3789-4.375-6.8359-10.312-6.8359-16.5v-216.42h11.668v216.48c0 3.0938 1.2266 6.0625 3.418 8.25 2.1875 2.1875 5.1523 3.418 8.2461 3.418 3.0703 0.03125 6.0195-1.1914 8.168-3.3867 2.1211-2.2266 3.2734-5.207 3.207-8.2812v-216.48h11.668v216.48c0.097657 6.168-2.25 12.125-6.5312 16.566-4.3984 4.332-10.336 6.7461-16.512 6.707z"/>
  <path d="m441.76 112.12h-11.668v-37.801c0-3.0938-1.2266-6.0625-3.4141-8.25s-5.1562-3.418-8.25-3.418c-3.0703-0.03125-6.0195 1.1914-8.168 3.3867-2.1562 2.1719-3.3711 5.1055-3.3828 8.1641v37.801h-11.668v-37.684c0.011719-6.1406 2.4414-12.031 6.7695-16.391 4.3672-4.3438 10.281-6.7852 16.441-6.7852 6.1641-0.003906 12.078 2.4336 16.449 6.7773 4.3711 4.3398 6.8516 10.238 6.8906 16.398z"/>
  <path d="m383.89 413c-6.1875 0-12.121-2.457-16.5-6.8359-4.375-4.375-6.832-10.309-6.832-16.496v-237.71h11.668v237.83c0 6.4414 5.2227 11.664 11.664 11.664 6.4453 0 11.668-5.2227 11.668-11.664v-237.83h11.668v237.83c-0.011718 6.168-2.4648 12.082-6.8281 16.449-4.3867 4.3516-10.324 6.7852-16.508 6.7656z"/>
  <path d="m407.17 112.12h-11.668v-37.801c0-3.0938-1.2305-6.0625-3.418-8.25s-5.1562-3.418-8.25-3.418c-3.0664-0.03125-6.0195 1.1914-8.1641 3.3867-2.1562 2.1719-3.3711 5.1055-3.3828 8.1641v37.801h-11.668v-37.684c0.011718-6.1406 2.4414-12.031 6.7656-16.391 4.375-4.3203 10.277-6.7383 16.422-6.7305 6.1484 0.007813 12.043 2.4414 16.406 6.7695 4.3633 4.3281 6.8398 10.207 6.8984 16.352z"/>
  <path d="m349.07 429.98c-6.1875 0-12.125-2.4609-16.5-6.8359s-6.832-10.312-6.832-16.5v-254.68h11.668l-0.003906 254.74c0 6.4453 5.2266 11.668 11.668 11.668 6.4453 0 11.668-5.2227 11.668-11.668v-254.74h11.668l-0.003906 254.74c0 6.1875-2.457 12.125-6.832 16.5s-10.312 6.8359-16.5 6.8359z"/>
  <path d="m372.34 112.12h-11.668l0.003906-37.801c0-3.0938-1.2305-6.0625-3.418-8.25s-5.1562-3.418-8.25-3.418c-3.0586 0.015624-5.9922 1.2305-8.168 3.3867-2.1523 2.1719-3.3672 5.1055-3.3828 8.1641v37.801h-11.668l0.003907-37.684c0.007812-6.1406 2.4414-12.031 6.7656-16.391 4.375-4.3203 10.273-6.7383 16.422-6.7305 6.1445 0.007813 12.043 2.4414 16.406 6.7695s6.8398 10.207 6.8984 16.352z"/>
  <path d="m314.3 413c-6.1875 0-12.125-2.457-16.5-6.8359-4.375-4.375-6.8359-10.309-6.8359-16.496v-237.71h11.668v237.83c0 3.0938 1.2305 6.0586 3.418 8.2461 2.1875 2.1914 5.1562 3.418 8.25 3.418s6.0625-1.2266 8.25-3.418c2.1875-2.1875 3.4141-5.1523 3.4141-8.2461v-237.83h11.668v237.83c0 6.1875-2.457 12.121-6.832 16.496-4.3789 4.3789-10.312 6.8359-16.5 6.8359z"/>
  <path d="m337.52 112.12h-11.668l0.003906-37.801c0-3.0938-1.2305-6.0625-3.418-8.25s-5.1562-3.418-8.25-3.418c-3.1289-0.015626-6.1367 1.2227-8.3438 3.4414-2.1172 2.168-3.3125 5.0781-3.3242 8.1094v37.801h-11.668l0.003906-37.684c0-8.3359 4.4453-16.039 11.664-20.207s16.113-4.168 23.336 0c7.2188 4.168 11.664 11.871 11.664 20.207z"/>
  <path d="m279.42 391.71c-6.1914 0-12.125-2.457-16.5-6.832s-6.8359-10.312-6.8359-16.5v-216.42h11.668v216.48c0 3.0938 1.2305 6.0625 3.418 8.25s5.1562 3.418 8.25 3.418c3.0586-0.015624 5.9922-1.2305 8.1641-3.3867 2.1719-2.1875 3.3867-5.1406 3.3828-8.2227v-216.54h11.668v216.48c0 6.1875-2.457 12.125-6.832 16.5-4.3789 4.375-10.312 6.832-16.5 6.832z"/>
  <path d="m302.63 112.12h-11.668v-37.801c0-3.0938-1.2266-6.0625-3.4141-8.25s-5.1562-3.418-8.25-3.418c-3.1094 0-6.0938 1.2383-8.2852 3.4414-2.1172 2.168-3.3125 5.0781-3.3242 8.1094v37.801h-11.668v-37.684c0-8.3359 4.4492-16.039 11.668-20.207s16.113-4.168 23.332 0c7.2227 4.168 11.668 11.871 11.668 20.207z"/>
  <path d="m244.59 371.46c-6.1875 0-12.121-2.457-16.496-6.832-4.3789-4.375-6.8359-10.312-6.8359-16.5v-196.18h11.668v196.29c0 3.0938 1.2266 6.0625 3.418 8.25 2.1875 2.1875 5.1523 3.418 8.2461 3.418 3.0469 0.042969 5.9766-1.1562 8.1094-3.3281 2.2266-2.1523 3.4688-5.125 3.4414-8.2227v-196.41h11.668v196.29c0 6.1875-2.457 12.125-6.8359 16.5-4.375 4.375-10.309 6.832-16.496 6.832z"/>
  <path d="m267.81 112.12h-11.668v-37.801c0-3.0938-1.2266-6.0625-3.418-8.25-2.1875-2.1875-5.1523-3.418-8.2461-3.418-3.0898 0.015624-6.0469 1.2539-8.2266 3.4414-2.1406 2.1602-3.3555 5.0703-3.3828 8.1094v37.801h-11.668v-37.684c0-8.3359 4.4492-16.039 11.668-20.207s16.113-4.168 23.332 0 11.668 11.871 11.668 20.207z"/>
  <path d="m209.77 348.54c-6.1875 0-12.121-2.4609-16.5-6.8359-4.375-4.375-6.832-10.309-6.832-16.5v-173.25h11.668v173.37c0 3.0938 1.2266 6.0625 3.4141 8.25s5.1562 3.418 8.25 3.418c3.0898-0.011719 6.0469-1.25 8.2266-3.4414 2.1562-2.1445 3.3555-5.0664 3.3242-8.1094v-173.48h11.668v173.37c-0.011719 6.1406-2.4414 12.031-6.7695 16.391-4.3633 4.3633-10.277 6.8164-16.449 6.8281z"/>
  <path d="m232.98 112.12h-11.668v-37.801c0-3.0938-1.2305-6.0625-3.418-8.25s-5.1523-3.418-8.25-3.418c-6.4414 0-11.664 5.2266-11.664 11.668v37.801h-11.668v-37.801c0-8.3359 4.4492-16.039 11.668-20.207s16.113-4.168 23.332 0 11.668 11.871 11.668 20.207z"/>
  <path d="m520.16 157.85h-342.18c-5.293-0.035156-9.5664-4.332-9.5664-9.625v-32.316c0-5.293 4.2734-9.5938 9.5664-9.625h342.18c5.3125 0 9.625 4.3086 9.625 9.625v32.316c0 2.5508-1.0156 5-2.8203 6.8047-1.8047 1.8047-4.2539 2.8203-6.8047 2.8203zm-340.08-11.668h338.33v-28.234h-338.34z"/>
  <path d="m349.07 502.6c-28.562-0.046874-55.055-14.926-69.949-39.297-14.898-24.367-16.066-54.73-3.082-80.172l10.383 5.3086c-11.172 21.828-10.18 47.895 2.6133 68.809 12.793 20.918 35.547 33.672 60.066 33.672 24.516 0 47.27-12.754 60.062-33.672 12.793-20.914 13.785-46.98 2.6133-68.809l10.383-5.3086h0.003906c12.984 25.453 11.812 55.824-3.0977 80.199-14.914 24.371-41.422 39.246-69.996 39.27z"/>

 </g>
</svg>
