<?xml version="1.0" encoding="UTF-8"?>
<svg version="1.1" viewBox="0 0 700 700" xmlns="http://www.w3.org/2000/svg" xmlns:xlink="http://www.w3.org/1999/xlink">

 <g>
  <path d="m563.28 535.94h-459.38c-2.418 0-4.375-1.957-4.375-4.375v-448.44c0-1.4258 0.69531-2.7656 1.8633-3.582 1.168-0.82031 2.6641-1.0156 4.0039-0.52734l85.941 31.25c9.7266 3.5352 17.285 11.16 20.746 20.914 3.4609 9.7539 2.3906 20.438-2.9336 29.312-6.8203 11.367-3.9688 25.938 6.6406 33.895l14.941 11.203c5.2812 3.9609 9.2969 9.3203 11.617 15.5l25.043 66.781c2.5391 6.7734 7.8516 12.199 14.566 14.887l28.004 11.203c10.266 4.1055 17.996 12.961 20.68 23.691l1.4844 5.9453c2.875 11.496 13.16 19.527 25.012 19.527h0.98047c19.043 0 34.535 15.492 34.535 34.535v5.3047c0 14.219 11.566 25.785 25.785 25.785h43.797c9.8555 0 19.262 4.2227 25.812 11.59l78.5 88.316c1.1445 1.2891 1.4258 3.1289 0.72266 4.6992-0.70703 1.5703-2.2695 2.582-3.9922 2.582zm-455-8.75h445.26l-72.027-81.035c-4.8906-5.5-11.914-8.6523-19.273-8.6523h-43.797c-19.043 0-34.535-15.492-34.535-34.535v-5.3047c0-14.219-11.566-25.785-25.785-25.785h-0.98047c-15.875 0-29.652-10.758-33.504-26.16l-1.4883-5.9453c-2.0039-8.0078-7.7734-14.621-15.438-17.688l-28.004-11.203c-8.9961-3.5977-16.109-10.867-19.512-19.938l-25.043-66.781c-1.7305-4.6133-4.7305-8.6172-8.6719-11.574l-14.941-11.203c-14.207-10.652-18.027-30.172-8.8906-45.398 3.9766-6.625 4.7734-14.602 2.1914-21.887-2.582-7.2812-8.2266-12.973-15.488-15.613l-80.07-29.113z"/>
  <path d="m399.22 357.19c-0.55859 0-1.1172-0.10547-1.6523-0.32422-1.6445-0.67188-2.7188-2.2734-2.7188-4.0508l-0.003906-56.188c0-1.7695 1.0664-3.3633 2.7031-4.043 1.6328-0.67969 3.5156-0.30469 4.7656 0.94922l27.82 27.82c1.6992 1.6953 1.7109 4.4453 0.03125 6.1562l-27.82 28.371c-0.83984 0.85156-1.9727 1.3086-3.125 1.3086zm4.375-50v34.914l17.285-17.629z"/>
  <path d="m491.9 362.33c-25.387 0-49.625-12.469-68.246-35.109-1.3281-1.6172-1.3281-3.9453 0-5.5586 18.625-22.637 42.863-35.102 68.246-35.102 14.48 0 28.453 3.957 41.531 11.758 1.1133 0.66406 1.875 1.793 2.0781 3.0742s-0.17578 2.5859-1.0273 3.5664c-4.7227 5.3984-7.3242 12.316-7.3242 19.484 0 7.168 2.6016 14.09 7.3242 19.488 0.85547 0.97656 1.2344 2.2812 1.0273 3.5664-0.20312 1.2812-0.96484 2.4062-2.0781 3.0742-13.074 7.8008-27.051 11.758-41.531 11.758zm-59.121-37.887c16.57 18.82 37.445 29.137 59.121 29.137 11.324 0 22.324-2.7383 32.77-8.1445-4.0664-6.2109-6.2617-13.496-6.2617-20.996 0-7.4961 2.1953-14.781 6.2578-20.988-10.445-5.4023-21.445-8.1406-32.766-8.1406-21.676 0-42.547 10.312-59.121 29.133z"/>
  <path d="m531.2 351.19c-1.2266 0-2.4375-0.51562-3.293-1.4922-6.1211-6.9961-9.4922-15.961-9.4922-25.25 0-9.2852 3.3672-18.254 9.4883-25.246 1.3906-1.5898 3.7188-1.957 5.5352-0.87891 9.8008 5.8477 18.793 13.699 26.727 23.344 1.3281 1.6172 1.3281 3.9453 0 5.5586-7.9336 9.6445-16.922 17.5-26.723 23.348-0.69922 0.41406-1.4766 0.61719-2.2422 0.61719zm1.0234-43.293c-3.2852 4.8672-5.0625 10.625-5.0625 16.551 0 5.9297 1.7812 11.688 5.0664 16.555 6.7383-4.457 13.043-10.004 18.809-16.555-5.7656-6.5508-12.07-12.098-18.812-16.551z"/>
  <path d="m393.75 207.81c-5.4297 0-9.8438-4.418-9.8438-9.8438s4.4141-9.8438 9.8438-9.8438 9.8438 4.418 9.8438 9.8438-4.4141 9.8438-9.8438 9.8438zm0-10.938c-0.60547 0-1.0938 0.49219-1.0938 1.0938s0.48828 1.0938 1.0938 1.0938 1.0938-0.49219 1.0938-1.0938-0.48828-1.0938-1.0938-1.0938z"/>
  <path d="m568.75 448.44c-5.4297 0-9.8438-4.4141-9.8438-9.8438s4.4141-9.8438 9.8438-9.8438 9.8438 4.4141 9.8438 9.8438-4.4141 9.8438-9.8438 9.8438zm0-10.938c-0.60547 0-1.0938 0.48828-1.0938 1.0938s0.48828 1.0938 1.0938 1.0938 1.0938-0.48828 1.0938-1.0938-0.48828-1.0938-1.0938-1.0938z"/>
  <path d="m525 415.62c-5.4297 0-9.8438-4.4141-9.8438-9.8438s4.4141-9.8438 9.8438-9.8438 9.8438 4.4141 9.8438 9.8438-4.4141 9.8438-9.8438 9.8438zm0-10.938c-0.60547 0-1.0938 0.48828-1.0938 1.0938s0.48828 1.0938 1.0938 1.0938 1.0938-0.48828 1.0938-1.0938-0.48828-1.0938-1.0938-1.0938z"/>
  <path d="m585.16 251.56h-251.56c-2.418 0-4.375-1.957-4.375-4.375s1.957-4.375 4.375-4.375h251.56c2.418 0 4.375 1.957 4.375 4.375s-1.957 4.375-4.375 4.375z"/>
  <path d="m300.78 120.31c-26.535 0-48.125-21.59-48.125-48.125s21.59-48.125 48.125-48.125 48.125 21.59 48.125 48.125-21.59 48.125-48.125 48.125zm0-87.5c-21.711 0-39.375 17.664-39.375 39.375s17.664 39.375 39.375 39.375 39.375-17.664 39.375-39.375-17.664-39.375-39.375-39.375z"/>
  <path d="m574.22 164.06h-43.75c-12.984 0-23.797-9.4766-25.887-21.875h-28.801c-14.473 0-26.25-11.773-26.25-26.25s11.777-26.25 26.25-26.25h43.75c12.984 0 23.797 9.4766 25.887 21.875h28.801c14.473 0 26.25 11.773 26.25 26.25s-11.777 26.25-26.25 26.25zm-98.438-65.625c-9.6484 0-17.5 7.8516-17.5 17.5s7.8516 17.5 17.5 17.5h32.812c2.418 0 4.375 1.957 4.375 4.375 0 9.6484 7.8516 17.5 17.5 17.5h43.75c9.6484 0 17.5-7.8516 17.5-17.5s-7.8516-17.5-17.5-17.5h-32.812c-2.418 0-4.375-1.957-4.375-4.375 0-9.6484-7.8516-17.5-17.5-17.5z"/>
  <path d="m322.66 437.5h-218.75c-2.418 0-4.375-1.957-4.375-4.375s1.957-4.375 4.375-4.375h218.75c2.418 0 4.375 1.957 4.375 4.375s-1.957 4.375-4.375 4.375z"/>
  <path d="m191.41 262.5h-87.5c-2.418 0-4.375-1.957-4.375-4.375s1.957-4.375 4.375-4.375h87.5c2.418 0 4.375 1.957 4.375 4.375s-1.957 4.375-4.375 4.375z"/>
  <path d="m147.66 492.19c-1.1211 0-2.2383-0.42578-3.0938-1.2812-1.707-1.707-1.707-4.4805 0-6.1875l10.938-10.938c1.7109-1.7109 4.4805-1.7109 6.1875 0 1.707 1.707 1.707 4.4805 0 6.1875l-10.938 10.938c-0.85547 0.85547-1.9727 1.2812-3.0938 1.2812z"/>
  <path d="m191.41 492.19c-1.1211 0-2.2383-0.42578-3.0938-1.2812-1.707-1.707-1.707-4.4805 0-6.1875l10.938-10.938c1.7109-1.7109 4.4805-1.7109 6.1875 0 1.707 1.707 1.707 4.4805 0 6.1875l-10.938 10.938c-0.85547 0.85547-1.9727 1.2812-3.0938 1.2812z"/>
  <path d="m147.66 404.69c-1.1211 0-2.2383-0.42578-3.0938-1.2812-1.707-1.707-1.707-4.4805 0-6.1875l10.938-10.938c1.7109-1.7109 4.4805-1.7109 6.1875 0 1.707 1.707 1.707 4.4805 0 6.1875l-10.938 10.938c-0.85547 0.85547-1.9727 1.2812-3.0938 1.2812z"/>
  <path d="m191.41 404.69c-1.1211 0-2.2383-0.42578-3.0938-1.2812-1.707-1.707-1.707-4.4805 0-6.1875l10.938-10.938c1.7109-1.7109 4.4805-1.7109 6.1875 0 1.707 1.707 1.707 4.4805 0 6.1875l-10.938 10.938c-0.85547 0.85547-1.9727 1.2812-3.0938 1.2812z"/>
  <path d="m235.16 404.69c-1.1211 0-2.2383-0.42578-3.0938-1.2812-1.707-1.707-1.707-4.4805 0-6.1875l10.938-10.938c1.7109-1.7109 4.4805-1.7109 6.1875 0 1.707 1.707 1.707 4.4805 0 6.1875l-10.938 10.938c-0.85547 0.85547-1.9727 1.2812-3.0938 1.2812z"/>
  <path d="m278.91 404.69c-1.1211 0-2.2383-0.42578-3.0938-1.2812-1.707-1.707-1.707-4.4805 0-6.1875l10.938-10.938c1.7109-1.7109 4.4805-1.7109 6.1875 0 1.707 1.707 1.707 4.4805 0 6.1875l-10.938 10.938c-0.85547 0.85547-1.9727 1.2812-3.0938 1.2812z"/>
  <path d="m224.22 360.94c-1.1211 0-2.2383-0.42578-3.0938-1.2812-1.707-1.707-1.707-4.4805 0-6.1875l10.938-10.938c1.7109-1.7109 4.4805-1.7109 6.1875 0 1.707 1.707 1.707 4.4805 0 6.1875l-10.938 10.938c-0.85547 0.85547-1.9727 1.2812-3.0938 1.2812z"/>
  <path d="m147.66 317.19c-1.1211 0-2.2383-0.42578-3.0938-1.2812-1.707-1.707-1.707-4.4805 0-6.1875l10.938-10.938c1.7109-1.7109 4.4805-1.7109 6.1875 0 1.707 1.707 1.707 4.4805 0 6.1875l-10.938 10.938c-0.85547 0.85547-1.9727 1.2812-3.0938 1.2812z"/>
  <path d="m213.28 317.19c-1.1211 0-2.2383-0.42578-3.0938-1.2812-1.707-1.707-1.707-4.4805 0-6.1875l10.938-10.938c1.7109-1.7109 4.4805-1.7109 6.1875 0 1.707 1.707 1.707 4.4805 0 6.1875l-10.938 10.938c-0.85547 0.85547-1.9727 1.2812-3.0938 1.2812z"/>
  <path d="m158.59 360.94c-1.1211 0-2.2383-0.42578-3.0938-1.2812-1.707-1.707-1.707-4.4805 0-6.1875l10.938-10.938c1.7109-1.7109 4.4805-1.7109 6.1875 0 1.707 1.707 1.707 4.4805 0 6.1875l-10.938 10.938c-0.85547 0.85547-1.9727 1.2812-3.0938 1.2812z"/>
  <path d="m235.16 492.19c-1.1211 0-2.2383-0.42578-3.0938-1.2812-1.707-1.707-1.707-4.4805 0-6.1875l10.938-10.938c1.7109-1.7109 4.4805-1.7109 6.1875 0 1.707 1.707 1.707 4.4805 0 6.1875l-10.938 10.938c-0.85547 0.85547-1.9727 1.2812-3.0938 1.2812z"/>
  <path d="m278.91 492.19c-1.1211 0-2.2383-0.42578-3.0938-1.2812-1.707-1.707-1.707-4.4805 0-6.1875l10.938-10.938c1.7109-1.7109 4.4805-1.7109 6.1875 0 1.707 1.707 1.707 4.4805 0 6.1875l-10.938 10.938c-0.85547 0.85547-1.9727 1.2812-3.0938 1.2812z"/>
  <path d="m322.66 492.19c-1.1211 0-2.2383-0.42578-3.0938-1.2812-1.707-1.707-1.707-4.4805 0-6.1875l10.938-10.938c1.7109-1.7109 4.4805-1.7109 6.1875 0 1.707 1.707 1.707 4.4805 0 6.1875l-10.938 10.938c-0.85547 0.85547-1.9727 1.2812-3.0938 1.2812z"/>
  <path d="m366.41 492.19c-1.1172 0-2.2383-0.42578-3.0938-1.2812-1.7109-1.707-1.7109-4.4805 0-6.1875l10.938-10.938c1.707-1.7109 4.4805-1.7109 6.1875 0 1.7109 1.707 1.7109 4.4805 0 6.1875l-10.938 10.938c-0.85547 0.85547-1.9766 1.2812-3.0938 1.2812z"/>
  <path d="m410.16 492.19c-1.1172 0-2.2383-0.42578-3.0938-1.2812-1.7109-1.707-1.7109-4.4805 0-6.1875l10.938-10.938c1.707-1.7109 4.4805-1.7109 6.1875 0 1.7109 1.707 1.7109 4.4805 0 6.1875l-10.938 10.938c-0.85547 0.85547-1.9766 1.2812-3.0938 1.2812z"/>
  <path d="m453.91 492.19c-1.1172 0-2.2383-0.42578-3.0938-1.2812-1.7109-1.707-1.7109-4.4805 0-6.1875l10.938-10.938c1.707-1.7109 4.4805-1.7109 6.1875 0 1.7109 1.707 1.7109 4.4805 0 6.1875l-10.938 10.938c-0.85547 0.85547-1.9766 1.2812-3.0938 1.2812z"/>
  <path d="m202.34 54.688h-54.688c-2.418 0-4.375-1.957-4.375-4.375s1.957-4.375 4.375-4.375h54.688c2.418 0 4.375 1.957 4.375 4.375s-1.957 4.375-4.375 4.375z"/>
  <path d="m355.47 164.06h-65.625c-2.418 0-4.375-1.957-4.375-4.375s1.957-4.375 4.375-4.375h65.625c2.418 0 4.375 1.957 4.375 4.375s-1.957 4.375-4.375 4.375z"/>
  <path d="m311.72 196.88h-43.75c-2.418 0-4.375-1.957-4.375-4.375s1.957-4.375 4.375-4.375h43.75c2.418 0 4.375 1.957 4.375 4.375s-1.957 4.375-4.375 4.375z"/>

 </g>
</svg>
