<?xml version="1.0" encoding="UTF-8"?>
<svg version="1.1" viewBox="0 0 700 700" xmlns="http://www.w3.org/2000/svg" xmlns:xlink="http://www.w3.org/1999/xlink">

 <g>
  <path d="m595 214.38h-52.5v-8.75c0-4.6406-1.8438-9.0938-5.125-12.375s-7.7344-5.125-12.375-5.125h-8.75c0-39.375-5.3359-80.938-47.555-103.29-24.543-13.125-56.875-14.699-81.199-0.83203h-0.003906c-6.543 3.6445-12.551 8.1797-17.848 13.477-5.8672 6.3672-11.113 13.281-15.664 20.648-10.98 16.711-22.312 33.992-38.281 42-20.387 10.195-42.438 0-53.68-15.227-5.8555-7.2812-8.7578-16.5-8.125-25.82 0.63281-9.3242 4.75-18.066 11.535-24.492 1.7344-1.6445 2.7188-3.9258 2.7266-6.3164 0.007812-2.3867-0.96484-4.6758-2.6836-6.332-1.7227-1.6562-4.0469-2.5391-6.4336-2.4375-2.3906 0.10156-4.6328 1.1719-6.207 2.9688-9.6836 9.3867-15.543 22.027-16.445 35.48-0.90625 13.453 3.207 26.766 11.543 37.363 15.574 21.176 46.551 35 75.602 20.477 22.836-11.641 35.219-34.477 49.352-54.602 4.1445-6.2852 9.2539-11.883 15.137-16.582 7.1133-5.5547 15.406-9.418 24.238-11.285 16.375-3.0898 33.316-0.60937 48.125 7.043 31.148 16.406 38.367 45.895 38.367 87.762h-8.75c-4.6406 0-9.0938 1.8438-12.375 5.125s-5.125 7.7344-5.125 12.375v8.75h-367.5c-9.2812 0-18.184 3.6875-24.75 10.25-6.5625 6.5664-10.25 15.469-10.25 24.75v201.25c0 9.2812 3.6875 18.184 10.25 24.75 6.5664 6.5625 15.469 10.25 24.75 10.25h490c9.2812 0 18.184-3.6875 24.75-10.25 6.5625-6.5664 10.25-15.469 10.25-24.75v-201.25c0-9.2812-3.6875-18.184-10.25-24.75-6.5664-6.5625-15.469-10.25-24.75-10.25zm-105-8.75h35v8.75h-35zm122.5 245c0 4.6406-1.8438 9.0938-5.125 12.375s-7.7344 5.125-12.375 5.125h-490c-4.6406 0-9.0938-1.8438-12.375-5.125s-5.125-7.7344-5.125-12.375v-201.25c0-4.6406 1.8438-9.0938 5.125-12.375s7.7344-5.125 12.375-5.125h490c4.6406 0 9.0938 1.8438 12.375 5.125s5.125 7.7344 5.125 12.375z"/>
  <path d="m157.5 258.12h-35c-4.832 0-8.75 3.918-8.75 8.75v30.625c0 2.3203 0.92188 4.5469 2.5625 6.1875s3.8672 2.5625 6.1875 2.5625h35c2.3203 0 4.5469-0.92188 6.1875-2.5625s2.5625-3.8672 2.5625-6.1875v-30.625c0-2.3203-0.92188-4.5469-2.5625-6.1875s-3.8672-2.5625-6.1875-2.5625zm-8.75 30.625h-17.5v-13.125h17.5z"/>
  <path d="m192.5 306.25h35c2.3203 0 4.5469-0.92188 6.1875-2.5625s2.5625-3.8672 2.5625-6.1875v-30.625c0-2.3203-0.92188-4.5469-2.5625-6.1875s-3.8672-2.5625-6.1875-2.5625h-35c-4.832 0-8.75 3.918-8.75 8.75v30.625c0 2.3203 0.92188 4.5469 2.5625 6.1875s3.8672 2.5625 6.1875 2.5625zm8.75-30.625h17.5v13.125h-17.5z"/>
  <path d="m262.5 306.25h35c2.3203 0 4.5469-0.92188 6.1875-2.5625s2.5625-3.8672 2.5625-6.1875v-30.625c0-2.3203-0.92188-4.5469-2.5625-6.1875s-3.8672-2.5625-6.1875-2.5625h-35c-4.832 0-8.75 3.918-8.75 8.75v30.625c0 2.3203 0.92188 4.5469 2.5625 6.1875s3.8672 2.5625 6.1875 2.5625zm8.75-30.625h17.5v13.125h-17.5z"/>
  <path d="m367.5 258.12h-35c-4.832 0-8.75 3.918-8.75 8.75v30.625c0 2.3203 0.92188 4.5469 2.5625 6.1875s3.8672 2.5625 6.1875 2.5625h35c2.3203 0 4.5469-0.92188 6.1875-2.5625s2.5625-3.8672 2.5625-6.1875v-30.625c0-2.3203-0.92188-4.5469-2.5625-6.1875s-3.8672-2.5625-6.1875-2.5625zm-8.75 30.625h-17.5v-13.125h17.5z"/>
  <path d="m437.5 258.12h-35c-4.832 0-8.75 3.918-8.75 8.75v30.625c0 2.3203 0.92188 4.5469 2.5625 6.1875s3.8672 2.5625 6.1875 2.5625h35c2.3203 0 4.5469-0.92188 6.1875-2.5625s2.5625-3.8672 2.5625-6.1875v-30.625c0-2.3203-0.92188-4.5469-2.5625-6.1875s-3.8672-2.5625-6.1875-2.5625zm-8.75 30.625h-17.5v-13.125h17.5z"/>
  <path d="m157.5 323.75h-35c-4.832 0-8.75 3.918-8.75 8.75v30.625c0 2.3203 0.92188 4.5469 2.5625 6.1875s3.8672 2.5625 6.1875 2.5625h35c2.3203 0 4.5469-0.92188 6.1875-2.5625s2.5625-3.8672 2.5625-6.1875v-30.625c0-2.3203-0.92188-4.5469-2.5625-6.1875s-3.8672-2.5625-6.1875-2.5625zm-8.75 30.625h-17.5v-13.125h17.5z"/>
  <path d="m192.5 371.88h35c2.3203 0 4.5469-0.92188 6.1875-2.5625s2.5625-3.8672 2.5625-6.1875v-30.625c0-2.3203-0.92188-4.5469-2.5625-6.1875s-3.8672-2.5625-6.1875-2.5625h-35c-4.832 0-8.75 3.918-8.75 8.75v30.625c0 2.3203 0.92188 4.5469 2.5625 6.1875s3.8672 2.5625 6.1875 2.5625zm8.75-30.625h17.5v13.125h-17.5z"/>
  <path d="m262.5 371.88h35c2.3203 0 4.5469-0.92188 6.1875-2.5625s2.5625-3.8672 2.5625-6.1875v-30.625c0-2.3203-0.92188-4.5469-2.5625-6.1875s-3.8672-2.5625-6.1875-2.5625h-35c-4.832 0-8.75 3.918-8.75 8.75v30.625c0 2.3203 0.92188 4.5469 2.5625 6.1875s3.8672 2.5625 6.1875 2.5625zm8.75-30.625h17.5v13.125h-17.5z"/>
  <path d="m367.5 323.75h-35c-4.832 0-8.75 3.918-8.75 8.75v30.625c0 2.3203 0.92188 4.5469 2.5625 6.1875s3.8672 2.5625 6.1875 2.5625h35c2.3203 0 4.5469-0.92188 6.1875-2.5625s2.5625-3.8672 2.5625-6.1875v-30.625c0-2.3203-0.92188-4.5469-2.5625-6.1875s-3.8672-2.5625-6.1875-2.5625zm-8.75 30.625h-17.5v-13.125h17.5z"/>
  <path d="m437.5 323.75h-35c-4.832 0-8.75 3.918-8.75 8.75v30.625c0 2.3203 0.92188 4.5469 2.5625 6.1875s3.8672 2.5625 6.1875 2.5625h35c2.3203 0 4.5469-0.92188 6.1875-2.5625s2.5625-3.8672 2.5625-6.1875v-30.625c0-2.3203-0.92188-4.5469-2.5625-6.1875s-3.8672-2.5625-6.1875-2.5625zm-8.75 30.625h-17.5v-13.125h17.5z"/>
  <path d="m507.5 323.75h-35c-4.832 0-8.75 3.918-8.75 8.75v30.625c0 2.3203 0.92188 4.5469 2.5625 6.1875s3.8672 2.5625 6.1875 2.5625h35c2.3203 0 4.5469-0.92188 6.1875-2.5625s2.5625-3.8672 2.5625-6.1875v-30.625c0-2.3203-0.92188-4.5469-2.5625-6.1875s-3.8672-2.5625-6.1875-2.5625zm-8.75 30.625h-17.5v-13.125h17.5z"/>
  <path d="m577.5 323.75h-35c-4.832 0-8.75 3.918-8.75 8.75v96.25c0 2.3203 0.92188 4.5469 2.5625 6.1875s3.8672 2.5625 6.1875 2.5625h35c2.3203 0 4.5469-0.92188 6.1875-2.5625s2.5625-3.8672 2.5625-6.1875v-96.25c0-2.3203-0.92188-4.5469-2.5625-6.1875s-3.8672-2.5625-6.1875-2.5625zm-8.75 96.25h-17.5v-78.75h17.5z"/>
  <path d="m157.5 389.38h-35c-4.832 0-8.75 3.918-8.75 8.75v30.625c0 2.3203 0.92188 4.5469 2.5625 6.1875s3.8672 2.5625 6.1875 2.5625h35c2.3203 0 4.5469-0.92188 6.1875-2.5625s2.5625-3.8672 2.5625-6.1875v-30.625c0-2.3203-0.92188-4.5469-2.5625-6.1875s-3.8672-2.5625-6.1875-2.5625zm-8.75 30.625h-17.5v-13.125h17.5z"/>
  <path d="m437.5 389.38h-35c-4.832 0-8.75 3.918-8.75 8.75v30.625c0 2.3203 0.92188 4.5469 2.5625 6.1875s3.8672 2.5625 6.1875 2.5625h35c2.3203 0 4.5469-0.92188 6.1875-2.5625s2.5625-3.8672 2.5625-6.1875v-30.625c0-2.3203-0.92188-4.5469-2.5625-6.1875s-3.8672-2.5625-6.1875-2.5625zm-8.75 30.625h-17.5v-13.125h17.5z"/>
  <path d="m507.5 389.38h-35c-4.832 0-8.75 3.918-8.75 8.75v30.625c0 2.3203 0.92188 4.5469 2.5625 6.1875s3.8672 2.5625 6.1875 2.5625h35c2.3203 0 4.5469-0.92188 6.1875-2.5625s2.5625-3.8672 2.5625-6.1875v-30.625c0-2.3203-0.92188-4.5469-2.5625-6.1875s-3.8672-2.5625-6.1875-2.5625zm-8.75 30.625h-17.5v-13.125h17.5z"/>
  <path d="m577.5 258.12h-105c-4.832 0-8.75 3.918-8.75 8.75v30.625c0 2.3203 0.92188 4.5469 2.5625 6.1875s3.8672 2.5625 6.1875 2.5625h105c2.3203 0 4.5469-0.92188 6.1875-2.5625s2.5625-3.8672 2.5625-6.1875v-30.625c0-2.3203-0.92188-4.5469-2.5625-6.1875s-3.8672-2.5625-6.1875-2.5625zm-8.75 30.625h-87.5v-13.125h87.5z"/>
  <path d="m367.5 389.38h-175c-4.832 0-8.75 3.918-8.75 8.75v30.625c0 2.3203 0.92188 4.5469 2.5625 6.1875s3.8672 2.5625 6.1875 2.5625h175c2.3203 0 4.5469-0.92188 6.1875-2.5625s2.5625-3.8672 2.5625-6.1875v-30.625c0-2.3203-0.92188-4.5469-2.5625-6.1875s-3.8672-2.5625-6.1875-2.5625zm-8.75 30.625h-157.5v-13.125h157.5z"/>

 </g>
</svg>
