<?xml version="1.0" encoding="UTF-8"?>
<svg version="1.1" viewBox="0 0 700 700" xmlns="http://www.w3.org/2000/svg" xmlns:xlink="http://www.w3.org/1999/xlink">

 <g>
  <path d="m350 72.238c6.7188 0 12.32-5.6016 12.32-12.32v-33.598c0-6.7188-5.6016-12.32-12.32-12.32s-12.32 5.6016-12.32 12.32v34.16c0 6.1602 5.6016 11.758 12.32 11.758z"/>
  <path d="m266 99.68c2.2383 2.2383 5.6016 3.3594 8.3984 3.3594 2.8008 0 6.1602-1.1211 8.3984-3.3594 4.4805-4.4805 4.4805-12.32 0-17.359l-24.078-24.078c-4.4805-4.4805-12.32-4.4805-17.359 0-4.4805 4.4805-4.4805 12.32 0 17.359z"/>
  <path d="m209.44 179.2h34.16c6.7188 0 12.32-5.6016 12.32-12.32s-5.6016-12.32-12.32-12.32h-34.16c-6.7188 0-12.32 5.6016-12.32 12.32 0 6.7227 5.5977 12.32 12.32 12.32z"/>
  <path d="m444.64 166.88c0 6.7188 5.6016 12.32 12.32 12.32h34.16c6.7188 0 12.32-5.6016 12.32-12.32s-5.6016-12.32-12.32-12.32h-34.16c-6.7227 0-12.32 5.6016-12.32 12.32z"/>
  <path d="m425.6 103.6c3.3594 0 6.1602-1.1211 8.3984-3.3594l24.078-24.078c4.4805-4.4805 4.4805-12.32 0-17.359-4.4805-4.4805-12.32-4.4805-17.359 0l-23.52 24.074c-4.4805 4.4805-4.4805 12.32 0 17.359 2.2422 2.2422 5.0391 3.3633 8.4023 3.3633z"/>
  <path d="m534.24 529.2-26.879-64.398-11.758-91.84c-1.6797-14-6.1602-26.879-12.879-39.199l-73.363-136.08c5.0391-8.9609 7.8398-19.602 7.8398-30.801 0-36.961-30.238-67.199-67.199-67.199s-67.199 30.238-67.199 67.199c0 11.199 2.8008 21.281 7.8398 30.801l-73.922 136.08c-6.7188 12.32-10.641 25.762-12.879 39.199l-11.199 91.84-26.32 64.398c-1.6797 3.9219-1.1211 7.8398 1.1211 11.199 2.2383 3.3594 6.1602 5.6016 10.078 5.6016h106.96c5.0391 0 9.5195-2.8008 11.199-7.2812l25.762-63.281c12.32-10.641 21.84-23.52 28.559-37.52 6.7188 14 16.238 26.879 28.559 37.52l25.762 63.281c1.6797 4.4805 6.1602 7.2812 11.199 7.2812h106.96c3.9219 0 7.8398-2.2383 10.078-5.6016 2.8008-3.3594 2.8008-7.2773 1.6797-11.199zm-258.16-7.2773h-81.199l17.359-42h81.199zm30.801-66.082h-89.039l10.078-79.52c1.1211-10.641 4.4805-21.281 10.078-30.801l86.238-159.04c3.3594-6.1602 14-3.3594 14 3.3594v102.48h-3.9219c-13.441 0-25.762 8.3984-29.68 21.281l-23.512 67.199c-2.2383 6.1602 1.1211 13.441 7.2812 15.121 6.1602 2.2383 13.441-1.1211 15.121-7.2812l22.961-66.641c1.1211-2.8008 3.9219-5.0391 6.7188-5.0391h3.9219v68.879c0.55469 26.879-10.645 52.082-30.246 70zm55.441-70v-68.879h3.9219c3.3594 0 6.1602 2.2383 6.7188 5.0391l22.961 66.641c2.2383 6.1602 8.9609 9.5195 15.121 7.2812 6.1602-2.2383 9.5195-8.9609 7.2812-15.121l-22.961-66.641c-4.4805-12.879-16.238-21.281-29.68-21.281h-3.9219v-103.04c0-6.7188 10.641-9.5195 14-3.3594l86.238 159.04c5.0391 9.5195 8.3984 20.16 10.078 30.801l10.078 79.52h-89.035c-19.602-17.918-30.801-43.121-30.801-70zm61.602 136.08-17.359-42h81.199l17.359 42z"/>

 </g>
</svg>
