<?xml version="1.0" encoding="UTF-8"?>
<svg version="1.1" viewBox="0 0 700 700" xmlns="http://www.w3.org/2000/svg" xmlns:xlink="http://www.w3.org/1999/xlink">

 <g>
  <path d="m601.56 36.094h-503.12c-4.2266 0-7.6562-3.4297-7.6562-7.6562s3.4297-7.6562 7.6562-7.6562h503.12c4.2266 0 7.6562 3.4297 7.6562 7.6562s-3.4297 7.6562-7.6562 7.6562z"/>
  <path d="m601.56 539.22h-503.12c-4.2266 0-7.6562-3.4297-7.6562-7.6562s3.4297-7.6562 7.6562-7.6562h503.12c4.2266 0 7.6562 3.4297 7.6562 7.6562s-3.4297 7.6562-7.6562 7.6562z"/>
  <path d="m135.82 112.74c-24.688 0-41.004-12.055-42.012-12.82-3.3711-2.5547-4.0312-7.3594-1.4727-10.727 2.5469-3.3633 7.3359-4.0273 10.703-1.4922 1.2969 0.96094 29.988 21.605 68.121-0.50391 3.6562-2.1211 8.3438-0.875 10.465 2.7812s0.875 8.3438-2.7812 10.465c-15.887 9.2031-30.527 12.297-43.023 12.297z"/>
  <path d="m354.57 112.74c-24.688 0-41.004-12.055-42.012-12.82-3.3711-2.5547-4.0312-7.3594-1.4727-10.727 2.5469-3.3633 7.3359-4.0273 10.703-1.4922 1.2969 0.96094 29.992 21.602 68.121-0.50391 3.6602-2.1211 8.3438-0.875 10.465 2.7812s0.875 8.3438-2.7812 10.465c-15.887 9.2031-30.527 12.297-43.023 12.297z"/>
  <path d="m562.39 112.74c-24.684 0-41.004-12.055-42.012-12.82-3.3672-2.5547-4.0312-7.3594-1.4766-10.727 2.5508-3.3594 7.3359-4.0273 10.703-1.4922 1.2969 0.96094 29.992 21.602 68.117-0.50391 3.6602-2.1211 8.3438-0.875 10.465 2.7812s0.875 8.3438-2.7812 10.465c-15.879 9.2031-30.52 12.297-43.016 12.297z"/>
  <path d="m135.82 353.85c-24.688 0-41.004-12.055-42.012-12.82-3.3711-2.5547-4.0312-7.3594-1.4727-10.727 2.5469-3.3594 7.3359-4.0273 10.703-1.4922 1.2969 0.96094 29.988 21.605 68.121-0.50391 3.6562-2.1211 8.3438-0.875 10.465 2.7812 2.1211 3.6602 0.875 8.3438-2.7812 10.465-15.887 9.207-30.527 12.297-43.023 12.297z"/>
  <path d="m354.57 353.85c-24.688 0-41.004-12.055-42.012-12.82-3.3711-2.5547-4.0312-7.3594-1.4727-10.727 2.5469-3.3594 7.3359-4.0273 10.703-1.4922 1.2969 0.96094 29.992 21.605 68.121-0.50391 3.6602-2.1211 8.3438-0.875 10.465 2.7812 2.1211 3.6602 0.875 8.3438-2.7812 10.465-15.887 9.207-30.527 12.297-43.023 12.297z"/>
  <path d="m562.39 353.85c-24.684 0-41.004-12.055-42.012-12.82-3.3672-2.5547-4.0312-7.3594-1.4766-10.727 2.5508-3.3594 7.3359-4.0273 10.703-1.4922 1.2969 0.96094 29.992 21.605 68.117-0.50391 3.6602-2.1211 8.3438-0.875 10.465 2.7812 2.1211 3.6602 0.875 8.3438-2.7812 10.465-15.879 9.207-30.52 12.297-43.016 12.297z"/>
  <path d="m200.91 474.36c-14.309 0-25.781-7.4062-31.547-13.695-2.8594-3.1172-2.6484-7.957 0.46484-10.816 3.1055-2.8477 7.9258-2.6523 10.789 0.43359 1.9141 2.0273 19.156 18.988 42.746-0.67188 3.25-2.707 8.0781-2.2695 10.785 0.98047 2.707 3.2461 2.2695 8.0742-0.98047 10.781-11.465 9.5547-22.52 12.988-32.258 12.988z"/>
  <path d="m353.08 474.36c-14.309 0-25.781-7.4062-31.547-13.695-2.8594-3.1172-2.6484-7.9609 0.46484-10.816 3.1055-2.8477 7.9258-2.6523 10.789 0.43359 1.9102 2.0234 19.152 18.996 42.75-0.67188 3.25-2.707 8.0742-2.2695 10.781 0.98047 2.707 3.25 2.2695 8.0781-0.98047 10.781-11.465 9.5547-22.52 12.988-32.258 12.988z"/>
  <path d="m497.64 474.36c-14.309 0-25.781-7.4062-31.547-13.695-2.8594-3.1172-2.6484-7.957 0.46484-10.816 3.1055-2.8477 7.9258-2.6523 10.789 0.43359 1.9141 2.0273 19.156 18.988 42.746-0.67188 3.25-2.707 8.0781-2.2656 10.785 0.98047 2.707 3.25 2.2695 8.0781-0.98047 10.785-11.465 9.5508-22.52 12.984-32.258 12.984z"/>
  <path d="m200.91 222.31c-14.309 0-25.781-7.4102-31.547-13.695-2.8594-3.1172-2.6484-7.9609 0.46484-10.816 3.1055-2.8477 7.9258-2.6523 10.789 0.43359 1.9141 2.0273 19.156 18.988 42.746-0.67188 3.25-2.707 8.0781-2.2695 10.785 0.98047s2.2695 8.0781-0.98047 10.785c-11.465 9.5508-22.52 12.984-32.258 12.984z"/>
  <path d="m353.08 222.31c-14.309 0-25.781-7.4102-31.547-13.695-2.8594-3.1172-2.6484-7.9609 0.46484-10.816 3.1055-2.8477 7.9258-2.6523 10.789 0.43359 1.9102 2.0234 19.152 18.996 42.75-0.67188 3.25-2.707 8.0742-2.2695 10.781 0.98047 2.707 3.25 2.2695 8.0781-0.98047 10.785-11.465 9.5508-22.52 12.984-32.258 12.984z"/>
  <path d="m497.64 222.31c-14.309 0-25.781-7.4102-31.547-13.695-2.8594-3.1172-2.6484-7.9609 0.46484-10.816 3.1055-2.8516 7.9258-2.6523 10.789 0.43359 1.9141 2.0273 19.156 18.988 42.746-0.67188 3.25-2.707 8.0781-2.2695 10.785 0.98047 2.707 3.25 2.2695 8.0781-0.98047 10.785-11.465 9.5508-22.52 12.984-32.258 12.984z"/>
 </g>
</svg>
