<?xml version="1.0" encoding="UTF-8"?>
<svg version="1.1" viewBox="0 0 700 700" xmlns="http://www.w3.org/2000/svg" xmlns:xlink="http://www.w3.org/1999/xlink">
 

 <g>
  <path d="m125.63 110.94c0.81641 0.42578 1.6953 0.62109 2.5586 0.62109 2.0273 0 3.9922-1.1016 4.9844-3.0352l15.383-29.875c1.418-2.75 0.33984-6.125-2.4141-7.543-2.75-1.4297-6.1328-0.33984-7.543 2.4141l-15.383 29.875c-1.4141 2.75-0.33594 6.125 2.4141 7.543z"/>
  <path d="m158.41 225.28 15.383-29.875c1.418-2.75 0.33984-6.125-2.4141-7.543-2.7422-1.4219-6.1328-0.33984-7.543 2.4141l-15.383 29.875c-1.418 2.75-0.33984 6.1328 2.4141 7.543 0.81641 0.42578 1.6953 0.62109 2.5586 0.62109 2.0312 0 3.9961-1.1094 4.9844-3.0352z"/>
  <path d="m192.84 145.54c0.81641 0.42578 1.6953 0.62109 2.5586 0.62109 2.0273 0 3.9922-1.1016 4.9844-3.0352l15.383-29.871c1.418-2.75 0.33984-6.125-2.4141-7.543-2.7422-1.4297-6.1328-0.33984-7.543 2.4141l-15.383 29.871c-1.4141 2.7539-0.33203 6.125 2.4141 7.543z"/>
  <path d="m136.44 255.07c-2.7422-1.4336-6.1328-0.33984-7.543 2.4141l-20.508 39.832c-1.418 2.75-0.33984 6.1328 2.4141 7.543 0.81641 0.42578 1.6953 0.62109 2.5586 0.62109 2.0273 0 3.9922-1.1016 4.9844-3.0352l20.508-39.832c1.418-2.7539 0.34375-6.1328-2.4141-7.543z"/>
  <path d="m267.74 165.22c0.81641 0.42578 1.6953 0.62109 2.5586 0.62109 2.0273 0 3.9922-1.1016 4.9844-3.0352l15.379-29.871c1.418-2.75 0.33984-6.1328-2.4141-7.543-2.7422-1.4336-6.1328-0.33984-7.543 2.4141l-15.379 29.871c-1.418 2.7461-0.33594 6.1289 2.4141 7.543z"/>
  <path d="m185.7 324.53c0.81641 0.42578 1.6953 0.62109 2.5586 0.62109 2.0273 0 3.9922-1.1016 4.9844-3.0352l20.512-39.828c1.418-2.75 0.33984-6.125-2.4141-7.543-2.7422-1.4297-6.1328-0.33984-7.543 2.4141l-20.512 39.828c-1.4102 2.7539-0.33594 6.125 2.4141 7.543z"/>
  <path d="m236.98 224.96c0.81641 0.42578 1.6953 0.62109 2.5586 0.62109 2.0273 0 3.9922-1.1016 4.9844-3.0352l15.383-29.875c1.418-2.75 0.33984-6.125-2.4141-7.543-2.75-1.4297-6.1328-0.34766-7.543 2.4141l-15.383 29.875c-1.418 2.7461-0.34375 6.125 2.4141 7.543z"/>
  <path d="m142.12 409.18c-2.7422-1.4336-6.1328-0.34766-7.543 2.4141l-15.379 29.871c-1.418 2.75-0.33984 6.1328 2.4141 7.543 0.81641 0.42578 1.6953 0.62109 2.5586 0.62109 2.0273 0 3.9922-1.1016 4.9844-3.0352l15.379-29.871c1.4141-2.75 0.33594-6.1328-2.4141-7.543z"/>
  <path d="m301.07 100.49c0.81641 0.42578 1.6953 0.62109 2.5586 0.62109 2.0273 0 3.9922-1.1016 4.9844-3.0352l20.508-39.828c1.418-2.75 0.33984-6.1328-2.4141-7.543-0.19141-0.10156-0.39844-0.09375-0.59375-0.16797h-4.0273c-1.2109 0.48047-2.2773 1.332-2.918 2.582l-20.508 39.828c-1.418 2.7539-0.33984 6.1328 2.4102 7.543z"/>
  <path d="m296.83 273.11c0.81641 0.42578 1.6953 0.62109 2.5586 0.62109 2.0273 0 3.9922-1.1016 4.9844-3.0352l15.383-29.875c1.418-2.75 0.33984-6.125-2.4141-7.543-2.7422-1.4219-6.1328-0.33984-7.543 2.4141l-15.383 29.875c-1.418 2.75-0.33594 6.1289 2.4141 7.543z"/>
  <path d="m372.12 127.64c0.81641 0.42578 1.6953 0.62109 2.5586 0.62109 2.0273 0 3.9922-1.1016 4.9844-3.0352l20.508-39.828c1.418-2.75 0.33984-6.1328-2.4141-7.543-2.7422-1.4219-6.1328-0.33984-7.543 2.4141l-20.508 39.828c-1.4102 2.7539-0.33594 6.1289 2.4141 7.543z"/>
  <path d="m467.85 224.89-15.383 29.871c-1.418 2.75-0.33984 6.125 2.4141 7.543 0.81641 0.42578 1.6953 0.62109 2.5586 0.62109 2.0273 0 3.9922-1.1016 4.9844-3.0352l15.383-29.871c1.418-2.75 0.33984-6.125-2.4141-7.543-2.7422-1.4219-6.1328-0.33594-7.543 2.4141z"/>
  <path d="m539.48 98.004c0.81641 0.42578 1.6953 0.62109 2.5586 0.62109 2.0273 0 3.9883-1.1016 4.9844-3.0352l2.5547-4.957c1.418-2.75 0.33984-6.125-2.4141-7.543-2.75-1.4336-6.125-0.33984-7.543 2.4141l-2.5547 4.957c-1.4102 2.7578-0.33594 6.1289 2.4141 7.543z"/>
  <path d="m224.95 82.141c0.81641 0.42578 1.6953 0.62109 2.5586 0.62109 2.0273 0 3.9883-1.1016 4.9844-3.0352l2.5547-4.957c1.418-2.75 0.33984-6.125-2.4141-7.543-2.75-1.4336-6.125-0.33984-7.543 2.4141l-2.5547 4.957c-1.4102 2.75-0.33594 6.125 2.4141 7.543z"/>
  <path d="m107.11 154.63c2.0273 0 3.9883-1.1016 4.9844-3.0352l2.5547-4.957c1.418-2.75 0.33984-6.125-2.4141-7.543-2.75-1.4336-6.125-0.33984-7.543 2.4141l-2.5547 4.957c-1.418 2.75-0.33984 6.125 2.4141 7.543 0.82422 0.42188 1.6953 0.62109 2.5586 0.62109z"/>
  <path d="m114.57 460.63c-2.75-1.4297-6.1289-0.33594-7.543 2.4141l-2.5547 4.957c-1.418 2.75-0.33984 6.125 2.4141 7.543 0.81641 0.42578 1.6953 0.62109 2.5586 0.62109 2.0273 0 3.9883-1.1016 4.9844-3.0352l2.5547-4.957c1.4141-2.75 0.33203-6.1289-2.4141-7.543z"/>
  <path d="m358.42 158.67c0.81641 0.42578 1.6953 0.62109 2.5586 0.62109 2.0273 0 3.9883-1.1016 4.9844-3.0352l2.5547-4.957c1.418-2.75 0.33984-6.125-2.4141-7.543-2.75-1.4336-6.125-0.33984-7.543 2.4141l-2.5547 4.957c-1.418 2.7539-0.33594 6.125 2.4141 7.543z"/>
  <path d="m499.82 342.54c0.81641 0.42578 1.6953 0.62109 2.5586 0.62109 2.0273 0 3.9883-1.1016 4.9844-3.0352l2.5547-4.957c1.418-2.75 0.33984-6.125-2.4141-7.543-2.75-1.4336-6.125-0.33984-7.543 2.4141l-2.5547 4.957c-1.4141 2.75-0.33594 6.1289 2.4141 7.543z"/>
  <path d="m501.03 172.69c0.81641 0.42578 1.6953 0.62109 2.5586 0.62109 2.0273 0 3.9922-1.1016 4.9844-3.0352l20.508-39.828c1.418-2.75 0.33984-6.1328-2.4141-7.543-2.75-1.4219-6.125-0.33984-7.543 2.4141l-20.508 39.828c-1.4141 2.75-0.33594 6.1328 2.4141 7.543z"/>
  <path d="m522.09 296.92c0.81641 0.42578 1.6953 0.62109 2.5586 0.62109 2.0273 0 3.9922-1.1016 4.9844-3.0352l15.383-29.875c1.418-2.75 0.33984-6.125-2.4141-7.543-2.7422-1.4336-6.1328-0.33984-7.543 2.4141l-15.383 29.875c-1.418 2.75-0.33984 6.1328 2.4141 7.543z"/>
  <path d="m552.86 237.17c0.81641 0.42578 1.6953 0.62109 2.5586 0.62109 2.0273 0 3.9922-1.1016 4.9844-3.0352l15.383-29.871c1.418-2.75 0.33984-6.125-2.4141-7.543-2.75-1.4297-6.1328-0.33984-7.543 2.4141l-15.383 29.871c-1.418 2.75-0.33594 6.125 2.4141 7.543z"/>
  <path d="m595.59 317.83c-2.7422-1.4336-6.1328-0.33984-7.543 2.4141l-15.383 29.871c-1.418 2.75-0.33984 6.125 2.4141 7.543 0.81641 0.42578 1.6953 0.62109 2.5586 0.62109 2.0273 0 3.9922-1.1016 4.9844-3.0352l15.383-29.871c0.28516-0.54688 0.39844-1.1328 0.48828-1.7148v-1.457c-0.20313-1.793-1.1719-3.4805-2.9023-4.3711z"/>
  <path d="m568.79 371.35c-2.7422-1.4297-6.1328-0.33984-7.543 2.4141l-20.512 39.828c-1.418 2.75-0.33984 6.125 2.4141 7.543 0.81641 0.42578 1.6953 0.62109 2.5586 0.62109 2.0273 0 3.9922-1.1016 4.9844-3.0352l20.512-39.828c1.4141-2.75 0.33984-6.125-2.4141-7.543z"/>
  <path d="m406.89 190.36c0.81641 0.42578 1.6953 0.62109 2.5586 0.62109 2.0273 0 3.9922-1.1016 4.9844-3.0352l15.383-29.871c1.418-2.75 0.33984-6.125-2.4141-7.543-2.75-1.4336-6.125-0.33984-7.543 2.4141l-15.383 29.871c-1.4102 2.7539-0.33594 6.125 2.4141 7.543z"/>
  <path d="m453.05 100.74c0.81641 0.42578 1.6953 0.62109 2.5586 0.62109 2.0273 0 3.9922-1.1016 4.9844-3.0352l20.508-39.828c1.418-2.75 0.33984-6.1328-2.4141-7.543-0.46484-0.24219-0.96484-0.3125-1.457-0.41406h-2.3594c-1.5508 0.35938-2.9531 1.3047-3.7344 2.8281l-20.508 39.828c-1.4062 2.7539-0.33203 6.1328 2.4219 7.543z"/>
  <path d="m353.68 417.31c0.97266 2.9102 3.6914 4.8672 6.7539 4.8672h68.801c2.2852 0 4.4336-1.0977 5.7734-2.9531 1.332-1.8555 1.7031-4.2461 0.98047-6.4102l-14.488-43.469c-0.97266-2.9102-3.6914-4.8672-6.7539-4.8672h-68.793c-2.2852 0-4.4336 1.0977-5.7734 2.9531-1.332 1.8555-1.7031 4.2461-0.98047 6.4102zm55.941-38.602 9.7422 29.238h-53.801l-9.7422-29.238z"/>
  <path d="m160.38 509.46h359.35c2.1836-0.89453 4.0898-2.2969 5.4883-4.2578 2.2969-3.3047 2.8555-7.5586 1.5117-11.367l-6.2148-17.359c0.16797-1.625-0.44922-3.2461-1.625-4.4805l-36.398-101.3c0.054687 0.054688 0.054687 0.054688 0.11328 0.11328l-26.434-73.359c-1.457-4.0898-4.9844-6.9453-9.0703-7.8398 0.0625-0.125 0.050782-0.26172 0.10156-0.39062l-86.289-0.003906v-23.465h36.457c4.5938 0 8.3438-3.7539 8.3438-8.3438v-37.297c0-4.0703-2.9688-7.3477-6.8164-8.0586h-51.801c-1.7148 1.5234-2.8164 3.7109-2.8164 6.1562v71.008h-90.664c-0.72656 0-5.6562-0.11328-7.4492 0.67187-3.5859 1.5117-3.3984 5.375-4.9297 8.9023l-85.566 195.27c-1.6797 3.8633-1.2891 8.2891 1.0078 11.816 0.95312 1.5117 2.2422 2.6328 3.6992 3.5859zm202.38-281.07h26.32v20.719h-26.32zm-124.03 257.73 14.492-38.152 13.066 38.152zm196.94-172.05 61.656 171.59-158.65 0.44922-73.191-172.03zm-181.16 16.523 66.191 155.57-15.41 0.042969v-0.085937l-21.488 0.003906-22.293-65.258c-1.1211-3.3047-4.1992-5.543-7.7266-5.6016h-0.11328c-3.4727 0-6.5508 2.1289-7.7852 5.3203l-24.91 65.535h-11.816v0.35156l-23.027 0.074219z"/>

 </g>
</svg>
