<?xml version="1.0" encoding="UTF-8"?>
<svg version="1.1" viewBox="0 0 700 700" xmlns="http://www.w3.org/2000/svg" xmlns:xlink="http://www.w3.org/1999/xlink">

 <path transform="matrix(5.8333 0 0 5.8333 70 0)" d="m25.858 29.899c0 1.9393-0.99509 3.5109-2.2199 3.5109-1.2261 0-2.2212-1.5723-2.2212-3.5109 0-1.9393 2.2212-5.9438 2.2212-5.9438-6.7e-4 0 2.2199 4.0051 2.2199 5.9438z" fill="none" stroke="#000" stroke-miterlimit="10"/>
 <path transform="matrix(5.8333 0 0 5.8333 70 0)" d="m38.039 29.899c0 1.9393-0.99375 3.5109-2.2212 3.5109-1.2261 0-2.2192-1.5723-2.2192-3.5109-6.7e-4 -1.9393 2.2192-5.9438 2.2192-5.9438s2.2212 4.0051 2.2212 5.9438z" fill="none" stroke="#000" stroke-miterlimit="10"/>
 <path transform="matrix(5.8333 0 0 5.8333 70 0)" d="m50.221 29.899c0 1.9393-0.99375 3.5109-2.2219 3.5109-1.2248 0-2.2192-1.5723-2.2192-3.5109 0-1.9393 2.2192-5.9438 2.2192-5.9438s2.2219 4.0051 2.2219 5.9438z" fill="none" stroke="#000" stroke-miterlimit="10"/>
 <path transform="matrix(5.8333 0 0 5.8333 70 0)" d="m62.402 29.899c0 1.9393-0.99509 3.5109-2.2219 3.5109-1.2248 0-2.2199-1.5723-2.2199-3.5109 0-1.9393 2.2199-5.9438 2.2199-5.9438s2.2219 4.0051 2.2219 5.9438z" fill="none" stroke="#000" stroke-miterlimit="10"/>
 <path transform="matrix(5.8333 0 0 5.8333 70 0)" d="m74.583 29.899c0 1.9393-0.99375 3.5109-2.2212 3.5109-1.2261 0-2.2199-1.5723-2.2199-3.5109 0-1.9393 2.2199-5.9438 2.2199-5.9438 6.7e-4 0 2.2212 4.0051 2.2212 5.9438z" fill="none" stroke="#000" stroke-miterlimit="10"/>
 <path transform="matrix(5.8333 0 0 5.8333 70 0)" d="m31.948 44.001c0 1.9393-0.99509 3.5109-2.2212 3.5109s-2.2199-1.5723-2.2199-3.5109c0-1.9393 2.2199-5.9438 2.2199-5.9438s2.2212 4.0051 2.2212 5.9438z" fill="none" stroke="#000" stroke-miterlimit="10"/>
 <path transform="matrix(5.8333 0 0 5.8333 70 0)" d="m44.129 44.001c0 1.9393-0.99308 3.5109-2.2199 3.5109-1.2261 0-2.2192-1.5723-2.2192-3.5109-6.7e-4 -1.9393 2.2192-5.9438 2.2192-5.9438s2.2199 4.0051 2.2199 5.9438z" fill="none" stroke="#000" stroke-miterlimit="10"/>
 <path transform="matrix(5.8333 0 0 5.8333 70 0)" d="m56.312 44.001c0 1.9393-0.99375 3.5109-2.2212 3.5109-1.2261 0-2.2199-1.5723-2.2199-3.5109 0-1.9393 2.2199-5.9438 2.2199-5.9438s2.2212 4.0051 2.2212 5.9438z" fill="none" stroke="#000" stroke-miterlimit="10"/>
 <path transform="matrix(5.8333 0 0 5.8333 70 0)" d="m68.492 44.001c0 1.9393-0.99375 3.5109-2.2212 3.5109-1.2261 0-2.2199-1.5723-2.2199-3.5109 0-1.9393 2.2199-5.9438 2.2199-5.9438 6.69e-4 0 2.2212 4.0051 2.2212 5.9438z" fill="none" stroke="#000" stroke-miterlimit="10"/>
 <path transform="matrix(5.8333 0 0 5.8333 70 0)" d="m84.201 60.364h-13.831c0.79888-0.16607 1.3788-0.31607 1.6312-0.4413 1.6058-0.78482-2.2333-1.8321-2.2333-1.8321s-3.448 0.16808-7.3821 0.24576c-0.077008 1.8281-1.0292 3.2772-2.2051 3.2772-1.1672 0-2.1127-1.4277-2.2031-3.2377-1.4859-0.008036-2.8842-0.042857-4.0259-0.11719-0.7788-1.3219-2.2138-2.2112-3.8592-2.2112h-0.32411c0.26384 0.76004 0.45268 1.494 0.45268 2.0551 0 1.9413-0.99509 3.5123-2.2219 3.5123-1.2248 0-2.2192-1.5703-2.2192-3.5123 0-0.56116 0.18817-1.2951 0.45201-2.0551h-8.6471c0.26518 0.76004 0.45268 1.494 0.45268 2.0551 0 1.9413-0.99375 3.5123-2.2199 3.5123s-2.2199-1.5703-2.2199-3.5123c0-0.56116 0.18817-1.2951 0.45201-2.0551h-11.288c-2.4509 0-4.4391 1.9667-4.4792 4.4083-1.0212-0.020089-2.6438 0.089732-3.8397 0.84174-1.8757 1.1779-2.11 4.0138-5.5969 6.5042-3.4868 2.4877 4.4598 3.4728 11.936 3.223 7.4752-0.24978 8.5319 1.3279 11.844 0.96696 3.3127-0.36295 11.954 0.59799 27.659-0.9 15.706-1.496 12.779-2.9451 16.1-4.3567 1.4953-0.63683 1.723-1.7598 0.7279-2.633h7.0888c2.098 0 3.7989-0.83571 3.7989-1.869-6.69e-4 -1.0333-1.7016-1.869-3.7996-1.869z" fill="none" stroke="#000" stroke-miterlimit="10"/>
 <path transform="matrix(5.8333 0 0 5.8333 70 0)" d="m37.585 56.048c-0.64888-1.867-1.7672-3.8893-1.7672-3.8893s-1.119 2.021-1.7679 3.8893" fill="none" stroke="#000" stroke-miterlimit="10"/>
 <path transform="matrix(5.8333 0 0 5.8333 70 0)" d="m34.051 56.048c-0.26384 0.76004-0.45268 1.494-0.45201 2.0551 0 1.9413 0.99375 3.5123 2.2199 3.5123 1.2268 0 2.2199-1.5703 2.2199-3.5123 0-0.56116-0.18817-1.2951-0.45268-2.0551" fill="none" stroke="#000" stroke-miterlimit="10"/>
 <path transform="matrix(5.8333 0 0 5.8333 70 0)" d="m49.768 56.048c-0.64888-1.867-1.7692-3.8893-1.7692-3.8893s-1.117 2.021-1.7672 3.8893" fill="none" stroke="#000" stroke-miterlimit="10"/>
 <path transform="matrix(5.8333 0 0 5.8333 70 0)" d="m46.232 56.048c-0.26518 0.76004-0.45201 1.494-0.45201 2.0551 0 1.9413 0.99375 3.5123 2.2192 3.5123 1.2268 0 2.2219-1.5703 2.2219-3.5123 0-0.56116-0.18884-1.2951-0.45268-2.0551" fill="none" stroke="#000" stroke-miterlimit="10"/>
 <path transform="matrix(5.8333 0 0 5.8333 70 0)" d="m62.386 58.337c0.004018-0.077679 0.016072-0.15402 0.016072-0.23371 0-1.9379-2.2212-5.9431-2.2212-5.9431s-2.2199 4.0058-2.2199 5.9431c0 0.09375 0.012723 0.18214 0.016741 0.27322" fill="none" stroke="#000" stroke-miterlimit="10"/>
 <path transform="matrix(5.8333 0 0 5.8333 70 0)" d="m57.978 58.376c0.089732 1.8107 1.0359 3.2377 2.2031 3.2377 1.1759 0 2.1281-1.4491 2.2051-3.2772" fill="none" stroke="#000" stroke-miterlimit="10"/>
 <g>

 </g>
</svg>
