<?xml version="1.0" encoding="UTF-8"?>
<svg version="1.1" viewBox="0 0 700 700" xmlns="http://www.w3.org/2000/svg" xmlns:xlink="http://www.w3.org/1999/xlink">

 <g>
  <path d="m350 526.4c-136.08 0-246.4-110.32-246.4-246.4 0-43.121 11.199-85.68 33.039-123.2 4.4805-7.8398 15.121-10.641 22.961-6.1602 7.8398 4.4805 10.641 15.121 6.1602 22.961-18.48 32.477-28.562 68.879-28.562 106.4 0 117.6 95.199 212.8 212.8 212.8s212.8-95.199 212.8-212.8-95.199-212.8-212.8-212.8c-9.5195 0-16.801-7.2812-16.801-16.801 0-9.5195 7.2812-16.801 16.801-16.801 136.08 0 246.4 110.32 246.4 246.4 0 136.08-110.32 246.4-246.4 246.4zm169.68-246.4c0-93.52-76.16-169.68-169.68-169.68-29.68 0-59.359 7.8398-85.121 22.961-7.8398 4.4805-10.641 15.121-6.1602 22.961 4.4805 7.8398 15.121 10.641 22.961 6.1602 20.719-11.762 44.238-18.48 68.32-18.48 75.039 0 136.08 61.039 136.08 136.08s-61.039 136.08-136.08 136.08-136.08-61.039-136.08-136.08c0-9.5195-7.2812-16.801-16.801-16.801-9.5195 0-16.801 7.2812-16.801 16.801 0 93.52 76.16 169.68 169.68 169.68s169.68-76.16 169.68-169.68zm-76.16 0c0-51.52-42-93.52-93.52-93.52-33.039 0-63.84 17.922-80.641 46.48-4.4805 7.8398-1.6797 18.48 6.1602 22.961 7.8398 4.4805 18.48 1.6797 22.961-6.1602 10.641-18.48 30.238-29.68 51.52-29.68 33.039 0 59.922 26.879 59.922 59.922 0 33.035-26.883 59.918-59.922 59.918-21.281 0-40.879-11.199-51.52-29.68-4.4805-7.8398-15.121-10.641-22.961-6.1602-7.8398 4.4805-10.641 15.121-6.1602 22.961 16.801 28.559 47.602 46.48 80.641 46.48 51.52-0.003907 93.52-42.004 93.52-93.523z"/>

 </g>
</svg>
