<?xml version="1.0" encoding="UTF-8"?>
<svg version="1.1" viewBox="0 0 700 700" xmlns="http://www.w3.org/2000/svg" xmlns:xlink="http://www.w3.org/1999/xlink">

 <g>
  <path d="m328.96 474.23c0.36328 0.35156 0.71875 0.68359 1.1094 0.99609 1.2617 1.0469 2.6953 1.8906 4.2383 2.4844 3.3906 1.3828 6.7461 1.5859 8.4375 1.5859 8.5352 0 15.457-6.9219 15.457-15.457 0-7.8945-5.9258-14.414-13.57-15.348-1.4414-0.44141-2.9766-0.68359-4.5664-0.68359-8.5117 0-15.586 6.9219-15.625 15.434v0.050781c0 4.2656 1.7305 8.1367 4.5156 10.922z"/>
  <path d="m282.47 458.09c2.6211 1.7305 5.5859 2.5586 8.5117 2.5586 5.0078 0 9.9375-2.4375 12.91-6.9336 4.7148-7.125 2.75-16.719-4.3633-21.414-9.8711-6.5273-18.438-14.832-25.473-24.676-16.117-22.586-21.777-51.188-15.551-78.484 1.9141-8.3203-3.3047-16.609-11.625-18.512-8.3633-1.9023-16.621 3.3047-18.523 11.625-8.1953 35.891-0.71875 73.559 20.516 103.33 9.2617 12.957 20.57 23.891 33.598 32.508z"/>
  <path d="m349.56 559.04c116.57 0 211.41-94.844 211.41-211.41 0-112.88-191.69-329.74-199.85-338.91-2.9492-3.3047-7.1367-5.1953-11.562-5.1953-4.4141 0-8.6172 1.8906-11.551 5.1953-8.1602 9.168-199.94 226.03-199.94 338.91-0.003906 116.57 94.879 211.41 211.49 211.41zm0-516.55c59.457 69.32 180.48 226.62 180.48 305.13 0 99.531-80.961 180.49-180.48 180.49-99.57 0-180.57-80.961-180.57-180.49 0.003907-78.457 121.09-235.8 180.57-305.13z"/>
  
 </g>
</svg>
