<?xml version="1.0" encoding="UTF-8"?>
<svg width="700pt" height="700pt" version="1.1" viewBox="0 0 700 700" xmlns="http://www.w3.org/2000/svg" xmlns:xlink="http://www.w3.org/1999/xlink">

 <g>
  <path d="m235.67 324.33c-18.668 0-36.168 7-49 19.832-12.832 12.832-19.832 30.332-19.832 49 0 18.668 7 36.168 19.832 49 12.832 12.832 30.332 19.832 49 19.832s36.168-7 49-19.832c26.832-26.832 26.832-71.168 0-98-12.836-12.832-30.336-19.832-49-19.832zm32.664 102.67c-17.5 17.5-47.832 17.5-65.332 0s-17.5-46.668 0-65.332c8.168-8.168 19.832-14 32.668-14 12.832 0 23.332 4.668 32.668 14 18.664 17.5 18.664 46.664-0.003907 65.332z"/>
  <path d="m626.5 128.33-17.5-17.5 9.332-9.332c2.332-2.332 3.5-4.668 3.5-8.168s-1.168-5.832-3.5-8.168l-73.5-73.496c-4.668-4.668-11.668-4.668-16.332 0l-9.332 9.332-17.5-17.5c-4.668-4.668-11.668-4.668-16.332 0-4.668 4.668-4.668 11.668 0 16.332l17.5 17.5-10.5 10.5-17.5-17.5c-4.668-4.668-11.668-4.668-16.332 0-4.668 4.668-4.668 11.668 0 16.332l17.5 17.5-10.5 10.5-17.5-17.5c-4.668-4.668-11.668-4.668-16.332 0-4.668 4.668-4.668 11.668 0 16.332l17.5 17.5-9.332 9.332c-4.668 4.668-4.668 11.668 0 16.332l4.668 4.668-94.5 94.5c-18.668-9.332-38.5-15.168-58.332-15.168-26.832 0-50.168 9.332-67.668 26.832-2.332 2.332-4.668 4.668-5.832 7-17.5 21-37.332 35-60.668 39.668-21 4.668-39.668 15.168-53.668 29.168-50.168 50.168-42 142.33 19.832 203 33.832 33.832 77 52.5 120.17 52.5 32.668 0 63-11.668 84-32.668 14-14 24.5-32.668 29.168-53.668 5.832-22.168 18.668-43.168 39.668-60.668 2.332-2.332 4.668-3.5 7-5.832 31.5-31.5 35-80.5 11.668-126l94.5-94.5s8.168 12.832 21 4.668l9.332-9.332 17.5 17.5c2.332 2.332 5.832 3.5 8.168 3.5 3.5 0 5.832-1.168 8.168-3.5 4.668-4.668 4.668-11.668 0-16.332l-17.5-17.5 10.5-10.5 17.5 17.5c2.332 2.332 5.832 3.5 8.168 3.5 3.5 0 5.832-1.168 8.168-3.5 4.668-4.668 4.668-11.668 0-16.332l-17.5-17.5 10.5-10.5 17.5 17.5c2.332 2.332 5.832 3.5 8.168 3.5 3.5 0 5.832-1.168 8.168-3.5 3.4844-4.6641 3.4844-11.664-1.1836-16.332zm-234.5 142.34c-3.5 3.5-4.668 9.332-2.332 14 22.168 38.5 21 80.5-4.668 106.17-1.168 1.168-3.5 3.5-4.668 4.668-24.5 19.832-42 45.5-47.832 73.5-3.5 16.332-11.668 30.332-23.332 42-17.5 17.5-40.832 25.668-67.668 25.668-36.168 0-73.5-16.332-102.67-45.5-52.5-52.504-60.664-129.5-19.832-171.5 11.668-11.668 25.668-19.832 42-23.332 28-7 52.5-23.332 73.5-47.832 1.168-1.168 2.332-3.5 4.668-4.668 12.832-12.832 30.332-19.832 51.332-19.832 18.668 0 37.332 5.832 54.832 16.332 4.668 2.332 10.5 2.332 14-2.332l101.5-101.5 32.668 32.668zm129.5-105-57.168-57.168 72.336-72.332 57.164 57.164z"/>

 </g>
</svg>
