<?xml version="1.0" encoding="utf-8"?>
<svg viewBox="-60.556 58.001 584.289 549.224" xmlns="http://www.w3.org/2000/svg">
  <defs>
    <symbol id="w" overflow="visible">
      <path d="m0.03125 0h-0.015625-0.015625v-0.015625-0.015625h0.015625 0.015625-0.015625v0.015625 0.015625h0.015625v-0.015625z"/>
    </symbol>
    <symbol id="e" overflow="visible">
      <path d="m0.015625-0.015625v0.015625h-0.015625v-0.03125h0.015625v0.015625-0.015625z"/>
    </symbol>
    <symbol id="b" overflow="visible">
      <path d="m0.03125-0.015625h-0.015625v0.015625c0.0078125 0 0.015625-0.0039062 0.015625-0.015625v0.015625h-0.015625-0.015625v-0.015625l0.015625-0.015625v0.015625h0.015625z"/>
    </symbol>
    <symbol id="a" overflow="visible">
      <path d="m0.015625-0.015625v0.015625-0.015625zm0.015625 0v0.015625h-0.015625-0.015625v-0.015625h0.015625-0.015625v-0.015625h0.015625v0.015625h0.015625z"/>
    </symbol>
    <symbol id="d" overflow="visible">
      <path d="m0.015625-0.03125v0.015625 0.015625h-0.015625v-0.015625-0.015625z"/>
    </symbol>
    <symbol id="l" overflow="visible">
      <path d="m0.015625-0.015625v-0.015625h0.015625v0.03125h-0.015625-0.015625v-0.015625l0.015625-0.015625v0.015625zm0 0.015625v-0.015625 0.015625z"/>
    </symbol>
    <symbol id="k" overflow="visible">
      <path d="m0.015625 0v-0.015625 0.015625zm0-0.015625v-0.015625c0.0078125 0 0.015625 0.0078125 0.015625 0.015625v0.015625h-0.015625-0.015625v-0.03125h0.015625z"/>
    </symbol>
    <symbol id="j" overflow="visible">
      <path d="m0-0.03125h0.015625v0.015625-0.015625h0.015625l-0.015625 0.03125v0.015625h-0.015625v-0.015625h0.015625z"/>
    </symbol>
    <symbol id="i" overflow="visible">
      <path d="m0.015625-0.03125v0.015625 0.015625h0.015625v-0.015625c0-0.0078125-0.0078125-0.015625-0.015625-0.015625zm0 0h0.015625v0.015625 0.015625h-0.015625-0.015625v-0.015625-0.015625h0.015625z"/>
    </symbol>
    <symbol id="v" overflow="visible">
      <path d="m0-0.03125h0.015625v0.03125h-0.015625z"/>
    </symbol>
    <symbol id="f" overflow="visible">
      <path d="m0.03125-0.015625v0.015625h-0.015625v-0.015625 0.015625h-0.015625v-0.03125h0.015625v0.015625-0.015625c0.0078125 0 0.015625 0.0078125 0.015625 0.015625z"/>
    </symbol>
    <symbol id="h" overflow="visible">
      <path d="m0-0.03125h0.015625 0.015625v0.015625h-0.015625v0.015625h-0.015625zm0.015625 0v0.015625-0.015625z"/>
    </symbol>
    <symbol id="g" overflow="visible">
      <path d="m0.03125-0.03125v0.015625h-0.015625c0.0078125 0 0.015625 0.0078125 0.015625 0.015625h-0.015625-0.015625 0.015625v-0.015625h-0.015625l0.015625-0.015625h0.015625z"/>
    </symbol>
    <symbol id="c" overflow="visible">
      <path d="m0.015625-0.015625v0.015625-0.015625zm0-0.015625v0.015625h0.015625c0 0.011719-0.0078125 0.015625-0.015625 0.015625h-0.015625v-0.015625l0.015625-0.015625z"/>
    </symbol>
    <symbol id="u" overflow="visible">
      <path d="m0-0.03125h0.015625v0.015625-0.015625h0.015625l-0.015625 0.03125z"/>
    </symbol>
    <symbol id="t" overflow="visible">
      <path d="m0-0.03125h0.015625v0.015625-0.015625h0.015625l-0.015625 0.015625 0.015625 0.015625h-0.015625v-0.015625 0.015625h-0.015625z"/>
    </symbol>
    <symbol id="s" overflow="visible">
      <path d="m0.015625-0.03125v0.03125h-0.015625v-0.03125h0.015625z"/>
    </symbol>
    <symbol id="r" overflow="visible">
      <path d="m0.03125-0.015625v-0.015625c0.0078125 0 0.015625 0.0078125 0.015625 0.015625v0.015625h-0.015625v-0.015625 0.015625h-0.015625v-0.015625 0.015625h-0.015625v-0.03125h0.015625v0.015625-0.015625 0.015625h0.015625z"/>
    </symbol>
    <symbol id="q" overflow="visible">
      <path d="m0.03125-0.015625v0.015625h-0.015625v-0.015625 0.015625h-0.015625v-0.03125h0.015625v0.015625-0.015625c0.0078125 0 0.015625 0.0078125 0.015625 0.015625z"/>
    </symbol>
    <symbol id="p" overflow="visible">
      <path d="m0-0.03125h0.015625l0.015625 0.015625v-0.015625 0.03125l-0.015625-0.015625v0.015625h-0.015625z"/>
    </symbol>
    <symbol id="o" overflow="visible">
      <path d="m0-0.015625v-0.015625h0.015625v0.015625 0.015625-0.015625-0.015625h0.015625v0.03125h-0.015625-0.015625v-0.015625z"/>
    </symbol>
    <symbol id="n" overflow="visible">
      <path d="m0-0.03125h0.015625v0.03125h-0.015625v0.015625zm0 0h0.015625z"/>
    </symbol>
    <symbol id="m" overflow="visible">
      <path d="m0.03125-0.03125v0.015625h-0.015625v0.015625h0.015625-0.015625-0.015625v-0.015625l0.015625-0.015625h0.015625z"/>
    </symbol>
  </defs>
  <g transform="matrix(0.92103, 0, 0, 0.92103, -90.766762, 74.72361)" style="">
    <path d="m510 63.715 27.102-27.449s8.2109-8.207 13.328-13.324c5.707-5.707 13.293-9.0703 21.277-9.5039l4.4297-4.4297c11.281-11.281 29.574-11.281 40.855 0l3.9961 3.9961c11.281 11.281 11.281 29.574 0 40.855l-4.4297 4.4297c-0.43359 7.9844-3.7969 15.574-9.5039 21.277l-40.695 40.695c1.8828 6.6602 0.20312 14.113-5.0391 19.355l-362.07 362.07c-6.2617 6.2617-15.68 7.4414-23.133 3.5391l-45.203 45.203c-12.035 12.035-31.547 12.035-43.582 0l-7.7656-7.7656c-12.035-12.035-12.035-31.547 0-43.582l45.203-45.203c-3.9023-7.4531-2.7227-16.871 3.5391-23.133l362.07-362.07c5.3125-5.3125 12.895-6.9648 19.621-4.9609zm-371.89 404.76-44.57 44.57c-4.3203 4.3242-4.3203 11.328 0 15.652 2.5 2.4961 5.2656 5.2617 7.7617 7.7617 4.3242 4.3242 11.328 4.3242 15.652 0l44.57-44.57zm30.633-50.227-26.465 26.465 43.008 43.008 26.465-26.465zm13.965-13.969 43.012 43.012 281.21-281.21-43.008-43.008zm76.105-33.094c5.2734 5.2734 5.2734 13.836 0 19.113-5.2734 5.2734-13.836 5.2734-19.113 0-5.2734-5.2773-5.2734-13.84 0-19.113 5.2773-5.2734 13.84-5.2734 19.113 0zm47.781-47.781c5.2734 5.2734 5.2734 13.84 0 19.113-5.2734 5.2734-13.84 5.2734-19.113 0-5.2734-5.2734-5.2734-13.84 0-19.113 5.2734-5.2734 13.84-5.2734 19.113 0zm47.781-47.781c5.2734 5.2734 5.2734 13.84 0 19.113-5.2734 5.2734-13.84 5.2734-19.113 0-5.2734-5.2734-5.2734-13.84 0-19.113 5.2734-5.2734 13.84-5.2734 19.113 0zm47.781-47.781c5.2734 5.2773 5.2734 13.84 0 19.113-5.2773 5.2734-13.84 5.2734-19.113 0-5.2734-5.2734-5.2734-13.836 0-19.113 5.2734-5.2734 13.836-5.2734 19.113 0zm47.777-47.777c5.2773 5.2734 5.2773 13.836 0 19.109-5.2734 5.2773-13.836 5.2773-19.109 0-5.2734-5.2734-5.2734-13.836 0-19.109 5.2734-5.2773 13.836-5.2773 19.109 0zm27.953-70.961 43.008 43.008 26.465-26.461-43.012-43.012zm76.281-4.5781 38.926-38.926c2.5469-2.5469 3.9102-6.0469 3.7617-9.6484v-0.003906c-0.15234-3.5977 1.2109-7.0977 3.7617-9.6484l6.4102-6.4102c3.5664-3.5664 3.5664-9.3516 0-12.922-1.3125-1.3086-2.6875-2.6836-3.9961-3.9961-3.5703-3.5664-9.3555-3.5664-12.922 0l-6.4102 6.4102c-2.5508 2.5508-6.0508 3.9141-9.6484 3.7617h-0.003906c-3.6016-0.14844-7.1016 1.2148-9.6484 3.7617l-38.75 39.102z" fill-rule="evenodd"/>
  </g>
</svg>