<?xml version="1.0" encoding="UTF-8"?>
<svg version="1.1" viewBox="0 0 700 700" xmlns="http://www.w3.org/2000/svg" xmlns:xlink="http://www.w3.org/1999/xlink">

 <g>
  <path d="m204.4 100.8c-2.9961-0.042969-5.8867 1.1172-8.0195 3.2227-2.1367 2.1055-3.3398 4.9766-3.3398 7.9766s1.2031 5.8711 3.3398 7.9766c2.1328 2.1055 5.0234 3.2656 8.0195 3.2227h291.2c6.3984 0 11.199 4.8008 11.199 11.199v280c-0.042969 3 1.1172 5.8906 3.2227 8.0234 2.1055 2.1367 4.9766 3.3359 7.9766 3.3359s5.8711-1.1992 7.9766-3.3359c2.1055-2.1328 3.2656-5.0234 3.2227-8.0234v-280c0-18.418-15.18-33.598-33.598-33.598zm-23.449 33.426c-5.8398 0.54688-10.266 5.5078-10.148 11.375v280c0 18.418 15.18 33.598 33.598 33.598h291.2c2.9961 0.042969 5.8867-1.1172 8.0195-3.2227 2.1367-2.1055 3.3398-4.9766 3.3398-7.9766s-1.2031-5.8711-3.3398-7.9766c-2.1328-2.1055-5.0234-3.2656-8.0195-3.2227h-291.2c-6.3984 0-11.199-4.8008-11.199-11.199v-280c0.125-5.8047-4.2031-10.742-9.9727-11.375-0.75781-0.078124-1.5195-0.078124-2.2773 0zm167.82 5.5977c-5.7695 0.63672-10.098 5.5703-9.9727 11.375v85.402c-19.246 5.0352-33.602 22.664-33.602 43.398 0 24.609 20.191 44.801 44.801 44.801 8.2773 0 16.066-2.3242 22.75-6.3008l53.375 53.375c2.0977 2.1562 4.9727 3.3789 7.9844 3.3906 3.0078 0.015625 5.8945-1.1836 8.0117-3.3242 2.1133-2.1367 3.2812-5.0391 3.2344-8.0469-0.046875-3.0078-1.3008-5.8711-3.4805-7.9453l-53.375-53.375c3.9297-6.6562 6.3008-14.348 6.3008-22.574 0-20.734-14.355-38.363-33.602-43.398v-85.402c0.046875-3.0312-1.1367-5.9531-3.2773-8.0938-2.1445-2.1445-5.0664-3.3281-8.0977-3.2812-0.34766-0.015625-0.69922-0.015625-1.0508 0zm1.2266 117.78c12.504 0 22.398 9.8945 22.398 22.398s-9.8945 22.398-22.398 22.398-22.398-9.8945-22.398-22.398 9.8945-22.398 22.398-22.398zm-129.85 11.199c-2.9688 0.13672-5.7617 1.4531-7.7656 3.6484-2.0039 2.1992-3.0508 5.1055-2.9102 8.0742 0.14062 2.9727 1.4531 5.7656 3.6523 7.7695 2.1992 2 5.1055 3.0469 8.0742 2.9062h22.402c2.9961 0.042969 5.8867-1.1172 8.0195-3.2227 2.1367-2.1055 3.3398-4.9766 3.3398-7.9766s-1.2031-5.8711-3.3398-7.9766c-2.1328-2.1055-5.0234-3.2656-8.0195-3.2227h-22.402c-0.34766-0.015625-0.69922-0.015625-1.0508 0zm235.2 0c-2.9727 0.13672-5.7656 1.4531-7.7695 3.6484-2 2.1992-3.0469 5.1055-2.9102 8.0742 0.14062 2.9727 1.4531 5.7656 3.6523 7.7695 2.1992 2 5.1055 3.0469 8.0742 2.9062h22.402c2.9961 0.042969 5.8867-1.1172 8.0234-3.2227 2.1328-2.1055 3.3359-4.9766 3.3359-7.9766s-1.2031-5.8711-3.3359-7.9766c-2.1367-2.1055-5.0273-3.2656-8.0234-3.2227h-22.402c-0.34766-0.015625-0.69922-0.015625-1.0469 0zm-106.58 106.22c-5.7695 0.63672-10.098 5.5742-9.9727 11.375v22.402c-0.042969 2.9961 1.1172 5.8867 3.2227 8.0234 2.1055 2.1328 4.9766 3.3359 7.9766 3.3359s5.8711-1.2031 7.9766-3.3359c2.1055-2.1367 3.2656-5.0273 3.2227-8.0234v-22.402c0.070312-3.2227-1.2539-6.3242-3.6328-8.5-2.3828-2.1797-5.5859-3.2266-8.793-2.875z"/>

 </g>
</svg>
