<?xml version="1.0" encoding="UTF-8"?>
<svg version="1.1" viewBox="0 0 700 700" xmlns="http://www.w3.org/2000/svg" xmlns:xlink="http://www.w3.org/1999/xlink">

 <g>
  <path d="m239.65 294c-4.1172 0-7.4102-3.293-8.2344-7.4102-0.82422-4.1172 2.4688-9.0586 7.4102-9.0586l177.06-23.883v-101.3l-225.65-28.82h-7.4102c-44.473 0-79.883 35.41-79.883 79.059 0 32.117 19.766 61.766 49.41 74.117 4.1172 1.6484 6.5898 6.5898 4.1172 10.707-1.6484 4.1172-6.5898 6.5898-10.707 4.1172-36.23-14.824-59.293-49.414-59.293-88.941 0-52.707 42.824-95.531 96.355-95.531 3.293 0 6.5898 0 9.0586 0.82422l233.06 29.648c4.1172 0.82422 7.4102 4.1172 7.4102 8.2344v116.12c0 4.1172-3.293 7.4102-7.4102 8.2344l-183.65 24.707c-0.82422-0.82422-0.82422-0.82422-1.6445-0.82422z"/>
  <path d="m199.29 452.94c-24.707 0-46.117-19.766-48.59-44.469l-9.8828-123.53c0-2.4688 0.82422-5.7656 3.293-7.4102 2.4688-1.6484 5.7656-1.6484 8.2344-0.82422 12.352 4.9414 24.707 6.5898 37.883 5.7656l48.59-4.9414c2.4688 0 4.9414 0.82422 6.5898 2.4688 1.6484 1.6484 2.4688 4.1172 2.4688 5.7656v118.59c0 13.176-4.9414 24.707-14 34.59-9.0547 9.0547-21.41 13.996-34.586 13.996zm-41.176-156.47 9.0586 111.18c1.6484 16.469 15.648 29.648 32.117 29.648 8.2344 0 16.469-3.293 23.059-9.0586 5.7656-5.7656 9.0586-14 9.0586-23.059v-110.35l-39.531 4.1172c-11.527 0.82422-22.23 0-33.762-2.4727z"/>
  <path d="m576.47 189.41c-9.8828 0-15.648-4.1172-19.766-7.4102-3.293-2.4688-4.9414-4.1172-9.0586-4.1172-4.1172 0-5.7656 1.6484-9.0586 4.1172-4.1172 3.293-9.0586 7.4102-19.766 7.4102-9.8828 0-15.648-4.1172-19.766-7.4102-3.293-2.4688-4.9414-4.1172-9.0586-4.1172-4.9414 0-8.2344-3.293-8.2344-8.2344 0-4.9414 3.293-8.2344 8.2344-8.2344 9.8828 0 15.648 4.1172 19.766 7.4102 3.293 2.4688 4.9414 4.1172 9.0586 4.1172 4.1172 0 5.7656-1.6484 9.0586-4.1172 4.1172-3.293 9.0586-7.4102 19.766-7.4102 9.8828 0 15.648 4.1172 19.766 7.4102 3.293 2.4688 4.9414 4.1172 9.0586 4.1172s5.7656-1.6484 9.0586-4.1172c4.1172-3.293 9.0586-7.4102 19.766-7.4102 4.9414 0 8.2344 3.293 8.2344 8.2344 0 4.9414-3.293 8.2344-8.2344 8.2344-4.1172 0-5.7656 1.6484-9.0586 4.1172-4.1172 3.293-9.8828 7.4102-19.766 7.4102z"/>
  <path d="m576.47 222.35c-9.8828 0-15.648-4.1172-19.766-7.4102-3.293-2.4688-4.9414-4.1172-9.0586-4.1172-4.1172 0-5.7656 1.6484-9.0586 4.1172-4.1172 3.293-9.0586 7.4102-19.766 7.4102-9.8828 0-15.648-4.1172-19.766-7.4102-3.293-2.4688-4.9414-4.1172-9.0586-4.1172-4.9414 0-8.2344-3.293-8.2344-8.2344s3.293-8.2344 8.2344-8.2344c9.8828 0 15.648 4.1172 19.766 7.4102 3.293 2.4688 4.9414 4.1172 9.0586 4.1172 4.1172 0 5.7656-1.6484 9.0586-4.1172 4.1172-3.293 9.0586-7.4102 19.766-7.4102 9.8828 0 15.648 4.1172 19.766 7.4102 3.293 2.4688 4.9414 4.1172 9.0586 4.1172s5.7656-1.6484 9.0586-4.1172c4.1172-3.293 9.0586-7.4102 19.766-7.4102 4.9414 0 8.2344 3.293 8.2344 8.2344s-3.293 8.2344-8.2344 8.2344c-4.1172 0-5.7656 1.6484-9.0586 4.1172-4.1172 3.293-9.8828 7.4102-19.766 7.4102z"/>
  <path d="m576.47 255.29c-9.8828 0-15.648-4.1172-19.766-7.4102-3.293-2.4688-4.9414-4.1172-9.0586-4.1172-4.1172 0-5.7656 1.6484-9.0586 4.1172-4.1172 3.293-9.0586 7.4102-19.766 7.4102-9.8828 0-15.648-4.1172-19.766-7.4102-3.293-2.4688-4.9414-4.1172-9.0586-4.1172-4.9414 0-8.2344-3.293-8.2344-8.2344s3.293-8.2344 8.2344-8.2344c9.8828 0 15.648 4.1172 19.766 7.4102 3.293 2.4688 4.9414 4.1172 9.0586 4.1172 4.1172 0 5.7656-1.6484 9.0586-4.1172 4.1172-3.293 9.0586-7.4102 19.766-7.4102 9.8828 0 15.648 4.1172 19.766 7.4102 3.293 2.4688 4.9414 4.1172 9.0586 4.1172s5.7656-1.6484 9.0586-4.1172c4.1172-3.293 9.0586-7.4102 19.766-7.4102 4.9414 0 8.2344 3.293 8.2344 8.2344s-3.293 8.2344-8.2344 8.2344c-4.1172 0-5.7656 1.6484-9.0586 4.1172-4.1172 3.293-9.8828 7.4102-19.766 7.4102z"/>
  <path d="m182 249.53c-25.531 0-46.941-21.41-46.941-46.941s21.41-46.941 46.941-46.941 46.941 21.41 46.941 46.941c0 25.527-21.41 46.941-46.941 46.941zm0-77.414c-16.469 0-30.469 14-30.469 30.469s14 30.469 30.469 30.469 30.469-14 30.469-30.469-14-30.469-30.469-30.469z"/>
  <path d="m239.65 347.53c-4.1172 0-8.2344-3.293-8.2344-8.2344s3.293-8.2344 8.2344-8.2344c17.293-0.82422 30.469-14.824 30.469-32.117v-17.293c0-4.9414 3.293-8.2344 8.2344-8.2344 4.9414 0 8.2344 3.293 8.2344 8.2344v17.293c0.003906 26.348-19.762 47.762-46.938 48.586 0.82031 0 0.82031 0 0 0z"/>

 </g>
</svg>
