<?xml version="1.0" encoding="UTF-8"?>
<svg width="700pt" height="700pt" version="1.1" viewBox="0 0 700 700" xmlns="http://www.w3.org/2000/svg" xmlns:xlink="http://www.w3.org/1999/xlink">

 <g>
  <path d="m575.4 398.64c-11.688 0-19.418 8.9961-26.891 17.695-9.082 10.57-18.477 21.504-36.109 21.504-13.949 0-21.285-6.7539-30.578-15.305-11.566-10.645-25.965-23.895-56.922-23.895-25.242 0-41.812 11.699-56.43 22.027-6.8984 4.8711-13.312 9.3516-20.156 12.531l-1.2109-37.484 2.7969-29.613 1.5195-7.8828c2.543 1.2383 5.1055 3.3789 8.3984 6.3789 6.7617 6.1602 15.18 13.828 29.848 13.828 11.672 0 21.184-6.0938 31.254-12.547 11.918-7.6367 24.242-15.535 42.477-15.535 16.184 0 26.582 6.3711 37.594 13.117 12.016 7.3594 24.438 14.969 44.305 14.969 3.0938 0 5.6016-2.5078 5.6016-5.6016s-2.5078-5.6016-5.6016-5.6016c-16.711 0-27.273-6.4688-38.453-13.32-11.852-7.2578-24.102-14.766-43.445-14.766-21.516 0-36.492 9.5938-48.523 17.305-9.0273 5.7812-16.82 10.777-25.211 10.777-10.332 0-16.148-5.3008-22.309-10.906-4.1211-3.7539-8.3594-7.5781-13.762-9.3906l17.055-88.402c0.83984-4.3555-0.29688-8.8164-3.1211-12.238-2.8242-3.4219-6.9883-5.3828-11.426-5.3828-6.3203 0-11.949 4.0156-14.008 9.9961l-29.195 84.863c-1.7109 4.9727-5.7383 8.8516-10.777 10.367l-11.34 3.418c10.266-5.7578 17.223-16.73 17.223-29.309 0-18.527-15.07-33.602-33.602-33.602-18.527 0-33.602 15.07-33.602 33.602 0 18.527 15.07 33.602 33.602 33.602 0.86719 0 1.7227-0.066406 2.5742-0.12891l-19.828 5.9766c-4.8945 1.4727-9.2852 4.0352-12.934 7.4062-9.5625-0.66016-15.324-5.4961-22.422-11.582-8.957-7.6719-19.102-16.371-38.391-16.371-34.43 0-57.773 17.926-58.75 18.688-2.4336 1.9023-2.8633 5.4102-0.96875 7.8477 1.8984 2.4375 5.418 2.875 7.8516 0.98828 0.21094-0.16406 21.43-16.32 51.863-16.32 15.145 0 22.895 6.6406 31.102 13.676 6.3203 5.4141 12.828 10.945 22.27 13.262-0.1875 0.39844-0.41016 0.77344-0.58203 1.1797-0.125 0.29687-0.22656 0.60156-0.30078 0.91406l-4.5742 19.5c-2.2148-0.13672-4.4766-0.23438-6.8477-0.23438-29.352 0-48.418 12.746-65.238 23.996-12.203 8.1602-22.746 15.207-34.629 15.207-3.0938 0-5.6016 2.5078-5.6016 5.6016s2.5078 5.6016 5.6016 5.6016c15.285 0 27.703-8.3047 40.852-17.094 15.5-10.359 33.066-22.105 59.016-22.105 27.039 0 41.77 10.41 56.02 20.477 13.031 9.207 26.5 18.727 47.812 18.727 6.0703 0 11.551-1.0352 16.688-2.6367 0.125-0.050781 0.26562-0.0625 0.38672-0.12109 11.117-3.5547 20.465-10.047 29.559-16.469 13.902-9.8203 28.277-19.973 49.969-19.973 26.59 0 38.152 10.645 49.34 20.938 9.7578 8.9648 19.844 18.25 38.164 18.25 22.773 0 34.879-14.086 44.602-25.406 7.3516-8.5547 12.172-13.793 18.398-13.793 3.0938 0 5.6016-2.5078 5.6016-5.6016 0-3.0898-2.5078-5.5977-5.6016-5.5977zm-323.4-78.402c0-12.352 10.051-22.398 22.398-22.398 12.352 0 22.398 10.051 22.398 22.398 0 12.352-10.051 22.398-22.398 22.398-12.348 0.003906-22.398-10.047-22.398-22.398zm34.949 100.93c-11.707-8.2734-24.676-17.383-44.441-20.953l4.1719-17.789c2.6133-5.8047 7.5859-10.172 13.703-12.016l44.977-13.559c8.4766-2.5547 15.258-9.0781 18.141-17.449l29.195-84.863c0.5-1.457 1.875-2.4375 3.4141-2.4375 1.4805 0 2.3828 0.82422 2.7891 1.3125 0.40625 0.49219 1.043 1.5312 0.76172 2.9844l-20.832 108.11-2.9023 30.5c-0.023437 0.23438-0.03125 0.47266-0.023437 0.71094l1.3281 41.152c-2.8398 0.57812-5.7734 0.96875-8.9258 0.96875-17.758 0.007813-28.695-7.7188-41.355-16.668zm268.64 78.992c0 3.0938-2.5078 5.6016-5.6016 5.6016-22.152 0-32.289-9.5078-42.086-18.703-9.7031-9.1016-18.863-17.695-41.551-17.695-23.609 0-38.156 9.5156-52.23 18.719-13.293 8.6914-27.039 17.68-47.145 17.68-20.711 0-33.504-9.3867-45.879-18.465-12.57-9.2227-24.441-17.934-45.215-17.934-21.133 0-37.621 9.3008-53.566 18.297-15.773 8.8984-32.086 18.102-52.434 18.102-3.0938 0-5.6016-2.5078-5.6016-5.6016s2.5078-5.6016 5.6016-5.6016c17.406 0 31.746-8.0898 46.93-16.656 17.203-9.707 34.992-19.742 59.066-19.742 24.438 0 38.996 10.68 51.84 20.102 11.918 8.7461 22.207 16.297 39.25 16.297 16.77 0 28.004-7.3477 41.012-15.855 14.723-9.6289 31.414-20.547 58.359-20.547 27.121 0 38.859 11.012 49.215 20.727 8.9648 8.4102 16.707 15.672 34.426 15.672 3.1016 0.003907 5.6094 2.5117 5.6094 5.6055zm-87.023-391.01 9.9727-17.223c1.543-2.6758 4.9727-3.5898 7.6523-2.0391 2.6758 1.5508 3.5898 4.9727 2.0391 7.6523l-9.9727 17.223c-1.0352 1.793-2.918 2.793-4.8516 2.793-0.95312 0-1.918-0.24219-2.8008-0.75391-2.6758-1.5508-3.5898-4.9766-2.0391-7.6523zm72.816 16.258-35.84 20.723c-0.88281 0.51172-1.8438 0.75-2.7969 0.75-1.9336 0-3.8125-1-4.8516-2.7969-1.5469-2.6758-0.63281-6.1016 2.0469-7.6523l35.84-20.723c2.6758-1.5508 6.0977-0.63672 7.6523 2.0469 1.543 2.6797 0.625 6.1055-2.0508 7.6523zm-163.32 87.832c5.6328 9.6719 13.723 17.758 23.402 23.398 9.6211 5.5781 20.672 8.5273 31.949 8.5273s22.328-2.9492 31.961-8.5312c9.6719-5.6328 17.758-13.723 23.398-23.402 5.5781-9.6211 8.5273-20.672 8.5273-31.949s-2.9492-22.328-8.5312-31.961c-5.6328-9.6719-13.723-17.758-23.402-23.398-19.246-11.156-44.648-11.16-63.914 0.003906-9.6719 5.6328-17.758 13.723-23.398 23.402-5.5781 9.6211-8.5273 20.672-8.5273 31.949 0.003906 11.277 2.9531 22.328 8.5352 31.961zm9.6797-58.285c4.6602-8 11.352-14.691 19.34-19.344 7.918-4.5898 17.023-7.0156 26.336-7.0156 9.3086 0 18.414 2.4258 26.324 7.0117 8 4.6602 14.691 11.352 19.344 19.34 4.5898 7.918 7.0156 17.023 7.0156 26.336 0 9.3086-2.4258 18.414-7.0117 26.324-4.6562 7.9961-11.348 14.684-19.336 19.34-15.836 9.1836-36.844 9.1758-52.66 0.003907-8-4.6602-14.691-11.348-19.344-19.34-4.5898-7.918-7.0156-17.023-7.0156-26.336 0-9.3086 2.4258-18.414 7.0078-26.32zm125.66 31.922c-3.0938 0-5.6016-2.5078-5.6016-5.6016s2.5078-5.6016 5.6016-5.6016h19.945c3.0938 0 5.6016 2.5078 5.6016 5.6016s-2.5078 5.6016-5.6016 5.6016zm-7.8633 29.547 35.84 20.723c2.6758 1.5469 3.5938 4.9727 2.0469 7.6523-1.0352 1.793-2.9219 2.7969-4.8516 2.7969-0.95312 0-1.9141-0.24219-2.7969-0.75l-35.84-20.723c-2.6758-1.5469-3.5938-4.9727-2.0469-7.6523s4.9688-3.5977 7.6484-2.0469zm-17.312 48.59c1.5508 2.6758 0.63672 6.1016-2.0391 7.6523-0.88281 0.51172-1.8477 0.75391-2.8008 0.75391-1.9336 0-3.8125-1-4.8516-2.793l-9.9727-17.223c-1.5508-2.6758-0.63672-6.1016 2.0391-7.6523 2.6836-1.5547 6.1055-0.64062 7.6523 2.0391zm-54.812-9.3516c3.0938 0 5.6016 2.5078 5.6016 5.6016v41.445c0 3.0938-2.5078 5.6016-5.6016 5.6016s-5.6016-2.5078-5.6016-5.6016v-41.445c0.003906-3.0938 2.5078-5.6016 5.6016-5.6016zm-37.188-9.9102c2.6758 1.5508 3.5898 4.9727 2.0391 7.6523l-9.9727 17.223c-1.0352 1.793-2.918 2.793-4.8516 2.793-0.95312 0-1.918-0.24219-2.8008-0.75391-2.6758-1.5508-3.5898-4.9727-2.0391-7.6523l9.9727-17.223c1.5508-2.6758 4.9727-3.5898 7.6523-2.0391zm-70.777-8.6094 35.84-20.723c2.6797-1.5508 6.1016-0.63281 7.6523 2.0469 1.5469 2.6758 0.63281 6.1016-2.0469 7.6523l-35.84 20.723c-0.88281 0.51172-1.8438 0.75-2.7969 0.75-1.9336 0-3.8125-1.0039-4.8516-2.7969-1.5469-2.6758-0.63281-6.1055 2.043-7.6523zm27.977-61.465c3.0938 0 5.6016 2.5078 5.6016 5.6016s-2.5078 5.6016-5.6016 5.6016l-19.945-0.003906c-3.0938 0-5.6016-2.5078-5.6016-5.6016s2.5078-5.6016 5.6016-5.6016zm15.516-31.59c-1.0391 1.7969-2.9219 2.7969-4.8516 2.7969-0.95312 0-1.9141-0.24219-2.7969-0.75l-35.84-20.723c-2.6758-1.5469-3.5938-4.9727-2.0469-7.6523 1.5469-2.6836 4.9766-3.5938 7.6523-2.0469l35.84 20.723c2.6758 1.5469 3.5898 4.9727 2.043 7.6523zm9.6641-46.547c-1.5508-2.6758-0.63672-6.1016 2.0391-7.6523 2.6836-1.5508 6.1016-0.63672 7.6523 2.0391l9.9727 17.223c1.5508 2.6758 0.63672 6.1016-2.0391 7.6523-0.88281 0.51172-1.8477 0.75391-2.8008 0.75391-1.9336 0-3.8125-1-4.8516-2.793zm54.809 9.3477c-3.0938 0-5.6016-2.5078-5.6016-5.6016v-41.441c0-3.0938 2.5078-5.6016 5.6016-5.6016s5.6016 2.5078 5.6016 5.6016v41.441c0 3.0938-2.5078 5.6016-5.6016 5.6016z"/>
 
 </g>
</svg>
