<?xml version="1.0" encoding="UTF-8"?>
<svg width="700pt" height="700pt" version="1.1" viewBox="0 0 700 700" xmlns="http://www.w3.org/2000/svg" xmlns:xlink="http://www.w3.org/1999/xlink">

 <g>
  <path d="m256.53 383.27c-3.543 0.011719-6.6914-2.2461-7.8242-5.5977-5.7656-17.129-42.824-83.836-75.52-140.66-2.6211-4.5469-5.8359-8.7305-9.5508-12.434l-80.379-81.121c-2.9336-2.7969-4.7305-6.5781-5.0508-10.621-0.32031-4.043 0.86328-8.0586 3.3242-11.281 2.2734-3.3867 5.7188-5.8047 9.6758-6.7969 3.9531-0.98828 8.1367-0.47266 11.734 1.4414l202.09 99.895c9.5 4.6758 17.117 12.465 21.578 22.07l26.766 57.648h-0.003906c1.8633 3.6328 0.78125 8.082-2.5391 10.457-3.3242 2.375-7.8867 1.9531-10.719-0.98828-0.61328-0.69922-1.1406-1.4766-1.5625-2.3047l-26.93-57.648c-2.7578-6.3984-7.6875-11.621-13.918-14.738l-202.18-99.566c-0.82422 0-0.82422 0.74219-0.82422 0.74219l80.543 81.281h-0.003906c4.7852 4.7344 8.8867 10.113 12.188 15.977 20.59 35.66 69.34 121.22 76.918 143.54 1.3867 4.1992-0.79687 8.7461-4.9414 10.293-0.92188 0.33594-1.9023 0.47656-2.8789 0.41016z"/>
  <path d="m190.07 445.61c-46.281 0-69.422-23.059-70.742-24.707-2.293-2.4727-2.8477-6.0938-1.3984-9.1406 1.6914-3.1445 5.2148-4.8398 8.7305-4.1992 17.625 3.0469 51.555-4.9414 93.141-21.988 7.1523-2.9141 14.043-6.4414 20.586-10.543 20.645-11.895 41.988-22.535 63.906-31.871l29.316-41.176c19.023-29.895 68.434-41.176 70.492-42 16.469-3.0469 131.77-62.918 205.88-102.45h0.003906c2.5078-1.1992 5.4531-1.0508 7.8242 0.39453 2.375 1.4453 3.8633 3.9922 3.9531 6.7695v19.352c0 29.316-32.117 45.047-36.73 47.105l-117.43 68.438c-5.7578 3.3633-11.094 7.3984-15.895 12.023-14 13.508-27.176 30.305-28.578 42.492 9.0977-5.4297 19.816-7.4727 30.273-5.7695 10.457 1.6992 19.977 7.0391 26.879 15.074 10.168 4.207 18.543 11.836 23.672 21.566 5.1289 9.7344 6.6875 20.953 4.4102 31.719-0.79688 3.3398-3.5859 5.8359-7 6.2578-3.3828 0.38672-6.6562-1.3477-8.2344-4.3633-6.3438-6.1719-14.266-10.473-22.895-12.438h-0.90625c-9.8828-2.8516-20.316-3.25-30.387-1.1523-2.0586 0-3.1289 2.4688-3.543 3.375-21.574 52.789-161.99 30.637-186.86 26.355-18.734 6.9102-38.508 10.586-58.473 10.871zm-36.648-22.812c18.445 7 48.672 11.281 91.578-4.2812 1.4023-0.37891 2.8789-0.37891 4.2812 0 59.129 10.625 157.79 15.648 170.88-16.469v-0.003906c2.7422-7.0664 9-12.164 16.473-13.422 12.863-2.5586 26.164-1.8789 38.703 1.9766 5.668 1.6211 11.18 3.7422 16.473 6.3398-3.4336-8.8945-10.555-15.863-19.52-19.105-1.3711-0.54688-2.5508-1.4922-3.375-2.7188-1.7305-2.2227-17.707-21.66-45.789-1.2344-1.8516 1.3516-4.1797 1.875-6.4336 1.4375-2.25-0.4375-4.2148-1.7969-5.4258-3.7422-13.918-22.316 8.2344-51.305 29.48-71.648h0.003906c5.7812-5.5352 12.191-10.375 19.105-14.41l117.77-68.434 0.82422-0.49219c-0.003907-0.003906 26.844-12.359 26.844-32.371v-5.6016c-43.648 23.305-176.48 93.719-197.65 97.59 0 0-44.469 10.543-60.117 35.082l-30.961 42.824-0.41016 0.57812-34.754 48.34h-0.003906c-2.7773 3.2461-7.5742 3.8281-11.047 1.3398-3.4766-2.4883-4.4688-7.2188-2.293-10.895l16.883-23.555v0.003907c-12.23 5.6641-24.16 11.961-35.742 18.859-7.2188 4.5977-14.824 8.5664-22.73 11.859-23.473 10.008-47.965 17.434-73.047 22.152z"/>
  <path d="m274.81 406.49c-1.7188-0.007813-3.3867-0.55469-4.7773-1.5625-1.8008-1.2617-3.0195-3.1875-3.3906-5.3516-0.37109-2.168 0.13672-4.3906 1.4141-6.1797l34.672-48.422 0.98828-1.0703c1.5469-1.5586 3.6484-2.4375 5.8477-2.4375 2.1953 0 4.3008 0.87891 5.8438 2.4375 2.9492 3.0273 3.1289 7.7969 0.41406 11.035l-34.34 48.012h-0.003906c-1.5156 2.1914-4.0039 3.5117-6.668 3.5391z"/>

 </g>
</svg>
