<?xml version="1.0" encoding="utf-8"?>
<svg viewBox="260.918 48.221 313.174 366.649" xmlns="http://www.w3.org/2000/svg">
  <g transform="matrix(1, 0, 0, 1, 65.89196, -46.934181)">
    <path d="m495.3 320.11c-0.78516-2.9922-3.8516-4.7812-6.8359-3.9922l-0.042969 0.011718c-3.0625 0.80078-6.2773 1.2031-9.5469 1.2031-13.848 0-48.16-7.9727-67.559-81.855-18.715-71.254-61.812-81.895-85.84-81.895-6.9492 0-14.113 0.91797-20.691 2.6484-13.395 3.5156-78.926 25.898-53.848 121.36 5.8281 22.211 7.6211 39.895 6.8867 53.988-0.089843 0.41406-0.089843 0.83594-0.085937 1.2695-2.6602 41.754-27.789 51.145-34.355 52.879l-0.035156 0.011719c-2.9922 0.78516-4.7812 3.8477-3.9922 6.8359 0.65625 2.5156 2.9219 4.1758 5.4102 4.1758 0.46875 0 0.95312-0.0625 1.4297-0.18359l265.11-69.625c2.9961-0.78125 4.7812-3.8477 3.9922-6.8359zm-187.67-153.05c5.6719-1.4883 11.844-2.2734 17.852-2.2734 20.805 0 58.207 9.5547 75.012 73.539 5.2539 19.996 11.664 35.543 18.594 47.723l-149.94 39.379c-0.011719-14.023-2.1328-30.711-7.375-50.676-3.9297-14.938-20.152-90.348 45.859-107.69zm-53.676 210.64c6.9883-8.9141 12.898-21.895 14.656-40.566l156.73-41.16c10.879 15.52 22.5 23.852 32.641 28.152z"/>
    <path d="m290.59 443.12c2.3281 0 4.6602-0.30859 6.9336-0.90234 14.547-3.8203 23.27-18.766 19.449-33.305-3.1484-11.984-13.988-20.352-26.359-20.352-2.3359 0-4.6719 0.30078-6.9375 0.90234-7.043 1.8477-12.945 6.332-16.625 12.621-3.6797 6.2891-4.6797 13.637-2.8281 20.676 3.1406 11.988 13.988 20.359 26.367 20.359zm-13.875-35.383c2.168-3.707 5.6523-6.3516 9.8008-7.4414 1.3438-0.34766 2.7227-0.53125 4.0938-0.53125 7.293 0 13.668 4.9336 15.527 11.996 2.2461 8.5742-2.8945 17.383-11.465 19.629-8.4453 2.25-17.422-3.0703-19.633-11.465-1.0781-4.1562-0.49219-8.4805 1.6758-12.188z"/>
    <path d="m331.6 135.07c-0.37891 3.0703 1.7969 5.8672 4.8672 6.2422 21.668 2.6875 51.973 14.695 73.297 56.609 0.99219 1.9492 2.957 3.0625 5 3.0625 0.85156 0 1.7266-0.19531 2.5312-0.60547 2.7539-1.4062 3.8516-4.7773 2.4531-7.5312-23.551-46.297-57.539-59.617-81.902-62.641-3.0742-0.40625-5.8711 1.7891-6.2461 4.8633z"/>
    <path d="m269.86 158.81c2.4883-1.8359 3.0117-5.3438 1.1719-7.8281-1.8359-2.4766-5.3438-3.0195-7.8281-1.1719-19.609 14.504-42.57 42.59-40.594 94.035 0.11719 3.0195 2.5977 5.3867 5.5898 5.3867 0.078125 0 0.14453 0 0.21875-0.003907 3.0898-0.11719 5.5-2.7148 5.3828-5.8086-1.793-46.555 18.621-71.707 36.059-84.609z"/>
    <path d="m235.36 151.32c-2.4297-1.9219-5.9453-1.5078-7.8672 0.91406-8.418 10.625-14.965 22.77-19.453 36.086-0.99219 2.9297 0.58203 6.1094 3.5156 7.0938 0.58984 0.20312 1.1992 0.29688 1.7852 0.29688 2.3359 0 4.5195-1.4727 5.3047-3.8125 4.082-12.09 10.008-23.094 17.625-32.711 1.9258-2.4219 1.5156-5.9453-0.91016-7.8672z"/>
    <path d="m399.27 144.46c1.0703 0.96484 2.4141 1.4375 3.7461 1.4375 1.5273 0 3.0586-0.62109 4.168-1.8555 2.0664-2.3008 1.875-5.8398-0.42188-7.9141-10.449-9.3906-22.113-16.75-34.676-21.867-2.8789-1.1797-6.1328 0.20313-7.3008 3.0703-1.1719 2.8672 0.20703 6.1367 3.0703 7.3008 11.363 4.6289 21.93 11.301 31.414 19.828z"/>
  </g>
</svg>