<?xml version="1.0" encoding="utf-8"?>
<svg viewBox="313.784 320.911 418.796 512.902" xmlns="http://www.w3.org/2000/svg">
  <defs>
    <symbol id="w" overflow="visible">
      <path d="m0.03125 0h-0.015625-0.015625v-0.015625-0.015625h0.015625 0.015625-0.015625v0.015625 0.015625h0.015625v-0.015625z"/>
    </symbol>
    <symbol id="e" overflow="visible">
      <path d="m0.015625-0.015625v0.015625h-0.015625v-0.03125h0.015625v0.015625-0.015625z"/>
    </symbol>
    <symbol id="b" overflow="visible">
      <path d="m0.03125-0.015625h-0.015625v0.015625c0.0078125 0 0.015625-0.0039062 0.015625-0.015625v0.015625h-0.015625-0.015625v-0.015625l0.015625-0.015625v0.015625h0.015625z"/>
    </symbol>
    <symbol id="a" overflow="visible">
      <path d="m0.015625-0.015625v0.015625-0.015625zm0.015625 0v0.015625h-0.015625-0.015625v-0.015625h0.015625-0.015625v-0.015625h0.015625v0.015625h0.015625z"/>
    </symbol>
    <symbol id="d" overflow="visible">
      <path d="m0.015625-0.03125v0.015625 0.015625h-0.015625v-0.015625-0.015625z"/>
    </symbol>
    <symbol id="l" overflow="visible">
      <path d="m0.015625-0.015625v-0.015625h0.015625v0.03125h-0.015625-0.015625v-0.015625l0.015625-0.015625v0.015625zm0 0.015625v-0.015625 0.015625z"/>
    </symbol>
    <symbol id="k" overflow="visible">
      <path d="m0.015625 0v-0.015625 0.015625zm0-0.015625v-0.015625c0.0078125 0 0.015625 0.0078125 0.015625 0.015625v0.015625h-0.015625-0.015625v-0.03125h0.015625z"/>
    </symbol>
    <symbol id="j" overflow="visible">
      <path d="m0-0.03125h0.015625v0.015625-0.015625h0.015625l-0.015625 0.03125v0.015625h-0.015625v-0.015625h0.015625z"/>
    </symbol>
    <symbol id="i" overflow="visible">
      <path d="m0.015625-0.03125v0.015625 0.015625h0.015625v-0.015625c0-0.0078125-0.0078125-0.015625-0.015625-0.015625zm0 0h0.015625v0.015625 0.015625h-0.015625-0.015625v-0.015625-0.015625h0.015625z"/>
    </symbol>
    <symbol id="v" overflow="visible">
      <path d="m0-0.03125h0.015625v0.03125h-0.015625z"/>
    </symbol>
    <symbol id="f" overflow="visible">
      <path d="m0.03125-0.015625v0.015625h-0.015625v-0.015625 0.015625h-0.015625v-0.03125h0.015625v0.015625-0.015625c0.0078125 0 0.015625 0.0078125 0.015625 0.015625z"/>
    </symbol>
    <symbol id="h" overflow="visible">
      <path d="m0-0.03125h0.015625 0.015625v0.015625h-0.015625v0.015625h-0.015625zm0.015625 0v0.015625-0.015625z"/>
    </symbol>
    <symbol id="g" overflow="visible">
      <path d="m0.03125-0.03125v0.015625h-0.015625c0.0078125 0 0.015625 0.0078125 0.015625 0.015625h-0.015625-0.015625 0.015625v-0.015625h-0.015625l0.015625-0.015625h0.015625z"/>
    </symbol>
    <symbol id="c" overflow="visible">
      <path d="m0.015625-0.015625v0.015625-0.015625zm0-0.015625v0.015625h0.015625c0 0.011719-0.0078125 0.015625-0.015625 0.015625h-0.015625v-0.015625l0.015625-0.015625z"/>
    </symbol>
    <symbol id="u" overflow="visible">
      <path d="m0-0.03125h0.015625v0.015625-0.015625h0.015625l-0.015625 0.03125z"/>
    </symbol>
    <symbol id="t" overflow="visible">
      <path d="m0-0.03125h0.015625v0.015625-0.015625h0.015625l-0.015625 0.015625 0.015625 0.015625h-0.015625v-0.015625 0.015625h-0.015625z"/>
    </symbol>
    <symbol id="s" overflow="visible">
      <path d="m0.015625-0.03125v0.03125h-0.015625v-0.03125h0.015625z"/>
    </symbol>
    <symbol id="r" overflow="visible">
      <path d="m0.03125-0.015625v-0.015625c0.0078125 0 0.015625 0.0078125 0.015625 0.015625v0.015625h-0.015625v-0.015625 0.015625h-0.015625v-0.015625 0.015625h-0.015625v-0.03125h0.015625v0.015625-0.015625 0.015625h0.015625z"/>
    </symbol>
    <symbol id="q" overflow="visible">
      <path d="m0.03125-0.015625v0.015625h-0.015625v-0.015625 0.015625h-0.015625v-0.03125h0.015625v0.015625-0.015625c0.0078125 0 0.015625 0.0078125 0.015625 0.015625z"/>
    </symbol>
    <symbol id="p" overflow="visible">
      <path d="m0-0.03125h0.015625l0.015625 0.015625v-0.015625 0.03125l-0.015625-0.015625v0.015625h-0.015625z"/>
    </symbol>
    <symbol id="o" overflow="visible">
      <path d="m0-0.015625v-0.015625h0.015625v0.015625 0.015625-0.015625-0.015625h0.015625v0.03125h-0.015625-0.015625v-0.015625z"/>
    </symbol>
    <symbol id="n" overflow="visible">
      <path d="m0-0.03125h0.015625v0.03125h-0.015625v0.015625zm0 0h0.015625z"/>
    </symbol>
    <symbol id="m" overflow="visible">
      <path d="m0.03125-0.03125v0.015625h-0.015625v0.015625h0.015625-0.015625-0.015625v-0.015625l0.015625-0.015625h0.015625z"/>
    </symbol>
    <symbol id="symbol-1" overflow="visible">
      <path d="m0.03125 0h-0.015625-0.015625v-0.015625-0.015625h0.015625 0.015625-0.015625v0.015625 0.015625h0.015625v-0.015625z"/>
    </symbol>
    <symbol id="symbol-2" overflow="visible">
      <path d="m0.015625-0.015625v0.015625h-0.015625v-0.03125h0.015625v0.015625-0.015625z"/>
    </symbol>
    <symbol id="symbol-3" overflow="visible">
      <path d="m0.03125-0.015625h-0.015625v0.015625c0.0078125 0 0.015625-0.0039062 0.015625-0.015625v0.015625h-0.015625-0.015625v-0.015625l0.015625-0.015625v0.015625h0.015625z"/>
    </symbol>
    <symbol id="symbol-4" overflow="visible">
      <path d="m0.015625-0.015625v0.015625-0.015625zm0.015625 0v0.015625h-0.015625-0.015625v-0.015625h0.015625-0.015625v-0.015625h0.015625v0.015625h0.015625z"/>
    </symbol>
    <symbol id="symbol-5" overflow="visible">
      <path d="m0.015625-0.03125v0.015625 0.015625h-0.015625v-0.015625-0.015625z"/>
    </symbol>
    <symbol id="symbol-6" overflow="visible">
      <path d="m0.015625-0.015625v-0.015625h0.015625v0.03125h-0.015625-0.015625v-0.015625l0.015625-0.015625v0.015625zm0 0.015625v-0.015625 0.015625z"/>
    </symbol>
    <symbol id="symbol-7" overflow="visible">
      <path d="m0.015625 0v-0.015625 0.015625zm0-0.015625v-0.015625c0.0078125 0 0.015625 0.0078125 0.015625 0.015625v0.015625h-0.015625-0.015625v-0.03125h0.015625z"/>
    </symbol>
    <symbol id="symbol-8" overflow="visible">
      <path d="m0-0.03125h0.015625v0.015625-0.015625h0.015625l-0.015625 0.03125v0.015625h-0.015625v-0.015625h0.015625z"/>
    </symbol>
    <symbol id="symbol-9" overflow="visible">
      <path d="m0.015625-0.03125v0.015625 0.015625h0.015625v-0.015625c0-0.0078125-0.0078125-0.015625-0.015625-0.015625zm0 0h0.015625v0.015625 0.015625h-0.015625-0.015625v-0.015625-0.015625h0.015625z"/>
    </symbol>
    <symbol id="symbol-10" overflow="visible">
      <path d="m0-0.03125h0.015625v0.03125h-0.015625z"/>
    </symbol>
    <symbol id="symbol-11" overflow="visible">
      <path d="m0.03125-0.015625v0.015625h-0.015625v-0.015625 0.015625h-0.015625v-0.03125h0.015625v0.015625-0.015625c0.0078125 0 0.015625 0.0078125 0.015625 0.015625z"/>
    </symbol>
    <symbol id="symbol-12" overflow="visible">
      <path d="m0-0.03125h0.015625 0.015625v0.015625h-0.015625v0.015625h-0.015625zm0.015625 0v0.015625-0.015625z"/>
    </symbol>
    <symbol id="symbol-13" overflow="visible">
      <path d="m0.03125-0.03125v0.015625h-0.015625c0.0078125 0 0.015625 0.0078125 0.015625 0.015625h-0.015625-0.015625 0.015625v-0.015625h-0.015625l0.015625-0.015625h0.015625z"/>
    </symbol>
    <symbol id="symbol-14" overflow="visible">
      <path d="m0.015625-0.015625v0.015625-0.015625zm0-0.015625v0.015625h0.015625c0 0.011719-0.0078125 0.015625-0.015625 0.015625h-0.015625v-0.015625l0.015625-0.015625z"/>
    </symbol>
    <symbol id="symbol-15" overflow="visible">
      <path d="m0-0.03125h0.015625v0.015625-0.015625h0.015625l-0.015625 0.03125z"/>
    </symbol>
    <symbol id="symbol-16" overflow="visible">
      <path d="m0-0.03125h0.015625v0.015625-0.015625h0.015625l-0.015625 0.015625 0.015625 0.015625h-0.015625v-0.015625 0.015625h-0.015625z"/>
    </symbol>
    <symbol id="symbol-17" overflow="visible">
      <path d="m0.015625-0.03125v0.03125h-0.015625v-0.03125h0.015625z"/>
    </symbol>
    <symbol id="symbol-18" overflow="visible">
      <path d="m0.03125-0.015625v-0.015625c0.0078125 0 0.015625 0.0078125 0.015625 0.015625v0.015625h-0.015625v-0.015625 0.015625h-0.015625v-0.015625 0.015625h-0.015625v-0.03125h0.015625v0.015625-0.015625 0.015625h0.015625z"/>
    </symbol>
    <symbol id="symbol-19" overflow="visible">
      <path d="m0.03125-0.015625v0.015625h-0.015625v-0.015625 0.015625h-0.015625v-0.03125h0.015625v0.015625-0.015625c0.0078125 0 0.015625 0.0078125 0.015625 0.015625z"/>
    </symbol>
    <symbol id="symbol-20" overflow="visible">
      <path d="m0-0.03125h0.015625l0.015625 0.015625v-0.015625 0.03125l-0.015625-0.015625v0.015625h-0.015625z"/>
    </symbol>
    <symbol id="symbol-21" overflow="visible">
      <path d="m0-0.015625v-0.015625h0.015625v0.015625 0.015625-0.015625-0.015625h0.015625v0.03125h-0.015625-0.015625v-0.015625z"/>
    </symbol>
    <symbol id="symbol-22" overflow="visible">
      <path d="m0-0.03125h0.015625v0.03125h-0.015625v0.015625zm0 0h0.015625z"/>
    </symbol>
    <symbol id="symbol-23" overflow="visible">
      <path d="m0.03125-0.03125v0.015625h-0.015625v0.015625h0.015625-0.015625-0.015625v-0.015625l0.015625-0.015625h0.015625z"/>
    </symbol>
    <symbol id="symbol-24" overflow="visible">
      <path d="m0.375-0.03125c-0.023438 0.011719-0.042969 0.023438-0.0625 0.03125-0.023438 0.0078125-0.042969 0.015625-0.0625 0.015625-0.0625 0-0.11719-0.019531-0.15625-0.0625-0.042969-0.039062-0.0625-0.09375-0.0625-0.15625s0.019531-0.11328 0.0625-0.15625c0.039062-0.039063 0.09375-0.0625 0.15625-0.0625 0.019531 0 0.039062 0.007813 0.0625 0.015625 0.019531 0 0.039062 0.007812 0.0625 0.015625v0.09375c-0.023438-0.019531-0.042969-0.03125-0.0625-0.03125-0.023438-0.007813-0.042969-0.015625-0.0625-0.015625-0.03125 0-0.058594 0.015625-0.078125 0.046875-0.023437 0.023437-0.03125 0.054687-0.03125 0.09375 0 0.042969 0.007813 0.078125 0.03125 0.10938 0.019531 0.023438 0.046875 0.03125 0.078125 0.03125 0.019531 0 0.039062-0.0039062 0.0625-0.015625 0.019531-0.0078125 0.039062-0.019531 0.0625-0.03125z"/>
    </symbol>
    <symbol id="symbol-25" overflow="visible">
      <path d="m0.26562-0.21875c0-0.007812-0.007813-0.015625-0.015625-0.015625h-0.015625c-0.03125 0-0.054687 0.011719-0.0625 0.03125-0.011719 0.011719-0.015625 0.03125-0.015625 0.0625v0.14062h-0.10938v-0.3125h0.10938v0.0625c0.007812-0.019531 0.019531-0.035156 0.03125-0.046875 0.007812-0.007813 0.03125-0.015625 0.0625-0.015625h0.015625z"/>
    </symbol>
    <symbol id="symbol-26" overflow="visible">
      <path d="m0.34375-0.15625v0.03125h-0.21875c0 0.023438 0.003906 0.039062 0.015625 0.046875 0.019531 0.011719 0.039063 0.015625 0.0625 0.015625h0.0625c0.03125-0.0078125 0.054687-0.019531 0.078125-0.03125v0.078125c-0.023438 0-0.046875 0.0078125-0.078125 0.015625-0.023437 0.0078125-0.042969 0.015625-0.0625 0.015625-0.0625 0-0.10938-0.015625-0.14062-0.046875-0.023438-0.03125-0.03125-0.070312-0.03125-0.125 0-0.050781 0.0078125-0.085938 0.03125-0.10938 0.03125-0.03125 0.070312-0.046875 0.125-0.046875 0.050781 0 0.085938 0.015625 0.10938 0.046875 0.03125 0.023437 0.046875 0.058594 0.046875 0.10938zm-0.09375-0.03125c0-0.019531-0.007812-0.035156-0.015625-0.046875-0.011719-0.007813-0.027344-0.015625-0.046875-0.015625-0.011719 0-0.027344 0.007812-0.046875 0.015625-0.011719 0.011719-0.015625 0.027344-0.015625 0.046875z"/>
    </symbol>
    <symbol id="symbol-27" overflow="visible">
      <path d="m0.1875-0.14062c-0.023438 0-0.039062 0.007813-0.046875 0.015625-0.011719 0.011719-0.015625 0.023438-0.015625 0.03125 0 0.011719 0.003906 0.023438 0.015625 0.03125h0.03125c0.019531 0 0.035156-0.0039062 0.046875-0.015625 0.007812-0.0078125 0.015625-0.023437 0.015625-0.046875v-0.015625zm0.14062-0.03125v0.17188h-0.09375v-0.046875c-0.011719 0.023438-0.027344 0.039062-0.046875 0.046875-0.011719 0.0078125-0.03125 0.015625-0.0625 0.015625-0.023438 0-0.042969-0.011719-0.0625-0.03125-0.023438-0.019531-0.03125-0.046875-0.03125-0.078125 0-0.039062 0.0078125-0.066406 0.03125-0.078125 0.019531-0.007813 0.054688-0.015625 0.10938-0.015625h0.0625v-0.015625c0-0.019531-0.007813-0.03125-0.015625-0.03125-0.011719-0.007813-0.03125-0.015625-0.0625-0.015625-0.023438 0-0.042969 0.007812-0.0625 0.015625h-0.046875v-0.0625c0.019531-0.007813 0.039062-0.015625 0.0625-0.015625h0.0625c0.0625 0 0.10156 0.011719 0.125 0.03125 0.019531 0.023438 0.03125 0.058594 0.03125 0.10938z"/>
    </symbol>
    <symbol id="symbol-28" overflow="visible">
      <path d="m0.15625-0.39062v0.078125h0.09375v0.078125h-0.09375v0.125 0.03125c0.007812 0.011719 0.019531 0.015625 0.03125 0.015625h0.0625v0.0625h-0.078125c-0.042969 0-0.074219-0.0039062-0.09375-0.015625-0.023438-0.019531-0.03125-0.050781-0.03125-0.09375v-0.125h-0.03125v-0.078125h0.03125v-0.078125z"/>
    </symbol>
    <symbol id="symbol-29" overflow="visible">
      <path d="m0.25-0.26562v-0.15625h0.09375v0.42188h-0.09375v-0.046875c-0.011719 0.023438-0.027344 0.039062-0.046875 0.046875-0.011719 0.0078125-0.027344 0.015625-0.046875 0.015625-0.042969 0-0.074219-0.015625-0.09375-0.046875-0.023438-0.03125-0.03125-0.070312-0.03125-0.125 0-0.050781 0.0078125-0.085938 0.03125-0.10938 0.019531-0.03125 0.050781-0.046875 0.09375-0.046875 0.019531 0 0.035156 0.007812 0.046875 0.015625 0.019531 0.011719 0.035156 0.023437 0.046875 0.03125zm-0.0625 0.20312c0.019531 0 0.035156-0.0039062 0.046875-0.015625 0.007813-0.019531 0.015625-0.046875 0.015625-0.078125 0-0.019531-0.007812-0.039062-0.015625-0.0625-0.011719-0.019531-0.027344-0.03125-0.046875-0.03125-0.023438 0-0.039062 0.011719-0.046875 0.03125-0.011719 0.023438-0.015625 0.042969-0.015625 0.0625 0 0.03125 0.003906 0.058594 0.015625 0.078125 0.007813 0.011719 0.023437 0.015625 0.046875 0.015625z"/>
    </symbol>
    <symbol id="symbol-30" overflow="visible">
      <path d="m0.20312-0.0625c0.03125 0 0.046875-0.0039062 0.046875-0.015625 0.007812-0.019531 0.015625-0.046875 0.015625-0.078125 0-0.019531-0.007813-0.039062-0.015625-0.0625 0-0.019531-0.015625-0.03125-0.046875-0.03125-0.023437 0-0.039063 0.011719-0.046875 0.03125v0.0625 0.078125c0.007812 0.011719 0.023438 0.015625 0.046875 0.015625zm-0.046875-0.20312c0.007812-0.007813 0.019531-0.019531 0.03125-0.03125 0.019531-0.007813 0.039062-0.015625 0.0625-0.015625 0.039062 0 0.070312 0.015625 0.09375 0.046875 0.019531 0.023437 0.03125 0.058594 0.03125 0.10938 0 0.054688-0.011719 0.09375-0.03125 0.125-0.023438 0.03125-0.054688 0.046875-0.09375 0.046875-0.023438 0-0.042969-0.0078125-0.0625-0.015625-0.011719-0.0078125-0.023438-0.023438-0.03125-0.046875v0.046875h-0.10938v-0.42188h0.10938z"/>
    </symbol>
    <symbol id="symbol-31" overflow="visible">
      <path d="m0.015625-0.3125h0.09375l0.078125 0.21875 0.0625-0.21875h0.10938l-0.125 0.34375c-0.023437 0.03125-0.042969 0.050781-0.0625 0.0625-0.011719 0.019531-0.03125 0.03125-0.0625 0.03125h-0.0625v-0.078125h0.046875 0.015625c0.007813 0 0.019531-0.011719 0.03125-0.03125z"/>
    </symbol>
    <symbol id="symbol-32" overflow="visible">
      <path d="m0.046875-0.40625h0.125l0.14062 0.28125v-0.28125h0.10938v0.40625h-0.125l-0.14062-0.28125v0.28125h-0.10938z"/>
    </symbol>
    <symbol id="symbol-33" overflow="visible">
      <path d="m0.28125-0.29688v0.078125c-0.023438-0.007812-0.042969-0.015625-0.0625-0.015625-0.023438-0.007813-0.039062-0.015625-0.046875-0.015625-0.023437 0-0.039063 0.007812-0.046875 0.015625-0.011719 0-0.015625 0.007813-0.015625 0.015625 0 0.011719 0.003906 0.023438 0.015625 0.03125h0.046875 0.015625c0.039062 0 0.070312 0.011719 0.09375 0.03125 0.019531 0.011719 0.03125 0.03125 0.03125 0.0625s-0.015625 0.058594-0.046875 0.078125c-0.023437 0.019531-0.054687 0.03125-0.09375 0.03125-0.03125 0-0.058594-0.0078125-0.078125-0.015625-0.023438 0-0.042969-0.0039062-0.0625-0.015625v-0.078125c0.019531 0.023438 0.039062 0.03125 0.0625 0.03125h0.0625 0.03125c0.007812 0 0.015625-0.0078125 0.015625-0.03125 0-0.007812-0.007813-0.015625-0.015625-0.015625 0 0-0.007812-0.003906-0.015625-0.015625h-0.015625c-0.054688 0-0.089844-0.003906-0.10938-0.015625-0.011719-0.019531-0.015625-0.046875-0.015625-0.078125s0.0078125-0.050781 0.03125-0.0625c0.019531-0.019531 0.054688-0.03125 0.10938-0.03125h0.046875c0.019531 0 0.039062 0.007812 0.0625 0.015625z"/>
    </symbol>
    <symbol id="symbol-34" overflow="visible">
      <path d="m0.35938-0.1875v0.1875h-0.10938v-0.14062-0.046875-0.03125c0-0.007812-0.007812-0.015625-0.015625-0.015625h-0.03125c-0.011719 0-0.023437 0.011719-0.03125 0.03125-0.011719 0.011719-0.015625 0.027344-0.015625 0.046875v0.15625h-0.10938v-0.3125h0.10938v0.046875c0.007812-0.007813 0.019531-0.019531 0.03125-0.03125 0.019531-0.007813 0.039062-0.015625 0.0625-0.015625 0.03125 0 0.054688 0.011719 0.078125 0.03125 0.019531 0.023438 0.03125 0.054688 0.03125 0.09375z"/>
    </symbol>
    <symbol id="symbol-35" overflow="visible">
      <path d="m0.046875-0.42188h0.10938v0.23438l0.09375-0.125h0.125l-0.15625 0.14062 0.17188 0.17188h-0.125l-0.10938-0.125v0.125h-0.10938z"/>
    </symbol>
    <symbol id="symbol-36" overflow="visible">
      <path d="m0.1875-0.25c-0.023438 0-0.039062 0.011719-0.046875 0.03125-0.011719 0.011719-0.015625 0.03125-0.015625 0.0625s0.003906 0.058594 0.015625 0.078125c0.007813 0.011719 0.023437 0.015625 0.046875 0.015625 0.03125 0 0.050781-0.0039062 0.0625-0.015625 0.007812-0.019531 0.015625-0.046875 0.015625-0.078125s-0.007813-0.050781-0.015625-0.0625c-0.011719-0.019531-0.03125-0.03125-0.0625-0.03125zm0-0.0625c0.050781 0 0.09375 0.015625 0.125 0.046875 0.03125 0.023437 0.046875 0.058594 0.046875 0.10938 0 0.054688-0.015625 0.09375-0.046875 0.125s-0.074219 0.046875-0.125 0.046875c-0.054688 0-0.09375-0.015625-0.125-0.046875-0.023438-0.03125-0.03125-0.070312-0.03125-0.125 0-0.050781 0.0078125-0.085938 0.03125-0.10938 0.03125-0.03125 0.070312-0.046875 0.125-0.046875z"/>
    </symbol>
    <symbol id="symbol-37" overflow="visible">
      <path d="m0.20312-0.23438h0.046875c0.007812-0.007813 0.015625-0.023437 0.015625-0.046875 0-0.019531-0.007813-0.03125-0.015625-0.03125-0.011719-0.007812-0.027344-0.015625-0.046875-0.015625h-0.046875v0.09375zm-0.046875 0.078125v0.15625h-0.10938v-0.40625h0.15625c0.050781 0 0.09375 0.011719 0.125 0.03125 0.03125 0.023438 0.046875 0.046875 0.046875 0.078125s-0.011719 0.058594-0.03125 0.078125c-0.011719 0.011719-0.03125 0.023438-0.0625 0.03125 0.019531 0 0.035156 0.007812 0.046875 0.015625 0.007813 0.011719 0.019531 0.03125 0.03125 0.0625l0.0625 0.10938h-0.10938l-0.046875-0.10938c-0.011719-0.007813-0.027344-0.019531-0.046875-0.03125-0.011719-0.007813-0.023438-0.015625-0.03125-0.015625z"/>
    </symbol>
    <symbol id="symbol-38" overflow="visible">
      <path d="m0.046875-0.125v-0.1875h0.09375v0.03125 0.078125 0.03125 0.0625c0.007813 0.011719 0.015625 0.015625 0.015625 0.015625v0.03125h0.03125c0.019531 0 0.035156-0.0039062 0.046875-0.015625 0.007813-0.019531 0.015625-0.046875 0.015625-0.078125v-0.15625h0.09375v0.3125h-0.09375v-0.046875c-0.011719 0.023438-0.027344 0.039062-0.046875 0.046875-0.011719 0.0078125-0.027344 0.015625-0.046875 0.015625-0.042969 0-0.074219-0.011719-0.09375-0.03125-0.011719-0.03125-0.015625-0.066406-0.015625-0.10938z"/>
    </symbol>
    <symbol id="symbol-39" overflow="visible">
      <path d="m0.046875-0.42188h0.10938v0.42188h-0.10938z"/>
    </symbol>
    <symbol id="symbol-40" overflow="visible">
      <path d="m0.25-0.42188v0.0625h-0.0625c-0.011719 0-0.023438 0.007813-0.03125 0.015625v0.015625 0.015625h0.09375v0.078125h-0.09375v0.23438h-0.09375v-0.23438h-0.046875v-0.078125h0.046875v-0.015625c0-0.03125 0.0039062-0.050781 0.015625-0.0625 0.019531-0.019531 0.050781-0.03125 0.09375-0.03125z"/>
    </symbol>
    <symbol id="symbol-41" overflow="visible">
      <path d="m0.32812-0.25c0.007813-0.019531 0.023437-0.035156 0.046875-0.046875 0.019531-0.007813 0.035156-0.015625 0.046875-0.015625 0.039063 0 0.070313 0.011719 0.09375 0.03125 0.019531 0.023438 0.03125 0.054688 0.03125 0.09375v0.1875h-0.10938v-0.15625-0.015625c0-0.019531-0.007812-0.035156-0.015625-0.046875 0-0.007812-0.007813-0.015625-0.015625-0.015625-0.023438 0-0.039062 0.011719-0.046875 0.03125-0.011719 0.011719-0.015625 0.027344-0.015625 0.046875v0.15625h-0.09375v-0.15625c0-0.03125-0.007812-0.050781-0.015625-0.0625 0-0.007812-0.011719-0.015625-0.03125-0.015625-0.023437 0-0.039063 0.011719-0.046875 0.03125v0.046875 0.15625h-0.10938v-0.3125h0.10938v0.046875c0.007812-0.007813 0.019531-0.019531 0.03125-0.03125 0.007812-0.007813 0.023438-0.015625 0.046875-0.015625 0.019531 0 0.035156 0.007812 0.046875 0.015625 0.019531 0.011719 0.035156 0.027344 0.046875 0.046875z"/>
    </symbol>
    <symbol id="symbol-42" overflow="visible">
      <path d="m0.35938-0.1875v0.1875h-0.10938v-0.14062-0.046875-0.03125c0-0.007812-0.007812-0.015625-0.015625-0.015625h-0.03125c-0.011719 0-0.023437 0.011719-0.03125 0.03125-0.011719 0.011719-0.015625 0.027344-0.015625 0.046875v0.15625h-0.10938v-0.42188h0.10938v0.15625c0.007812-0.007813 0.019531-0.019531 0.03125-0.03125 0.019531-0.007813 0.039062-0.015625 0.0625-0.015625 0.03125 0 0.054688 0.011719 0.078125 0.03125 0.019531 0.023438 0.03125 0.054688 0.03125 0.09375z"/>
    </symbol>
    <symbol id="symbol-43" overflow="visible">
      <path d="m0.046875-0.40625h0.1875c0.050781 0 0.085937 0.011719 0.10938 0.03125 0.03125 0.023438 0.046875 0.058594 0.046875 0.10938 0 0.042969-0.015625 0.074219-0.046875 0.09375-0.023438 0.023437-0.058594 0.03125-0.10938 0.03125h-0.078125v0.14062h-0.10938zm0.10938 0.078125v0.10938h0.0625c0.019531 0 0.035156-0.003906 0.046875-0.015625 0.007813-0.007813 0.015625-0.019531 0.015625-0.03125 0-0.03125-0.007812-0.046875-0.015625-0.046875-0.011719-0.007812-0.027344-0.015625-0.046875-0.015625z"/>
    </symbol>
    <symbol id="symbol-44" overflow="visible">
      <path d="m0.046875-0.3125h0.10938v0.29688c0 0.039062-0.011719 0.070312-0.03125 0.09375-0.023438 0.03125-0.054688 0.046875-0.09375 0.046875h-0.046875v-0.078125h0.015625c0.019531 0 0.03125-0.0078125 0.03125-0.015625 0.0078125 0 0.015625-0.015625 0.015625-0.046875zm0-0.10938h0.10938v0.078125h-0.10938z"/>
    </symbol>
    <symbol id="symbol-45" overflow="visible">
      <path d="m0.29688-0.29688v0.078125c-0.023437-0.007812-0.039063-0.015625-0.046875-0.015625-0.011719-0.007813-0.027344-0.015625-0.046875-0.015625-0.023437 0-0.042969 0.011719-0.0625 0.03125-0.011719 0.023438-0.015625 0.042969-0.015625 0.0625 0 0.03125 0.003906 0.058594 0.015625 0.078125 0.019531 0.011719 0.039063 0.015625 0.0625 0.015625h0.046875c0.019531-0.0078125 0.035156-0.019531 0.046875-0.03125v0.078125c-0.023437 0.011719-0.039063 0.015625-0.046875 0.015625-0.011719 0.0078125-0.027344 0.015625-0.046875 0.015625-0.0625 0-0.10938-0.015625-0.14062-0.046875-0.023438-0.03125-0.03125-0.070312-0.03125-0.125 0-0.050781 0.0078125-0.085938 0.03125-0.10938 0.03125-0.03125 0.078125-0.046875 0.14062-0.046875h0.046875c0.007812 0 0.023438 0.007812 0.046875 0.015625z"/>
    </symbol>
    <symbol id="symbol-46" overflow="visible">
      <path d="m1.875-0.10938c-0.09375 0.054688-0.19531 0.089844-0.29688 0.10938-0.10547 0.03125-0.21484 0.046875-0.32812 0.046875-0.34375 0-0.61719-0.09375-0.8125-0.28125-0.19922-0.19531-0.29688-0.45703-0.29688-0.78125 0-0.32031 0.097656-0.57812 0.29688-0.76562 0.19531-0.19531 0.46875-0.29688 0.8125-0.29688 0.11328 0 0.22266 0.015625 0.32812 0.046875 0.10156 0.023438 0.20312 0.058594 0.29688 0.10938v0.42188c-0.09375-0.070312-0.19531-0.11719-0.29688-0.14062-0.09375-0.03125-0.19531-0.046875-0.29688-0.046875-0.1875 0-0.33594 0.0625-0.4375 0.1875-0.10547 0.11719-0.15625 0.27734-0.15625 0.48438 0 0.21094 0.050781 0.375 0.15625 0.5 0.10156 0.11719 0.25 0.17188 0.4375 0.17188 0.10156 0 0.20312-0.015625 0.29688-0.046875 0.10156-0.03125 0.20312-0.078125 0.29688-0.14062z"/>
    </symbol>
    <symbol id="symbol-47" overflow="visible">
      <path d="m1.375-1.1094c-0.042969-0.019531-0.085938-0.035156-0.125-0.046875-0.042969-0.007812-0.089844-0.015625-0.14062-0.015625-0.125 0-0.22656 0.042969-0.29688 0.125-0.0625 0.074219-0.09375 0.1875-0.09375 0.34375v0.70312h-0.48438v-1.5312h0.48438v0.25c0.0625-0.09375 0.13281-0.16016 0.21875-0.20312 0.082031-0.050781 0.17969-0.078125 0.29688-0.078125h0.046875 0.09375z"/>
    </symbol>
    <symbol id="symbol-48" overflow="visible">
      <path d="m1.7656-0.76562v0.14062h-1.1406c0.007812 0.11719 0.046875 0.20312 0.10938 0.26562 0.070313 0.054687 0.17578 0.078125 0.3125 0.078125 0.09375 0 0.19141-0.015625 0.29688-0.046875 0.11328-0.03125 0.22656-0.078125 0.34375-0.14062v0.375c-0.11719 0.042969-0.23047 0.074219-0.34375 0.09375-0.11719 0.03125-0.23047 0.046875-0.34375 0.046875-0.28125 0-0.5-0.066406-0.65625-0.20312-0.14844-0.14453-0.21875-0.34766-0.21875-0.60938 0-0.25 0.070312-0.44141 0.21875-0.57812 0.15625-0.14453 0.36328-0.21875 0.625-0.21875 0.23828 0 0.42969 0.074219 0.57812 0.21875 0.14453 0.14844 0.21875 0.33984 0.21875 0.57812zm-0.5-0.17188c0-0.09375-0.03125-0.16406-0.09375-0.21875-0.054687-0.050781-0.12109-0.078125-0.20312-0.078125-0.09375 0-0.17188 0.027344-0.23438 0.078125-0.0625 0.054688-0.10156 0.125-0.10938 0.21875z"/>
    </symbol>
    <symbol id="symbol-49" overflow="visible">
      <path d="m0.92188-0.6875c-0.10547 0-0.18359 0.023438-0.23438 0.0625-0.054688 0.03125-0.078125 0.078125-0.078125 0.14062s0.019531 0.11719 0.0625 0.15625c0.039063 0.03125 0.097656 0.046875 0.17188 0.046875 0.09375 0 0.17188-0.03125 0.23438-0.09375 0.0625-0.070312 0.09375-0.15625 0.09375-0.25v-0.0625zm0.75-0.1875v0.875h-0.5v-0.23438c-0.0625 0.09375-0.13672 0.16797-0.21875 0.21875-0.085937 0.039062-0.18359 0.0625-0.29688 0.0625-0.15625 0-0.28906-0.046875-0.39062-0.14062-0.09375-0.09375-0.14062-0.21094-0.14062-0.35938 0-0.1875 0.054688-0.32031 0.17188-0.40625 0.125-0.082031 0.32031-0.125 0.59375-0.125h0.28125v-0.03125c0-0.082031-0.03125-0.14062-0.09375-0.17188s-0.15625-0.046875-0.28125-0.046875c-0.10547 0-0.20312 0.011719-0.29688 0.03125-0.085938 0.023437-0.16797 0.054687-0.25 0.09375v-0.375c0.10156-0.03125 0.20703-0.050781 0.3125-0.0625 0.11328-0.007813 0.22266-0.015625 0.32812-0.015625 0.26953 0 0.46875 0.058594 0.59375 0.17188 0.125 0.10547 0.1875 0.27734 0.1875 0.51562z"/>
    </symbol>
    <symbol id="symbol-50" overflow="visible">
      <path d="m0.76562-1.9688v0.4375h0.5v0.34375h-0.5v0.65625c0 0.074219 0.015625 0.125 0.046875 0.15625 0.03125 0.023438 0.085938 0.03125 0.17188 0.03125h0.25v0.34375h-0.42188c-0.19922 0-0.33984-0.035156-0.42188-0.10938-0.074219-0.082031-0.10938-0.22266-0.10938-0.42188v-0.65625h-0.25v-0.34375h0.25v-0.4375z"/>
    </symbol>
    <symbol id="symbol-51" overflow="visible">
      <path d="m1.2812-1.3125v-0.8125h0.48438v2.125h-0.48438v-0.21875c-0.074219 0.085938-0.15234 0.15234-0.23438 0.20312-0.074219 0.039062-0.16797 0.0625-0.28125 0.0625-0.1875 0-0.34375-0.070312-0.46875-0.21875-0.11719-0.15625-0.17188-0.35156-0.17188-0.59375 0-0.22656 0.054688-0.41406 0.17188-0.5625 0.125-0.15625 0.28125-0.23438 0.46875-0.23438 0.11328 0 0.20703 0.023438 0.28125 0.0625 0.082031 0.042969 0.16016 0.10547 0.23438 0.1875zm-0.32812 1c0.10156 0 0.17969-0.035156 0.23438-0.10938 0.0625-0.082031 0.09375-0.19531 0.09375-0.34375 0-0.14453-0.03125-0.25391-0.09375-0.32812-0.054688-0.082031-0.13281-0.125-0.23438-0.125-0.10547 0-0.1875 0.042969-0.25 0.125-0.054687 0.074219-0.078125 0.18359-0.078125 0.32812 0 0.14844 0.023438 0.26172 0.078125 0.34375 0.0625 0.074219 0.14453 0.10938 0.25 0.10938z"/>
    </symbol>
    <symbol id="symbol-52" overflow="visible">
      <path d="m1.0469-0.3125c0.10156 0 0.17969-0.035156 0.23438-0.10938 0.0625-0.082031 0.09375-0.19531 0.09375-0.34375 0-0.14453-0.03125-0.25391-0.09375-0.32812-0.054688-0.082031-0.13281-0.125-0.23438-0.125-0.10547 0-0.1875 0.042969-0.25 0.125-0.054687 0.074219-0.078125 0.18359-0.078125 0.32812 0 0.14844 0.023438 0.26172 0.078125 0.34375 0.0625 0.074219 0.14453 0.10938 0.25 0.10938zm-0.32812-1c0.070312-0.082031 0.14844-0.14453 0.23438-0.1875 0.082031-0.039062 0.17578-0.0625 0.28125-0.0625 0.1875 0 0.33594 0.078125 0.45312 0.23438 0.125 0.14844 0.1875 0.33594 0.1875 0.5625 0 0.24219-0.0625 0.4375-0.1875 0.59375-0.11719 0.14844-0.26562 0.21875-0.45312 0.21875-0.10547 0-0.19922-0.023438-0.28125-0.0625-0.085937-0.050781-0.16406-0.11719-0.23438-0.20312v0.21875h-0.48438v-2.125h0.48438z"/>
    </symbol>
    <symbol id="symbol-53" overflow="visible">
      <path d="m0.03125-1.5312h0.48438l0.42188 1.0469 0.34375-1.0469h0.48438l-0.64062 1.6719c-0.0625 0.17578-0.13672 0.29688-0.21875 0.35938-0.085938 0.070312-0.19922 0.10938-0.34375 0.10938h-0.28125v-0.32812h0.15625c0.082031 0 0.14062-0.015625 0.17188-0.046875 0.039063-0.023437 0.070313-0.070313 0.09375-0.14062l0.015625-0.03125z"/>
    </symbol>
    <symbol id="symbol-54" overflow="visible">
      <path d="m0.25-2.0312h0.53125v2.0312h-0.53125z"/>
    </symbol>
    <symbol id="symbol-55" overflow="visible">
      <path d="m-0.03125-2.0312h0.57812l0.46875 0.71875 0.45312-0.71875h0.57812l-0.76562 1.1719v0.85938h-0.53125v-0.85938z"/>
    </symbol>
    <symbol id="symbol-56" overflow="visible">
      <path d="m0.25-2.0312h0.53125v0.73438l0.76562-0.73438h0.60938l-0.98438 0.95312 1.0781 1.0781h-0.65625l-0.8125-0.79688v0.79688h-0.53125z"/>
    </symbol>
    <symbol id="symbol-57" overflow="visible">
      <path d="m1.1875-1.6875c-0.15625 0-0.28125 0.058594-0.375 0.17188-0.085938 0.11719-0.125 0.28125-0.125 0.5 0 0.21094 0.039062 0.375 0.125 0.5 0.09375 0.11719 0.21875 0.17188 0.375 0.17188 0.16406 0 0.28906-0.054688 0.375-0.17188 0.082031-0.125 0.125-0.28906 0.125-0.5 0-0.21875-0.042969-0.38281-0.125-0.5-0.085938-0.11328-0.21094-0.17188-0.375-0.17188zm0-0.39062c0.33203 0 0.58594 0.09375 0.76562 0.28125 0.1875 0.1875 0.28125 0.44922 0.28125 0.78125 0 0.33594-0.09375 0.59375-0.28125 0.78125-0.17969 0.1875-0.43359 0.28125-0.76562 0.28125-0.32422 0-0.57812-0.09375-0.76562-0.28125s-0.28125-0.44531-0.28125-0.78125c0-0.33203 0.09375-0.59375 0.28125-0.78125s0.44141-0.28125 0.76562-0.28125z"/>
    </symbol>
    <symbol id="symbol-58" overflow="visible">
      <path d="m0.25-2.0312h0.59375l0.73438 1.3906v-1.3906h0.5v2.0312h-0.57812l-0.75-1.4062v1.4062h-0.5z"/>
    </symbol>
    <symbol id="symbol-59" overflow="visible">
      <path d="m1.2344-2.125v0.32812h-0.26562c-0.0625 0-0.10938 0.011719-0.14062 0.03125-0.03125 0.023437-0.046875 0.0625-0.046875 0.125v0.10938h0.42188v0.34375h-0.42188v1.1875h-0.48438v-1.1875h-0.25v-0.34375h0.25v-0.10938c0-0.16406 0.046875-0.28516 0.14062-0.35938 0.09375-0.082031 0.23828-0.125 0.4375-0.125z"/>
    </symbol>
    <symbol id="symbol-60" overflow="visible">
      <path d="m0.96875-1.2188c-0.11719 0-0.20312 0.042969-0.26562 0.125-0.054687 0.074219-0.078125 0.18359-0.078125 0.32812 0 0.14844 0.023438 0.26172 0.078125 0.34375 0.0625 0.074219 0.14844 0.10938 0.26562 0.10938 0.10156 0 0.17969-0.035156 0.23438-0.10938 0.0625-0.082031 0.09375-0.19531 0.09375-0.34375 0-0.14453-0.03125-0.25391-0.09375-0.32812-0.054687-0.082031-0.13281-0.125-0.23438-0.125zm0-0.34375c0.25781 0 0.46094 0.074219 0.60938 0.21875 0.14453 0.13672 0.21875 0.32812 0.21875 0.57812s-0.074219 0.44922-0.21875 0.59375c-0.14844 0.14844-0.35156 0.21875-0.60938 0.21875-0.27344 0-0.48047-0.070312-0.625-0.21875-0.14844-0.14453-0.21875-0.34375-0.21875-0.59375s0.070312-0.44141 0.21875-0.57812c0.14453-0.14453 0.35156-0.21875 0.625-0.21875z"/>
    </symbol>
    <symbol id="symbol-61" overflow="visible">
      <path d="m1.6562-1.2812c0.0625-0.09375 0.13281-0.16016 0.21875-0.20312 0.082031-0.050781 0.17578-0.078125 0.28125-0.078125 0.17578 0 0.30469 0.058594 0.39062 0.17188 0.09375 0.10547 0.14062 0.25781 0.14062 0.45312v0.9375h-0.48438v-0.79688-0.03125-0.0625c0-0.10156-0.015625-0.17969-0.046875-0.23438-0.03125-0.050781-0.085938-0.078125-0.15625-0.078125-0.09375 0-0.16797 0.042969-0.21875 0.125-0.042969 0.074219-0.070312 0.18359-0.078125 0.32812v0.75h-0.48438v-0.79688c0-0.16406-0.015625-0.27344-0.046875-0.32812-0.03125-0.050781-0.085937-0.078125-0.15625-0.078125-0.09375 0-0.16797 0.042969-0.21875 0.125-0.054687 0.074219-0.078125 0.18359-0.078125 0.32812v0.75h-0.48438v-1.5312h0.48438v0.21875c0.0625-0.082031 0.12891-0.14453 0.20312-0.1875 0.082031-0.039062 0.17188-0.0625 0.26562-0.0625 0.10156 0 0.19531 0.027344 0.28125 0.078125 0.082031 0.054687 0.14453 0.12109 0.1875 0.20312z"/>
    </symbol>
    <symbol id="symbol-62" overflow="visible">
      <path d="m1.7656-0.9375v0.9375h-0.48438v-0.70312c0-0.13281-0.007812-0.22656-0.015625-0.28125 0-0.050781-0.011719-0.085937-0.03125-0.10938-0.011719-0.03125-0.039063-0.054688-0.078125-0.078125-0.03125-0.019531-0.070312-0.03125-0.10938-0.03125-0.09375 0-0.17188 0.042969-0.23438 0.125-0.0625 0.074219-0.09375 0.18359-0.09375 0.32812v0.75h-0.48438v-2.125h0.48438v0.8125c0.070312-0.082031 0.14844-0.14453 0.23438-0.1875 0.082031-0.039062 0.17578-0.0625 0.28125-0.0625 0.17578 0 0.30469 0.058594 0.39062 0.17188 0.09375 0.10547 0.14062 0.25781 0.14062 0.45312z"/>
    </symbol>
    <symbol id="symbol-63" overflow="visible">
      <path d="m0.21875-0.59375v-0.9375h0.48438v0.15625 0.3125 0.25 0.26562c0.007813 0.054687 0.023437 0.089844 0.046875 0.10938 0.019531 0.042969 0.046875 0.074219 0.078125 0.09375 0.03125 0.011719 0.066406 0.015625 0.10938 0.015625 0.10156 0 0.17969-0.035156 0.23438-0.10938 0.0625-0.082031 0.09375-0.19531 0.09375-0.34375v-0.75h0.48438v1.5312h-0.48438v-0.21875c-0.074219 0.085938-0.15234 0.15234-0.23438 0.20312-0.085938 0.039062-0.17188 0.0625-0.26562 0.0625-0.17969 0-0.3125-0.050781-0.40625-0.15625-0.09375-0.11328-0.14062-0.27344-0.14062-0.48438z"/>
    </symbol>
    <symbol id="symbol-64" overflow="visible">
      <path d="m1.7656-0.9375v0.9375h-0.48438v-0.71875c0-0.125-0.007812-0.21094-0.015625-0.26562 0-0.050781-0.011719-0.085937-0.03125-0.10938-0.011719-0.03125-0.039063-0.054688-0.078125-0.078125-0.03125-0.019531-0.070312-0.03125-0.10938-0.03125-0.09375 0-0.17188 0.042969-0.23438 0.125-0.0625 0.074219-0.09375 0.18359-0.09375 0.32812v0.75h-0.48438v-1.5312h0.48438v0.21875c0.070312-0.082031 0.14844-0.14453 0.23438-0.1875 0.082031-0.039062 0.17578-0.0625 0.28125-0.0625 0.17578 0 0.30469 0.058594 0.39062 0.17188 0.09375 0.10547 0.14062 0.25781 0.14062 0.45312z"/>
    </symbol>
    <symbol id="symbol-65" overflow="visible">
      <path d="m0.25-2.0312h0.875c0.25781 0 0.45703 0.058594 0.59375 0.17188 0.14453 0.11719 0.21875 0.27734 0.21875 0.48438 0 0.21875-0.074219 0.38672-0.21875 0.5-0.13672 0.11719-0.33594 0.17188-0.59375 0.17188h-0.34375v0.70312h-0.53125zm0.53125 0.375v0.5625h0.29688c0.09375 0 0.16406-0.019531 0.21875-0.0625 0.0625-0.050781 0.09375-0.125 0.09375-0.21875s-0.03125-0.16016-0.09375-0.20312c-0.054687-0.050781-0.125-0.078125-0.21875-0.078125z"/>
    </symbol>
    <symbol id="symbol-66" overflow="visible">
      <path d="m0.23438-1.5312h0.48438v1.5c0 0.20703-0.054688 0.36328-0.15625 0.46875-0.09375 0.11328-0.23047 0.17188-0.40625 0.17188h-0.25v-0.32812h0.078125c0.09375 0 0.15625-0.023438 0.1875-0.0625 0.039063-0.042969 0.0625-0.125 0.0625-0.25zm0-0.59375h0.48438v0.40625h-0.48438z"/>
    </symbol>
    <symbol id="symbol-67" overflow="visible">
      <path d="m1.4688-1.4844v0.40625c-0.0625-0.050781-0.13281-0.085937-0.20312-0.10938-0.0625-0.019531-0.13281-0.03125-0.20312-0.03125-0.13672 0-0.24609 0.042969-0.32812 0.125-0.074219 0.074219-0.10938 0.18359-0.10938 0.32812 0 0.14844 0.035156 0.26172 0.10938 0.34375 0.082031 0.074219 0.19141 0.10938 0.32812 0.10938 0.070312 0 0.14453-0.007812 0.21875-0.03125 0.070312-0.019531 0.13281-0.050781 0.1875-0.09375v0.39062c-0.074219 0.03125-0.15234 0.050781-0.23438 0.0625-0.074219 0.019531-0.15234 0.03125-0.23438 0.03125-0.27344 0-0.48438-0.070312-0.64062-0.21875-0.15625-0.14453-0.23438-0.34375-0.23438-0.59375s0.078125-0.44141 0.23438-0.57812c0.15625-0.14453 0.36719-0.21875 0.64062-0.21875 0.082031 0 0.16016 0.007812 0.23438 0.015625 0.082031 0.011719 0.16016 0.03125 0.23438 0.0625z"/>
    </symbol>
  </defs>
  <g transform="matrix(1, 0, 0, 1, -39.598421, 111.192104)">
    <g transform="matrix(1, 0, 0, 1, 83.268472, -77.037224)">
      <g transform="matrix(0.885547, 0, 0, 0.885547, 169.996933, 294.118408)" style="">
        <path d="m328.96 474.23c0.36328 0.35156 0.71875 0.68359 1.1094 0.99609 1.2617 1.0469 2.6953 1.8906 4.2383 2.4844 3.3906 1.3828 6.7461 1.5859 8.4375 1.5859 8.5352 0 15.457-6.9219 15.457-15.457 0-7.8945-5.9258-14.414-13.57-15.348-1.4414-0.44141-2.9766-0.68359-4.5664-0.68359-8.5117 0-15.586 6.9219-15.625 15.434v0.050781c0 4.2656 1.7305 8.1367 4.5156 10.922z"/>
        <path d="m282.47 458.09c2.6211 1.7305 5.5859 2.5586 8.5117 2.5586 5.0078 0 9.9375-2.4375 12.91-6.9336 4.7148-7.125 2.75-16.719-4.3633-21.414-9.8711-6.5273-18.438-14.832-25.473-24.676-16.117-22.586-21.777-51.188-15.551-78.484 1.9141-8.3203-3.3047-16.609-11.625-18.512-8.3633-1.9023-16.621 3.3047-18.523 11.625-8.1953 35.891-0.71875 73.559 20.516 103.33 9.2617 12.957 20.57 23.891 33.598 32.508z"/>
        <path d="m349.56 559.04c116.57 0 211.41-94.844 211.41-211.41 0-112.88-191.69-329.74-199.85-338.91-2.9492-3.3047-7.1367-5.1953-11.562-5.1953-4.4141 0-8.6172 1.8906-11.551 5.1953-8.1602 9.168-199.94 226.03-199.94 338.91-0.003906 116.57 94.879 211.41 211.49 211.41zm0-516.55c59.457 69.32 180.48 226.62 180.48 305.13 0 99.531-80.961 180.49-180.48 180.49-99.57 0-180.57-80.961-180.57-180.49 0.003907-78.457 121.09-235.8 180.57-305.13z"/>
      </g>
    </g>
  </g>
</svg>