<?xml version="1.0" encoding="UTF-8"?>
<svg width="700pt" height="700pt" version="1.1" viewBox="0 0 700 700" xmlns="http://www.w3.org/2000/svg" xmlns:xlink="http://www.w3.org/1999/xlink">
 <g>
  <path d="m91.539 107.69h21.539v366.15h-21.539z"/>
  <path d="m145.38 64.617h43.078v21.539h-43.078z"/>
  <path d="m586.92 129.23h-473.84c-11.879 0-21.539-9.6641-21.539-21.539v-64.613c0-11.875 9.6602-21.539 21.539-21.539h473.85c11.879 0 21.539 9.6641 21.539 21.539v64.617c-0.003906 11.871-9.6641 21.535-21.543 21.535zm-473.84-86.152v64.617h473.86l-0.011719-64.617z"/>
  <path d="m586.92 538.46h-473.84c-11.879 0-21.539-9.6641-21.539-21.539v-43.078c0-11.875 9.6602-21.539 21.539-21.539h473.85c11.879 0 21.539 9.6641 21.539 21.539v43.078c-0.003906 11.875-9.6641 21.539-21.543 21.539zm-473.84-64.613v43.078h473.86l-0.011719-43.078z"/>
  <path d="m586.92 107.69h21.539v366.15h-21.539z"/>
  <path d="m511.54 64.617h43.078v21.539h-43.078z"/>
  <path d="m414.62 172.31h-129.23c-5.9492 0-10.77-4.8164-10.77-10.77v-43.078c0-5.9531 4.8203-10.77 10.77-10.77h129.23c5.9492 0 10.77 4.8164 10.77 10.77v43.078c0 5.9531-4.8203 10.77-10.766 10.77zm-118.46-21.539h107.69v-21.539h-107.69z"/>
  <path d="m382.31 215.38h-64.617c-5.9492 0-10.77-4.8164-10.77-10.77v-43.078c0-5.9531 4.8203-10.77 10.77-10.77h64.617c5.9492 0 10.77 4.8164 10.77 10.77v43.078c0 5.9531-4.8242 10.77-10.77 10.77zm-53.848-21.535h43.078v-21.539h-43.078z"/>
  <path d="m350 290.77c-5.9492 0-10.77-4.8164-10.77-10.77v-75.383c0-5.9531 4.8203-10.77 10.77-10.77 5.9492 0 10.77 4.8164 10.77 10.77v75.383c0 5.9531-4.8242 10.77-10.77 10.77z"/>
  <path d="m414.62 473.85h-120.38c-5.9492 0-10.77-4.8164-10.77-10.77v-140.68c0-5.9531 4.8203-10.77 10.77-10.77h120.38c5.9492 0 10.77 4.8164 10.77 10.77l-0.003907 140.68c0 5.9531-4.8203 10.77-10.766 10.77zm-109.61-21.539h98.84v-119.14h-98.836z"/>
  <path d="m457.69 427.73h-43.078c-5.9492 0-10.77-4.8164-10.77-10.77 0-5.9531 4.8203-10.77 10.77-10.77h32.309v-43.078h-32.309c-5.9492 0-10.77-4.8164-10.77-10.77s4.8203-10.77 10.77-10.77h43.078c5.9492 0 10.77 4.8164 10.77 10.77v64.617c0 5.9531-4.8203 10.77-10.77 10.77z"/>
 </g>
</svg>
