<?xml version="1.0" encoding="utf-8"?>
<svg viewBox="98.354 43.908 442.091 590.482" xmlns="http://www.w3.org/2000/svg">
  <defs>
    <symbol id="w" overflow="visible">
      <path d="m0.03125 0h-0.015625-0.015625v-0.015625-0.015625h0.015625 0.015625-0.015625v0.015625 0.015625h0.015625v-0.015625z"/>
    </symbol>
    <symbol id="e" overflow="visible">
      <path d="m0.015625-0.015625v0.015625h-0.015625v-0.03125h0.015625v0.015625-0.015625z"/>
    </symbol>
    <symbol id="b" overflow="visible">
      <path d="m0.03125-0.015625h-0.015625v0.015625c0.0078125 0 0.015625-0.0039062 0.015625-0.015625v0.015625h-0.015625-0.015625v-0.015625l0.015625-0.015625v0.015625h0.015625z"/>
    </symbol>
    <symbol id="a" overflow="visible">
      <path d="m0.015625-0.015625v0.015625-0.015625zm0.015625 0v0.015625h-0.015625-0.015625v-0.015625h0.015625-0.015625v-0.015625h0.015625v0.015625h0.015625z"/>
    </symbol>
    <symbol id="d" overflow="visible">
      <path d="m0.015625-0.03125v0.015625 0.015625h-0.015625v-0.015625-0.015625z"/>
    </symbol>
    <symbol id="l" overflow="visible">
      <path d="m0.015625-0.015625v-0.015625h0.015625v0.03125h-0.015625-0.015625v-0.015625l0.015625-0.015625v0.015625zm0 0.015625v-0.015625 0.015625z"/>
    </symbol>
    <symbol id="k" overflow="visible">
      <path d="m0.015625 0v-0.015625 0.015625zm0-0.015625v-0.015625c0.0078125 0 0.015625 0.0078125 0.015625 0.015625v0.015625h-0.015625-0.015625v-0.03125h0.015625z"/>
    </symbol>
    <symbol id="j" overflow="visible">
      <path d="m0-0.03125h0.015625v0.015625-0.015625h0.015625l-0.015625 0.03125v0.015625h-0.015625v-0.015625h0.015625z"/>
    </symbol>
    <symbol id="i" overflow="visible">
      <path d="m0.015625-0.03125v0.015625 0.015625h0.015625v-0.015625c0-0.0078125-0.0078125-0.015625-0.015625-0.015625zm0 0h0.015625v0.015625 0.015625h-0.015625-0.015625v-0.015625-0.015625h0.015625z"/>
    </symbol>
    <symbol id="v" overflow="visible">
      <path d="m0-0.03125h0.015625v0.03125h-0.015625z"/>
    </symbol>
    <symbol id="f" overflow="visible">
      <path d="m0.03125-0.015625v0.015625h-0.015625v-0.015625 0.015625h-0.015625v-0.03125h0.015625v0.015625-0.015625c0.0078125 0 0.015625 0.0078125 0.015625 0.015625z"/>
    </symbol>
    <symbol id="h" overflow="visible">
      <path d="m0-0.03125h0.015625 0.015625v0.015625h-0.015625v0.015625h-0.015625zm0.015625 0v0.015625-0.015625z"/>
    </symbol>
    <symbol id="g" overflow="visible">
      <path d="m0.03125-0.03125v0.015625h-0.015625c0.0078125 0 0.015625 0.0078125 0.015625 0.015625h-0.015625-0.015625 0.015625v-0.015625h-0.015625l0.015625-0.015625h0.015625z"/>
    </symbol>
    <symbol id="c" overflow="visible">
      <path d="m0.015625-0.015625v0.015625-0.015625zm0-0.015625v0.015625h0.015625c0 0.011719-0.0078125 0.015625-0.015625 0.015625h-0.015625v-0.015625l0.015625-0.015625z"/>
    </symbol>
    <symbol id="u" overflow="visible">
      <path d="m0-0.03125h0.015625v0.015625-0.015625h0.015625l-0.015625 0.03125z"/>
    </symbol>
    <symbol id="t" overflow="visible">
      <path d="m0-0.03125h0.015625v0.015625-0.015625h0.015625l-0.015625 0.015625 0.015625 0.015625h-0.015625v-0.015625 0.015625h-0.015625z"/>
    </symbol>
    <symbol id="s" overflow="visible">
      <path d="m0.015625-0.03125v0.03125h-0.015625v-0.03125h0.015625z"/>
    </symbol>
    <symbol id="r" overflow="visible">
      <path d="m0.03125-0.015625v-0.015625c0.0078125 0 0.015625 0.0078125 0.015625 0.015625v0.015625h-0.015625v-0.015625 0.015625h-0.015625v-0.015625 0.015625h-0.015625v-0.03125h0.015625v0.015625-0.015625 0.015625h0.015625z"/>
    </symbol>
    <symbol id="q" overflow="visible">
      <path d="m0.03125-0.015625v0.015625h-0.015625v-0.015625 0.015625h-0.015625v-0.03125h0.015625v0.015625-0.015625c0.0078125 0 0.015625 0.0078125 0.015625 0.015625z"/>
    </symbol>
    <symbol id="p" overflow="visible">
      <path d="m0-0.03125h0.015625l0.015625 0.015625v-0.015625 0.03125l-0.015625-0.015625v0.015625h-0.015625z"/>
    </symbol>
    <symbol id="o" overflow="visible">
      <path d="m0-0.015625v-0.015625h0.015625v0.015625 0.015625-0.015625-0.015625h0.015625v0.03125h-0.015625-0.015625v-0.015625z"/>
    </symbol>
    <symbol id="n" overflow="visible">
      <path d="m0-0.03125h0.015625v0.03125h-0.015625v0.015625zm0 0h0.015625z"/>
    </symbol>
    <symbol id="m" overflow="visible">
      <path d="m0.03125-0.03125v0.015625h-0.015625v0.015625h0.015625-0.015625-0.015625v-0.015625l0.015625-0.015625h0.015625z"/>
    </symbol>
    <symbol id="symbol-1" overflow="visible">
      <path d="m0.03125 0h-0.015625-0.015625v-0.015625-0.015625h0.015625 0.015625-0.015625v0.015625 0.015625h0.015625v-0.015625z"/>
    </symbol>
    <symbol id="symbol-2" overflow="visible">
      <path d="m0.015625-0.015625v0.015625h-0.015625v-0.03125h0.015625v0.015625-0.015625z"/>
    </symbol>
    <symbol id="symbol-3" overflow="visible">
      <path d="m0.03125-0.015625h-0.015625v0.015625c0.0078125 0 0.015625-0.0039062 0.015625-0.015625v0.015625h-0.015625-0.015625v-0.015625l0.015625-0.015625v0.015625h0.015625z"/>
    </symbol>
    <symbol id="symbol-4" overflow="visible">
      <path d="m0.015625-0.015625v0.015625-0.015625zm0.015625 0v0.015625h-0.015625-0.015625v-0.015625h0.015625-0.015625v-0.015625h0.015625v0.015625h0.015625z"/>
    </symbol>
    <symbol id="symbol-5" overflow="visible">
      <path d="m0.015625-0.03125v0.015625 0.015625h-0.015625v-0.015625-0.015625z"/>
    </symbol>
    <symbol id="symbol-6" overflow="visible">
      <path d="m0.015625-0.015625v-0.015625h0.015625v0.03125h-0.015625-0.015625v-0.015625l0.015625-0.015625v0.015625zm0 0.015625v-0.015625 0.015625z"/>
    </symbol>
    <symbol id="symbol-7" overflow="visible">
      <path d="m0.015625 0v-0.015625 0.015625zm0-0.015625v-0.015625c0.0078125 0 0.015625 0.0078125 0.015625 0.015625v0.015625h-0.015625-0.015625v-0.03125h0.015625z"/>
    </symbol>
    <symbol id="symbol-8" overflow="visible">
      <path d="m0-0.03125h0.015625v0.015625-0.015625h0.015625l-0.015625 0.03125v0.015625h-0.015625v-0.015625h0.015625z"/>
    </symbol>
    <symbol id="symbol-9" overflow="visible">
      <path d="m0.015625-0.03125v0.015625 0.015625h0.015625v-0.015625c0-0.0078125-0.0078125-0.015625-0.015625-0.015625zm0 0h0.015625v0.015625 0.015625h-0.015625-0.015625v-0.015625-0.015625h0.015625z"/>
    </symbol>
    <symbol id="symbol-10" overflow="visible">
      <path d="m0-0.03125h0.015625v0.03125h-0.015625z"/>
    </symbol>
    <symbol id="symbol-11" overflow="visible">
      <path d="m0.03125-0.015625v0.015625h-0.015625v-0.015625 0.015625h-0.015625v-0.03125h0.015625v0.015625-0.015625c0.0078125 0 0.015625 0.0078125 0.015625 0.015625z"/>
    </symbol>
    <symbol id="symbol-12" overflow="visible">
      <path d="m0-0.03125h0.015625 0.015625v0.015625h-0.015625v0.015625h-0.015625zm0.015625 0v0.015625-0.015625z"/>
    </symbol>
    <symbol id="symbol-13" overflow="visible">
      <path d="m0.03125-0.03125v0.015625h-0.015625c0.0078125 0 0.015625 0.0078125 0.015625 0.015625h-0.015625-0.015625 0.015625v-0.015625h-0.015625l0.015625-0.015625h0.015625z"/>
    </symbol>
    <symbol id="symbol-14" overflow="visible">
      <path d="m0.015625-0.015625v0.015625-0.015625zm0-0.015625v0.015625h0.015625c0 0.011719-0.0078125 0.015625-0.015625 0.015625h-0.015625v-0.015625l0.015625-0.015625z"/>
    </symbol>
    <symbol id="symbol-15" overflow="visible">
      <path d="m0-0.03125h0.015625v0.015625-0.015625h0.015625l-0.015625 0.03125z"/>
    </symbol>
    <symbol id="symbol-16" overflow="visible">
      <path d="m0-0.03125h0.015625v0.015625-0.015625h0.015625l-0.015625 0.015625 0.015625 0.015625h-0.015625v-0.015625 0.015625h-0.015625z"/>
    </symbol>
    <symbol id="symbol-17" overflow="visible">
      <path d="m0.015625-0.03125v0.03125h-0.015625v-0.03125h0.015625z"/>
    </symbol>
    <symbol id="symbol-18" overflow="visible">
      <path d="m0.03125-0.015625v-0.015625c0.0078125 0 0.015625 0.0078125 0.015625 0.015625v0.015625h-0.015625v-0.015625 0.015625h-0.015625v-0.015625 0.015625h-0.015625v-0.03125h0.015625v0.015625-0.015625 0.015625h0.015625z"/>
    </symbol>
    <symbol id="symbol-19" overflow="visible">
      <path d="m0.03125-0.015625v0.015625h-0.015625v-0.015625 0.015625h-0.015625v-0.03125h0.015625v0.015625-0.015625c0.0078125 0 0.015625 0.0078125 0.015625 0.015625z"/>
    </symbol>
    <symbol id="symbol-20" overflow="visible">
      <path d="m0-0.03125h0.015625l0.015625 0.015625v-0.015625 0.03125l-0.015625-0.015625v0.015625h-0.015625z"/>
    </symbol>
    <symbol id="symbol-21" overflow="visible">
      <path d="m0-0.015625v-0.015625h0.015625v0.015625 0.015625-0.015625-0.015625h0.015625v0.03125h-0.015625-0.015625v-0.015625z"/>
    </symbol>
    <symbol id="symbol-22" overflow="visible">
      <path d="m0-0.03125h0.015625v0.03125h-0.015625v0.015625zm0 0h0.015625z"/>
    </symbol>
    <symbol id="symbol-23" overflow="visible">
      <path d="m0.03125-0.03125v0.015625h-0.015625v0.015625h0.015625-0.015625-0.015625v-0.015625l0.015625-0.015625h0.015625z"/>
    </symbol>
  </defs>
  <g transform="matrix(1, 0, 0, 1, -39.598421, 111.192104)">
    <g transform="matrix(1, 0, 0, 1, 83.268472, -77.037224)">
      <g transform="matrix(1, 0, 0, 1, -74.272308, 25.001244)">
        <path d="m331.79 483.67v-47.68l-27.32-13.66-27.32 13.66v47.68l27.32 13.66zm-36.426-36.426 9.1055-4.5547 9.1055 4.5547v25.168l-9.1055 4.5547-9.1055-4.5547z"/>
        <path d="m543.02 417.95c4.5898-6.0938 7.3164-13.668 7.3164-21.867 0-20.086-16.34-36.426-36.426-36.426-20.086 0-36.426 16.34-36.426 36.426 0 8.1992 2.7266 15.773 7.3164 21.867-4.4297 3.3242-7.3164 8.6055-7.3164 14.559h-18.211v-63.742c0-33.172-84.008-42.129-119.13-44.422 6.5391-25.594 9.8594-51.871 9.8594-78.395v-2.0742c9.4844-2.7461 18.723-6.332 27.547-10.746l8.8789-4.4375v-5.6289c0-33.168-19.793-62.492-49.453-75.258 5.2344-8.332 9.1797-17.5 11.613-27.234l0.53125-2.125 17.688-17.688c6.7773-6.7812 10.512-15.797 10.512-25.383 0-6.2383-1.6367-12.395-4.7305-17.812l-32.895-57.566-15.812 9.0352 32.895 57.566c1.5234 2.668 2.3281 5.7031 2.3281 8.7734 0 4.7227-1.8398 9.1641-5.1797 12.508l-14.191 14.191-7.5664-5.043c5.5352-8.3828 8.7266-18.836 8.7266-28.77 0-20.086-16.34-36.426-36.426-36.426s-36.426 16.34-36.426 36.426c0 9.9336 3.1914 20.387 8.7266 28.77l-7.5664 5.043-14.191-14.191c-3.3398-3.3398-5.1797-7.7812-5.1797-12.504 0-3.0703 0.80469-6.1055 2.3281-8.7734l32.895-57.566-15.812-9.0391-32.895 57.566c-3.0938 5.4141-4.7305 11.574-4.7305 17.812 0 9.5898 3.7344 18.605 10.516 25.383l17.688 17.688 0.53125 2.125c2.4336 9.7344 6.3789 18.906 11.613 27.238-29.656 12.762-49.453 42.09-49.453 75.254v5.6289l8.8789 4.4375c8.8242 4.4102 18.062 7.9961 27.547 10.746v2.207c0 26.664 13.82 50.812 36.426 64.316v12.906c-36.23 0.54688-70.078 4.3516-96.129 10.863-32.895 8.2305-49.57 19.867-49.57 34.598v109.27c0 8.9102 6.1133 16.684 18.211 23.258v22.273c0 21.781 33.699 28.082 44.773 30.152 22.246 4.1602 53.141 6.2695 91.82 6.2695s69.574-2.1094 91.82-6.2695c11.074-2.0703 44.773-8.375 44.773-30.152v-22.273c12.102-6.5742 18.211-14.352 18.211-23.258v-27.32h18.211c0 5.9531 2.8828 11.234 7.3164 14.559-4.5898 6.0938-7.3164 13.668-7.3164 21.867 0 20.086 16.34 36.426 36.426 36.426 20.086 0 36.426-16.34 36.426-36.426 0-8.1992-2.7266-15.773-7.3164-21.867 4.4297-3.3242 7.3164-8.6055 7.3164-14.559v-18.211c0-5.9531-2.8828-11.23-7.3125-14.559zm-138.39 77.168c-10.84 2.6758-23.129 4.8594-36.426 6.5156v-24.789l18.211 12.141 18.211-12.141zm-236.76-62.609h18.211v18.211l-18.211 0.003906zm36.426 13.98 18.211-12.141 18.211 12.141v8.4648l-18.211 12.141-18.211-12.141zm36.426-21.891-18.211-12.141-18.211 12.141v-20.039c11.023 2.5156 23.285 4.5781 36.426 6.1445zm-54.641-10.301h-18.211v-22.273c5.0352 2.7383 11.109 5.2617 18.211 7.5781zm-18.211 54.637h18.211v20.664c-14.551-5.4883-18.211-10.359-18.211-11.559zm36.426 7.9102 18.211 12.141 18.211-12.141v24.789c-13.297-1.6562-25.586-3.8398-36.426-6.5156zm54.637-64.336c14.543 1.1719 29.852 1.7891 45.531 1.7891s30.988-0.61719 45.531-1.7891v91.008c-14.469 1.207-29.789 1.8438-45.531 1.8438s-31.062-0.63672-45.531-1.8438zm182.12 1.7891h-18.211v-14.691c7.1055-2.3125 13.18-4.8438 18.211-7.5781zm-72.852 32.191 18.211-12.141 18.211 12.141v8.4648l-18.211 12.141-18.211-12.141zm36.426-21.891-18.211-12.141-18.211 12.141v-13.895c13.141-1.5664 25.402-3.6289 36.426-6.1445zm18.215 7.9102h18.211v18.211h-18.211zm-106.4-92.07c-0.20312 0.60547-0.76562 1.0117-1.4023 1.0117-0.81641 0-1.4766-0.66016-1.4766-1.4688v-89.855c6.0938-0.34375 12.172-1.0391 18.191-2.0664-0.21875 31.453-5.3594 62.52-15.312 92.379zm-11.984-226.65c5.1758 0 9.9688-1.4062 14.27-3.8242l11.746 7.832c-4.2773 15.629-13.387 29.375-26.016 39.379-12.629-10.004-21.738-23.75-26.016-39.379l11.746-7.832c4.3008 2.418 9.0938 3.8242 14.27 3.8242zm-9.1797 59.285c1.3477 1.0078 2.7188 1.9922 4.1289 2.9297l5.0508 3.3672 5.0508-3.3672c1.4062-0.9375 2.7773-1.9219 4.1289-2.9297 11.746 14.816 18.141 33.062 18.141 52.199v4.2734c-9 1.7305-18.16 2.625-27.32 2.625-9.1562 0-18.316-0.89453-27.32-2.625v-4.2734c0-19.137 6.3945-37.383 18.141-52.199zm72.688 44.469c-5.8203 2.8281-11.836 5.2539-17.988 7.2773-0.09375-21.875-7.0586-42.766-19.844-60.129 21.195 9.293 35.824 29.5 37.832 52.852zm-63.508-167.5c10.043 0 18.211 8.1719 18.211 18.211 0 13.785-9.0195 27.32-18.211 27.32s-18.211-13.531-18.211-27.32c0-10.043 8.168-18.211 18.211-18.211zm-25.676 114.65c-12.781 17.359-19.75 38.25-19.844 60.129-6.1484-2.0273-12.168-4.4492-17.988-7.2773 2.0078-23.355 16.637-43.562 37.832-52.852zm-1.6094 83.363c6.0156 1.0234 12.09 1.7188 18.18 2.0625v37.68c-11.02-10.137-17.656-24.316-18.18-39.742zm-73.531 103.79c24.691-6.1719 57.008-9.7852 91.789-10.32 0.79297 10.129 9.2773 18.137 19.613 18.137 8.4883 0 15.996-5.4102 18.68-13.465 0.4375-1.3086 0.84766-2.6211 1.2656-3.9297 30.188 1.6406 57.547 5.6992 77.633 11.562 23.371 6.8203 28.43 13.621 28.43 14.938 0 1.582-6.3672 9.5703-35.777 16.922-26.816 6.7031-62.621 10.398-100.82 10.398s-74-3.6914-100.82-10.398c-29.41-7.3516-35.777-15.34-35.777-16.922 0-1.5859 6.3672-9.5703 35.777-16.922zm219.2 171.73c0 1.7266-5.4961 7.6875-29.91 12.254-21.145 3.957-50.91 5.9609-88.473 5.9609s-67.328-2.0039-88.473-5.9609c-24.414-4.5664-29.91-10.523-29.91-12.254v-14.691c4.0508 1.3203 8.4258 2.5742 13.148 3.7539 28.219 7.0547 65.594 10.941 105.23 10.941s77.016-3.8867 105.23-10.941c4.7188-1.1797 9.0977-2.4336 13.148-3.7539zm0-33.969v-20.664h18.211v9.1055c0 1.1953-3.6602 6.0664-18.211 11.559zm109.27-57.094 0.011719 18.211h-0.011719-36.426v-18.211zm-18.211-54.637c10.043 0 18.211 8.1719 18.211 18.211 0 10.043-8.1719 18.211-18.211 18.211-10.043 0-18.211-8.1719-18.211-18.211-0.003906-10.039 8.168-18.211 18.211-18.211zm0 127.49c-10.043 0-18.211-8.1719-18.211-18.211 0-10.043 8.1719-18.211 18.211-18.211 10.043 0 18.211 8.1719 18.211 18.211 0 10.039-8.1719 18.211-18.211 18.211z"/>
      </g>
    </g>
  </g>
</svg>