<?xml version="1.0" encoding="UTF-8"?>
<svg version="1.1" viewBox="0 0 700 700" xmlns="http://www.w3.org/2000/svg" xmlns:xlink="http://www.w3.org/1999/xlink">

 <g>
  <path d="m245 210h303.33c28.242 0 81.668-17.066 81.668-81.668 0-28.25-17.066-81.668-81.668-81.668v0.003907c-18.453 0.87891-35.867 8.7969-48.664 22.121-12.793 13.328-19.996 31.051-20.125 49.523-0.37109 11.461 3.5859 22.641 11.082 31.316 8.9141 9.3594 21.469 14.367 34.375 13.703 6.4414 0 11.668-5.2227 11.668-11.664 0-6.4453-5.2266-11.668-11.668-11.668-6.2969 0.52344-12.516-1.6758-17.078-6.043-3.5234-4.4297-5.3164-9.9922-5.0469-15.645 0-20.172 17.293-48.312 45.457-48.312 56.281 0 58.289 52.402 58.332 58.332 0 56.277-52.398 58.289-58.332 58.332l-303.33 0.003907c-6.4414 0-11.668 5.2227-11.668 11.664 0 6.4453 5.2266 11.668 11.668 11.668z"/>
  <path d="m385 350h-303.33c-6.4453 0-11.668 5.2227-11.668 11.668 0 6.4414 5.2227 11.664 11.668 11.664h303.33c2.3828 0 58.332 0.66016 58.332 58.332 0 2.3828-0.66016 58.332-58.332 58.332-28.164 0-45.457-28.141-45.457-48.312v0.003906c-0.26953-5.6523 1.5234-11.215 5.0469-15.645 4.5625-4.3672 10.781-6.5664 17.078-6.043 6.4414 0 11.664-5.2227 11.664-11.668 0-6.4414-5.2227-11.664-11.664-11.664-12.91-0.66406-25.465 4.3438-34.375 13.703-7.4961 8.6758-11.453 19.855-11.086 31.316 0.12891 18.473 7.332 36.195 20.129 49.523 12.797 13.324 30.211 21.242 48.664 22.121 64.602 0 81.668-53.418 81.668-81.668 0-64.598-53.426-81.664-81.668-81.664z"/>
  <path d="m105 256.67h186.67c6.4414 0 11.664-5.2266 11.664-11.668s-5.2227-11.668-11.664-11.668h-186.67c-6.4414 0-11.668 5.2266-11.668 11.668s5.2266 11.668 11.668 11.668z"/>
  <path d="m595 303.33h-186.67c-6.4414 0-11.664 5.2266-11.664 11.668s5.2227 11.668 11.664 11.668h186.67c6.4414 0 11.668-5.2266 11.668-11.668s-5.2266-11.668-11.668-11.668z"/>
  <path d="m443.33 245c0.003907-3.0938-1.2266-6.0625-3.4141-8.25s-5.1562-3.418-8.25-3.418h-93.336c-6.4414 0-11.664 5.2266-11.664 11.668s5.2227 11.668 11.664 11.668h93.336c3.0938 0 6.0625-1.2305 8.25-3.418s3.418-5.1562 3.4141-8.25z"/>
  <path d="m268.33 303.33c-6.4414 0-11.664 5.2266-11.664 11.668s5.2227 11.668 11.664 11.668h93.336c6.4414 0 11.664-5.2266 11.664-11.668s-5.2227-11.668-11.664-11.668z"/>
  <path d="m478.33 233.33c-6.4414 0-11.664 5.2266-11.664 11.668s5.2227 11.668 11.664 11.668h23.336c6.4414 0 11.664-5.2266 11.664-11.668s-5.2227-11.668-11.664-11.668z"/>
  <path d="m198.33 303.33c-6.4414 0-11.664 5.2266-11.664 11.668s5.2227 11.668 11.664 11.668h23.336c6.4414 0 11.664-5.2266 11.664-11.668s-5.2227-11.668-11.664-11.668z"/>
  <path d="m128.33 303.33c-6.4414 0-11.664 5.2266-11.664 11.668s5.2227 11.668 11.664 11.668h23.336c6.4414 0 11.664-5.2266 11.664-11.668s-5.2227-11.668-11.664-11.668z"/>
  <path d="m175 140h23.332c3.0977 0 6.0625-1.2266 8.25-3.418 2.1914-2.1875 3.418-5.1523 3.418-8.25 0-28.25-12.191-81.668-58.332-81.668l-23.336 0.003907c-3.0938-0.003907-6.0625 1.2266-8.25 3.4141s-3.418 5.1562-3.4141 8.25c0 28.25 12.188 81.668 58.332 81.668zm10.766-23.332c-12.25 0.10938-24-4.832-32.492-13.664-8.4883-8.832-12.965-20.77-12.375-33.004 12.25-0.10938 24.004 4.832 32.492 13.664 8.4922 8.8281 12.969 20.766 12.375 33.004z"/>
  <path d="m221.67 420h-23.336c-3.0938 0-6.0625 1.2266-8.25 3.418-2.1875 2.1875-3.418 5.1523-3.4141 8.25 0 28.25 12.191 81.668 58.332 81.668h23.332v-0.003907c3.0977 0.003907 6.0625-1.2266 8.25-3.4141 2.1914-2.1875 3.418-5.1562 3.418-8.25 0-28.25-12.191-81.668-58.332-81.668zm-10.766 23.332h-0.003906c12.25-0.10938 24.004 4.832 32.492 13.664 8.4922 8.832 12.969 20.77 12.375 33.004-12.25 0.10938-24-4.832-32.492-13.664-8.4883-8.8281-12.965-20.766-12.375-33.004z"/>
  <path d="m525 373.33h-23.332c-3.0977 0-6.0625 1.2305-8.25 3.418-2.1914 2.1875-3.418 5.1562-3.418 8.25 0 28.25 12.191 81.668 58.332 81.668h23.336c3.0938 0 6.0625-1.2305 8.25-3.418s3.418-5.1562 3.4141-8.25c0-28.25-12.188-81.668-58.332-81.668zm-10.766 23.332v0.003907c12.25-0.10938 24 4.832 32.492 13.66 8.4883 8.832 12.965 20.77 12.375 33.004-12.25 0.10938-24.004-4.832-32.492-13.66-8.4922-8.832-12.969-20.77-12.375-33.004z"/>

 </g>
</svg>
