<?xml version="1.0" encoding="UTF-8"?>
<svg width="700pt" height="700pt" version="1.1" viewBox="0 0 700 700" xmlns="http://www.w3.org/2000/svg" xmlns:xlink="http://www.w3.org/1999/xlink">

 <g>
  <path d="m313.48 329.1-26.566 8.1406 13.727-51.531c0.81641-3.0352-0.085938-6.2773-2.3477-8.457-2.2734-2.1914-5.5664-2.9844-8.5469-2.043l-35.332 10.832c-4.5742 1.3906-7.1445 6.2422-5.7383 10.812 1.3984 4.5859 6.2422 7.1445 10.812 5.7344l20.41-6.2539-13.73 51.535c-0.8125 3.0312 0.10547 6.2734 2.3672 8.457 1.6289 1.5781 3.793 2.4258 5.9961 2.4258 0.84375 0 1.707-0.11719 2.5352-0.375l41.48-12.719c4.5703-1.4062 7.1406-6.2383 5.7383-10.812-1.3906-4.582-6.2305-7.1523-10.805-5.7461z"/>
  <path d="m361.38 260.91-25.594 7.8359 13.742-51.52c0.8125-3.0469-0.10156-6.2812-2.3672-8.4688-2.2617-2.1797-5.543-2.9727-8.5391-2.0391l-36.309 11.121c-4.5742 1.3984-7.1445 6.2422-5.7383 10.82 1.3984 4.5742 6.25 7.1523 10.812 5.7383l21.379-6.5508-13.738 51.516c-0.81641 3.0352 0.10156 6.2891 2.3633 8.4609 1.6367 1.5859 3.7852 2.4297 6.0039 2.4297 0.83984 0 1.6953-0.12891 2.5352-0.37891l40.516-12.402c4.5586-1.3945 7.1328-6.2383 5.7383-10.812-1.3828-4.5742-6.2383-7.1289-10.805-5.75z"/>
  <path d="m439.84 267.45-23.645 7.2422 13.73-51.527c0.8125-3.0391-0.085937-6.2812-2.3516-8.4609-2.2773-2.1953-5.5547-2.9805-8.5391-2.043l-38.258 11.723c-4.5625 1.3984-7.1328 6.2383-5.7383 10.812 1.4062 4.5742 6.2539 7.1523 10.812 5.7383l23.34-7.1523-13.73 51.527c-0.8125 3.0469 0.085938 6.2891 2.3516 8.4609 1.6367 1.5859 3.8008 2.4297 6.0039 2.4297 0.85547 0 1.7031-0.125 2.5352-0.37891l38.566-11.816c4.5703-1.3984 7.1406-6.2383 5.7383-10.812-1.4023-4.5781-6.2539-7.1328-10.816-5.7422z"/>
  <path d="m610.5 372.48c9.9609-11.414 11.379-37.223 11.375-57.898-0.011719-44.258-14.043-175.55-46.238-197.46 10.07-18.906 12.398-33.516 6.9141-43.535-2.2188-4.043-7.8281-10.832-20.547-10.832-10.809 0-24.969 5.0625-41.316 14.711-5.4414-3.3828-15.934-5.2461-37.547-5.2461-44.258 0-127.77 8.5117-207.82 21.191-110.82 17.543-137.77 29.832-145.09 37.199-11.672-3.1602-21.93-4.7539-30.598-4.7539-20.551 0-27.203 9.3398-29.332 14.914-4.3398 11.324 1.6562 25.898 17.383 42.566-1.043 1.1641-2.0508 2.543-2.9961 4.1836-20.68 35.84 0.25391 192.94 26.324 238.08 1.5898 2.75 5.4023 9.3633 11.391 13.227-9.9922 18.805-12.281 33.359-6.8164 43.348 2.2109 4.043 7.8242 10.824 20.535 10.824 10.82 0 24.969-5.0508 41.316-14.711 5.4414 3.3828 15.934 5.2461 37.547 5.2461 44.258 0 127.77-8.5195 207.82-21.191 110.81-17.551 137.76-29.824 145.08-37.199 11.676 3.1602 21.93 4.7656 30.609 4.7539 20.539 0 27.195-9.3398 29.32-14.914 4.3477-11.305-1.6367-25.859-17.312-42.504zm1.1562 36.316c-0.72266 1.8945-5.0742 3.7852-13.156 3.7852-9.1445 0.003906-21.359-2.3867-35.34-6.9102-4.0977-1.3008-8.3906 0.63672-10.305 4.4844-0.84375 1.7344-1.0547 3.6445-0.69531 5.4375-31.758 17.859-246.62 50.629-337.17 50.629-13.777 0-21.012-0.83594-24.707-1.5742-0.15625-1.7422-0.84375-3.4492-2.0703-4.8672-2.8398-3.2812-7.6836-3.9609-11.316-1.5586-23.891 15.758-36.469 17.473-40.77 17.473-2.8906 0-4.6875-0.61719-5.3555-1.832-1.8594-3.3945-1.1406-15.191 13.344-37.852 2.2383-3.5039 1.9023-8.0312-1.1211-10.879-1.6406-1.5469-3.6797-2.3242-5.7383-2.3242-1.7461 0-3.5039 0.55859-5.0508 1.6758-6.5586-2.1562-23.062-37.379-33.285-112.51-10.238-75.207-3.7344-113.6 1.6133-117.17 3.9141 1.4492 8.2695-0.085938 10.426-3.6406 2.1523-3.5625 1.4609-8.1406-1.6289-10.922-21.734-19.504-23.871-30.625-22.863-33.27 0.72266-1.8867 5.0742-3.793 13.164-3.793 9.1406 0 21.359 2.3867 35.34 6.9141 4.0703 1.2891 8.3828-0.63281 10.293-4.4844 0.85156-1.7305 1.0547-3.6406 0.69922-5.4414 31.754-17.863 246.62-50.629 337.16-50.629 13.781 0 21.016 0.83984 24.703 1.5742 0.16406 1.7539 0.84375 3.4609 2.0703 4.8711 2.832 3.2812 7.6836 3.9609 11.316 1.5625 23.902-15.77 36.477-17.473 40.77-17.473 2.8945 0 4.6914 0.61719 5.3555 1.832 1.8633 3.3945 1.1367 15.188-13.355 37.844-2.2305 3.5-1.8945 8.0312 1.125 10.879 3.0195 2.8633 7.4258 3.0859 10.797 0.65625 6.5625 2.1562 23.066 37.379 33.273 112.52 10.242 75.195 3.7344 113.59-1.6016 117.16-3.9414-1.4688-8.2891 0.074218-10.434 3.6406-2.1523 3.5508-1.4688 8.1328 1.6289 10.914 21.762 19.516 23.891 30.637 22.883 33.277z"/>

 </g>
</svg>
