<?xml version="1.0" encoding="utf-8"?>
<svg viewBox="-46.137 212.648 462.085 565.871" xmlns="http://www.w3.org/2000/svg">
  <defs>
    <symbol id="w" overflow="visible">
      <path d="m0.03125 0h-0.015625-0.015625v-0.015625-0.015625h0.015625 0.015625-0.015625v0.015625 0.015625h0.015625v-0.015625z"/>
    </symbol>
    <symbol id="e" overflow="visible">
      <path d="m0.015625-0.015625v0.015625h-0.015625v-0.03125h0.015625v0.015625-0.015625z"/>
    </symbol>
    <symbol id="b" overflow="visible">
      <path d="m0.03125-0.015625h-0.015625v0.015625c0.0078125 0 0.015625-0.0039062 0.015625-0.015625v0.015625h-0.015625-0.015625v-0.015625l0.015625-0.015625v0.015625h0.015625z"/>
    </symbol>
    <symbol id="a" overflow="visible">
      <path d="m0.015625-0.015625v0.015625-0.015625zm0.015625 0v0.015625h-0.015625-0.015625v-0.015625h0.015625-0.015625v-0.015625h0.015625v0.015625h0.015625z"/>
    </symbol>
    <symbol id="d" overflow="visible">
      <path d="m0.015625-0.03125v0.015625 0.015625h-0.015625v-0.015625-0.015625z"/>
    </symbol>
    <symbol id="l" overflow="visible">
      <path d="m0.015625-0.015625v-0.015625h0.015625v0.03125h-0.015625-0.015625v-0.015625l0.015625-0.015625v0.015625zm0 0.015625v-0.015625 0.015625z"/>
    </symbol>
    <symbol id="k" overflow="visible">
      <path d="m0.015625 0v-0.015625 0.015625zm0-0.015625v-0.015625c0.0078125 0 0.015625 0.0078125 0.015625 0.015625v0.015625h-0.015625-0.015625v-0.03125h0.015625z"/>
    </symbol>
    <symbol id="j" overflow="visible">
      <path d="m0-0.03125h0.015625v0.015625-0.015625h0.015625l-0.015625 0.03125v0.015625h-0.015625v-0.015625h0.015625z"/>
    </symbol>
    <symbol id="i" overflow="visible">
      <path d="m0.015625-0.03125v0.015625 0.015625h0.015625v-0.015625c0-0.0078125-0.0078125-0.015625-0.015625-0.015625zm0 0h0.015625v0.015625 0.015625h-0.015625-0.015625v-0.015625-0.015625h0.015625z"/>
    </symbol>
    <symbol id="v" overflow="visible">
      <path d="m0-0.03125h0.015625v0.03125h-0.015625z"/>
    </symbol>
    <symbol id="f" overflow="visible">
      <path d="m0.03125-0.015625v0.015625h-0.015625v-0.015625 0.015625h-0.015625v-0.03125h0.015625v0.015625-0.015625c0.0078125 0 0.015625 0.0078125 0.015625 0.015625z"/>
    </symbol>
    <symbol id="h" overflow="visible">
      <path d="m0-0.03125h0.015625 0.015625v0.015625h-0.015625v0.015625h-0.015625zm0.015625 0v0.015625-0.015625z"/>
    </symbol>
    <symbol id="g" overflow="visible">
      <path d="m0.03125-0.03125v0.015625h-0.015625c0.0078125 0 0.015625 0.0078125 0.015625 0.015625h-0.015625-0.015625 0.015625v-0.015625h-0.015625l0.015625-0.015625h0.015625z"/>
    </symbol>
    <symbol id="c" overflow="visible">
      <path d="m0.015625-0.015625v0.015625-0.015625zm0-0.015625v0.015625h0.015625c0 0.011719-0.0078125 0.015625-0.015625 0.015625h-0.015625v-0.015625l0.015625-0.015625z"/>
    </symbol>
    <symbol id="u" overflow="visible">
      <path d="m0-0.03125h0.015625v0.015625-0.015625h0.015625l-0.015625 0.03125z"/>
    </symbol>
    <symbol id="t" overflow="visible">
      <path d="m0-0.03125h0.015625v0.015625-0.015625h0.015625l-0.015625 0.015625 0.015625 0.015625h-0.015625v-0.015625 0.015625h-0.015625z"/>
    </symbol>
    <symbol id="s" overflow="visible">
      <path d="m0.015625-0.03125v0.03125h-0.015625v-0.03125h0.015625z"/>
    </symbol>
    <symbol id="r" overflow="visible">
      <path d="m0.03125-0.015625v-0.015625c0.0078125 0 0.015625 0.0078125 0.015625 0.015625v0.015625h-0.015625v-0.015625 0.015625h-0.015625v-0.015625 0.015625h-0.015625v-0.03125h0.015625v0.015625-0.015625 0.015625h0.015625z"/>
    </symbol>
    <symbol id="q" overflow="visible">
      <path d="m0.03125-0.015625v0.015625h-0.015625v-0.015625 0.015625h-0.015625v-0.03125h0.015625v0.015625-0.015625c0.0078125 0 0.015625 0.0078125 0.015625 0.015625z"/>
    </symbol>
    <symbol id="p" overflow="visible">
      <path d="m0-0.03125h0.015625l0.015625 0.015625v-0.015625 0.03125l-0.015625-0.015625v0.015625h-0.015625z"/>
    </symbol>
    <symbol id="o" overflow="visible">
      <path d="m0-0.015625v-0.015625h0.015625v0.015625 0.015625-0.015625-0.015625h0.015625v0.03125h-0.015625-0.015625v-0.015625z"/>
    </symbol>
    <symbol id="n" overflow="visible">
      <path d="m0-0.03125h0.015625v0.03125h-0.015625v0.015625zm0 0h0.015625z"/>
    </symbol>
    <symbol id="m" overflow="visible">
      <path d="m0.03125-0.03125v0.015625h-0.015625v0.015625h0.015625-0.015625-0.015625v-0.015625l0.015625-0.015625h0.015625z"/>
    </symbol>
  </defs>
  <g transform="matrix(1, 0, 0, 1, -39.598421, 111.192104)">
    <path d="M 539.634 1.954 L 539.634 -65.199 L 532.23 -65.199 C 523.169 -65.199 464.963 -39.68 464.963 2.068 L 464.971 2.068 C 464.901 3.394 464.901 4.719 464.971 6.044 C 431.579 -9.203 393.211 -9.203 359.821 6.044 C 359.89 4.719 359.89 3.393 359.821 2.068 C 359.821 -39.682 301.613 -65.199 292.554 -65.199 L 285.605 -65.199 L 285.605 2.068 C 285.597 10.844 288.686 19.334 294.319 26.06 C 299.951 32.786 307.778 37.316 316.415 38.85 C 296.514 61.855 285.573 91.263 285.605 121.688 L 285.605 241.193 C 285.605 243.18 286.398 245.091 287.808 246.493 L 298.078 256.763 L 286.152 389.303 L 286.152 389.311 C 285.836 393.379 288.825 396.961 292.893 397.37 L 293.556 397.37 C 297.377 397.339 300.559 394.434 300.952 390.636 L 312 270.908 L 345.138 304.046 L 345.138 317.521 L 345.138 317.513 C 345.161 330.927 350.5 343.769 359.984 353.254 C 369.468 362.731 382.311 368.07 395.725 368.101 L 428.863 368.101 L 428.855 368.101 C 442.268 368.07 455.111 362.731 464.596 353.254 C 474.08 343.77 479.411 330.927 479.442 317.513 L 479.442 304.038 L 512.58 270.901 L 523.628 390.628 L 523.628 390.636 C 524.021 394.434 527.203 397.339 531.024 397.37 L 531.687 397.37 C 535.755 396.961 538.744 393.379 538.428 389.311 L 526.502 256.771 L 536.772 246.501 L 536.772 246.493 C 538.182 245.091 538.975 243.18 538.975 241.193 L 538.975 121.688 C 539.006 91.263 528.066 61.855 508.165 38.85 C 516.941 37.455 524.938 32.971 530.709 26.206 C 536.48 19.442 539.646 10.844 539.639 1.952 L 539.634 1.954 Z M 300.507 1.954 L 300.507 -47.416 C 315.638 -40.566 345.346 -22.229 345.346 1.954 C 345.346 14.343 335.307 24.382 322.926 24.382 C 310.545 24.382 300.507 14.343 300.507 1.954 L 300.507 1.954 Z M 524.723 237.985 L 467.071 295.637 L 467.071 295.644 C 465.661 297.047 464.868 298.957 464.86 300.945 L 464.86 317.51 C 464.945 327.04 461.231 336.216 454.536 342.988 C 447.841 349.768 438.711 353.597 429.182 353.628 L 396.044 353.628 L 396.052 353.628 C 386.598 353.597 377.538 349.83 370.851 343.15 C 364.171 336.463 360.404 327.41 360.373 317.957 L 360.373 301.385 C 360.365 299.397 359.572 297.486 358.162 296.084 L 300.51 238.433 L 300.51 121.687 C 300.51 81.631 321.875 44.62 356.56 24.595 C 391.254 4.571 433.983 4.571 468.676 24.595 C 503.362 44.618 524.727 81.631 524.727 121.687 L 524.723 237.985 Z M 524.723 1.954 C 524.723 14.343 514.684 24.382 502.303 24.382 C 489.923 24.382 479.884 14.343 479.884 1.954 C 479.884 -22.239 509.591 -40.568 524.723 -47.416 L 524.723 1.954 Z" style=""/>
    <path d="m380.3 223.44c-6.2734 0.011719-12.418 1.7539-17.762 5.0352-5.3477 3.2812-9.6836 7.9688-12.535 13.555-2.8594-5.5742-7.1992-10.254-12.543-13.523-5.3477-3.2695-11.488-5.0039-17.754-5.0117-2.0859 0-3.7773 1.6914-3.7773 3.7812 0 2.0859 1.6914 3.7773 3.7773 3.7773 7.0391 0 13.793 2.7969 18.77 7.7773 4.9805 4.9766 7.7734 11.727 7.7734 18.77v66.191c0 2.0859 1.6953 3.7773 3.7812 3.7773 2.0898 0 3.7812-1.6914 3.7812-3.7773v-66.191c0-7.043 2.7969-13.793 7.7734-18.77 4.9766-4.9805 11.73-7.7773 18.77-7.7773 2.0898 0 3.7812-1.6914 3.7812-3.7773 0-2.0898-1.6914-3.7812-3.7812-3.7812z"/>
  </g>
</svg>