<?xml version="1.0" encoding="UTF-8"?>
<svg width="700pt" height="700pt" version="1.1" viewBox="0 0 700 700" xmlns="http://www.w3.org/2000/svg" xmlns:xlink="http://www.w3.org/1999/xlink">

 <g>
  <path d="m551.25 96.25c-1.0781 0-2.625-0.0625-4.4609-0.12109-3.0469-0.10547-5.75-0.19141-8.1094-0.19141l-0.003907-0.003906c-7.2383-15.984-19.047-29.469-33.938-38.758-14.891-9.2852-32.199-13.957-49.738-13.426-17.629-0.43359-35 4.2695-50.004 13.535s-26.988 22.695-34.496 38.648c-2.1797 0-4.6367 0.085937-7.3867 0.18359-1.75 0.070312-3.2812 0.13281-4.375 0.13281h0.003907c-7.668-0.019531-15.277 1.3281-22.473 3.9805-18.461-14.602-41.492-22.207-65.02-21.48-44.301 0-77.227 21.543-93.379 60.855-2.293 0-4.6289 0.13281-6.8438 0.22656-1.75 0.078125-3.4492 0.16797-4.7773 0.16797-20.641 0.76953-40.227 9.3164-54.828 23.922-14.605 14.602-23.152 34.188-23.922 54.828 0 38.598 35.332 70 78.75 70h30.355l-21.344 85.383c-0.65234 2.6133-0.0625 5.3789 1.5938 7.5039 1.6602 2.1211 4.2031 3.3633 6.8945 3.3633h26.25v131.25c0 3.9453 2.6406 7.4062 6.4492 8.4453 0.75 0.19922 1.5234 0.30078 2.3008 0.30469 3.1016 0 5.9688-1.6406 7.543-4.3125l87.5-148.75c1.5898-2.707 1.6094-6.0586 0.054687-8.7812-1.5586-2.7266-4.457-4.4062-7.5977-4.4062h-31.613l23.336-70h78.277c43.418 0 78.75-31.402 78.75-70h26.73l-17.273 40.301c-1.1562 2.7031-0.87891 5.8086 0.73828 8.2656 1.6211 2.457 4.3633 3.9336 7.3047 3.9336h17.5v78.75c-0.003906 3.8906 2.5664 7.3203 6.3047 8.4062 3.7344 1.0898 7.7422-0.42188 9.832-3.707l61.25-96.25c1.7148-2.6953 1.8242-6.1094 0.28516-8.9102-1.5352-2.8008-4.4766-4.5391-7.6719-4.5391h-14.113l9.125-27.371c31.789-5.4922 57.488-31.254 57.488-60.129 0.37109-16.355-5.9648-32.148-17.531-43.719-11.57-11.566-27.363-17.902-43.719-17.531zm-297.05 268.48c-0.88672 2.668-0.44141 5.6016 1.207 7.8828 1.6445 2.2812 4.2852 3.6328 7.0977 3.6328h28.445l-63.445 107.87v-107.87c0-2.3203-0.92188-4.5469-2.5625-6.1875s-3.8672-2.5625-6.1875-2.5625h-23.793l19.688-78.75h64.871zm122.05-93.484h-210c-33.773 0-61.25-23.547-61.25-52.5 0.79297-15.988 7.5-31.113 18.82-42.43 11.316-11.32 26.441-18.027 42.43-18.82 1.5586 0 3.5-0.085938 5.6016-0.19141 1.918-0.078125 4.375-0.20312 6.5547-0.20312h-0.003906c1.2148-0.027344 2.4297 0.046875 3.6328 0.21875l7.4531 1.4961 2.5195-7.1758h0.003907c5.168-16.727 15.766-31.258 30.117-41.289 14.348-10.031 31.633-14.996 49.121-14.105 17.488-0.89062 34.773 4.0742 49.121 14.105 14.352 10.031 24.949 24.562 30.117 41.289l2.5195 7.1758 7.4531-1.4961h0.003906c3.3906-0.26953 6.7969-0.26953 10.184 0 2.0898 0.10547 4.043 0.19141 5.6016 0.19141 15.988 0.79297 31.113 7.5 42.43 18.82 11.32 11.32 18.027 26.441 18.82 42.43 0 28.938-27.477 52.484-61.25 52.484zm131.25 48.703v-57.453c0-2.3203-0.92188-4.5469-2.5625-6.1875s-3.8672-2.5625-6.1875-2.5625h-12.977l14.988-35h35.43l-10.746 32.234c-0.88672 2.668-0.44141 5.6016 1.207 7.8828 1.6445 2.2812 4.2852 3.6328 7.0977 3.6328h10.309zm35-118.7h-89.828c-4.5234-17.035-14.383-32.172-28.137-43.195-13.75-11.023-30.676-17.352-48.285-18.055-1.3281 0-3-0.085938-4.7773-0.16797-2.2148-0.097656-4.5508-0.21094-6.8438-0.22656-3.6367-8.9727-8.4844-17.41-14.41-25.066 2.8164-0.50781 5.6719-0.76953 8.5312-0.78906 1.2422 0 3.0273-0.0625 5.0156-0.14062 3.6055-0.21484 7.2227-0.21484 10.832 0l7.3242 1.4102 2.5547-7c5.457-14.145 15.176-26.242 27.809-34.621 12.637-8.3789 27.562-12.625 42.715-12.148 15.059-0.53125 29.898 3.6992 42.41 12.094 12.516 8.3906 22.062 20.516 27.285 34.648l2.625 6.9219 7.2617-1.3203c3.8633-0.21094 7.7383-0.21094 11.602 0 2.0547 0.078125 3.8594 0.14062 5.082 0.14062 11.723-0.40625 23.09 4.0742 31.383 12.367 8.293 8.293 12.773 19.66 12.367 31.383-0.015625 22.914-25.039 43.766-52.516 43.766z"/>

 </g>
</svg>
