<?xml version="1.0" encoding="UTF-8"?>
<svg version="1.1" viewBox="0 0 700 700" xmlns="http://www.w3.org/2000/svg" xmlns:xlink="http://www.w3.org/1999/xlink">

 <g>
  <path d="m459.86 255.96c-7.1016-52.555-39.816-112.76-97.465-179.21-3.1172-3.5938-7.6367-5.6562-12.395-5.6562-4.7539 0-9.2773 2.0625-12.391 5.6562-57.492 66.27-90.191 126.33-97.414 178.79-44.258 8.0781-82.348 20.938-110.74 37.449-44.617 25.949-53.984 54.246-53.984 73.414 0 34.887 30.379 66.383 85.539 88.684 50.457 20.395 117.18 31.629 187.9 31.629s137.44-11.234 187.9-31.629c55.16-22.301 85.539-53.797 85.539-88.684 0-49.895-61.902-91.688-162.48-110.45zm-7.6797 84.898c0.61719 0.27344 1.2305 0.55078 1.8281 0.82422 0.24219 0.11328 0.48047 0.22266 0.71875 0.33594 0.48047 0.22656 0.95313 0.44922 1.4219 0.67578 0.26172 0.125 0.51562 0.25391 0.77344 0.37891 0.4375 0.21484 0.87109 0.43359 1.2969 0.65234 0.25 0.125 0.5 0.25391 0.74609 0.38281 0.42578 0.22266 0.84375 0.44141 1.2539 0.66406 0.22656 0.12109 0.45703 0.24609 0.67969 0.36719 0.44531 0.24609 0.87891 0.48828 1.3086 0.73438 0.17578 0.097656 0.35156 0.19922 0.52344 0.29688 1.1953 0.69141 2.3281 1.3828 3.4023 2.0742 0.16016 0.10547 0.31641 0.20703 0.47656 0.3125 0.36719 0.24219 0.73438 0.48047 1.0898 0.72266 0.18359 0.125 0.35938 0.25 0.53906 0.37109 0.32031 0.22266 0.63672 0.44531 0.94531 0.66797 0.17969 0.12891 0.35547 0.25781 0.53125 0.38672 0.30078 0.21875 0.59375 0.44141 0.88281 0.66016 0.16406 0.125 0.32812 0.25 0.48828 0.375 0.29687 0.23437 0.58984 0.46875 0.875 0.69922 0.13281 0.10938 0.26562 0.21484 0.39453 0.32422 0.36328 0.30078 0.71094 0.60156 1.0508 0.90234 0.042969 0.039062 0.089844 0.074219 0.12891 0.11328 0.38672 0.34375 0.75391 0.68359 1.1094 1.0234 0.082031 0.078124 0.15625 0.15625 0.23828 0.23437 0.26563 0.25781 0.52344 0.51172 0.77344 0.76563 0.10547 0.11328 0.20703 0.22266 0.3125 0.33203 0.21094 0.22266 0.41797 0.44531 0.61719 0.66406 0.10547 0.11719 0.20703 0.23438 0.30859 0.35156 0.1875 0.21484 0.36719 0.42578 0.54297 0.64062 0.09375 0.11328 0.19141 0.23047 0.28125 0.34375 0.17578 0.21875 0.33984 0.4375 0.50391 0.65625 0.074219 0.10156 0.15625 0.20703 0.23047 0.30859 0.18359 0.25391 0.35547 0.50781 0.52344 0.75781 0.039063 0.0625 0.085938 0.12109 0.12109 0.17969 0.20703 0.32031 0.39453 0.63281 0.57031 0.94531 0.015625 0.027344 0.027343 0.054687 0.042969 0.082031 0.15625 0.27734 0.29687 0.55469 0.42969 0.82812 0.042969 0.085938 0.078125 0.16797 0.11719 0.25781 0.097657 0.21094 0.19141 0.42578 0.27734 0.63281 0.039063 0.097656 0.074219 0.19531 0.11328 0.29297 0.074218 0.19531 0.14062 0.39062 0.20312 0.58203 0.03125 0.097656 0.0625 0.19531 0.089844 0.29688 0.054688 0.19531 0.10156 0.38672 0.14453 0.57422 0.019531 0.089844 0.042968 0.17969 0.058593 0.26562 0.042969 0.20703 0.070313 0.41406 0.097657 0.61719 0.007812 0.066407 0.019531 0.13281 0.027343 0.19531 0.027344 0.26953 0.042969 0.53516 0.042969 0.79688 0 6.3906-8.7266 17.383-33.328 27.328-26.203 10.59-61.387 16.422-99.078 16.422s-72.875-5.832-99.074-16.422c-24.598-9.9453-33.328-20.938-33.328-27.328 0-0.050781 0.007813-0.10156 0.007813-0.15234 0.003906-0.21094 0.011719-0.42578 0.035156-0.64062 0.011719-0.11328 0.03125-0.22266 0.046875-0.33594 0.023438-0.16406 0.046875-0.32812 0.078125-0.49609 0.023437-0.125 0.054687-0.25 0.085937-0.375 0.039063-0.16016 0.078126-0.32031 0.125-0.48047 0.039063-0.13281 0.078126-0.26172 0.12109-0.39453 0.050782-0.16016 0.10938-0.32422 0.17188-0.48828 0.050781-0.13281 0.097657-0.26562 0.15625-0.40234 0.070313-0.16797 0.14844-0.34375 0.22656-0.51562 0.058594-0.13281 0.11719-0.26172 0.18359-0.39453 0.09375-0.19141 0.19922-0.38672 0.30469-0.57812 0.0625-0.11328 0.12109-0.23047 0.1875-0.34766 0.17578-0.30469 0.36328-0.60938 0.5625-0.91797 0.066406-0.10547 0.14453-0.20703 0.21484-0.3125 0.14453-0.21484 0.29297-0.43359 0.45312-0.64844 0.097656-0.13281 0.20703-0.26953 0.30859-0.40625 0.14453-0.19141 0.28906-0.37891 0.44531-0.57031 0.11719-0.14453 0.23828-0.28906 0.35938-0.43359 0.15625-0.1875 0.31641-0.375 0.48438-0.5625 0.12891-0.14844 0.26172-0.29297 0.39844-0.44141 0.17578-0.19141 0.35937-0.38281 0.54297-0.57422 0.14062-0.14453 0.27734-0.28906 0.42188-0.43359 0.20312-0.20312 0.41406-0.40625 0.62891-0.61328 0.14062-0.13281 0.27734-0.26953 0.42187-0.40625 0.26953-0.25 0.55469-0.50781 0.83984-0.76172 0.10156-0.089844 0.19531-0.17578 0.29688-0.26562 0.38672-0.33984 0.78906-0.67578 1.207-1.0156 0.14453-0.11719 0.30078-0.23828 0.44922-0.35547 0.28516-0.22656 0.57031-0.45313 0.87109-0.68359 0.18359-0.14062 0.375-0.28516 0.56641-0.42578 0.27734-0.20703 0.55859-0.41406 0.84375-0.625 0.20703-0.14844 0.41406-0.29687 0.625-0.44141 0.28906-0.20312 0.58594-0.41016 0.88672-0.61328 0.21875-0.14844 0.43359-0.29688 0.66016-0.44141 0.31641-0.20703 0.63672-0.41797 0.96484-0.625 0.22266-0.14062 0.44141-0.28516 0.66797-0.42578 0.36328-0.23047 0.73828-0.45703 1.1172-0.68359 0.20312-0.12109 0.39844-0.24219 0.60156-0.36719 0.58203-0.34375 1.1758-0.69141 1.7891-1.0352 0.09375-0.050781 0.19531-0.10547 0.28906-0.16016 0.52734-0.29688 1.0625-0.58984 1.6094-0.88281 0.23828-0.12891 0.48828-0.25781 0.73438-0.38672 0.41406-0.21875 0.83594-0.4375 1.2617-0.65625 0.28125-0.14062 0.56641-0.28516 0.85156-0.42578 0.41016-0.20312 0.82422-0.40625 1.2461-0.61328 0.30078-0.14453 0.60547-0.28906 0.91016-0.43359 0.42578-0.20312 0.85547-0.39844 1.293-0.60156 0.3125-0.14453 0.625-0.28516 0.94531-0.42969 0.45312-0.20312 0.91797-0.40625 1.3828-0.60547 0.3125-0.13672 0.625-0.27344 0.94141-0.41016 0.53516-0.22656 1.082-0.45312 1.6328-0.67969 0.26172-0.10547 0.51562-0.21484 0.77734-0.32031 0.80078-0.32422 1.6172-0.64453 2.4492-0.96484 0.28516-0.10938 0.57812-0.21484 0.86719-0.32422 0.48437-0.18359 0.97266-0.36719 1.4688-0.54688 0.050781 0.082031 0.10156 0.16016 0.15234 0.24219 0.23047 0.375 0.46875 0.74219 0.69922 1.1094 0.42188 0.67188 0.84766 1.3398 1.2812 1.9961 0.26953 0.40625 0.54688 0.80859 0.82422 1.2148 0.41797 0.61328 0.83984 1.2188 1.2695 1.8203 0.29297 0.41016 0.58984 0.81641 0.89062 1.2227 0.43359 0.58594 0.87109 1.1641 1.3164 1.7422 0.30469 0.39453 0.61328 0.78906 0.92578 1.1797 0.46484 0.58203 0.93359 1.1562 1.4102 1.7266 0.30469 0.36719 0.60547 0.73438 0.91797 1.0938 0.52344 0.61328 1.0625 1.2148 1.5977 1.8125 0.27344 0.30469 0.54297 0.61328 0.82031 0.91406 0.74609 0.80859 1.5039 1.6055 2.2734 2.3906l0.23438 0.24609c0.85156 0.86328 1.7227 1.707 2.6055 2.5391 0.27344 0.25781 0.55469 0.50781 0.83203 0.76172 0.61719 0.57031 1.2344 1.1328 1.8672 1.6875 0.34375 0.30469 0.69922 0.60156 1.0508 0.89844 0.57422 0.49219 1.1562 0.98047 1.7422 1.4609 0.37891 0.30859 0.76172 0.61328 1.1406 0.91797 0.57812 0.45703 1.1602 0.91016 1.7461 1.3555 0.39453 0.29688 0.78906 0.59375 1.1836 0.89062 0.59766 0.44141 1.2031 0.875 1.8125 1.3047 0.39453 0.27734 0.78516 0.55469 1.1797 0.82812 0.65234 0.44531 1.3125 0.88281 1.9727 1.3125 0.36328 0.23828 0.72266 0.48047 1.0859 0.71094 0.8125 0.51562 1.6367 1.0195 2.4648 1.5156 0.22266 0.13281 0.44531 0.27734 0.66797 0.40625 1.0586 0.62109 2.1289 1.2266 3.2109 1.8164 0.28125 0.15234 0.57031 0.29688 0.85547 0.44922 0.80469 0.42578 1.6094 0.85156 2.4258 1.2578 0.40625 0.20313 0.81641 0.39453 1.2266 0.59375 0.70703 0.34375 1.4141 0.68359 2.1328 1.0117 0.44922 0.20703 0.90234 0.40625 1.3555 0.60547 0.69141 0.30469 1.3828 0.60547 2.082 0.89844 0.46875 0.19531 0.9375 0.38672 1.4102 0.57812 0.69922 0.28125 1.4062 0.55469 2.1133 0.82422 0.46875 0.17969 0.94141 0.35547 1.4141 0.53125 0.73828 0.26953 1.4844 0.52734 2.2344 0.78125 0.44922 0.15234 0.89453 0.30859 1.3438 0.45703 0.85156 0.27734 1.7109 0.53906 2.5742 0.80078 0.35156 0.10547 0.69922 0.21875 1.0547 0.32422 1.2148 0.35156 2.4414 0.69141 3.6758 1.0039 0.23047 0.058593 0.46875 0.10938 0.69922 0.16797 1.0078 0.25 2.0195 0.49219 3.0352 0.71875 0.44531 0.097656 0.89453 0.1875 1.3438 0.28125 0.8125 0.16797 1.6289 0.33984 2.4492 0.49219 0.50391 0.09375 1.0156 0.17969 1.5234 0.26953 0.77344 0.13281 1.5508 0.26562 2.332 0.38672 0.53125 0.082031 1.0625 0.16016 1.5938 0.23438 0.77344 0.10938 1.5508 0.21094 2.332 0.30469 0.53125 0.066406 1.0664 0.12891 1.6016 0.1875 0.80469 0.085937 1.6094 0.16016 2.4219 0.23437 0.51172 0.042969 1.0234 0.09375 1.5391 0.13281 0.89062 0.066406 1.7852 0.12109 2.6797 0.16797 0.4375 0.023437 0.87109 0.054687 1.3086 0.074218 1.332 0.058594 2.668 0.10156 4.0117 0.11719h0.015625c0.26172 0.003906 0.52344-0.003906 0.78906-0.003906 0.22266 0 0.44531 0 0.67578 0.011718 0.51172 0 1.0195-0.019531 1.5312-0.023437 0.53906-0.007813 1.0781-0.011719 1.6172-0.023437 0.89062-0.023438 1.7773-0.058594 2.6641-0.10156 0.42188-0.019531 0.83984-0.035156 1.2578-0.0625 0.99609-0.058594 1.9883-0.12891 2.9805-0.21094 0.31641-0.023438 0.63281-0.046876 0.94531-0.074219 1.082-0.097657 2.1641-0.21094 3.2383-0.33594 0.22656-0.027343 0.45703-0.050781 0.68359-0.078125 1.1523-0.14062 2.2969-0.29688 3.4414-0.46875 0.16016-0.023437 0.31641-0.042968 0.47656-0.070312 1.1992-0.18359 2.3906-0.39062 3.5781-0.61328 0.10547-0.019531 0.21484-0.039062 0.32422-0.058593 1.2227-0.23047 2.4414-0.48047 3.6562-0.75 0.074219-0.015625 0.15234-0.03125 0.22656-0.046875 1.2305-0.27344 2.457-0.57031 3.6758-0.88281 0.058594-0.015625 0.12109-0.03125 0.17969-0.042969 1.2188-0.31641 2.4375-0.65234 3.6406-1.0039 0.058594-0.015625 0.11719-0.03125 0.17969-0.050781 1.1914-0.35156 2.375-0.72266 3.5547-1.1094 0.074219-0.023438 0.14844-0.046875 0.22266-0.070312 1.1602-0.38672 2.3086-0.78906 3.4492-1.207 0.089844-0.03125 0.18359-0.0625 0.27344-0.097656 1.1133-0.41406 2.2148-0.84375 3.3125-1.2891 0.12109-0.046876 0.24219-0.09375 0.35938-0.14063 1.0703-0.4375 2.1289-0.89844 3.1836-1.3672 0.14063-0.0625 0.28125-0.12109 0.42188-0.18359 1.0508-0.47656 2.0938-0.96875 3.125-1.4727 0.13672-0.066406 0.27344-0.125 0.41016-0.19531 1.1328-0.55859 2.2539-1.1367 3.3594-1.7344 0.03125-0.015626 0.066406-0.03125 0.097656-0.050782 1.1445-0.61719 2.2812-1.2539 3.4062-1.9102 0.082031-0.046875 0.16016-0.097656 0.23828-0.14844 0.99219-0.58594 1.9727-1.1836 2.9375-1.7969 0.35547-0.22266 0.70703-0.45313 1.0586-0.68359 0.71875-0.46875 1.4336-0.94141 2.1406-1.4258 0.35547-0.24219 0.70703-0.48437 1.0586-0.73047 0.80859-0.57031 1.6094-1.1484 2.3945-1.7383 0.20703-0.15234 0.41406-0.30078 0.61719-0.45312 0.97656-0.73828 1.9375-1.4961 2.8828-2.2656 0.26953-0.22266 0.53516-0.44922 0.80469-0.67187 0.69531-0.57813 1.3867-1.1641 2.0664-1.7578 0.30469-0.26562 0.60547-0.53516 0.90625-0.80469 0.69531-0.625 1.3828-1.2578 2.0586-1.9023 0.22266-0.21094 0.44922-0.41797 0.66797-0.62891 0.88672-0.85156 1.7539-1.7227 2.6055-2.6055 0.16406-0.16797 0.32422-0.34375 0.48438-0.51953 0.69141-0.72656 1.3711-1.4609 2.0391-2.207 0.25-0.27734 0.49219-0.55469 0.73828-0.83594 0.61328-0.69922 1.2148-1.4062 1.8086-2.1211 0.20703-0.24609 0.41406-0.49219 0.61719-0.74219 0.78516-0.96875 1.5586-1.9453 2.3086-2.9414 0.015625-0.023437 0.03125-0.042969 0.050781-0.066406 0.72656-0.96484 1.4297-1.9453 2.1211-2.9336 0.1875-0.26562 0.36719-0.53906 0.55469-0.80859 0.53906-0.78906 1.0664-1.582 1.582-2.3867 0.17578-0.27344 0.35156-0.54297 0.52344-0.81641 0.12891-0.20703 0.26562-0.41016 0.39453-0.61719 0.37109 0.14062 0.74609 0.28516 1.1094 0.42578 0.28516 0.10938 0.57031 0.21875 0.84766 0.33203 0.63281 0.25 1.2578 0.50391 1.875 0.75781 0.17969 0.074219 0.36328 0.14844 0.53906 0.21875 0.79688 0.33203 1.5742 0.66406 2.3398 1 0.12891 0.054688 0.25391 0.11328 0.38672 0.17188zm-102.18-227.93c61.383 74.805 76.68 126.84 78.367 157.93 0.82031 15.145-1.332 28.805-6.3984 40.602-5.2266 12.168-13.051 21.398-22.145 28.184-15.113 11.277-33.73 15.797-49.75 15.82-0.046875 0-0.09375 0.003906-0.13672 0.003906-0.35938 0-0.71484-0.003906-1.0586-0.007812-25.426-0.32031-57.441-12.172-71.047-44.469-0.003907-0.003907-0.003907-0.011719-0.007813-0.015626-0.61719-1.4648-1.1914-2.9609-1.7188-4.4844-3.707-10.695-5.207-22.766-4.457-35.953 1.7656-31.047 17.113-82.996 78.352-157.61zm174.5 311.74c-46.637 18.855-109 29.238-175.6 29.238s-128.96-10.383-175.6-29.238c-40.719-16.457-65.027-38.238-65.027-58.262 0-14.926 13.379-30.922 37.672-45.051 23.348-13.578 55.969-24.809 93.227-32.215 0.019531 0.20312 0.046874 0.39844 0.066406 0.59766 0.10156 1.0781 0.21875 2.1523 0.34375 3.2227 0.035156 0.30469 0.066406 0.61328 0.10547 0.91406 0.17188 1.3555 0.36719 2.7031 0.58203 4.0391 0.054687 0.34375 0.11719 0.67969 0.17578 1.0234 0.17188 1.0078 0.35156 2.0117 0.54688 3.0078 0.085938 0.44531 0.17969 0.89063 0.26953 1.332 0.19531 0.9375 0.40234 1.8672 0.61719 2.7969 0.066406 0.27344 0.11719 0.55469 0.18359 0.83203-0.125 0.046875-0.25 0.097656-0.37109 0.14453-0.44141 0.16797-0.875 0.33984-1.3125 0.50781-0.80469 0.30859-1.6016 0.62109-2.3906 0.9375-0.47266 0.1875-0.93359 0.38281-1.4023 0.57422-0.73828 0.30469-1.4727 0.61328-2.1992 0.92188-0.46875 0.20312-0.93359 0.40234-1.3945 0.60937-0.71484 0.3125-1.418 0.62891-2.1172 0.94922-0.44531 0.20312-0.89062 0.40625-1.332 0.61328-0.71484 0.33594-1.418 0.67188-2.1172 1.0156-0.40234 0.19531-0.80859 0.39062-1.2031 0.58984-0.77344 0.38672-1.5352 0.78125-2.2891 1.1719-0.30078 0.15625-0.60938 0.3125-0.90625 0.46875-2.1016 1.1172-4.125 2.2617-6.0664 3.4336-0.28906 0.17578-0.57031 0.35156-0.85547 0.53125-0.67188 0.41406-1.3359 0.82812-1.9883 1.2461-0.33594 0.21484-0.66406 0.43359-0.99219 0.65234-0.58594 0.38672-1.168 0.77734-1.7383 1.168-0.33984 0.23438-0.67188 0.46875-1.0039 0.70312-0.54688 0.38672-1.0898 0.77734-1.6211 1.1719-0.32422 0.23828-0.64453 0.47656-0.96094 0.71484-0.53125 0.40625-1.0547 0.8125-1.5703 1.2188-0.29297 0.23047-0.58594 0.46094-0.875 0.69531-0.54688 0.44531-1.082 0.89453-1.6094 1.3477-0.23438 0.19922-0.47656 0.39844-0.70312 0.59766-0.67969 0.59375-1.3398 1.1914-1.9844 1.7969-0.066406 0.0625-0.13672 0.12109-0.20312 0.18359-0.71875 0.67578-1.4102 1.3594-2.0859 2.0469-0.15625 0.16016-0.30078 0.32031-0.45312 0.48047-0.50391 0.52344-0.99609 1.0469-1.4766 1.5742-0.21094 0.23438-0.41016 0.46875-0.61719 0.70312-0.40625 0.46094-0.80469 0.92578-1.1914 1.3906-0.21484 0.26172-0.42187 0.52344-0.63281 0.78516-0.35938 0.44922-0.71094 0.89844-1.0508 1.3516-0.20312 0.26953-0.40234 0.54297-0.60156 0.8125-0.33203 0.45703-0.65234 0.91797-0.96875 1.3789-0.17969 0.26562-0.36328 0.53125-0.53906 0.80078-0.32031 0.48828-0.625 0.97656-0.92188 1.4688-0.14844 0.24219-0.30469 0.48828-0.44531 0.73438-0.33984 0.58203-0.66406 1.168-0.97656 1.7539-0.082032 0.15625-0.17578 0.3125-0.25391 0.46875-0.39453 0.75781-0.76563 1.5195-1.1133 2.2852-0.042968 0.09375-0.078125 0.19141-0.12109 0.28516-0.29297 0.66016-0.57422 1.3281-0.83203 1.9961-0.09375 0.23828-0.17578 0.48047-0.26172 0.71875-0.19531 0.53125-0.38672 1.0586-0.55859 1.5938-0.089844 0.28125-0.17578 0.5625-0.25781 0.84375-0.15234 0.5-0.29688 1-0.42578 1.5039-0.078125 0.29688-0.15234 0.59375-0.22266 0.89062-0.12109 0.49609-0.22656 0.99609-0.32812 1.4961-0.058594 0.29688-0.12109 0.59375-0.17188 0.89453-0.09375 0.51562-0.17188 1.0352-0.24219 1.5547-0.039062 0.28125-0.082031 0.5625-0.11719 0.84766-0.070313 0.57812-0.11719 1.1602-0.16016 1.7422-0.015626 0.22266-0.042969 0.44922-0.054688 0.67187-0.046875 0.8125-0.078125 1.6289-0.078125 2.4492 0 23.203 19.121 43.711 53.844 57.746 30 12.145 69.555 18.828 111.36 18.828s81.359-6.6836 111.37-18.816c34.719-14.035 53.844-34.547 53.844-57.746 0-10.336-3.9609-25.754-22.84-40.512-0.99609-0.78125-2.0352-1.543-3.0898-2.3008-0.26172-0.1875-0.52344-0.375-0.79297-0.5625-0.96094-0.67578-1.9414-1.3477-2.9492-2.0078-0.12109-0.078126-0.23828-0.16016-0.35938-0.24219-1.125-0.72656-2.2812-1.4414-3.4609-2.1484-0.28125-0.16797-0.57031-0.33594-0.85156-0.50391-1.0156-0.59766-2.0508-1.1875-3.1055-1.7656-0.22266-0.12109-0.43359-0.24609-0.66016-0.36719-1.2461-0.67578-2.5273-1.3398-3.8281-1.9922-0.28125-0.14062-0.56641-0.27734-0.85156-0.41797-1.1055-0.54297-2.2266-1.082-3.3672-1.6094-0.29688-0.13672-0.59375-0.27734-0.89453-0.41406-1.3711-0.625-2.7695-1.2422-4.1953-1.8438-0.25-0.10547-0.50391-0.20703-0.75391-0.3125-1.2266-0.51172-2.4727-1.0117-3.7383-1.5078-0.21484-0.082032-0.41797-0.17188-0.63281-0.25391 0.070312-0.29297 0.13281-0.59375 0.20312-0.89062 0.22266-0.92969 0.4375-1.8633 0.64062-2.8008 0.10156-0.46875 0.19922-0.93359 0.29297-1.4062 0.19922-0.98047 0.38281-1.9648 0.55469-2.9531 0.066406-0.37891 0.14062-0.75391 0.20312-1.1328 0.22266-1.3359 0.42188-2.6836 0.60156-4.0391 0.046875-0.36328 0.085937-0.72656 0.12891-1.0938 0.125-1.0273 0.24219-2.0547 0.34375-3.0898 0.023438-0.23047 0.054688-0.45312 0.074219-0.6875 36.953 7.4727 68.383 18.473 91.68 32.152 23.895 14.047 37.059 29.918 37.059 44.703 0 20.023-24.309 41.805-65.027 58.262z"/>
  
 </g>
</svg>
