<?xml version="1.0" encoding="UTF-8"?>
<svg version="1.1" viewBox="0 0 700 700" xmlns="http://www.w3.org/2000/svg">
 <g>
  <path d="m402.53 236.19c-0.98828-2.3359-2.8672-4.1836-5.2188-5.1367-2.3516-0.95313-4.9883-0.93359-7.3242 0.058593-38.023 15.211-70.891 41.008-94.695 74.332l-0.066407 0.09375c-31.371 46.027-44.918 85.488-40.641 118.38 0.68359 5.2422 5.4844 8.9375 10.727 8.2578 5.2383-0.68359 8.9375-5.4844 8.2539-10.727-3.6484-28.062 8.832-63.086 37.441-105.07 21.758-30.344 51.758-53.812 86.445-67.637 4.8672-2.0625 7.1406-7.6797 5.0781-12.547z"/>
  <path d="m407.35 327.28c5.0195-0.25 9.9062-1.6719 14.273-4.1562 8.2734-4.1406 14.621-11.328 17.703-20.051 3.3516-8.7812 4.8906-18.152 4.5156-27.547 1.168-0.57031 2.375-1.0547 3.6133-1.4453 15.266-2.2461 30.156-6.5625 44.258-12.828 4.8828-1.9102 9.1406-5.1328 12.312-9.3047 3.1719-4.1758 5.1289-9.1445 5.6641-14.359 0.10547-0.99219 0.074219-1.9961-0.09375-2.9805-3.25-19.418-18.605-37.211-46.066-53.379l-0.17969-0.17969 0.003907-0.003906c-9.9102-5.5898-20.91-8.9805-32.246-9.9336h-0.089844c-14.395-0.66797-28.82 0.027344-43.086 2.0742-2.6953-5.6641-6.5391-10.707-11.289-14.809l-0.17969-0.089844-0.44922-0.36328h-0.003906c-5.3867-4.1758-11.973-6.5195-18.789-6.6836h-1.082c-13.82 0-29.898 9.7539-48.414 29.176l-0.35937 0.36328v-0.003906c-5.4648 6.1211-10.25 12.812-14.273 19.961-5.5469 10.523-10.289 21.457-14.18 32.699-0.67187 1.7617-1.6172 3.4062-2.8008 4.875l-0.35938 0.35938c-0.42188 0.23438-0.87891 0.38672-1.3555 0.45312-2.0781-0.089844-4.1562-0.089844-5.8711-0.17969-3.3477-0.097656-6.6992 0.054688-10.027 0.44922-1.7617 0.25781-3.4531 0.87109-4.9648 1.8086-4.8984 2.4336-9.0703 6.1094-12.105 10.656l-0.089844 0.17969c-11.289 16.258-9.1836 38.809 6.3203 67.652l0.003906 0.003906c2.5156 4.5898 8.2656 6.2891 12.875 3.8125 4.6133-2.4805 6.3633-8.2148 3.9219-12.844-11.742-21.949-14.27-37.848-7.4062-47.691 1.8945-2.6211 3.25-4.0625 4.3359-4.4258 0.26953 0 0.44922-0.17969 0.72266-0.26953v-0.003907c2.043-0.1875 4.0938-0.24609 6.1406-0.17969 1.9883 0 4.2461 0.089844 6.8633 0.17969h0.003906c0.63281 0.015625 1.2656-0.015625 1.8945-0.089843 3.4727-0.49609 6.7812-1.7969 9.6641-3.793 0.98437-0.65234 1.8906-1.4102 2.7109-2.2578l0.26953-0.27344h0.003906c2.8633-3.1641 5.1562-6.8008 6.7734-10.746l0.17969-0.44922v-0.003906c3.5586-10.055 7.7227-19.891 12.465-29.445l0.44922-0.72266c3.4492-6.1055 7.5352-11.828 12.195-17.07 14.992-15.629 26.555-23.395 34.773-23.031 3.0195 0.066406 5.9375 1.1133 8.3125 2.9805l0.54297 0.45312-0.003907-0.003906c3.1172 3.2461 5.5977 7.043 7.3164 11.199 0.30469 0.65625 0.69922 1.2656 1.1758 1.8086 0.68359 0.84766 1.4375 1.6328 2.2578 2.3477 1.9023 1.7891 4.2891 2.9844 6.8633 3.4336 0.86328 0.16406 1.7461 0.19531 2.6211 0.089843 14.398-2.2109 28.973-3.0859 43.535-2.6172l0.17969 0.089844c8.668 0.73828 17.078 3.3242 24.66 7.5859 16.754 7.4883 29.848 21.332 36.398 38.477-0.71875 3.5586-3.2578 6.4766-6.6836 7.6797-0.4375 0.17188-0.86328 0.38281-1.2656 0.63281-12.609 5.293-25.844 8.9648-39.379 10.926-0.35938 0.089844-0.72266 0.17969-1.1758 0.26953v0.003907c-3.5156 1.0859-6.8828 2.6016-10.023 4.5156-0.20312 0.12109-0.38672 0.27344-0.54297 0.45313-2.2148 1.4414-3.9453 3.5195-4.9688 5.9609-0.44922 0.99219-0.8125 2.168-1.2656 3.4297-0.22266 0.91406-0.3125 1.8594-0.26953 2.8008 0.69141 7.7148-0.32812 15.484-2.9805 22.762-0.29297 0.54688-0.53516 1.1211-0.72266 1.7148-1.7734 4.0781-4.9922 7.3594-9.0312 9.2148-1.7891 0.93359-3.7656 1.4609-5.7812 1.5352-20.805-1.4766-41.715 0.32031-61.961 5.3281-4.8398 2.1445-7.0234 7.8086-4.8789 12.648 2.1445 4.8359 7.8047 7.0234 12.645 4.875 17.961-3.7266 36.348-4.9727 54.648-3.7031z"/>
  <path d="m439.04 357.05c-3.375-4.0664-9.4062-4.625-13.477-1.2539l-19.383 16.078-0.67578 0.61719v0.003907c-4.9297 4.9414-9.5742 10.16-13.906 15.633l-0.36719 0.49609c-8.2578 11.371-14.699 23.953-19.102 37.297-1.4766 5.0625 1.418 10.363 6.4727 11.859 5.0586 1.4961 10.371-1.3789 11.883-6.4297 3.8047-11.305 9.3125-21.965 16.34-31.605 3.7461-4.7148 7.7578-9.2227 12.008-13.492l18.953-15.727c1.9531-1.6211 3.1836-3.9492 3.418-6.4766s-0.54297-5.043-2.1641-7z"/>
  <path d="m516.81 354.27c-0.81641-2.8398-1.9688-5.5703-3.4336-8.1328-1.8398-2.9961-3.9492-5.8125-6.3047-8.4219 3.6719-5.3516 6.2773-11.359 7.6758-17.699 1.1914-6.8594 0.57031-13.914-1.7969-20.461-2.6367-8.3633-9.3477-14.812-17.809-17.121-0.36719-0.11719-0.74219-0.21484-1.1172-0.28516-3.7852-0.90625-7.7383-0.78516-11.461 0.33984-3.7188 1.1289-7.0742 3.2227-9.7227 6.0703-1.7734 1.8164-2.7539 4.2656-2.7227 6.8086 0.035156 2.5391 1.0742 4.9609 2.8945 6.7344 1.8203 1.7734 4.2695 2.75 6.8086 2.7109 2.543-0.035156 4.9648-1.0781 6.7344-2.9023 0.85938-0.8125 2.0586-1.1758 3.2266-0.97656 2.2773 0.64453 4.1172 2.3203 4.9727 4.5273l0.082032 0.24609c1.3281 3.5234 1.6953 7.3398 1.0664 11.051l-0.11328 0.79688-0.003907 0.003906c-1.5078 4.6953-3.8008 9.1016-6.7812 13.031-0.375 0.57812-0.6875 1.1914-0.92969 1.8359-0.83203 2.168-1.1445 4.5039-0.91016 6.8164l0.082031 0.91406c0.25781 1.3945 0.6875 2.7539 1.2734 4.0469 0.57031 1.2422 1.2539 2.4258 2.043 3.5391l0.65625 0.83203h0.003906c1.9766 2.0781 3.7695 4.3203 5.3594 6.707l0.007812 0.015625 0.18359 0.33203v0.003907c0.6875 1.2188 1.2266 2.5156 1.6094 3.8633 1.3672 4.3359 1.5586 8.957 0.55469 13.395-5.3633 15.41-22.637 24.184-51.816 26.324-5.2734 0.38672-9.2305 4.9727-8.8438 10.242 0.38672 5.2734 4.9727 9.2305 10.242 8.8438 37.551-2.7539 60.383-15.797 68.5-39.133l0.003906-0.011719v0.003906c2.2969-7.9961 2.2617-16.48-0.097656-24.457z"/>
  <path d="m244.71 193.89c3.0547-0.027344 6.7539 0.019531 11.098 0.13672 2.5508 0.089844 5.0312-0.84375 6.8906-2.5898 1.8555-1.75 2.9414-4.168 3.0078-6.7188 0.070312-2.5508-0.88281-5.0234-2.6445-6.8672-1.7656-1.8438-4.1914-2.9102-6.7422-2.957-4.5586-0.12109-8.4766-0.16797-11.75-0.14453-4.2773 0.027344-10.062 0.12109-17.348 0.28125l0.074219-0.003906c-1.3125 0.019531-2.6172 0.023437-3.918 0.007812l-0.023437 0.003906c-1.0781-0.007812-2.5977-0.042968-4.5508-0.10547-7.9844-0.35156-12.629-0.52344-13.934-0.51562h-0.085938c-10.059-0.10938-20.168-0.16797-30.324-0.17969-3.1016-0.027343-6.1445-0.10547-9.1289-0.22656l-27.363-1.4805c-3.1133-0.17578-6.3008-0.42188-9.5703-0.73828l-0.18359-0.015625 0.003906-0.003906c-4.3398-0.11719-8.6484-0.73828-12.844-1.8516 0.14844 0.070313 0.29297 0.14844 0.43359 0.24219-2.1445-1.3633-4.7422-1.8164-7.2188-1.2617-2.4766 0.55469-4.6328 2.0703-5.9922 4.2148-2.832 4.4609-1.5078 10.375 2.9531 13.207 0.75 0.46875 1.5352 0.87891 2.3516 1.2188 6.0586 1.9883 12.375 3.1016 18.746 3.3047 3.4883 0.33594 6.9023 0.59766 10.242 0.78906l0.027344 0.003906 27.484 1.4844 0.12109 0.007812c3.1992 0.13281 6.457 0.21094 9.7773 0.24219h0.070312c10.168 0.011719 20.285 0.074219 30.355 0.18359l0.33594-0.003906-0.046875 0.003906h-0.003906c0.97656-0.007813 5.3125 0.15625 13.02 0.5l0.18359 0.007812h0.007812c2.0898 0.066406 3.75 0.10156 4.9609 0.11328l-0.023438-0.003907c1.4688 0.015625 2.9414 0.015625 4.4219-0.007812h0.070312c7.1836-0.16016 12.863-0.25 17.047-0.27734z"/>
  <path d="m126.63 263.48 22.051-0.76172 0.078125-0.003906c4.9258-0.21094 10.039-0.46094 15.344-0.75391 0.98047-0.042969 4.5469-0.28516 10.719-0.72656 1.4258-0.089843 2.4961-0.15234 3.2148-0.18359l0.039063-0.003907c2.6211-0.13281 4.8867-0.16406 6.7891-0.097656h0.003906c5.2852 0.18359 9.7148-3.9492 9.8984-9.2305 0.18359-5.2812-3.9531-9.7109-9.2344-9.8945-2.4453-0.085937-5.25-0.050781-8.4141 0.10938l0.039062-0.003906c-0.82422 0.039062-2 0.10547-3.5312 0.19922l-0.085937 0.007813c-6.1016 0.4375-9.5273 0.67188-10.277 0.70312l-0.125 0.007812c-5.2383 0.28516-10.293 0.53516-15.16 0.74609l-21.938 0.75781c-0.67578 0.019531-1.4414 0.03125-2.293 0.042969-4.7383 0.039062-7.6094 0.070312-8.6094 0.097656l-0.050781 0.003906c-1.8789 0.0625-3.7539 0.22266-5.6133 0.47266-5.2422 0.69531-8.9258 5.5039-8.2344 10.742 0.69141 5.2422 5.5039 8.9258 10.742 8.2344 1.3516-0.17969 2.5742-0.28125 3.6719-0.31641 0.92578-0.023437 3.6836-0.054687 8.2969-0.09375h0.054687c0.93359-0.011718 1.7773-0.03125 2.5391-0.046874z"/>
  <path d="m568.67 259.99 0.90234-0.45312c14.379-9.6211 24.277-24.629 27.457-41.637l0.17969-0.63281c0.17969-1.3555 0.35937-2.6211 0.54297-3.8828 0.089844-0.99609 0.089844-1.8945 0.089844-2.8008 0.050781-2.5-0.25-4.9961-0.90234-7.4102-0.77734-3.1445-2.5547-5.9492-5.0625-8-2.5078-2.0547-5.6094-3.2383-8.8477-3.3789h-1.625c-14.684 1.8984-28.77 6.9844-41.277 14.902-4.5664 2.6445-6.1211 8.4883-3.4805 13.051 2.6445 4.5664 8.4883 6.1211 13.055 3.4805 8.9297-5.5117 18.734-9.4531 28.992-11.652l-0.089843 0.089843c-0.019531 0.66406-0.078125 1.3281-0.17969 1.9844-2.2109 11.785-8.875 22.266-18.605 29.27-1.5234 0.75391-3.3281 0.6875-4.7891-0.18359l-0.26953-0.089844c-2.3398-1-4.0781-3.0391-4.6992-5.5078-0.89844-5.1875-5.832-8.668-11.02-7.7695-5.1875 0.91016-8.6875 5.8164-7.8555 11.02 1.4727 8.3828 6.9297 15.523 14.633 19.148l0.089844 0.089844c7.0273 3.9961 15.609 4.1328 22.762 0.36328z"/>
  <path d="m594.44 312.45c-4.3672-2.957-9.1445-5.2578-14.18-6.8281-2.7383-0.77734-5.5352-1.3359-8.3594-1.6641l-0.10938-0.011719v0.003907c-2.9531-0.28906-5.9336 0.0625-8.7344 1.0391-2.4023 0.83203-4.3711 2.5859-5.4766 4.875-1.1055 2.2891-1.2539 4.9219-0.41406 7.3203 0.83984 2.3984 2.5977 4.3672 4.8867 5.4688 2.293 1.0977 4.9258 1.2422 7.3242 0.39844 0.21094-0.054687 0.42969-0.066406 0.64453-0.039062 1.7695 0.22656 3.5195 0.58984 5.2344 1.0859l0.070313 0.015625h0.003906c3.1445 1.0898 6.125 2.6055 8.8633 4.5 2.1406 1.3672 4.7422 1.8281 7.2227 1.2734 2.4844-0.55078 4.6445-2.0703 6.0039-4.2188 1.3633-2.1445 1.8125-4.7461 1.2539-7.2266-0.55859-2.4805-2.082-4.6367-4.2344-5.9922z"/>
  <path d="m189.2 323.3c-3.3047-0.11719-6.7188-0.18359-10.234-0.20703h-0.003906c-1.793-0.007813-3.6406-0.007813-5.5391 0.003906h-0.039063c-7.0469 0.074219-11.262 0.10156-12.648 0.089844h-0.039063c-3.5977-0.011719-6.1094-0.054688-7.5352-0.12109l-0.17188-0.007812c-1.7227-0.046876-4.0898-0.23047-7.1016-0.54297l-0.085938-0.007813c-1.4609-0.14062-3.9688-0.49219-7.5312-1.0547l-0.34766-0.046875c-1.582-0.19141-2.7695-0.3125-3.5586-0.36719-5.2617-0.33594-9.8047 3.6445-10.16 8.9023-0.35938 5.2617 3.6055 9.8203 8.8672 10.195 0.44141 0.03125 1.2773 0.11719 2.4688 0.26172 3.7812 0.59375 6.6094 0.98438 8.4102 1.1602 3.4336 0.35547 6.2422 0.56641 8.4258 0.62891 1.707 0.078125 4.4375 0.125 8.2461 0.14062h-0.042969c1.5 0.011719 5.832-0.019531 12.996-0.09375l-0.039063 0.003906c1.8242-0.011719 3.5977-0.011719 5.3164-0.003906 3.332 0.019531 6.5586 0.085937 9.6758 0.19531 5.2852 0.18359 9.7148-3.9492 9.9023-9.2305 0.18359-5.2812-3.9492-9.7148-9.2305-9.8984z"/>
  <path d="m544.27 140.73c5.1719-1.0781 8.4883-6.1523 7.4062-11.324s-6.1523-8.4922-11.324-7.4102c-5.8008 1.2148-10.305 2.3203-13.512 3.3203-5.0312 1.5859-7.832 6.9453-6.2617 11.984 1.5742 5.0352 6.9297 7.8477 11.969 6.2852 2.6172-0.81641 6.5234-1.7695 11.723-2.8555z"/>
 </g>
</svg>
