<?xml version="1.0" encoding="UTF-8"?>
<svg width="700pt" height="700pt" version="1.1" viewBox="0 0 700 700" xmlns="http://www.w3.org/2000/svg" xmlns:xlink="http://www.w3.org/1999/xlink">

 <g>
  <path d="m391.18 477.65c0 2.1836-0.86719 4.2773-2.4102 5.8203-1.5469 1.5469-3.6406 2.4141-5.8242 2.4141-7.5625 0.10547-15 1.9141-21.766 5.293-16.484 7.3203-34.316 11.129-52.352 11.176-20.781-0.25-41.031-6.582-58.246-18.219-8.8984-5.3398-11.242-6.4844-15.871-6.4844-6.1602 0.16797-12.16 1.9648-17.398 5.2109-9.6055 5.1016-20.004 8.5469-30.758 10.188l-2.7344 0.28516c-4.9805 0.51172-9.9844 0.77344-14.992 0.78516-4.5508 0-8.2344-3.6875-8.2344-8.2344 0-4.5469 3.6836-8.2344 8.2344-8.2344 4.4492-0.007813 8.8945-0.24219 13.32-0.70313l2.5117-0.26172 0.003906 0.003906c8.918-1.4297 17.531-4.3555 25.477-8.6562 7.4609-4.3672 15.926-6.7305 24.57-6.8555 8.8242 0.40234 17.316 3.4844 24.348 8.8359 14.641 10.125 31.969 15.652 49.77 15.871 15.945-0.015624 31.703-3.4258 46.23-10 8.7109-4.1719 18.23-6.3828 27.887-6.4727 2.1836 0 4.2773 0.87109 5.8242 2.4141 1.543 1.543 2.4102 3.6406 2.4102 5.8242zm203.02 5.6016v-0.003906c-16.941-8.8008-35.695-13.539-54.785-13.836-12.48 0.59375-24.766 3.3438-36.305 8.1367-12.02 4.9727-24.816 7.7969-37.812 8.3359-8.1133 0.039063-16.219-0.58203-24.23-1.8594-2.1719-0.39063-4.4102 0.10547-6.2148 1.3789-1.8008 1.2773-3.0195 3.2227-3.375 5.3984-0.35547 2.1797 0.17969 4.4102 1.4844 6.1914 1.3047 1.7812 3.2695 2.9648 5.4531 3.2852 8.8906 1.4219 17.879 2.1172 26.883 2.0742 14.863-0.50781 29.516-3.6445 43.281-9.2656 9.7969-4.125 20.227-6.5625 30.836-7.2031 16.566 0.32422 32.832 4.4844 47.52 12.148 4.082 2.0078 9.0195 0.32422 11.027-3.7578 2.0039-4.082 0.32422-9.0156-3.7578-11.023zm18.465-18.398c-0.97266 1.9531-2.6836 3.4414-4.7578 4.1367-2.0703 0.69141-4.332 0.53125-6.2891-0.44531-19.496-9.2656-40.641-14.566-62.203-15.602-8.3125 0.29688-16.469 2.3633-23.922 6.0586-15.762 7.1133-32.902 10.668-50.195 10.41-16.785 0.125-33.434-3.0781-48.977-9.418-10.551-4.5273-21.895-6.9219-33.375-7.0508-11.75 0.089844-23.344 2.6953-34 7.6484-12.59 5.7656-26.27 8.7734-40.117 8.8203-14.805-0.29297-29.188-5.0039-41.297-13.527-9.5508-6.9727-21-10.871-32.82-11.176-11.113 0.125-22.016 3.043-31.707 8.4805-6.4258 3.5234-13.395 5.9492-20.617 7.1836-0.33203 0.039062-0.66406 0.058594-1 0.0625l-0.042968 0.003906h-0.015625 0.003906c-4.1523 0.49219-8.3242 0.73828-12.504 0.73828-17.426 0.28906-34.121-6.9922-45.77-19.961-7.3477-8.9258-11.789-19.887-12.734-31.41-7.7773 12.348-10.48 27.227-7.5391 41.52 0.84375 4.4375-2.043 8.7305-6.4727 9.6172-4.4297 0.88672-8.75-1.9609-9.6758-6.3828-2.5078-13.715-1.2422-27.852 3.6602-40.898 4.9023-13.051 13.262-24.52 24.176-33.191 2.6953-2.0195 6.3438-2.1953 9.2227-0.44531 2.875 1.7461 4.3984 5.0703 3.8438 8.3906-3.0117 18.082-0.29297 32.266 8.0859 42.156 8.5039 9.2891 20.613 14.441 33.203 14.137 2.4922 0 4.7305-0.11328 6.8008-0.26172 23.082-57.398 105.38-98.562 199.08-98.562 14.824 0.023438 29.629 1.082 44.305 3.1602 8.4844-37.086 21.008-73.133 37.344-107.49l-9.5664 10.934c-2.1602 2.4688-5.582 3.4219-8.707 2.4219-3.1289-1-5.3633-3.7578-5.6875-7.0234-2.8672-28.684 2.5781-49.668 16.012-62.602l-82.344-4.1172h-0.003906c-3.3359-0.16797-6.2461-2.3398-7.3555-5.4922-1.1094-3.1562-0.19922-6.668 2.2969-8.8867 23.363-20.762 47.738-30.516 72.273-28.965 7.3086 0.46875 14.52 1.8945 21.457 4.2383l-37.043-46.328c-1.9766-2.4727-2.3594-5.8594-0.98828-8.7109 1.3711-2.8516 4.2539-4.6641 7.418-4.668 33.473 0 57.805 8.5664 72.312 25.465v0.003906c6.6641 7.8828 11.188 17.352 13.137 27.488 15.066-17.805 42.02-32.73 89.664-19.727v0.003907c3.1992 0.875 5.5586 3.582 5.9922 6.8711 0.42969 3.2852-1.1484 6.5117-4.0117 8.1875l-50.777 29.648v-0.003907c6.9453 0.25 13.82 1.4609 20.43 3.6055 18.609 6.4766 33.727 20.332 41.797 38.309 1.4258 2.8516 1.0781 6.2695-0.89453 8.7773-1.9727 2.5078-5.2148 3.6484-8.3203 2.9297l-44.434-10.234c7.7422 16.883 9.5352 39.988 5.0117 69.34v0.003906c-0.51953 3.3867-3.0898 6.0977-6.4453 6.8008-0.55859 0.12109-1.125 0.17969-1.6953 0.17969-2.8164 0-5.4375-1.4375-6.9492-3.8125l-50.48-79.332c-28.934 48.066-50.246 100.32-63.184 154.91 65.301 12.785 117.61 45.727 137.05 89.027l-0.003907 0.003906c12.629 3.0859 24.91 7.4453 36.656 13.012 4.0664 2.0312 5.7148 6.9766 3.6836 11.043zm-62.691-217.72c0.64062-23.785-4.6797-40.887-15.734-50.062v-0.003906c-1.6328-1.3672-3.3906-2.5781-5.25-3.6133-0.17578-0.097656-0.35547-0.14844-0.53125-0.24609-1.5781-0.85156-3.2148-1.5898-4.8984-2.2031-0.43359-0.15234-0.85547-0.23438-1.2891-0.37109h-0.003906c-1.3477-0.44531-2.7227-0.82422-4.1094-1.1328-0.56641-0.11719-1.0977-0.16406-1.6523-0.26172-1.1836-0.19922-2.3711-0.40234-3.4922-0.50781l-0.20703-0.011719zm-15.457-69.398c0.88281 0.43359 1.7539 0.95703 2.6367 1.4531 0.35937 0.20312 0.71875 0.37891 1.0781 0.59375h-0.003906c1.7227 1.0156 3.3828 2.1328 4.9688 3.3477l43.574 10.035c-5.7422-6.2617-12.992-10.953-21.055-13.629-10.113-3.0586-20.805-3.6758-31.199-1.8008zm-23.266-13.641 62.652-36.578c-2.8828-0.26953-5.6484-0.40234-8.3008-0.39844l0.003906 0.003906c-11.848-0.57812-23.559 2.7188-33.367 9.3906-9.8047 6.6719-17.172 16.352-20.988 27.582zm-17.566 0.29297c0.066406-0.20312 0.12109-0.39453 0.1875-0.59766h-0.003907c3.332-15.805-0.28516-32.277-9.9219-45.238-11.117-11.277-26.07-17.961-41.887-18.723zm-21.082 5.6094c-11.676-8.9844-25.676-14.445-40.348-15.738-15.051-0.64453-29.93 3.4102-42.574 11.602zm8.5078 18.254c-7.418 0.375-14.523 3.1094-20.281 7.8047-7.8633 7.8359-12.324 18.457-12.414 29.559zm70.547 248.89c-27.602-44.051-98.488-74.785-176.95-74.785-79.719 0-150.14 30.793-177.36 75.281 11.508-6.1172 24.328-9.3438 37.359-9.3984 14.805 0.29688 29.184 5.0039 41.297 13.527 9.5508 6.9766 20.996 10.875 32.82 11.18 11.75-0.089844 23.344-2.6953 33.996-7.6484 12.594-5.7656 26.273-8.7734 40.121-8.8242 13.41 0.125 26.664 2.8594 39.031 8.0469 13.734 5.668 28.465 8.5312 43.32 8.4258 15.152 0.28125 30.172-2.8555 43.945-9.1797 9.4219-4.5547 19.711-7.0391 30.172-7.293 4.0898 0.015625 8.1758 0.23438 12.238 0.66797zm-456.95-190.08c0-4.5469 3.6875-8.2344 8.2344-8.2344h41.836c-2.8164-19.387 4.4102-38.871 19.184-51.734 14.777-12.859 35.074-17.328 53.887-11.863 18.809 5.4648 33.555 20.117 39.137 38.891h60.074c4.5469 0 8.2344 3.6875 8.2344 8.2344 0 4.5508-3.6875 8.2383-8.2344 8.2383h-57.648c0.015625 17.578-7.9961 34.199-21.754 45.137-13.762 10.938-31.762 14.996-48.887 11.016-17.121-3.9805-31.484-15.562-39.012-31.449h-46.816c-4.5469 0-8.2344-3.6875-8.2344-8.2344zm66.715-8.2344h40.344c4.5469 0 8.2344 3.6875 8.2344 8.2344s-3.6875 8.2344-8.2344 8.2344h-32.73c6.9336 9.2773 17.465 15.195 28.992 16.289 11.531 1.0938 22.988-2.7344 31.543-10.543 8.5547-7.8086 13.41-18.867 13.371-30.449h-41.176c-4.5508 0-8.2344-3.6875-8.2344-8.2383 0-4.5469 3.6836-8.2344 8.2344-8.2344h37.688-0.003906c-5.4727-12.535-16.812-21.527-30.266-24.004-13.449-2.4766-27.25 1.8945-36.828 11.66-9.5742 9.7656-13.672 23.648-10.934 37.051zm106.23 24.707c0 2.1836 0.86719 4.2773 2.4102 5.8203 1.5469 1.5469 3.6406 2.4141 5.8242 2.4141h115.29c4.5508 0 8.2344-3.6875 8.2344-8.2344 0-4.5508-3.6836-8.2383-8.2344-8.2383h-115.29c-4.5469 0-8.2344 3.6875-8.2344 8.2383z"/>

 </g>
</svg>
