<?xml version="1.0" encoding="UTF-8"?>
<svg width="700pt" height="700pt" version="1.1" viewBox="0 0 700 700" xmlns="http://www.w3.org/2000/svg" xmlns:xlink="http://www.w3.org/1999/xlink">
 <defs>
  <symbol id="w" overflow="visible">
   <path d="m0.03125 0h-0.015625-0.015625v-0.015625-0.015625h0.015625 0.015625-0.015625v0.015625 0.015625h0.015625v-0.015625z"/>
  </symbol>
  <symbol id="e" overflow="visible">
   <path d="m0.015625-0.015625v0.015625h-0.015625v-0.03125h0.015625v0.015625-0.015625z"/>
  </symbol>
  <symbol id="b" overflow="visible">
   <path d="m0.03125-0.015625h-0.015625v0.015625c0.0078125 0 0.015625-0.0039062 0.015625-0.015625v0.015625h-0.015625-0.015625v-0.015625l0.015625-0.015625v0.015625h0.015625z"/>
  </symbol>
  <symbol id="a" overflow="visible">
   <path d="m0.015625-0.015625v0.015625-0.015625zm0.015625 0v0.015625h-0.015625-0.015625v-0.015625h0.015625-0.015625v-0.015625h0.015625v0.015625h0.015625z"/>
  </symbol>
  <symbol id="d" overflow="visible">
   <path d="m0.015625-0.03125v0.015625 0.015625h-0.015625v-0.015625-0.015625z"/>
  </symbol>
  <symbol id="l" overflow="visible">
   <path d="m0.015625-0.015625v-0.015625h0.015625v0.03125h-0.015625-0.015625v-0.015625l0.015625-0.015625v0.015625zm0 0.015625v-0.015625 0.015625z"/>
  </symbol>
  <symbol id="k" overflow="visible">
   <path d="m0.015625 0v-0.015625 0.015625zm0-0.015625v-0.015625c0.0078125 0 0.015625 0.0078125 0.015625 0.015625v0.015625h-0.015625-0.015625v-0.03125h0.015625z"/>
  </symbol>
  <symbol id="j" overflow="visible">
   <path d="m0-0.03125h0.015625v0.015625-0.015625h0.015625l-0.015625 0.03125v0.015625h-0.015625v-0.015625h0.015625z"/>
  </symbol>
  <symbol id="i" overflow="visible">
   <path d="m0.015625-0.03125v0.015625 0.015625h0.015625v-0.015625c0-0.0078125-0.0078125-0.015625-0.015625-0.015625zm0 0h0.015625v0.015625 0.015625h-0.015625-0.015625v-0.015625-0.015625h0.015625z"/>
  </symbol>
  <symbol id="v" overflow="visible">
   <path d="m0-0.03125h0.015625v0.03125h-0.015625z"/>
  </symbol>
  <symbol id="f" overflow="visible">
   <path d="m0.03125-0.015625v0.015625h-0.015625v-0.015625 0.015625h-0.015625v-0.03125h0.015625v0.015625-0.015625c0.0078125 0 0.015625 0.0078125 0.015625 0.015625z"/>
  </symbol>
  <symbol id="h" overflow="visible">
   <path d="m0-0.03125h0.015625 0.015625v0.015625h-0.015625v0.015625h-0.015625zm0.015625 0v0.015625-0.015625z"/>
  </symbol>
  <symbol id="g" overflow="visible">
   <path d="m0.03125-0.03125v0.015625h-0.015625c0.0078125 0 0.015625 0.0078125 0.015625 0.015625h-0.015625-0.015625 0.015625v-0.015625h-0.015625l0.015625-0.015625h0.015625z"/>
  </symbol>
  <symbol id="c" overflow="visible">
   <path d="m0.015625-0.015625v0.015625-0.015625zm0-0.015625v0.015625h0.015625c0 0.011719-0.0078125 0.015625-0.015625 0.015625h-0.015625v-0.015625l0.015625-0.015625z"/>
  </symbol>
  <symbol id="u" overflow="visible">
   <path d="m0-0.03125h0.015625v0.015625-0.015625h0.015625l-0.015625 0.03125z"/>
  </symbol>
  <symbol id="t" overflow="visible">
   <path d="m0-0.03125h0.015625v0.015625-0.015625h0.015625l-0.015625 0.015625 0.015625 0.015625h-0.015625v-0.015625 0.015625h-0.015625z"/>
  </symbol>
  <symbol id="s" overflow="visible">
   <path d="m0.015625-0.03125v0.03125h-0.015625v-0.03125h0.015625z"/>
  </symbol>
  <symbol id="r" overflow="visible">
   <path d="m0.03125-0.015625v-0.015625c0.0078125 0 0.015625 0.0078125 0.015625 0.015625v0.015625h-0.015625v-0.015625 0.015625h-0.015625v-0.015625 0.015625h-0.015625v-0.03125h0.015625v0.015625-0.015625 0.015625h0.015625z"/>
  </symbol>
  <symbol id="q" overflow="visible">
   <path d="m0.03125-0.015625v0.015625h-0.015625v-0.015625 0.015625h-0.015625v-0.03125h0.015625v0.015625-0.015625c0.0078125 0 0.015625 0.0078125 0.015625 0.015625z"/>
  </symbol>
  <symbol id="p" overflow="visible">
   <path d="m0-0.03125h0.015625l0.015625 0.015625v-0.015625 0.03125l-0.015625-0.015625v0.015625h-0.015625z"/>
  </symbol>
  <symbol id="o" overflow="visible">
   <path d="m0-0.015625v-0.015625h0.015625v0.015625 0.015625-0.015625-0.015625h0.015625v0.03125h-0.015625-0.015625v-0.015625z"/>
  </symbol>
  <symbol id="n" overflow="visible">
   <path d="m0-0.03125h0.015625v0.03125h-0.015625v0.015625zm0 0h0.015625z"/>
  </symbol>
  <symbol id="m" overflow="visible">
   <path d="m0.03125-0.03125v0.015625h-0.015625v0.015625h0.015625-0.015625-0.015625v-0.015625l0.015625-0.015625h0.015625z"/>
  </symbol>
 </defs>
 <g>
  <path d="m355.2 14.234c42.625 0 81.219 17.277 109.15 45.211 27.934 27.934 45.211 66.527 45.211 109.15s-17.277 81.219-45.211 109.15c-7.7656 7.7656-16.352 14.699-25.621 20.684l-0.007813 23.531c3.6758 0.51172 6.9805 2.2227 9.4844 4.7305 3.0234 3.0234 4.8906 7.1953 4.8906 11.809 0 4.3477-1.6719 8.3164-4.3945 11.293 73.125 62.227 31.062 121.99 8.3086 154.33-3.2578 4.6289-6.1055 8.6602-8.0547 11.957-1.0469 1.7734-3.332 2.3633-5.1055 1.3164-1.6055-0.95313-2.2383-2.9219-1.5586-4.6016 11.883-34-0.67188-55.488-12.676-76.047-14.141-24.211-27.59-47.246-4.8828-86.297-0.046875-0.046875-0.09375-0.09375-0.14062-0.12891-3.0234-3.0234-4.8906-7.1953-4.8906-11.809 0-4.6094 1.8672-8.7812 4.8906-11.809 2.5-2.5 5.8047-4.2188 9.4844-4.7305l0.007813-20.645c-23.082 13.746-50.062 21.652-78.887 21.652-16.895 0-33.152-2.7148-48.367-7.7266l0.28906 42.309c3.6289 0.53125 6.8711 2.2383 9.3516 4.7148 3.0234 3.0234 4.8906 7.1953 4.8906 11.809 0 4.6094-1.8672 8.7812-4.8906 11.809-2.4258 2.4258-5.582 4.1055-9.1172 4.6758l0.10156 15.418c1.9336 0.4375 3.6602 1.418 5.0117 2.7734 1.5586 1.5586 2.6211 3.6133 2.9297 5.9062 73.145 16.902 65.297 73.23 61.051 103.68-0.59766 4.293-1.1211 8.0352-1.2969 10.938-0.12109 2.0547-1.8867 3.6211-3.9375 3.5-1.8477-0.11328-3.3047-1.5508-3.4922-3.332-3.7617-27.059-19.723-37.23-35-46.965-2.2695-1.4453-4.5273-2.8828-6.7383-4.3594-5.2539 34.188-35.988 51.043-55.113 61.543-3.7812 2.0703-7.0859 3.8906-9.5586 5.5078-1.7266 1.1289-4.0312 0.64453-5.1602-1.082-1.0273-1.5664-0.71875-3.6289 0.65234-4.8359 19.375-19.16 17.996-38.023 16.68-56.086-1.5508-21.148-3.0156-41.301 23.848-60.379-1.5586-1.8125-2.5117-4.1719-2.5117-6.7461 0-2.8555 1.1562-5.4414 3.0234-7.3086 1.3438-1.3438 3.0508-2.3164 4.9648-2.7617l-0.10156-15.324c-3.8281-0.44922-7.2617-2.1914-9.8477-4.7773-3.0234-3.0234-4.8906-7.1953-4.8906-11.809 0-4.6094 1.8672-8.7812 4.8906-11.809 2.5391-2.5391 5.8789-4.2578 9.6133-4.75l-0.29688-43.887c-18.648-6.8242-35.605-17.137-50.102-30.148-1.5039 0.75781-3.2031 1.1758-4.9922 1.1758-3.0781 0-5.8711-1.25-7.8945-3.2656-2.0156-2.0156-3.2656-4.8086-3.2656-7.8945 0-1.9141 0.48438-3.7148 1.3359-5.293-17.324-20.496-29.398-45.566-34.16-73.137-1.6602-0.55078-3.1562-1.4922-4.3672-2.707-2.0156-2.0156-3.2656-4.8086-3.2656-7.8945 0-3.0781 1.25-5.8711 3.2656-7.8945 0.66406-0.66406 1.418-1.25 2.2305-1.7266-0.085938-2.0703-0.12109-4.1523-0.12109-6.2422 0-27.871 7.3828-54.012 20.309-76.578-1.5312-1.9141-2.4531-4.3398-2.4531-6.9805 0-3.0781 1.25-5.8711 3.2656-7.8945 2.0156-2.0156 4.8086-3.2656 7.8945-3.2656 1.082 0 2.1289 0.16016 3.1172 0.4375 3.4062-4.4141 7.0547-8.6445 10.91-12.656l0.10156-0.10156c0.67969-0.71094 1.3711-1.4102 2.0625-2.1094 27.934-27.934 66.527-45.211 109.15-45.211zm15.102 341.36-7.4648 0.019531-0.019532-7.4648 7.4648-0.019531zm0.12109 44.801-7.4648 0.019531-0.019531-7.4648 7.4648-0.019531zm-0.039063-14.934-7.4648 0.019531-0.019531-7.4648 7.4648-0.019531zm-0.039062-14.934-7.4648 0.019531-0.019531-7.4648 7.4648-0.019531zm-102.92-54.938-7.4648 0.019531-0.019532-7.4648 7.4648-0.019531zm0.12109 44.801-7.4648 0.019531-0.019531-7.4648 7.4648-0.019531zm-0.039063-14.934-7.4648 0.019531-0.019531-7.4648 7.4648-0.019531zm-0.039062-14.934-7.4648 0.019531-0.019531-7.4648 7.4648-0.019531zm-56.234 156.26c-0.066406 2.0547-1.7812 3.668-3.8359 3.6016-1.7734-0.054687-3.2188-1.3516-3.5391-3.0234-0.57812-2.5391-1.9961-6.2891-3.668-10.723-3.0156-7.9805-6.8242-18.09-8.6523-28.812-4.4805-26.266 2.5391-55.383 58.969-65.008 1.0625-0.1875 3.2031-0.61719 5.6367-1.1016 4.0508-0.8125 8.8477-1.7734 10.156-1.9492 1.8945-0.26172 3.707 0.98047 4.125 2.8828 0.34375 1.5391 0.80078 4.332 1.2031 7.0391 0.42969 2.9297 0.8125 5.9062 0.90625 7.2812 1.7266 24.016-13.879 34.832-30.191 46.152-14.867 10.312-30.398 21.094-31.109 43.652zm-4.918-15.016c5.4609-16.492 18.863-25.789 31.797-34.766 14.523-10.078 28.402-19.703 26.984-39.508-0.085937-1.1758-0.4375-3.9375-0.84766-6.7305-0.14844-1.0352-0.30859-2.0547-0.45703-2.9883-1.8477 0.36328-4.125 0.8125-6.1875 1.2305-2.8359 0.57031-5.3281 1.0742-5.832 1.1562-50.344 8.5781-56.738 33.758-52.875 56.402 1.5508 9.1016 4.6953 17.91 7.4219 25.191zm107.36-49.867c-0.36328 0.52344-0.76563 1.0156-1.2148 1.4648-1.6797 1.6797-3.9297 2.7812-6.4297 2.9883-0.98828 29.66 14.457 39.516 30.688 49.867 12.75 8.1289 25.945 16.539 33.348 33.629 3.6133-28.988 4.6094-73.809-56.391-87.949zm-6.4961-7.8789c-0.52344-0.52344-1.2422-0.83984-2.0234-0.83984-0.79297 0-1.5117 0.31641-2.0234 0.83984-0.52344 0.52344-0.83984 1.2422-0.83984 2.0234 0 0.79297 0.31641 1.5117 0.83984 2.0234 0.52344 0.52344 1.2422 0.83984 2.0234 0.83984 0.79297 0 1.5117-0.31641 2.0234-0.83984 0.52344-0.52344 0.83984-1.2422 0.83984-2.0234 0-0.79297-0.31641-1.5117-0.83984-2.0234zm-8.6445 17.211c-20.199 16.082-18.938 33.34-17.621 51.426 1.1016 15.074 2.2383 30.668-7.0391 46.824 18.406-10.445 42.633-26.863 45.191-56.297-11.32-8.8281-20.066-20.273-20.535-41.945zm12.648-63.68c-1.6719-1.6719-3.9766-2.707-6.5234-2.707-2.5469 0-4.8516 1.0352-6.5234 2.707s-2.707 3.9766-2.707 6.5234c0 2.5469 1.0352 4.8516 2.707 6.5234s3.9766 2.707 6.5234 2.707c2.5469 0 4.8516-1.0352 6.5234-2.707s2.707-3.9766 2.707-6.5234c0-2.5469-1.0352-4.8516-2.707-6.5234zm131.09-13.402c-1.8281 0.69141-3.8164 1.0625-5.8789 1.0625-1.8555 0-3.6406-0.30859-5.3125-0.86719-20.383 35.223-8.0273 56.391 4.9648 78.645 10.398 17.797 21.16 36.242 18.023 62.336 21.895-31.453 54.965-85.566-11.789-141.18zm0.64453-22.156c-1.6719-1.6719-3.9766-2.707-6.5234-2.707s-4.8516 1.0352-6.5234 2.707-2.707 3.9766-2.707 6.5234 1.0352 4.8516 2.707 6.5234 3.9766 2.707 6.5234 2.707c1.4648 0 2.8555-0.34375 4.0898-0.95313 0.28906-0.22266 0.60547-0.41016 0.94141-0.54297 0.54297-0.35547 1.0469-0.75781 1.5039-1.2148 1.6719-1.6719 2.707-3.9766 2.707-6.5234 0-2.5469-1.0352-4.8516-2.707-6.5234zm-195.85-69.645c1.1836 0 2.332 0.1875 3.4062 0.53125l8.8672-25.488c-1.418-0.77344-2.7148-1.7461-3.8555-2.875-3.0234-3.0234-4.8906-7.1953-4.8906-11.809 0-1.7188 0.26172-3.3711 0.73828-4.9297l-36.895-25.34c-1.0742 1.0625-2.3711 1.9023-3.8086 2.4648 4.6484 25.723 15.988 49.113 32.152 68.301 1.3164-0.55078 2.7617-0.84766 4.2852-0.84766zm7.5039 2.9023c0.12891 0.12109 0.26172 0.24219 0.38281 0.36328 2.0156 2.0156 3.2656 4.8086 3.2656 7.8945 0 1.0078-0.12891 1.9883-0.38281 2.9219 3.2188 1.6992 6.7773 3.1445 10.414 4.3477 9.5117 3.1562 19.48 4.6094 25.945 4.6094 13.598 0 26.629-2.3164 38.734-6.5625 11.898-4.1797 22.922-10.238 32.723-17.828-1.5781-2.4922-2.5117-5.4219-2.5742-8.5781l-82.816-19.219c-0.36328 0.44922-0.75781 0.88672-1.168 1.2891-3.0234 3.0234-7.1953 4.8906-11.809 4.8906-1.2305 0-2.4375-0.12891-3.5938-0.39062l-9.1289 26.234zm-46.211-91.785c1.9805 0.31641 3.7812 1.1484 5.2734 2.3633l55.227-46.602c-1.5664-2.5391-2.4648-5.5352-2.4648-8.7344 0-2.5586 0.57812-4.9766 1.5977-7.1406l-30.371-20.289c-2.0078 1.9609-4.7617 3.1641-7.7852 3.1641-0.8125 0-1.5977-0.085937-2.3516-0.25391-12.219 21.43-19.199 46.219-19.199 72.652 0 1.625 0.027344 3.2383 0.074219 4.8438zm8.1953 5.9844c0.76562 1.5117 1.2031 3.2305 1.2031 5.0391 0 1.4297-0.26953 2.8008-0.76562 4.0586l36.352 24.957c0.625-0.94141 1.3359-1.8203 2.1367-2.6133 3.0234-3.0234 7.1953-4.8906 11.809-4.8906 4.6094 0 8.7812 1.8672 11.809 4.8906 0.28906 0.28906 0.57031 0.58984 0.83984 0.90625l45.902-29.586c-1.8203-2.6797-2.8828-5.9062-2.8828-9.3906 0-3.5273 1.0938-6.793 2.957-9.4922l-32.359-29.828c-2.8672 2.3047-6.4961 3.6758-10.461 3.6758-4.3398 0-8.2891-1.6523-11.266-4.3672l-55.273 46.637zm22.457-100.74c1.25 1.8008 1.9883 3.9961 1.9883 6.3555 0 1.457-0.28125 2.8555-0.79297 4.1328l30.344 20.273c0.23438-0.26953 0.48438-0.53125 0.73828-0.78516 3.0234-3.0234 7.1953-4.8906 11.809-4.8906 3.6211 0 6.9727 1.1484 9.707 3.1094l31.445-39.695c-2.8555-2.9961-4.6094-7.0547-4.6094-11.516 0-0.35547 0.007813-0.71094 0.039063-1.0625-3.7539-0.83203-7.625-1.4844-11.594-1.9609-4.5273-0.53125-9.1562-0.8125-13.859-0.8125-6.5625 0-17.5 1.4766-27.59 4.9844-6.3477 2.2109-12.301 5.1992-16.445 9.0703-3.957 4.0508-7.6914 8.3242-11.164 12.805zm140.77 156.69c3.125 0 6.0586 0.85938 8.5664 2.3633 7.0391-9.5664 12.656-20.234 16.531-31.695 3.9648-11.73 6.1133-24.324 6.1133-37.438 0-8.8008-0.96094-17.34-2.7812-25.508-1.7188-7.7109-4.2109-15.148-7.3828-22.223-1.2891 0.31641-2.6328 0.48438-4.0117 0.48438-3.5547 0-6.8594-1.1094-9.5664-3.0156l-35.316 43.137c2.7422 2.9766 4.4258 6.9531 4.4258 11.32 0 4.6094-1.8672 8.7812-4.8906 11.809-0.59766 0.59766-1.2305 1.1484-1.9141 1.6445l26.676 49.504c1.1484-0.25391 2.332-0.38281 3.5547-0.38281zm13.98 7.5703c1.7188 2.6211 2.7148 5.7578 2.7148 9.1367 0 4.6094-1.8672 8.7812-4.8906 11.809-3.0234 3.0234-7.1953 4.8906-11.809 4.8906-3.2188 0-6.2344-0.91406-8.7812-2.4922-10.602 8.3438-22.605 15.008-35.605 19.57-12.906 4.5352-26.77 7-41.18 7-5.7383 0-13.953-1.0352-22.324-3.2305 23.668 16.332 52.379 25.891 83.309 25.891 40.562 0 77.289-16.445 103.88-43.027 26.582-26.582 43.027-63.309 43.027-103.88 0-40.562-16.445-77.289-43.027-103.88-26.582-26.582-63.309-43.027-103.88-43.027-30.82 0-59.414 9.4922-83.039 25.703 8.4375-2.1172 16.621-3.043 22.055-3.043 4.9648 0 9.8828 0.29688 14.738 0.86719 4.3008 0.51172 8.5859 1.25 12.844 2.2227 0.74609-1.3242 1.6719-2.5312 2.7344-3.5938 3.0234-3.0234 7.1953-4.8906 11.809-4.8906 4.6094 0 8.7812 1.8672 11.809 4.8906 3.0234 3.0234 4.8906 7.1953 4.8906 11.809 0 1.1289-0.11328 2.2383-0.32812 3.3047 7.2227 3.8633 14.047 8.4453 20.375 13.656 6.1328 5.0391 11.777 10.676 16.867 16.82 2.0898-0.94141 4.4258-1.4766 6.8711-1.4766 4.6094 0 8.7812 1.8672 11.809 4.8906 3.0234 3.0234 4.8906 7.1953 4.8906 11.809 0 4.6094-1.8672 8.7812-4.8906 11.809-0.36328 0.36328-0.74609 0.71094-1.1367 1.0352 3.4336 7.6055 6.1328 15.633 7.9883 23.988 1.9492 8.7734 2.9883 17.844 2.9883 27.113 0 13.898-2.2969 27.281-6.5234 39.797-4.2383 12.535-10.414 24.164-18.172 34.535zm-30.117 4.8242c0.76562-2.8828 2.2852-5.4492 4.332-7.5039 1.1289-1.1289 2.4258-2.1016 3.8438-2.875l-26.367-48.926c-1.8008 0.67188-3.7617 1.0352-5.7969 1.0352-4.043 0-7.7383-1.4375-10.629-3.8164l-46.555 30.016c0.98047 2.1289 1.5312 4.5 1.5312 6.9922 0 2.2305-0.4375 4.3672-1.2305 6.3086l80.883 18.77zm22.66-2.2227c-1.6719-1.6719-3.9766-2.707-6.5234-2.707s-4.8516 1.0352-6.5234 2.707-2.707 3.9766-2.707 6.5234c0 2.5469 1.0352 4.8516 2.707 6.5234s3.9766 2.707 6.5234 2.707 4.8516-1.0352 6.5234-2.707 2.707-3.9766 2.707-6.5234c0-2.5469-1.0352-4.8516-2.707-6.5234zm-36.688-179.77c-0.45703 0.59766-0.95312 1.1562-1.4766 1.6875-3.0234 3.0234-7.1953 4.8906-11.809 4.8906-3.0781 0-5.9727-0.83984-8.4453-2.2969l-31.707 40.02c2.2578 2.8477 3.6133 6.4492 3.6133 10.371 0 3.5859-1.1289 6.9062-3.0508 9.6211l32.332 29.793c2.8828-2.3633 6.5625-3.7812 10.586-3.7812 3.1719 0 6.1406 0.88672 8.6719 2.4258l35.504-43.371c-2.3242-2.8672-3.7148-6.5234-3.7148-10.5 0-4.0898 1.4648-7.832 3.9023-10.734-4.7148-5.6562-9.957-10.875-15.66-15.566-5.7773-4.75-12.051-8.9805-18.742-12.582zm-6.7578-16.652c-1.6719-1.6719-3.9766-2.707-6.5234-2.707s-4.8516 1.0352-6.5234 2.707-2.707 3.9766-2.707 6.5234c0 2.5469 1.0352 4.8516 2.707 6.5234s3.9766 2.707 6.5234 2.707 4.8516-1.0352 6.5234-2.707 2.707-3.9766 2.707-6.5234c0-2.5469-1.0352-4.8516-2.707-6.5234zm60.48 49c-1.6719-1.6719-3.9766-2.707-6.5234-2.707s-4.8516 1.0352-6.5234 2.707c-1.6719 1.6719-2.707 3.9766-2.707 6.5234 0 2.5469 1.0352 4.8516 2.707 6.5234 1.6719 1.6719 3.9766 2.707 6.5234 2.707s4.8516-1.0352 6.5234-2.707c1.6719-1.6719 2.707-3.9766 2.707-6.5234 0-2.5469-1.0352-4.8516-2.707-6.5234zm-129.52 118.03c-1.6719-1.6719-3.9766-2.707-6.5234-2.707s-4.8516 1.0352-6.5234 2.707-2.707 3.9766-2.707 6.5234c0 2.5469 1.0352 4.8516 2.707 6.5234s3.9766 2.707 6.5234 2.707 4.8516-1.0352 6.5234-2.707 2.707-3.9766 2.707-6.5234c0-2.5469-1.0352-4.8516-2.707-6.5234zm72.352-49.887c-1.6719-1.6719-3.9766-2.707-6.5234-2.707s-4.8516 1.0352-6.5234 2.707-2.707 3.9766-2.707 6.5234 1.0352 4.8516 2.707 6.5234 3.9766 2.707 6.5234 2.707 4.8516-1.0352 6.5234-2.707 2.707-3.9766 2.707-6.5234-1.0352-4.8516-2.707-6.5234zm-56.551-52.34c-1.6719-1.6719-3.9766-2.707-6.5234-2.707s-4.8516 1.0352-6.5234 2.707c-1.6719 1.6719-2.707 3.9766-2.707 6.5234s1.0352 4.8516 2.707 6.5234c1.6719 1.6719 3.9766 2.707 6.5234 2.707s4.8516-1.0352 6.5234-2.707c1.6719-1.6719 2.707-3.9766 2.707-6.5234s-1.0352-4.8516-2.707-6.5234z"/>
  <use x="70" y="560.140625" xlink:href="#w"/>
  <use x="70.035156" y="560.140625" xlink:href="#e"/>
  <use x="70.058594" y="560.140625" xlink:href="#b"/>
  <use x="70.089844" y="560.140625" xlink:href="#a"/>
  <use x="70.121094" y="560.140625" xlink:href="#d"/>
  <use x="70.144531" y="560.140625" xlink:href="#b"/>
  <use x="70.175781" y="560.140625" xlink:href="#l"/>
  <use x="70.222656" y="560.140625" xlink:href="#k"/>
  <use x="70.257812" y="560.140625" xlink:href="#j"/>
  <use x="70.304688" y="560.140625" xlink:href="#i"/>
  <use x="70.34375" y="560.140625" xlink:href="#v"/>
  <use x="70.359375" y="560.140625" xlink:href="#b"/>
  <use x="70.390625" y="560.140625" xlink:href="#f"/>
  <use x="70.425781" y="560.140625" xlink:href="#a"/>
  <use x="70.472656" y="560.140625" xlink:href="#h"/>
  <use x="70.507812" y="560.140625" xlink:href="#a"/>
  <use x="70.539062" y="560.140625" xlink:href="#f"/>
  <use x="70.570312" y="560.140625" xlink:href="#a"/>
  <use x="70.601562" y="560.140625" xlink:href="#g"/>
  <use x="70.628906" y="560.140625" xlink:href="#c"/>
  <use x="70.664062" y="560.140625" xlink:href="#u"/>
  <use x="70.691406" y="560.140625" xlink:href="#g"/>
  <use x="70.722656" y="560.140625" xlink:href="#t"/>
  <use x="70.75" y="560.140625" xlink:href="#a"/>
  <use x="70" y="560.1875" xlink:href="#s"/>
  <use x="70.019531" y="560.1875" xlink:href="#e"/>
  <use x="70.042969" y="560.1875" xlink:href="#c"/>
  <use x="70.074219" y="560.1875" xlink:href="#r"/>
  <use x="70.140625" y="560.1875" xlink:href="#d"/>
  <use x="70.164062" y="560.1875" xlink:href="#q"/>
  <use x="70.195312" y="560.1875" xlink:href="#b"/>
  <use x="70.242188" y="560.1875" xlink:href="#p"/>
  <use x="70.28125" y="560.1875" xlink:href="#c"/>
  <use x="70.316406" y="560.1875" xlink:href="#o"/>
  <use x="70.347656" y="560.1875" xlink:href="#f"/>
  <use x="70.398438" y="560.1875" xlink:href="#h"/>
  <use x="70.433594" y="560.1875" xlink:href="#e"/>
  <use x="70.453125" y="560.1875" xlink:href="#c"/>
  <use x="70.488281" y="560.1875" xlink:href="#n"/>
  <use x="70.503906" y="560.1875" xlink:href="#b"/>
  <use x="70.535156" y="560.1875" xlink:href="#m"/>
  <use x="70.5625" y="560.1875" xlink:href="#d"/>
 </g>
</svg>
