<?xml version="1.0" encoding="utf-8"?>
<svg viewBox="136.536 159.567 426.154 503.477" xmlns="http://www.w3.org/2000/svg">
  <defs>
    <symbol id="w" overflow="visible">
      <path d="m0.03125 0h-0.015625-0.015625v-0.015625-0.015625h0.015625 0.015625-0.015625v0.015625 0.015625h0.015625v-0.015625z"/>
    </symbol>
    <symbol id="e" overflow="visible">
      <path d="m0.015625-0.015625v0.015625h-0.015625v-0.03125h0.015625v0.015625-0.015625z"/>
    </symbol>
    <symbol id="b" overflow="visible">
      <path d="m0.03125-0.015625h-0.015625v0.015625c0.0078125 0 0.015625-0.0039062 0.015625-0.015625v0.015625h-0.015625-0.015625v-0.015625l0.015625-0.015625v0.015625h0.015625z"/>
    </symbol>
    <symbol id="a" overflow="visible">
      <path d="m0.015625-0.015625v0.015625-0.015625zm0.015625 0v0.015625h-0.015625-0.015625v-0.015625h0.015625-0.015625v-0.015625h0.015625v0.015625h0.015625z"/>
    </symbol>
    <symbol id="d" overflow="visible">
      <path d="m0.015625-0.03125v0.015625 0.015625h-0.015625v-0.015625-0.015625z"/>
    </symbol>
    <symbol id="l" overflow="visible">
      <path d="m0.015625-0.015625v-0.015625h0.015625v0.03125h-0.015625-0.015625v-0.015625l0.015625-0.015625v0.015625zm0 0.015625v-0.015625 0.015625z"/>
    </symbol>
    <symbol id="k" overflow="visible">
      <path d="m0.015625 0v-0.015625 0.015625zm0-0.015625v-0.015625c0.0078125 0 0.015625 0.0078125 0.015625 0.015625v0.015625h-0.015625-0.015625v-0.03125h0.015625z"/>
    </symbol>
    <symbol id="j" overflow="visible">
      <path d="m0-0.03125h0.015625v0.015625-0.015625h0.015625l-0.015625 0.03125v0.015625h-0.015625v-0.015625h0.015625z"/>
    </symbol>
    <symbol id="i" overflow="visible">
      <path d="m0.015625-0.03125v0.015625 0.015625h0.015625v-0.015625c0-0.0078125-0.0078125-0.015625-0.015625-0.015625zm0 0h0.015625v0.015625 0.015625h-0.015625-0.015625v-0.015625-0.015625h0.015625z"/>
    </symbol>
    <symbol id="v" overflow="visible">
      <path d="m0-0.03125h0.015625v0.03125h-0.015625z"/>
    </symbol>
    <symbol id="f" overflow="visible">
      <path d="m0.03125-0.015625v0.015625h-0.015625v-0.015625 0.015625h-0.015625v-0.03125h0.015625v0.015625-0.015625c0.0078125 0 0.015625 0.0078125 0.015625 0.015625z"/>
    </symbol>
    <symbol id="h" overflow="visible">
      <path d="m0-0.03125h0.015625 0.015625v0.015625h-0.015625v0.015625h-0.015625zm0.015625 0v0.015625-0.015625z"/>
    </symbol>
    <symbol id="g" overflow="visible">
      <path d="m0.03125-0.03125v0.015625h-0.015625c0.0078125 0 0.015625 0.0078125 0.015625 0.015625h-0.015625-0.015625 0.015625v-0.015625h-0.015625l0.015625-0.015625h0.015625z"/>
    </symbol>
    <symbol id="c" overflow="visible">
      <path d="m0.015625-0.015625v0.015625-0.015625zm0-0.015625v0.015625h0.015625c0 0.011719-0.0078125 0.015625-0.015625 0.015625h-0.015625v-0.015625l0.015625-0.015625z"/>
    </symbol>
    <symbol id="u" overflow="visible">
      <path d="m0-0.03125h0.015625v0.015625-0.015625h0.015625l-0.015625 0.03125z"/>
    </symbol>
    <symbol id="t" overflow="visible">
      <path d="m0-0.03125h0.015625v0.015625-0.015625h0.015625l-0.015625 0.015625 0.015625 0.015625h-0.015625v-0.015625 0.015625h-0.015625z"/>
    </symbol>
    <symbol id="s" overflow="visible">
      <path d="m0.015625-0.03125v0.03125h-0.015625v-0.03125h0.015625z"/>
    </symbol>
    <symbol id="r" overflow="visible">
      <path d="m0.03125-0.015625v-0.015625c0.0078125 0 0.015625 0.0078125 0.015625 0.015625v0.015625h-0.015625v-0.015625 0.015625h-0.015625v-0.015625 0.015625h-0.015625v-0.03125h0.015625v0.015625-0.015625 0.015625h0.015625z"/>
    </symbol>
    <symbol id="q" overflow="visible">
      <path d="m0.03125-0.015625v0.015625h-0.015625v-0.015625 0.015625h-0.015625v-0.03125h0.015625v0.015625-0.015625c0.0078125 0 0.015625 0.0078125 0.015625 0.015625z"/>
    </symbol>
    <symbol id="p" overflow="visible">
      <path d="m0-0.03125h0.015625l0.015625 0.015625v-0.015625 0.03125l-0.015625-0.015625v0.015625h-0.015625z"/>
    </symbol>
    <symbol id="o" overflow="visible">
      <path d="m0-0.015625v-0.015625h0.015625v0.015625 0.015625-0.015625-0.015625h0.015625v0.03125h-0.015625-0.015625v-0.015625z"/>
    </symbol>
    <symbol id="n" overflow="visible">
      <path d="m0-0.03125h0.015625v0.03125h-0.015625v0.015625zm0 0h0.015625z"/>
    </symbol>
    <symbol id="m" overflow="visible">
      <path d="m0.03125-0.03125v0.015625h-0.015625v0.015625h0.015625-0.015625-0.015625v-0.015625l0.015625-0.015625h0.015625z"/>
    </symbol>
    <symbol id="symbol-1" overflow="visible">
      <path d="m0.03125 0h-0.015625-0.015625v-0.015625-0.015625h0.015625 0.015625-0.015625v0.015625 0.015625h0.015625v-0.015625z"/>
    </symbol>
    <symbol id="symbol-2" overflow="visible">
      <path d="m0.015625-0.015625v0.015625h-0.015625v-0.03125h0.015625v0.015625-0.015625z"/>
    </symbol>
    <symbol id="symbol-3" overflow="visible">
      <path d="m0.03125-0.015625h-0.015625v0.015625c0.0078125 0 0.015625-0.0039062 0.015625-0.015625v0.015625h-0.015625-0.015625v-0.015625l0.015625-0.015625v0.015625h0.015625z"/>
    </symbol>
    <symbol id="symbol-4" overflow="visible">
      <path d="m0.015625-0.015625v0.015625-0.015625zm0.015625 0v0.015625h-0.015625-0.015625v-0.015625h0.015625-0.015625v-0.015625h0.015625v0.015625h0.015625z"/>
    </symbol>
    <symbol id="symbol-5" overflow="visible">
      <path d="m0.015625-0.03125v0.015625 0.015625h-0.015625v-0.015625-0.015625z"/>
    </symbol>
    <symbol id="symbol-6" overflow="visible">
      <path d="m0.015625-0.015625v-0.015625h0.015625v0.03125h-0.015625-0.015625v-0.015625l0.015625-0.015625v0.015625zm0 0.015625v-0.015625 0.015625z"/>
    </symbol>
    <symbol id="symbol-7" overflow="visible">
      <path d="m0.015625 0v-0.015625 0.015625zm0-0.015625v-0.015625c0.0078125 0 0.015625 0.0078125 0.015625 0.015625v0.015625h-0.015625-0.015625v-0.03125h0.015625z"/>
    </symbol>
    <symbol id="symbol-8" overflow="visible">
      <path d="m0-0.03125h0.015625v0.015625-0.015625h0.015625l-0.015625 0.03125v0.015625h-0.015625v-0.015625h0.015625z"/>
    </symbol>
    <symbol id="symbol-9" overflow="visible">
      <path d="m0.015625-0.03125v0.015625 0.015625h0.015625v-0.015625c0-0.0078125-0.0078125-0.015625-0.015625-0.015625zm0 0h0.015625v0.015625 0.015625h-0.015625-0.015625v-0.015625-0.015625h0.015625z"/>
    </symbol>
    <symbol id="symbol-10" overflow="visible">
      <path d="m0-0.03125h0.015625v0.03125h-0.015625z"/>
    </symbol>
    <symbol id="symbol-11" overflow="visible">
      <path d="m0.03125-0.015625v0.015625h-0.015625v-0.015625 0.015625h-0.015625v-0.03125h0.015625v0.015625-0.015625c0.0078125 0 0.015625 0.0078125 0.015625 0.015625z"/>
    </symbol>
    <symbol id="symbol-12" overflow="visible">
      <path d="m0-0.03125h0.015625 0.015625v0.015625h-0.015625v0.015625h-0.015625zm0.015625 0v0.015625-0.015625z"/>
    </symbol>
    <symbol id="symbol-13" overflow="visible">
      <path d="m0.03125-0.03125v0.015625h-0.015625c0.0078125 0 0.015625 0.0078125 0.015625 0.015625h-0.015625-0.015625 0.015625v-0.015625h-0.015625l0.015625-0.015625h0.015625z"/>
    </symbol>
    <symbol id="symbol-14" overflow="visible">
      <path d="m0.015625-0.015625v0.015625-0.015625zm0-0.015625v0.015625h0.015625c0 0.011719-0.0078125 0.015625-0.015625 0.015625h-0.015625v-0.015625l0.015625-0.015625z"/>
    </symbol>
    <symbol id="symbol-15" overflow="visible">
      <path d="m0-0.03125h0.015625v0.015625-0.015625h0.015625l-0.015625 0.03125z"/>
    </symbol>
    <symbol id="symbol-16" overflow="visible">
      <path d="m0-0.03125h0.015625v0.015625-0.015625h0.015625l-0.015625 0.015625 0.015625 0.015625h-0.015625v-0.015625 0.015625h-0.015625z"/>
    </symbol>
    <symbol id="symbol-17" overflow="visible">
      <path d="m0.015625-0.03125v0.03125h-0.015625v-0.03125h0.015625z"/>
    </symbol>
    <symbol id="symbol-18" overflow="visible">
      <path d="m0.03125-0.015625v-0.015625c0.0078125 0 0.015625 0.0078125 0.015625 0.015625v0.015625h-0.015625v-0.015625 0.015625h-0.015625v-0.015625 0.015625h-0.015625v-0.03125h0.015625v0.015625-0.015625 0.015625h0.015625z"/>
    </symbol>
    <symbol id="symbol-19" overflow="visible">
      <path d="m0.03125-0.015625v0.015625h-0.015625v-0.015625 0.015625h-0.015625v-0.03125h0.015625v0.015625-0.015625c0.0078125 0 0.015625 0.0078125 0.015625 0.015625z"/>
    </symbol>
    <symbol id="symbol-20" overflow="visible">
      <path d="m0-0.03125h0.015625l0.015625 0.015625v-0.015625 0.03125l-0.015625-0.015625v0.015625h-0.015625z"/>
    </symbol>
    <symbol id="symbol-21" overflow="visible">
      <path d="m0-0.015625v-0.015625h0.015625v0.015625 0.015625-0.015625-0.015625h0.015625v0.03125h-0.015625-0.015625v-0.015625z"/>
    </symbol>
    <symbol id="symbol-22" overflow="visible">
      <path d="m0-0.03125h0.015625v0.03125h-0.015625v0.015625zm0 0h0.015625z"/>
    </symbol>
    <symbol id="symbol-23" overflow="visible">
      <path d="m0.03125-0.03125v0.015625h-0.015625v0.015625h0.015625-0.015625-0.015625v-0.015625l0.015625-0.015625h0.015625z"/>
    </symbol>
  </defs>
  <g transform="matrix(1, 0, 0, 1, -39.598421, 111.192104)">
    <g transform="matrix(1, 0, 0, 1, 83.268472, -77.037224)">
      <g transform="matrix(1, 0, 0, 1, -44.055477, 86.729713)">
        <path d="m350 247.67c-15.613 0-30.586-6.2031-41.629-17.242-11.039-11.043-17.242-26.016-17.242-41.629s6.2031-30.586 17.242-41.629c11.043-11.039 26.016-17.242 41.629-17.242s30.586 6.2031 41.629 17.242c11.039 11.043 17.242 26.016 17.242 41.629-0.019532 15.609-6.2266 30.57-17.262 41.609-11.039 11.035-26 17.246-41.609 17.262zm0-104.62c-12.133 0-23.77 4.8203-32.348 13.398s-13.398 20.215-13.398 32.348c0 12.133 4.8203 23.77 13.398 32.348 8.5781 8.5781 20.215 13.398 32.348 13.398s23.77-4.8203 32.348-13.398c8.5781-8.5781 13.398-20.215 13.398-32.348-0.015625-12.129-4.8398-23.754-13.414-32.332-8.5742-8.5742-20.203-13.398-32.332-13.414z"/>
        <path d="m349.7 210.5c-4.9805 0.11719-9.6836-2.2969-12.496-6.4102-0.98438-1.4531-1.3477-3.2383-1.0078-4.957 0.33984-1.7227 1.3555-3.2344 2.8203-4.2031 1.4648-0.96484 3.2539-1.3086 4.9688-0.94531 1.7188 0.35938 3.2188 1.3945 4.168 2.8711 0.47266 0.41406 1.1016 0.60156 1.7266 0.51563 0.625 0.035156 1.2383-0.20313 1.6719-0.65625 1.7344-3.1836 5.7188-4.3594 8.9023-2.625 3.1836 1.7344 4.3594 5.7188 2.625 8.9023-2.5898 4.5586-7.3984 7.4102-12.641 7.4961-0.24609 0.007813-0.49219 0.011719-0.73828 0.011719z"/>
        <path d="m189.02 195.33c-7.5703-0.17969-14.832 2.4766-19.438 7.082-4.6055 4.6055-7.2539 11.871-7.082 19.438v0.003907c0.14844 6.9922 5.7812 12.629 12.777 12.777 0.23438 0.003907 0.46484 0.007813 0.69922 0.007813 7.3125 0 14.277-2.625 18.742-7.0898 4.6055-4.6055 7.2539-11.871 7.082-19.441h-0.003907c-0.14844-6.9922-5.7812-12.625-12.777-12.777zm-3.582 22.938c-2.0273 2.0234-5.7969 3.2891-9.625 3.2891h-0.19531c-0.089844-3.9336 1.1836-7.8047 3.2422-9.8594 2.0234-2.0234 5.7969-3.2891 9.625-3.2891h0.19531c0.085937 3.9297-1.1836 7.8008-3.2422 9.8594z"/>
        <path d="m236.77 153.26c-4.7812 0.003906-9.1797-2.6094-11.469-6.8086-3.6328-6.6367-4.6211-14.309-2.6484-20.52 1.9727-6.2109 7.207-11.902 14.008-15.227 6.2773-3.082 13.871-0.66797 17.223 5.4688 3.6328 6.6406 4.6211 14.312 2.6484 20.52-1.9727 6.207-7.2109 11.902-14.008 15.227v0.003906c-1.7891 0.87891-3.7578 1.3359-5.7539 1.3359zm5.5977-30.785c-3.4727 1.75-6.3242 4.6562-7.2031 7.4297-0.87891 2.7734-0.23437 6.7969 1.6562 10.246 3.4688-1.75 6.3242-4.6562 7.2031-7.4297 0.87891-2.7734 0.23047-6.793-1.6562-10.246z"/>
        <path d="m355.8 95.676c-0.34766 0-0.69922-0.015625-1.0547-0.042969-7.5469-0.59766-14.504-3.9688-18.621-9.0195-4.1172-5.0508-6.0078-12.547-5.0664-20.059 0.86719-6.9375 7.0391-11.969 14.008-11.414 7.5469 0.59766 14.504 3.9688 18.621 9.0195 4.1172 5.0547 6.0078 12.551 5.0703 20.059-0.80859 6.543-6.3672 11.457-12.957 11.457zm-11.77-27.453c-0.4375 3.8633 0.4375 7.8398 2.2734 10.098 1.8359 2.2578 5.5586 3.9141 9.4805 4.2266 0.4375-3.8594-0.4375-7.8398-2.2734-10.098-1.8359-2.2578-5.5586-3.9141-9.4805-4.2227z"/>
        <path d="m198.99 353.46c-2.9062 0-5.7266-0.96875-8.0156-2.75-5.9805-4.6367-9.9531-11.273-10.621-17.758-0.66797-6.4805 1.8594-13.789 6.7617-19.551 4.5273-5.3359 12.453-6.1562 17.977-1.8594 5.9805 4.6367 9.9531 11.273 10.621 17.758 0.66797 6.4805-1.8594 13.789-6.7656 19.551-2.4805 2.9258-6.1211 4.6133-9.957 4.6094zm-1.9414-31.543c-2.4844 2.9883-3.9375 6.793-3.6406 9.6875s2.5 6.3242 5.6094 8.7344c2.4844-2.9883 3.9375-6.793 3.6406-9.6875-0.30078-2.8984-2.5-6.3281-5.6094-8.7344z"/>
        <path d="m524.02 234.64c-7.3125 0-14.277-2.625-18.742-7.0898-4.6055-4.6055-7.2539-11.871-7.082-19.438h0.003906c0.14844-6.9961 5.7812-12.629 12.777-12.781 7.5469-0.17578 14.832 2.4766 19.438 7.082 4.6055 4.6055 7.2539 11.875 7.082 19.438v0.003907c-0.14844 6.9922-5.7812 12.629-12.777 12.777-0.23047 0.003907-0.46484 0.007813-0.69922 0.007813zm-9.4609-16.371c2.0586 2.0586 5.9062 3.3359 9.8594 3.2422 0.042969-3.8867-1.2266-7.7578-3.2852-9.8164-2.0586-2.0586-5.9141-3.3281-9.8594-3.2383-0.042969 3.8867 1.2266 7.7539 3.2812 9.8125z"/>
        <path d="m463.23 153.26c-1.9961 0-3.9648-0.45703-5.7539-1.3359-6.7969-3.3242-12.031-9.0195-14.008-15.227-1.9766-6.2109-0.98438-13.879 2.6484-20.52 3.3516-6.1406 10.945-8.5508 17.223-5.4688 6.8008 3.3242 12.031 9.0195 14.008 15.227 1.9766 6.2109 0.98438 13.879-2.6484 20.52-2.2891 4.1992-6.6914 6.8086-11.469 6.8047zm-5.6562-30.762c-1.8281 3.4297-2.4766 7.4531-1.5938 10.227 0.88281 2.7734 3.7344 5.6875 7.2656 7.4102 1.8281-3.4297 2.4766-7.4531 1.5938-10.227-0.88672-2.7734-3.7344-5.6836-7.2656-7.4102z"/>
        <path d="m512.89 313.41c-4.5273-5.3359-12.453-6.1562-17.977-1.8594-5.9805 4.6367-9.9531 11.277-10.621 17.758-0.66797 6.4805 1.8594 13.789 6.7656 19.551 4.5234 5.3359 12.449 6.1523 17.973 1.8594 5.9805-4.6367 9.9531-11.277 10.621-17.754 0.66406-6.4805-1.8594-13.793-6.7617-19.555zm-6.293 18.203c-0.29688 2.8945-2.5 6.3203-5.543 8.7383-2.5508-2.9961-4.0039-6.8008-3.7031-9.6953 0.29688-2.8945 2.5-6.3203 5.543-8.7383 2.5469 2.9961 4 6.8008 3.7031 9.6953z"/>
        <path d="m503.92 456.04c3.1719-4.3438 4.0469-10.062 2.5156-16.285 1.6523-1.9492 2.4375-4.4805 2.1797-7.0234-0.45313-4.082-3.4336-7.4375-7.4375-8.3672-1.8086-0.38281-3.582-0.90625-5.3086-1.5703-4.7109-2.3359-16.664-9.5-25.891-25.566-6.7266-11.711-10.996-30.012-15.133-49.324-12.539-58.543-52.719-94.91-104.86-94.91-52.137 0-92.312 36.367-104.86 94.91-4.1367 19.309-8.4062 37.613-15.133 49.324-9.2266 16.066-21.18 23.23-25.891 25.566h0.003907c-1.7266 0.66406-3.5039 1.1914-5.3125 1.5703-4.0039 0.92969-6.9844 4.2852-7.4375 8.3672-0.25781 2.5391 0.53125 5.0742 2.1797 7.0234-1.5312 6.207-0.65625 11.914 2.4922 16.258v-0.003907c-7.0625 15.176-5.8945 32.906 3.0898 47.023 8.9883 14.121 24.555 22.684 41.293 22.711 1.5 0 3.0039-0.070313 4.5156-0.20703 14.5-1.3281 73.07-12.566 84.418-16.121 24.574 4.2188 83.926 12.289 125.7 16.121 1.5117 0.14062 3.0156 0.20703 4.5156 0.20703 16.742 0.007812 32.328-8.543 41.316-22.668 8.9922-14.129 10.137-31.867 3.0391-47.035zm-296.57-16.16c0.40234-0.91016 0.59375-1.8984 0.5625-2.8906-0.054687-0.86719 0.42969-1.6836 1.2188-2.0508 0.26953-0.12109 0.54688-0.25 0.82031-0.38672 7.1836-3.5625 20.82-12.297 31.441-30.789 7.6719-13.355 12.223-32.742 16.586-53.113 11.34-52.93 45.738-84.527 92.02-84.527s80.68 31.598 92.02 84.535c4.3633 20.367 8.9141 39.758 16.586 53.113 10.621 18.492 24.258 27.227 31.441 30.789 0.27734 0.13672 0.54688 0.26562 0.82031 0.38672v-0.003906c0.78906 0.36719 1.2734 1.1836 1.2188 2.0508-0.03125 0.99219 0.16016 1.9805 0.5625 2.8906 1.8594 4.1797 1.9023 7.4688 0.12891 9.0195h-0.003906c-1.4414 1.1758-3.4531 1.3633-5.0859 0.47656-1.793-1.0938-3.3984-1.1367-6.5938-1.2148-6.125-0.023437-12.23-0.71094-18.207-2.0508-17.488-4.1562-27.586-22.883-31.199-39.027-3.3867-15.125-9.4258-68.758-14.562-84.523-0.55078-1.6914-1.7656-3.0859-3.3633-3.8672-1.5977-0.77734-3.4414-0.875-5.1133-0.26953-3.3477 1.3086-5.0781 5.0156-3.9297 8.4219 4.668 14.406 10.621 67.281 14.164 83.102 1.3594 6.0742 3.3906 11.98 6.0508 17.609 0.16016 0.32812 0.14844 0.71484-0.039063 1.0312-0.18359 0.31641-0.51562 0.51562-0.88281 0.53516-31.523 1.3789-70.602 2.418-90.395 3.6094-10.84-0.5625-46.316-2.6914-57.77-3.3516-0.36328-0.019531-0.69141-0.22266-0.875-0.53906s-0.19531-0.69922-0.03125-1.0273c2.7227-5.7031 4.793-11.695 6.1758-17.859 3.543-15.816 9.4961-68.695 14.164-83.102 1.1484-3.4062-0.58203-7.1133-3.9297-8.4219-1.6719-0.60938-3.5156-0.51172-5.1133 0.26953-1.6016 0.78125-2.8125 2.1758-3.3633 3.8633-5.1406 15.766-11.18 69.398-14.562 84.523-3.6094 16.145-13.707 34.875-31.199 39.027v0.003906c-5.9766 1.3359-12.082 2.0234-18.207 2.0508-3.1953 0.078125-4.7969 0.10938-6.5938 1.2148v-0.003907c-1.6367 0.89063-3.6445 0.70313-5.0859-0.47656-1.7734-1.5625-1.7266-4.8438 0.125-9.0273zm36.398 72.59v-0.003906c-12.547 1.168-24.785-4.3359-32.23-14.504-7.4492-10.164-9.0117-23.492-4.1172-35.102 0.90625 0.14453 1.8242 0.21875 2.7461 0.22266 2.6523 0.007813 5.2695-0.59375 7.6562-1.7617 0.42578-0.015624 0.95312-0.027343 1.4219-0.039062 7.0391-0.046875 14.055-0.85547 20.922-2.4062 10.562-2.5078 19.023-8.6562 25.547-16.488h0.003907c0.21094-0.25781 0.53906-0.40234 0.875-0.38672 11.207 0.61328 39.758 2.2969 42.043 2.4336 1.0234 0.058594 1.9766 0.54688 2.6211 1.3438s0.92578 1.832 0.76953 2.8438c-1.8008 11.812-6.1133 39.949-8.0195 51.297-0.19531 1.1602-0.19531 2.3438 0 3.5-22.039 3.7031-46.582 7.8008-60.238 9.0469zm241.18-10.422c-7.5234 7.5859-18.047 11.41-28.684 10.418-49.914-4.582-110.23-13.73-125.1-16.984v0.003906c-1.1016-0.24609-2.2305-0.37109-3.3594-0.375-2.2227 0.28516-4.3906 0.89453-6.4375 1.8086-0.78516 0.30859-1.6719 0.17188-2.3281-0.35938-0.65625-0.52734-0.97656-1.3633-0.84375-2.1953 2.2031-13.938 5.4805-36.266 6.9141-45.855 0.20703-1.3945 1.4375-2.4062 2.8438-2.3398 12.867 0.62109 49.887-1.8789 105.34-4.3203 0.34766-0.011718 0.67969 0.13281 0.89844 0.39844 6.5391 7.8984 15.043 14.109 25.672 16.633 6.8672 1.5508 13.883 2.3594 20.926 2.4062 0.46484 0.011719 0.99219 0.023438 1.4219 0.039063 3.2266 1.5664 6.8555 2.1055 10.398 1.5391 1.3984 3.2969 2.2852 6.7852 2.6328 10.348 1.0508 10.668-2.7227 21.246-10.293 28.836z"/>
      </g>
    </g>
  </g>
</svg>