<?xml version="1.0" encoding="UTF-8"?>
<svg version="1.1" viewBox="0 0 700 700" xmlns="http://www.w3.org/2000/svg" xmlns:xlink="http://www.w3.org/1999/xlink">

 <g>
  <path d="m175.56 422.64c-5.8359 0-10.566-4.7305-10.566-10.566v-274.71c0-5.8359 4.7305-10.566 10.566-10.566s10.566 4.7305 10.566 10.566v274.72c0 5.832-4.7344 10.562-10.566 10.562z"/>
  <path d="m133.3 422.64c-5.8359 0-10.566-4.7305-10.566-10.566v-274.71c0-5.8359 4.7305-10.566 10.566-10.566s10.566 4.7305 10.566 10.566v274.72c0 5.832-4.7305 10.562-10.566 10.562z"/>
  <path d="m461.11 330.97c-5.8359 0-10.566-4.7305-10.566-10.566v-119.65c0-5.8359 4.7305-10.566 10.566-10.566s10.566 4.7305 10.566 10.566v119.65c0 5.8359-4.7344 10.566-10.566 10.566z"/>
  <path d="m366.02 408.4c-5.8359 0-10.566-4.7305-10.566-10.566v-238.25c0-5.8359 4.7305-10.566 10.566-10.566s10.566 4.7305 10.566 10.566l-0.003906 238.25c0 5.8359-4.7305 10.566-10.562 10.566z"/>
  <path d="m270.92 486.04c-5.8359 0-10.566-4.7305-10.566-10.566v-369.81c0-5.8359 4.7305-10.566 10.566-10.566 5.8359 0 10.566 4.7305 10.566 10.566v369.81c0 5.832-4.7305 10.566-10.566 10.566z"/>
  <path d="m386.88 549.43h-264.15c-23.305 0-42.266-18.961-42.266-42.266 0-23.305 18.961-42.266 42.266-42.266h264.15c23.305 0 42.266 18.961 42.266 42.266-0.003907 23.305-18.965 42.266-42.266 42.266zm-264.15-63.395c-11.652 0-21.133 9.4805-21.133 21.133s9.4805 21.133 21.133 21.133h264.15c11.652 0 21.133-9.4805 21.133-21.133s-9.4805-21.133-21.133-21.133z"/>
  <path d="m112.16 487.86c-5.8359 0-10.566-4.7305-10.566-10.566v-45.402c0-16.75 13.629-30.379 30.379-30.379h44.906c16.75 0 30.379 13.629 30.379 30.379l-0.003907 43.586c0 5.8359-4.7305 10.566-10.566 10.566-5.8359 0-10.566-4.7305-10.566-10.566v-43.586c0-5.0977-4.1484-9.2461-9.2461-9.2461h-44.906c-5.0977 0-9.2461 4.1484-9.2461 9.2461v45.402c0.003907 5.8359-4.7266 10.566-10.562 10.566z"/>
  <path d="m191.41 147.93h-73.961c-20.391 0-36.98-16.59-36.98-36.98l-0.003906-63.398c0-20.391 16.59-36.98 36.98-36.98h73.961c20.391 0 36.98 16.59 36.98 36.98v63.395c0.003906 20.395-16.586 36.984-36.977 36.984zm-73.961-116.23c-8.7383 0-15.848 7.1094-15.848 15.848v63.395c0 8.7383 7.1094 15.848 15.848 15.848h73.961c8.7383 0 15.848-7.1094 15.848-15.848v-63.395c0-8.7383-7.1094-15.848-15.848-15.848z"/>
  <path d="m336.29 481.98c-3.5938-4.5977-2.7773-11.238 1.8203-14.832l239.58-187.17c16.199-12.656 23.582-32.27 19.746-52.465-3.832-20.195-17.891-35.738-37.598-41.582l-133.31-39.5c-23.414-6.9375-42.359-23.789-51.98-46.234-9.5781-22.352-31.484-36.797-55.805-36.797h-100.92c-5.8359 0-10.566-4.7305-10.566-10.566s4.7305-10.566 10.566-10.566h100.92c32.785 0 62.316 19.473 75.23 49.605 7.1367 16.652 21.191 29.152 38.559 34.297l133.31 39.5c27.035 8.0117 47.098 30.195 52.355 57.902 5.2578 27.703-5.2773 55.699-27.5 73.059l-239.58 187.17c-4.6172 3.6094-11.254 2.7578-14.828-1.8203z"/>
  <path d="m262.46 482.14c-3.6836-4.5234-3.0039-11.18 1.5234-14.863 294.7-239.97 281.3-228.98 281.61-229.34 0-0.097656-0.007812-0.28516-0.0625-0.58594-0.054687-0.29688-0.11719-0.47656-0.15234-0.56641-0.44531-0.23828 4.8359 1.4141-133.86-39.711-38.523-11.414-69.699-39.141-85.527-76.074-1.2461-2.9062-4.0898-4.7812-7.25-4.7812h-100.92c-5.8359 0-10.566-4.7305-10.566-10.566 0-5.8359 4.7305-10.566 10.566-10.566h100.92c11.625 0 22.094 6.9023 26.672 17.59 13.348 31.137 39.629 54.516 72.109 64.141l133.31 39.5c8.2227 2.4375 13.859 8.6719 15.461 17.098 1.5938 8.3906-1.332 16.223-8.0234 21.5l-280.95 228.74c-4.5352 3.6992-11.191 2.9883-14.863-1.5195z"/>

 </g>
</svg>
