<?xml version="1.0" encoding="UTF-8"?>
<svg version="1.1" viewBox="0 0 700 700" xmlns="http://www.w3.org/2000/svg">
 <g>
  <path d="m140 308h84v84h-84z"/>
  <path d="m196 420v56h-28v-56h-56v112h140v-112z"/>
  <path d="m308 308h84v84h-84z"/>
  <path d="m364 420v56h-28v-56h-56v112h140v-112z"/>
  <path d="m476 308h84v84h-84z"/>
  <path d="m532 420v56h-28v-56h-56v112h140v-112z"/>
  <path d="m140 28h84v84h-84z"/>
  <path d="m196 140v56h-28v-56h-56v112h140v-112z"/>
  <path d="m308 28h84v84h-84z"/>
  <path d="m364 140v56h-28v-56h-56v112h140v-112z"/>
  <path d="m476 28h84v84h-84z"/>
  <path d="m532 140v56h-28v-56h-56v112h140v-112z"/>
 </g>
</svg>
