<?xml version="1.0" encoding="utf-8"?>
<svg viewBox="119.419 347.968 360.386 334.191" xmlns="http://www.w3.org/2000/svg">
  <defs>
    <symbol id="w" overflow="visible">
      <path d="m0.03125 0h-0.015625-0.015625v-0.015625-0.015625h0.015625 0.015625-0.015625v0.015625 0.015625h0.015625v-0.015625z"/>
    </symbol>
    <symbol id="e" overflow="visible">
      <path d="m0.015625-0.015625v0.015625h-0.015625v-0.03125h0.015625v0.015625-0.015625z"/>
    </symbol>
    <symbol id="b" overflow="visible">
      <path d="m0.03125-0.015625h-0.015625v0.015625c0.0078125 0 0.015625-0.0039062 0.015625-0.015625v0.015625h-0.015625-0.015625v-0.015625l0.015625-0.015625v0.015625h0.015625z"/>
    </symbol>
    <symbol id="a" overflow="visible">
      <path d="m0.015625-0.015625v0.015625-0.015625zm0.015625 0v0.015625h-0.015625-0.015625v-0.015625h0.015625-0.015625v-0.015625h0.015625v0.015625h0.015625z"/>
    </symbol>
    <symbol id="d" overflow="visible">
      <path d="m0.015625-0.03125v0.015625 0.015625h-0.015625v-0.015625-0.015625z"/>
    </symbol>
    <symbol id="l" overflow="visible">
      <path d="m0.015625-0.015625v-0.015625h0.015625v0.03125h-0.015625-0.015625v-0.015625l0.015625-0.015625v0.015625zm0 0.015625v-0.015625 0.015625z"/>
    </symbol>
    <symbol id="k" overflow="visible">
      <path d="m0.015625 0v-0.015625 0.015625zm0-0.015625v-0.015625c0.0078125 0 0.015625 0.0078125 0.015625 0.015625v0.015625h-0.015625-0.015625v-0.03125h0.015625z"/>
    </symbol>
    <symbol id="j" overflow="visible">
      <path d="m0-0.03125h0.015625v0.015625-0.015625h0.015625l-0.015625 0.03125v0.015625h-0.015625v-0.015625h0.015625z"/>
    </symbol>
    <symbol id="i" overflow="visible">
      <path d="m0.015625-0.03125v0.015625 0.015625h0.015625v-0.015625c0-0.0078125-0.0078125-0.015625-0.015625-0.015625zm0 0h0.015625v0.015625 0.015625h-0.015625-0.015625v-0.015625-0.015625h0.015625z"/>
    </symbol>
    <symbol id="v" overflow="visible">
      <path d="m0-0.03125h0.015625v0.03125h-0.015625z"/>
    </symbol>
    <symbol id="f" overflow="visible">
      <path d="m0.03125-0.015625v0.015625h-0.015625v-0.015625 0.015625h-0.015625v-0.03125h0.015625v0.015625-0.015625c0.0078125 0 0.015625 0.0078125 0.015625 0.015625z"/>
    </symbol>
    <symbol id="h" overflow="visible">
      <path d="m0-0.03125h0.015625 0.015625v0.015625h-0.015625v0.015625h-0.015625zm0.015625 0v0.015625-0.015625z"/>
    </symbol>
    <symbol id="g" overflow="visible">
      <path d="m0.03125-0.03125v0.015625h-0.015625c0.0078125 0 0.015625 0.0078125 0.015625 0.015625h-0.015625-0.015625 0.015625v-0.015625h-0.015625l0.015625-0.015625h0.015625z"/>
    </symbol>
    <symbol id="c" overflow="visible">
      <path d="m0.015625-0.015625v0.015625-0.015625zm0-0.015625v0.015625h0.015625c0 0.011719-0.0078125 0.015625-0.015625 0.015625h-0.015625v-0.015625l0.015625-0.015625z"/>
    </symbol>
    <symbol id="u" overflow="visible">
      <path d="m0-0.03125h0.015625v0.015625-0.015625h0.015625l-0.015625 0.03125z"/>
    </symbol>
    <symbol id="t" overflow="visible">
      <path d="m0-0.03125h0.015625v0.015625-0.015625h0.015625l-0.015625 0.015625 0.015625 0.015625h-0.015625v-0.015625 0.015625h-0.015625z"/>
    </symbol>
    <symbol id="s" overflow="visible">
      <path d="m0.015625-0.03125v0.03125h-0.015625v-0.03125h0.015625z"/>
    </symbol>
    <symbol id="r" overflow="visible">
      <path d="m0.03125-0.015625v-0.015625c0.0078125 0 0.015625 0.0078125 0.015625 0.015625v0.015625h-0.015625v-0.015625 0.015625h-0.015625v-0.015625 0.015625h-0.015625v-0.03125h0.015625v0.015625-0.015625 0.015625h0.015625z"/>
    </symbol>
    <symbol id="q" overflow="visible">
      <path d="m0.03125-0.015625v0.015625h-0.015625v-0.015625 0.015625h-0.015625v-0.03125h0.015625v0.015625-0.015625c0.0078125 0 0.015625 0.0078125 0.015625 0.015625z"/>
    </symbol>
    <symbol id="p" overflow="visible">
      <path d="m0-0.03125h0.015625l0.015625 0.015625v-0.015625 0.03125l-0.015625-0.015625v0.015625h-0.015625z"/>
    </symbol>
    <symbol id="o" overflow="visible">
      <path d="m0-0.015625v-0.015625h0.015625v0.015625 0.015625-0.015625-0.015625h0.015625v0.03125h-0.015625-0.015625v-0.015625z"/>
    </symbol>
    <symbol id="n" overflow="visible">
      <path d="m0-0.03125h0.015625v0.03125h-0.015625v0.015625zm0 0h0.015625z"/>
    </symbol>
    <symbol id="m" overflow="visible">
      <path d="m0.03125-0.03125v0.015625h-0.015625v0.015625h0.015625-0.015625-0.015625v-0.015625l0.015625-0.015625h0.015625z"/>
    </symbol>
    <symbol id="symbol-1" overflow="visible">
      <path d="m0.03125 0h-0.015625-0.015625v-0.015625-0.015625h0.015625 0.015625-0.015625v0.015625 0.015625h0.015625v-0.015625z"/>
    </symbol>
    <symbol id="symbol-2" overflow="visible">
      <path d="m0.015625-0.015625v0.015625h-0.015625v-0.03125h0.015625v0.015625-0.015625z"/>
    </symbol>
    <symbol id="symbol-3" overflow="visible">
      <path d="m0.03125-0.015625h-0.015625v0.015625c0.0078125 0 0.015625-0.0039062 0.015625-0.015625v0.015625h-0.015625-0.015625v-0.015625l0.015625-0.015625v0.015625h0.015625z"/>
    </symbol>
    <symbol id="symbol-4" overflow="visible">
      <path d="m0.015625-0.015625v0.015625-0.015625zm0.015625 0v0.015625h-0.015625-0.015625v-0.015625h0.015625-0.015625v-0.015625h0.015625v0.015625h0.015625z"/>
    </symbol>
    <symbol id="symbol-5" overflow="visible">
      <path d="m0.015625-0.03125v0.015625 0.015625h-0.015625v-0.015625-0.015625z"/>
    </symbol>
    <symbol id="symbol-6" overflow="visible">
      <path d="m0.015625-0.015625v-0.015625h0.015625v0.03125h-0.015625-0.015625v-0.015625l0.015625-0.015625v0.015625zm0 0.015625v-0.015625 0.015625z"/>
    </symbol>
    <symbol id="symbol-7" overflow="visible">
      <path d="m0.015625 0v-0.015625 0.015625zm0-0.015625v-0.015625c0.0078125 0 0.015625 0.0078125 0.015625 0.015625v0.015625h-0.015625-0.015625v-0.03125h0.015625z"/>
    </symbol>
    <symbol id="symbol-8" overflow="visible">
      <path d="m0-0.03125h0.015625v0.015625-0.015625h0.015625l-0.015625 0.03125v0.015625h-0.015625v-0.015625h0.015625z"/>
    </symbol>
    <symbol id="symbol-9" overflow="visible">
      <path d="m0.015625-0.03125v0.015625 0.015625h0.015625v-0.015625c0-0.0078125-0.0078125-0.015625-0.015625-0.015625zm0 0h0.015625v0.015625 0.015625h-0.015625-0.015625v-0.015625-0.015625h0.015625z"/>
    </symbol>
    <symbol id="symbol-10" overflow="visible">
      <path d="m0-0.03125h0.015625v0.03125h-0.015625z"/>
    </symbol>
    <symbol id="symbol-11" overflow="visible">
      <path d="m0.03125-0.015625v0.015625h-0.015625v-0.015625 0.015625h-0.015625v-0.03125h0.015625v0.015625-0.015625c0.0078125 0 0.015625 0.0078125 0.015625 0.015625z"/>
    </symbol>
    <symbol id="symbol-12" overflow="visible">
      <path d="m0-0.03125h0.015625 0.015625v0.015625h-0.015625v0.015625h-0.015625zm0.015625 0v0.015625-0.015625z"/>
    </symbol>
    <symbol id="symbol-13" overflow="visible">
      <path d="m0.03125-0.03125v0.015625h-0.015625c0.0078125 0 0.015625 0.0078125 0.015625 0.015625h-0.015625-0.015625 0.015625v-0.015625h-0.015625l0.015625-0.015625h0.015625z"/>
    </symbol>
    <symbol id="symbol-14" overflow="visible">
      <path d="m0.015625-0.015625v0.015625-0.015625zm0-0.015625v0.015625h0.015625c0 0.011719-0.0078125 0.015625-0.015625 0.015625h-0.015625v-0.015625l0.015625-0.015625z"/>
    </symbol>
    <symbol id="symbol-15" overflow="visible">
      <path d="m0-0.03125h0.015625v0.015625-0.015625h0.015625l-0.015625 0.03125z"/>
    </symbol>
    <symbol id="symbol-16" overflow="visible">
      <path d="m0-0.03125h0.015625v0.015625-0.015625h0.015625l-0.015625 0.015625 0.015625 0.015625h-0.015625v-0.015625 0.015625h-0.015625z"/>
    </symbol>
    <symbol id="symbol-17" overflow="visible">
      <path d="m0.015625-0.03125v0.03125h-0.015625v-0.03125h0.015625z"/>
    </symbol>
    <symbol id="symbol-18" overflow="visible">
      <path d="m0.03125-0.015625v-0.015625c0.0078125 0 0.015625 0.0078125 0.015625 0.015625v0.015625h-0.015625v-0.015625 0.015625h-0.015625v-0.015625 0.015625h-0.015625v-0.03125h0.015625v0.015625-0.015625 0.015625h0.015625z"/>
    </symbol>
    <symbol id="symbol-19" overflow="visible">
      <path d="m0.03125-0.015625v0.015625h-0.015625v-0.015625 0.015625h-0.015625v-0.03125h0.015625v0.015625-0.015625c0.0078125 0 0.015625 0.0078125 0.015625 0.015625z"/>
    </symbol>
    <symbol id="symbol-20" overflow="visible">
      <path d="m0-0.03125h0.015625l0.015625 0.015625v-0.015625 0.03125l-0.015625-0.015625v0.015625h-0.015625z"/>
    </symbol>
    <symbol id="symbol-21" overflow="visible">
      <path d="m0-0.015625v-0.015625h0.015625v0.015625 0.015625-0.015625-0.015625h0.015625v0.03125h-0.015625-0.015625v-0.015625z"/>
    </symbol>
    <symbol id="symbol-22" overflow="visible">
      <path d="m0-0.03125h0.015625v0.03125h-0.015625v0.015625zm0 0h0.015625z"/>
    </symbol>
    <symbol id="symbol-23" overflow="visible">
      <path d="m0.03125-0.03125v0.015625h-0.015625v0.015625h0.015625-0.015625-0.015625v-0.015625l0.015625-0.015625h0.015625z"/>
    </symbol>
  </defs>
  <g transform="matrix(1, 0, 0, 1, -39.598421, 111.192104)">
    <g transform="matrix(1, 0, 0, 1, 83.268472, -77.037224)">
      <g transform="matrix(0.559996, 0, 0, 0.559996, 59.955463, 324.114685)" style="">
        <path d="m168.18 12.164c3.5117-6.1328 11.355-8.25 17.488-4.7227 6.1328 3.5273 8.25 11.355 4.7227 17.488l-70.141 121.48c-3.5273 6.1328-11.355 8.25-17.488 4.7227-6.1328-3.5273-8.25-11.355-4.7227-17.488zm411.55 401.36c3.543-6.1328 11.406-8.2148 17.523-4.6719 6.1328 3.543 8.2148 11.391 4.6719 17.523l-23.824 41.262c-3.543 6.1328-11.406 8.2148-17.539 4.6719-6.1328-3.543-8.2148-11.406-4.6719-17.539l23.824-41.262zm-60.043 104.04c3.5273-6.1328 11.355-8.25 17.488-4.7227 6.1328 3.5117 8.25 11.34 4.7227 17.473l-10.113 17.504c-3.5117 6.1328-11.355 8.25-17.488 4.7227-6.1328-3.5117-8.25-11.34-4.7227-17.473l10.098-17.504zm-77.145-104.04c3.543-6.1328 11.391-8.2148 17.523-4.6719 6.1328 3.543 8.2148 11.391 4.6719 17.523l-23.824 41.262c-3.543 6.1328-11.406 8.2148-17.523 4.6719-6.1328-3.543-8.2148-11.406-4.6719-17.539l23.84-41.262zm-60.043 103.99c3.543-6.1328 11.391-8.2148 17.523-4.6719 6.1328 3.543 8.2148 11.391 4.6719 17.523l-10.113 17.504c-3.543 6.1328-11.391 8.2148-17.523 4.6719-6.1328-3.543-8.2148-11.391-4.6719-17.523zm-77.145-103.94c3.5117-6.1328 11.34-8.25 17.473-4.7227 6.1328 3.5273 8.25 11.355 4.7227 17.488l-23.824 41.262c-3.5117 6.1328-11.355 8.25-17.473 4.7227-6.1328-3.5273-8.25-11.355-4.7227-17.488zm-60.043 103.94c3.543-6.1328 11.391-8.2148 17.523-4.6719 6.1328 3.543 8.2148 11.391 4.6719 17.523l-10.113 17.504c-3.543 6.1328-11.391 8.2148-17.523 4.6719-6.1328-3.543-8.2148-11.391-4.6719-17.523zm-77.145-103.99c3.543-6.1328 11.391-8.2148 17.523-4.6719 6.1328 3.543 8.2148 11.391 4.6719 17.523l-23.824 41.262c-3.543 6.1328-11.391 8.2148-17.523 4.6719-6.1328-3.543-8.2148-11.406-4.6719-17.539l23.824-41.262zm-60.043 104.04c3.5117-6.1328 11.355-8.25 17.488-4.7227 6.1328 3.5117 8.25 11.34 4.7227 17.473l-10.098 17.504c-3.5273 6.1328-11.355 8.25-17.488 4.7227-6.1328-3.5117-8.25-11.34-4.7227-17.473l10.113-17.504zm471.58-304.69c3.5273-6.1328 11.355-8.25 17.488-4.7227 6.1328 3.5117 8.25 11.355 4.7227 17.473l-70.141 121.48c-3.5117 6.1328-11.355 8.25-17.488 4.7227-6.1328-3.5117-8.25-11.355-4.7227-17.473zm-137.17-0.050781c3.543-6.1328 11.391-8.2148 17.523-4.6719 6.1328 3.543 8.2148 11.391 4.6719 17.523l-70.141 121.48c-3.543 6.1328-11.391 8.2148-17.523 4.6719-6.1328-3.543-8.2148-11.391-4.6719-17.523zm-137.19 0.050781c3.5117-6.1328 11.34-8.25 17.473-4.7227 6.1328 3.5117 8.25 11.355 4.7227 17.473l-70.141 121.48c-3.5117 6.1328-11.34 8.25-17.473 4.7227-6.1328-3.5117-8.25-11.355-4.7227-17.473zm-137.19 0c3.5117-6.1328 11.355-8.25 17.488-4.7227 6.1328 3.5117 8.25 11.355 4.7227 17.473l-70.141 121.48c-3.5273 6.1328-11.355 8.25-17.488 4.7227-6.1328-3.5117-8.25-11.355-4.7227-17.473zm411.55-200.71c3.5273-6.1328 11.355-8.25 17.488-4.7227 6.1328 3.5273 8.25 11.355 4.7227 17.488l-70.141 121.48c-3.5117 6.1328-11.355 8.25-17.488 4.7227-6.1328-3.5273-8.25-11.355-4.7227-17.488zm-137.17-0.050781c3.543-6.1328 11.391-8.2148 17.523-4.6719 6.1328 3.543 8.2148 11.406 4.6719 17.539l-70.141 121.48c-3.543 6.1328-11.391 8.2148-17.523 4.6719-6.1328-3.543-8.2148-11.406-4.6719-17.539zm-137.19 0.050781c3.5117-6.1328 11.34-8.25 17.473-4.7227 6.1328 3.5273 8.25 11.355 4.7227 17.488l-70.141 121.48c-3.5117 6.1328-11.34 8.25-17.473 4.7227-6.1328-3.5273-8.25-11.355-4.7227-17.488z"/>
      </g>
    </g>
  </g>
</svg>