<?xml version="1.0" encoding="UTF-8"?>
<svg width="700pt" height="700pt" version="1.1" viewBox="0 0 700 700" xmlns="http://www.w3.org/2000/svg" xmlns:xlink="http://www.w3.org/1999/xlink">
 
 <g>
  <path d="m266 166.49c-0.39062 2.1289-41.719 215.04-46.703 233.69l-3.0781 11.199 10.754-4.8164h-0.003906c9.6602-4.3398 19.016-9.3359 28-14.949l35 165.93 6.3281-2.8555c1.6797-0.78516 16.801-8.457 35.281-45.414 16.801-34.047-22.062-118.33-32.426-139.55v-0.007812c6.5742-4.0508 12.898-8.5 18.926-13.328v2.7422l38.809 45.809v0.003906c-8.2031 1.6016-16.008 4.8203-22.957 9.4609l6.0469 9.4062c35.113-22.398 78.902 8.1758 79.352 8.457l6.5508-9.1289v0.003907c-16.238-11.129-35.18-17.668-54.824-18.93l-41.441-48.887 0.003907-8.1211c7.8945-7.0234 15.375-14.504 22.398-22.398l-0.83984 10.527 31.473 31.137c-1.9336 0.94531-3.8047 2.0117-5.6016 3.1914l6.0469 9.4062c26.434-16.801 59.586 6.2734 59.922 6.4961l6.5508-9.1289c-1.3438-0.95313-27.215-19.152-54.656-13.945l-31.922-31.527 1.7344-21.281 0.003906 0.003907c14-18.539 25.961-38.535 35.672-59.641 36.793-78.062 0.39062-108.25-21.336-126.28v0.003907c-3.5352-2.7656-6.8828-5.7578-10.023-8.9609-3.2188-2.9727-4.9609-7.2148-4.7578-11.594 1.0078-4.5273 3.6602-8.5195 7.4453-11.199l128.8-16.801-0.28125-11.199c-3.4141-0.16797-71.848-10.527-119.73-17.809-1.2188-5.8906-4.3008-11.23-8.793-15.23-8.1211-7.168-20.441-9.7422-36.512-7.5039-25.648 3.5273-85.68 11.816-106.4-7.0547l-11.871-10.473 2.3516 15.457c2.2383 14.785 13.383 43.68 64.398 54.938l-10.359 72.125c-3.1953 5.6758-5.6602 11.734-7.3359 18.031zm11.199 2.3516c0-0.28125 7.3906-29.512 25.535-29.512h2.0195c12.16 0.82422 23.828 5.1406 33.598 12.434l0.61719 0.44922v-0.003907c13.359 10.793 20.113 27.781 17.809 44.801-2.9688 6.8867-29.176 63.336-103.04 92.902 11.086-57.734 22.453-116.31 23.461-121.02zm-26.32 134.01c40.488-14.023 75.68-40.164 100.8-74.871-10.641 49.336-39.648 123.2-118.61 163.63 3.6406-17.922 10.531-52.305 17.809-88.762zm71.121 201.66c-5.8906 13.078-13.957 25.066-23.855 35.449l-32.816-154.79c7.3164-5.168 14.312-10.777 20.945-16.801l0.89453 1.7344c14.281 28.059 48.328 106.74 34.832 134.4zm49.281-423.59-10.082-6.9961 16.352-16.801 81.48 12.375zm-136.59-47.988c25.09 10.078 64.902 6.7188 102.03 1.5664 12.434-1.6797 21.895 0 27.441 4.7031 2.9531 2.5391 4.9297 6.0234 5.6016 9.8555l-19.77 20.105c-78.398 4.3672-105.89-18.199-115.3-36.23zm96.711 48.047c6.1602 0 12.711 0 19.543-0.61719l9.6328 6.832h0.003907c-3.8984 3.9375-6.4805 8.9844-7.3945 14.449-0.77734 7.6719 1.9883 15.277 7.5039 20.664 3.4961 3.5977 7.2383 6.9453 11.199 10.023 21.727 18.031 51.406 42.727 18.367 112.89-31.973 67.762-76.047 101.64-93.293 113.18 52.922-54.602 67.199-125.21 70.617-159.27v0.003907c2.8398-21.141-5.6758-42.211-22.402-55.441-11.34-8.6953-24.953-13.926-39.199-15.062-6.6875-0.875-13.465 0.73828-19.039 4.5352l7.7266-54.77c12.18 1.7891 24.48 2.6523 36.793 2.5781z"/>

 </g>
</svg>
