<?xml version="1.0" encoding="UTF-8"?>
<svg version="1.1" viewBox="0 0 700 700" xmlns="http://www.w3.org/2000/svg" xmlns:xlink="http://www.w3.org/1999/xlink">

 <g>
  <path d="m539.26 13.531c-3.8281 11.07-5.8086 22.766-5.8086 34.746 0 58.656 47.551 106.21 106.21 106.21 4 0 7.9688-0.22266 11.898-0.66016 7.0508-0.78516 12.512 6.0469 10.195 12.754-17.355 50.145-64.727 84.457-118.65 84.457-69.32 0-125.52-56.195-125.52-125.52 0-64.09 48.277-117.7 111.48-124.74 7.0508-0.78516 12.512 6.0469 10.191 12.754zm-22.488 9.0625c-46.203 11.766-79.871 53.691-79.871 102.92 0 58.656 47.547 106.21 106.2 106.21 40.602 0 76.816-22.988 94.645-57.945-68.441-1.0195-123.61-56.816-123.61-125.5 0-8.7109 0.89062-17.305 2.6328-25.684zm-282.63 73.957c31.996 0 57.934 25.938 57.934 57.934 0 31.992-25.938 57.93-57.934 57.93h-115.86c-47.992 0-86.898-38.906-86.898-86.898 0-47.988 38.906-86.895 86.898-86.895 40.945 0 75.617 28.434 84.621 67.062 9.1641-5.8711 19.941-9.1328 31.238-9.1328zm-115.86-38.621c-37.328 0-67.586 30.262-67.586 67.586 0 37.328 30.258 67.586 67.586 67.586h115.86c21.332 0 38.621-17.289 38.621-38.617 0-21.332-17.289-38.621-38.621-38.621-11.594 0-22.328 5.125-29.633 13.852-4.1211 4.9219-11.812 4.5273-15.406-0.79688-0.48047-0.71094-1.0625-1.6953-1.6484-2.918-0.69922-1.457-1.2461-2.9531-1.5742-4.5547-0.16016-0.84766-0.21094-1.1914-0.26562-1.8008-2.9844-34.777-32.191-61.715-67.332-61.715zm328.27 347.59c-5.332 0-9.6523-4.3203-9.6523-9.6523s4.3203-9.6562 9.6523-9.6562h212.41c5.332 0 9.6562 4.3242 9.6562 9.6562s-4.3242 9.6523-9.6562 9.6523zm-405.52 0c-5.332 0-9.6562-4.3203-9.6562-9.6523s4.3242-9.6562 9.6562-9.6562h328.27c5.3359 0 9.6562 4.3242 9.6562 9.6562s-4.3203 9.6523-9.6562 9.6523zm212.41 77.242c-5.332 0-9.6562-4.3203-9.6562-9.6562 0-5.332 4.3242-9.6523 9.6562-9.6523h366.89c5.332 0 9.6562 4.3203 9.6562 9.6523 0 5.3359-4.3242 9.6562-9.6562 9.6562zm-173.79 0c-5.332 0-9.6562-4.3203-9.6562-9.6562 0-5.332 4.3242-9.6523 9.6562-9.6523h96.551c5.332 0 9.6562 4.3203 9.6562 9.6523 0 5.3359-4.3242 9.6562-9.6562 9.6562zm366.89 77.242c-5.332 0-9.6523-4.3242-9.6523-9.6562s4.3203-9.6523 9.6523-9.6523h135.17c5.332 0 9.6562 4.3203 9.6562 9.6523s-4.3242 9.6562-9.6562 9.6562zm-328.27 0c-5.332 0-9.6562-4.3242-9.6562-9.6562s4.3242-9.6523 9.6562-9.6523h251.03c5.3359 0 9.6562 4.3203 9.6562 9.6523s-4.3203 9.6562-9.6562 9.6562z" fill-rule="evenodd"/>

 </g>
</svg>
