<?xml version="1.0" encoding="utf-8"?>
<svg viewBox="-138.627 256.779 554.575 521.74" xmlns="http://www.w3.org/2000/svg">
  <defs>
    <symbol id="w" overflow="visible">
      <path d="m0.03125 0h-0.015625-0.015625v-0.015625-0.015625h0.015625 0.015625-0.015625v0.015625 0.015625h0.015625v-0.015625z"/>
    </symbol>
    <symbol id="e" overflow="visible">
      <path d="m0.015625-0.015625v0.015625h-0.015625v-0.03125h0.015625v0.015625-0.015625z"/>
    </symbol>
    <symbol id="b" overflow="visible">
      <path d="m0.03125-0.015625h-0.015625v0.015625c0.0078125 0 0.015625-0.0039062 0.015625-0.015625v0.015625h-0.015625-0.015625v-0.015625l0.015625-0.015625v0.015625h0.015625z"/>
    </symbol>
    <symbol id="a" overflow="visible">
      <path d="m0.015625-0.015625v0.015625-0.015625zm0.015625 0v0.015625h-0.015625-0.015625v-0.015625h0.015625-0.015625v-0.015625h0.015625v0.015625h0.015625z"/>
    </symbol>
    <symbol id="d" overflow="visible">
      <path d="m0.015625-0.03125v0.015625 0.015625h-0.015625v-0.015625-0.015625z"/>
    </symbol>
    <symbol id="l" overflow="visible">
      <path d="m0.015625-0.015625v-0.015625h0.015625v0.03125h-0.015625-0.015625v-0.015625l0.015625-0.015625v0.015625zm0 0.015625v-0.015625 0.015625z"/>
    </symbol>
    <symbol id="k" overflow="visible">
      <path d="m0.015625 0v-0.015625 0.015625zm0-0.015625v-0.015625c0.0078125 0 0.015625 0.0078125 0.015625 0.015625v0.015625h-0.015625-0.015625v-0.03125h0.015625z"/>
    </symbol>
    <symbol id="j" overflow="visible">
      <path d="m0-0.03125h0.015625v0.015625-0.015625h0.015625l-0.015625 0.03125v0.015625h-0.015625v-0.015625h0.015625z"/>
    </symbol>
    <symbol id="i" overflow="visible">
      <path d="m0.015625-0.03125v0.015625 0.015625h0.015625v-0.015625c0-0.0078125-0.0078125-0.015625-0.015625-0.015625zm0 0h0.015625v0.015625 0.015625h-0.015625-0.015625v-0.015625-0.015625h0.015625z"/>
    </symbol>
    <symbol id="v" overflow="visible">
      <path d="m0-0.03125h0.015625v0.03125h-0.015625z"/>
    </symbol>
    <symbol id="f" overflow="visible">
      <path d="m0.03125-0.015625v0.015625h-0.015625v-0.015625 0.015625h-0.015625v-0.03125h0.015625v0.015625-0.015625c0.0078125 0 0.015625 0.0078125 0.015625 0.015625z"/>
    </symbol>
    <symbol id="h" overflow="visible">
      <path d="m0-0.03125h0.015625 0.015625v0.015625h-0.015625v0.015625h-0.015625zm0.015625 0v0.015625-0.015625z"/>
    </symbol>
    <symbol id="g" overflow="visible">
      <path d="m0.03125-0.03125v0.015625h-0.015625c0.0078125 0 0.015625 0.0078125 0.015625 0.015625h-0.015625-0.015625 0.015625v-0.015625h-0.015625l0.015625-0.015625h0.015625z"/>
    </symbol>
    <symbol id="c" overflow="visible">
      <path d="m0.015625-0.015625v0.015625-0.015625zm0-0.015625v0.015625h0.015625c0 0.011719-0.0078125 0.015625-0.015625 0.015625h-0.015625v-0.015625l0.015625-0.015625z"/>
    </symbol>
    <symbol id="u" overflow="visible">
      <path d="m0-0.03125h0.015625v0.015625-0.015625h0.015625l-0.015625 0.03125z"/>
    </symbol>
    <symbol id="t" overflow="visible">
      <path d="m0-0.03125h0.015625v0.015625-0.015625h0.015625l-0.015625 0.015625 0.015625 0.015625h-0.015625v-0.015625 0.015625h-0.015625z"/>
    </symbol>
    <symbol id="s" overflow="visible">
      <path d="m0.015625-0.03125v0.03125h-0.015625v-0.03125h0.015625z"/>
    </symbol>
    <symbol id="r" overflow="visible">
      <path d="m0.03125-0.015625v-0.015625c0.0078125 0 0.015625 0.0078125 0.015625 0.015625v0.015625h-0.015625v-0.015625 0.015625h-0.015625v-0.015625 0.015625h-0.015625v-0.03125h0.015625v0.015625-0.015625 0.015625h0.015625z"/>
    </symbol>
    <symbol id="q" overflow="visible">
      <path d="m0.03125-0.015625v0.015625h-0.015625v-0.015625 0.015625h-0.015625v-0.03125h0.015625v0.015625-0.015625c0.0078125 0 0.015625 0.0078125 0.015625 0.015625z"/>
    </symbol>
    <symbol id="p" overflow="visible">
      <path d="m0-0.03125h0.015625l0.015625 0.015625v-0.015625 0.03125l-0.015625-0.015625v0.015625h-0.015625z"/>
    </symbol>
    <symbol id="o" overflow="visible">
      <path d="m0-0.015625v-0.015625h0.015625v0.015625 0.015625-0.015625-0.015625h0.015625v0.03125h-0.015625-0.015625v-0.015625z"/>
    </symbol>
    <symbol id="n" overflow="visible">
      <path d="m0-0.03125h0.015625v0.03125h-0.015625v0.015625zm0 0h0.015625z"/>
    </symbol>
    <symbol id="m" overflow="visible">
      <path d="m0.03125-0.03125v0.015625h-0.015625v0.015625h0.015625-0.015625-0.015625v-0.015625l0.015625-0.015625h0.015625z"/>
    </symbol>
  </defs>
  <g transform="matrix(0.883653, 0, 0, 0.883653, -170.6203, 278.474213)" style="">
    <path d="m70 336h560v18.668h-560z"/>
    <path d="m443.33 177.33c0-36.027-29.309-65.332-65.332-65.332-36.027 0-65.332 29.309-65.332 65.332v28h18.668v-28c0-25.742 20.926-46.668 46.668-46.668 25.742 0 46.668 20.926 46.668 46.668 0 25.742-20.926 46.668-46.668 46.668h-308v18.668h308c36.023 0 65.328-29.309 65.328-65.336z"/>
    <path d="m548.89 224c4.0703-14.895 6.4414-30.5 6.4414-46.668 0-97.777-79.559-177.33-177.33-177.33-97.777 0-177.33 79.559-177.33 177.33v28h18.668v-28c0-87.473 71.176-158.67 158.67-158.67 87.508 0 158.67 71.195 158.67 158.67 0 13.684-1.9414 27.738-5.7695 41.738l-6.4648 23.598h105.56v-18.668z"/>
    <path d="m200.67 373.33h18.668v168h-18.668z"/>
    <path d="m312.67 373.33h18.668v168h-18.668z"/>
    <path d="m316.46 72.762 9.4844 16.055c15.156-8.9023 32.48-13.812 50.176-14.129l-0.35547-18.668c-20.871 0.37109-41.406 6.1602-59.305 16.742z"/>
    <path d="m258.66 155.23 18.348 3.3594c3.1914-17.285 10.883-33.582 22.215-47.133l-14.316-12.004c-13.387 16.055-22.477 35.32-26.246 55.777z"/>
    <path d="m468.12 96.098c-14-15.512-31.809-27.199-51.52-33.824l-5.9375 17.695c16.668 5.6016 31.754 15.477 43.586 28.617z"/>
    <path d="m469.82 223.31c-7.8945 15.754-19.824 29.289-34.441 39.199l10.434 15.457c17.285-11.684 31.379-27.664 40.691-46.273z"/>
    <path d="m479.92 189.84 18.516 2.2578c0.59766-4.8516 0.89453-9.7617 0.89453-14.766 0-16.016-3.0781-31.602-9.1484-46.293l-17.246 7.1484c5.1328 12.414 7.7266 25.594 7.7266 39.18 0.003907 4.2031-0.25781 8.3867-0.74219 12.473z"/>
    <path d="m350 280h56v18.668h-56z"/>
    <path d="m256.67 280h56v18.668h-56z"/>
    <path d="m163.33 280h56v18.668h-56z"/>
    <path d="m480.67 280h56v18.668h-56z"/>
    <path d="m574 280h56v18.668h-56z"/>
    <path d="m70 280h56v18.668h-56z"/>
    <path d="m256.67 373.33h18.668v56h-18.668z"/>
    <path d="m256.67 466.67h18.668v56h-18.668z"/>
  </g>
</svg>