<?xml version="1.0" encoding="UTF-8"?>
<svg version="1.1" viewBox="0 0 700 700" xmlns="http://www.w3.org/2000/svg" xmlns:xlink="http://www.w3.org/1999/xlink">

 <g>
  <path d="m620.46 452.87c-35.934-24.613-68.512-51.656-97.828-79.031 53.395-69.965 78.727-156.2 71.348-244.34-2.1523-25.66-7.0664-51.043-14.605-75.449-1.5391-5-2.4062-7.7227-4.1602-12.617l-8.2422-1.7852-134.83 68.387c-8.293-26.824-25.301-70.301-45.359-95.715l-9.3203-11.809-8.6406 12.32c-26.176 37.336-56.258 80.602-70.211 100.69-30.234-31.344-50.031-44.508-54.305-47.18-17.051-11.688-37.414-18.047-58.211-18.047-56.75 0-102.92 46.172-102.92 102.92 0 9.3789 1.3711 18.43 3.7344 27.07l-0.14453-0.011719-6.793 94.293 67.043-26.191c4.2461 1.7461 8.6562 3.1484 13.16 4.3164-8.5859 21.461-12.988 44.133-12.988 67.625 0 100.74 81.961 182.71 182.7 182.71 35.387 0 69.008-10.012 97.691-28.18 0.023437-0.011719 0.042969-0.015625 0.074219-0.027344l-6.5898 84.316 10.832 1.1523c1.25 0.13281 8.5898 0.85547 19.84 0.85547 40.941 0 133.59-9.6055 172.54-92.254l4.0664-8.625zm-114.1-94.57c-8.8203-8.625-17.293-17.219-25.453-25.77 31.684-63.812 43.301-134.77 33.477-205.79-1.4961-10.82-3.6289-21.59-6.1055-32.219l51.812-26.285c5.8125 20.535 9.7734 41.703 11.562 63.125 6.8477 81.738-16.305 161.75-65.293 226.94zm-128.44-319.42c14.852 24.289 27.875 58.801 33.965 79.418l-75.387 38.242c-7.8242-9.6484-15.266-18.367-22.289-26.23 10.945-15.742 38.02-54.707 63.711-91.43zm-273.07 199.92 1.6172-22.461c4.7266 5.7734 10.109 10.969 15.965 15.598zm64.73 79.523c0-22.457 4.5703-44.062 13.484-64.344 1.0117 0.027344 2 0.15234 3.0195 0.15234 11.676 0 23.012-2.0391 33.73-5.75-36.133 91.062 1.3477 192.29 84.504 226.66 2.0312 0.83984 4.0898 1.6133 6.1445 2.3633-79.262-9.6211-140.88-77.27-140.88-159.09zm275.55 218.23 6.4023-81.906c12.926-11.582 24.383-25.066 33.84-40.348 2.043-3.3203 3.9922-6.6992 5.8281-10.152l-19.762-10.535c-1.6172 3.0312-3.3281 6.0039-5.125 8.9141-12.777 20.66-29.617 37.695-49.145 50.383-34.41 14.492-71.367 15.043-104.3 1.4297-72.535-29.98-104.54-119.73-71.34-200.04 4.0156-9.7227 8.9219-19.047 14.531-27.77 0.92578-0.85547 1.8984-1.6406 2.793-2.5352l-15.836-15.836c-15.211 15.203-35.43 23.582-56.934 23.582-44.402 0-80.523-36.121-80.523-80.516 0-44.402 36.121-80.523 80.523-80.523 18.559 0 36.668 6.4609 50.992 18.199l0.19141-0.23438c12.363 8.875 46.199 35.918 91.918 94.684l0.37891-0.29688 0.86328 1.6953 157.24-79.766c1.7734 8.2266 3.3555 16.508 4.5078 24.836 8.8203 63.727-0.77734 127.4-27.676 185.18-27.613-30.199-51.023-58.961-70.027-83.262l-17.641 13.805c47.652 60.918 122.1 149.26 222.82 220.17-38.008 67.043-124.16 71.535-154.53 70.848z"/>
  <path d="m167.03 116.16c-17.219 0-31.227 13.676-31.227 30.488s14.004 30.488 31.227 30.488c17.219 0 31.23-13.676 31.23-30.488s-14.012-30.488-31.23-30.488zm0 38.57c-4.8672 0-8.8242-3.6289-8.8242-8.0859s3.9609-8.0859 8.8242-8.0859c4.8672 0 8.832 3.6289 8.832 8.0859-0.003906 4.457-3.9688 8.0859-8.832 8.0859z"/>

 </g>
</svg>
