<?xml version="1.0" encoding="UTF-8"?>
<svg version="1.1" viewBox="0 0 700 700" xmlns="http://www.w3.org/2000/svg" xmlns:xlink="http://www.w3.org/1999/xlink">
 <g>
  <path d="m272.72 296.8c0-12.879-10.078-22.961-22.961-22.961-12.879 0-22.957 10.082-22.957 22.961 0 12.879 10.078 22.961 22.961 22.961 12.316 0 22.957-10.082 22.957-22.961zm-31.918 0c0-5.0391 3.9219-8.9609 8.9609-8.9609 5.0391 0 8.9609 3.9219 8.9609 8.9609 0 5.0391-3.9219 8.9609-8.9609 8.9609-5.043 0-8.9609-3.9219-8.9609-8.9609z"/>
  <path d="m511.84 324.8c1.6797-6.7188 3.3594-14 4.4805-21.281v-1.6797c0.55859-2.8008 0.55859-5.6016 1.1211-8.9609v-2.8008c0-3.3594 0.55859-6.7188 0.55859-10.641 0-3.3594 0-6.7188-0.55859-10.078-5.043-87.359-78.402-157.36-167.44-157.36-92.398 0-168 75.602-168 168s75.602 168 168 168c76.719 0 141.68-51.52 161.84-122.08v-1.1211zm-68.879-61.602h-112c-11.199 0-19.602-8.9609-19.602-19.602s8.9609-19.602 19.602-19.602h112c11.199 0 19.602 8.9609 19.602 19.602-0.003906 10.641-8.9609 19.602-19.602 19.602zm-39.199 14h57.68c-2.8008 14-7.8398 27.441-14 39.762h-43.68c-11.199 0-19.602-8.9609-19.602-19.602s8.9609-20.16 19.602-20.16zm-53.762-151.2c32.48 0 62.719 10.078 87.359 27.441 12.32 18.48 21.281 39.762 25.199 62.719-5.6016-3.9219-12.32-6.7188-20.16-6.7188h-112c-18.48 0-33.602 15.121-33.602 33.602s15.121 33.602 33.602 33.602h45.922c-3.9219 5.6016-6.7188 12.32-6.7188 19.602 0 18.48 15.121 33.602 33.602 33.602h35.281c-28.562 44.23-78.406 73.352-134.96 73.352-20.16 0-39.762-3.9219-57.68-10.641-30.801-28-50.398-68.879-50.398-113.68 0.55859-84 69.438-152.88 154.56-152.88z"/>
  <path d="m241.92 249.76c0.55859 0 1.6797 0.55859 2.2383 0.55859 2.8008 0 5.6016-1.6797 6.7188-4.4805 14.562-42.559 54.32-70.559 99.121-70.559 3.9219 0 6.7188-3.3594 6.7188-6.7188s-3.3594-6.7188-6.7188-6.7188c-50.398 0-95.762 31.922-112 80.078-1.6797 2.7969 0.55859 6.7188 3.9219 7.8398z"/>
 </g>
</svg>
