<?xml version="1.0" encoding="UTF-8"?>
<svg version="1.1" viewBox="0 0 700 700" xmlns="http://www.w3.org/2000/svg" xmlns:xlink="http://www.w3.org/1999/xlink">

 <g>
  <path d="m311.92 315.84c1.1211-15.121 13.441-26.32 28.559-26.32 15.121 0 27.441 11.762 28.559 26.32 0.55859 4.4805 3.9219 7.8398 8.3984 7.8398h62.164c14 0 25.762-11.762 25.762-25.762v-15.121h16.238v-60.477h-16.238l-0.003906-15.121c0-14-11.762-25.762-25.762-25.762l-198.24 0.003906c-14.559 0-25.758 11.758-25.758 25.758v15.121h-18.48c-4.4805 0-8.3984 3.9219-8.3984 8.3984v1.1211h-11.762c-2.8008 0-5.0391 3.9219-5.0391 8.3984v25.762c0 4.4805 2.2383 8.3984 5.0391 8.3984h11.762-0.003906c0 4.4805 3.9219 8.3984 8.3984 8.3984l18.484 0.003906v15.121c0 14 11.762 25.762 25.762 25.762h62.16c4.4766-0.003906 7.8359-3.3633 8.3984-7.8438zm-25.203-15.121h-22.961c-14 0-25.762-11.762-25.762-25.762v-44.801c0-14 11.762-25.762 25.762-25.762h152.88c14 0 25.762 11.762 25.762 25.762v44.801c0 14-11.762 25.762-25.762 25.762h-22.961c-3.3594 0-6.1602-1.6797-7.2812-4.4805-8.3984-17.922-26.879-29.68-46.48-29.68-19.602 0-38.078 11.762-46.48 29.68-0.55469 2.8008-3.9141 4.4805-6.7148 4.4805z"/>
  <path d="m519.68 122.64h-25.762c-4.4805 0-8.3984 3.9219-8.3984 8.3984v210c0 30.238-24.641 54.32-54.32 54.32h-5.0391c-25.762 0-47.602-17.922-53.199-42h-42.559c6.1602 47.039 46.48 84 95.762 84h5.0391c53.199 0 96.32-43.121 96.32-96.32l-0.003907-210c0.55859-4.4805-3.3594-8.3984-7.8398-8.3984z"/>
  <path d="m394.8 341.04c0-4.4805-3.9219-8.3984-8.3984-8.3984h-75.043c-4.4805 0-8.3984 3.9219-8.3984 8.3984 0 4.4805 3.9219 8.3984 8.3984 8.3984h75.602c4.4805-0.55859 7.8398-3.918 7.8398-8.3984z"/>
  
 </g>
</svg>
