<?xml version="1.0" encoding="utf-8"?>
<svg viewBox="202.682 131.993 458.717 416.712" xmlns="http://www.w3.org/2000/svg">
  <g transform="matrix(0.77106, 0, 0, 0.77106, 162.172958, 124.454742)" style="">
    <path d="m606.75 159.96c-17.82-30.004-42.859-58.547-59.762-73.52-36.902-32.695-67.688-31.898-82.754-28.512-6.332 1.4219-12.145 3.7695-17.262 6.8984-26.293-19.516-58.281-29.07-96.977-29.07s-70.684 9.5586-96.977 29.07c-5.1172-3.1289-10.93-5.4766-17.262-6.8984-15.062-3.3867-45.852-4.1836-82.754 28.512-16.906 14.973-41.941 43.516-59.766 73.52-24.129 40.621-29.504 73.484-15.973 97.676 16.52 29.535 41.578 37.09 61.805 38.957-4.9727 19.309-8.043 39.969-8.043 65.707 0 34.117 7.7656 63.469 23.082 87.242 13.465 20.898 32.852 37.637 57.617 49.742 45.762 22.367 100.83 24.953 138.27 24.953s92.508-2.5859 138.27-24.953c24.766-12.105 44.152-28.844 57.617-49.742 15.316-23.773 23.082-53.125 23.082-87.242 0-25.738-3.0703-46.395-8.043-65.707 20.23-1.8633 45.289-9.4219 61.805-38.957 13.535-24.191 8.1602-57.055-15.969-97.676zm-457.04 102.87c-17.902-0.46875-32.461-3.9375-42.523-21.926-6.8281-12.207-1.168-35.328 15.531-63.441 15.848-26.68 38.594-52.586 53.023-65.367 23.828-21.113 41.691-22.277 50.098-21.152-25.012 30.488-40.34 70.113-53.16 108.64-5.3086 15.953-10.426 29.574-15.375 42.746-2.6523 7.0469-5.1992 13.828-7.5938 20.5zm177.93 112.38c-8.8672-8.8633-13.508-18.168-13.508-22.773 0-4.1172 0.70703-4.4102 3.3281-5.5156 7.4727-3.1445 22.152-3.5078 32.543-3.5078s25.07 0.36328 32.543 3.5078c2.6211 1.1016 3.3281 1.3984 3.3281 5.5156 0 4.6094-4.6406 13.91-13.508 22.773-8.7188 8.7148-18.031 13.418-22.363 13.418-4.3359 0-13.641-4.7031-22.363-13.418zm145.58 93.273c-26.305 12.855-61.129 19.832-106.07 21.211v-70.211c13.457-5.1914 24.418-14.992 29.453-20.027 7.082-7.0781 23.555-25.828 23.555-47.02 0-17.336-8.6328-30.516-24.312-37.109-10.449-4.3984-23.73-6.1914-45.836-6.1914s-35.387 1.793-45.836 6.1914c-15.676 6.5938-24.312 19.773-24.312 37.109 0 21.191 16.473 39.941 23.555 47.02 5.0391 5.0352 16 14.836 29.453 20.027v70.211c-44.945-1.3789-79.77-8.3516-106.07-21.211-41.367-20.223-61.477-54.957-61.477-106.19 0-43.828 10.102-70.711 24.078-107.91 4.8281-12.848 10.297-27.406 15.812-43.98 30.293-91.039 62.344-140.38 144.8-140.38s114.5 49.336 144.8 140.38c5.5156 16.574 10.984 31.133 15.812 43.98 13.977 37.203 24.078 64.082 24.078 107.91 0 51.23-20.113 85.965-61.477 106.19zm119.6-227.59c-10.066 17.992-24.621 21.457-42.523 21.926-2.3984-6.6758-4.9414-13.453-7.5898-20.5-4.9492-13.172-10.066-26.793-15.375-42.746-12.82-38.523-28.148-78.148-53.16-108.64 8.4062-1.125 26.27 0.039063 50.098 21.152 14.43 12.781 37.176 38.688 53.023 65.367 16.691 28.113 22.352 51.238 15.527 63.441z"/>
    <path d="m292.96 217.94c-12.398 0-22.492 10.195-22.492 22.781s10.09 22.789 22.492 22.789c12.418 0 22.508-10.203 22.508-22.789 0-12.59-10.09-22.781-22.508-22.781z"/>
    <path d="m406.87 217.76c-12.52 0-22.676 10.281-22.676 22.961s10.156 22.961 22.676 22.961c12.508 0 22.66-10.281 22.66-22.961 0.003906-12.68-10.152-22.961-22.66-22.961z"/>
  </g>
</svg>