<?xml version="1.0" encoding="UTF-8"?>
<svg version="1.1" viewBox="0 0 700 700" xmlns="http://www.w3.org/2000/svg" xmlns:xlink="http://www.w3.org/1999/xlink">

 <g>
  <path d="m522.43 240.32c6.1797 2.5039 11.227 5.8945 17.074 9.793 10.777 7.2305 19.812 12.031 29.117 14.949 9.2266 2.918 18.953 4.0781 31.242 4.0781 0.62109 0 1.2188-0.27734 1.6523-0.69922 0.42188-0.41406 0.66797-1 0.66797-1.6484v-26.133c0-0.62891-0.24609-1.207-0.69531-1.6289-0.40234-0.41406-1-0.68359-1.625-0.68359l-4.9609-0.035156c-9.0508-0.22266-15.816-1.7891-21.777-4.2891-5.9062-2.4844-10.797-5.7188-16.363-9.4648-6.3906-4.3047-13.598-9.1055-22.699-12.77-9.0664-3.6367-20.258-6.2422-34.918-6.2422-14.66 0-25.844 2.6055-34.91 6.2422-9.0664 3.6445-16.293 8.4609-22.707 12.77-5.8555 3.9141-10.883 7.3047-17.082 9.7539-6.2852 2.5547-13.473 4.0508-23.285 4.0508-9.8047 0-16.984-1.5-23.297-4.0508-6.1875-2.4492-11.219-5.8398-17.066-9.7539-6.4102-4.3047-13.613-9.1055-22.727-12.77-9.0586-3.6367-20.266-6.2422-34.926-6.2422-14.668 0-25.867 2.6055-34.934 6.2422-9.1133 3.6445-16.309 8.4609-22.742 12.77-5.8477 3.9141-10.938 7.3047-17.133 9.7539-6.3203 2.5547-13.543 4.0508-23.348 4.0508-9.8047 0-17.039-1.5-23.418-4.0508-6.2852-2.4492-11.387-5.8398-17.203-9.7539-11.672-7.8125-20.969-12.578-30.625-15.359-9.6289-2.7656-19.906-3.625-33.602-3.625-0.64062 0-1.2305 0.24609-1.6328 0.66406-0.42969 0.41406-0.70312 0.99219-0.70312 1.6484v26.102c0 0.53516 0.21094 1.0742 0.52734 1.4453l0.17578 0.16797c0.40625 0.42969 1.0195 0.71875 1.6328 0.71875 9.918 0 16.977 0.375 24.105 2.3281 7.0742 1.9414 13.789 5.3789 22.848 11.457 6.4062 4.2695 13.738 9.1055 22.961 12.781 9.1992 3.625 20.523 6.2461 35.207 6.2461 14.641 0 25.832-2.6211 34.891-6.2461 9.1289-3.6758 16.309-8.5117 22.719-12.781 5.8125-3.8984 10.867-7.2852 17.074-9.793 6.2852-2.5 13.465-3.9961 23.27-3.9961 19.539 0 28.203 5.6641 39.957 13.531l0.78906 0.52734c12.57 8.4297 28.301 18.758 57.223 18.758 28.961 0 44.672-10.348 57.258-18.781l0.35938-0.26172c11.98-8 20.629-13.77 40.352-13.77 9.793 0.007813 17 1.5 23.277 4m11.359 18.281c-5.3711-3.5898-9.9688-6.6719-15.168-8.7617-5.1094-2.0469-11.078-3.25-19.48-3.25-16.457 0-24.023 4.918-34.234 11.758l-0.78125 0.49609c-13.754 9.2266-30.961 20.527-62.957 20.527-32.293 0-49.496-11.504-63.324-20.77l-0.14062-0.082031c-10.34-6.9297-17.906-11.93-34.504-11.93-8.4102 0-14.371 1.207-19.461 3.25-5.1953 2.0898-9.8203 5.1719-15.16 8.7617-6.8281 4.5625-14.52 9.7227-24.613 13.762-10.172 4.0977-22.629 7.0078-38.719 7.0078-16.082 0-28.668-2.9102-39-7.0078-10.254-4.0391-18.074-9.1992-24.902-13.762-8.1094-5.4453-13.957-8.4727-19.855-10.09-5.8633-1.6367-12.254-1.9414-21.367-1.9414-3.4688 0-6.6289-1.4336-8.918-3.6953l-0.39453-0.44141c-2.0469-2.2305-3.3086-5.2109-3.3086-8.4453v-26.102c0-3.4492 1.4062-6.5781 3.7031-8.8594 2.3086-2.3125 5.4688-3.7148 8.918-3.7148 14.52 0 25.621 0.96094 36.453 4.0586 10.77 3.1172 20.918 8.2891 33.48 16.715 5.3633 3.5938 10.031 6.668 15.301 8.7656 5.1445 2.0391 11.199 3.25 19.617 3.25 8.3828 0 14.414-1.2109 19.512-3.25 5.2656-2.1133 9.8828-5.1719 15.23-8.7656 6.8047-4.5898 14.492-9.7227 24.648-13.789 10.199-4.082 22.664-7.0039 38.77-7.0039 16.098 0 28.57 2.9219 38.734 7.0039 10.121 4.0664 17.809 9.1992 24.641 13.789 5.3359 3.5742 9.9727 6.668 15.152 8.7656 5.1172 2.0391 11.086 3.25 19.484 3.25 8.3984 0 14.359-1.2109 19.469-3.25 5.1953-2.0938 9.8047-5.1719 15.16-8.7656 6.793-4.5898 14.473-9.7227 24.641-13.789 10.156-4.082 22.609-7.0039 38.719-7.0039 16.105 0 28.57 2.9219 38.727 7.0039 10.113 4.0664 17.773 9.1992 24.613 13.789 5.1719 3.4688 9.6719 6.4688 14.605 8.5117 4.8203 2.0234 10.367 3.3008 17.926 3.5078l4.8438-0.015625c3.4766 0 6.6172 1.4297 8.9258 3.6836 2.2812 2.2734 3.7031 5.4297 3.7031 8.8906v26.133c0 3.4375-1.4219 6.5938-3.7031 8.8633l-0.19531 0.1875c-2.2656 2.1992-5.3633 3.5234-8.7344 3.5234-13.34 0-24.023-1.2773-34.348-4.543-10.246-3.2344-20.043-8.4297-31.707-16.227zm5.6602 76.801c10.832 7.25 19.863 12.047 29.168 14.996 9.2266 2.9023 18.953 4.0742 31.242 4.0742 0.62109 0 1.2188-0.30469 1.6523-0.69922 0.42188-0.42969 0.66797-1.0195 0.66797-1.6484v-26.137c0-0.62109-0.24609-1.2227-0.69531-1.6445-0.40234-0.41406-1-0.67188-1.625-0.67188l-4.9609-0.03125c-9.0508-0.21484-15.816-1.7969-21.777-4.2969-5.9062-2.4688-10.797-5.7188-16.363-9.457-12.633-8.4609-28.379-18.992-57.617-18.992-14.66 0-25.844 2.5781-34.91 6.2109-9.1367 3.6719-16.309 8.5117-22.719 12.781-5.8477 3.9062-10.875 7.2773-17.074 9.793-6.2852 2.5-13.473 3.9961-23.285 3.9961-9.8047 0-16.984-1.4961-23.297-3.9961-6.1875-2.5156-11.219-5.8828-17.066-9.793-6.4102-4.2695-13.613-9.1094-22.727-12.781-9.0586-3.6328-20.266-6.2109-34.926-6.2109-14.668 0-25.867 2.5781-34.934 6.2109-9.1445 3.6719-16.363 8.5117-22.742 12.781-5.8477 3.9062-10.938 7.2773-17.133 9.793-6.3203 2.5-13.543 3.9961-23.348 3.9961-9.8047 0-17.039-1.4961-23.418-3.9961-6.2852-2.5156-11.359-5.8828-17.203-9.793-11.672-7.8164-20.969-12.594-30.625-15.371-9.6289-2.7461-19.906-3.625-33.602-3.625-0.64062 0-1.2305 0.25-1.6328 0.66406-0.42969 0.41797-0.70312 0.99609-0.70312 1.6641v26.07c0 0.58594 0.21094 1.1133 0.5625 1.5039l0.14062 0.14844c0.40625 0.44141 1.0195 0.6875 1.6328 0.6875 9.918 0 16.992 0.37891 24.105 2.332 7.0742 1.9688 13.773 5.3906 22.848 11.484 6.4062 4.2891 13.738 9.0898 22.961 12.77 9.1992 3.625 20.504 6.2578 35.207 6.2578 14.641 0 25.832-2.6367 34.891-6.2578 8.9531-3.5938 16.039-8.3086 22.367-12.539l0.35156-0.25781c11.965-7.9883 20.609-13.785 40.344-13.785 19.742 0 28.387 5.7969 40.332 13.785 12.648 8.4844 28.395 19.055 57.633 19.055 28.992 0 44.695-10.398 57.273-18.797l0.34375-0.25781c12-7.9883 20.629-13.785 40.352-13.785 19.566 0 28.23 5.6953 40 13.582zm-5.6602 8.5508-0.38672-0.26953c-10.219-6.8477-17.777-11.789-34.258-11.789-16.652 0-24.184 5.0469-34.602 12.008l-0.37109 0.25391c-13.762 9.2188-30.957 20.543-62.996 20.543-32.32 0-49.523-11.531-63.324-20.762l-0.16016-0.10938c-10.34-6.918-17.887-11.934-34.488-11.934-16.66 0-24.211 5.0469-34.621 12.008l-0.37891 0.25391c-6.7305 4.5-14.297 9.5508-24.234 13.543-10.172 4.082-22.629 7.0039-38.719 7.0039-16.082 0-28.668-2.9219-39-7.0039-10.254-4.0664-18.074-9.1953-24.902-13.762-8.1094-5.4531-13.957-8.4922-19.855-10.129-5.8633-1.6016-12.254-1.9141-21.367-1.9141-3.4688 0-6.6289-1.4102-8.918-3.7188l-0.35156-0.36719c-2.0703-2.2539-3.3516-5.2539-3.3516-8.5156v-26.07c0-3.4453 1.4062-6.5859 3.7031-8.8789 2.3086-2.3008 5.4688-3.7109 8.918-3.7109 14.52 0 25.621 0.98047 36.453 4.0859 10.77 3.082 20.918 8.2773 33.48 16.676 5.3633 3.5898 10.031 6.707 15.301 8.7656 5.1445 2.0391 11.199 3.2656 19.617 3.2656 8.3828 0 14.414-1.2227 19.512-3.2656 5.25-2.0859 9.9102-5.1758 15.254-8.7656 6.8203-4.5625 14.5-9.7109 24.621-13.762 10.199-4.0859 22.664-7.0039 38.77-7.0039 16.098 0 28.57 2.9219 38.734 7.0039 10.121 4.0469 17.809 9.1992 24.641 13.762 5.3359 3.5898 9.9727 6.6797 15.152 8.7656 5.1172 2.0391 11.086 3.2656 19.484 3.2656 8.3984 0 14.359-1.2227 19.469-3.2656 5.1953-2.0859 9.8047-5.1758 15.16-8.7656 6.8281-4.5625 14.516-9.7109 24.641-13.762 10.156-4.0859 22.609-7.0039 38.719-7.0039 32.309 0 49.516 11.516 63.34 20.766 5.1719 3.4727 9.6719 6.4766 14.605 8.5586 4.8203 2 10.367 3.2695 17.926 3.4609h4.8438c3.457 0 6.6172 1.418 8.9023 3.6719 2.3086 2.2891 3.7305 5.4219 3.7305 8.8984v26.137c0 3.4219-1.4219 6.5977-3.7031 8.8711l-0.19531 0.18359c-2.2656 2.1797-5.3633 3.5234-8.7344 3.5234-13.34 0-24.023-1.2656-34.348-4.5195-10.25-3.2578-20.047-8.4531-31.711-16.227z"/>

 </g>
</svg>
