<?xml version="1.0" encoding="UTF-8"?>
<svg width="700pt" height="700pt" version="1.1" viewBox="0 0 700 700" xmlns="http://www.w3.org/2000/svg" xmlns:xlink="http://www.w3.org/1999/xlink">

 <g>
  <path d="m507.5 236.25v-61.859c23.777-2.9961 44.371-17.945 54.582-39.629 10.207-21.684 8.6133-47.086-4.2266-67.32-12.84-20.238-35.141-32.5-59.105-32.5s-46.266 12.262-59.105 32.5c-12.84 20.234-14.434 45.637-4.2266 67.32 10.211 21.684 30.805 36.633 54.582 39.629v61.859h-227.5v-35.609c23.777-2.9961 44.371-17.945 54.582-39.629 10.207-21.684 8.6133-47.086-4.2266-67.32-12.84-20.238-35.141-32.5-59.105-32.5s-46.266 12.262-59.105 32.5c-12.84 20.234-14.434 45.637-4.2266 67.32 10.211 21.684 30.805 36.633 54.582 39.629v35.609h-157.5v17.5h201.25v70c-0.007812 6.9609-2.7773 13.633-7.6953 18.555-4.9219 4.918-11.594 7.6875-18.555 7.6953-11.598 0.011719-22.719 4.6289-30.922 12.828-8.1992 8.2031-12.816 19.324-12.828 30.922v140h17.5v-140c0.007812-6.9609 2.7773-13.633 7.6953-18.555 4.9219-4.918 11.594-7.6875 18.555-7.6953 11.598-0.011719 22.719-4.6289 30.922-12.828 8.1992-8.2031 12.816-19.324 12.828-30.922v-70h157.5v113.75c-0.007812 6.9609-2.7773 13.633-7.6953 18.555-4.9219 4.918-11.594 7.6875-18.555 7.6953-11.598 0.011719-22.719 4.6289-30.922 12.828-8.1992 8.2031-12.816 19.324-12.828 30.922v96.25h17.5v-96.25c0.007812-6.9609 2.7773-13.633 7.6953-18.555 4.9219-4.918 11.594-7.6875 18.555-7.6953 11.598-0.011719 22.719-4.6289 30.922-12.828 8.1992-8.2031 12.816-19.324 12.828-30.922v-113.75h131.25v-17.5zm-61.25-131.25c-0.015625-13.422 5.1094-26.336 14.324-36.094 9.2109-9.7617 21.812-15.621 35.211-16.379 13.398-0.75781 26.578 3.6445 36.832 12.301 10.254 8.6562 16.805 20.914 18.305 34.25s-2.1641 26.738-10.242 37.457c-8.0742 10.719-19.949 17.938-33.18 20.176v-31.297l24.5-32.668-14-10.492-21.285 28.379-19.359-12.914-9.7109 14.562 22.355 14.898v29.531c-12.219-2.0742-23.312-8.4023-31.32-17.863-8.0078-9.4648-12.41-21.453-12.43-33.848zm-245 26.25c-0.015625-13.422 5.1094-26.336 14.324-36.094 9.2109-9.7617 21.812-15.621 35.211-16.379 13.398-0.75781 26.578 3.6445 36.832 12.301 10.254 8.6562 16.805 20.914 18.305 34.25s-2.1641 26.738-10.242 37.457c-8.0742 10.719-19.949 17.938-33.18 20.176v-31.297l24.5-32.668-13.996-10.492-21.285 28.379-19.363-12.914-9.7109 14.562 22.355 14.898v29.531c-12.219-2.0742-23.312-8.4023-31.32-17.863-8.0078-9.4648-12.41-21.453-12.43-33.848z"/>
  <path d="m253.75 498.75h17.5v17.5h-17.5z"/>
  <path d="m253.75 428.75h17.5v52.5h-17.5z"/>
  <path d="m288.75 463.75h17.5v17.5h-17.5z"/>
  <path d="m288.75 385h17.5v61.25h-17.5z"/>
  <path d="m323.75 481.25h17.5v17.5h-17.5z"/>
  <path d="m323.75 420h17.5v43.75h-17.5z"/>
  <path d="m358.75 490h17.5v17.5h-17.5z"/>
  <path d="m358.75 402.5h17.5v70h-17.5z"/>
  <path d="m323.75 271.25h17.5v43.75h-17.5z"/>
  <path d="m323.75 332.5h17.5v17.5h-17.5z"/>
  <path d="m358.75 367.5h17.5v17.5h-17.5z"/>
  <path d="m358.75 288.75h17.5v61.25h-17.5z"/>
  <path d="m393.75 271.25h17.5v61.25h-17.5z"/>
  <path d="m393.75 350h17.5v17.5h-17.5z"/>
  <path d="m428.75 341.25h17.5v17.5h-17.5z"/>
  <path d="m428.75 288.75h17.5v35h-17.5z"/>
  <path d="m236.25 306.25h-45.25c-6.9648-0.019531-13.652 2.75-18.562 7.6914l-15.996 15.996c-1.6406 1.6445-3.8672 2.5664-6.1914 2.5625h-10.25v17.5h10.25c6.9648 0.019531 13.652-2.75 18.562-7.6914l15.996-15.996c1.6406-1.6445 3.8672-2.5664 6.1914-2.5625h45.25z"/>
  <path d="m513.69 418.94-15.996 15.996c-1.6406 1.6445-3.8672 2.5664-6.1914 2.5625h-27.75v17.5h27.75c6.9648 0.019531 13.652-2.75 18.562-7.6914l15.996-15.996c1.6406-1.6445 3.8672-2.5664 6.1914-2.5625h27.75v-17.5h-27.75c-6.9648-0.019531-13.652 2.75-18.562 7.6914z"/>
  <path d="m105 393.75h17.5v17.5h-17.5z"/>
  <path d="m140 393.75h43.75v17.5h-43.75z"/>
  <path d="m507.5 315h17.5v17.5h-17.5z"/>
  <path d="m542.5 315h52.5v17.5h-52.5z"/>
  <path d="m105 332.5h17.5v17.5h-17.5z"/>
  <path d="m253.75 306.25h17.5v17.5h-17.5z"/>
  <path d="m428.75 437.5h17.5v17.5h-17.5z"/>
  <path d="m577.5 411.25h17.5v17.5h-17.5z"/>

 </g>
</svg>
