<?xml version="1.0" encoding="UTF-8"?>
<svg width="700pt" height="700pt" version="1.1" viewBox="0 0 700 700" xmlns="http://www.w3.org/2000/svg" xmlns:xlink="http://www.w3.org/1999/xlink">

 <g>
  <path d="m573.48 427.48c-7.7383-7.7344-18.02-11.996-28.965-11.996-8.0195 0-15.465 2.4023-21.785 6.4023l-22.184-22.184c1.8516-3.7578 2.9961-7.9375 2.9961-12.41 0-7.4258-3.0078-14.688-8.2539-19.934l-142.33-142.33c-5.3164-5.3203-12.398-8.2578-19.934-8.2578-4.4727 0-8.6523 1.1484-12.41 3.0078l-21.07-21.07h82.844l33.844 33.844c-1.8633 3.7578-3.0078 7.9375-3.0078 12.41 0 7.5312 2.9336 14.613 8.2539 19.934l70.07 70.07c5.3242 5.332 12.402 8.2578 19.938 8.2578 15.543 0 28.188-12.645 28.188-28.191 0-7.4258-3.0078-14.688-8.2539-19.934l-70.07-70.07c-5.3203-5.3203-12.402-8.2578-19.938-8.2578-4.4727 0-8.6523 1.1484-12.41 3.0078l-21.07-21.07h5.293v-9.0312c0-25.688-12.012-48.594-30.684-63.504l-54.059-108.11h12.484v-18.066h-54.195v18.066h12.484l-54.059 108.11c-18.672 14.91-30.684 37.816-30.684 63.504v9.0312h18.066v19.727c-10.488 3.7383-18.066 13.676-18.066 25.434v108.39c0 14.938 12.156 27.098 27.098 27.098 14.938 0 27.098-12.156 27.098-27.098v-108.38c0-11.762-7.5781-21.695-18.066-25.434v-19.727h23.355l33.844 33.844c-1.8594 3.7578-3.0039 7.9375-3.0039 12.41 0 7.5312 2.9336 14.613 8.2539 19.934l142.33 142.33c5.3203 5.3281 12.398 8.2539 19.934 8.2539 4.4727 0 8.6523-1.1484 12.41-3.0078l22.184 22.184c-4.0039 6.332-6.4062 13.766-6.4062 21.785 0 10.938 4.2617 21.234 12.004 28.965l26.457 26.465c7.7305 7.7344 18.012 11.996 28.957 11.996 22.59 0 40.969-18.371 40.969-40.961 0-10.938-4.2617-21.234-12.004-28.965zm-132.07-192.64c2.7109 0 5.2461 1.0586 7.1641 2.9609l70.07 70.07c1.8789 1.8906 2.9648 4.5 2.9648 7.1641 0 5.582-4.543 10.125-10.125 10.125-2.7109 0-5.2461-1.0469-7.1641-2.9609l-70.07-70.07c-1.9062-1.918-2.9648-4.457-2.9648-7.1641 0-5.582 4.543-10.125 10.125-10.125zm-190.77 117.42c0 4.9844-4.0547 9.0312-9.0312 9.0312-4.9766 0-9.0312-4.0469-9.0312-9.0312v-108.39c0-4.9766 4.0547-9.0312 9.0312-9.0312 4.9766 0 9.0312 4.0547 9.0312 9.0312zm143.88-171.61h-71.617v-54.195h9.0312c31.805 0.003906 58.188 23.594 62.586 54.195zm-62.586-72.258h-9.0312v-61.094l32.262 64.516c-7.3672-2.2031-15.152-3.4219-23.23-3.4219zm-27.094-61.094v61.094h-9.0312c-8.0742 0-15.859 1.2188-23.23 3.4219zm-9.0352 79.16h9.0312v54.195h-71.617c4.4023-30.605 30.785-54.195 62.586-54.195zm179.55 270.96c-2.7109 0-5.2461-1.0469-7.1641-2.9609l-142.33-142.33c-1.9062-1.9141-2.9648-4.4531-2.9648-7.1602 0-5.582 4.543-10.125 10.125-10.125 2.7109 0 5.2461 1.0586 7.1641 2.9609l142.33 142.33c1.875 1.8867 2.9609 4.4961 2.9609 7.1602 0 5.582-4.543 10.125-10.125 10.125zm95.605 108.39c-6.125 0-11.867-2.3828-16.195-6.7031l-26.457-26.465c-4.3164-4.3242-6.6992-10.078-6.6992-16.191 0-12.617 10.277-22.898 22.906-22.898 6.125 0 11.867 2.3828 16.195 6.7031l26.457 26.465c4.3164 4.3281 6.6992 10.078 6.6992 16.195 0 12.617-10.277 22.895-22.906 22.895z"/>
  <path d="m575.8 478.71c0 4.9883-4.043 9.0312-9.0312 9.0312-4.9883 0-9.0312-4.043-9.0312-9.0312 0-4.9883 4.043-9.0352 9.0312-9.0352 4.9883 0 9.0312 4.0469 9.0312 9.0352"/>
  <path d="m214.52 27.098c0-14.938-12.156-27.098-27.098-27.098-14.938 0-27.098 12.156-27.098 27.098v9.0312h18.066v-9.0312c0-4.9766 4.0547-9.0312 9.0312-9.0312 4.9766 0 9.0312 4.0547 9.0312 9.0312 0 14.938-12.156 27.098-27.098 27.098h-99.352v18.066h99.355c24.902-0.003907 45.16-20.262 45.16-45.164z"/>
  <path d="m151.29 126.45h-9.0312v18.066h9.0312c14.938 0 27.098-12.156 27.098-27.098 0-14.938-12.156-27.098-27.098-27.098h-27.094v18.066h27.098c4.9766 0 9.0312 4.0547 9.0312 9.0312 0 4.9727-4.0586 9.0312-9.0352 9.0312z"/>
  <path d="m70 90.324h36.129v18.066h-36.129z"/>
  <path d="m277.74 487.74h-27.098v18.066h27.098c14.938 0 27.098 12.156 27.098 27.098 0 4.9844-4.0547 9.0312-9.0312 9.0312-4.9766 0-9.0312-4.0469-9.0312-9.0312v-9.0312h-18.066v9.0312c0 14.938 12.156 27.098 27.098 27.098 14.938 0 27.098-12.156 27.098-27.098-0.003906-24.906-20.262-45.164-45.164-45.164z"/>
  <path d="m106.13 487.74h126.45v18.066h-126.45z"/>
  <path d="m259.68 451.61h-153.55v18.066h153.55c14.938 0 27.098-12.156 27.098-27.098 0-14.938-12.156-27.098-27.098-27.098h-9.0312v18.066h9.0312c4.9766 0 9.0312 4.0469 9.0312 9.0312 0.003907 4.9844-4.0547 9.0312-9.0312 9.0312z"/>
  <path d="m593.87 171.61c0-14.938-12.156-27.098-27.098-27.098-14.938 0-27.098 12.156-27.098 27.098v9.0312h18.066v-9.0312c0-4.9766 4.0547-9.0312 9.0312-9.0312 4.9766 0 9.0312 4.0547 9.0312 9.0312 0 14.938-12.156 27.098-27.098 27.098h-9.0312v18.066h9.0312c24.906-0.003906 45.164-20.262 45.164-45.164z"/>
  <path d="m584.84 234.84h-81.289v18.066h81.289c14.938 0 27.098 12.156 27.098 27.098 0 14.938-12.156 27.098-27.098 27.098-4.9766 0-9.0312-4.0469-9.0312-9.0312 0-4.9844 4.0547-9.0312 9.0312-9.0312h9.0312v-18.066h-9.0312c-14.938 0-27.098 12.156-27.098 27.098 0 14.938 12.156 27.098 27.098 27.098 24.902 0 45.16-20.258 45.16-45.16 0-24.91-20.258-45.168-45.16-45.168z"/>
  <path d="m467.42 198.71h54.195v18.066h-54.195z"/>

 </g>
</svg>
