<?xml version="1.0" encoding="UTF-8"?>
<svg version="1.1" viewBox="0 0 700 700" xmlns="http://www.w3.org/2000/svg" xmlns:xlink="http://www.w3.org/1999/xlink">

 <g>
  <path d="m553 515.2v-72.777c71.914-66.91 2.4453-210.04-0.58203-216.16l-5.2031-10.523-4.9062 10.664c-70.699 153.71-14.453 206.5-0.50781 216.65v72.148h-50.398l-0.003906-277.02-127.4-42.98v320h-18.199v-277.02l-127.4-42.98v320h-57.398v-72.777c71.914-66.91 2.4453-210.04-0.58203-216.16l-5.2031-10.523-4.9062 10.664c-70.699 153.7-14.457 206.5-0.50781 216.64v72.156h-54.602v11.199h502.6v-11.199zm0-121.67 17.227-9.6875-5.4883-9.7539-11.738 6.6016v-66.68l13.305-12.57-7.6875-8.1367-5.6172 5.3047v-42.09c15.473 41.055 38.359 122.35 0 169.59zm-392 0 17.227-9.6875-5.4883-9.7539-11.738 6.6016v-66.68l13.305-12.57-7.6875-8.1367-5.6172 5.3047v-42.086c15.469 41.059 38.359 122.34 0 169.59zm-11.199-59.875-6.5508-9.3633-9.1797 6.418 15.73 22.477v74.586c-15.32-16.75-42.48-64.742 0-171.74zm184.8 181.55h-105v-304.4l105 35.426zm145.6 0h-105v-304.4l105 35.426zm61.602-181.55-6.5508-9.3633-9.1797 6.418 15.73 22.477v74.586c-15.32-16.75-42.48-64.742 0-171.74z"/>
  <path d="m277.2 261.8h-40.602v75.602l40.602-0.003906zm-11.199 64.398h-18.199v-53.199h18.199z"/>
  <path d="m327.6 261.8h-40.602v75.602l40.602-0.003906zm-11.203 64.398h-18.199v-53.199h18.199z"/>
  <path d="m277.2 345.8h-40.602v75.602l40.602-0.003906zm-11.199 64.398h-18.199v-53.199h18.199z"/>
  <path d="m327.6 345.8h-40.602v75.602l40.602-0.003906zm-11.203 64.398h-18.199v-53.199h18.199z"/>
  <path d="m277.2 429.8h-40.602v75.602l40.602-0.003906zm-11.199 64.398h-18.199v-53.199h18.199z"/>
  <path d="m327.6 429.8h-40.602v75.602l40.602-0.003906zm-11.203 64.398h-18.199v-53.199h18.199z"/>
  <path d="m422.8 261.8h-40.602v75.602l40.602-0.003906zm-11.199 64.398h-18.199v-53.199h18.199z"/>
  <path d="m473.2 261.8h-40.602v75.602l40.602-0.003906zm-11.199 64.398h-18.199v-53.199h18.199z"/>
  <path d="m422.8 345.8h-40.602v75.602l40.602-0.003906zm-11.199 64.398h-18.199v-53.199h18.199z"/>
  <path d="m473.2 345.8h-40.602v75.602l40.602-0.003906zm-11.199 64.398h-18.199v-53.199h18.199z"/>
  <path d="m422.8 429.8h-40.602v75.602l40.602-0.003906zm-11.199 64.398h-18.199v-53.199h18.199z"/>
  <path d="m473.2 429.8h-40.602v75.602l40.602-0.003906zm-11.199 64.398h-18.199v-53.199h18.199z"/>
  <path d="m148.29 153.12h154.71c0.82422 0 1.5977-0.20312 2.3008-0.51953 18.184-2.9023 32.133-18.637 32.133-37.613 0-14.867-8.625-28.223-21.855-34.461 0.003906-0.28516 0.003906-0.57812 0.003906-0.86328 0-31.281-25.453-56.734-56.738-56.734-20.707 0-39.367 11.09-49.348 28.785-5.2188-3.3047-11.262-5.0742-17.586-5.0742-16.777 0-30.676 12.582-32.754 28.805-3.832-1.2148-7.8281-1.8438-11.867-1.8438-21.801 0-39.535 17.734-39.535 39.531 0.011719 21.676 18.578 39.988 40.539 39.988zm-0.99219-68.32c5.1758 0 10.266 1.4453 14.734 4.1719 1.8633 1.1406 4.2383 1.0859 6.0547-0.13281 1.8203-1.2266 2.7539-3.3984 2.3906-5.5625-0.19531-1.1797-0.375-2.3789-0.375-3.6172 0-12.035 9.7891-21.824 21.816-21.824 5.8906 0 11.418 2.3281 15.562 6.5508 1.3203 1.3477 3.2305 1.9258 5.0859 1.5742 1.8555-0.36328 3.3945-1.6406 4.1055-3.3867 7.0039-17.281 23.566-28.449 42.172-28.449 25.109 0 45.539 20.422 45.539 45.535 0 1.3672-0.089844 2.7148-0.20703 4.0469-0.23047 2.5703 1.332 4.9609 3.7734 5.7891 10.93 3.7188 18.277 13.957 18.277 25.484 0 14.852-12.086 26.941-26.945 26.941h-150.99c-15.898 0-29.328-13.188-29.328-28.797 0-15.617 12.715-28.324 28.336-28.324z"/>
  <path d="m230.14 74.078c2.8789 1.1602 6.1328-0.21875 7.2969-3.0859 3.5625-8.7852 11.969-14.465 21.414-14.465 12.758 0 23.141 10.375 23.141 23.133 0 3.0898 2.5078 5.6016 5.6016 5.6016 3.0898 0 5.6016-2.5078 5.6016-5.6016 0-18.93-15.398-34.332-34.34-34.332-14.027 0-26.512 8.4219-31.797 21.453-1.168 2.8672 0.21484 6.1289 3.082 7.2969z"/>
  <path d="m268.67 159.14-27.383 24.266c-2.3203 2.0547-2.5312 5.5938-0.47656 7.9062 1.1094 1.25 2.6484 1.8867 4.1953 1.8867 1.3203 0 2.6484-0.46484 3.7109-1.4062l27.383-24.266c2.3203-2.0547 2.5312-5.5938 0.47656-7.9062-2.0586-2.3164-5.6016-2.5312-7.9062-0.48047z"/>
  <path d="m168.77 159.31-12.5 12.137c-2.2188 2.1562-2.2734 5.6992-0.11719 7.918 1.0977 1.1328 2.5586 1.7031 4.0195 1.7031 1.4062 0 2.8125-0.52734 3.8984-1.5781l12.5-12.137c2.2188-2.1562 2.2734-5.6992 0.11719-7.918-2.1523-2.2305-5.6992-2.2773-7.918-0.125z"/>
  <path d="m219.05 159.43-17.219 17.734c-2.1562 2.2188-2.1016 5.7617 0.11719 7.918 1.0859 1.0586 2.4961 1.5859 3.9023 1.5859 1.4609 0 2.918-0.57031 4.0156-1.6953l17.219-17.734c2.1562-2.2188 2.1016-5.7617-0.11719-7.918-2.2227-2.1641-5.7695-2.1094-7.918 0.10938z"/>
  <path d="m395.39 153.12h154.71c0.82422 0 1.5977-0.20312 2.3008-0.51953 18.176-2.9023 32.129-18.637 32.129-37.613 0-14.867-8.625-28.223-21.855-34.461 0.003907-0.28516 0.011719-0.57812 0.011719-0.86328 0-31.281-25.453-56.734-56.738-56.734-20.703 0-39.367 11.09-49.348 28.785-5.2188-3.3047-11.262-5.0742-17.586-5.0742-16.777 0-30.676 12.582-32.754 28.805-3.832-1.2148-7.8281-1.8438-11.867-1.8438-21.801 0-39.535 17.734-39.535 39.531 0.007813 21.676 18.57 39.988 40.535 39.988zm-0.99219-68.32c5.1758 0 10.266 1.4453 14.734 4.1719 1.8711 1.1406 4.2344 1.0859 6.0547-0.13281 1.8125-1.2266 2.75-3.3984 2.3906-5.5625-0.20312-1.1875-0.38281-2.3789-0.38281-3.6172 0-12.035 9.7891-21.824 21.816-21.824 5.8906 0 11.418 2.3281 15.562 6.5508 1.3203 1.3477 3.2305 1.9258 5.0859 1.5742 1.8477-0.36328 3.3867-1.6406 4.0977-3.3867 7.0039-17.281 23.559-28.449 42.172-28.449 25.109 0 45.539 20.422 45.539 45.535 0 1.3672-0.09375 2.7148-0.20703 4.0469-0.22266 2.5703 1.332 4.9609 3.7734 5.7891 10.938 3.7188 18.285 13.957 18.285 25.484 0 14.852-12.086 26.941-26.945 26.941h-150.99c-15.898 0-29.328-13.188-29.328-28.797 0.007812-15.617 12.719-28.324 28.344-28.324z"/>
  <path d="m477.24 74.078c2.8438 1.1484 6.1367-0.21094 7.2969-3.0859 3.5625-8.7852 11.973-14.465 21.414-14.465 12.758 0 23.141 10.375 23.141 23.133 0 3.0898 2.5039 5.6016 5.6016 5.6016s5.6016-2.5078 5.6016-5.6016c0-18.93-15.406-34.332-34.34-34.332-14.027 0-26.512 8.4219-31.797 21.453-1.1641 2.8672 0.21484 6.1289 3.082 7.2969z"/>
  <path d="m515.77 159.14-27.383 24.266c-2.3125 2.0547-2.5273 5.5938-0.47656 7.9062 1.1016 1.25 2.6484 1.8867 4.1875 1.8867 1.3203 0 2.6484-0.46484 3.7109-1.4062l27.383-24.266c2.3125-2.0547 2.5273-5.5938 0.47656-7.9062-2.0508-2.3242-5.5898-2.5234-7.8984-0.48047z"/>
  <path d="m415.87 159.31-12.5 12.137c-2.2188 2.1562-2.2734 5.6992-0.11719 7.918 1.0977 1.1328 2.5586 1.7031 4.0195 1.7031 1.4062 0 2.8125-0.52734 3.8984-1.5781l12.5-12.137c2.2188-2.1562 2.2734-5.6992 0.11719-7.918-2.1562-2.2305-5.6992-2.2773-7.918-0.125z"/>
  <path d="m466.14 159.43-17.219 17.734c-2.1562 2.2188-2.1016 5.7617 0.11719 7.918 1.0859 1.0586 2.4922 1.5859 3.8984 1.5859 1.4609 0 2.918-0.57031 4.0195-1.6953l17.219-17.734c2.1562-2.2188 2.1016-5.7617-0.11719-7.918-2.2109-2.1641-5.7578-2.1094-7.918 0.10938z"/>
 
 </g>
</svg>
