<?xml version="1.0" encoding="utf-8"?>
<svg viewBox="84.886 255.393 590.023 524.933" xmlns="http://www.w3.org/2000/svg">
  <defs>
    <symbol id="w" overflow="visible">
      <path d="m0.03125 0h-0.015625-0.015625v-0.015625-0.015625h0.015625 0.015625-0.015625v0.015625 0.015625h0.015625v-0.015625z"/>
    </symbol>
    <symbol id="e" overflow="visible">
      <path d="m0.015625-0.015625v0.015625h-0.015625v-0.03125h0.015625v0.015625-0.015625z"/>
    </symbol>
    <symbol id="b" overflow="visible">
      <path d="m0.03125-0.015625h-0.015625v0.015625c0.0078125 0 0.015625-0.0039062 0.015625-0.015625v0.015625h-0.015625-0.015625v-0.015625l0.015625-0.015625v0.015625h0.015625z"/>
    </symbol>
    <symbol id="a" overflow="visible">
      <path d="m0.015625-0.015625v0.015625-0.015625zm0.015625 0v0.015625h-0.015625-0.015625v-0.015625h0.015625-0.015625v-0.015625h0.015625v0.015625h0.015625z"/>
    </symbol>
    <symbol id="d" overflow="visible">
      <path d="m0.015625-0.03125v0.015625 0.015625h-0.015625v-0.015625-0.015625z"/>
    </symbol>
    <symbol id="l" overflow="visible">
      <path d="m0.015625-0.015625v-0.015625h0.015625v0.03125h-0.015625-0.015625v-0.015625l0.015625-0.015625v0.015625zm0 0.015625v-0.015625 0.015625z"/>
    </symbol>
    <symbol id="k" overflow="visible">
      <path d="m0.015625 0v-0.015625 0.015625zm0-0.015625v-0.015625c0.0078125 0 0.015625 0.0078125 0.015625 0.015625v0.015625h-0.015625-0.015625v-0.03125h0.015625z"/>
    </symbol>
    <symbol id="j" overflow="visible">
      <path d="m0-0.03125h0.015625v0.015625-0.015625h0.015625l-0.015625 0.03125v0.015625h-0.015625v-0.015625h0.015625z"/>
    </symbol>
    <symbol id="i" overflow="visible">
      <path d="m0.015625-0.03125v0.015625 0.015625h0.015625v-0.015625c0-0.0078125-0.0078125-0.015625-0.015625-0.015625zm0 0h0.015625v0.015625 0.015625h-0.015625-0.015625v-0.015625-0.015625h0.015625z"/>
    </symbol>
    <symbol id="v" overflow="visible">
      <path d="m0-0.03125h0.015625v0.03125h-0.015625z"/>
    </symbol>
    <symbol id="f" overflow="visible">
      <path d="m0.03125-0.015625v0.015625h-0.015625v-0.015625 0.015625h-0.015625v-0.03125h0.015625v0.015625-0.015625c0.0078125 0 0.015625 0.0078125 0.015625 0.015625z"/>
    </symbol>
    <symbol id="h" overflow="visible">
      <path d="m0-0.03125h0.015625 0.015625v0.015625h-0.015625v0.015625h-0.015625zm0.015625 0v0.015625-0.015625z"/>
    </symbol>
    <symbol id="g" overflow="visible">
      <path d="m0.03125-0.03125v0.015625h-0.015625c0.0078125 0 0.015625 0.0078125 0.015625 0.015625h-0.015625-0.015625 0.015625v-0.015625h-0.015625l0.015625-0.015625h0.015625z"/>
    </symbol>
    <symbol id="c" overflow="visible">
      <path d="m0.015625-0.015625v0.015625-0.015625zm0-0.015625v0.015625h0.015625c0 0.011719-0.0078125 0.015625-0.015625 0.015625h-0.015625v-0.015625l0.015625-0.015625z"/>
    </symbol>
    <symbol id="u" overflow="visible">
      <path d="m0-0.03125h0.015625v0.015625-0.015625h0.015625l-0.015625 0.03125z"/>
    </symbol>
    <symbol id="t" overflow="visible">
      <path d="m0-0.03125h0.015625v0.015625-0.015625h0.015625l-0.015625 0.015625 0.015625 0.015625h-0.015625v-0.015625 0.015625h-0.015625z"/>
    </symbol>
    <symbol id="s" overflow="visible">
      <path d="m0.015625-0.03125v0.03125h-0.015625v-0.03125h0.015625z"/>
    </symbol>
    <symbol id="r" overflow="visible">
      <path d="m0.03125-0.015625v-0.015625c0.0078125 0 0.015625 0.0078125 0.015625 0.015625v0.015625h-0.015625v-0.015625 0.015625h-0.015625v-0.015625 0.015625h-0.015625v-0.03125h0.015625v0.015625-0.015625 0.015625h0.015625z"/>
    </symbol>
    <symbol id="q" overflow="visible">
      <path d="m0.03125-0.015625v0.015625h-0.015625v-0.015625 0.015625h-0.015625v-0.03125h0.015625v0.015625-0.015625c0.0078125 0 0.015625 0.0078125 0.015625 0.015625z"/>
    </symbol>
    <symbol id="p" overflow="visible">
      <path d="m0-0.03125h0.015625l0.015625 0.015625v-0.015625 0.03125l-0.015625-0.015625v0.015625h-0.015625z"/>
    </symbol>
    <symbol id="o" overflow="visible">
      <path d="m0-0.015625v-0.015625h0.015625v0.015625 0.015625-0.015625-0.015625h0.015625v0.03125h-0.015625-0.015625v-0.015625z"/>
    </symbol>
    <symbol id="n" overflow="visible">
      <path d="m0-0.03125h0.015625v0.03125h-0.015625v0.015625zm0 0h0.015625z"/>
    </symbol>
    <symbol id="m" overflow="visible">
      <path d="m0.03125-0.03125v0.015625h-0.015625v0.015625h0.015625-0.015625-0.015625v-0.015625l0.015625-0.015625h0.015625z"/>
    </symbol>
    <symbol id="symbol-1" overflow="visible">
      <path d="m0.03125 0h-0.015625-0.015625v-0.015625-0.015625h0.015625 0.015625-0.015625v0.015625 0.015625h0.015625v-0.015625z"/>
    </symbol>
    <symbol id="symbol-2" overflow="visible">
      <path d="m0.015625-0.015625v0.015625h-0.015625v-0.03125h0.015625v0.015625-0.015625z"/>
    </symbol>
    <symbol id="symbol-3" overflow="visible">
      <path d="m0.03125-0.015625h-0.015625v0.015625c0.0078125 0 0.015625-0.0039062 0.015625-0.015625v0.015625h-0.015625-0.015625v-0.015625l0.015625-0.015625v0.015625h0.015625z"/>
    </symbol>
    <symbol id="symbol-4" overflow="visible">
      <path d="m0.015625-0.015625v0.015625-0.015625zm0.015625 0v0.015625h-0.015625-0.015625v-0.015625h0.015625-0.015625v-0.015625h0.015625v0.015625h0.015625z"/>
    </symbol>
    <symbol id="symbol-5" overflow="visible">
      <path d="m0.015625-0.03125v0.015625 0.015625h-0.015625v-0.015625-0.015625z"/>
    </symbol>
    <symbol id="symbol-6" overflow="visible">
      <path d="m0.015625-0.015625v-0.015625h0.015625v0.03125h-0.015625-0.015625v-0.015625l0.015625-0.015625v0.015625zm0 0.015625v-0.015625 0.015625z"/>
    </symbol>
    <symbol id="symbol-7" overflow="visible">
      <path d="m0.015625 0v-0.015625 0.015625zm0-0.015625v-0.015625c0.0078125 0 0.015625 0.0078125 0.015625 0.015625v0.015625h-0.015625-0.015625v-0.03125h0.015625z"/>
    </symbol>
    <symbol id="symbol-8" overflow="visible">
      <path d="m0-0.03125h0.015625v0.015625-0.015625h0.015625l-0.015625 0.03125v0.015625h-0.015625v-0.015625h0.015625z"/>
    </symbol>
    <symbol id="symbol-9" overflow="visible">
      <path d="m0.015625-0.03125v0.015625 0.015625h0.015625v-0.015625c0-0.0078125-0.0078125-0.015625-0.015625-0.015625zm0 0h0.015625v0.015625 0.015625h-0.015625-0.015625v-0.015625-0.015625h0.015625z"/>
    </symbol>
    <symbol id="symbol-10" overflow="visible">
      <path d="m0-0.03125h0.015625v0.03125h-0.015625z"/>
    </symbol>
    <symbol id="symbol-11" overflow="visible">
      <path d="m0.03125-0.015625v0.015625h-0.015625v-0.015625 0.015625h-0.015625v-0.03125h0.015625v0.015625-0.015625c0.0078125 0 0.015625 0.0078125 0.015625 0.015625z"/>
    </symbol>
    <symbol id="symbol-12" overflow="visible">
      <path d="m0-0.03125h0.015625 0.015625v0.015625h-0.015625v0.015625h-0.015625zm0.015625 0v0.015625-0.015625z"/>
    </symbol>
    <symbol id="symbol-13" overflow="visible">
      <path d="m0.03125-0.03125v0.015625h-0.015625c0.0078125 0 0.015625 0.0078125 0.015625 0.015625h-0.015625-0.015625 0.015625v-0.015625h-0.015625l0.015625-0.015625h0.015625z"/>
    </symbol>
    <symbol id="symbol-14" overflow="visible">
      <path d="m0.015625-0.015625v0.015625-0.015625zm0-0.015625v0.015625h0.015625c0 0.011719-0.0078125 0.015625-0.015625 0.015625h-0.015625v-0.015625l0.015625-0.015625z"/>
    </symbol>
    <symbol id="symbol-15" overflow="visible">
      <path d="m0-0.03125h0.015625v0.015625-0.015625h0.015625l-0.015625 0.03125z"/>
    </symbol>
    <symbol id="symbol-16" overflow="visible">
      <path d="m0-0.03125h0.015625v0.015625-0.015625h0.015625l-0.015625 0.015625 0.015625 0.015625h-0.015625v-0.015625 0.015625h-0.015625z"/>
    </symbol>
    <symbol id="symbol-17" overflow="visible">
      <path d="m0.015625-0.03125v0.03125h-0.015625v-0.03125h0.015625z"/>
    </symbol>
    <symbol id="symbol-18" overflow="visible">
      <path d="m0.03125-0.015625v-0.015625c0.0078125 0 0.015625 0.0078125 0.015625 0.015625v0.015625h-0.015625v-0.015625 0.015625h-0.015625v-0.015625 0.015625h-0.015625v-0.03125h0.015625v0.015625-0.015625 0.015625h0.015625z"/>
    </symbol>
    <symbol id="symbol-19" overflow="visible">
      <path d="m0.03125-0.015625v0.015625h-0.015625v-0.015625 0.015625h-0.015625v-0.03125h0.015625v0.015625-0.015625c0.0078125 0 0.015625 0.0078125 0.015625 0.015625z"/>
    </symbol>
    <symbol id="symbol-20" overflow="visible">
      <path d="m0-0.03125h0.015625l0.015625 0.015625v-0.015625 0.03125l-0.015625-0.015625v0.015625h-0.015625z"/>
    </symbol>
    <symbol id="symbol-21" overflow="visible">
      <path d="m0-0.015625v-0.015625h0.015625v0.015625 0.015625-0.015625-0.015625h0.015625v0.03125h-0.015625-0.015625v-0.015625z"/>
    </symbol>
    <symbol id="symbol-22" overflow="visible">
      <path d="m0-0.03125h0.015625v0.03125h-0.015625v0.015625zm0 0h0.015625z"/>
    </symbol>
    <symbol id="symbol-23" overflow="visible">
      <path d="m0.03125-0.03125v0.015625h-0.015625v0.015625h0.015625-0.015625-0.015625v-0.015625l0.015625-0.015625h0.015625z"/>
    </symbol>
    <symbol id="symbol-24" overflow="visible">
      <path d="m0.375-0.03125c-0.023438 0.011719-0.042969 0.023438-0.0625 0.03125-0.023438 0.0078125-0.042969 0.015625-0.0625 0.015625-0.0625 0-0.11719-0.019531-0.15625-0.0625-0.042969-0.039062-0.0625-0.09375-0.0625-0.15625s0.019531-0.11328 0.0625-0.15625c0.039062-0.039063 0.09375-0.0625 0.15625-0.0625 0.019531 0 0.039062 0.007813 0.0625 0.015625 0.019531 0 0.039062 0.007812 0.0625 0.015625v0.09375c-0.023438-0.019531-0.042969-0.03125-0.0625-0.03125-0.023438-0.007813-0.042969-0.015625-0.0625-0.015625-0.03125 0-0.058594 0.015625-0.078125 0.046875-0.023437 0.023437-0.03125 0.054687-0.03125 0.09375 0 0.042969 0.007813 0.078125 0.03125 0.10938 0.019531 0.023438 0.046875 0.03125 0.078125 0.03125 0.019531 0 0.039062-0.0039062 0.0625-0.015625 0.019531-0.0078125 0.039062-0.019531 0.0625-0.03125z"/>
    </symbol>
    <symbol id="symbol-25" overflow="visible">
      <path d="m0.26562-0.21875c0-0.007812-0.007813-0.015625-0.015625-0.015625h-0.015625c-0.03125 0-0.054687 0.011719-0.0625 0.03125-0.011719 0.011719-0.015625 0.03125-0.015625 0.0625v0.14062h-0.10938v-0.3125h0.10938v0.0625c0.007812-0.019531 0.019531-0.035156 0.03125-0.046875 0.007812-0.007813 0.03125-0.015625 0.0625-0.015625h0.015625z"/>
    </symbol>
    <symbol id="symbol-26" overflow="visible">
      <path d="m0.34375-0.15625v0.03125h-0.21875c0 0.023438 0.003906 0.039062 0.015625 0.046875 0.019531 0.011719 0.039063 0.015625 0.0625 0.015625h0.0625c0.03125-0.0078125 0.054687-0.019531 0.078125-0.03125v0.078125c-0.023438 0-0.046875 0.0078125-0.078125 0.015625-0.023437 0.0078125-0.042969 0.015625-0.0625 0.015625-0.0625 0-0.10938-0.015625-0.14062-0.046875-0.023438-0.03125-0.03125-0.070312-0.03125-0.125 0-0.050781 0.0078125-0.085938 0.03125-0.10938 0.03125-0.03125 0.070312-0.046875 0.125-0.046875 0.050781 0 0.085938 0.015625 0.10938 0.046875 0.03125 0.023437 0.046875 0.058594 0.046875 0.10938zm-0.09375-0.03125c0-0.019531-0.007812-0.035156-0.015625-0.046875-0.011719-0.007813-0.027344-0.015625-0.046875-0.015625-0.011719 0-0.027344 0.007812-0.046875 0.015625-0.011719 0.011719-0.015625 0.027344-0.015625 0.046875z"/>
    </symbol>
    <symbol id="symbol-27" overflow="visible">
      <path d="m0.1875-0.14062c-0.023438 0-0.039062 0.007813-0.046875 0.015625-0.011719 0.011719-0.015625 0.023438-0.015625 0.03125 0 0.011719 0.003906 0.023438 0.015625 0.03125h0.03125c0.019531 0 0.035156-0.0039062 0.046875-0.015625 0.007812-0.0078125 0.015625-0.023437 0.015625-0.046875v-0.015625zm0.14062-0.03125v0.17188h-0.09375v-0.046875c-0.011719 0.023438-0.027344 0.039062-0.046875 0.046875-0.011719 0.0078125-0.03125 0.015625-0.0625 0.015625-0.023438 0-0.042969-0.011719-0.0625-0.03125-0.023438-0.019531-0.03125-0.046875-0.03125-0.078125 0-0.039062 0.0078125-0.066406 0.03125-0.078125 0.019531-0.007813 0.054688-0.015625 0.10938-0.015625h0.0625v-0.015625c0-0.019531-0.007813-0.03125-0.015625-0.03125-0.011719-0.007813-0.03125-0.015625-0.0625-0.015625-0.023438 0-0.042969 0.007812-0.0625 0.015625h-0.046875v-0.0625c0.019531-0.007813 0.039062-0.015625 0.0625-0.015625h0.0625c0.0625 0 0.10156 0.011719 0.125 0.03125 0.019531 0.023438 0.03125 0.058594 0.03125 0.10938z"/>
    </symbol>
    <symbol id="symbol-28" overflow="visible">
      <path d="m0.15625-0.39062v0.078125h0.09375v0.078125h-0.09375v0.125 0.03125c0.007812 0.011719 0.019531 0.015625 0.03125 0.015625h0.0625v0.0625h-0.078125c-0.042969 0-0.074219-0.0039062-0.09375-0.015625-0.023438-0.019531-0.03125-0.050781-0.03125-0.09375v-0.125h-0.03125v-0.078125h0.03125v-0.078125z"/>
    </symbol>
    <symbol id="symbol-29" overflow="visible">
      <path d="m0.25-0.26562v-0.15625h0.09375v0.42188h-0.09375v-0.046875c-0.011719 0.023438-0.027344 0.039062-0.046875 0.046875-0.011719 0.0078125-0.027344 0.015625-0.046875 0.015625-0.042969 0-0.074219-0.015625-0.09375-0.046875-0.023438-0.03125-0.03125-0.070312-0.03125-0.125 0-0.050781 0.0078125-0.085938 0.03125-0.10938 0.019531-0.03125 0.050781-0.046875 0.09375-0.046875 0.019531 0 0.035156 0.007812 0.046875 0.015625 0.019531 0.011719 0.035156 0.023437 0.046875 0.03125zm-0.0625 0.20312c0.019531 0 0.035156-0.0039062 0.046875-0.015625 0.007813-0.019531 0.015625-0.046875 0.015625-0.078125 0-0.019531-0.007812-0.039062-0.015625-0.0625-0.011719-0.019531-0.027344-0.03125-0.046875-0.03125-0.023438 0-0.039062 0.011719-0.046875 0.03125-0.011719 0.023438-0.015625 0.042969-0.015625 0.0625 0 0.03125 0.003906 0.058594 0.015625 0.078125 0.007813 0.011719 0.023437 0.015625 0.046875 0.015625z"/>
    </symbol>
    <symbol id="symbol-30" overflow="visible">
      <path d="m0.20312-0.0625c0.03125 0 0.046875-0.0039062 0.046875-0.015625 0.007812-0.019531 0.015625-0.046875 0.015625-0.078125 0-0.019531-0.007813-0.039062-0.015625-0.0625 0-0.019531-0.015625-0.03125-0.046875-0.03125-0.023437 0-0.039063 0.011719-0.046875 0.03125v0.0625 0.078125c0.007812 0.011719 0.023438 0.015625 0.046875 0.015625zm-0.046875-0.20312c0.007812-0.007813 0.019531-0.019531 0.03125-0.03125 0.019531-0.007813 0.039062-0.015625 0.0625-0.015625 0.039062 0 0.070312 0.015625 0.09375 0.046875 0.019531 0.023437 0.03125 0.058594 0.03125 0.10938 0 0.054688-0.011719 0.09375-0.03125 0.125-0.023438 0.03125-0.054688 0.046875-0.09375 0.046875-0.023438 0-0.042969-0.0078125-0.0625-0.015625-0.011719-0.0078125-0.023438-0.023438-0.03125-0.046875v0.046875h-0.10938v-0.42188h0.10938z"/>
    </symbol>
    <symbol id="symbol-31" overflow="visible">
      <path d="m0.015625-0.3125h0.09375l0.078125 0.21875 0.0625-0.21875h0.10938l-0.125 0.34375c-0.023437 0.03125-0.042969 0.050781-0.0625 0.0625-0.011719 0.019531-0.03125 0.03125-0.0625 0.03125h-0.0625v-0.078125h0.046875 0.015625c0.007813 0 0.019531-0.011719 0.03125-0.03125z"/>
    </symbol>
    <symbol id="symbol-32" overflow="visible">
      <path d="m0.046875-0.40625h0.125l0.14062 0.28125v-0.28125h0.10938v0.40625h-0.125l-0.14062-0.28125v0.28125h-0.10938z"/>
    </symbol>
    <symbol id="symbol-33" overflow="visible">
      <path d="m0.28125-0.29688v0.078125c-0.023438-0.007812-0.042969-0.015625-0.0625-0.015625-0.023438-0.007813-0.039062-0.015625-0.046875-0.015625-0.023437 0-0.039063 0.007812-0.046875 0.015625-0.011719 0-0.015625 0.007813-0.015625 0.015625 0 0.011719 0.003906 0.023438 0.015625 0.03125h0.046875 0.015625c0.039062 0 0.070312 0.011719 0.09375 0.03125 0.019531 0.011719 0.03125 0.03125 0.03125 0.0625s-0.015625 0.058594-0.046875 0.078125c-0.023437 0.019531-0.054687 0.03125-0.09375 0.03125-0.03125 0-0.058594-0.0078125-0.078125-0.015625-0.023438 0-0.042969-0.0039062-0.0625-0.015625v-0.078125c0.019531 0.023438 0.039062 0.03125 0.0625 0.03125h0.0625 0.03125c0.007812 0 0.015625-0.0078125 0.015625-0.03125 0-0.007812-0.007813-0.015625-0.015625-0.015625 0 0-0.007812-0.003906-0.015625-0.015625h-0.015625c-0.054688 0-0.089844-0.003906-0.10938-0.015625-0.011719-0.019531-0.015625-0.046875-0.015625-0.078125s0.0078125-0.050781 0.03125-0.0625c0.019531-0.019531 0.054688-0.03125 0.10938-0.03125h0.046875c0.019531 0 0.039062 0.007812 0.0625 0.015625z"/>
    </symbol>
    <symbol id="symbol-34" overflow="visible">
      <path d="m0.35938-0.1875v0.1875h-0.10938v-0.14062-0.046875-0.03125c0-0.007812-0.007812-0.015625-0.015625-0.015625h-0.03125c-0.011719 0-0.023437 0.011719-0.03125 0.03125-0.011719 0.011719-0.015625 0.027344-0.015625 0.046875v0.15625h-0.10938v-0.3125h0.10938v0.046875c0.007812-0.007813 0.019531-0.019531 0.03125-0.03125 0.019531-0.007813 0.039062-0.015625 0.0625-0.015625 0.03125 0 0.054688 0.011719 0.078125 0.03125 0.019531 0.023438 0.03125 0.054688 0.03125 0.09375z"/>
    </symbol>
    <symbol id="symbol-35" overflow="visible">
      <path d="m0.046875-0.42188h0.10938v0.23438l0.09375-0.125h0.125l-0.15625 0.14062 0.17188 0.17188h-0.125l-0.10938-0.125v0.125h-0.10938z"/>
    </symbol>
    <symbol id="symbol-36" overflow="visible">
      <path d="m0.1875-0.25c-0.023438 0-0.039062 0.011719-0.046875 0.03125-0.011719 0.011719-0.015625 0.03125-0.015625 0.0625s0.003906 0.058594 0.015625 0.078125c0.007813 0.011719 0.023437 0.015625 0.046875 0.015625 0.03125 0 0.050781-0.0039062 0.0625-0.015625 0.007812-0.019531 0.015625-0.046875 0.015625-0.078125s-0.007813-0.050781-0.015625-0.0625c-0.011719-0.019531-0.03125-0.03125-0.0625-0.03125zm0-0.0625c0.050781 0 0.09375 0.015625 0.125 0.046875 0.03125 0.023437 0.046875 0.058594 0.046875 0.10938 0 0.054688-0.015625 0.09375-0.046875 0.125s-0.074219 0.046875-0.125 0.046875c-0.054688 0-0.09375-0.015625-0.125-0.046875-0.023438-0.03125-0.03125-0.070312-0.03125-0.125 0-0.050781 0.0078125-0.085938 0.03125-0.10938 0.03125-0.03125 0.070312-0.046875 0.125-0.046875z"/>
    </symbol>
    <symbol id="symbol-37" overflow="visible">
      <path d="m0.20312-0.23438h0.046875c0.007812-0.007813 0.015625-0.023437 0.015625-0.046875 0-0.019531-0.007813-0.03125-0.015625-0.03125-0.011719-0.007812-0.027344-0.015625-0.046875-0.015625h-0.046875v0.09375zm-0.046875 0.078125v0.15625h-0.10938v-0.40625h0.15625c0.050781 0 0.09375 0.011719 0.125 0.03125 0.03125 0.023438 0.046875 0.046875 0.046875 0.078125s-0.011719 0.058594-0.03125 0.078125c-0.011719 0.011719-0.03125 0.023438-0.0625 0.03125 0.019531 0 0.035156 0.007812 0.046875 0.015625 0.007813 0.011719 0.019531 0.03125 0.03125 0.0625l0.0625 0.10938h-0.10938l-0.046875-0.10938c-0.011719-0.007813-0.027344-0.019531-0.046875-0.03125-0.011719-0.007813-0.023438-0.015625-0.03125-0.015625z"/>
    </symbol>
    <symbol id="symbol-38" overflow="visible">
      <path d="m0.046875-0.125v-0.1875h0.09375v0.03125 0.078125 0.03125 0.0625c0.007813 0.011719 0.015625 0.015625 0.015625 0.015625v0.03125h0.03125c0.019531 0 0.035156-0.0039062 0.046875-0.015625 0.007813-0.019531 0.015625-0.046875 0.015625-0.078125v-0.15625h0.09375v0.3125h-0.09375v-0.046875c-0.011719 0.023438-0.027344 0.039062-0.046875 0.046875-0.011719 0.0078125-0.027344 0.015625-0.046875 0.015625-0.042969 0-0.074219-0.011719-0.09375-0.03125-0.011719-0.03125-0.015625-0.066406-0.015625-0.10938z"/>
    </symbol>
    <symbol id="symbol-39" overflow="visible">
      <path d="m0.046875-0.42188h0.10938v0.42188h-0.10938z"/>
    </symbol>
    <symbol id="symbol-40" overflow="visible">
      <path d="m0.25-0.42188v0.0625h-0.0625c-0.011719 0-0.023438 0.007813-0.03125 0.015625v0.015625 0.015625h0.09375v0.078125h-0.09375v0.23438h-0.09375v-0.23438h-0.046875v-0.078125h0.046875v-0.015625c0-0.03125 0.0039062-0.050781 0.015625-0.0625 0.019531-0.019531 0.050781-0.03125 0.09375-0.03125z"/>
    </symbol>
    <symbol id="symbol-41" overflow="visible">
      <path d="m0.32812-0.25c0.007813-0.019531 0.023437-0.035156 0.046875-0.046875 0.019531-0.007813 0.035156-0.015625 0.046875-0.015625 0.039063 0 0.070313 0.011719 0.09375 0.03125 0.019531 0.023438 0.03125 0.054688 0.03125 0.09375v0.1875h-0.10938v-0.15625-0.015625c0-0.019531-0.007812-0.035156-0.015625-0.046875 0-0.007812-0.007813-0.015625-0.015625-0.015625-0.023438 0-0.039062 0.011719-0.046875 0.03125-0.011719 0.011719-0.015625 0.027344-0.015625 0.046875v0.15625h-0.09375v-0.15625c0-0.03125-0.007812-0.050781-0.015625-0.0625 0-0.007812-0.011719-0.015625-0.03125-0.015625-0.023437 0-0.039063 0.011719-0.046875 0.03125v0.046875 0.15625h-0.10938v-0.3125h0.10938v0.046875c0.007812-0.007813 0.019531-0.019531 0.03125-0.03125 0.007812-0.007813 0.023438-0.015625 0.046875-0.015625 0.019531 0 0.035156 0.007812 0.046875 0.015625 0.019531 0.011719 0.035156 0.027344 0.046875 0.046875z"/>
    </symbol>
    <symbol id="symbol-42" overflow="visible">
      <path d="m0.35938-0.1875v0.1875h-0.10938v-0.14062-0.046875-0.03125c0-0.007812-0.007812-0.015625-0.015625-0.015625h-0.03125c-0.011719 0-0.023437 0.011719-0.03125 0.03125-0.011719 0.011719-0.015625 0.027344-0.015625 0.046875v0.15625h-0.10938v-0.42188h0.10938v0.15625c0.007812-0.007813 0.019531-0.019531 0.03125-0.03125 0.019531-0.007813 0.039062-0.015625 0.0625-0.015625 0.03125 0 0.054688 0.011719 0.078125 0.03125 0.019531 0.023438 0.03125 0.054688 0.03125 0.09375z"/>
    </symbol>
    <symbol id="symbol-43" overflow="visible">
      <path d="m0.046875-0.40625h0.1875c0.050781 0 0.085937 0.011719 0.10938 0.03125 0.03125 0.023438 0.046875 0.058594 0.046875 0.10938 0 0.042969-0.015625 0.074219-0.046875 0.09375-0.023438 0.023437-0.058594 0.03125-0.10938 0.03125h-0.078125v0.14062h-0.10938zm0.10938 0.078125v0.10938h0.0625c0.019531 0 0.035156-0.003906 0.046875-0.015625 0.007813-0.007813 0.015625-0.019531 0.015625-0.03125 0-0.03125-0.007812-0.046875-0.015625-0.046875-0.011719-0.007812-0.027344-0.015625-0.046875-0.015625z"/>
    </symbol>
    <symbol id="symbol-44" overflow="visible">
      <path d="m0.046875-0.3125h0.10938v0.29688c0 0.039062-0.011719 0.070312-0.03125 0.09375-0.023438 0.03125-0.054688 0.046875-0.09375 0.046875h-0.046875v-0.078125h0.015625c0.019531 0 0.03125-0.0078125 0.03125-0.015625 0.0078125 0 0.015625-0.015625 0.015625-0.046875zm0-0.10938h0.10938v0.078125h-0.10938z"/>
    </symbol>
    <symbol id="symbol-45" overflow="visible">
      <path d="m0.29688-0.29688v0.078125c-0.023437-0.007812-0.039063-0.015625-0.046875-0.015625-0.011719-0.007813-0.027344-0.015625-0.046875-0.015625-0.023437 0-0.042969 0.011719-0.0625 0.03125-0.011719 0.023438-0.015625 0.042969-0.015625 0.0625 0 0.03125 0.003906 0.058594 0.015625 0.078125 0.019531 0.011719 0.039063 0.015625 0.0625 0.015625h0.046875c0.019531-0.0078125 0.035156-0.019531 0.046875-0.03125v0.078125c-0.023437 0.011719-0.039063 0.015625-0.046875 0.015625-0.011719 0.0078125-0.027344 0.015625-0.046875 0.015625-0.0625 0-0.10938-0.015625-0.14062-0.046875-0.023438-0.03125-0.03125-0.070312-0.03125-0.125 0-0.050781 0.0078125-0.085938 0.03125-0.10938 0.03125-0.03125 0.078125-0.046875 0.14062-0.046875h0.046875c0.007812 0 0.023438 0.007812 0.046875 0.015625z"/>
    </symbol>
  </defs>
  <g transform="matrix(1, 0, 0, 1, -39.598421, 111.192104)">
    <g transform="matrix(1, 0, 0, 1, 83.268472, -77.037224)">
      <g transform="matrix(1, 0, 0, 1, -13.771544, 203.71669)">
        <path d="m552.01 151.66c-3.7344 0.011719-7.4609 0.36719-11.129 1.0664-7.3516-14.668-18.719-26.941-32.781-35.395-14.059-8.4492-30.234-12.73-46.637-12.336-14.898 0-29.578 3.6016-42.785 10.5-12.898-4.9688-26.965-6.0508-40.469-3.1133-8.2227-18.152-21.582-33.496-38.43-44.137-16.844-10.641-36.438-16.117-56.359-15.75-20.668-0.40234-40.965 5.5039-58.184 16.938s-30.543 27.848-38.191 47.051c-9.0039-3.7344-18.66-5.6562-28.41-5.6523-18.316-0.5-36.09 6.2734-49.422 18.848-13.332 12.57-21.141 29.914-21.715 48.23 0.058594 5.7305 0.90625 11.422 2.5195 16.922 1.0508 3.793 4.5 6.4141 8.4336 6.4141h199.39c-0.22266 1.9375-0.33594 3.8867-0.33984 5.8359 0.050781 4.7734 0.78125 9.5117 2.1719 14.078 1.0742 3.75 4.5039 6.3359 8.4062 6.3359h293.84c3.9023 0 7.332-2.5859 8.4062-6.3359 1.3906-4.5664 2.1211-9.3047 2.1719-14.078 0-30.562-27.125-55.422-60.488-55.422zm-446.54 32.086c-0.30859-1.9297-0.46484-3.8828-0.47266-5.8359 0.57422-13.676 6.5391-26.566 16.59-35.855 10.051-9.293 23.371-14.227 37.047-13.723 10.285-0.003907 20.375 2.7969 29.184 8.1016 2.3789 1.4375 5.2969 1.6562 7.8633 0.58984 2.5703-1.0625 4.4766-3.2812 5.1445-5.9805 4.9648-17.941 15.797-33.703 30.766-44.77 14.973-11.066 33.219-16.797 51.828-16.277 17.648-0.44141 34.992 4.6953 49.555 14.676 14.562 9.9844 25.605 24.309 31.559 40.93 1.4805 4.5586 6.3555 7.0742 10.926 5.6445 7.8594-2.6055 16.191-3.457 24.414-2.4922-8.2461 7.5586-14.766 16.812-19.109 27.125-7.2734-2.7344-14.98-4.1367-22.75-4.1406-11.195-0.19922-22.227 2.6797-31.895 8.3242-9.668 5.6445-17.598 13.836-22.926 23.684zm489.36 26.25h-279.66c-0.11328-0.96875-0.16797-1.9414-0.16797-2.9141 0.72266-10.711 5.6484-20.699 13.695-27.801 8.0508-7.1016 18.578-10.738 29.293-10.121 8.2695-0.007812 16.391 2.168 23.547 6.3086 2.3711 1.375 5.2461 1.5625 7.7773 0.50391 2.5273-1.0586 4.4141-3.2383 5.0938-5.8945 4.3398-14.23 13.277-26.621 25.41-35.234 12.137-8.6094 26.781-12.953 41.648-12.348 14.129-0.50781 28.059 3.3945 39.867 11.168 11.805 7.7734 20.898 19.031 26.012 32.207 1.5273 4.457 6.3086 6.9023 10.816 5.5391 4.4805-1.4375 9.1484-2.1953 13.852-2.25 10.715-0.61719 21.242 3.0195 29.293 10.121 8.0469 7.1016 12.973 17.09 13.695 27.801 0 0.97266-0.054688 1.9453-0.16797 2.9141z"/>
        <path d="m288.75 87.5c-39.945 0-59.5 38.211-60.332 39.84-2.1758 4.3203-0.43359 9.5859 3.8867 11.758 4.3203 2.1758 9.5859 0.4375 11.758-3.8828 0.16016-0.32422 15.672-30.215 44.688-30.215 4.832 0 8.75-3.918 8.75-8.75s-3.918-8.75-8.75-8.75z"/>
        <path d="m201.25 218.75h-70c-2.4258-0.003906-4.7422 0.99609-6.4023 2.7617-1.6562 1.7695-2.5078 4.1484-2.3477 6.5664l8.75 131.25c0.24219 3.6484 2.7305 6.7617 6.2383 7.8047 0.8125 0.24609 1.6602 0.37109 2.5117 0.36719 2.7539 0 5.3477-1.2969 7-3.5l52.5-70c1.9883-2.6523 2.3086-6.1992 0.82812-9.1641-1.4844-2.9648-4.5156-4.8359-7.8281-4.8359h-11.172l27.52-48.125h-0.003906c1.5664-2.7109 1.5625-6.0508-0.003906-8.7578-1.5664-2.707-4.4609-4.375-7.5898-4.3672zm-42.594 65.625c-1.5664 2.7109-1.5625 6.0508 0.003906 8.7578 1.5664 2.707 4.4609 4.375 7.5898 4.3672h8.75l-27.844 37.117-6.5508-98.367h45.57z"/>
        <path d="m367.5 262.5h-70c-2.4258-0.003906-4.7422 0.99609-6.4023 2.7617-1.6562 1.7695-2.5078 4.1484-2.3477 6.5664l8.75 131.25c0.24219 3.6484 2.7305 6.7617 6.2383 7.8047 0.8125 0.24609 1.6602 0.37109 2.5117 0.36719 2.7539 0 5.3477-1.2969 7-3.5l52.5-70c1.9883-2.6523 2.3086-6.1992 0.82812-9.1641-1.4844-2.9648-4.5156-4.8359-7.8281-4.8359h-11.172l27.52-48.125h-0.003906c1.5664-2.7109 1.5625-6.0508-0.003906-8.7578-1.5664-2.707-4.4609-4.375-7.5898-4.3672zm-42.594 65.625c-1.5664 2.7109-1.5625 6.0508 0.003906 8.7578 1.5664 2.707 4.4609 4.375 7.5898 4.3672h8.75l-27.844 37.117-6.5508-98.367h45.57z"/>
        <path d="m551.25 245h-70c-2.4258-0.003906-4.7422 0.99609-6.4023 2.7617-1.6562 1.7695-2.5078 4.1484-2.3477 6.5664l8.75 131.25c0.24219 3.6484 2.7305 6.7617 6.2383 7.8047 0.8125 0.24609 1.6602 0.37109 2.5117 0.36719 2.7539 0 5.3477-1.2969 7-3.5l52.5-70c1.9883-2.6523 2.3086-6.1992 0.82812-9.1641-1.4844-2.9648-4.5156-4.8359-7.8281-4.8359h-11.172l27.52-48.125h-0.003906c1.5664-2.7109 1.5625-6.0508-0.003906-8.7578-1.5664-2.707-4.4609-4.375-7.5898-4.3672zm-42.594 65.625c-1.5664 2.7109-1.5625 6.0508 0.003906 8.7578 1.5664 2.707 4.4609 4.375 7.5898 4.3672h8.75l-27.844 37.117-6.5508-98.367h45.57z"/>
        <path d="m262.5 350v-43.75c0-4.832-3.918-8.75-8.75-8.75s-8.75 3.918-8.75 8.75v43.75c0 4.832 3.918 8.75 8.75 8.75s8.75-3.918 8.75-8.75z"/>
        <path d="m201.25 332.5c-4.832 0-8.75 3.918-8.75 8.75v43.75c0 4.832 3.918 8.75 8.75 8.75s8.75-3.918 8.75-8.75v-43.75c0-2.3203-0.92188-4.5469-2.5625-6.1875s-3.8672-2.5625-6.1875-2.5625z"/>
        <path d="m166.25 455v-43.75c0-4.832-3.918-8.75-8.75-8.75s-8.75 3.918-8.75 8.75v43.75c0 4.832 3.918 8.75 8.75 8.75s8.75-3.918 8.75-8.75z"/>
        <path d="m105 358.75c-4.832 0-8.75 3.918-8.75 8.75v43.75c0 4.832 3.918 8.75 8.75 8.75s8.75-3.918 8.75-8.75v-43.75c0-2.3203-0.92188-4.5469-2.5625-6.1875s-3.8672-2.5625-6.1875-2.5625z"/>
        <path d="m245 446.25v-43.75c0-4.832-3.918-8.75-8.75-8.75s-8.75 3.918-8.75 8.75v43.75c0 4.832 3.918 8.75 8.75 8.75s8.75-3.918 8.75-8.75z"/>
        <path d="m367.5 376.25v43.75c0 4.832 3.918 8.75 8.75 8.75s8.75-3.918 8.75-8.75v-43.75c0-4.832-3.918-8.75-8.75-8.75s-8.75 3.918-8.75 8.75z"/>
        <path d="m603.75 306.25c-4.832 0-8.75 3.918-8.75 8.75v43.75c0 4.832 3.918 8.75 8.75 8.75s8.75-3.918 8.75-8.75v-43.75c0-2.3203-0.92188-4.5469-2.5625-6.1875s-3.8672-2.5625-6.1875-2.5625z"/>
        <path d="m551.25 428.75v-43.75c0-4.832-3.918-8.75-8.75-8.75s-8.75 3.918-8.75 8.75v43.75c0 4.832 3.918 8.75 8.75 8.75s8.75-3.918 8.75-8.75z"/>
        <path d="m490 455v43.75c0 4.832 3.918 8.75 8.75 8.75s8.75-3.918 8.75-8.75v-43.75c0-4.832-3.918-8.75-8.75-8.75s-8.75 3.918-8.75 8.75z"/>
        <path d="m595 463.75v-43.75c0-4.832-3.918-8.75-8.75-8.75s-8.75 3.918-8.75 8.75v43.75c0 4.832 3.918 8.75 8.75 8.75s8.75-3.918 8.75-8.75z"/>
        <path d="m411.25 332.5v-43.75c0-4.832-3.918-8.75-8.75-8.75s-8.75 3.918-8.75 8.75v43.75c0 4.832 3.918 8.75 8.75 8.75s8.75-3.918 8.75-8.75z"/>
        <path d="m455 402.5v-43.75c0-4.832-3.918-8.75-8.75-8.75s-8.75 3.918-8.75 8.75v43.75c0 4.832 3.918 8.75 8.75 8.75s8.75-3.918 8.75-8.75z"/>
        <path d="m428.75 446.25v43.75c0 4.832 3.918 8.75 8.75 8.75s8.75-3.918 8.75-8.75v-43.75c0-4.832-3.918-8.75-8.75-8.75s-8.75 3.918-8.75 8.75z"/>
        <path d="m96.25 306.25c2.3203 0 4.5469-0.92188 6.1875-2.5625s2.5625-3.8672 2.5625-6.1875v-43.75c0-4.832-3.918-8.75-8.75-8.75s-8.75 3.918-8.75 8.75v43.75c0 2.3203 0.92188 4.5469 2.5625 6.1875s3.8672 2.5625 6.1875 2.5625z"/>
      </g>
    </g>
  </g>
</svg>