<?xml version="1.0" encoding="UTF-8"?>
<svg version="1.1" viewBox="0 0 700 700" xmlns="http://www.w3.org/2000/svg" xmlns:xlink="http://www.w3.org/1999/xlink">

 <g>
  <path d="m288.4 274.4c28 0 50.398-22.398 50.398-50.398s-22.398-50.398-50.398-50.398-50.398 22.398-50.398 50.398 22.398 50.398 50.398 50.398zm0-89.598c21.84 0 39.199 17.359 39.199 39.199s-17.359 39.199-39.199 39.199c-21.84 0-39.199-17.359-39.199-39.199s17.359-39.199 39.199-39.199zm-5.5977-28v-16.801c0-3.3594 2.2383-5.6016 5.6016-5.6016 3.3594 0 5.6016 2.2383 5.6016 5.6016v16.801c0 3.3594-2.2383 5.6016-5.6016 5.6016-3.3633-0.003906-5.6016-2.2422-5.6016-5.6016zm-57.68 11.758c-2.2383-2.2383-2.2383-5.6016 0-7.8398 2.2383-2.2383 5.6016-2.2383 7.8398 0l11.762 11.762c2.2383 2.2383 2.2383 5.6016 0 7.8398-2.1797 2.1719-5.5938 2.2461-7.8398 0zm-26.32 55.441c0-3.3594 2.2383-5.6016 5.6016-5.6016h16.801c3.3594 0 5.6016 2.2383 5.6016 5.6016 0 3.3594-2.2383 5.6016-5.6016 5.6016h-16.801c-3.3633 0-5.6016-2.2422-5.6016-5.6016zm45.918 43.68c2.2383 2.2383 2.2383 5.6016 0 7.8398l-11.762 11.762c-2.2305 2.2305-5.668 2.1797-7.8398 0-2.2383-2.2344-2.2383-5.6016 0-7.8398l11.762-11.762c2.2422-2.2383 5.6016-2.2383 7.8398 0zm43.68 17.922c3.3594 0 5.6016 2.2383 5.6016 5.6016v16.801c0 3.3594-2.2383 5.6016-5.6016 5.6016-3.3594 0-5.6016-2.2383-5.6016-5.6016v-16.801c0.003906-3.3633 2.2422-5.6016 5.6016-5.6016zm51.523-17.922 11.762 11.762c2.2383 2.2383 2.2383 5.6016 0 7.8398-2.1719 2.1797-5.6055 2.2305-7.8398 0l-11.762-11.762c-2.2383-2.2383-2.2383-5.6016 0-7.8398 2.2383-2.2383 5.5977-2.2383 7.8398 0zm15.68-49.281h16.801c3.3594 0 5.6016 2.2383 5.6016 5.6016 0 3.3594-2.2383 5.6016-5.6016 5.6016h-16.801c-3.3594 0-5.6016-2.2383-5.6016-5.6016 0-3.3594 2.2383-5.6016 5.6016-5.6016zm-23.523-38.078c-2.2383-2.2383-2.2383-5.6016 0-7.8398l11.762-11.762c2.2383-2.2383 5.6016-2.2383 7.8398 0 2.2383 2.2383 2.2383 5.6016 0 7.8398l-11.762 11.762c-2.1719 2.1719-5.5859 2.2461-7.8398 0zm185.92 189.28c0 3.3594-2.2383 5.6016-5.6016 5.6016-7.2812 0-14.559-2.8008-19.602-8.3984-5.0391 5.6016-12.32 8.3984-19.602 8.3984s-14.559-2.8008-19.602-8.3984c-5.0391 5.6016-12.32 8.3984-19.602 8.3984s-14.559-2.8008-19.602-8.3984c-5.0391 5.6016-12.32 8.3984-19.602 8.3984s-14.559-2.8008-19.602-8.3984c-5.0391 5.6016-12.32 8.3984-19.602 8.3984s-14.559-2.8008-19.602-8.3984c-5.0391 5.6016-12.32 8.3984-19.602 8.3984s-14.559-2.8008-19.602-8.3984c-5.0391 5.6016-12.32 8.3984-19.602 8.3984s-14.559-2.8008-19.602-8.3984c-5.0391 5.6016-12.32 8.3984-19.602 8.3984-3.3594 0-5.6016-2.2383-5.6016-5.6016 0-3.3594 2.2383-5.6016 5.6016-5.6016 6.1602 0 11.762-3.3594 14.559-8.9609 2.2383-3.3672 7.8398-3.3672 10.078 0 2.8008 5.6016 8.3984 8.9609 14.559 8.9609s11.762-3.3594 14.559-8.9609c2.2383-3.3672 7.8398-3.3672 10.078 0 2.8008 5.6016 8.3984 8.9609 14.559 8.9609 6.1602 0 11.762-3.3594 14.559-8.9609 2.2383-3.3672 7.8398-3.3672 10.078 0 2.8008 5.6016 8.3984 8.9609 14.559 8.9609s11.762-3.3594 14.559-8.9609c2.2773-3.3594 7.8789-3.3594 10.117 0 2.8008 5.6016 8.3984 8.9609 14.559 8.9609s11.762-3.3594 14.559-8.9609c2.2461-3.3594 7.8438-3.3594 10.086 0 2.8008 5.6016 8.3984 8.9609 14.559 8.9609s11.762-3.3594 14.559-8.9609c2.2422-3.3594 7.8398-3.3594 10.082 0 2.8008 5.6016 8.3984 8.9609 14.559 8.9609 6.1602 0 11.762-3.3594 14.559-8.9609 2.2422-3.3594 7.8438-3.3594 10.082 0 2.8008 5.6016 8.3984 8.9609 14.559 8.9609 3.3633 0 5.6016 2.2383 5.6016 5.6016zm-50.398 50.398c0 3.3594-2.2383 5.6016-5.6016 5.6016-7.2812 0-14.559-2.8008-19.602-8.3984-5.0391 5.6016-12.32 8.3984-19.602 8.3984s-14.559-2.8008-19.602-8.3984c-5.0391 5.6016-12.32 8.3984-19.602 8.3984s-14.559-2.8008-19.602-8.3984c-5.0391 5.6016-12.32 8.3984-19.602 8.3984s-14.559-2.8008-19.602-8.3984c-5.0391 5.6016-12.32 8.3984-19.602 8.3984s-14.559-2.8008-19.602-8.3984c-5.0391 5.6016-12.32 8.3984-19.602 8.3984s-14.559-2.8008-19.602-8.3984c-5.0391 5.6016-12.32 8.3984-19.602 8.3984s-14.559-2.8008-19.602-8.3984c-5.0391 5.6016-12.32 8.3984-19.602 8.3984-3.3594 0-5.6016-2.2383-5.6016-5.6016 0-3.3594 2.2383-5.6016 5.6016-5.6016 6.1602 0 11.762-3.3594 14.559-8.9609 2.2383-3.3672 7.8398-3.3672 10.078 0 2.8008 5.6016 8.3984 8.9609 14.559 8.9609 6.1602 0 11.762-3.3594 14.559-8.9609 2.2383-3.3672 7.8398-3.3672 10.078 0 2.8008 5.6016 8.3984 8.9609 14.559 8.9609s11.762-3.3594 14.559-8.9609c2.2383-3.3672 7.8398-3.3672 10.078 0 2.8008 5.6016 8.3984 8.9609 14.559 8.9609 6.1602 0 11.762-3.3594 14.559-8.9609 2.2383-3.3672 7.8398-3.3672 10.078 0 2.8008 5.6016 8.3984 8.9609 14.559 8.9609s11.762-3.3594 14.559-8.9609c2.2812-3.3594 7.8828-3.3594 10.121 0.003906 2.8008 5.6016 8.3984 8.9609 14.559 8.9609s11.762-3.3594 14.559-8.9609c2.2422-3.3633 7.8438-3.3633 10.082 0 2.8008 5.6016 8.3984 8.9609 14.559 8.9609s11.762-3.3594 14.559-8.9609c2.2461-3.3633 7.8438-3.3633 10.086 0 2.8008 5.6016 8.3984 8.9609 14.559 8.9609 3.3594-0.003906 5.6016 2.2383 5.6016 5.5977z"/>

 </g>
</svg>
