<?xml version="1.0" encoding="UTF-8"?>
<svg width="700pt" height="700pt" version="1.1" viewBox="0 0 700 700" xmlns="http://www.w3.org/2000/svg" xmlns:xlink="http://www.w3.org/1999/xlink">

 <g>
  <path d="m222.73 513.61c0.46875 9.4961 6.3672 19.746 17.332 23.441 2.8242 1.0234 5.6602 1.4883 8.418 1.4883 7.8555 0 15.086-3.7617 19.734-9.0547 16.992-19.332-2.8281-65.012-2.8281-65.012 0 0.003907-43.926 23.43-42.656 49.137zm32.867 4.7852c-1.7812 2.0273-4.5742 3.3438-7.1172 3.3438-0.91797 0-1.8047-0.15625-2.6992-0.48828-0.11719-0.042968-0.23438-0.085937-0.35156-0.11719-4.4141-1.4883-5.7891-5.9531-5.9141-8.3477-0.28125-5.6836 7.0859-14.332 16.738-22.109 2.7148 12.09 3.0938 23.445-0.65625 27.719zm-20.973-81.246c16.992-19.332-2.8281-65.012-2.8281-65.012s-43.934 23.438-42.656 49.133c0.46484 9.5039 6.3633 19.75 17.332 23.445 2.8242 1.0234 5.6562 1.4844 8.4062 1.4844 7.8633 0 15.094-3.7656 19.746-9.0508zm-12.609-11.098c-1.7852 2.0312-4.5859 3.3477-7.1289 3.3477-0.91797 0-1.7969-0.15625-2.6953-0.48047-0.11719-0.042969-0.23437-0.085937-0.35156-0.125-4.4141-1.4844-5.7891-5.9414-5.9062-8.3477-0.28125-5.6719 7.0664-14.309 16.699-22.074 2.6133 11.707 3.25 23.277-0.61719 27.68zm188.76 87.555c0.46875 9.5039 6.3672 19.75 17.332 23.445 2.8242 1.0234 5.6602 1.4883 8.4102 1.4883 7.8555 0 15.086-3.7617 19.738-9.0547 16.992-19.332-2.8242-65.012-2.8242-65.012 0.003906 0.003907-43.934 23.43-42.656 49.133zm32.867 4.7812c-1.7852 2.0273-4.582 3.3477-7.125 3.3477-0.91406 0-1.793-0.15625-2.6875-0.48828-0.11719-0.039062-0.24219-0.085938-0.35938-0.11719-4.4141-1.4883-5.7891-5.9531-5.9141-8.3555-0.28125-5.6719 7.0664-14.309 16.699-22.074 2.6172 11.719 3.2539 23.281-0.61328 27.688zm-20.973-81.238c16.992-19.332-2.8242-65.012-2.8242-65.012s-43.938 23.438-42.66 49.133c0.46875 9.5039 6.3672 19.75 17.332 23.445 2.8242 1.0234 5.6562 1.4844 8.4102 1.4844 7.8516 0 15.09-3.7656 19.742-9.0508zm-12.613-11.098c-1.793 2.0312-4.5859 3.3477-7.1289 3.3477-0.91797 0-1.8047-0.15625-2.6992-0.48047-0.11719-0.042969-0.23438-0.085937-0.35156-0.11719-4.4141-1.4883-5.7891-5.9531-5.9141-8.3555-0.28125-5.6797 7.0898-14.332 16.738-22.102 2.7188 12.086 3.1016 23.438-0.64453 27.707zm-93.305 87.555c0.47656 9.5039 6.3672 19.75 17.332 23.445 2.8242 1.0234 5.6602 1.4883 8.418 1.4883 7.8555 0 15.082-3.7617 19.734-9.0547 16.992-19.332-2.8242-65.012-2.8242-65.012 0 0.003907-43.926 23.43-42.66 49.133zm32.871 4.7812c-1.7852 2.0273-4.582 3.3477-7.1172 3.3477-0.91797 0-1.8047-0.15625-2.6992-0.48828-0.11719-0.042969-0.23438-0.085938-0.35156-0.11719-4.4141-1.4883-5.7891-5.9531-5.9062-8.3477-0.28125-5.6836 7.0859-14.332 16.738-22.109 2.7031 12.094 3.0859 23.449-0.66406 27.715zm121.58-97.113c0.46875 9.5039 6.3672 19.75 17.332 23.445 2.8242 1.0234 5.6562 1.4844 8.4102 1.4844 7.8555 0 15.094-3.7617 19.738-9.0508 16.992-19.332-2.8242-65.012-2.8242-65.012 0.003907 0.003907-43.934 23.43-42.656 49.133zm32.867 4.7812c-1.7852 2.0273-4.582 3.3438-7.125 3.3438-0.91797 0-1.8047-0.15625-2.6992-0.48047-0.11719-0.042969-0.23438-0.085937-0.35156-0.11719-4.4141-1.4883-5.7891-5.9531-5.9141-8.3555-0.28125-5.6797 7.0898-14.332 16.738-22.102 2.7148 12.086 3.1016 23.438-0.64844 27.711zm-175.42 11.094c16.984-19.332-2.8242-65.012-2.8242-65.012s-43.938 23.438-42.66 49.133c0.47656 9.5039 6.3672 19.75 17.332 23.445 2.8242 1.0234 5.6562 1.4844 8.4062 1.4844 7.8594 0 15.086-3.7656 19.746-9.0508zm-12.617-11.098c-1.7852 2.0312-4.5859 3.3477-7.1289 3.3477-0.91797 0-1.7969-0.15625-2.6953-0.48047-0.11719-0.042969-0.23438-0.085937-0.35156-0.11719-4.4141-1.4883-5.7891-5.9531-5.9141-8.3555-0.28125-5.6797 7.0859-14.332 16.738-22.102 2.7188 12.086 3.0977 23.438-0.64844 27.707zm247.97-250.3c-3.543-85.812-74.199-154.3-160.89-154.3-60.73 0-113.59 33.633-141.04 83.266-16.055-7.4766-33.945-11.68-52.824-11.68-69.176-0.003906-125.26 56.082-125.26 125.26 0 69.188 56.086 125.27 125.27 125.27h319.01c48.445 0 87.723-39.273 87.723-87.723 0.003906-35.711-21.355-66.422-51.988-80.102zm-35.73 151.02h-319.01c-59.809 0-108.46-48.66-108.46-108.47 0-59.809 48.66-108.46 108.46-108.46 15.941 0 31.328 3.3984 45.73 10.113 2.2891 1.0625 4.7031 1.5742 7.0859 1.5742 5.9414 0 11.664-3.1602 14.711-8.6758 25.438-46.008 73.844-74.598 126.33-74.598 77.598 0 140.89 60.699 144.1 138.19 0.26172 6.3711 4.1055 12.039 9.9297 14.645 25.543 11.406 42.043 36.832 42.043 64.766 0.007813 39.109-31.812 70.922-70.914 70.922z"/>
  
 </g>
</svg>
