<?xml version="1.0" encoding="UTF-8"?>
<svg width="700pt" height="700pt" version="1.1" viewBox="0 0 700 700" xmlns="http://www.w3.org/2000/svg" xmlns:xlink="http://www.w3.org/1999/xlink">

 <g>
  <path d="m574.56 419.33c-6.9062-5.1133-13.102-11.121-18.422-17.863-12.992-15.066-27.723-31.863-57.176-31.863-29.457 0-44.184 16.801-57.176 31.863-11.762 13.496-21.059 24.137-40.266 24.137s-28.559-10.641-40.32-24.137c-12.992-15.066-27.719-31.863-57.176-31.863-29.457 0-44.184 16.801-57.176 31.863-11.703 13.496-21 24.137-40.262 24.137-19.266 0-28.504-10.641-40.266-24.137-8.0547-10.582-18.219-19.371-29.848-25.816-5.5156-2.5039-12.02-0.16797-14.684 5.2695-2.668 5.4375-0.52734 12.008 4.8281 14.836 8.8672 5.2188 16.613 12.148 22.789 20.383 13.051 15.062 27.777 31.863 57.18 31.863 29.398 0 44.184-16.801 57.176-31.863 11.758-13.496 21.055-24.137 40.262-24.137 19.207 0 28.504 10.641 40.266 24.137 12.992 15.062 27.719 31.863 57.23 31.863s44.184-16.801 57.176-31.863c11.703-13.496 21-24.137 40.266-24.137 19.266 0 28.559 10.641 40.266 24.137h-0.003906c6.625 8.3281 14.367 15.695 23.016 21.895 2.4805 1.6953 5.5391 2.3203 8.4844 1.7383 2.9453-0.57812 5.5352-2.3203 7.1875-4.8281 1.6484-2.5078 2.2266-5.5703 1.5977-8.5078-0.63281-2.9375-2.4141-5.4961-4.9492-7.1055z"/>
  <path d="m574.56 335.33c-6.9023-5.1133-13.098-11.121-18.422-17.863-12.992-15.066-27.723-31.863-57.176-31.863-29.457 0-44.184 16.801-57.176 31.863-11.762 13.496-21.059 24.137-40.32 24.137-19.266 0-28.504-10.641-40.266-24.137-12.992-15.066-27.719-31.863-57.176-31.863-29.457 0-44.184 16.801-57.176 31.863-11.703 13.496-21 24.137-40.262 24.137-19.266 0-28.504-10.641-40.266-24.137-8.0547-10.582-18.219-19.371-29.848-25.816-5.5156-2.5039-12.02-0.16797-14.684 5.2695-2.668 5.4375-0.52734 12.008 4.8281 14.836 8.8672 5.2188 16.613 12.148 22.789 20.383 13.051 15.062 27.777 31.863 57.18 31.863 29.398 0 44.184-16.801 57.176-31.863 11.758-13.496 21-24.137 40.262-24.137 19.266 0 28.559 10.641 40.266 24.137 12.992 15.062 27.719 31.863 57.176 31.863 29.457 0 44.184-16.801 57.176-31.863 11.758-13.496 21.055-24.137 40.32-24.137 19.266 0 28.559 10.641 40.266 24.137h-0.003906c6.6211 8.3281 14.367 15.699 23.016 21.895 2.4805 1.6953 5.5391 2.3203 8.4844 1.7383 2.9453-0.57812 5.5352-2.3203 7.1875-4.8281 1.6484-2.5078 2.2266-5.5703 1.5977-8.5078-0.63281-2.9375-2.4141-5.4961-4.9492-7.1055z"/>
  <path d="m574.56 245.73c-6.9062-5.1094-13.102-11.117-18.422-17.863-12.992-15.062-27.723-31.863-57.176-31.863-29.457 0-44.184 16.801-57.176 31.863-11.762 13.496-21.059 24.137-40.266 24.137s-28.559-10.641-40.32-24.137c-12.992-15.062-27.719-31.863-57.176-31.863-29.457 0-44.184 16.801-57.176 31.863-11.703 13.496-21 24.137-40.262 24.137-19.266 0-28.504-10.641-40.266-24.137-8.0547-10.578-18.219-19.371-29.848-25.816-5.5156-2.5-12.02-0.16797-14.684 5.2695-2.668 5.4375-0.52734 12.008 4.8281 14.836 8.8672 5.2227 16.613 12.148 22.789 20.383 13.051 15.066 27.777 31.863 57.18 31.863 29.398 0 44.184-16.801 57.176-31.863 11.758-13.496 21.055-24.137 40.262-24.137 19.207 0 28.504 10.641 40.266 24.137 12.992 15.066 27.719 31.863 57.23 31.863s44.184-16.801 57.176-31.863c11.703-13.496 21-24.137 40.266-24.137 19.266 0 28.559 10.641 40.266 24.137h-0.003906c6.625 8.3281 14.367 15.699 23.016 21.898 2.4805 1.6914 5.5391 2.3164 8.4844 1.7383 2.9453-0.58203 5.5352-2.3203 7.1875-4.8281 1.6484-2.5078 2.2266-5.5742 1.5977-8.5117-0.63281-2.9336-2.4141-5.4961-4.9492-7.1055z"/>
  <path d="m574.56 161.73c-6.9023-5.1133-13.098-11.117-18.422-17.863-12.992-15.062-27.723-31.863-57.176-31.863-29.457 0-44.184 16.801-57.176 31.863-11.762 13.496-21.059 24.137-40.32 24.137-19.266 0-28.504-10.641-40.266-24.137-12.992-15.062-27.719-31.863-57.176-31.863-29.457 0-44.184 16.801-57.176 31.863-11.703 13.496-21 24.137-40.262 24.137-19.266 0-28.504-10.641-40.266-24.137-8.0547-10.578-18.219-19.371-29.848-25.816-5.5156-2.5-12.02-0.16797-14.684 5.2695-2.668 5.4375-0.52734 12.008 4.8281 14.836 8.8672 5.2227 16.613 12.148 22.789 20.383 13.051 15.066 27.777 31.863 57.18 31.863 29.398 0 44.184-16.801 57.176-31.863 11.758-13.496 21-24.137 40.262-24.137 19.266 0 28.559 10.641 40.266 24.137 12.992 15.066 27.719 31.863 57.176 31.863 29.457 0 44.184-16.801 57.176-31.863 11.758-13.496 21.055-24.137 40.32-24.137 19.266 0 28.559 10.641 40.266 24.137h-0.003906c6.6211 8.3281 14.367 15.699 23.016 21.898 2.4805 1.6914 5.5391 2.3164 8.4844 1.7383 2.9453-0.58203 5.5352-2.3203 7.1875-4.8281 1.6484-2.5078 2.2266-5.5742 1.5977-8.5117-0.63281-2.9336-2.4141-5.4961-4.9492-7.1055z"/>

 </g>
</svg>
