<?xml version="1.0" encoding="UTF-8"?>
<svg version="1.1" viewBox="0 0 700 700" xmlns="http://www.w3.org/2000/svg">
 <g>
  <path d="m260.79 35.102c-15.289 0.73438-30.074 5.6836-42.723 14.297-12.652 8.6133-22.672 20.559-28.953 34.512-20.84 46.27-31.617 96.434-31.617 147.18v153.91h13.125v140h26.25v-140h13.125v-114.74c0-29.293 4.6602-58.402 13.809-86.234 3.3789-10.293 11.734-18.18 22.207-20.961 10.469-2.7812 21.637-0.078125 29.68 7.1875 19.793-11.305 34.832-29.383 42.344-50.902 7.5156-21.52 6.9922-45.031-1.4648-66.199-15.781-12.602-35.613-19.02-55.781-18.047zm0.85156 17.465c14.316-0.67969 28.461 3.3555 40.266 11.484 5.0195 15.188 5.1875 31.555 0.47656 46.84-4.7109 15.281-14.066 28.719-26.762 38.441-12.852-6.1523-27.727-6.4688-40.828-0.875s-23.156 16.562-27.598 30.098c-9.7344 29.594-14.695 60.551-14.699 91.703v97.242h-17.5v-136.41c0.003906-48.27 10.254-95.988 30.078-140 4.957-11.016 12.867-20.441 22.848-27.242 9.9844-6.7969 21.656-10.703 33.719-11.281z"/>
  <path d="m369.95 87.5c-4.832 0-8.75 3.918-8.75 8.75s3.918 8.75 8.75 8.75h35c4.832 0 8.75-3.918 8.75-8.75s-3.918-8.75-8.75-8.75z"/>
  <path d="m434.35 87.5c-4.832 0-8.75 3.918-8.75 8.75s3.918 8.75 8.75 8.75h35c4.832 0 8.75-3.918 8.75-8.75s-3.918-8.75-8.75-8.75z"/>
  <path d="m498.75 87.5c-4.832 0-8.75 3.918-8.75 8.75s3.918 8.75 8.75 8.75h35c4.832 0 8.75-3.918 8.75-8.75s-3.918-8.75-8.75-8.75z"/>
  <path d="m338.86 176.59c-3.7852-3.0078-4.4141-8.5117-1.4062-12.293 3.0078-3.7852 8.5117-4.4141 12.293-1.4062l27.398 21.777c3.7539 3.0156 4.3672 8.4961 1.3711 12.266-2.9961 3.7695-8.4727 4.4102-12.258 1.4336z"/>
  <path d="m389.27 216.66c-3.7812-3.0078-4.4141-8.5117-1.4062-12.297 3.0078-3.7812 8.5117-4.4102 12.297-1.4062l27.398 21.777v0.003906c3.7539 3.0156 4.3633 8.4961 1.3672 12.266-2.9961 3.7656-8.4727 4.4062-12.258 1.4336z"/>
  <path d="m439.69 256.73c-3.7539-3.0156-4.3672-8.4961-1.3711-12.266 2.9961-3.7695 8.4727-4.4102 12.258-1.4336l27.398 21.777c3.7539 3.0156 4.3672 8.5 1.3711 12.266-2.9961 3.7695-8.4727 4.4102-12.258 1.4336z"/>
  <path d="m366.23 126.91c-4.5547-1.5625-9.5117 0.84766-11.102 5.3906-1.5859 4.5469 0.79688 9.5195 5.332 11.129l33.047 11.535c4.5586 1.5859 9.543-0.82422 11.133-5.3828 1.5938-4.5586-0.80859-9.543-5.3672-11.141z"/>
  <path d="m427.04 148.12c-4.5547-1.5586-9.5117 0.85156-11.098 5.3945-1.5859 4.5469 0.79297 9.5156 5.3281 11.129l33.047 11.535c4.5625 1.5898 9.5508-0.81641 11.145-5.3789 1.5898-4.5625-0.81641-9.5508-5.3789-11.145z"/>
  <path d="m487.84 169.35c-4.5625-1.5898-9.5508 0.81641-11.145 5.3789-1.5898 4.5625 0.81641 9.5508 5.3789 11.145l33.047 11.531h-0.003906c4.5547 1.5625 9.5117-0.84766 11.098-5.3906 1.5859-4.5469-0.79297-9.5195-5.332-11.129z"/>
 </g>
</svg>
