<?xml version="1.0" encoding="UTF-8"?>
<svg width="700pt" height="700pt" version="1.1" viewBox="0 0 700 700" xmlns="http://www.w3.org/2000/svg" xmlns:xlink="http://www.w3.org/1999/xlink">

 <g>
  <path d="m609.28 449.95h-48.281c0.81641-1.8281 1.4805-3.7305 1.8984-5.7383h9.3125c10.102 0 18.316-8.5039 18.316-18.961v-24.637c0-13.367-10.441-24.238-23.273-24.238h-16.91c-0.51562 0-1.043-0.45312-1.3164-1.1328l-8.3984-20.715c-4.9102-12.125-16.219-19.961-28.805-19.961l-63.453 0.003907c-12.48 0-23.746 7.7383-28.699 19.711l-7.3945 17.852c-1.0703 2.582-3.3672 4.25-5.8516 4.25h-0.023437c-12.836 0-23.281 10.871-23.281 24.238v24.637c0 10.457 8.2188 18.961 18.32 18.961h9.3125c0.41797 2.0039 1.082 3.9102 1.8984 5.7383l-126.05-0.007813c0.81641-1.8281 1.4844-3.7305 1.8984-5.7383h9.3164c10.102 0 18.316-8.5039 18.316-18.961v-24.637c0-13.367-10.441-24.238-23.277-24.238h-16.91c-0.51562 0-1.0469-0.45312-1.3203-1.1328l-8.3945-20.715c-4.918-12.125-16.223-19.961-28.809-19.961l-63.445 0.003907c-12.48 0-23.746 7.7383-28.703 19.711l-7.3984 17.852c-1.0703 2.582-3.3633 4.25-5.8477 4.25h-0.027344c-12.836 0-23.273 10.871-23.273 24.238v24.637c0 10.457 8.2188 18.961 18.316 18.961h9.3125c0.41797 2.0039 1.082 3.9102 1.8984 5.7383l-48.277-0.007813c-4.6406 0-8.3984 3.7617-8.3984 8.3984 0 4.6367 3.7578 8.3984 8.3984 8.3984h445.23l74.078 0.003906c4.6367 0 8.3984-3.7617 8.3984-8.3984 0.003906-4.6406-3.7617-8.4023-8.3984-8.4023zm-471.28-22.535h-10.961c-0.71875 0-1.5195-0.88672-1.5195-2.1602v-24.637c0-4.1016 2.9023-7.4375 6.4766-7.4375h0.027344c9.3008 0 17.688-5.7383 21.367-14.617l7.3984-17.852c2.3477-5.6758 7.5234-9.3398 13.184-9.3398h63.449c5.7109 0 10.906 3.7188 13.238 9.4727l8.3906 20.711c2.8555 7.0664 9.4883 11.625 16.895 11.625h16.91c3.5703 0 6.4766 3.3359 6.4766 7.4375v24.637c0 1.2734-0.79688 2.1602-1.5195 2.1602h-10.965c-4.3086-10.133-14.363-17.258-26.055-17.258s-21.746 7.125-26.055 17.258h-44.629c-4.3086-10.133-14.363-17.258-26.055-17.258-11.688-0.003906-21.742 7.1211-26.055 17.258zm14.555 11.035c0-6.3398 5.1602-11.496 11.5-11.496s11.5 5.1562 11.5 11.496c0 6.3438-5.1562 11.5-11.5 11.5-6.3398 0-11.5-5.1562-11.5-11.5zm37.305 11.5c0.81641-1.8281 1.4844-3.7305 1.8984-5.7383h41.332c0.41797 2.0039 1.082 3.9102 1.8984 5.7383zm59.434-11.5c0-6.3398 5.1602-11.496 11.5-11.496s11.5 5.1562 11.5 11.496c0 6.3438-5.1562 11.5-11.5 11.5-6.3398 0-11.5-5.1562-11.5-11.5zm163.11-11.035h-10.961c-0.71484 0-1.5195-0.88672-1.5195-2.1602v-24.637c0-4.1016 2.9102-7.4375 6.4805-7.4375h0.023437c9.3008 0 17.691-5.7383 21.379-14.625l7.3867-17.844c2.3516-5.6758 7.5234-9.3398 13.18-9.3398h63.453c5.7109 0 10.906 3.7188 13.234 9.4727l8.3984 20.715c2.8594 7.0586 9.4883 11.621 16.887 11.621h16.91c3.5703 0 6.4766 3.3359 6.4766 7.4375v24.637c0 1.2734-0.79688 2.1602-1.5156 2.1602h-10.961c-4.3086-10.133-14.363-17.258-26.055-17.258-11.691 0-21.746 7.125-26.055 17.258h-44.629c-4.3086-10.133-14.363-17.258-26.051-17.258-11.695-0.003906-21.75 7.1211-26.062 17.258zm14.559 11.035c0-6.3398 5.1562-11.496 11.5-11.496 6.3398 0 11.496 5.1562 11.496 11.496 0 6.3438-5.1562 11.5-11.496 11.5-6.3438 0-11.5-5.1562-11.5-11.5zm37.297 11.5c0.81641-1.8281 1.4805-3.7305 1.8984-5.7383h41.336c0.41797 2.0039 1.082 3.9102 1.8984 5.7383zm59.438-11.5c0-6.3398 5.1562-11.496 11.5-11.496s11.5 5.1562 11.5 11.496c0 6.3438-5.1562 11.5-11.5 11.5s-11.5-5.1562-11.5-11.5zm-109.67-248.07v-28.598c0-3.8906 3.7578-7.0391 8.3984-7.0391s8.3984 3.1523 8.3984 7.0391v28.598c0 3.8906-3.7578 7.0391-8.3984 7.0391-4.6367 0-8.3984-3.1523-8.3984-7.0391zm-36.398 42.363c4.6406 0 8.3984 3.1523 8.3984 7.0391v28.598c0 3.8906-3.7578 7.0391-8.3984 7.0391s-8.3984-3.1523-8.3984-7.0391v-28.598c-0.003907-3.8867 3.7578-7.0391 8.3984-7.0391zm84 53.418v-28.598c0-3.8906 3.7617-7.0391 8.3984-7.0391 4.6367 0 8.3984 3.1523 8.3984 7.0391v28.598c0 3.8906-3.7617 7.0391-8.3984 7.0391-4.6367 0-8.3984-3.1484-8.3984-7.0391zm23.758-126.71v-28.598c0-3.8906 3.7617-7.0391 8.3984-7.0391 4.6367 0 8.3984 3.1523 8.3984 7.0391v28.598c0 3.8906-3.7617 7.0391-8.3984 7.0391-4.6367 0.003907-8.3984-3.1484-8.3984-7.0391zm133.04-3.7969v28.598c0 3.8906-3.7617 7.0391-8.3984 7.0391s-8.3984-3.1523-8.3984-7.0391v-28.598c0-3.8906 3.7617-7.0391 8.3984-7.0391 4.6328-0.003906 8.3984 3.1484 8.3984 7.0391zm-313.6 39.895c4.6406 0 8.3984 3.1523 8.3984 7.0391v28.598c0 3.8906-3.7578 7.0391-8.3984 7.0391s-8.3984-3.1523-8.3984-7.0391v-28.598c0-3.8906 3.7578-7.0391 8.3984-7.0391zm-210 102.62v-28.598c0-3.8906 3.7578-7.0391 8.3984-7.0391 4.6406 0 8.3984 3.1523 8.3984 7.0391v28.598c0 3.8906-3.7578 7.0391-8.3984 7.0391-4.6406 0-8.3984-3.1484-8.3984-7.0391zm487.2-33.09c4.6367 0 8.3984 3.1523 8.3984 7.0391v28.594c0 3.8906-3.7617 7.0391-8.3984 7.0391-4.6367 0-8.3984-3.1523-8.3984-7.0391v-28.594c0-3.8906 3.7617-7.0391 8.3984-7.0391zm-399.04-28.504c4.6406 0 8.3984 3.1523 8.3984 7.0391v28.598c0 3.8906-3.7578 7.0391-8.3984 7.0391s-8.3984-3.1523-8.3984-7.0391v-28.598c-0.003906-3.8906 3.7578-7.0391 8.3984-7.0391zm35.039-64.52v-28.598c0-3.8906 3.7578-7.0391 8.3984-7.0391s8.3984 3.1523 8.3984 7.0391v28.598c0 3.8906-3.7578 7.0391-8.3984 7.0391-4.6367 0.003906-8.3984-3.1484-8.3984-7.0391zm53.199 98.148c4.6406 0 8.3984 3.1523 8.3984 7.0391v28.598c0 3.8906-3.7578 7.0391-8.3984 7.0391-4.6406 0-8.3984-3.1523-8.3984-7.0391v-28.598c0-3.8867 3.7578-7.0391 8.3984-7.0391zm13.285-100.1c3.8516 0 7.6406-0.64453 10.969-2.1289 7.7734 6.8203 17.75 10.578 28.082 10.578s20.305-3.7578 27.785-10.367c3.6211 1.2734 7.4102 1.918 11.266 1.918 9.3477 0 18.07-3.6953 24.57-10.414 6.5039-6.7148 9.9141-15.559 9.6133-24.914-0.58594-18.145-15.844-32.98-34.004-33.082h-0.1875c-3.8281 0-7.6016 0.64453-10.996 2.1016-7.7695-6.8047-17.73-10.551-28.051-10.551-10.316 0-20.277 3.7461-27.82 10.355-3.6797-1.2852-7.4648-1.9336-11.414-1.9062-18.16 0.097657-33.418 14.941-34 33.082-0.30078 9.3555 3.1133 18.203 9.6133 24.914 6.5039 6.7148 15.23 10.414 24.574 10.414zm-0.09375-51.609c2.0352 0 3.9141 0.3125 5.7734 0.96484 5.6992 1.9961 11.973 0.83594 16.387-3.0273 9.4062-8.2344 24.555-8.2344 33.961 0 4.4141 3.8594 10.703 5.0117 16.383 3.0273 1.8633-0.65234 3.6953-1.0312 5.7812-0.96484 9.2422 0.050781 17.004 7.5977 17.305 16.824 0.15234 4.7617-1.5859 9.2695-4.8945 12.684-4.6719 4.8203-11.91 6.5391-18.199 4.332-5.6641-2-11.949-0.84766-16.348 3.0078-9.4258 8.2734-24.594 8.2656-34.008 0-2.9688-2.6016-6.793-3.9766-10.715-3.9766-1.8828 0-3.7891 0.31641-5.6367 0.96875-6.2969 2.2148-13.539 0.48828-18.203-4.332-3.3047-3.4141-5.043-7.918-4.8906-12.684 0.30078-9.2305 8.0625-16.777 17.305-16.824zm234.16 119.15c5.6914 4.4883 12.727 6.9414 19.992 6.9414 7.2734 0 14.305-2.4531 19.992-6.9414 9.2734 2.6914 19.547-0.050782 26.293-7.0156 5.0195-5.1914 7.6562-12.027 7.4219-19.246-0.44922-14.023-12.234-25.496-26.273-25.57-2.4727 0.058594-5.0352 0.33594-7.4414 1.0352-11.379-8.9805-28.625-8.9648-39.988 0-2.4062-0.69531-4.9219-1.0039-7.4375-1.0352-14.043 0.078125-25.828 11.547-26.277 25.57-0.23438 7.2266 2.4062 14.066 7.4258 19.254 6.7539 6.9609 17.023 9.7031 26.293 7.0078zm-7.3516-35.035c1.0078 0.003907 2.1602 0.16797 3.1875 0.53125 4.8398 1.6914 10.184 0.69141 13.957-2.6016 5.6562-4.9492 14.734-4.957 20.41 0.007812 3.7578 3.2891 9.1055 4.2812 13.949 2.5898 1.0234-0.35938 2.0391-0.49219 3.1875-0.53125 5.0273 0.027344 9.4062 4.2891 9.5703 9.3125 0.085938 2.6367-0.875 5.1328-2.7031 7.0195-2.5742 2.6641-6.5625 3.6328-10.066 2.4023-4.8516-1.7031-10.188-0.70703-13.934 2.5938-5.6562 4.9648-14.77 4.9609-20.426 0.003906-2.543-2.2383-5.8125-3.4141-9.1602-3.4141-1.5977 0-3.2148 0.26953-4.7734 0.81641-3.5117 1.2305-7.4922 0.26562-10.066-2.3945-1.8281-1.8906-2.7891-4.3867-2.707-7.0312 0.16406-5.0156 4.5508-9.2773 9.5742-9.3047zm-370.54 17.902c5.6914 4.4844 12.723 6.9375 19.992 6.9375 7.2695 0 14.309-2.4531 19.992-6.9375 9.2734 2.6758 19.535-0.042969 26.289-7.0156 5.0234-5.1875 7.6602-12.023 7.4297-19.254-0.44922-14.023-12.238-25.488-26.273-25.566-2.5273 0.078124-5.0195 0.32812-7.4414 1.0312-11.379-8.9688-28.598-8.9727-39.988 0-2.4258-0.70313-5.0078-1.0742-7.4414-1.0312-14.039 0.070312-25.824 11.543-26.273 25.566-0.23438 7.2266 2.4023 14.062 7.4258 19.254 6.7539 6.9727 17.016 9.6836 26.289 7.0156zm-7.3398-35.035c1.0469-0.089844 2.1562 0.16797 3.1797 0.53125 4.8438 1.6953 10.191 0.69531 13.949-2.5977 5.6641-4.9492 14.75-4.9492 20.41 0 3.7695 3.3008 9.1289 4.2969 13.949 2.5977 1.0078-0.35156 2.0586-0.53125 3.1211-0.53125h0.066407c5.0273 0.027343 9.4141 4.2891 9.5781 9.3047 0.085938 2.6406-0.87891 5.1367-2.7109 7.0273-2.582 2.6641-6.5898 3.6172-10.066 2.4023-4.8359-1.6992-10.168-0.70703-13.934 2.5898-5.6602 4.9648-14.77 4.9648-20.43 0-2.543-2.2305-5.8125-3.4062-9.1562-3.4062-1.5977 0-3.2109 0.26953-4.7734 0.81641-3.4727 1.2188-7.4844 0.26953-10.066-2.3984-1.8242-1.8945-2.7852-4.3867-2.7031-7.0312 0.16406-5.0195 4.5469-9.2812 9.5859-9.3047z"/>

 </g>
</svg>
