<?xml version="1.0" encoding="UTF-8"?>
<svg version="1.1" viewBox="0 0 700 700" xmlns="http://www.w3.org/2000/svg" xmlns:xlink="http://www.w3.org/1999/xlink">
  <path d="m254.8 28.559c-21.281 0-53.762 47.602-96.32 142.24-30.801 67.199-63.281 155.12-63.281 199.92-0.55859 88.48 71.68 160.72 159.6 160.72 87.918 0 160.16-72.242 160.16-160.16 0-45.359-32.48-133.28-63.281-199.92-43.121-94.641-75.602-142.8-96.879-142.8zm0 474.32c-72.801 0-131.6-59.359-131.6-131.6 0-73.359 99.68-286.16 131.6-312.48 31.922 25.762 132.16 239.12 132.16 312.48 0 72.242-59.359 131.6-132.16 131.6z"/>
  <path d="m567.84 115.92c-39.199-85.68-54.879-85.68-61.602-85.68-7.2812 0-22.398 0-61.602 86.238-8.9609 19.039-37.52 84.559-37.52 118.72 0 54.32 44.238 99.121 99.121 99.121 54.879 0 99.121-44.238 99.121-99.121 0-35.277-29.121-100.24-37.52-119.28zm-61.602 189.28c-39.199 0-70.559-31.922-70.559-70.559 0-39.762 50.398-146.72 70.559-172.48 20.16 25.762 70.559 132.72 70.559 172.48 0.003906 38.641-31.918 70.559-70.559 70.559z"/>
</svg>
