<?xml version="1.0" encoding="UTF-8"?>
<svg width="700pt" height="700pt" version="1.1" viewBox="0 0 700 700" xmlns="http://www.w3.org/2000/svg" xmlns:xlink="http://www.w3.org/1999/xlink">
 <g>
  <path d="m391 220.9 44.336-141.87c2.4258-7.7656 12.328-10.02 17.875-4.0742 48.488 51.949 81.25 112.15 98.324 180.49 50.402 19.664 98.555 47.523 144.41 83.559 2.5586 2.0117 4.0547 5.0859 4.0547 8.3398v15.91c0 14.152-8.3789 26.969-21.344 32.645-34.047 14.906-72.555 25.207-115.51 30.93-1.9297 22.383-5.0625 45.383-9.4023 69h72.016c5.8555 0 10.605 4.75 10.605 10.605 0 5.8594-4.75 10.609-10.605 10.609h-84.848c-6.6953 0-11.715-6.125-10.402-12.688 5.1641-25.816 8.875-50.84 11.129-75.082-20.508 1.9453-41.961 2.918-64.363 2.918h-137.63c-0.16016 0.003907-0.32422 0.003907-0.48828 0h-46.234l-39.492 78.988c-1.7969 3.5938-5.4688 5.8633-9.4883 5.8633h-63.633c-5.8594 0-10.609-4.75-10.609-10.609 0-5.8555 4.75-10.605 10.609-10.605h57.078l31.82-63.637h-46.477c-20.996 0-39.957-8.7148-53.461-22.727-2.8516 19.812-19.41 35.309-39.965 36.293-84.543 4.0508-129.3-33.227-129.3-109.02 0-68.414 36.406-107.74 106.06-115.93v-33.141c0-28.121-15.891-53.828-41.043-66.406l-37.945-18.973c-5.2383-2.6211-7.3633-8.9883-4.7422-14.23 2.6211-5.2383 8.9883-7.3633 14.23-4.7422l37.945 18.973c32.336 16.168 52.766 49.223 52.766 85.379v31.656c17.664-0.011719 32.961 10.852 39.301 26.422 13.613-15.723 33.723-25.672 56.152-25.672h137.88c10.207 0 20.336 0.27734 30.391 0.82812zm21.719 1.625c39.328 3.7461 77.496 11.789 114.48 24.125-15.367-53.332-41.105-101.12-77.199-143.44zm-28.254 19.289c-7.9023-0.35156-15.855-0.52734-23.855-0.52734h-137.88c-29.289 0-53.031 23.742-53.031 53.027v63.637c0 29.289 23.742 53.031 53.031 53.031h108.87zm21.781 1.4219-52.422 167.75h123.45c23.086 0 45.086-1.0625 65.996-3.1797 2.8516-48.793-0.41797-94.281-9.793-136.5-40.902-14.918-83.305-24.27-127.23-28.07zm150.79 37.344c7.375 39.047 9.9102 80.598 7.6133 124.63 39.309-5.5703 74.473-15.156 105.5-28.742 5.25-2.3008 8.6406-7.4844 8.6406-13.215v-10.727c-38.957-30.094-79.535-54.074-121.76-71.949zm-408.56-19.539c-0.39062-11.711-10.199-20.887-21.906-20.496-71.602 2.3867-105.36 33.566-105.36 96.195 0 62.988 34.035 91.332 107.08 87.832 11.305-0.54297 20.195-9.8672 20.195-21.188v-141.64c0-0.35547 0-0.35547-0.011719-0.70703zm-63.625 75.699c-17.57 0-31.816-14.246-31.816-31.816 0-17.574 14.246-31.82 31.816-31.82 17.574 0 31.82 14.246 31.82 31.82 0 17.57-14.246 31.816-31.82 31.816zm0-21.211c5.8594 0 10.605-4.75 10.605-10.605 0-5.8594-4.7461-10.609-10.605-10.609-5.8555 0-10.605 4.75-10.605 10.609 0 5.8555 4.75 10.605 10.605 10.605z"/>
</g>
</svg>
