<?xml version="1.0" encoding="UTF-8"?>
<svg width="700pt" height="700pt" version="1.1" viewBox="0 0 700 700" xmlns="http://www.w3.org/2000/svg" xmlns:xlink="http://www.w3.org/1999/xlink">

 <g>
  <path d="m253.27 399.9c-4.8281 0-8.75-3.9219-8.75-8.75v-76.18c0-4.8281 3.9219-8.75 8.75-8.75 4.8281 0 8.75 3.9219 8.75 8.75v76.176c0 4.8359-3.9219 8.7539-8.75 8.7539z"/>
  <path d="m247.75 329.45c-10.051-6.0742-28.25-13.41-35.414-9.9023-4.3438 2.1211-9.582 0.32812-11.711-4.0039-2.125-4.3359-0.33594-9.5781 4.0039-11.711 19.43-9.5195 50.965 9.8828 52.297 10.715l-4.6289 7.4258h-8.75 8.75z"/>
  <path d="m253.28 330.6c-3.0469 0-6.0039-1.5898-7.6133-4.4219-2.3906-4.2031-0.92188-9.5469 3.2773-11.934 6.0273-3.4297 36.98-19.949 54.188-7.9883 3.9688 2.7578 4.9531 8.207 2.1953 12.176-2.7617 3.9688-8.207 4.9609-12.176 2.1953-5.8125-4.0117-24.707 2.6602-35.551 8.8281-1.3711 0.77734-2.8555 1.1445-4.3203 1.1445z"/>
  <path d="m253.27 323.72c-4.8281 0-8.75-3.9219-8.75-8.75 0-0.37109 3.6367-38.969 23.711-48.766 16.148-7.8789 24.453 0.28125 25.344 1.2383 3.3047 3.5312 3.1133 9.0703-0.41406 12.367-3.1875 2.9844-8.0195 3.1211-11.367 0.50781-0.70703-0.10156-2.6562 0.039063-5.8984 1.6172-7.1484 3.4883-12.527 22.285-13.93 33.953-0.45703 4.4023-4.1758 7.832-8.6953 7.832z"/>
  <path d="m253.26 322.85c-4.375 0-8.1523-3.2773-8.6758-7.7305-1.3789-11.711-6.7227-30.66-13.812-34.141-2.6094-1.2852-2.9961-0.64062-3.4609 0.1875-2.0312 4.3789-7.1602 6.168-11.559 4.1445-4.3828-2.0312-6.2344-7.3594-4.2031-11.742 0.55078-1.1914 3.6602-7.2539 10.801-9.7773 3.4766-1.2383 9.1172-1.9727 16.145 1.4844 18.02 8.8594 22.711 41.371 23.469 47.797 0.5625 4.8008-2.8672 9.1484-7.668 9.7109-0.35156 0.046875-0.69531 0.066406-1.0352 0.066406z"/>
  <path d="m468.93 269.25h-57.348c-3.4258 0-6.5391-2.0039-7.957-5.1172l-13.078-28.684c-2.0078-4.3984-0.070312-9.5859 4.3281-11.59 4.4062-2.0039 9.5859-0.066406 11.59 4.332l10.746 23.559h46.535l12.211-22.266c2.3242-4.2383 7.6289-5.793 11.883-3.4648 4.2383 2.3242 5.7891 7.6445 3.4648 11.879l-14.699 26.805c-1.543 2.8047-4.4805 4.5469-7.6758 4.5469z"/>
  <path d="m433.66 236.62c-2.2031 0-4.4102-0.82812-6.1094-2.4844-3.4609-3.375-3.5312-8.918-0.15234-12.371l24.746-25.367-9.0742-7.2812c-1.3789 2.8477-4.2617 4.8477-7.6406 4.9375-4.6367 0.13281-8.8555-3.6719-8.9922-8.5l-0.39453-14.047c-0.097656-3.4062 1.7969-6.5625 4.8477-8.082 3.0508-1.5156 6.7109-1.125 9.3711 1.0117l30.348 24.34c1.9258 1.543 3.1094 3.8281 3.2578 6.293 0.14844 2.4648-0.75 4.875-2.4688 6.6406l-31.477 32.266c-1.7148 1.7656-3.9883 2.6445-6.2617 2.6445z"/>
  <path d="m333.48 272.03c-13.645 0-20.961-10.91-23.129-17.355-1.543-4.582 0.92188-9.543 5.5039-11.086 4.543-1.5352 9.4727 0.89062 11.047 5.4062 0.24219 0.63281 2.2031 5.5352 6.5781 5.5352 4.1406 0 5.3867-4.7422 5.3945-4.7891 1.1875-4.6953 5.9453-7.5312 10.633-6.3398 4.6797 1.1875 7.5234 5.9414 6.3398 10.625-1.5781 6.2266-8.2812 18.004-22.367 18.004z"/>
  <path d="m362.2 272.03c-13.648 0-20.961-10.91-23.125-17.359-1.543-4.582 0.92188-9.543 5.5039-11.082 4.5703-1.5352 9.4766 0.89062 11.051 5.4102 0.23438 0.63281 2.1953 5.5312 6.5703 5.5312 4.1406 0 5.3867-4.7422 5.3945-4.7891 1.1875-4.6953 5.9492-7.5312 10.633-6.3398 4.6797 1.1875 7.5234 5.9414 6.3398 10.625-1.5781 6.2266-8.2773 18.004-22.367 18.004z"/>
  <path d="m514.32 216.2h-24.016c-4.8281 0-8.75-3.9219-8.75-8.75s3.9219-8.75 8.75-8.75h24.012c4.8281 0 8.75 3.9219 8.75 8.75 0 4.832-3.9141 8.75-8.7461 8.75z"/>
  <path d="m393.55 216.2h-209.39c-4.8281 0-8.75-3.9219-8.75-8.75s3.9219-8.75 8.75-8.75h209.39c4.8281 0 8.75 3.9219 8.75 8.75 0 4.832-3.9141 8.75-8.75 8.75z"/>
  <path d="m354.59 216.2h-170.43c-4.8281 0-8.75-3.9219-8.75-8.75s3.9219-8.75 8.75-8.75h170.43c4.8281 0 8.75 3.9219 8.75 8.75 0 4.832-3.9219 8.75-8.75 8.75z"/>
  <path d="m514.32 361.29h-63.695c-4.8281 0-8.75-3.9219-8.75-8.75s3.9219-8.75 8.75-8.75h63.695c4.8281 0 8.75 3.9219 8.75 8.75s-3.918 8.75-8.75 8.75z"/>
  <path d="m420 361.29h-133.38c-4.8281 0-8.75-3.9219-8.75-8.75s3.9219-8.75 8.75-8.75h133.38c4.8281 0 8.75 3.9219 8.75 8.75s-3.9219 8.75-8.75 8.75z"/>
  <path d="m221.3 361.29h-37.141c-4.8281 0-8.75-3.9219-8.75-8.75s3.9219-8.75 8.75-8.75h37.141c4.8281 0 8.75 3.9219 8.75 8.75s-3.918 8.75-8.75 8.75z"/>
  <path d="m421.54 318.16c-13.645 0-20.961-10.91-23.129-17.359-1.543-4.582 0.92188-9.543 5.5039-11.082 4.543-1.5352 9.4727 0.88672 11.047 5.4062 0.24219 0.63281 2.2031 5.5352 6.5781 5.5352 4.1406 0 5.3867-4.7422 5.3945-4.7969 1.1875-4.6914 5.9414-7.5156 10.633-6.3398 4.6797 1.1875 7.5234 5.9414 6.3398 10.633-1.5781 6.2227-8.2773 18.004-22.367 18.004z"/>
  <path d="m450.25 318.16c-13.648 0-20.961-10.91-23.125-17.359-1.543-4.582 0.92188-9.5469 5.5039-11.082 4.5703-1.5352 9.4766 0.88672 11.051 5.4062 0.23438 0.64062 2.1953 5.5352 6.5703 5.5352 4.1406 0 5.3867-4.7422 5.3945-4.7969 1.1875-4.6914 5.9453-7.5156 10.633-6.3398 4.6797 1.1875 7.5234 5.9414 6.3398 10.633-1.5781 6.2227-8.2773 18.004-22.367 18.004z"/>

 </g>
</svg>
