<?xml version="1.0" encoding="UTF-8"?>
<svg width="700pt" height="700pt" version="1.1" viewBox="0 0 700 700" xmlns="http://www.w3.org/2000/svg" xmlns:xlink="http://www.w3.org/1999/xlink">

 <g>
  <path d="m227.5 315h157.5v17.5h-157.5z"/>
  <path d="m350 297.5v-17.5h-127.02c2.6914 5.4609 4.207 11.422 4.457 17.5z"/>
  <path d="m332.5 245h17.5v17.5h-17.5z"/>
  <path d="m179.26 245 27.68 17.297c0.10156 0.066406 0.19922 0.13672 0.30078 0.20312h107.76v-17.5z"/>
  <path d="m367.5 245h122.5v17.5h-122.5z"/>
  <path d="m402.5 315h17.5v17.5h-17.5z"/>
  <path d="m437.5 315h52.5v17.5h-52.5z"/>
  <path d="m157.5 175h87.5v17.5h-87.5z"/>
  <path d="m280 227.5v-17.5h-122.5v6.8516c-0.003906 3.668 0.76562 7.293 2.25 10.648z"/>
  <path d="m367.5 280h17.5v17.5h-17.5z"/>
  <path d="m125.06 347.44-4.25-4.25c-5.8008-5.7969-10.965-12.199-15.398-19.098 2 22.395 11.836 43.371 27.781 59.227l1.6797 1.6836h460.12v-35h-463.75c-2.3203 0-4.5469-0.92188-6.1875-2.5625z"/>
  <path d="m134.88 332.5h75.125v-33.102c0.027344-9.0586-4.6406-17.484-12.336-22.258l-37.102-23.188c-12.828-7.9609-20.609-22.004-20.562-37.102v-41.852h-5.125l-1.6836 1.6836c-18.109 18.012-28.262 42.52-28.191 68.059v18.016c-0.070312 25.539 10.082 50.047 28.188 68.055z"/>
  <path d="m262.5 175h17.5v17.5h-17.5z"/>
  <path d="m332.5 210h157.5v17.5h-157.5z"/>
  <path d="m297.5 210h17.5v17.5h-17.5z"/>
  <path d="m542.5 210h17.5v87.5h-17.5z"/>
  <path d="m297.5 175h192.5v17.5h-192.5z"/>
  <path d="m507.5 332.5h87.5v-157.5h-87.5zm17.5-131.25c0-4.832 3.918-8.75 8.75-8.75h35c2.3203 0 4.5469 0.92188 6.1875 2.5625s2.5625 3.8672 2.5625 6.1875v105c0 2.3203-0.92188 4.5469-2.5625 6.1875s-3.8672 2.5625-6.1875 2.5625h-35c-4.832 0-8.75-3.918-8.75-8.75z"/>
  <path d="m402.5 280h87.5v17.5h-87.5z"/>

 </g>
</svg>
