<?xml version="1.0" encoding="UTF-8"?>
<svg width="700pt" height="700pt" version="1.1" viewBox="0 0 700 700" xmlns="http://www.w3.org/2000/svg" xmlns:xlink="http://www.w3.org/1999/xlink">

 <g>
  <path d="m538.16 239.12c4.4805 0 8.3984-3.9219 8.3984-8.3984 0-4.4805-3.9219-8.3984-8.3984-8.3984h-43.121c-7.8398-28.559-16.801-49.281-21.84-59.922l49.281-28.559c3.9219-2.2383 5.6016-7.2812 2.8008-11.199-2.2383-3.9219-7.2812-5.6016-11.199-2.8008l-44.801 25.762c-3.9219-25.762-19.039-48.16-40.879-63.84 0.55859-2.8008 1.1211-5.0391 1.1211-8.3984 0-16.238-13.441-29.68-29.68-29.68-11.199 0-20.719 6.1602-25.762 15.121-7.2812-1.1211-14.559-1.6797-22.398-1.6797-9.5195 0-19.039 1.1211-28.559 2.8008-5.0391-9.5195-15.121-15.68-26.32-15.68-16.238 0-29.68 13.441-29.68 29.68 0 3.9219 1.1211 8.3984 2.2383 11.762-19.602 16.238-32.48 37.52-35.84 62.16l-47.602-27.441c-3.9219-2.2383-8.9609-1.1211-11.199 2.8008-2.2383 3.9219-1.1211 8.9609 2.8008 11.199l52.078 30.238c-5.0391 10.641-13.441 31.359-21.281 58.238h-46.48c-4.4805 0-8.3984 3.9219-8.3984 8.3984 0 4.4805 3.9219 8.3984 8.3984 8.3984l42.559-0.003906c-5.0391 20.16-8.9609 43.121-11.199 68.32l-29.121 16.801c-3.9219 2.2383-5.6016 7.2812-2.8008 11.199 1.6797 2.8008 4.4805 4.4805 7.2812 4.4805 1.6797 0 2.8008-0.55859 3.9219-1.1211l19.602-11.199c-1.6797 54.879 7.8398 117.6 42 180.32 1.1211 2.2383 3.3594 3.9219 5.6016 4.4805h1.6797c1.6797 0 3.3594-0.55859 5.0391-1.6797 2.8008-1.6797 36.961-28.559 67.199-78.398 5.6016 6.7188 14 11.199 23.52 11.199h28c9.5195 0 17.922-4.4805 23.52-11.199 30.238 49.84 64.961 76.16 67.199 78.398 1.6797 1.1211 3.3594 1.6797 5.0391 1.6797h1.6797c2.2383-0.55859 4.4805-2.2383 5.6016-4.4805 33.602-61.602 43.121-123.76 42-178.08l16.238 8.9609c1.1211 0.55859 2.8008 1.1211 3.9219 1.1211 2.8008 0 5.6016-1.6797 7.2812-4.4805 2.2383-3.9219 1.1211-8.9609-2.8008-11.199l-25.199-14.559c-1.6797-25.762-6.1602-49.84-11.199-70.559l39.758-0.007812zm-186.48 1.6797c-8.9609-21.84-26.879-53.762-56.559-73.359h112.56c-29.121 19.598-47.039 51.52-56 73.359zm48.16-180.88c7.2812 0 12.879 5.6016 12.879 12.879 0 7.2812-5.6016 12.879-12.879 12.879-7.2812 0-12.879-5.6016-12.879-12.879 0-7.2812 5.5977-12.879 12.879-12.879zm-102.48 0.55859c7.2812 0 12.879 5.6016 12.879 12.879 0 7.2812-5.6016 12.879-12.879 12.879-7.2812 0-12.879-5.6016-12.879-12.879 0-7.2812 5.5977-12.879 12.879-12.879zm-16.801 37.52c5.0391 3.3594 10.641 5.0391 16.801 5.0391 15.68 0 28.559-12.32 29.68-27.441 7.8398-1.6797 16.238-2.8008 25.199-2.8008 6.1602 0 12.32 0.55859 18.48 1.6797 0.55859 15.68 14 28.559 29.68 28.559 7.8398 0 14.559-2.8008 19.602-7.8398 18.48 14 30.801 33.602 33.602 55.441l-203.28 0.003906c2.8008-20.16 13.441-38.641 30.238-52.641zm-36.398 392.56c-73.922-147.28-10.641-294.56 2.2383-322.56 68.32 6.1602 94.078 89.602 96.879 99.68-0.55859 123.76-74.477 201.04-99.117 222.88zm134.96-75.039c-1.6797 6.1602-6.7188 10.641-13.441 10.641h-28c-5.6016 0-10.641-3.3594-12.879-8.3984h-2.8008c11.762-22.398 22.398-48.16 29.68-77.84 6.7188 28.559 16.801 54.32 28.559 75.602zm80.078 75.039c-24.078-21.84-98.559-98.559-99.121-222.88 2.8008-10.078 28-93.52 96.879-99.68 13.441 28 76.723 175.28 2.2422 322.56z"/>

 </g>
</svg>
