<?xml version="1.0" encoding="UTF-8"?>
<svg width="700pt" height="700pt" version="1.1" viewBox="0 0 700 700" xmlns="http://www.w3.org/2000/svg" xmlns:xlink="http://www.w3.org/1999/xlink">

 <g>
  <path d="m294.07 33.602c-12.199 0-22.371 10.176-22.371 22.391v11.195h-55.93c-21.906 0-39.152 18.918-39.152 41.113v317.19h0.003907c-0.003907 2.9688 1.1758 5.8164 3.2734 7.918 2.0977 2.1016 4.9414 3.2812 7.9102 3.2812h62.398l-12.758 12.77-0.003906-0.003907c-1.5977 1-2.9219 2.3828-3.8438 4.0273l-29.711 29.566v0.003907c-1.6016 0.99609-2.9219 2.3789-3.8477 4.0234l-20.102 19.945 0.003906 0.003906c-2.2031 2.0664-3.4805 4.9375-3.5352 7.957-0.058594 3.0234 1.1094 5.9414 3.2305 8.0898 2.125 2.1484 5.0273 3.3438 8.0469 3.3203 3.0156-0.023437 5.8984-1.2695 7.9883-3.4531l19.051-19.066h270.56l19.051 19.066c2.0898 2.1875 4.9688 3.4336 7.9922 3.457 3.0195 0.027343 5.9219-1.1719 8.0469-3.3203s3.2891-5.0664 3.2305-8.0898c-0.058594-3.0234-1.3359-5.8945-3.5391-7.9609l-20.973-20.82c-0.63281-0.92969-1.3984-1.7539-2.2734-2.4531l-31.285-31.141c-0.62891-0.92969-1.3945-1.7539-2.2734-2.4531l-13.457-13.469h62.398c2.9648 0 5.8125-1.1797 7.9102-3.2812 2.0977-2.1016 3.2734-4.9492 3.2734-7.918v-317.19c0-22.199-17.242-41.113-39.148-41.113h-55.93v-11.195c0-12.215-10.172-22.391-22.371-22.391zm0 22.391h111.86v11.195h-111.86zm-78.301 33.59h268.46c9.0781 0 16.777 7.7656 16.777 18.723v306h-76.203l0.003907-0.003906c-1.0938-0.22266-2.2148-0.27734-3.3242-0.16797-0.35156 0.039063-0.69922 0.09375-1.0469 0.16797h-140.35c-1.375-0.32031-2.8008-0.37891-4.1953-0.16797-0.35156 0.039063-0.70312 0.09375-1.0469 0.16797h-75.855v-306c0-10.953 7.7031-18.723 16.777-18.723zm-1.0508 5.6016 0.003906-0.003906c-5.7656 0.54297-10.16 5.4023-10.137 11.195v179.16c0 6.1836 5.0078 11.195 11.184 11.195h268.46c6.1758 0 11.184-5.0117 11.184-11.195v-179.16c0-6.1836-5.0078-11.195-11.184-11.195h-268.46c-0.34766-0.015626-0.69922-0.015626-1.0469 0zm12.234 22.395h246.09v156.76h-246.09zm22.371 206.98c-21.492 0-39.152 17.848-39.152 39.363 0 21.504 17.66 39.184 39.152 39.184 21.488 0 39.148-17.68 39.148-39.184 0-21.516-17.66-39.363-39.148-39.363zm201.35 0c-21.492 0-39.152 17.848-39.152 39.363 0 21.504 17.66 39.184 39.152 39.184 21.488 0 39.152-17.68 39.152-39.184 0-21.516-17.66-39.363-39.152-39.363zm-201.35 22.566c9.3984 0 16.777 7.3867 16.777 16.793 0 9.4023-7.3789 16.613-16.777 16.613-9.3984 0-16.777-7.2109-16.777-16.613 0-9.4062 7.3789-16.793 16.777-16.793zm201.35 0c9.3984 0 16.777 7.3867 16.777 16.793 0 9.4023-7.3789 16.613-16.777 16.613-9.3984 0-16.777-7.2109-16.777-16.613 0-9.4062 7.3789-16.793 16.777-16.793zm-168.84 89.57h136.33l11.188 11.195h-158.7zm-33.559 33.59h203.45l11.184 11.199h-225.82z"/>

 </g>
</svg>
