<?xml version="1.0" encoding="UTF-8"?>
<svg width="700pt" height="700pt" version="1.1" viewBox="0 0 700 700" xmlns="http://www.w3.org/2000/svg" xmlns:xlink="http://www.w3.org/1999/xlink">

 <g>
  <path d="m446.23 339.15c-0.46484-25.727-9.4414-50.043-25.559-69.746 41.395-24.352 69.324-69.254 69.324-120.65 0-74.629-58.746-135.63-132.41-139.61-2.4922-0.25391-5.0312-0.38672-7.5938-0.38672-77.191 0-140 62.809-140 140 0 42.34 18.969 80.273 48.773 105.97-25.227 21.496-40.023 52.973-40.023 86.527v9.4062c0 29.828 6.1406 58.773 18.254 86.02 11.109 25 16.746 51.547 16.746 78.918v35.656h17.5v-35.656c0-29.828-6.1406-58.773-18.254-86.02-11.109-25-16.746-51.547-16.746-78.918v-9.4062c0-29.699 13.766-57.391 36.941-75.582 20.082 13.238 43.758 21.324 69.211 22.699 2.4961 0.25 5.0352 0.38281 7.5977 0.38281 19.363 0 37.816-3.9531 54.602-11.094 15.555 17.594 24.148 39.906 24.148 63.594 0 1.3555 0.31641 2.7031 0.91797 3.9102l28.676 57.34h-20.844c-4.8281 0-8.75 3.9102-8.75 8.75v70h-70v17.5h17.5v52.5h17.5v-52.5h43.75c4.8281 0 8.75-3.9102 8.75-8.75v-70h26.25c3.0352 0 5.8438-1.5742 7.4453-4.1562 1.6016-2.582 1.7422-5.8008 0.38672-8.5156zm-218.73-190.4c0-67.551 54.949-122.5 122.5-122.5 31.359 0 56.875 25.516 56.875 56.875s-25.516 56.875-56.875 56.875c-41.012 0-74.375 33.363-74.375 74.375 0 14.387 4.1719 27.781 11.27 39.172-35.516-21.469-59.395-60.348-59.395-104.8zm65.625 65.625c0-31.359 25.516-56.875 56.875-56.875 41.012 0 74.375-33.363 74.375-74.375 0-14.387-4.1719-27.781-11.27-39.172 35.516 21.469 59.395 60.348 59.395 104.8 0 67.551-54.949 122.5-122.5 122.5-31.359 0-56.875-25.516-56.875-56.875z"/>
  <path d="m350 183.75c-19.301 0-35 15.699-35 35s15.699 35 35 35 35-15.699 35-35-15.699-35-35-35zm0 52.5c-9.6523 0-17.5-7.8477-17.5-17.5s7.8477-17.5 17.5-17.5 17.5 7.8477 17.5 17.5-7.8477 17.5-17.5 17.5z"/>
  <path d="m350 113.75c19.301 0 35-15.699 35-35s-15.699-35-35-35-35 15.699-35 35 15.699 35 35 35zm0-52.5c9.6523 0 17.5 7.8477 17.5 17.5s-7.8477 17.5-17.5 17.5-17.5-7.8477-17.5-17.5 7.8477-17.5 17.5-17.5z"/>
  <path d="m282.56 352.56c-2.5039 2.5039-3.2539 6.2656-1.8984 9.5391 1.3555 3.2734 4.5508 5.3984 8.0859 5.3984h122.5c3.5352 0 6.7305-2.125 8.0859-5.3984 1.3555-3.2734 0.60547-7.0352-1.8984-9.5391l-26.25-26.25-12.371 12.371 11.312 11.316h-80.254l40.125-40.129 20.062 20.062 12.371-12.371-26.25-26.25c-1.7031-1.7031-3.9453-2.5625-6.1836-2.5625s-4.4805 0.85938-6.1875 2.5625z"/>

 </g>
</svg>
