<?xml version="1.0" encoding="UTF-8"?>
<svg width="700pt" height="700pt" version="1.1" viewBox="0 0 700 700" xmlns="http://www.w3.org/2000/svg" xmlns:xlink="http://www.w3.org/1999/xlink">

 <g>
  <path d="m640 560h-160c-5.5195 0-10-4.4805-10-10 0-27.148 13.879-42.102 39.09-42.102 0.98047 0 1.9609 0.058593 2.9414 0.17969 10.34-18.418 26.77-28.078 47.969-28.078s37.629 9.6602 47.969 28.078c0.98047-0.12109 1.9609-0.17969 2.9414-0.17969 25.211 0 39.09 14.953 39.09 42.102 0 5.5195-4.4805 10-10 10zm-149-20h138c-2.3711-9.8281-8.8594-12.102-18.09-12.102-1.0508 0-2.3594 0.37891-4.0117 1.1484-2.4688 1.1719-5.3086 1.2617-7.8594 0.26953-2.5508-0.98828-4.5781-2.9688-5.6211-5.4883-6.7578-16.258-17.379-23.828-33.418-23.828s-26.66 7.5703-33.41 23.828c-1.0391 2.5195-3.0781 4.5117-5.6211 5.4883-2.5508 0.98047-5.3906 0.87891-7.8594-0.26953-1.6484-0.78125-2.9609-1.1484-4.0117-1.1484-9.2383 0-15.727 2.2734-18.098 12.102z"/>
  <path d="m350 560h-160c-5.5195 0-10-4.4805-10-10 0-27.148 13.879-42.102 39.09-42.102 0.98047 0 1.9609 0.058593 2.9414 0.17969 10.34-18.418 26.77-28.078 47.969-28.078s37.629 9.6602 47.969 28.078c0.98047-0.12109 1.9609-0.17969 2.9414-0.17969 25.211 0 39.09 14.953 39.09 42.102 0 5.5195-4.4805 10-10 10zm-149-20h138c-2.3711-9.8281-8.8594-12.102-18.09-12.102-1.0508 0-2.3594 0.37891-4.0117 1.1484-2.4688 1.1719-5.3086 1.2617-7.8594 0.26953-2.5508-0.98828-4.5781-2.9688-5.6211-5.4883-6.7578-16.258-17.379-23.828-33.418-23.828s-26.66 7.5703-33.41 23.828c-1.0391 2.5195-3.0781 4.5117-5.6211 5.4883-2.5508 0.98047-5.3906 0.87891-7.8594-0.26953-1.6484-0.78125-2.9609-1.1484-4.0117-1.1484-9.2383 0-15.727 2.2734-18.098 12.102z"/>
  <path d="m120 470c-33.09 0-60-26.91-60-60v-130c0-33.09 26.91-60 60-60s60 26.91 60 60v130c0 33.09-26.91 60-60 60zm0-230c-22.059 0-40 17.941-40 40v130c0 22.059 17.941 40 40 40s40-17.941 40-40v-130c0-22.059-17.941-40-40-40z"/>
  <path d="m120 390c-2.5586 0-5.1211-0.98047-7.0703-2.9297-3.9102-3.9102-3.9102-10.23 0-14.141l20-20c3.9102-3.9102 10.23-3.9102 14.141 0 3.9102 3.9102 3.9102 10.23 0 14.141l-20 20c-1.9492 1.9492-4.5117 2.9297-7.0703 2.9297z"/>
  <path d="m120 430c-2.5586 0-5.1211-0.98047-7.0703-2.9297l-20-20c-3.9102-3.9102-3.9102-10.23 0-14.141 3.9102-3.9102 10.23-3.9102 14.141 0l20 20c3.9102 3.9102 3.9102 10.23 0 14.141-1.9492 1.9492-4.5117 2.9297-7.0703 2.9297z"/>
  <path d="m220 390c-2.5586 0-5.1211-0.98047-7.0703-2.9297-3.9102-3.9102-3.9102-10.23 0-14.141l20-20c3.9102-3.9102 10.23-3.9102 14.141 0 3.9102 3.9102 3.9102 10.23 0 14.141l-20 20c-1.9492 1.9492-4.5117 2.9297-7.0703 2.9297z"/>
  <path d="m220 430c-2.5586 0-5.1211-0.98047-7.0703-2.9297l-20-20c-3.9102-3.9102-3.9102-10.23 0-14.141 3.9102-3.9102 10.23-3.9102 14.141 0l20 20c3.9102 3.9102 3.9102 10.23 0 14.141-1.9492 1.9492-4.5117 2.9297-7.0703 2.9297z"/>
  <path d="m220 300c-2.5586 0-5.1211-0.98047-7.0703-2.9297-3.9102-3.9102-3.9102-10.23 0-14.141l20-20c3.9102-3.9102 10.23-3.9102 14.141 0 3.9102 3.9102 3.9102 10.23 0 14.141l-20 20c-1.9492 1.9492-4.5117 2.9297-7.0703 2.9297z"/>
  <path d="m220 340c-2.5586 0-5.1211-0.98047-7.0703-2.9297l-20-20c-3.9102-3.9102-3.9102-10.23 0-14.141 3.9102-3.9102 10.23-3.9102 14.141 0l20 20c3.9102 3.9102 3.9102 10.23 0 14.141-1.9492 1.9492-4.5117 2.9297-7.0703 2.9297z"/>
  <path d="m310 470c-33.09 0-60-26.91-60-60v-100c0-33.09 26.91-60 60-60s60 26.91 60 60v100c0 33.09-26.91 60-60 60zm0-200c-22.059 0-40 17.941-40 40v100c0 22.059 17.941 40 40 40s40-17.941 40-40v-100c0-22.059-17.941-40-40-40z"/>
  <path d="m310 420c-2.5586 0-5.1211-0.98047-7.0703-2.9297-3.9102-3.9102-3.9102-10.23 0-14.141l20-20c3.9102-3.9102 10.23-3.9102 14.141 0 3.9102 3.9102 3.9102 10.23 0 14.141l-20 20c-1.9492 1.9492-4.5117 2.9297-7.0703 2.9297z"/>
  <path d="m310 270c-5.5195 0-10-4.4805-10-10v-160c0-5.5195 4.4805-10 10-10s10 4.4805 10 10v160c0 5.5195-4.4805 10-10 10z"/>
  <path d="m310 270c-2.5586 0-5.1211-0.98047-7.0703-2.9297-3.9102-3.9102-3.9102-10.23 0-14.141l20-20c3.9102-3.9102 10.23-3.9102 14.141 0 3.9102 3.9102 3.9102 10.23 0 14.141l-20 20c-1.9492 1.9492-4.5117 2.9297-7.0703 2.9297z"/>
  <path d="m310 180c-2.5586 0-5.1211-0.98047-7.0703-2.9297-3.9102-3.9102-3.9102-10.23 0-14.141l20-20c3.9102-3.9102 10.23-3.9102 14.141 0 3.9102 3.9102 3.9102 10.23 0 14.141l-20 20c-1.9492 1.9492-4.5117 2.9297-7.0703 2.9297z"/>
  <path d="m310 220c-2.5586 0-5.1211-0.98047-7.0703-2.9297l-20-20c-3.9102-3.9102-3.9102-10.23 0-14.141 3.9102-3.9102 10.23-3.9102 14.141 0l20 20c3.9102 3.9102 3.9102 10.23 0 14.141-1.9492 1.9492-4.5117 2.9297-7.0703 2.9297z"/>
  <path d="m169.99 288.98c-2.3711 0-4.6992-0.82812-6.5195-2.3711-2.1797-1.8594-3.5195-4.5508-3.5703-7.4102-0.48828-24.23-23.359-43.309-47.809-38.391-2.8906 0.58984-5.8906-0.12891-8.2109-1.9688-2.3086-1.8398-3.6914-4.5898-3.7695-7.5508-0.050781 0-0.10938-0.64062-0.10938-1.2891v-130c0-33.09 26.91-60 60-60s60 26.91 60 60v31.02c0 4.75-3.3398 8.8398-7.9883 9.7891-18.551 3.8008-32.012 20.293-32.012 39.191v98.98c0 4.9805-3.6602 9.1914-8.5781 9.8984-0.48047 0.070313-0.96094 0.10156-1.4336 0.10156zm-49.988-68.98c15.289 0 29.352 5.8789 40 15.512v-55.512c0-25.559 16.398-48.16 40-56.551v-23.449c0-22.059-17.941-40-40-40s-40 17.941-40 40z"/>
  <path d="m120 504.29c-5.5195 0-10-4.4805-10-10v-174.29c0-5.5195 4.4805-10 10-10s10 4.4805 10 10v174.29c0 5.5195-4.4805 10-10 10z"/>
  <path d="m580 470c-33.09 0-60-26.91-60-60v-130c0-33.09 26.91-60 60-60s60 26.91 60 60v130c0 33.09-26.91 60-60 60zm0-230c-22.059 0-40 17.941-40 40v130c0 22.059 17.941 40 40 40s40-17.941 40-40v-130c0-22.059-17.941-40-40-40z"/>
  <path d="m580 390c-2.5586 0-5.1211-0.98047-7.0703-2.9297l-20-20c-3.9102-3.9102-3.9102-10.23 0-14.141 3.9102-3.9102 10.23-3.9102 14.141 0l20 20c3.9102 3.9102 3.9102 10.23 0 14.141-1.9492 1.9492-4.5117 2.9297-7.0703 2.9297z"/>
  <path d="m580 430c-2.5586 0-5.1211-0.98047-7.0703-2.9297-3.9102-3.9102-3.9102-10.23 0-14.141l20-20c3.9102-3.9102 10.23-3.9102 14.141 0 3.9102 3.9102 3.9102 10.23 0 14.141l-20 20c-1.9492 1.9492-4.5117 2.9297-7.0703 2.9297z"/>
  <path d="m480 470c-33.09 0-60-26.91-60-60v-230c0-33.09 26.91-60 60-60s60 26.91 60 60v230c0 33.09-26.91 60-60 60zm0-330c-22.059 0-40 17.941-40 40v230c0 22.059 17.941 40 40 40s40-17.941 40-40v-230c0-22.059-17.941-40-40-40z"/>
  <path d="m480 560c-5.5195 0-10-4.4805-10-10v-330c0-5.5195 4.4805-10 10-10s10 4.4805 10 10v330c0 5.5195-4.4805 10-10 10z"/>
  <path d="m480 390c-2.5586 0-5.1211-0.98047-7.0703-2.9297l-20-20c-3.9102-3.9102-3.9102-10.23 0-14.141 3.9102-3.9102 10.23-3.9102 14.141 0l20 20c3.9102 3.9102 3.9102 10.23 0 14.141-1.9492 1.9492-4.5117 2.9297-7.0703 2.9297z"/>
  <path d="m480 430c-2.5586 0-5.1211-0.98047-7.0703-2.9297-3.9102-3.9102-3.9102-10.23 0-14.141l20-20c3.9102-3.9102 10.23-3.9102 14.141 0 3.9102 3.9102 3.9102 10.23 0 14.141l-20 20c-1.9492 1.9492-4.5117 2.9297-7.0703 2.9297z"/>
  <path d="m480 300c-2.5586 0-5.1211-0.98047-7.0703-2.9297l-20-20c-3.9102-3.9102-3.9102-10.23 0-14.141 3.9102-3.9102 10.23-3.9102 14.141 0l20 20c3.9102 3.9102 3.9102 10.23 0 14.141-1.9492 1.9492-4.5117 2.9297-7.0703 2.9297z"/>
  <path d="m480 340c-2.5586 0-5.1211-0.98047-7.0703-2.9297-3.9102-3.9102-3.9102-10.23 0-14.141l20-20c3.9102-3.9102 10.23-3.9102 14.141 0 3.9102 3.9102 3.9102 10.23 0 14.141l-20 20c-1.9492 1.9492-4.5117 2.9297-7.0703 2.9297z"/>
  <path d="m400 500c-5.5195 0-10-4.4805-10-10v-270c0-5.5195 4.4805-10 10-10s10 4.4805 10 10v270c0 5.5195-4.4805 10-10 10z"/>
  <path d="m400 390c-2.5586 0-5.1211-0.98047-7.0703-2.9297l-20-20c-3.9102-3.9102-3.9102-10.23 0-14.141 3.9102-3.9102 10.23-3.9102 14.141 0l20 20c3.9102 3.9102 3.9102 10.23 0 14.141-1.9492 1.9492-4.5117 2.9297-7.0703 2.9297z"/>
  <path d="m400 300c-2.5586 0-5.1211-0.98047-7.0703-2.9297l-20-20c-3.9102-3.9102-3.9102-10.23 0-14.141 3.9102-3.9102 10.23-3.9102 14.141 0l20 20c3.9102 3.9102 3.9102 10.23 0 14.141-1.9492 1.9492-4.5117 2.9297-7.0703 2.9297z"/>
  <path d="m530.1 288.99c-0.46875 0-0.94141-0.03125-1.4219-0.10156-4.918-0.69531-8.6797-4.9258-8.6797-9.9062v-98.98c0-18.898-13.461-35.391-32.012-39.191-4.6484-0.94922-7.9883-5.0469-7.9883-9.7891v-31.02c0-33.09 26.91-60 60-60s60 26.91 60 60v130c0 0.48828-0.089844 1.5-0.16016 1.9883-0.089844 2.9492-1.4492 5.3594-3.75 7.1992-2.3008 1.8398-5.2812 2.2109-8.1797 1.6211-24.449-4.9492-47.309 14.16-47.809 38.391-0.058593 2.8594-1.3398 5.5586-3.5312 7.4219-1.8086 1.5391-4.1094 2.3672-6.4688 2.3672zm-30.102-165.54c23.602 8.3906 40 30.988 40 56.551v55.512c10.648-9.6328 24.711-15.512 40-15.512h0.050781l-0.050781-120c0-22.059-17.941-40-40-40s-40 17.941-40 40z"/>
  <path d="m580 504.29c-5.5195 0-10-4.4805-10-10v-174.29c0-5.5195 4.4805-10 10-10s10 4.4805 10 10v174.29c0 5.5195-4.4805 10-10 10z"/>
  <path d="m350 290.39c-3.1016 0-6.1016-1.4492-8.0312-4.0312-7.7188-10.398-19.367-16.359-31.969-16.359s-24.25 5.9492-31.98 16.328c-2.5703 3.4609-7.0781 4.8711-11.172 3.5195-4.0859-1.3477-6.8477-5.1758-6.8477-9.4883v-100.36c0-8.4297-2.7695-16.621-8.0195-23.672-1.2891-1.7266-1.9805-3.8164-1.9805-5.9688v-90.359c0-33.09 26.91-60 60-60s60 26.91 60 60v130.36c0 2.1484-0.69141 4.2383-1.9805 5.9688-5.25 7.0508-8.0195 15.242-8.0195 23.672v60.391c0 4.3086-2.7617 8.1406-6.8594 9.4883-1.0312 0.33984-2.0898 0.51172-3.1406 0.51172zm-40-40.391c10.75 0 21.02 2.8516 30 8.1406v-38.141c0-11.648 3.4492-22.922 10-32.801v-127.2c0-22.059-17.941-40-40-40s-40 17.941-40 40v87.199c6.5508 9.8789 10 21.148 10 32.801v78.129c8.9805-5.2773 19.25-8.1289 30-8.1289z"/>
  <path d="m220 470c-33.09 0-60-26.91-60-60v-230c0-33.09 26.91-60 60-60s60 26.91 60 60v100.36c0 2.1484-0.69141 4.2383-1.9805 5.9688-5.25 7.0508-8.0195 15.242-8.0195 23.672v100c0 5.7305 1.3516 11.461 4.0195 17.039 1.3086 2.7305 1.3086 5.8984 0 8.6289-9.9805 20.852-31.191 34.332-54.02 34.332zm0-330c-22.059 0-40 17.941-40 40v230c0 22.059 17.941 40 40 40 13.75 0 26.641-7.3984 33.898-19.172-2.5898-6.7891-3.8984-13.77-3.8984-20.828v-100c0-11.648 3.4492-22.922 10-32.801v-97.199c0-22.059-17.941-40-40-40z"/>
  <path d="m400 470c-22.84 0-44.039-13.48-54.02-34.328-1.3086-2.7305-1.3086-5.8984 0-8.6289 2.668-5.582 4.0195-11.324 4.0195-17.043v-100c0-8.4297-2.7695-16.621-8.0195-23.672-1.2891-1.7266-1.9805-3.8164-1.9805-5.9688v-60.359c0-33.09 26.91-60 60-60 12.941 0 25.41 4.2617 36.039 12.328 2.5 1.8906 3.9609 4.8438 3.9609 7.9727v229.7c0 8.4297 2.7695 16.609 8.0195 23.672 2.6406 3.5391 2.6406 8.3906 0 11.941-11.539 15.496-29.039 24.387-48.02 24.387zm-33.91-39.172c7.2695 11.773 20.16 19.172 33.91 19.172 10.371 0 20.102-4.0391 27.531-11.25-4.9531-8.8711-7.5312-18.672-7.5312-28.75v-224.4c-6.1602-3.6797-12.988-5.6016-20-5.6016-22.059 0-40 17.941-40 40v57.199c6.5508 9.8789 10 21.148 10 32.801v100c0 7.0508-1.3086 14.039-3.9102 20.828z"/>
  <path d="m190 560h-130c-5.5195 0-10-4.4805-10-10 0-27.148 13.879-42.102 39.09-42.102 0.98047 0 1.9492 0.058593 2.9414 0.17969 10.328-18.418 26.758-28.078 47.969-28.078 21.199 0 37.629 9.6602 47.969 28.078 7.6602-0.92969 14.859 0.62891 20.949 3.2188 3.6914 1.5703 6.0781 5.1992 6.0781 9.1992s-2.3984 7.6289-6.0781 9.1992c-2.4492 1.043-8.918 3.8047-8.918 20.305 0 5.5195-4.4805 10-10 10zm-119-20h109.71c0.57812-3.7695 1.4688-7.1016 2.6094-10.02-1.4492 0.089843-2.9102-0.12109-4.2812-0.64844-2.5508-0.98828-4.5781-2.9688-5.6211-5.4883-6.7578-16.273-17.379-23.844-33.418-23.844-16.051 0-26.672 7.5703-33.41 23.828-1.0508 2.5195-3.0781 4.5117-5.6211 5.4883-2.5391 0.98047-5.3789 0.89062-7.8594-0.26953-1.6602-0.78125-2.9688-1.1602-4.0195-1.1602-9.2305 0.011719-15.719 2.2852-18.09 12.113z"/>
  <path d="m480 560h-130c-5.5195 0-10-4.4805-10-10 0-16.5-6.4688-19.262-8.9219-20.289-3.6914-1.5703-6.0781-5.1992-6.0781-9.1992s2.3984-7.6289 6.0781-9.1992c6.0781-2.5898 13.25-4.1484 20.949-3.2188 10.332-18.434 26.762-28.094 47.973-28.094 21.199 0 37.629 9.6602 47.969 28.078 0.98047-0.12109 1.9609-0.17969 2.9414-0.17969 25.211 0 39.09 14.953 39.09 42.102 0 5.5195-4.4805 10-10 10zm-120.71-20h109.71c-2.3711-9.8281-8.8594-12.102-18.09-12.102-1.0508 0-2.3594 0.37891-4.0117 1.1484-2.4688 1.1719-5.3086 1.2617-7.8594 0.26953-2.5508-0.98828-4.5781-2.9688-5.6211-5.4883-6.7578-16.258-17.379-23.828-33.418-23.828-16.051 0-26.672 7.5703-33.41 23.828-1.0508 2.5195-3.0781 4.5117-5.6211 5.4883-1.3789 0.53125-2.8398 0.73828-4.2891 0.64844 1.1406 2.9336 2.0312 6.2656 2.6094 10.035z"/>
  <path d="m220 528.03c-5.5195 0-10-4.4805-10-10v-298.03c0-5.5195 4.4805-10 10-10s10 4.4805 10 10v298.03c0 5.5195-4.4805 10-10 10z"/>
  <path d="m310 524.59c-5.5195 0-10-4.4805-10-10v-164.59c0-5.5195 4.4805-10 10-10s10 4.4805 10 10v164.59c0 5.5312-4.4805 10-10 10z"/>

 </g>
</svg>
