<?xml version="1.0" encoding="UTF-8"?>
<svg width="700pt" height="700pt" version="1.1" viewBox="0 0 700 700" xmlns="http://www.w3.org/2000/svg" xmlns:xlink="http://www.w3.org/1999/xlink">

 <g>
  <path d="m529.2 314.55c0-40.879-44.801-73.305-104.33-76.664-2.8555-24.809-13.27-87.75-47.43-113.06-13.801-10.375-31.609-13.805-48.273-9.2969-68.207 16.129-82.266 163.46-85.008 210.67l-17.359-9.4062c-2.6133-1.4102-5.6836-1.7266-8.5273-0.875-2.8477 0.85156-5.2383 2.7969-6.6484 5.4102-2.9375 5.4414-0.91016 12.238 4.5352 15.176l79.574 42.785c1.7188 0.92578 3.6484 1.3906 5.6016 1.3438 5.1289 0 9.6016-3.4844 10.859-8.457 1.2578-4.9727-1.0273-10.164-5.5391-12.602l-40.656-21.672c1.9609-53.258 17.809-188.61 68.32-200.59v0.003906c10.262-2.8828 21.277-0.8125 29.793 5.5977 24.137 17.863 34.832 67.199 38.246 95.199-64.848 4.875-74.758 49.34-74.758 76.441 0 27.105 10.527 74.258 80.805 76.891 6.582 7.9336 15.805 13.223 25.977 14.898 10.168 1.6758 20.602-0.375 29.379-5.7773 8.7812-5.4023 15.312-13.793 18.398-23.625 29.512-14.395 47.039-37.465 47.039-62.387zm-87.863 69.945c-6.4258-0.023438-12.465-3.0742-16.297-8.2305-0.45703-1.1758-1.1211-2.2578-1.9609-3.1953-1.3984-2.7773-2.125-5.8477-2.125-8.957 0-5.4062 2.1445-10.594 5.9688-14.414 3.8242-3.8242 9.0078-5.9727 14.414-5.9727s10.59 2.1484 14.414 5.9727c3.8242 3.8203 5.9688 9.0078 5.9688 14.414s-2.1445 10.59-5.9688 14.414c-3.8242 3.8203-9.0078 5.9688-14.414 5.9688zm40.824-33.207c-4.1094-13.109-14.266-23.445-27.297-27.789s-27.355-2.1641-38.508 5.8555c-11.152 8.0195-17.773 20.906-17.805 34.645v4.0898c-32.703-4.0898-48.551-21.617-48.551-53.539 0-36.734 21.223-54.602 64.848-54.602 49.953 0 92.176 24.977 92.176 54.602-0.22266 13.496-9.2383 26.656-24.863 36.738zm-189.73 70.895-6.832 16.801c-1.6992 4.2656-5.8281 7.0586-10.418 7.0547-1.418-0.007812-2.8203-0.27344-4.1445-0.78125-5.4883-2.2812-8.2422-8.4492-6.2695-14.059l6.832-17.359c2.4297-5.5391 8.8164-8.1484 14.43-5.8945 5.6133 2.2539 8.4219 8.5586 6.3438 14.238zm-25.984-34.551-6.8867 10.246h-0.003906c-2.0703 3.1094-5.5586 4.9766-9.293 4.9844-2.207-0.003906-4.3672-0.64844-6.2188-1.8477-2.4844-1.6445-4.2148-4.2109-4.8047-7.1328-0.58594-2.9219 0.011718-5.957 1.668-8.4336l6.8906-10.25c3.4336-5.1484 10.391-6.5391 15.539-3.1055 5.1484 3.4297 6.543 10.391 3.1094 15.539zm-40.098-12.039c1.2461 2.7148 1.3594 5.8164 0.30469 8.6133-1.0508 2.7969-3.1758 5.0586-5.9023 6.2812l-22.398 10.246h-0.003907c-1.4805 0.66016-3.082 1.0039-4.7031 1.0078-5.2344-0.027344-9.75-3.6758-10.879-8.7852-1.125-5.1133 1.4375-10.324 6.1758-12.551l22.398-10.305v0.003907c2.7148-1.293 5.832-1.4375 8.6562-0.40625 2.8203 1.0352 5.1094 3.1562 6.3516 5.8945zm-42.055-12.039v-0.003907c-0.75 0.23047-1.5195 0.37891-2.2969 0.44922-6.1875 0.63281-11.715-3.8672-12.348-10.051-0.63281-6.1875 3.8672-11.715 10.051-12.348l19.098-3.9219c6.0625-1.2695 12.004 2.6172 13.27 8.6797 1.2695 6.0625-2.6172 12.004-8.6797 13.273z"/>

 </g>
</svg>
