<?xml version="1.0" encoding="UTF-8"?>
<svg width="700pt" height="700pt" version="1.1" viewBox="0 0 700 700" xmlns="http://www.w3.org/2000/svg" xmlns:xlink="http://www.w3.org/1999/xlink">
 
 <g>
  <path d="m577.29 54.059c-0.32031-2.8711-2.2148-5.3281-4.9141-6.3516-2.6836-1.0039-5.7227-0.44141-7.8789 1.4922l-442.85 401.62c-0.082032 0.074219-0.10938 0.17969-0.1875 0.25781-0.16016 0.17578-0.44141 0.36328-0.58203 0.53125-0.25781 0.31641-0.33203 0.69141-0.5625 1.0195-0.20703 0.34766-0.42969 0.67188-0.57812 1.0469-7.0664 12.07 5.1289 30.453 20.48 43.113 10.91 9.0078 24.398 16.004 35.074 16.004 4.5586 0 8.4336-1.5742 11.539-4.5117 0.19922-0.14844 0.46875-0.085938 0.65234-0.25391l325.67-294c9.25-8.3789 14.691-19.84 15.328-32.297l0.58203-11.633c0.39453-7.5508 3.4883-14.707 8.707-20.141l42.398-44.082c1.5742-1.6406 2.3438-3.9023 2.1016-6.1641zm-427.28 430.87c-13.387-11.031-17.566-21.387-17.562-23.172l0.12891-0.11719c0.3125-0.12109 0.72266-0.20312 1.3281-0.20312 3.9297 0 13.695 2.9258 25.234 12.438 13.5 11.145 17.672 21.633 17.605 23.266-2.1562 1.0508-13.246-1.0703-26.734-12.211zm376.7-345.63c-7.7852 8.1055-12.402 18.754-12.984 30.008l-0.58203 11.641c-0.43359 8.3594-4.0898 16.051-10.281 21.668l-314.09 283.55c-3.9219-8.4492-11.402-17.168-19.848-24.145h-0.011719c-7.2891-6.0117-15.078-10.387-22.344-13.07l417.08-378.23 2.9648 27.09z"/>
  <path d="m428.85 206.59c-12.945 1.0039-22.664 12.344-21.652 25.27 0.46875 6.2656 3.3594 11.98 8.125 16.078 4.3164 3.707 9.6797 5.6836 15.309 5.6836 0.60156 0 1.2188-0.019532 1.8203-0.066406 6.2852-0.47656 12.008-3.3789 16.098-8.1602 4.0898-4.7734 6.0781-10.852 5.5898-17.121-0.97266-12.941-12.062-22.668-25.289-21.684zm8.0312 28.809c-1.4258 1.6602-3.4141 2.6641-5.5898 2.832-2.1367 0.20703-4.3164-0.53516-5.9492-1.9531-1.6719-1.4258-2.6641-3.3945-2.832-5.582-0.33984-4.4922 3.0391-8.4336 7.5234-8.7812 0.20703-0.019531 0.41406-0.027343 0.63672-0.027343 4.2227 0 7.8242 3.2852 8.1602 7.5703 0.17188 2.1797-0.52344 4.2812-1.9492 5.9414z"/>
  <path d="m368.49 260.48c-12.953 1.0039-22.672 12.344-21.68 25.281 0.47656 6.2773 3.3789 11.988 8.1602 16.09 4.2969 3.6953 9.6641 5.6641 15.262 5.6641 0.60156 0 1.2188-0.019531 1.8398-0.074219 6.2852-0.46875 12.008-3.3594 16.098-8.1445 4.0898-4.7734 6.0781-10.852 5.5898-17.109-0.46875-6.2773-3.3594-11.98-8.125-16.078-4.7812-4.1172-10.988-6.1328-17.145-5.6289zm9.9609 22.871c0.16797 2.1758-0.52344 4.2773-1.9531 5.9375-1.4258 1.6602-3.4141 2.6641-5.6094 2.832-2.0273 0.19531-4.2578-0.50781-5.918-1.9414-1.6602-1.418-2.6641-3.4062-2.832-5.5898-0.34766-4.4922 3.0312-8.4336 7.5312-8.7812 0.20703-0.019532 0.41406-0.027344 0.63672-0.027344 1.9531 0 3.8086 0.69531 5.3086 1.9805 1.6719 1.4258 2.6641 3.4062 2.832 5.5742 0.003906 0.007812 0.003906 0.015624 0.003906 0.015624z"/>
  <path d="m308.12 314.38c-12.938 0.99609-22.664 12.328-21.68 25.27 0.9375 12.344 11.293 21.762 23.5 21.762 0.58984 0 1.1836-0.019531 1.7812-0.074218 12.945-0.99609 22.672-12.328 21.688-25.27v-0.019531c-1.0039-12.926-12.41-22.926-25.289-21.668zm2.4375 31.652c-4.707-0.054687-8.4414-3.0586-8.7891-7.543-0.34766-4.5039 3.0391-8.4414 7.5156-8.8008 0.21484 0 0.42188-0.019531 0.61719-0.019531 4.2422 0 7.8516 3.2852 8.1797 7.5781 0.33594 4.4883-3.0391 8.4258-7.5234 8.7852z"/>
  <path d="m247.75 368.29c-12.945 0.99609-22.672 12.328-21.688 25.289 0.95703 12.328 11.293 21.727 23.453 21.727 0.60156 0 1.2109-0.019531 1.8203-0.074219 6.2656-0.46875 11.98-3.3594 16.078-8.125 4.0977-4.7656 6.0977-10.863 5.6172-17.129-0.47656-6.2852-3.3789-12.008-8.1602-16.098-4.7656-4.1094-10.844-6.207-17.121-5.5898zm8.0039 28.797c-1.4258 1.6719-3.3945 2.6641-5.582 2.832-4.418 0.019532-8.4258-3.0195-8.7812-7.5234-0.34766-4.5039 3.0391-8.4414 7.543-8.8008 0.21484-0.019532 0.43359-0.019532 0.63672-0.019532 1.9531 0 3.8086 0.69531 5.3008 1.9688 1.6602 1.4258 2.6641 3.4141 2.832 5.5898 0.16797 2.1836-0.52344 4.3047-1.9492 5.9531z"/>

 </g>
</svg>
