<?xml version="1.0" encoding="UTF-8"?>
<svg width="700pt" height="700pt" version="1.1" viewBox="0 0 700 700" xmlns="http://www.w3.org/2000/svg" xmlns:xlink="http://www.w3.org/1999/xlink">

 <g>
  <path d="m525 131.25c0 25.75-33.59 26.25-35 26.25v-17.5h-17.5v17.5h-18.141c-2.5625-18.637-13.512-43.75-43.109-43.75-0.67188 0-1.2969 0.078125-1.9531 0.10547-6.8828-5.582-15.438-8.6992-24.297-8.8555h-53.121c-2.5547-18.629-13.527-43.75-43.129-43.75-30.117 0-40.949 26.016-43.25 44.73-7.793 1.5352-14.773 5.8086-19.68 12.051-4.9102 6.2422-7.418 14.035-7.0703 21.969-0.097656 6.1016 1.3672 12.125 4.2617 17.5h-13.012c-1.4258 0-35-0.29688-35-26.25 0-2.3203-0.92188-4.5469-2.5625-6.1875s-3.8672-2.5625-6.1875-2.5625h-78.75v17.5h70.805c5.25 27.43 35.168 35 51.695 35h100.51c-2.8945 5.375-4.3594 11.398-4.2617 17.5-0.27344 9.3633 3.3242 18.426 9.9492 25.051s15.688 10.223 25.051 9.9492h105c9.3633 0.27344 18.426-3.3242 25.051-9.9492s10.223-15.688 9.9492-25.051c0.097656-6.1016-1.3672-12.125-4.2539-17.5h13.004c16.527 0 46.445-7.5703 51.695-35h70.805v-17.5h-78.75c-4.832 0-8.75 3.918-8.75 8.75zm-288.75 8.75c-0.30859-4.7305 1.4375-9.3594 4.7891-12.711 3.3516-3.3516 7.9805-5.0977 12.711-4.7891 2.3203 0 4.5469-0.92188 6.1875-2.5625s2.5625-3.8672 2.5625-6.1875c0-1.4258 0.29688-35 26.25-35 25.75 0 26.25 33.59 26.25 35 0 2.3203 0.92188 4.5469 2.5625 6.1875s3.8672 2.5625 6.1875 2.5625h61.73c-9.8359 9.1758-16.008 21.613-17.359 35h-79.371v-17.5h-17.5v17.5h-17.5c-4.7305 0.30859-9.3594-1.4375-12.711-4.7891-3.3516-3.3516-5.0977-7.9805-4.7891-12.711zm227.5 52.5c0.30859 4.7305-1.4375 9.3594-4.7891 12.711-3.3516 3.3516-7.9805 5.0977-12.711 4.7891h-61.25v-17.5h-17.5v17.5h-26.25c-4.7305 0.30859-9.3594-1.4375-12.711-4.7891-3.3516-3.3516-5.0977-7.9805-4.7891-12.711-0.30859-4.7305 1.4375-9.3594 4.7891-12.711 3.3516-3.3516 7.9805-5.0977 12.711-4.7891h35c2.3203 0 4.5469-0.92188 6.1875-2.5625s2.5625-3.8672 2.5625-6.1875c0-1.4258 0.29688-35 26.25-35 25.75 0 26.25 33.59 26.25 35 0 2.3203 0.92188 4.5469 2.5625 6.1875s3.8672 2.5625 6.1875 2.5625c4.7305-0.30859 9.3594 1.4375 12.711 4.7891 3.3516 3.3516 5.0977 7.9805 4.7891 12.711z"/>
  <path d="m516.25 201.25v17.5h-17.5v17.5h17.5v17.5h17.5v-17.5h17.5v-17.5h-17.5v-17.5z"/>
  <path d="m341.25 306.25v17.5h-17.5v17.5h17.5v17.5h17.5v-17.5h17.5v-17.5h-17.5v-17.5z"/>
  <path d="m245 201.25h17.5v17.5h-17.5z"/>
  <path d="m175 96.25h17.5v17.5h-17.5z"/>
  <path d="m245 332.5h17.5v17.5h-17.5z"/>
  <path d="m175 411.25h17.5v17.5h-17.5z"/>
  <path d="m542.5 87.5h17.5v17.5h-17.5z"/>
  <path d="m411.25 262.5h17.5v17.5h-17.5z"/>
  <path d="m393.75 428.75h17.5v17.5h-17.5z"/>
  <path d="m288.75 385c-9.2812 0-18.184 3.6875-24.75 10.25-6.5625 6.5664-10.25 15.469-10.25 24.75s3.6875 18.184 10.25 24.75c6.5664 6.5625 15.469 10.25 24.75 10.25s18.184-3.6875 24.75-10.25c6.5625-6.5664 10.25-15.469 10.25-24.75s-3.6875-18.184-10.25-24.75c-6.5664-6.5625-15.469-10.25-24.75-10.25zm0 52.5c-4.6406 0-9.0938-1.8438-12.375-5.125s-5.125-7.7344-5.125-12.375 1.8438-9.0938 5.125-12.375 7.7344-5.125 12.375-5.125 9.0938 1.8438 12.375 5.125 5.125 7.7344 5.125 12.375-1.8438 9.0938-5.125 12.375-7.7344 5.125-12.375 5.125z"/>
  <path d="m481.25 323.75c0 9.2812 3.6875 18.184 10.25 24.75 6.5664 6.5625 15.469 10.25 24.75 10.25s18.184-3.6875 24.75-10.25c6.5625-6.5664 10.25-15.469 10.25-24.75s-3.6875-18.184-10.25-24.75c-6.5664-6.5625-15.469-10.25-24.75-10.25s-18.184 3.6875-24.75 10.25c-6.5625 6.5664-10.25 15.469-10.25 24.75zm35-17.5c4.6406 0 9.0938 1.8438 12.375 5.125s5.125 7.7344 5.125 12.375-1.8438 9.0938-5.125 12.375-7.7344 5.125-12.375 5.125-9.0938-1.8438-12.375-5.125-5.125-7.7344-5.125-12.375 1.8438-9.0938 5.125-12.375 7.7344-5.125 12.375-5.125z"/>
  <path d="m192.5 227.5c-9.2812 0-18.184 3.6875-24.75 10.25-6.5625 6.5664-10.25 15.469-10.25 24.75s3.6875 18.184 10.25 24.75c6.5664 6.5625 15.469 10.25 24.75 10.25s18.184-3.6875 24.75-10.25c6.5625-6.5664 10.25-15.469 10.25-24.75s-3.6875-18.184-10.25-24.75c-6.5664-6.5625-15.469-10.25-24.75-10.25zm0 52.5c-4.6406 0-9.0938-1.8438-12.375-5.125s-5.125-7.7344-5.125-12.375 1.8438-9.0938 5.125-12.375 7.7344-5.125 12.375-5.125 9.0938 1.8438 12.375 5.125 5.125 7.7344 5.125 12.375-1.8438 9.0938-5.125 12.375-7.7344 5.125-12.375 5.125z"/>

 </g>
</svg>
