<?xml version="1.0" encoding="UTF-8"?>
<svg width="700pt" height="700pt" version="1.1" viewBox="0 0 700 700" xmlns="http://www.w3.org/2000/svg" xmlns:xlink="http://www.w3.org/1999/xlink">

 <g>
  <path d="m590.8 285.6c-66.586 0-115.7 4.8711-164.14 16.352-25.258 5.9375-50.344 14-76.609 24.359-26.207-10.359-51.633-18.48-76.719-24.359-48.441-11.48-97.551-16.352-164.14-16.352-6.1602 0-11.199 5.0391-11.199 11.199v224c0 6.1602 5.0391 11.199 11.199 11.199h403.14 0.054688 0.054687 78.348c6.1602 0 11.199-5.0391 11.199-11.199v-224c0-6.1602-5.0391-11.199-11.199-11.199zm-76.777 224c-32.648-8.9609-64.008-24.527-94.305-39.594-5.7695-2.8555-11.594-5.7695-17.359-8.5664-45.473-22.176-87.641-37.742-128.97-47.543-45.75-10.754-92.008-15.738-152.99-16.242v-33.602c59.137 0.50391 103.88 5.3203 147.79 15.68 39.703 9.4062 80.359 24.359 124.32 45.863 5.7695 2.8008 11.48 5.6562 17.191 8.5117 33.375 16.574 67.871 33.711 105.22 42.953 21.336 5.2656 43.23 7.4492 64.625 9.2969v23.242zm-128.24 0c-39.199-18.09-75.992-31.078-112.39-39.648-45.754-10.809-92.012-15.793-153-16.297v-33.602c59.137 0.50391 103.88 5.3203 147.79 15.68 39.703 9.4062 80.359 24.359 124.32 45.863 5.7695 2.8008 11.48 5.6562 17.246 8.5117 13.273 6.6094 26.77 13.273 40.543 19.543l-64.508 0.003906zm-265.39-33.547c59.137 0.50391 103.88 5.3203 147.79 15.68 19.434 4.5938 39.031 10.527 59.078 17.863l-206.86 0.003906zm459.2-68.207c-19.938-1.6797-40.152-3.8086-59.246-8.5664-22.566-5.6016-44.465-14.449-65.855-24.359 36.961-7.0547 76.105-10.414 125.11-10.863zm-147.79-84.113c43.902-10.359 88.648-15.176 147.79-15.68v33.602c-60.984 0.50391-107.24 5.4883-152.94 16.297-1.625 0.39062-3.1914 0.78516-4.7617 1.1758-0.72656-0.33594-1.457-0.72656-2.1836-1.0625-5.7695-2.8555-11.535-5.7695-17.359-8.5664-7.5039-3.6953-14.953-7.1133-22.289-10.414 17.473-6.1641 34.609-11.316 51.746-15.352zm-39.312 45.867c5.7695 2.8008 11.48 5.6562 17.191 8.5117 33.375 16.574 67.871 33.711 105.22 42.953 21.336 5.2656 43.23 7.4492 64.625 9.2969v33.543c-19.938-1.6797-40.152-3.8086-59.246-8.5664-35-8.625-68.375-25.199-100.63-41.273-5.7695-2.8555-11.535-5.7695-17.359-8.5664-45.473-22.23-87.641-37.742-128.97-47.543-45.695-10.812-91.953-15.797-152.94-16.301v-33.602c59.137 0.50391 103.88 5.3203 147.79 15.68 39.703 9.3555 80.359 24.363 124.32 45.867zm-42.504-106.4c64.848 0 117.6-52.754 117.6-117.6 0-64.844-52.754-117.6-117.6-117.6s-117.6 52.754-117.6 117.6c0 64.848 52.754 117.6 117.6 117.6zm0-212.8c52.473 0 95.199 42.727 95.199 95.199s-42.727 95.199-95.199 95.199-95.199-42.727-95.199-95.199c0-52.469 42.727-95.199 95.199-95.199z"/>
 
 </g>
</svg>
