<?xml version="1.0" encoding="UTF-8"?>
<svg width="700pt" height="700pt" version="1.1" viewBox="0 0 700 700" xmlns="http://www.w3.org/2000/svg" xmlns:xlink="http://www.w3.org/1999/xlink">

 <g>
  <path d="m422.41 146.95 61.039 61.039-21.449 14.449c0-0.78516-0.16797-1.6797-0.054688-2.5195 0.67188-5.375-0.33594-16.352-15.121-32.145-14.895-15.961-31.191-18.145-39.594-18.199z"/>
  <path d="m568.62 150.3-72.352 47.766-64.008-64.117 48.215-71.793z"/>
  <path d="m583.3 165.09c-3.3047 0-6.6094-1.2891-9.1289-3.8086l-103.77-103.77c-2.4648-2.4648-3.8086-5.7109-3.8086-9.1289 0-3.4727 1.3438-6.7188 3.8086-9.1289l22.566-22.566c5.0391-5.0391 13.273-5.0391 18.312 0l103.77 103.77c2.4648 2.4648 3.8086 5.7109 3.8086 9.1289 0 3.4727-1.3438 6.7188-3.8086 9.1289l-22.566 22.566c-2.5781 2.5195-5.8789 3.8086-9.1836 3.8086zm-3.6953-9.2422c1.9609 1.9609 5.4336 1.9609 7.3906 0l22.566-22.566c1.0078-1.0078 1.5117-2.2969 1.5117-3.6953 0-1.3984-0.55859-2.6875-1.5117-3.6953l-103.77-103.71c-1.9609-1.9609-5.4336-1.9609-7.3906 0l-22.566 22.566c-0.95703 0.95312-1.5156 2.2422-1.5156 3.6406 0 1.3984 0.55859 2.6875 1.5117 3.6953z"/>
  <path d="m493.81 219.8c-3.0234 0-5.9922-1.1211-8.2891-3.4141l-70.223-70.227c-4.5938-4.5938-4.5938-11.984 0-16.574l1.1758-1.1758c4.5938-4.5938 11.984-4.5938 16.574 0l70.281 70.223c4.5938 4.5938 4.5938 11.984 0 16.574l-1.2305 1.2305c-2.2969 2.2422-5.2656 3.3633-8.2891 3.3633zm-69.047-87.137c-1.0078 0-2.0703 0.39063-2.8008 1.1758l-1.1758 1.1758c-1.5664 1.5664-1.5664 4.0898 0 5.6562l70.281 70.281c1.5664 1.5664 4.0898 1.5664 5.6562 0l1.2305-1.2305c1.5664-1.5664 1.5664-4.0898 0-5.6562l-70.336-70.227c-0.78516-0.78516-1.8477-1.1758-2.8555-1.1758z"/>
  <path d="m440.44 203.62-13.719-13.719c-14.672-14.727-38.754-14.055-52.586 1.457 0 0-24.414 36.902-55.832 68.375-31.473 31.414-231.45 252.39-231.45 252.39-7.8945 8.793-7.5039 22.176 0.83984 30.52s21.727 8.7344 30.574 0.83984c0 0 219.3-198.3 252.39-231.45 33.098-33.098 68.375-55.832 68.375-55.832 15.461-13.832 16.133-37.91 1.4062-52.582zm-294.11 294.05c-3.6953 3.6953-9.6328 3.6953-13.383 0-3.6953-3.6953-3.6953-9.6328 0-13.383 3.6953-3.6953 9.6875-3.6953 13.383 0 3.75 3.6953 3.75 9.6875 0 13.383zm38.137-38.137c-3.6953 3.6953-9.6328 3.6953-13.383 0-3.6953-3.6953-3.6953-9.6328 0-13.383 3.6953-3.6953 9.6875-3.6953 13.383 0 3.6953 3.75 3.6953 9.7422 0 13.383zm38.137-38.137c-3.6953 3.6953-9.6328 3.6953-13.383 0-3.6953-3.6953-3.6953-9.6328 0-13.328 3.6953-3.6953 9.6875-3.6953 13.383 0 3.6953 3.6992 3.6953 9.6914 0 13.328zm38.078-38.078c-3.6953 3.6953-9.6328 3.6953-13.383 0-3.6953-3.6953-3.6953-9.6328 0-13.328 3.6953-3.6953 9.6875-3.6953 13.383 0 3.7539 3.6406 3.7539 9.6328 0 13.328zm38.137-38.082c-3.6953 3.6953-9.6328 3.6953-13.383 0-3.6953-3.6953-3.6953-9.6875 0-13.383 3.6953-3.6953 9.6875-3.6953 13.383 0 3.6953 3.6953 3.6953 9.6875 0 13.383zm38.137-37.629c-3.6953 3.6953-9.6328 3.6953-13.383 0-3.6953-3.6953-3.6953-9.6328 0-13.383 3.6953-3.6953 9.6875-3.6953 13.383 0 3.6953 3.75 3.6953 9.7422 0 13.383zm38.078-38.137c-3.6953 3.6953-9.6328 3.6953-13.383 0-3.6953-3.6953-3.6953-9.6328 0-13.328 3.6953-3.6953 9.6875-3.6953 13.383 0 3.7539 3.6953 3.7539 9.6875 0 13.328zm38.137-38.082c-3.6953 3.6953-9.6328 3.6953-13.383 0-3.6953-3.6953-3.6953-9.6328 0-13.328 3.6953-3.6953 9.6875-3.6953 13.383 0 3.6953 3.6406 3.6953 9.6328 0 13.328z"/>

 </g>
</svg>
