<?xml version="1.0" encoding="UTF-8"?>
<svg width="700pt" height="700pt" version="1.1" viewBox="0 0 700 700" xmlns="http://www.w3.org/2000/svg" xmlns:xlink="http://www.w3.org/1999/xlink">

 <g>
  <path d="m256.14 183.9c-22.793 0-43.176-12.039-50.734-29.961l-0.003906 0.003906c-1.543-3.5586 0.085938-7.6953 3.6406-9.2422 3.5586-1.5469 7.6953 0.085937 9.2422 3.6406 5.6016 12.77 20.664 21.391 37.855 21.391 17.191 0 32.254-8.4531 37.855-21.223 0.74219-1.707 2.1328-3.0508 3.8672-3.7344 1.7305-0.68359 3.6641-0.64844 5.3711 0.09375 3.5586 1.5469 5.1875 5.6836 3.6406 9.2422-7.2773 17.75-27.941 29.789-50.734 29.789z"/>
  <path d="m443.86 183.9c-22.793 0-43.176-12.039-50.734-29.961v0.003906c-1.5469-3.5586 0.082031-7.6953 3.6406-9.2422 3.5547-1.5469 7.6914 0.085937 9.2383 3.6406 5.6016 12.77 20.609 21.391 37.855 21.391 17.246 0 32.426-8.625 37.855-21.391 0.70703-1.7148 2.0664-3.0742 3.7812-3.7812 1.7148-0.70312 3.6406-0.69141 5.3477 0.03125 1.7188 0.71484 3.0781 2.0859 3.7852 3.8125 0.70312 1.7227 0.69141 3.6562-0.03125 5.3711-7.5625 18.086-27.945 30.125-50.738 30.125z"/>
  <path d="m348.21 407.62c-51.91 0-94.359-17.754-103.21-43.176-1.1094-3.6016 0.83203-7.4375 4.3945-8.6719 3.5586-1.2383 7.457 0.56641 8.8203 4.0781 5.6016 16.801 41.047 33.602 89.992 33.602 48.945 0 82.098-16.801 89.32-32.09 0.53516-1.9688 1.9023-3.6055 3.7461-4.4844 1.8438-0.87891 3.9766-0.91016 5.8438-0.082031 1.8672 0.82422 3.2773 2.4258 3.8672 4.3789 0.58984 1.9531 0.29688 4.0664-0.80078 5.7891-10.977 24.137-52.918 40.656-101.98 40.656z"/>
  <path d="m349.66 337.85c-11.258-0.015625-21.887-5.1836-28.852-14.027-6.9648-8.8398-9.4961-20.387-6.875-31.332l28-117.21c0.37109-1.8672 1.4844-3.5 3.0859-4.5273 1.6016-1.0234 3.5508-1.3555 5.4023-0.91406 1.8516 0.44141 3.4414 1.6172 4.4062 3.2578 0.96484 1.6367 1.2227 3.5977 0.71094 5.4297l-27.941 117.27c-1.6133 6.7656-0.035156 13.898 4.2773 19.355 4.3125 5.4609 10.887 8.6445 17.84 8.6445 3.8672 0 7 3.1328 7 7 0 3.8633-3.1328 7-7 7z"/>
 </g>
</svg>
