<?xml version="1.0" encoding="UTF-8"?>
<svg width="700pt" height="700pt" version="1.1" viewBox="0 0 700 700" xmlns="http://www.w3.org/2000/svg" xmlns:xlink="http://www.w3.org/1999/xlink">

 <g>
  <path d="m400.69 109.6c-0.015625-0.003906-0.035156-0.015624-0.050781-0.023437-0.0625-0.027344-0.125-0.015625-0.18359-0.042969-16.004-4.7422-32.93-7.3359-50.457-7.3359-98.035 0-177.8 79.762-177.8 177.8s79.762 177.8 177.79 177.8c98.043 0 177.8-79.762 177.8-177.8 0.003906-80.426-53.695-148.52-127.11-170.4zm-50.691 339.8c-93.402 0-169.39-75.992-169.39-169.4s75.992-169.4 169.39-169.4c16.559 0 32.555 2.4297 47.691 6.8828 44.766 20.312 76.652 61.734 83.262 108.25 5.4258 38.219-10.426 78.613-42.41 108.05-0.039062 0.039062-0.054687 0.089844-0.089843 0.125-0.003907 0.003906-0.015625 0.003906-0.023438 0.011718-41.586 41.59-109.27 41.598-150.87 0-32.945-32.949-32.945-86.566 0-119.51 12.609-12.609 29.379-19.555 47.207-19.555 17.832 0 34.598 6.9453 47.207 19.555 9.9297 9.9297 15.398 23.133 15.398 37.18 0 14.039-5.4727 27.242-15.398 37.172-7.7852 7.7852-18.133 12.066-29.141 12.066s-21.359-4.2891-29.141-12.066c-12.527-12.527-12.527-32.918 0-45.445 4.6992-4.6992 10.941-7.2852 17.586-7.2852 6.6406 0 12.887 2.5859 17.586 7.2852 3.6016 3.6016 5.582 8.3828 5.582 13.473s-1.9805 9.8711-5.582 13.473c-5.4375 5.4414-14.926 5.4414-20.367 0-2.0156-2.0156-3.1289-4.6992-3.1289-7.5547 0-2.8516 1.1094-5.5312 3.1289-7.5547 1.6406-1.6367 1.6406-4.3008 0-5.9414-1.6406-1.6406-4.3008-1.6406-5.9414 0-3.6055 3.6055-5.5898 8.3945-5.5898 13.492 0 5.0977 1.9805 9.8906 5.5898 13.496 4.3047 4.3047 10.035 6.6797 16.121 6.6797 6.0938 0 11.816-2.375 16.121-6.6797 5.1875-5.1875 8.0469-12.078 8.0469-19.41 0-7.3359-2.8633-14.23-8.0469-19.414-6.2812-6.2812-14.633-9.7422-23.52-9.7422-8.8867 0-17.242 3.4609-23.52 9.7422-15.805 15.805-15.805 41.52 0 57.32 19.348 19.344 50.82 19.348 70.164 0 11.52-11.52 17.859-26.828 17.859-43.113s-6.3438-31.602-17.859-43.113c-14.195-14.195-33.066-22.012-53.145-22.012-20.074 0-38.953 7.8164-53.148 22.012-36.223 36.223-36.223 95.168 0 131.39 22.434 22.434 51.906 33.656 81.375 33.656 29.473 0 58.941-11.223 81.375-33.656 0.027344-0.027343 0.039062-0.066406 0.066406-0.10156 33.875-31.289 50.637-74.328 44.828-115.2-4.5352-31.922-20.305-61.527-43.668-84.301 44.516 30.555 73.797 81.789 73.797 139.75 0 93.406-75.992 169.4-169.4 169.4z"/>
  <path d="m350 15.398c-145.9 0-264.6 118.7-264.6 264.6s118.7 264.6 264.6 264.6c145.91 0 264.61-118.7 264.61-264.6s-118.7-264.6-264.61-264.6zm0 520.8c-141.27 0-256.2-114.93-256.2-256.2s114.93-256.2 256.2-256.2c141.28 0 256.21 114.93 256.21 256.2-0.003906 141.27-114.93 256.2-256.21 256.2z"/>

 </g>
</svg>
