<?xml version="1.0" encoding="UTF-8"?>
<svg width="700pt" height="700pt" version="1.1" viewBox="0 0 700 700" xmlns="http://www.w3.org/2000/svg" xmlns:xlink="http://www.w3.org/1999/xlink">


 <g>
  <path d="m318.56 122.83c-42.516 16.977-72.285 55.5-98.973 96.312-4.6641 7.1211-9.25 14.348-13.789 21.523-12.523 19.742-24.762 39.027-37.449 54.434-17.336 21.055-37.461 37.363-63.352 37.363-4.8281 0-8.75-3.918-8.75-8.75 0-4.8398 3.9219-8.75 8.75-8.75 17.77 0 33.406-11.035 49.84-30.992 11.953-14.5 23.301-32.395 35.594-51.773 4.6758-7.3594 9.4766-14.945 14.508-22.629 35.711-54.617 81.684-113.32 162.04-113.32 42.289 0 84.734 8.8125 116.9 29.652 32.613 21.141 54.242 54.445 54.242 101.6 0 19.555-9.1367 32.594-21.508 36.363-5.1172 1.5586-10.699 1.4023-15.566-0.86328-0.4375 0.70703-0.90234 1.3984-1.3828 2.0625-5.1953 7.1133-12.371 10.797-19.645 11.605-7.0703 0.78516-14.121-1.1484-19.527-4.9648-2.5312-1.7734-4.8477-4.0859-6.5977-6.8477-2.7578 0.69141-5.6094 0.84766-8.4023 0.50391-3-0.36719-5.9062-1.2773-8.6172-2.6562-3.7891 2.4648-7.6484 8.8359-8.0859 20.578-0.48047 12.695 3.3789 29.172 13.363 45.598 19.703 32.426 63.508 64.871 144.09 64.871 4.8281 0 8.75 3.9219 8.75 8.75s-3.9219 8.75-8.75 8.75c-85.742 0-135.7-34.867-159.05-73.281-11.543-18.996-16.523-38.824-15.902-55.344 0.47266-12.59 4.4375-25.078 13.066-32.426-2.3711-4.4727-3.7617-9.7227-3.7617-15.488 0-2.9062-0.14062-5.707-0.42188-8.3906-10.309 2.9453-19.703 12.309-25.945 27.008-7.6914 18.125-9.7383 42.852-2.2812 67.84 14.672 49.176 66.98 101.02 189.92 101.02 3.6211 0 6.5625 2.9414 6.5625 6.5625s-2.9414 6.5625-6.5625 6.5625c-126.95 0-185.7-54.109-202.49-110.4-8.2852-27.746-6.1797-55.633 2.7734-76.711 7.2617-17.117 19.645-30.801 35.438-34.816-2.8867-9.4141-7.6992-17.055-13.684-22.996-21.789 1.2266-40.285 15.805-51.891 38.711-12.117 23.922-16.203 56.199-8.0586 88.68 8.1133 32.359 28.367 64.875 64.918 89.383 36.582 24.543 89.855 41.273 164.25 41.273 3.6211 0 6.5625 2.9414 6.5625 6.5625s-2.9414 6.5625-6.5625 6.5625c-76.316 0-132.31-17.176-171.56-43.496-39.285-26.348-61.441-61.645-70.332-97.09-8.8633-35.34-4.5664-70.875 9.082-97.809 10.676-21.059 27.371-37.309 48.23-43.391-10.445-4.8398-22.609-6.6328-34.957-5.0469-33.625 4.3125-69.238 34.09-69.238 96.52l-0.007812 0.18359c-1.3555 64.18 41.449 161.36 170.04 192.56 4.6992 1.1367 7.5781 5.8711 6.4414 10.57-1.1406 4.6992-5.8711 7.5742-10.57 6.4375-137.16-33.285-184.88-138.14-183.4-209.85 0.035156-70.242 41.285-108.23 84.516-113.79 21.309-2.7266 42.98 2.5234 59.449 15.77 16.641 13.371 27.293 34.359 27.293 61.574 0 8.4414 5.6055 12.801 9.5 13.281 1.75 0.21094 3.1602-0.26953 4.3047-1.5312 1.2969-1.418 3.0898-4.7773 3.0898-11.75 0-4.832 3.9219-8.75 8.75-8.75s8.75 3.918 8.75 8.75c0 7.3828-1.4336 13.852-4.375 19.012v0.027344c0 0.86719 0.47266 2.2656 2.4414 3.6484 1.9688 1.3828 4.7617 2.1797 7.5352 1.8711 2.5703-0.28516 5.2383-1.5195 7.4258-4.5234 2.2852-3.1328 4.4727-8.8008 4.4727-18.496 0-4.8281 3.9219-8.75 8.75-8.75s8.75 3.9219 8.75 8.75c0 2.2656-0.097656 4.4453-0.28125 6.5352 0.18359 0.71094 0.28125 1.4531 0.28125 2.2148 0 1.5586 0.53516 1.8984 0.71875 2.0117h0.007812c0.41016 0.27344 1.5312 0.64844 3.2812 0.11328 2.9414-0.89844 9.1172-5.3633 9.1172-19.625 0-36.398-14.535-62.555-37.484-80.641 14.062 16.539 22.172 35.676 22.172 54.391 0 3.6211-2.9414 6.5625-6.5625 6.5625s-6.5625-2.9414-6.5625-6.5625c0-20.938-12.934-44.441-36.523-62.309-11.77-8.9258-26.055-16.328-42.402-21.176-5.957-1.0859-12.047-1.9492-18.227-2.5898 7.3867 2.4961 14.387 5.5234 20.941 9.0039 32.129 17.09 54.336 45.762 54.336 77.07 0 3.6211-2.9414 6.5625-6.5625 6.5625s-6.5625-2.9414-6.5625-6.5625c0-24.84-17.895-49.805-47.371-65.477-24.73-13.152-56.93-19.293-91.254-12.941z" fill-rule="evenodd"/>

 </g>
</svg>
