<?xml version="1.0" encoding="UTF-8"?>
<svg width="700pt" height="700pt" version="1.1" viewBox="0 0 700 700" xmlns="http://www.w3.org/2000/svg">
 <g>
  <path d="m396.7 61.906c-22.484 0.035156-43.723 10.332-57.676 27.965-0.17969 0.29688-0.46875 0.51562-0.80859 0.59766-0.33984 0.085938-0.69922 0.03125-0.99609-0.14844-6.9688-5.2617-15.492-8.0469-24.223-7.9062-8.7266 0.14063-17.16 3.1914-23.953 8.6719-3.9219 0.13281-7.8125 0.75391-11.578 1.8516-0.52734 0.13672-1.0859-0.039062-1.4453-0.44922-9.0938-9.7578-21.832-15.301-35.172-15.301s-26.082 5.543-35.176 15.301c-0.35547 0.41016-0.91797 0.58594-1.4453 0.44922-14.977-4.3438-31.137-0.98828-43.145 8.9648-12.008 9.9492-18.309 25.203-16.82 40.73 0.050781 0.54297-0.21094 1.0664-0.67578 1.3516-5.082 3.0664-9.125 7.5859-11.609 12.973-2.4844 5.3906-3.293 11.398-2.3242 17.254-21.312 11.309-35.098 32.996-36.297 57.09-0.19141 3.8008 0.83984 7.5586 2.9414 10.73 2.0977 3.1719 5.1562 5.5859 8.7305 6.8945 15.723 5.7578 33.238 3.7617 47.262-5.3906 0.64453 21.309 5.8516 42.234 15.266 61.363 10.703 19.008 26.715 34.484 46.074 44.535 4.8672 2.5195 10.062 4.3477 15.43 5.4375 11.422 17.984 31.559 28.523 52.848 27.656v82.371c0.23438 11.691 6.6094 22.398 16.777 28.18 10.168 5.7773 22.629 5.7773 32.797 0 10.168-5.7812 16.543-16.488 16.781-28.18v-39.098c18.727 2.0312 37.457-3.8398 51.676-16.195 0.5-0.45312 1.2617-0.45312 1.7617 0 10.387 8.7969 23.125 14.355 36.641 15.996 13.512 1.6367 27.211-0.71875 39.402-6.7773v46.074c0.007812 11.852 6.3359 22.797 16.602 28.723 10.266 5.9219 22.91 5.9219 33.176 0 10.266-5.9258 16.594-16.871 16.605-28.723v-89.418c19.68-7.207 35.074-22.887 41.926-42.691 6.8516-19.809 4.4297-41.645-6.5898-59.473-0.3125-0.60156-0.11719-1.3477 0.45312-1.7148 13.52-10.117 22.699-24.98 25.695-41.598 2.9922-16.617-0.42188-33.75-9.5625-47.949-9.1367-14.199-23.316-24.402-39.684-28.562-0.54688-0.13672-0.94922-0.60938-0.99219-1.1719-1.4336-21.402-13.523-40.648-32.18-51.23-18.656-10.582-41.383-11.086-60.488-1.3359-0.63672 0.33203-1.418 0.089844-1.7578-0.54297-6.4609-11.285-15.797-20.664-27.055-27.18-11.258-6.5117-24.039-9.9297-37.043-9.9062zm-3.0703 8.1953h-0.003906c12.082-0.58984 24.09 2.1758 34.699 7.9844 10.605 5.8125 19.402 14.445 25.406 24.945 2.5078 4.3672 8.0039 6 12.488 3.7031 16.672-8.5039 36.504-8.0586 52.781 1.1797 16.277 9.2383 26.82 26.035 28.07 44.711 0.26953 4.0703 3.1211 7.5039 7.0703 8.5195 14.367 3.6523 26.812 12.617 34.836 25.082 8.0195 12.465 11.02 27.508 8.3945 42.094-2.625 14.59-10.684 27.641-22.547 36.527-3.9297 2.9258-4.9688 8.3672-2.3945 12.535 8.0664 13.066 10.961 28.68 8.1172 43.773-2.8438 15.09-11.223 28.578-23.492 37.816-12.27 9.2383-27.547 13.559-42.836 12.121-4.2812-0.41406-8.3047 2.1172-9.7773 6.1602-6.8906 18.914-22.594 33.262-42.047 38.426-19.453 5.1602-40.203 0.48828-55.566-12.516-3.5352-3.0391-8.7617-3.0391-12.297 0-14.715 12.793-34.766 17.57-53.672 12.785-18.902-4.7852-34.262-18.527-41.117-36.785-1.6172-4.3047-6.1016-6.8164-10.617-5.9453-9.0195 1.7344-18.336 1.0273-26.988-2.043-8.6562-3.0664-16.332-8.3906-22.242-15.422 9.7734 0.15234 19.43-2.125 28.105-6.625 19.367-10.047 35.387-25.523 46.098-44.535 9.4062-19.129 14.602-40.055 15.238-61.363 14.023 9.1523 31.543 11.152 47.266 5.3945 3.5742-1.3086 6.6328-3.7266 8.7305-6.8945 2.1016-3.1719 3.1328-6.9336 2.9414-10.73-1.1914-24.09-14.973-45.777-36.273-57.094 0.96484-5.8555 0.14844-11.871-2.3438-17.262-2.4922-5.3867-6.5469-9.9023-11.637-12.961-0.46094-0.28906-0.72266-0.8125-0.67578-1.3555 1.0664-11.121-1.8555-22.262-8.25-31.426-6.3945-9.1641-15.84-15.754-26.645-18.594 10.008-3.8516 21.297-2.2656 29.855 4.2031 4.0938 3.0938 9.9062 2.3516 13.094-1.6719 11.738-14.84 29.32-23.887 48.219-24.809zm-153.63 15.031c11.363-0.22656 22.289 4.3984 30.035 12.719 2.4609 2.6406 6.1992 3.668 9.668 2.6641 12.391-3.582 25.75-0.79688 35.676 7.4375 9.9258 8.2344 15.129 20.852 13.898 33.691-0.34766 3.6641 1.4414 7.2031 4.5977 9.0977 5.1836 3.1016 8.8242 8.2383 10.031 14.152 1.2109 5.918-0.12109 12.07-3.668 16.957-3.5469 4.8867-8.9844 8.0547-14.988 8.7383-6 0.67969-12.008-1.1953-16.559-5.1602-2.8594-2.4883-6.9102-3.0547-10.34-1.4492-3.6562 1.7266-7.7695 2.2109-11.727 1.3867-3.9531-0.82813-7.5312-2.918-10.188-5.9609-3.1797-3.6484-8.582-4.3438-12.586-1.6289-6.7891 4.6367-14.816 7.1133-23.035 7.1133-8.2227 0-16.25-2.4766-23.039-7.1133-4.0078-2.7266-9.4219-2.0273-12.602 1.6289-2.6562 3.0352-6.2305 5.125-10.18 5.9492-3.9492 0.82812-8.0625 0.34375-11.715-1.375-3.4297-1.6055-7.4844-1.0391-10.34 1.4492-4.5547 3.9648-10.562 5.8398-16.562 5.1602-6-0.68359-11.441-3.8516-14.988-8.7383-3.5469-4.8867-4.8789-11.039-3.668-16.957 1.2109-5.9141 4.8516-11.051 10.031-14.152 3.1484-1.8984 4.9258-5.4375 4.5742-9.0977-1.2305-12.84 3.9727-25.457 13.898-33.691 9.9297-8.2344 23.289-11.02 35.68-7.4375 3.4727 1.0156 7.2227-0.015625 9.6875-2.6641 7.3594-7.9062 17.605-12.492 28.406-12.719zm-107.93 96.793c2.3203 4.875 5.9297 9.0234 10.438 11.996 4.5078 2.9766 9.7422 4.6602 15.141 4.8789-3.1328 11.211-4.9414 22.75-5.3906 34.379-6.0547 5.1289-13.363 8.5664-21.176 9.9531-7.8164 1.3906-15.859 0.6875-23.312-2.0391-3.9883-1.4609-6.5625-5.3516-6.3477-9.5938 1.0312-20.688 12.602-39.402 30.648-49.574zm217.46 0c18.055 10.164 29.633 28.883 30.668 49.574 0.21484 4.2461-2.3594 8.1328-6.3516 9.5938-7.457 2.7344-15.512 3.4453-23.332 2.0547-7.8242-1.3906-15.141-4.832-21.203-9.9688-0.43359-11.629-2.2266-23.168-5.3398-34.379 5.3906-0.22266 10.621-1.9062 15.125-4.8828 4.5078-2.9727 8.1133-7.1211 10.434-11.992zm-137.25 2.3516v-0.003906c0.34766 0.039062 0.66797 0.19922 0.90234 0.45312 8.1406 5.5547 17.77 8.5273 27.625 8.5273 9.8594 0 19.484-2.9727 27.625-8.5273 0.65625-0.36719 1.4805-0.16797 1.8984 0.45313h0.023438c3.8125 4.3672 8.9492 7.375 14.625 8.5703 5.6758 1.1914 11.586 0.50391 16.836-1.9609 0.46875-0.29687 1.0664-0.29687 1.5352 0 3.4336 2.9844 7.5039 5.1445 11.902 6.3047 10.367 34.164 7.3906 70.992-8.332 103.05-9.9297 17.539-24.734 31.816-42.621 41.102-14.719 7.6406-32.238 7.6406-46.961 0-17.895-9.2812-32.707-23.559-42.641-41.102-15.715-32.059-18.684-68.887-8.3125-103.05 4.3906-1.1641 8.457-3.3242 11.879-6.3047 0.48047-0.31641 1.1016-0.31641 1.582 0 5.25 2.4648 11.16 3.1523 16.836 1.9609 5.6797-1.1953 10.812-4.2031 14.629-8.5703 0.25-0.29297 0.60938-0.47266 0.99219-0.5zm323.6 193.43v87.016-0.003906c-0.12109 8.8711-4.9219 17.02-12.625 21.418-7.7031 4.4023-17.16 4.4023-24.863 0-7.7031-4.3984-12.508-12.547-12.625-21.418v-50.836c12.098-8.2266 21.301-20.051 26.305-33.801 0.20703-0.57812 0.78906-0.93359 1.3984-0.85938 7.5117 0.70703 15.086 0.1875 22.43-1.5352zm-245.1 3.6172v-0.003906c0.59375-0.054687 1.1523 0.29688 1.3555 0.85938 7.9453 21.164 25.934 36.961 47.945 42.105v40.473c-0.11719 8.8711-4.9219 17.02-12.625 21.422-7.7031 4.4023-17.16 4.4023-24.863 0-7.7031-4.4023-12.504-12.551-12.625-21.422v-83.027c0.20703-0.24219 0.49609-0.40234 0.8125-0.44922z"/>
  <path d="m283.12 219.77c0.11719-2.1211-0.64453-4.1953-2.1055-5.7344-1.457-1.543-3.4883-2.418-5.6094-2.418-2.125 0-4.1523 0.875-5.6133 2.418-1.457 1.5391-2.2188 3.6133-2.1016 5.7344-0.11719 2.1211 0.64453 4.1953 2.1016 5.7383 1.4609 1.5391 3.4883 2.4141 5.6133 2.4141 2.1211 0 4.1523-0.875 5.6094-2.4141 1.4609-1.543 2.2227-3.6172 2.1055-5.7383z"/>
  <path d="m213.96 219.77c0.023437-2.0664-0.78125-4.0547-2.2344-5.5234-1.4492-1.4648-3.4297-2.293-5.4961-2.293s-4.043 0.82812-5.4961 2.293c-1.4531 1.4688-2.2578 3.457-2.2344 5.5234-0.023437 2.0664 0.78125 4.0547 2.2344 5.5234s3.4297 2.293 5.4961 2.293 4.0469-0.82422 5.4961-2.293c1.4531-1.4688 2.2578-3.457 2.2344-5.5234z"/>
 </g>
</svg>
