<?xml version="1.0" encoding="UTF-8"?>
<svg width="700pt" height="700pt" version="1.1" viewBox="0 0 700 700" xmlns="http://www.w3.org/2000/svg" xmlns:xlink="http://www.w3.org/1999/xlink">

 <g>
  <path d="m593.6 467.6c-25.199 0-38.078 14.559-47.039 24.078-7.2812 8.3984-8.9609 9.5195-14 9.5195-4.4805 0-6.1602-1.1211-14-9.5195-8.9609-9.5195-21.84-24.078-47.039-24.078-25.199 0-38.078 14.559-47.039 24.078-7.2812 8.3984-8.9609 9.5195-14 9.5195-4.4805 0-6.1602-1.1211-14-9.5195-8.9609-9.5195-21.84-24.078-47.039-24.078-25.199 0-38.078 14.559-47.039 24.078-7.2812 8.3984-8.9609 9.5195-14 9.5195-4.4805 0-6.1602-1.1211-14-9.5195-8.9609-9.5195-21.84-24.078-47.039-24.078-25.199 0-38.078 14.559-47.039 24.078-7.2812 8.3984-8.9609 9.5195-14 9.5195-4.4805 0-6.1602-1.1211-14-9.5195-8.9609-9.5195-21.84-24.078-47.039-24.078-12.32 0-22.398 10.078-22.398 22.398s10.078 22.398 22.398 22.398c4.4805 0 6.1602 1.1211 14 9.5195 8.9609 9.5195 21.84 24.078 47.039 24.078s38.078-14.559 47.039-24.078c7.2812-8.3984 8.9609-9.5195 14-9.5195 4.4805 0 6.1602 1.1211 14 9.5195 8.9609 9.5195 21.84 24.078 47.039 24.078s38.078-14.559 47.039-24.078c7.2812-8.3984 8.9609-9.5195 14-9.5195 4.4805 0 6.1602 1.1211 14 9.5195 8.9609 9.5195 21.84 24.078 47.039 24.078s38.078-14.559 47.039-24.078c7.2812-8.3984 8.9609-9.5195 14-9.5195 4.4805 0 6.1602 1.1211 14 9.5195 8.9609 9.5195 21.84 24.078 47.039 24.078s38.078-14.559 47.039-24.078c7.2812-8.3984 8.9609-9.5195 14-9.5195 12.32 0 22.398-10.078 22.398-22.398s-10.078-22.398-22.398-22.398z"/>
  <path d="m159.6 427.28c20.16 20.16 46.48 30.238 72.801 30.238 26.32 0 52.641-10.078 72.801-30.238l86.238-86.238c6.7188-6.7188 12.32-14.559 16.238-22.961l45.922-101.36c7.2812-16.801 7.2812-35.281 0-51.52l112.56-113.12c8.9609-8.9609 8.9609-22.961 0-31.922-8.9609-8.9609-22.961-8.9609-31.922 0l-112.56 113.12c-16.238-7.2812-34.719-7.2812-51.52 0l-101.36 45.918c-8.3984 3.9219-16.238 9.5195-22.961 16.238l-86.238 85.684c-40.32 40.32-40.32 105.84 0 146.16zm31.359-114.24 86.238-86.238c2.8008-2.8008 6.1602-5.0391 10.078-6.7188l87.359-39.762-74.477 74.48c-8.9609 8.9609-8.9609 22.961 0 31.922 4.4805 4.4805 10.078 6.7188 15.68 6.7188 5.6016 0 11.199-2.2383 15.68-6.7188l74.48-74.484-39.199 87.363c-1.6797 3.9219-3.9219 7.2812-6.7188 10.078l-86.242 85.68c-22.961 22.961-59.922 22.961-82.32 0-22.961-22.398-22.961-59.359-0.55859-82.32z"/>

 </g>
</svg>
