<?xml version="1.0" encoding="UTF-8"?>
<svg width="700pt" height="700pt" version="1.1" viewBox="0 0 700 700" xmlns="http://www.w3.org/2000/svg" xmlns:xlink="http://www.w3.org/1999/xlink">

 <g>
  <path d="m212.27 299.79c7.7344-9.043 20.762-16.863 37.332-23.223 26.453-10.156 61.715-16.293 100.4-16.293 48.973 0 92.465 9.7773 119.39 25.152 15.242 8.7109 25.188 18.703 25.188 30.32l-0.046875 1.3281c-1.0312 16.84 7.8867 32.727 22.797 40.617 0.027343 0.015625 0.050781 0.027344 0.082031 0.039062 27.223 14.047 44.613 31.012 44.613 50.488 0 17.855-14.777 33.617-38.207 47.004-39.199 22.387-102.5 36.723-173.81 36.723-71.309 0-134.61-14.332-173.81-36.723-23.434-13.387-38.207-29.148-38.207-47.004 0-19.473 17.391-36.441 44.613-50.477 0.027344-0.015625 0.058594-0.027343 0.085938-0.046875 11.113-5.8867 18.898-16.211 21.711-28.059 1.1211-4.7031-1.7891-9.4219-6.4883-10.535-4.7031-1.1211-9.4219 1.7891-10.535 6.4883-1.668 7.0039-6.2539 13.109-12.809 16.609-34.504 17.797-54.082 41.359-54.082 66.023 0 22.984 16.863 44.969 47.027 62.199 41.176 23.52 107.59 39.023 182.49 39.023 74.906 0 141.31-15.504 182.49-39.023 30.164-17.23 47.027-39.219 47.027-62.199 0-24.664-19.578-48.219-54.035-66.012-8.8242-4.6836-14.098-14.094-13.492-24.066 0.050781-0.75391 0.082031-1.5742 0.082031-2.3984 0-16.746-12.035-32.957-34.008-45.516-28.898-16.508-75.496-27.457-128.07-27.457-41.109 0-78.551 6.6602-106.67 17.453-19.809 7.6055-35.109 17.379-44.355 28.18-3.1367 3.668-2.7109 9.1992 0.95703 12.336 3.668 3.1445 9.1992 2.7109 12.336-0.95703z" fill-rule="evenodd"/>
  <path d="m276.66 373.5c3.9648-2.7188 8.5586-4.3047 13.465-4.3047 4.9102 0 9.5039 1.5859 13.469 4.3047 2.9766 2.0352 6.9062 2.0352 9.8828 0 3.9648-2.7188 8.5586-4.3047 13.469-4.3047 4.9062 0 9.4961 1.5859 13.465 4.3047 2.9805 2.0352 6.9062 2.0352 9.8867 0 3.9609-2.7188 8.5586-4.3047 13.465-4.3047s9.4961 1.5859 13.465 4.3047c3.9844 2.7227 9.4336 1.7031 12.164-2.2812s1.7109-9.4336-2.2734-12.164c-6.8711-4.7031-14.852-7.3633-23.352-7.3633-6.5352 0-12.762 1.5703-18.41 4.4336-5.6484-2.8633-11.875-4.4336-18.402-4.4336-6.5352 0-12.762 1.5703-18.41 4.4336-5.6484-2.8633-11.875-4.4336-18.41-4.4336-8.5 0-16.48 2.6602-23.352 7.3633-3.9844 2.7305-5.0039 8.1797-2.2734 12.164 2.7305 3.9844 8.1797 5.0039 12.164 2.2812z" fill-rule="evenodd"/>
  <path d="m221.43 420.44c3.9648-2.7109 8.5586-4.3008 13.469-4.3008 4.9062 0 9.4961 1.5859 13.465 4.3008 2.9805 2.043 6.9062 2.043 9.8867 0 3.9609-2.7109 8.5586-4.3008 13.465-4.3008s9.4961 1.5859 13.465 4.3008c2.9805 2.043 6.9062 2.043 9.8867 0 3.9648-2.7109 8.5586-4.3008 13.465-4.3008s9.4961 1.5859 13.465 4.3008c3.9844 2.7305 9.4375 1.7109 12.164-2.2734 2.7305-3.9844 1.7109-9.4375-2.2734-12.164-6.8672-4.7031-14.852-7.3633-23.352-7.3633-6.5352 0-12.758 1.5703-18.41 4.4336-5.6484-2.8633-11.871-4.4336-18.402-4.4336-6.5352 0-12.758 1.5703-18.41 4.4336-5.6484-2.8633-11.875-4.4336-18.402-4.4336-8.5 0-16.484 2.6602-23.352 7.3633-3.9844 2.7227-5.0039 8.1797-2.2812 12.164 2.7305 3.9844 8.1797 5.0039 12.164 2.2734z" fill-rule="evenodd"/>
  <path d="m84.973 156.33h-0.003906c-7.5547 13.883-12.051 30.895-12.051 49.27 0 48.148 30.992 86.211 67.527 86.211 36.527 0 67.52-38.062 67.52-86.211 0-18.371-4.4922-35.375-12.023-49.273-0.003906-0.003906-0.003906-0.011719-0.011718-0.015625-5.0391-9.2461-7.0117-20.773-5.5898-32 0-0.011719 0.003906-0.023438 0.003906-0.035156 0.39844-3.2305 0.60547-6.5508 0.60547-9.9336 0-35.777-23.367-63.789-50.512-63.789-27.148 0-50.516 28.012-50.516 63.789 0 3.3945 0.21094 6.7266 0.63672 9.9648 1.4219 11.242-0.54688 22.773-5.5898 32.031zm15.363 8.3711c6.7148-12.32 9.4805-27.645 7.582-42.605 0-0.011718 0-0.023437-0.003907-0.039062-0.32812-2.5078-0.48828-5.0859-0.48828-7.7188 0-15.609 5.5586-29.539 14.438-38.121 5.2266-5.0469 11.609-8.168 18.578-8.168 6.9648 0 13.352 3.1211 18.574 8.168 8.8789 8.582 14.438 22.512 14.438 38.121 0 2.6523-0.16406 5.2539-0.47656 7.8008-1.8906 14.914 0.87891 30.234 7.5898 42.543 6.2422 11.527 9.8984 25.668 9.8984 40.922 0 37.367-21.672 68.711-50.02 68.711-28.355 0-50.027-31.344-50.027-68.711 0-15.25 3.6523-29.375 9.9219-40.898z" fill-rule="evenodd"/>
  <path d="m616.05 184.96h-0.003906c-4.4922-8.2539-6.2461-18.539-4.9766-28.559 0.39063-2.9766 0.58203-6.0273 0.58203-9.1406 0-32.953-21.629-58.672-46.633-58.672-25.008 0-46.633 25.719-46.633 58.672 0 3.1016 0.1875 6.1406 0.55469 9.1133 0 0.011719 0.003906 0.015625 0.003906 0.027344 1.2656 10.016-0.48437 20.293-4.9766 28.543-0.003906 0.003906-0.003906 0.011719-0.011719 0.015625-6.8906 12.715-11.008 28.273-11.008 45.078 0 44.176 28.547 79.012 62.066 79.012s62.062-34.836 62.062-79.012c0-16.812-4.1172-32.375-11.031-45.078zm-15.371 8.3711c5.6289 10.344 8.9023 23.023 8.9023 36.711 0 33.395-19.223 61.512-44.562 61.512-25.34 0-44.566-28.117-44.566-61.512 0-13.691 3.2773-26.383 8.8945-36.746 6.1484-11.293 8.6992-25.363 6.9609-39.094-0.27344-2.2383-0.42188-4.5664-0.42188-6.9414 0-13.918 4.9297-26.344 12.844-33.996 4.5781-4.4258 10.172-7.1758 16.285-7.1758 6.1094 0 11.703 2.7461 16.285 7.1758 7.9141 7.6523 12.844 20.078 12.844 33.996 0 2.3438-0.14453 4.6484-0.4375 6.8945-0.003906 0.011719-0.003906 0.027344-0.003906 0.039063-1.7461 13.742 0.80469 27.82 6.9727 39.137z" fill-rule="evenodd"/>
  <path d="m231.95 133.59v0.003906c-5.6367 10.344-8.9961 23.02-8.9961 36.711 0 36.242 23.652 64.641 51.16 64.641 27.5 0 51.152-28.398 51.152-64.641 0-13.684-3.3555-26.348-8.9727-36.711 0-0.003906-0.003907-0.011718-0.003907-0.015625-3.4062-6.2461-4.7188-14.035-3.7578-21.617 0-0.011719 0.003906-0.023438 0.003906-0.035156 0.29688-2.4258 0.45312-4.9219 0.45312-7.4648 0-27.312-18.152-48.457-38.879-48.457-20.73 0-38.887 21.145-38.887 48.457 0 2.5547 0.15625 5.0586 0.47656 7.4961 0.96094 7.5938-0.35156 15.387-3.7578 21.637zm15.371 8.375c5.0742-9.3164 7.1797-20.902 5.7461-32.211 0-0.015624 0-0.027343-0.003906-0.046874-0.22266-1.7031-0.33203-3.4609-0.33203-5.25 0-10.527 3.6797-19.957 9.6719-25.75 3.3008-3.1914 7.3086-5.2109 11.715-5.2109 4.3984 0 8.4062 2.0195 11.707 5.2109 5.9922 5.793 9.6719 15.219 9.6719 25.75 0 1.8125-0.10938 3.5938-0.32812 5.332-1.4297 11.27 0.68359 22.848 5.75 32.16 4.3281 7.9844 6.8477 17.785 6.8477 28.355 0 15.891-5.6602 30.07-14.699 38.805-5.3242 5.1523-11.84 8.3359-18.953 8.3359-7.1094 0-13.625-3.1836-18.957-8.3359-9.043-8.7344-14.699-22.914-14.699-38.805 0-10.562 2.5195-20.359 6.8672-28.344v0.003906z" fill-rule="evenodd"/>
  <path d="m462.12 147.32h-0.003906c-2.8164-5.1797-3.8984-11.637-3.0977-17.922 0.28125-2.1523 0.42188-4.3633 0.42188-6.6133 0-24.289-16.285-42.973-34.719-42.973s-34.719 18.684-34.719 42.973c0 2.2461 0.14062 4.4375 0.40234 6.5859 0 0.011718 0 0.015625 0.003906 0.027344 0.79297 6.2812-0.28125 12.734-3.0977 17.902-0.003906 0.003907-0.003906 0.011719-0.011719 0.015625-4.9219 9.0938-7.875 20.207-7.875 32.219 0 31.984 21.027 56.922 45.297 56.922 24.266 0 45.301-24.938 45.301-56.922 0-12.016-2.957-23.137-7.8984-32.219zm-15.371 8.3633c3.6562 6.7188 5.7695 14.961 5.7695 23.852 0 13.336-4.7188 25.246-12.301 32.578-4.3633 4.2109-9.6836 6.8438-15.5 6.8438s-11.137-2.6289-15.5-6.8438c-7.582-7.332-12.297-19.246-12.297-32.578 0-8.8945 2.1133-17.145 5.7617-23.883 4.4727-8.2148 6.3477-18.457 5.082-28.453-0.17578-1.418-0.26953-2.8984-0.26953-4.4141 0-7.3672 2.1641-14.07 5.832-18.906 2.9531-3.8906 6.8828-6.5664 11.387-6.5664s8.4336 2.6758 11.391 6.5664c3.6641 4.8359 5.8281 11.539 5.8281 18.906 0 1.4883-0.085938 2.9531-0.27344 4.3711-0.003906 0.015625-0.003906 0.027344-0.003906 0.039062-1.2734 10.012 0.60156 20.254 5.0938 28.496z" fill-rule="evenodd"/>
  <path d="m131.69 161.61v166.18c0 4.8242 3.9219 8.75 8.75 8.75 4.8242 0 8.75-3.9258 8.75-8.75v-166.18c0-4.8281-3.9258-8.75-8.75-8.75-4.8281 0-8.75 3.9219-8.75 8.75z" fill-rule="evenodd"/>
  <path d="m556.27 190.14v150.73c0 4.8281 3.9219 8.75 8.75 8.75 4.8281 0 8.75-3.9219 8.75-8.75v-150.73c0-4.8281-3.9219-8.75-8.75-8.75-4.8281 0-8.75 3.9219-8.75 8.75z" fill-rule="evenodd"/>
  <path d="m265.36 138.57v119.9c0 4.8281 3.9219 8.75 8.75 8.75 4.8242 0 8.75-3.9219 8.75-8.75v-119.9c0-4.8281-3.9258-8.75-8.75-8.75-4.8281 0-8.75 3.9219-8.75 8.75z" fill-rule="evenodd"/>
  <path d="m415.97 152.19v103.34c0 4.8281 3.9219 8.75 8.75 8.75s8.75-3.9219 8.75-8.75v-103.34c0-4.8281-3.9219-8.75-8.75-8.75s-8.75 3.9219-8.75 8.75z" fill-rule="evenodd"/>

 </g>
</svg>
