<?xml version="1.0" encoding="UTF-8"?>
<svg width="700pt" height="700pt" version="1.1" viewBox="0 0 700 700" xmlns="http://www.w3.org/2000/svg" xmlns:xlink="http://www.w3.org/1999/xlink">
 
 <g>
  <path d="m137.4 367.82h16.477c5.332 30.512 31.953 53.801 63.98 53.801 32.016 0 58.637-23.289 63.969-53.801h126.7c5.332 30.512 31.949 53.801 63.969 53.801 32.023 0 58.648-23.289 63.98-53.801h60.152c12.117 0 21.973-9.8555 21.973-21.973v-60.453c0-30.875-25.125-56-56-56h-66.816c-41.215-39.363-60.66-91.012-120.93-91.012h-134.96c-30.648 0-58.832 15.395-75.402 41.184l-31.98 49.824-39.914 0.003906c-6.1914 0-11.199 5.0156-11.199 11.199v71.227c0 30.879 25.125 56 56 56zm80.457 31.402c-23.445 0-42.516-19.035-42.598-42.457 0.003906-0.050781 0.03125-0.09375 0.03125-0.14453 0-0.050782-0.027344-0.09375-0.03125-0.14453 0.082031-23.426 19.156-42.461 42.598-42.461 23.492 0 42.602 19.113 42.602 42.605 0 23.488-19.109 42.602-42.602 42.602zm254.64 0c-23.492 0-42.602-19.113-42.602-42.602 0-23.492 19.109-42.605 42.602-42.605 23.469 0 42.566 19.074 42.605 42.535 0 0.027344-0.011718 0.046875-0.011718 0.074219 0 0.023437 0.011718 0.046875 0.011718 0.074218-0.039062 23.449-19.137 42.523-42.605 42.523zm-6.6406-169.83h-142.43v-68.609h51.43c45.215 0 60.035 39.012 91 68.609zm-282.5-37.715c12.426-19.344 33.555-30.895 56.547-30.895h61.129v68.609h-141.9zm-79.551 60.117h458.8c18.527 0 33.602 15.07 33.602 33.602l0.42578 60.023h-60.152c-5.332-30.52-31.949-53.809-63.98-53.809-32.016 0-58.637 23.289-63.969 53.809h-126.7c-5.332-30.52-31.949-53.809-63.969-53.809-32.027 0-58.648 23.289-63.98 53.809h-16.473c-18.527 0-33.602-15.07-33.602-33.602z"/>

 </g>
</svg>
