<?xml version="1.0" encoding="UTF-8"?>
<svg width="700pt" height="700pt" version="1.1" viewBox="0 0 700 700" xmlns="http://www.w3.org/2000/svg" xmlns:xlink="http://www.w3.org/1999/xlink">

 <g>
  <path d="m218.75 266.48c2.3203 0 4.5469-0.92188 6.1875-2.5625s2.5625-3.8672 2.5625-6.1875v-15.906c0-4.832-3.918-8.75-8.75-8.75s-8.75 3.918-8.75 8.75v15.906c0 4.832 3.918 8.75 8.75 8.75z"/>
  <path d="m218.75 314.2c2.3203 0 4.5469-0.92188 6.1875-2.5625s2.5625-3.8672 2.5625-6.1875v-15.906c0-4.832-3.918-8.75-8.75-8.75s-8.75 3.918-8.75 8.75v15.906c0 2.3203 0.92188 4.5469 2.5625 6.1875s3.8672 2.5625 6.1875 2.5625z"/>
  <path d="m218.75 218.75c2.3203 0 4.5469-0.92188 6.1875-2.5625s2.5625-3.8672 2.5625-6.1875c4.832 0 8.75-3.918 8.75-8.75s-3.918-8.75-8.75-8.75h-8.75c-4.832 0-8.75 3.918-8.75 8.75v8.75c0 2.3203 0.92188 4.5469 2.5625 6.1875s3.8672 2.5625 6.1875 2.5625z"/>
  <path d="m261.25 210h16.879c4.832 0 8.75-3.918 8.75-8.75s-3.918-8.75-8.75-8.75h-16.879c-4.832 0-8.75 3.918-8.75 8.75s3.918 8.75 8.75 8.75z"/>
  <path d="m413.12 210h16.879c4.832 0 8.75-3.918 8.75-8.75s-3.918-8.75-8.75-8.75h-16.879c-4.832 0-8.75 3.918-8.75 8.75s3.918 8.75 8.75 8.75z"/>
  <path d="m362.5 210h16.879c4.832 0 8.75-3.918 8.75-8.75s-3.918-8.75-8.75-8.75h-16.879c-4.832 0-8.75 3.918-8.75 8.75s3.918 8.75 8.75 8.75z"/>
  <path d="m311.88 210h16.871c4.832 0 8.75-3.918 8.75-8.75s-3.918-8.75-8.75-8.75h-16.871c-4.832 0-8.75 3.918-8.75 8.75s3.918 8.75 8.75 8.75z"/>
  <path d="m463.75 210c0 4.832 3.918 8.75 8.75 8.75s8.75-3.918 8.75-8.75v-8.75c0-2.3203-0.92188-4.5469-2.5625-6.1875s-3.8672-2.5625-6.1875-2.5625h-8.75c-4.832 0-8.75 3.918-8.75 8.75s3.918 8.75 8.75 8.75z"/>
  <path d="m472.5 328.52c-4.832 0-8.75 3.918-8.75 8.75v15.906c0 4.832 3.918 8.75 8.75 8.75s8.75-3.918 8.75-8.75v-15.906c0-2.3203-0.92188-4.5469-2.5625-6.1875s-3.8672-2.5625-6.1875-2.5625z"/>
  <path d="m472.5 280.8c-4.832 0-8.75 3.918-8.75 8.75v15.906c0 4.832 3.918 8.75 8.75 8.75s8.75-3.918 8.75-8.75v-15.906c0-2.3203-0.92188-4.5469-2.5625-6.1875s-3.8672-2.5625-6.1875-2.5625z"/>
  <path d="m472.5 233.07c-4.832 0-8.75 3.918-8.75 8.75v15.918-0.003906c0 4.832 3.918 8.75 8.75 8.75s8.75-3.918 8.75-8.75v-15.914c0-2.3203-0.92188-4.5469-2.5625-6.1875s-3.8672-2.5625-6.1875-2.5625z"/>
  <path d="m463.75 402.5h8.75c2.3203 0 4.5469-0.92188 6.1875-2.5625s2.5625-3.8672 2.5625-6.1875v-8.75c0-4.832-3.918-8.75-8.75-8.75s-8.75 3.918-8.75 8.75c-4.832 0-8.75 3.918-8.75 8.75s3.918 8.75 8.75 8.75z"/>
  <path d="m183.75 17.5c-4.832 0-8.75 3.918-8.75 8.75v402.5c0 2.3203 0.92188 4.5469 2.5625 6.1875s3.8672 2.5625 6.1875 2.5625h30.977c9.9219 11.125 24.117 17.488 39.023 17.5h0.69922c2.4531 16.746 11.695 31.738 25.551 41.457v37.293c0 2.3203 0.92188 4.5469 2.5625 6.1875s3.8672 2.5625 6.1875 2.5625h122.5c2.3203 0 4.5469-0.92188 6.1875-2.5625s2.5625-3.8672 2.5625-6.1875v-37.293c16.402-11.461 26.195-30.195 26.25-50.207v-8.75h61.25c2.3203 0 4.5469-0.92188 6.1875-2.5625s2.5625-3.8672 2.5625-6.1875v-402.5c0-4.832-3.918-8.75-8.75-8.75s-8.75 3.918-8.75 8.75v131.25h-35v-52.5c0-4.832-3.918-8.75-8.75-8.75s-8.75 3.918-8.75 8.75v52.5h-35v-78.75c0-4.832-3.918-8.75-8.75-8.75s-8.75 3.918-8.75 8.75v78.75h-35v-52.5c0-4.832-3.918-8.75-8.75-8.75s-8.75 3.918-8.75 8.75v52.5h-43.75v-78.75c0-4.832-3.918-8.75-8.75-8.75s-8.75 3.918-8.75 8.75v78.75h-35v-52.5c0-4.832-3.918-8.75-8.75-8.75s-8.75 3.918-8.75 8.75v52.5h-35v-131.25c0-2.3203-0.92188-4.5469-2.5625-6.1875s-3.8672-2.5625-6.1875-2.5625zm245 428.75c-0.046875 15.609-8.375 30.02-21.875 37.852-2.7031 1.5625-4.3711 4.4453-4.375 7.5703v33.328h-105v-33.328c-0.003906-3.125-1.6719-6.0078-4.375-7.5703-13.5-7.832-21.828-22.242-21.875-37.852 0-2.3203-0.92188-4.5469-2.5625-6.1875s-3.8672-2.5625-6.1875-2.5625h-8.75c-9.2812 0-18.184-3.6875-24.75-10.25-6.5625-6.5664-10.25-15.469-10.25-24.75v-43.75c0-6.2539 3.3359-12.031 8.75-15.156s12.086-3.125 17.5 0 8.75 8.9023 8.75 15.156v8.207c0 4.832 3.918 8.75 8.75 8.75s8.75-3.918 8.75-8.75v-101.58c0.14844-5.5156 4.1055-10.188 9.5195-11.242 4.4648-1.0781 9.1797-0.074219 12.82 2.7266 2.3945 1.793 3.8359 4.5859 3.9102 7.5781 0.050781 0.41406 0.13281 0.82031 0.24609 1.2188-0.11328 0.39844-0.19531 0.80469-0.24609 1.2148v56.875c0 4.832 3.918 8.75 8.75 8.75s8.75-3.918 8.75-8.75v-56.875c-0.050781-0.41016-0.13281-0.81641-0.24609-1.2148 0.11328-0.39844 0.19531-0.80469 0.24609-1.2188 1.293-6.2188 6.7734-10.68 13.125-10.68s11.832 4.4609 13.125 10.68c0.050781 0.41406 0.13281 0.82031 0.24609 1.2188-0.11328 0.39844-0.19531 0.80469-0.24609 1.2148v56.875c0 4.832 3.918 8.75 8.75 8.75s8.75-3.918 8.75-8.75v-56.875c-0.050781-0.41016-0.13281-0.81641-0.24609-1.2148 0.11328-0.39844 0.19531-0.80469 0.24609-1.2188 1.293-6.2188 6.7734-10.68 13.125-10.68s11.832 4.4609 13.125 10.68c0.050781 0.41406 0.13281 0.82031 0.24609 1.2188-0.11328 0.39844-0.19531 0.80469-0.24609 1.2148v56.875c0 4.832 3.918 8.75 8.75 8.75s8.75-3.918 8.75-8.75v-56.875c-0.050781-0.41016-0.13281-0.81641-0.24609-1.2148 0.11328-0.39844 0.19531-0.80469 0.24609-1.2188 0.0625-2.7969 1.3398-5.4297 3.5-7.207 3.6016-3.0039 8.3906-4.168 12.969-3.1523 5.5469 0.98438 9.6367 5.7344 9.7812 11.367zm70-271.25v245h-52.5v-154.55c-0.078125-6.7852-2.5039-13.332-6.8594-18.535-4.3594-5.1992-10.379-8.7344-17.047-10-9.9492-2.0703-20.297 0.60547-28 7.2383l-0.61328 0.55859h0.003906c-5.9805-5.4531-13.785-8.4766-21.875-8.4766-8.0938 0-15.898 3.0234-21.875 8.4766-5.9805-5.4531-13.785-8.4766-21.875-8.4766-8.0938 0-15.898 3.0234-21.875 8.4766-0.53516-0.5-1.0938-0.98828-1.6719-1.4531-7.7422-6.1406-17.852-8.4336-27.484-6.2383-6.5312 1.375-12.402 4.9297-16.641 10.086-4.2422 5.1523-6.6016 11.598-6.6875 18.273v63.141c-7.1133-4.1562-15.465-5.6641-23.578-4.2539-8.1172 1.4102-15.469 5.6484-20.762 11.957-5.293 6.3125-8.1836 14.289-8.1602 22.527v43.75c0.015625 5.9648 1.0508 11.883 3.0625 17.5h-11.812v-245z"/>
  <path d="m105 201.25h17.5v17.5h-17.5z"/>
  <path d="m140 271.25h17.5v17.5h-17.5z"/>
  <path d="m131.25 157.5h17.5v17.5h-17.5z"/>
  <path d="m122.5 35h17.5v17.5h-17.5z"/>
  <path d="m87.5 393.75h17.5v17.5h-17.5z"/>
  <path d="m96.25 96.25h17.5v17.5h-17.5z"/>
  <path d="m113.75 332.5h17.5v17.5h-17.5z"/>
  <path d="m568.75 201.25h17.5v17.5h-17.5z"/>
  <path d="m533.75 271.25h17.5v17.5h-17.5z"/>
  <path d="m542.5 157.5h17.5v17.5h-17.5z"/>
  <path d="m551.25 35h17.5v17.5h-17.5z"/>
  <path d="m586.25 393.75h17.5v17.5h-17.5z"/>
  <path d="m577.5 96.25h17.5v17.5h-17.5z"/>
  <path d="m560 332.5h17.5v17.5h-17.5z"/>

 </g>
</svg>
