<?xml version="1.0" encoding="UTF-8"?>
<svg width="700pt" height="700pt" version="1.1" viewBox="0 0 700 700" xmlns="http://www.w3.org/2000/svg" xmlns:xlink="http://www.w3.org/1999/xlink">
 <g>
  <path d="m201.3 161.03c-8.875-4.8516-16.129-12.109-20.98-20.98l-5.3789-9.8359c-1.9648-3.5859-7.8633-3.5859-9.8281 0l-5.3789 9.8359c-4.8555 8.875-12.109 16.129-20.984 20.98l-9.8359 5.3828c-1.793 0.98438-2.9102 2.8672-2.9102 4.9141s1.1172 3.9336 2.9102 4.9141l9.8398 5.3789c8.8711 4.8516 16.125 12.105 20.98 20.984l5.3789 9.832c0.98047 1.7969 2.8672 2.9102 4.9141 2.9102 2.0469 0 3.9336-1.1172 4.9141-2.9102l5.3789-9.8359c4.8516-8.875 12.109-16.129 20.984-20.98l9.8359-5.3789c1.793-0.98047 2.9102-2.8672 2.9102-4.9141s-1.1172-3.9297-2.9102-4.9141zm-5.3711 10.762c-10.758 5.8828-19.555 14.68-25.438 25.434l-0.46484 0.85156-0.46484-0.85156c-5.8867-10.758-14.684-19.555-25.434-25.434l-0.85156-0.46484 0.85156-0.46875c10.754-5.8789 19.551-14.672 25.438-25.434l0.46484-0.85156 0.46484 0.85156c5.8828 10.758 14.68 19.551 25.434 25.434l0.85156 0.46875z"/>
  <path d="m533.93 143.16 5.5117-10.082c4.9844-9.1211 12.441-16.574 21.562-21.562l10.082-5.5156c1.793-0.98047 2.9102-2.8633 2.9102-4.9102 0-2.0469-1.1172-3.9336-2.9102-4.9141l-10.082-5.5117c-9.1211-4.9844-16.574-12.441-21.562-21.562l-5.5117-10.082c-0.98047-1.793-2.8672-2.9102-4.9141-2.9102s-3.9297 1.1172-4.9141 2.9102l-5.5156 10.082c-4.9844 9.1211-12.441 16.574-21.562 21.562l-10.082 5.5117c-1.793 0.98047-2.9102 2.8672-2.9102 4.9141 0 2.0469 1.1172 3.9297 2.9102 4.9141l10.082 5.5156c9.1211 4.9844 16.574 12.441 21.562 21.562l5.5156 10.082c0.98438 1.7969 2.8672 2.9102 4.9141 2.9102s3.9336-1.1172 4.9141-2.9141zm-4.9141-14.355-0.60156-1.0977c-6.0156-11-15.012-19.996-26.012-26.012l-1.0977-0.60156 1.0977-0.59766c11-6.0156 19.996-15.012 26.012-26.012l0.60156-1.0977 0.59766 1.0977c6.0156 11 15.012 19.996 26.012 26.012l1.0977 0.59766-1.0977 0.60156c-11 6.0156-19.996 15.012-26.012 26.012z"/>
  <path d="m212.88 454.19-10.059-5.5c-9.0977-4.9727-16.539-12.414-21.512-21.512l-5.5-10.059c-1.9648-3.5938-7.8633-3.5938-9.8281 0l-5.5 10.059c-4.9727 9.0977-12.414 16.539-21.512 21.512l-10.059 5.5c-1.7969 0.98047-2.9141 2.8672-2.9141 4.9141 0 2.0469 1.1172 3.9336 2.9102 4.9141l10.059 5.5c9.0977 4.9727 16.539 12.414 21.512 21.512l5.5 10.059c0.98438 1.7969 2.8711 2.9141 4.918 2.9141 2.0469 0 3.9336-1.1172 4.9141-2.9102l5.5-10.059c4.9727-9.0977 12.414-16.539 21.512-21.512l10.059-5.5c1.7969-0.98047 2.9102-2.8672 2.9102-4.9141 0.003906-2.0508-1.1133-3.9375-2.9102-4.918zm-15.434 5.5c-10.977 6.0039-19.957 14.984-25.965 25.965l-0.58984 1.0781-0.58984-1.0781c-6.0039-10.977-14.984-19.957-25.965-25.965l-1.0781-0.58984 1.0781-0.58984c10.977-6.0039 19.957-14.984 25.965-25.965l0.58984-1.0781 0.58984 1.0781c6.0039 10.977 14.984 19.957 25.965 25.965l1.0781 0.58984z"/>
  <path d="m522.18 446.38c-92.754 72.438-229.17 58.43-304.09-31.207-28.645-34.27-41.855-77.27-37.203-121.07 4.6992-44.273 27.027-84.066 62.863-112.05 58.52-45.695 144.57-36.863 191.84 19.676 17.977 21.512 26.273 48.496 23.352 75.984-2.9492 27.785-16.969 52.758-39.469 70.332-36.598 28.582-90.422 23.07-119.99-12.301-8.4102-10.059-13.457-22.156-14.598-34.984-0.26953-3.0781-2.9023-5.293-6.0742-5.082-3.082 0.27344-5.3555 2.9922-5.082 6.0742 1.3398 15.117 7.2734 29.352 17.16 41.176 33.391 39.953 94.164 46.203 135.47 13.941 24.914-19.457 40.438-47.145 43.715-77.977 3.2422-30.531-5.9531-60.488-25.898-84.348-51.094-61.129-144.09-70.695-207.32-21.324-38.25 29.871-62.086 72.379-67.105 119.7-4.9766 46.852 9.1406 92.816 39.75 129.43 44.855 53.668 110.66 81.543 177.01 81.543 50.145 0 100.62-15.93 142.57-48.688 2.4375-1.9023 2.8711-5.4219 0.96875-7.8594-1.9102-2.4375-5.4258-2.8672-7.8594-0.96484z"/>
  <path d="m490.51 137.62c-78.754-94.227-222.12-108.96-319.58-32.852-2.4375 1.9023-2.8711 5.4219-0.96875 7.8594 1.9062 2.4375 5.4219 2.8672 7.8594 0.96875 92.754-72.43 229.17-58.43 304.09 31.203 28.645 34.273 41.855 77.27 37.203 121.07-4.7031 44.27-27.031 84.062-62.867 112.05-58.512 45.688-144.57 36.871-191.83-19.676-17.977-21.512-26.273-48.496-23.352-75.98 2.9492-27.785 16.969-52.766 39.469-70.336 36.609-28.578 90.43-23.055 119.99 12.297 8.4102 10.066 13.457 22.16 14.598 34.988 0.27344 3.082 2.9805 5.3359 6.0742 5.082 3.082-0.27344 5.3555-2.9922 5.082-6.0742-1.3398-15.113-7.2734-29.352-17.16-41.176-33.383-39.945-94.156-46.203-135.47-13.941-24.914 19.457-40.441 47.152-43.715 77.98-3.2422 30.531 5.957 60.484 25.898 84.344 29.098 34.82 71.793 52.906 114.84 52.906 32.527 0 65.266-10.332 92.473-31.582 38.254-29.867 62.086-72.375 67.113-119.69 4.9766-46.855-9.1406-92.828-39.75-129.45z"/>
  <path d="m261.38 141.69c3.0938 0 5.6016-2.5078 5.6016-5.6016v-15.875h15.895c3.0938 0 5.6016-2.5078 5.6016-5.6016s-2.5078-5.6016-5.6016-5.6016h-15.895v-15.875c0-3.0938-2.5078-5.6016-5.6016-5.6016s-5.6016 2.5078-5.6016 5.6016v15.875h-15.898c-3.0938 0-5.6016 2.5078-5.6016 5.6016s2.5078 5.6016 5.6016 5.6016h15.898v15.875c0 3.0938 2.5078 5.6016 5.6016 5.6016z"/>
  <path d="m494.66 443.82c3.0938 0 5.6016-2.5078 5.6016-5.6016v-15.875h15.898c3.0938 0 5.6016-2.5078 5.6016-5.6016s-2.5078-5.6016-5.6016-5.6016h-15.898v-15.875c0-3.0938-2.5078-5.6016-5.6016-5.6016s-5.6016 2.5078-5.6016 5.6016v15.875h-15.895c-3.0938 0-5.6016 2.5078-5.6016 5.6016s2.5078 5.6016 5.6016 5.6016h15.895v15.875c0.003906 3.0938 2.5078 5.6016 5.6016 5.6016z"/>
  <path d="m568.62 349.33h-15.898v-15.875c0-3.0938-2.5078-5.6016-5.6016-5.6016s-5.6016 2.5078-5.6016 5.6016v15.875h-15.895c-3.0938 0-5.6016 2.5078-5.6016 5.6016s2.5078 5.6016 5.6016 5.6016h15.895v15.879c0 3.0938 2.5078 5.6016 5.6016 5.6016s5.6016-2.5078 5.6016-5.6016v-15.879h15.898c3.0938 0 5.6016-2.5078 5.6016-5.6016-0.003906-3.0938-2.5117-5.6016-5.6016-5.6016z"/>
  <path d="m392.55 267.6c-12.746-6.9531-23.172-17.348-30.137-30.062l-7.5039-13.684c-1.9688-3.582-7.8516-3.582-9.8203 0l-7.5039 13.688c-6.9688 12.711-17.391 23.105-30.137 30.059l-13.719 7.4844c-1.8008 0.98438-2.918 2.8711-2.918 4.918s1.1172 3.9336 2.918 4.918l13.719 7.4844c12.746 6.9531 23.172 17.348 30.137 30.062l7.5039 13.684c0.98438 1.7891 2.8672 2.9062 4.9102 2.9062 2.0469 0 3.9258-1.1172 4.9102-2.9062l7.5039-13.688c6.9688-12.711 17.391-23.105 30.137-30.059l13.719-7.4844c1.8008-0.98047 2.918-2.8672 2.918-4.918 0-2.0469-1.1172-3.9336-2.918-4.918zm-5.3633 14.969c-14.633 7.9805-26.594 19.914-34.594 34.508l-2.5938 4.7305-2.5938-4.7266c-8-14.598-19.965-26.527-34.594-34.512l-4.707-2.5664 4.707-2.5664c14.633-7.9805 26.594-19.914 34.594-34.508l2.5938-4.7305 2.5938 4.7266c8 14.598 19.965 26.527 34.594 34.512l4.707 2.5664z"/>

 </g>
</svg>
