<?xml version="1.0" encoding="UTF-8"?>
<svg width="700pt" height="700pt" version="1.1" viewBox="0 0 700 700" xmlns="http://www.w3.org/2000/svg" xmlns:xlink="http://www.w3.org/1999/xlink">
 <defs>
  <symbol id="v" overflow="visible">
   <path d="m0.375-0.03125c-0.023438 0.011719-0.042969 0.023438-0.0625 0.03125-0.023438 0.0078125-0.042969 0.015625-0.0625 0.015625-0.0625 0-0.11719-0.019531-0.15625-0.0625-0.042969-0.039062-0.0625-0.09375-0.0625-0.15625s0.019531-0.11328 0.0625-0.15625c0.039062-0.039063 0.09375-0.0625 0.15625-0.0625 0.019531 0 0.039062 0.007813 0.0625 0.015625 0.019531 0 0.039062 0.007812 0.0625 0.015625v0.09375c-0.023438-0.019531-0.042969-0.03125-0.0625-0.03125-0.023438-0.007813-0.042969-0.015625-0.0625-0.015625-0.03125 0-0.058594 0.015625-0.078125 0.046875-0.023437 0.023437-0.03125 0.054687-0.03125 0.09375 0 0.042969 0.007813 0.078125 0.03125 0.10938 0.019531 0.023438 0.046875 0.03125 0.078125 0.03125 0.019531 0 0.039062-0.0039062 0.0625-0.015625 0.019531-0.0078125 0.039062-0.019531 0.0625-0.03125z"/>
  </symbol>
  <symbol id="c" overflow="visible">
   <path d="m0.26562-0.21875c0-0.007812-0.007813-0.015625-0.015625-0.015625h-0.015625c-0.03125 0-0.054687 0.011719-0.0625 0.03125-0.011719 0.011719-0.015625 0.03125-0.015625 0.0625v0.14062h-0.10938v-0.3125h0.10938v0.0625c0.007812-0.019531 0.019531-0.035156 0.03125-0.046875 0.007812-0.007813 0.03125-0.015625 0.0625-0.015625h0.015625z"/>
  </symbol>
  <symbol id="a" overflow="visible">
   <path d="m0.34375-0.15625v0.03125h-0.21875c0 0.023438 0.003906 0.039062 0.015625 0.046875 0.019531 0.011719 0.039063 0.015625 0.0625 0.015625h0.0625c0.03125-0.0078125 0.054687-0.019531 0.078125-0.03125v0.078125c-0.023438 0-0.046875 0.0078125-0.078125 0.015625-0.023437 0.0078125-0.042969 0.015625-0.0625 0.015625-0.0625 0-0.10938-0.015625-0.14062-0.046875-0.023438-0.03125-0.03125-0.070312-0.03125-0.125 0-0.050781 0.0078125-0.085938 0.03125-0.10938 0.03125-0.03125 0.070312-0.046875 0.125-0.046875 0.050781 0 0.085938 0.015625 0.10938 0.046875 0.03125 0.023437 0.046875 0.058594 0.046875 0.10938zm-0.09375-0.03125c0-0.019531-0.007812-0.035156-0.015625-0.046875-0.011719-0.007813-0.027344-0.015625-0.046875-0.015625-0.011719 0-0.027344 0.007812-0.046875 0.015625-0.011719 0.011719-0.015625 0.027344-0.015625 0.046875z"/>
  </symbol>
  <symbol id="g" overflow="visible">
   <path d="m0.1875-0.14062c-0.023438 0-0.039062 0.007813-0.046875 0.015625-0.011719 0.011719-0.015625 0.023438-0.015625 0.03125 0 0.011719 0.003906 0.023438 0.015625 0.03125h0.03125c0.019531 0 0.035156-0.0039062 0.046875-0.015625 0.007812-0.0078125 0.015625-0.023437 0.015625-0.046875v-0.015625zm0.14062-0.03125v0.17188h-0.09375v-0.046875c-0.011719 0.023438-0.027344 0.039062-0.046875 0.046875-0.011719 0.0078125-0.03125 0.015625-0.0625 0.015625-0.023438 0-0.042969-0.011719-0.0625-0.03125-0.023438-0.019531-0.03125-0.046875-0.03125-0.078125 0-0.039062 0.0078125-0.066406 0.03125-0.078125 0.019531-0.007813 0.054688-0.015625 0.10938-0.015625h0.0625v-0.015625c0-0.019531-0.007813-0.03125-0.015625-0.03125-0.011719-0.007813-0.03125-0.015625-0.0625-0.015625-0.023438 0-0.042969 0.007812-0.0625 0.015625h-0.046875v-0.0625c0.019531-0.007813 0.039062-0.015625 0.0625-0.015625h0.0625c0.0625 0 0.10156 0.011719 0.125 0.03125 0.019531 0.023438 0.03125 0.058594 0.03125 0.10938z"/>
  </symbol>
  <symbol id="b" overflow="visible">
   <path d="m0.15625-0.39062v0.078125h0.09375v0.078125h-0.09375v0.125 0.03125c0.007812 0.011719 0.019531 0.015625 0.03125 0.015625h0.0625v0.0625h-0.078125c-0.042969 0-0.074219-0.0039062-0.09375-0.015625-0.023438-0.019531-0.03125-0.050781-0.03125-0.09375v-0.125h-0.03125v-0.078125h0.03125v-0.078125z"/>
  </symbol>
  <symbol id="l" overflow="visible">
   <path d="m0.25-0.26562v-0.15625h0.09375v0.42188h-0.09375v-0.046875c-0.011719 0.023438-0.027344 0.039062-0.046875 0.046875-0.011719 0.0078125-0.027344 0.015625-0.046875 0.015625-0.042969 0-0.074219-0.015625-0.09375-0.046875-0.023438-0.03125-0.03125-0.070312-0.03125-0.125 0-0.050781 0.0078125-0.085938 0.03125-0.10938 0.019531-0.03125 0.050781-0.046875 0.09375-0.046875 0.019531 0 0.035156 0.007812 0.046875 0.015625 0.019531 0.011719 0.035156 0.023437 0.046875 0.03125zm-0.0625 0.20312c0.019531 0 0.035156-0.0039062 0.046875-0.015625 0.007813-0.019531 0.015625-0.046875 0.015625-0.078125 0-0.019531-0.007812-0.039062-0.015625-0.0625-0.011719-0.019531-0.027344-0.03125-0.046875-0.03125-0.023438 0-0.039062 0.011719-0.046875 0.03125-0.011719 0.023438-0.015625 0.042969-0.015625 0.0625 0 0.03125 0.003906 0.058594 0.015625 0.078125 0.007813 0.011719 0.023437 0.015625 0.046875 0.015625z"/>
  </symbol>
  <symbol id="k" overflow="visible">
   <path d="m0.20312-0.0625c0.03125 0 0.046875-0.0039062 0.046875-0.015625 0.007812-0.019531 0.015625-0.046875 0.015625-0.078125 0-0.019531-0.007813-0.039062-0.015625-0.0625 0-0.019531-0.015625-0.03125-0.046875-0.03125-0.023437 0-0.039063 0.011719-0.046875 0.03125v0.0625 0.078125c0.007812 0.011719 0.023438 0.015625 0.046875 0.015625zm-0.046875-0.20312c0.007812-0.007813 0.019531-0.019531 0.03125-0.03125 0.019531-0.007813 0.039062-0.015625 0.0625-0.015625 0.039062 0 0.070312 0.015625 0.09375 0.046875 0.019531 0.023437 0.03125 0.058594 0.03125 0.10938 0 0.054688-0.011719 0.09375-0.03125 0.125-0.023438 0.03125-0.054688 0.046875-0.09375 0.046875-0.023438 0-0.042969-0.0078125-0.0625-0.015625-0.011719-0.0078125-0.023438-0.023438-0.03125-0.046875v0.046875h-0.10938v-0.42188h0.10938z"/>
  </symbol>
  <symbol id="j" overflow="visible">
   <path d="m0.015625-0.3125h0.09375l0.078125 0.21875 0.0625-0.21875h0.10938l-0.125 0.34375c-0.023437 0.03125-0.042969 0.050781-0.0625 0.0625-0.011719 0.019531-0.03125 0.03125-0.0625 0.03125h-0.0625v-0.078125h0.046875 0.015625c0.007813 0 0.019531-0.011719 0.03125-0.03125z"/>
  </symbol>
  <symbol id="f" overflow="visible">
   <path d="m0.046875-0.40625h0.125l0.14062 0.28125v-0.28125h0.10938v0.40625h-0.125l-0.14062-0.28125v0.28125h-0.10938z"/>
  </symbol>
  <symbol id="i" overflow="visible">
   <path d="m0.28125-0.29688v0.078125c-0.023438-0.007812-0.042969-0.015625-0.0625-0.015625-0.023438-0.007813-0.039062-0.015625-0.046875-0.015625-0.023437 0-0.039063 0.007812-0.046875 0.015625-0.011719 0-0.015625 0.007813-0.015625 0.015625 0 0.011719 0.003906 0.023438 0.015625 0.03125h0.046875 0.015625c0.039062 0 0.070312 0.011719 0.09375 0.03125 0.019531 0.011719 0.03125 0.03125 0.03125 0.0625s-0.015625 0.058594-0.046875 0.078125c-0.023437 0.019531-0.054687 0.03125-0.09375 0.03125-0.03125 0-0.058594-0.0078125-0.078125-0.015625-0.023438 0-0.042969-0.0039062-0.0625-0.015625v-0.078125c0.019531 0.023438 0.039062 0.03125 0.0625 0.03125h0.0625 0.03125c0.007812 0 0.015625-0.0078125 0.015625-0.03125 0-0.007812-0.007813-0.015625-0.015625-0.015625 0 0-0.007812-0.003906-0.015625-0.015625h-0.015625c-0.054688 0-0.089844-0.003906-0.10938-0.015625-0.011719-0.019531-0.015625-0.046875-0.015625-0.078125s0.0078125-0.050781 0.03125-0.0625c0.019531-0.019531 0.054688-0.03125 0.10938-0.03125h0.046875c0.019531 0 0.039062 0.007812 0.0625 0.015625z"/>
  </symbol>
  <symbol id="e" overflow="visible">
   <path d="m0.35938-0.1875v0.1875h-0.10938v-0.14062-0.046875-0.03125c0-0.007812-0.007812-0.015625-0.015625-0.015625h-0.03125c-0.011719 0-0.023437 0.011719-0.03125 0.03125-0.011719 0.011719-0.015625 0.027344-0.015625 0.046875v0.15625h-0.10938v-0.3125h0.10938v0.046875c0.007812-0.007813 0.019531-0.019531 0.03125-0.03125 0.019531-0.007813 0.039062-0.015625 0.0625-0.015625 0.03125 0 0.054688 0.011719 0.078125 0.03125 0.019531 0.023438 0.03125 0.054688 0.03125 0.09375z"/>
  </symbol>
  <symbol id="u" overflow="visible">
   <path d="m0.046875-0.42188h0.10938v0.23438l0.09375-0.125h0.125l-0.15625 0.14062 0.17188 0.17188h-0.125l-0.10938-0.125v0.125h-0.10938z"/>
  </symbol>
  <symbol id="d" overflow="visible">
   <path d="m0.1875-0.25c-0.023438 0-0.039062 0.011719-0.046875 0.03125-0.011719 0.011719-0.015625 0.03125-0.015625 0.0625s0.003906 0.058594 0.015625 0.078125c0.007813 0.011719 0.023437 0.015625 0.046875 0.015625 0.03125 0 0.050781-0.0039062 0.0625-0.015625 0.007812-0.019531 0.015625-0.046875 0.015625-0.078125s-0.007813-0.050781-0.015625-0.0625c-0.011719-0.019531-0.03125-0.03125-0.0625-0.03125zm0-0.0625c0.050781 0 0.09375 0.015625 0.125 0.046875 0.03125 0.023437 0.046875 0.058594 0.046875 0.10938 0 0.054688-0.015625 0.09375-0.046875 0.125s-0.074219 0.046875-0.125 0.046875c-0.054688 0-0.09375-0.015625-0.125-0.046875-0.023438-0.03125-0.03125-0.070312-0.03125-0.125 0-0.050781 0.0078125-0.085938 0.03125-0.10938 0.03125-0.03125 0.070312-0.046875 0.125-0.046875z"/>
  </symbol>
  <symbol id="t" overflow="visible">
   <path d="m0.20312-0.23438h0.046875c0.007812-0.007813 0.015625-0.023437 0.015625-0.046875 0-0.019531-0.007813-0.03125-0.015625-0.03125-0.011719-0.007812-0.027344-0.015625-0.046875-0.015625h-0.046875v0.09375zm-0.046875 0.078125v0.15625h-0.10938v-0.40625h0.15625c0.050781 0 0.09375 0.011719 0.125 0.03125 0.03125 0.023438 0.046875 0.046875 0.046875 0.078125s-0.011719 0.058594-0.03125 0.078125c-0.011719 0.011719-0.03125 0.023438-0.0625 0.03125 0.019531 0 0.035156 0.007812 0.046875 0.015625 0.007813 0.011719 0.019531 0.03125 0.03125 0.0625l0.0625 0.10938h-0.10938l-0.046875-0.10938c-0.011719-0.007813-0.027344-0.019531-0.046875-0.03125-0.011719-0.007813-0.023438-0.015625-0.03125-0.015625z"/>
  </symbol>
  <symbol id="h" overflow="visible">
   <path d="m0.046875-0.125v-0.1875h0.09375v0.03125 0.078125 0.03125 0.0625c0.007813 0.011719 0.015625 0.015625 0.015625 0.015625v0.03125h0.03125c0.019531 0 0.035156-0.0039062 0.046875-0.015625 0.007813-0.019531 0.015625-0.046875 0.015625-0.078125v-0.15625h0.09375v0.3125h-0.09375v-0.046875c-0.011719 0.023438-0.027344 0.039062-0.046875 0.046875-0.011719 0.0078125-0.027344 0.015625-0.046875 0.015625-0.042969 0-0.074219-0.011719-0.09375-0.03125-0.011719-0.03125-0.015625-0.066406-0.015625-0.10938z"/>
  </symbol>
  <symbol id="s" overflow="visible">
   <path d="m0.046875-0.42188h0.10938v0.42188h-0.10938z"/>
  </symbol>
  <symbol id="r" overflow="visible">
   <path d="m0.25-0.42188v0.0625h-0.0625c-0.011719 0-0.023438 0.007813-0.03125 0.015625v0.015625 0.015625h0.09375v0.078125h-0.09375v0.23438h-0.09375v-0.23438h-0.046875v-0.078125h0.046875v-0.015625c0-0.03125 0.0039062-0.050781 0.015625-0.0625 0.019531-0.019531 0.050781-0.03125 0.09375-0.03125z"/>
  </symbol>
  <symbol id="q" overflow="visible">
   <path d="m0.32812-0.25c0.007813-0.019531 0.023437-0.035156 0.046875-0.046875 0.019531-0.007813 0.035156-0.015625 0.046875-0.015625 0.039063 0 0.070313 0.011719 0.09375 0.03125 0.019531 0.023438 0.03125 0.054688 0.03125 0.09375v0.1875h-0.10938v-0.15625-0.015625c0-0.019531-0.007812-0.035156-0.015625-0.046875 0-0.007812-0.007813-0.015625-0.015625-0.015625-0.023438 0-0.039062 0.011719-0.046875 0.03125-0.011719 0.011719-0.015625 0.027344-0.015625 0.046875v0.15625h-0.09375v-0.15625c0-0.03125-0.007812-0.050781-0.015625-0.0625 0-0.007812-0.011719-0.015625-0.03125-0.015625-0.023437 0-0.039063 0.011719-0.046875 0.03125v0.046875 0.15625h-0.10938v-0.3125h0.10938v0.046875c0.007812-0.007813 0.019531-0.019531 0.03125-0.03125 0.007812-0.007813 0.023438-0.015625 0.046875-0.015625 0.019531 0 0.035156 0.007812 0.046875 0.015625 0.019531 0.011719 0.035156 0.027344 0.046875 0.046875z"/>
  </symbol>
  <symbol id="p" overflow="visible">
   <path d="m0.35938-0.1875v0.1875h-0.10938v-0.14062-0.046875-0.03125c0-0.007812-0.007812-0.015625-0.015625-0.015625h-0.03125c-0.011719 0-0.023437 0.011719-0.03125 0.03125-0.011719 0.011719-0.015625 0.027344-0.015625 0.046875v0.15625h-0.10938v-0.42188h0.10938v0.15625c0.007812-0.007813 0.019531-0.019531 0.03125-0.03125 0.019531-0.007813 0.039062-0.015625 0.0625-0.015625 0.03125 0 0.054688 0.011719 0.078125 0.03125 0.019531 0.023438 0.03125 0.054688 0.03125 0.09375z"/>
  </symbol>
  <symbol id="o" overflow="visible">
   <path d="m0.046875-0.40625h0.1875c0.050781 0 0.085937 0.011719 0.10938 0.03125 0.03125 0.023438 0.046875 0.058594 0.046875 0.10938 0 0.042969-0.015625 0.074219-0.046875 0.09375-0.023438 0.023437-0.058594 0.03125-0.10938 0.03125h-0.078125v0.14062h-0.10938zm0.10938 0.078125v0.10938h0.0625c0.019531 0 0.035156-0.003906 0.046875-0.015625 0.007813-0.007813 0.015625-0.019531 0.015625-0.03125 0-0.03125-0.007812-0.046875-0.015625-0.046875-0.011719-0.007812-0.027344-0.015625-0.046875-0.015625z"/>
  </symbol>
  <symbol id="n" overflow="visible">
   <path d="m0.046875-0.3125h0.10938v0.29688c0 0.039062-0.011719 0.070312-0.03125 0.09375-0.023438 0.03125-0.054688 0.046875-0.09375 0.046875h-0.046875v-0.078125h0.015625c0.019531 0 0.03125-0.0078125 0.03125-0.015625 0.0078125 0 0.015625-0.015625 0.015625-0.046875zm0-0.10938h0.10938v0.078125h-0.10938z"/>
  </symbol>
  <symbol id="m" overflow="visible">
   <path d="m0.29688-0.29688v0.078125c-0.023437-0.007812-0.039063-0.015625-0.046875-0.015625-0.011719-0.007813-0.027344-0.015625-0.046875-0.015625-0.023437 0-0.042969 0.011719-0.0625 0.03125-0.011719 0.023438-0.015625 0.042969-0.015625 0.0625 0 0.03125 0.003906 0.058594 0.015625 0.078125 0.019531 0.011719 0.039063 0.015625 0.0625 0.015625h0.046875c0.019531-0.0078125 0.035156-0.019531 0.046875-0.03125v0.078125c-0.023437 0.011719-0.039063 0.015625-0.046875 0.015625-0.011719 0.0078125-0.027344 0.015625-0.046875 0.015625-0.0625 0-0.10938-0.015625-0.14062-0.046875-0.023438-0.03125-0.03125-0.070312-0.03125-0.125 0-0.050781 0.0078125-0.085938 0.03125-0.10938 0.03125-0.03125 0.078125-0.046875 0.14062-0.046875h0.046875c0.007812 0 0.023438 0.007812 0.046875 0.015625z"/>
  </symbol>
 </defs>
 <g>
  <path d="m252.45 388.67c-0.63672 0-1.2773-0.19141-1.8125-0.58594-0.91797-0.65234-1.4062-1.7617-1.2773-2.8711 1.1094-9.9219 2.8203-19.508 5.0938-28.484 2.7852-11.043 6.4219-21.273 10.828-30.375 4.0977-8.4922 8.8594-16.789 14.148-24.668 0.95703-1.4297 2.8867-1.8125 4.3164-0.85547 1.4297 0.95703 1.8125 2.8867 0.85547 4.3164-5.1211 7.6367-9.7422 15.691-13.711 23.914-7.0742 14.633-11.988 31.867-14.645 51.277l39.684-18.68 26.52-12.512c5.8594-2.7578 12.461-3.168 18.602-1.1602 6.1016 1.9922 11.184 6.1797 14.273 11.797 0.63672 1.1367 1.1875 2.3359 1.6328 3.5508 1.1367 3.0391 1.6211 6.2422 1.457 9.5117-0.14062 3.3828-0.95703 6.6641-2.4531 9.7305-0.75391 1.5469-2.6172 2.1953-4.1641 1.4414s-2.1953-2.6172-1.4414-4.1641c1.1094-2.2969 1.7383-4.75 1.8398-7.2891v-0.027344c0.12891-2.4258-0.24219-4.8008-1.0859-7.0625 0-0.011718 0-0.011718-0.011719-0.027344-0.33203-0.91797-0.74219-1.7891-1.2266-2.6562 0 0 0-0.011718-0.011719-0.011718-4.8398-8.7578-15.719-12.281-24.781-8.0195l-26.52 12.512-44.789 21.094c-0.42578 0.21484-0.875 0.30469-1.3203 0.30469z"/>
  <path d="m229.07 446.33c-4.4688 0-8.8867-1.1992-12.77-3.4609-7.1992-4.2148-11.848-11.684-12.438-19.996-1.9805-27.781 1.3672-56.129 9.9453-84.23 8.1328-26.633 20.695-52.234 37.332-76.109 8.8594-12.719 17.059-21.309 25.805-27.031 5.4648-3.5742 11.199-6 17.031-7.2148 6.4492-1.3281 13.227-1.2266 20.16 0.33203 0 0 0.57422 0.12891 55.234 12.387 16.789 3.7656 31.844 13.328 42.379 26.953 1.0469 1.3516 0.80469 3.3203-0.5625 4.3672s-3.3203 0.80469-4.3672-0.5625c-9.6523-12.473-23.43-21.234-38.816-24.68 0 0-55.082-12.359-55.234-12.387-26.559-5.9609-44.152 13.648-56.523 31.398-33.543 48.121-49.938 103.64-46.168 156.33 0.44531 6.2695 3.9453 11.898 9.3711 15.066 2.9258 1.7109 6.2578 2.6172 9.6289 2.6172 2.7969 0 5.5273-0.61328 8.1094-1.8242l75.203-35.406c1.5586-0.72656 3.4102-0.0625 4.1367 1.4922 0.72656 1.5586 0.0625 3.4102-1.4922 4.1367l-75.215 35.406c-3.4102 1.6094-7.0234 2.4141-10.75 2.4141z"/>
  <path d="m354.88 229.23c-8.6836 0-17.109-1.6992-25.039-5.0547-7.6602-3.2422-14.543-7.8789-20.453-13.789-5.9102-5.9102-10.547-12.793-13.789-20.453-3.3594-7.9297-5.0547-16.355-5.0547-25.039 0-8.6836 1.6992-17.109 5.0547-25.039 3.2422-7.6602 7.8789-14.543 13.789-20.453 5.9102-5.9102 12.793-10.547 20.453-13.789 7.9297-3.3594 16.355-5.0547 25.039-5.0547s17.109 1.6992 25.039 5.0547c7.6602 3.2422 14.543 7.8789 20.453 13.789 5.9102 5.9102 10.547 12.793 13.789 20.453 3.3594 7.9297 5.0547 16.355 5.0547 25.039 0 8.6836-1.6992 17.109-5.0547 25.039-3.2422 7.6602-7.8789 14.543-13.789 20.453-5.9102 5.9102-12.793 10.547-20.453 13.789-7.9336 3.3555-16.359 5.0547-25.039 5.0547zm0-122.46c-32.047 0-58.105 26.07-58.105 58.105 0 32.047 26.07 58.105 58.105 58.105s58.105-26.07 58.105-58.105c0-32.035-26.074-58.105-58.105-58.105z"/>
  <path d="m355.8 204.44c-2.2969 0-4.457-0.60156-6.3984-1.8008-2.0547-1.2656-3.4219-3.0898-3.918-5.2734-0.65234-2.7969 0.14062-6.168 2.2227-9.4883 2.0312-3.2305 6.1914-8.25 10.535-11.645l1.9141 2.4531-1.9141-2.4531c7.418-5.7969 12.387-4.6875 15.246-2.7188 5.1328 3.5117 4.2148 11.363 2.3359 15.77-2.2617 5.3125-8.4531 12.168-15.5 14.414-1.5352 0.5-3.0547 0.74219-4.5234 0.74219zm12.539-26.25c-2.1055 0-4.6992 1.7383-6.2695 2.9609-4.0078 3.1289-7.6367 7.7266-9.1055 10.047-1.1602 1.8516-1.6992 3.625-1.4297 4.7617 0.089844 0.38281 0.29297 0.88281 1.125 1.3906 1.6328 1.0078 3.5234 1.1484 5.7695 0.43359 5.0195-1.5977 9.9609-6.9062 11.656-10.918 1.2383-2.9102 1.457-7.125-0.12891-8.1953-0.46875-0.33984-1.0156-0.48047-1.6172-0.48047z"/>
  <path d="m383.33 434.43c-10.086 0-19.637-3.8164-26.965-10.789-1.6836-1.6211-3.0898-3.1914-4.2891-4.8398-0.39453-0.53516-0.60156-1.1758-0.60156-1.8398v-0.027344c0-1.7227 1.3906-3.1172 3.1172-3.1172 1.125 0 2.1055 0.60156 2.6562 1.4922 0.95703 1.2773 2.082 2.5391 3.4336 3.832 6.3594 6.0508 14.707 9.2695 23.508 9.0664 8.7969-0.21875 16.969-3.8438 23.035-10.215l14.414-15.145c1.1875-1.25 3.1523-1.2891 4.4062-0.11328 1.25 1.1875 1.2891 3.1523 0.11328 4.4062l-14.414 15.145c-7.2148 7.5703-16.93 11.887-27.387 12.141-0.36328 0.003907-0.69531 0.003907-1.0273 0.003907z"/>
  <path d="m355.32 373.86c-0.79297 0-1.582-0.30469-2.1953-0.90625-1.2266-1.2148-1.2266-3.1797-0.011719-4.4062l41.215-41.559c4.2891-4.4961 9.4102-7.8125 15.207-9.8828 5.5547-1.9648 11.582-2.668 17.453-2.0039 1.7109 0.19141 2.9375 1.7383 2.7461 3.4336-0.19141 1.7109-1.7383 2.9375-3.4336 2.7461-10.289-1.1484-20.312 2.4883-27.477 10.012-0.011719 0.011719-0.027344 0.027343-0.039063 0.039062l-41.227 41.586c-0.64062 0.62109-1.4336 0.92578-2.2383 0.94141z"/>
  <path d="m463.76 340.1c-6.6406 0-13.086-1.3008-19.164-3.8672-5.8594-2.4766-11.121-6.0273-15.641-10.547-4.5195-4.5195-8.0703-9.7812-10.547-15.641-2.5664-6.0664-3.8672-12.512-3.8672-19.164s1.3008-13.086 3.8672-19.164c2.4766-5.8594 6.0273-11.121 10.547-15.641s9.7812-8.0703 15.641-10.547c6.0664-2.5664 12.512-3.8672 19.164-3.8672 6.6523 0 13.086 1.3008 19.164 3.8672 5.8594 2.4766 11.121 6.0273 15.641 10.547s8.0703 9.7812 10.547 15.641c2.5664 6.0664 3.8672 12.512 3.8672 19.164s-1.3008 13.086-3.8672 19.164c-2.4766 5.8594-6.0273 11.121-10.547 15.641-4.5195 4.5195-9.7812 8.0703-15.641 10.547-6.0742 2.5664-12.523 3.8672-19.164 3.8672zm0-92.211c-23.711 0-42.988 19.293-42.988 42.988 0 23.711 19.293 42.988 42.988 42.988 23.699 0 42.988-19.293 42.988-42.988 0.003906-23.707-19.277-42.988-42.988-42.988z"/>
  <path d="m458.6 408.09h-59.207c-9.6289 0-17.453-7.8281-17.453-17.453 0-9.6289 7.8281-17.453 17.453-17.453h35.227l-6.4336-19.93c-0.52344-1.6328 0.37109-3.3828 2.0039-3.918 1.6328-0.52344 3.3828 0.37109 3.918 2.0039l7.75 23.992c0.30469 0.94531 0.14062 1.9805-0.44531 2.7852-0.58594 0.80469-1.5195 1.2773-2.5156 1.2773h-39.492c-6.1914 0-11.234 5.043-11.234 11.234s5.043 11.234 11.234 11.234h59.207c3.5742 0 6.9727-1.7227 9.0781-4.6211 2.1055-2.8984 2.707-6.6523 1.6094-10.062 0-0.011719-0.011719-0.039063-0.011719-0.050782l-15.156-49.73c-0.49609-1.6484 0.42188-3.3828 2.0703-3.8828 1.6484-0.49609 3.3828 0.42188 3.8828 2.0703l15.156 49.707c1.6992 5.2852 0.76562 11.121-2.5039 15.617-3.2969 4.4961-8.5703 7.1797-14.137 7.1797z"/>
  <path d="m334.23 459.44c-1.1758 0-2.375-0.11328-3.5508-0.35938-10.035-1.9297-16.625-11.684-14.684-21.742l9.1797-47.316c1.1094-5.7344 4.9297-10.676 10.203-13.215 5.2734-2.5156 11.504-2.3984 16.676 0.30469l0.12891 0.0625c0.027343 0.011719 0.050781 0.027344 0.078124 0.039063l2.3867 1.2773 18.066 9.5625c1.5195 0.80469 2.0938 2.6797 1.2891 4.1992-0.80469 1.5195-2.6797 2.0938-4.1992 1.2891l-18.078-9.5625-2.4766-1.3164c-0.027344-0.011718-0.039063-0.027343-0.0625-0.027343-3.4492-1.8125-7.5977-1.9023-11.109-0.21875-3.5 1.6836-6.0391 4.9805-6.7812 8.7852l-9.168 47.316c-1.2891 6.6914 3.0898 13.176 9.7656 14.453h0.027344c0.79297 0.15234 1.582 0.24219 2.3477 0.24219 5.8867 0 10.969-4.2148 12.09-10.012l5.1719-26.711c0.20312-1.5195 1.5078-2.6797 3.0781-2.6797 1.7227 0 3.1172 1.3906 3.1172 3.1172v0.027343c0 0.20312-0.011718 0.39453-0.050781 0.58594l-5.1953 26.84c-1.7266 8.7266-9.3867 15.059-18.25 15.059z"/>
  <path d="m452.24 287.52c-4.125 0-8.0195-1.9414-10.508-5.3516-2.9492-4.0234-3.3594-9.2812-1.0742-13.711 0.79297-1.5312 2.668-2.1328 4.1875-1.3398 1.5312 0.79297 2.1328 2.668 1.3398 4.1875-1.1992 2.3242-0.98438 5.0703 0.5625 7.1875 1.5469 2.1055 4.1094 3.1523 6.6914 2.707 1.6992-0.29297 3.3086 0.84375 3.5859 2.5391 0.29297 1.6992-0.84375 3.3086-2.5391 3.5859-0.75391 0.13281-1.4922 0.19531-2.2461 0.19531z"/>
  <path d="m481.19 309.53c-2.8984 0-5.7578-0.96875-8.1328-2.8594-3.9062-3.1016-5.6836-8.0703-4.6484-12.945 0.35938-1.6836 2.0156-2.7578 3.6914-2.3984 1.6836 0.35938 2.7578 2.0039 2.3984 3.6914-0.55078 2.5547 0.38281 5.1602 2.4258 6.7812 2.043 1.6328 4.7891 1.9531 7.1641 0.85547 1.5586-0.72656 3.4102-0.050781 4.1367 1.5078 0.72656 1.5586 0.050782 3.4102-1.5078 4.1367-1.7734 0.83594-3.6641 1.2305-5.5273 1.2305z"/>
  <path d="m462.71 219.64c-12.371 0-22.434-10.062-22.434-22.434 0-12.371 10.062-22.434 22.434-22.434 12.371 0 22.434 10.062 22.434 22.434 0 12.375-10.074 22.434-22.434 22.434zm0-38.637c-8.9375 0-16.203 7.2656-16.203 16.203s7.2656 16.203 16.203 16.203 16.203-7.2656 16.203-16.203-7.2773-16.203-16.203-16.203z"/>
  <path d="m482.02 200.33c-1.7227 0-3.1172-1.3906-3.1172-3.1172v-59.398c0-1.1484 0.63672-2.207 1.6602-2.7461 1.0195-0.53516 2.2461-0.47266 3.2031 0.17969 0.19141 0.12891 4.6992 3.2188 9.6016 7.6602 6.832 6.1914 10.918 11.824 12.141 16.766 0.42188 1.6719-0.60156 3.3594-2.2617 3.7812-1.6719 0.42188-3.3594-0.60156-3.7812-2.2617-1.418-5.6445-8.7461-12.613-14.352-17.133v53.18c0.023437 1.6992-1.3672 3.0898-3.0938 3.0898z"/>
  <use x="70" y="561.679688" xlink:href="#v"/>
  <use x="70.410156" y="561.679688" xlink:href="#c"/>
  <use x="70.6875" y="561.679688" xlink:href="#a"/>
  <use x="71.066406" y="561.679688" xlink:href="#g"/>
  <use x="71.445312" y="561.679688" xlink:href="#b"/>
  <use x="71.710938" y="561.679688" xlink:href="#a"/>
  <use x="72.09375" y="561.679688" xlink:href="#l"/>
  <use x="72.6875" y="561.679688" xlink:href="#k"/>
  <use x="73.089844" y="561.679688" xlink:href="#j"/>
  <use x="73.648438" y="561.679688" xlink:href="#f"/>
  <use x="74.117188" y="561.679688" xlink:href="#a"/>
  <use x="74.496094" y="561.679688" xlink:href="#i"/>
  <use x="74.832031" y="561.679688" xlink:href="#b"/>
  <use x="75.097656" y="561.679688" xlink:href="#a"/>
  <use x="75.476562" y="561.679688" xlink:href="#c"/>
  <use x="75.753906" y="561.679688" xlink:href="#a"/>
  <use x="76.132812" y="561.679688" xlink:href="#e"/>
  <use x="76.53125" y="561.679688" xlink:href="#u"/>
  <use x="76.90625" y="561.679688" xlink:href="#d"/>
  <use x="77.484375" y="561.679688" xlink:href="#t"/>
  <use x="77.917969" y="561.679688" xlink:href="#h"/>
  <use x="78.316406" y="561.679688" xlink:href="#i"/>
  <use x="78.648438" y="561.679688" xlink:href="#s"/>
  <use x="78.839844" y="561.679688" xlink:href="#g"/>
  <use x="79.21875" y="561.679688" xlink:href="#e"/>
  <use x="70" y="562.238281" xlink:href="#r"/>
  <use x="70.242188" y="562.238281" xlink:href="#c"/>
  <use x="70.519531" y="562.238281" xlink:href="#d"/>
  <use x="70.90625" y="562.238281" xlink:href="#q"/>
  <use x="71.683594" y="562.238281" xlink:href="#b"/>
  <use x="71.949219" y="562.238281" xlink:href="#p"/>
  <use x="72.347656" y="562.238281" xlink:href="#a"/>
  <use x="72.925781" y="562.238281" xlink:href="#f"/>
  <use x="73.394531" y="562.238281" xlink:href="#d"/>
  <use x="73.777344" y="562.238281" xlink:href="#h"/>
  <use x="74.175781" y="562.238281" xlink:href="#e"/>
  <use x="74.769531" y="562.238281" xlink:href="#o"/>
  <use x="75.179688" y="562.238281" xlink:href="#c"/>
  <use x="75.457031" y="562.238281" xlink:href="#d"/>
  <use x="75.839844" y="562.238281" xlink:href="#n"/>
  <use x="76.03125" y="562.238281" xlink:href="#a"/>
  <use x="76.414062" y="562.238281" xlink:href="#m"/>
  <use x="76.746094" y="562.238281" xlink:href="#b"/>
 </g>
</svg>
