<?xml version="1.0" encoding="UTF-8"?>
<svg width="700pt" height="700pt" version="1.1" viewBox="0 0 700 700" xmlns="http://www.w3.org/2000/svg">
 <g fill-rule="evenodd">
  <path d="m322 542.5c-3.8633 0-7-3.1328-7-6.9961v-503.99c0-3.8633 3.1289-7.0039 7-7.0039 3.8633 0 6.9961 3.1406 6.9961 7.0039v503.99c0 3.8594-3.1328 6.9961-6.9961 6.9961z"/>
  <path d="m441 430.5h-119c-3.8633 0-7-3.1406-7-7.0039 0-50.172 40.824-91 91-91h119c3.8633 0 6.9922 3.1406 6.9922 7.0039 0.007813 50.172-40.809 91-90.992 91zm-111.68-14.004h111.68c40.098 0 73.137-30.809 76.684-70h-111.68c-40.098 0-73.141 30.809-76.684 70z"/>
  <path d="m419.99 276.5h-97.996c-3.8633 0-7-3.1328-7-6.9961 0-42.453 34.539-77 77-77h97.996c3.8633 0 6.9922 3.1406 6.9922 7.0039 0.007813 42.449-34.535 76.992-76.992 76.992zm-90.609-14.008h90.613c32.371 0 59.117-24.539 62.609-55.992h-90.605c-32.379 0-59.129 24.539-62.621 55.992z"/>
  <path d="m392 143.5h-70c-3.8633 0-7-3.1328-7-6.9961 0-38.598 31.402-70 70-70h70c3.8633 0 6.9961 3.1406 6.9961 6.9961 0.007812 38.605-31.395 70-69.992 70zm-62.559-14h62.57c28.508 0 52.105-21.414 55.566-49h-62.578c-28.508 0-52.105 21.414-55.559 49z"/>
  <path d="m322 395.5h-119c-50.18 0-91-40.824-91-91 0-3.8633 3.1328-6.9961 6.9961-6.9961l119-0.003906c50.172 0 90.996 40.824 90.996 91-0.003906 3.8633-3.1328 6.9961-6.9961 6.9961zm-195.68-84.004c3.5469 39.199 36.586 70 76.684 70h111.68c-3.543-39.188-36.586-70-76.684-70z"/>
  <path d="m322 241.5h-98.004c-42.453 0-76.992-34.547-76.992-77.004 0-3.8633 3.1328-6.9922 6.9961-6.9922h98.004c42.453 0 76.992 34.539 76.992 76.992 0 3.8711-3.1328 7.0039-6.9961 7.0039zm-160.61-70.004c3.4961 31.461 30.238 56 62.609 56l90.617-0.003906c-3.4961-31.453-30.238-56-62.609-56z"/>
  <path d="m322 108.5h-70c-38.598 0-70-31.402-70-70 0-3.8633 3.1289-6.9922 6.9922-6.9922h70c38.598 0 70 31.395 70 70 0 3.8555-3.1328 6.9922-6.9961 6.9922zm-125.56-63c3.457 27.59 27.059 49 55.566 49l62.566-0.003906c-3.457-27.59-27.059-49-55.566-49l-62.57 0.003906z"/>
  <path d="m567 136.5c-34.73 0-62.996-28.254-62.996-63.004 0-34.73 28.266-62.996 62.996-62.996 34.738 0 63.004 28.254 63.004 62.996-0.003906 34.738-28.266 63.004-63.004 63.004zm0-112c-27.012 0-49 21.984-49 49 0 27.02 21.984 49 49 49 27.02 0 49.004-21.977 49.004-49-0.007812-27.012-21.984-49-49.004-49z"/>
  <path d="m112 549.5c-23.156 0-42-18.848-42-42 0-23.164 18.84-42 42-42s41.996 18.84 41.996 42c0 23.152-18.84 42-41.996 42zm0-70c-15.434 0-28.004 12.555-28.004 27.996 0 15.438 12.562 27.996 28.004 27.996s27.996-12.562 27.996-27.996c0-15.445-12.562-27.996-27.996-27.996z"/>
  <path d="m112 101.5c-23.156 0-42-18.844-42-42 0-23.164 18.84-42 42-42s41.996 18.84 41.996 42c0 23.156-18.84 42-41.996 42zm0-70c-15.434 0-28.004 12.555-28.004 27.996 0 15.438 12.562 27.996 28.004 27.996s27.996-12.562 27.996-27.996c0-15.441-12.562-27.996-27.996-27.996z"/>
 </g>
</svg>
