<?xml version="1.0" encoding="UTF-8"?>
<svg width="700pt" height="700pt" version="1.1" viewBox="0 0 700 700" xmlns="http://www.w3.org/2000/svg" xmlns:xlink="http://www.w3.org/1999/xlink">

 <g>
  <path d="m566.17 431.29c0 7.5273-6.1016 13.633-13.633 13.633-7.5273 0-13.629-6.1055-13.629-13.633 0-7.5273 6.1016-13.629 13.629-13.629 7.5312 0 13.633 6.1016 13.633 13.629"/>
  <path d="m347.47 165.5h-17.387v17.383c0 7.582 6.1719 13.754 13.746 13.754h17.383v-17.387c0.007812-7.582-6.1602-13.75-13.742-13.75z"/>
  <path d="m421.28 179.25v17.387h17.383c7.582 0 13.746-6.1719 13.746-13.754v-17.383h-17.387c-7.5781 0-13.742 6.168-13.742 13.75z"/>
  <path d="m583.84 393.03c-9.5547-9.1836-22.496-14.863-36.766-14.863h-31.164v-186.68c0-19.234-4.7812-37.352-13.109-53.336 10.941-6.1484 18.367-17.852 18.367-31.27v-4.8281h-22.223v4.8281c0 5.6328-3.4336 10.473-8.3164 12.551-21.254-26.68-53.949-43.855-90.629-43.855h-17.516c-36.68 0-69.379 17.176-90.629 43.855-4.8828-2.0781-8.3164-6.9141-8.3164-12.551v-4.8281h-22.223v4.8281c0 13.418 7.4219 25.121 18.367 31.27-8.3281 15.98-13.109 34.098-13.109 53.336v29.988c0 67.809 38.254 126.83 94.297 156.68h-127.26c-9.7891 0-18.938 2.7109-26.824 7.3477 1.1914-3.3984 0.72266-7.3125-1.6172-10.398l-9.9062-13.07c11.809-12.227 17.512-28.906 15.34-46.219-2.5547-20.324-15.344-37.207-34.223-45.16l-1.3203-0.55859-1.3828-0.37891-47.332-13.074-28.012-7.7383-0.125 29.062-0.20703 49.105-0.003906 1.4375 0.17969 1.4297c3.5547 28.297 27.777 49.637 56.34 49.637 7.8555 0 15.484-1.6289 22.562-4.7539l10.387 13.707c2.1836 2.8789 5.5039 4.4023 8.8633 4.4023 0.25781 0 0.50781-0.10547 0.76172-0.125-10.203 9.6875-16.605 23.336-16.605 38.477 0 29.289 23.828 53.121 53.121 53.121h313.46c14.262 0 27.211-5.6836 36.766-14.863 11.078-9.0781 18.164-22.855 18.164-38.262s-7.0859-29.176-18.16-38.258zm-402.24-49.027-19.609-25.879c-3.707-4.8906-10.68-5.8594-15.562-2.1445-4.8906 3.707-5.8516 10.68-2.1445 15.562l18.672 24.633c-2.793 0.72266-5.6211 1.1758-8.4336 1.1758-16.398 0-31.988-11.816-34.293-30.184l0.20703-49.105 47.332 13.074c21.543 9.0898 27.266 35.719 13.832 52.867zm256.83-199.32c28.773 0 49.852 33.566 26.125 63.598-4.7539 6.0156-12.297 8.5625-19.965 8.6875-1.0195 0.015625-2.0156 0.18359-2.9531 0.48047l-98.504 0.003907c-0.36328-0.0625-0.73437-0.09375-1.1094-0.11719-12.711-0.72656-24.668-7.2539-30.184-18.727-13.043-27.133 6.5195-53.922 32.227-53.922 1.3203 0 20.355-0.24609 24.449 2.5938 4.1484 2.8789 7.4102 6.9492 9.2578 11.723 2.1445 5.5273 7.543 9.1016 13.473 9.1016 5.9297 0 11.336-3.5742 13.473-9.1016 1.8477-4.7695 5.1055-8.8438 9.2578-11.723 4.0977-2.8477 23.133-2.5977 24.453-2.5977zm-55.938-46.875h17.516c23.289 0 44.574 8.5977 60.984 22.715h-32.613c-15.012 0-28.402 7.0117-37.133 17.914-8.7266-10.898-22.113-17.914-37.133-17.914h-32.609c16.406-14.113 37.691-22.715 60.988-22.715zm-93.695 123.68v-21.09c7.4297 21.18 26.668 36.926 50.059 38.98 0.81641 0.19141 1.6641 0.29297 2.5352 0.29297h92.238c1.6562 0 14.426-0.39844 15.832-1.0977 20.777-3.9766 37.418-18.906 44.23-38.176v42.844c-27.828 15.438-45.309 44.598-45.309 77.094 0 20.91 7.4492 40.746 20.391 56.352h-24.77c-85.582 0.007812-155.21-69.625-155.21-155.2zm204.9 48.652v100.19c-14.422-12.414-23.09-30.543-23.09-49.992 0-19.777 8.6641-37.895 23.09-50.199zm20.285 192.06h-280.37c-17.039 0-30.902-13.859-30.902-30.902 0-17.039 13.859-30.902 30.902-30.902h280.36c-6.8047 8.4727-10.902 19.215-10.902 30.902s4.1016 22.426 10.906 30.902zm55.73-9.9336c-4.7031 3.8594-10.629 6.2734-17.176 6.2734-15.02 0-27.238-12.219-27.238-27.238s12.219-27.238 27.238-27.238c6.5391 0 12.473 2.4141 17.176 6.2734 5.1133 5.5156 8.2656 12.875 8.2656 20.973 0.003907 8.082-3.1523 15.441-8.2656 20.957z"/>
 
 </g>
</svg>
