<?xml version="1.0" encoding="UTF-8"?>
<svg width="700pt" height="700pt" version="1.1" viewBox="0 0 700 700" xmlns="http://www.w3.org/2000/svg" xmlns:xlink="http://www.w3.org/1999/xlink">

 <g>
  <path d="m371.26 438.64c1.2812 3.6875 4.8516 6.0781 8.75 5.8633 0.98438-0.011719 1.9609-0.1875 2.8867-0.52344 4.5312-1.6094 6.9141-6.5742 5.3398-11.113-3.8086-10.496-8.4883-20.652-14-30.363-2.418-4.2773-7.8438-5.7852-12.121-3.3672-4.2734 2.4141-5.7852 7.8398-3.3672 12.117 4.9727 8.7422 9.1602 17.906 12.512 27.387z"/>
  <path d="m603.75 122.5c2.3203 0 4.5469-0.92188 6.1875-2.5625s2.5625-3.8672 2.5625-6.1875v-35c0-2.3203-0.92188-4.5469-2.5625-6.1875s-3.8672-2.5625-6.1875-2.5625h-70c-4.832 0-8.75 3.918-8.75 8.75v26.25h-52.5v-35h17.5c4.6406 0 9.0938-1.8438 12.375-5.125s5.125-7.7344 5.125-12.375v-17.5c0-4.6406-1.8438-9.0938-5.125-12.375s-7.7344-5.125-12.375-5.125h-87.5c-4.6406 0-9.0938 1.8438-12.375 5.125s-5.125 7.7344-5.125 12.375v17.5c0 4.6406 1.8438 9.0938 5.125 12.375s7.7344 5.125 12.375 5.125h17.5v35h-35c-20.887 0-40.918 8.2969-55.684 23.066-14.77 14.766-23.066 34.797-23.066 55.684v52.5h-8.75c-4.832 0-8.75 3.918-8.75 8.75v35c0 2.3203 0.92188 4.5469 2.5625 6.1875s3.8672 2.5625 6.1875 2.5625h105c2.3203 0 4.5469-0.92188 6.1875-2.5625s2.5625-3.8672 2.5625-6.1875v-35c0-2.3203-0.92188-4.5469-2.5625-6.1875s-3.8672-2.5625-6.1875-2.5625h-8.75v-43.75h105c4.832 0 8.75-3.918 8.75-8.75s-3.918-8.75-8.75-8.75h-113.75c-4.832 0-8.75 3.918-8.75 8.75v52.5h-52.5v-52.5c0-16.246 6.4531-31.824 17.941-43.309 11.484-11.488 27.062-17.941 43.309-17.941h140v96.25c0 2.3203 0.92188 4.5469 2.5625 6.1875s3.8672 2.5625 6.1875 2.5625h70c2.3203 0 4.5469-0.92188 6.1875-2.5625s2.5625-3.8672 2.5625-6.1875v-70c0-4.832-3.918-8.75-8.75-8.75s-8.75 3.918-8.75 8.75v61.25h-52.5v-122.5h52.5v26.25c0 2.3203 0.92188 4.5469 2.5625 6.1875s3.8672 2.5625 6.1875 2.5625zm-210 131.25v17.5h-87.5v-17.5zm8.75-218.75h87.5v17.5h-87.5zm35 70v-35h17.5v35z"/>
  <path d="m577.5 113.75c0 4.832-3.918 8.75-8.75 8.75s-8.75-3.918-8.75-8.75 3.918-8.75 8.75-8.75 8.75 3.918 8.75 8.75"/>
  <path d="m577.5 148.75c0 4.832-3.918 8.75-8.75 8.75s-8.75-3.918-8.75-8.75 3.918-8.75 8.75-8.75 8.75 3.918 8.75 8.75"/>
  <path d="m577.5 183.75c0 4.832-3.918 8.75-8.75 8.75s-8.75-3.918-8.75-8.75 3.918-8.75 8.75-8.75 8.75 3.918 8.75 8.75"/>
  <path d="m358.75 376.25c0 4.832-3.918 8.75-8.75 8.75s-8.75-3.918-8.75-8.75 3.918-8.75 8.75-8.75 8.75 3.918 8.75 8.75"/>
  <path d="m366.1 343c-1.8711 1.3789-3.1172 3.4453-3.4609 5.7422-0.34375 2.3008 0.23828 4.6406 1.6211 6.5078 17.59 23.625 46.988 69.125 46.988 108.5 0 21.883-11.676 42.102-30.625 53.043-18.949 10.941-42.301 10.941-61.25 0-18.949-10.941-30.625-31.16-30.625-53.043 0-59.938 67.023-133.35 67.637-134.05 1.7695-1.6562 2.7734-3.9727 2.7734-6.3984-0.003906-2.4258-1.0117-4.7383-2.7891-6.3906-1.7734-1.6562-4.1523-2.4961-6.5703-2.3281-2.4219 0.16797-4.6602 1.3359-6.1875 3.2188-2.9766 3.2383-72.363 78.75-72.363 145.95 0 28.133 15.008 54.133 39.375 68.199 24.367 14.066 54.383 14.066 78.75 0 24.367-14.066 39.375-40.066 39.375-68.199 0-42.176-27.387-87.5-50.398-119-2.9023-3.8672-8.3867-4.6484-12.25-1.75z"/>

 </g>
</svg>
